<svg version="1.1" xmlns="http://www.w3.org/2000/svg" xmlns:xlink="http://www.w3.org/1999/xlink" width="753" height="135"><defs><clipPath id="TenceUivsshQ"><path fill="none" stroke="none" d="M 348.5 27.5 L 748.5 27.5 L 748.5 77.5 L 348.5 77.5 L 348.5 27.5"/></clipPath><clipPath id="vDReLyHSVDSJ"><path fill="none" stroke="none" d="M 348.5 27.5 L 748.5 27.5 L 748.5 77.5 L 348.5 77.5 L 348.5 27.5"/></clipPath><clipPath id="CAOLEZbVXxdp"><path fill="none" stroke="none" d="M 348.5 27.5 L 748.5 27.5 L 748.5 77.5 L 348.5 77.5 L 348.5 27.5"/></clipPath><clipPath id="JTwbWzgvnUnC"><path fill="none" stroke="none" d="M 348.5 27.5 L 748.5 27.5 L 748.5 77.5 L 348.5 77.5 L 348.5 27.5"/></clipPath></defs><path fill="none" stroke="rgb(229,229,229)" paint-order="fill" d="M 348.5 27.5 L 748.5 27.5 L 748.5 77.5 L 348.5 77.5 L 348.5 27.5" stroke-opacity="1" stroke-linejoin="bevel" stroke-miterlimit="10" stroke-dasharray=""/><path fill="none" stroke="rgb(229,229,229)" paint-order="fill" d="M 366.5 77.5 L 366.5 27.5 M 443.5 77.5 L 443.5 27.5 M 519.5 77.5 L 519.5 27.5 M 596.5 77.5 L 596.5 27.5 M 672.5 77.5 L 672.5 27.5" stroke-opacity="1" stroke-linejoin="bevel" stroke-miterlimit="10" stroke-dasharray="" clip-path="url(#TenceUivsshQ)"/><path fill="none" stroke="rgb(229,229,229)" paint-order="fill" d="M 348.5 71.5 L 748.5 71.5 M 348.5 58.5 L 748.5 58.5 M 348.5 46.5 L 748.5 46.5 M 348.5 33.5 L 748.5 33.5" stroke-opacity="1" stroke-linejoin="bevel" stroke-miterlimit="10" stroke-dasharray="" clip-path="url(#vDReLyHSVDSJ)"/><path fill="none" stroke="none"/><path fill="rgb(143,210,95)" stroke="none" paint-order="stroke" d="M 366.68182373046875 28.75 L 730.3181762695312 28.75 L 730.3181762695312 38.75 L 366.68182373046875 38.75 L 366.68182373046875 28.75" fill-opacity="1" clip-path="url(#CAOLEZbVXxdp)"/><path fill="none" stroke="rgb(143,210,95)" paint-order="fill" d="M 366.68182373046875 28.75 L 730.3181762695312 28.75 L 730.3181762695312 38.75 L 366.68182373046875 38.75 L 366.68182373046875 28.75" stroke-opacity="1" stroke-linejoin="bevel" stroke-miterlimit="10" stroke-dasharray="" clip-path="url(#CAOLEZbVXxdp)"/><path fill="rgb(95,190,117)" stroke="none" paint-order="stroke" d="M 366.68182373046875 41.25 L 544.4887084960938 41.25 L 544.4887084960938 51.25 L 366.68182373046875 51.25 L 366.68182373046875 41.25" fill-opacity="1" clip-path="url(#CAOLEZbVXxdp)"/><path fill="none" stroke="rgb(95,190,117)" paint-order="fill" d="M 366.68182373046875 41.25 L 544.4887084960938 41.25 L 544.4887084960938 51.25 L 366.68182373046875 51.25 L 366.68182373046875 41.25" stroke-opacity="1" stroke-linejoin="bevel" stroke-miterlimit="10" stroke-dasharray="" clip-path="url(#CAOLEZbVXxdp)"/><path fill="rgb(92,187,119)" stroke="none" paint-order="stroke" d="M 366.68182373046875 53.75 L 514.2666625976562 53.75 L 514.2666625976562 63.75 L 366.68182373046875 63.75 L 366.68182373046875 53.75" fill-opacity="1" clip-path="url(#CAOLEZbVXxdp)"/><path fill="none" stroke="rgb(92,187,119)" paint-order="fill" d="M 366.68182373046875 53.75 L 514.2666625976562 53.75 L 514.2666625976562 63.75 L 366.68182373046875 63.75 L 366.68182373046875 53.75" stroke-opacity="1" stroke-linejoin="bevel" stroke-miterlimit="10" stroke-dasharray="" clip-path="url(#CAOLEZbVXxdp)"/><path fill="rgb(139,209,96)" stroke="none" paint-order="stroke" d="M 366.68182373046875 66.25 L 466.6752624511719 66.25 L 466.6752624511719 76.25 L 366.68182373046875 76.25 L 366.68182373046875 66.25" fill-opacity="1" clip-path="url(#CAOLEZbVXxdp)"/><path fill="none" stroke="rgb(139,209,96)" paint-order="fill" d="M 366.68182373046875 66.25 L 466.6752624511719 66.25 L 466.6752624511719 76.25 L 366.68182373046875 76.25 L 366.68182373046875 66.25" stroke-opacity="1" stroke-linejoin="bevel" stroke-miterlimit="10" stroke-dasharray="" clip-path="url(#CAOLEZbVXxdp)"/><path fill="none" stroke="rgb(0,0,0)" paint-order="fill" d="M 348.5 77.5 L 748.5 77.5" stroke-opacity="1" stroke-linejoin="bevel" stroke-miterlimit="10" stroke-dasharray=""/><path fill="none" stroke="rgb(0,0,0)" paint-order="fill" d="M 366.5 83.5 L 366.5 75.5 M 443.5 83.5 L 443.5 75.5 M 519.5 83.5 L 519.5 75.5 M 596.5 83.5 L 596.5 75.5 M 672.5 83.5 L 672.5 75.5" stroke-opacity="1" stroke-linejoin="bevel" stroke-miterlimit="10" stroke-dasharray=""/><path fill="none" stroke="rgb(0,0,0)" paint-order="fill" d="M 351.5 81.5 L 351.5 77.5 M 366.5 81.5 L 366.5 77.5 M 381.5 81.5 L 381.5 77.5 M 397.5 81.5 L 397.5 77.5 M 412.5 81.5 L 412.5 77.5 M 427.5 81.5 L 427.5 77.5 M 443.5 81.5 L 443.5 77.5 M 458.5 81.5 L 458.5 77.5 M 473.5 81.5 L 473.5 77.5 M 489.5 81.5 L 489.5 77.5 M 504.5 81.5 L 504.5 77.5 M 519.5 81.5 L 519.5 77.5 M 534.5 81.5 L 534.5 77.5 M 550.5 81.5 L 550.5 77.5 M 565.5 81.5 L 565.5 77.5 M 580.5 81.5 L 580.5 77.5 M 596.5 81.5 L 596.5 77.5 M 611.5 81.5 L 611.5 77.5 M 626.5 81.5 L 626.5 77.5 M 641.5 81.5 L 641.5 77.5 M 657.5 81.5 L 657.5 77.5 M 672.5 81.5 L 672.5 77.5 M 687.5 81.5 L 687.5 77.5 M 703.5 81.5 L 703.5 77.5 M 718.5 81.5 L 718.5 77.5 M 733.5 81.5 L 733.5 77.5" stroke-opacity="1" stroke-linejoin="bevel" stroke-miterlimit="10" stroke-dasharray=""/><text fill="rgb(68,68,68)" stroke="none" font-family="helvetica" font-size="11px" font-style="normal" font-weight="normal" text-decoration="normal" x="360.06414794921875" y="91.945068359375" text-anchor="start" dominant-baseline="alphabetic" transform="matrix(0.7071067811865476, -0.7071067811865475, 0.7071067811865475, 0.7071067811865476, 45.52677627898106, 285.2042539626553)" fill-opacity="1">0</text><text fill="rgb(68,68,68)" stroke="none" font-family="helvetica" font-size="11px" font-style="normal" font-weight="normal" text-decoration="normal" x="421.2447814941406" y="91.945068359375" text-anchor="start" dominant-baseline="alphabetic" transform="matrix(0.7071067811865476, -0.7071067811865475, 0.7071067811865475, 0.7071067811865476, 67.92494676659959, 339.27822092620863)" fill-opacity="1">0.05</text><text fill="rgb(68,68,68)" stroke="none" font-family="helvetica" font-size="11px" font-style="normal" font-weight="normal" text-decoration="normal" x="503.8345947265625" y="91.945068359375" text-anchor="start" dominant-baseline="alphabetic" transform="matrix(0.7071067811865476, -0.7071067811865475, 0.7071067811865475, 0.7071067811865476, 90.32311725421806, 393.35218788976204)" fill-opacity="1">0.1</text><text fill="rgb(68,68,68)" stroke="none" font-family="helvetica" font-size="11px" font-style="normal" font-weight="normal" text-decoration="normal" x="574.1890258789062" y="91.945068359375" text-anchor="start" dominant-baseline="alphabetic" transform="matrix(0.7071067811865476, -0.7071067811865475, 0.7071067811865475, 0.7071067811865476, 112.72127880344487, 447.426133274129)" fill-opacity="1">0.15</text><text fill="rgb(68,68,68)" stroke="none" font-family="helvetica" font-size="11px" font-style="normal" font-weight="normal" text-decoration="normal" x="656.7788696289062" y="91.945068359375" text-anchor="start" dominant-baseline="alphabetic" transform="matrix(0.7071067811865476, -0.7071067811865475, 0.7071067811865475, 0.7071067811865476, 135.11945822945506, 501.5001218168688)" fill-opacity="1">0.2</text><text fill="rgb(68,68,68)" stroke="none" font-family="helvetica" font-size="13px" font-style="italic" font-weight="normal" text-decoration="normal" x="515.484130859375" y="128.71774531498966" text-anchor="start" dominant-baseline="alphabetic" transform="matrix(1, 0, 0, 1, 0.5, 0.5)" fill-opacity="1">Importance</text><path fill="none" stroke="rgb(0,0,0)" paint-order="fill" d="M 348.5 77.5 L 348.5 27.5" stroke-opacity="1" stroke-linejoin="bevel" stroke-miterlimit="10" stroke-dasharray=""/><path fill="none" stroke="rgb(0,0,0)" paint-order="fill" d="M 342.5 71.5 L 350.5 71.5 M 342.5 58.5 L 350.5 58.5 M 342.5 46.5 L 350.5 46.5 M 342.5 33.5 L 350.5 33.5" stroke-opacity="1" stroke-linejoin="bevel" stroke-miterlimit="10" stroke-dasharray=""/><path fill="none" stroke="rgb(0,0,0)" paint-order="fill" d="" stroke-opacity="1" stroke-linejoin="bevel" stroke-miterlimit="10" stroke-dasharray=""/><text fill="rgb(68,68,68)" stroke="none" font-family="helvetica" font-size="11px" font-style="normal" font-weight="normal" text-decoration="normal" x="137.0556640625" y="74.25" text-anchor="start" dominant-baseline="alphabetic" transform="matrix(1, 0, 0, 1, 0.5, 0.5)" fill-opacity="1">Cell wall/membrane/envelope biogenesis</text><text fill="rgb(68,68,68)" stroke="none" font-family="helvetica" font-size="11px" font-style="normal" font-weight="normal" text-decoration="normal" x="2.52587890625" y="61.75" text-anchor="start" dominant-baseline="alphabetic" transform="matrix(1, 0, 0, 1, 0.5, 0.5)" fill-opacity="1">Post-translational modification, protein turnover, chaperone functions</text><text fill="rgb(68,68,68)" stroke="none" font-family="helvetica" font-size="11px" font-style="normal" font-weight="normal" text-decoration="normal" x="2.52587890625" y="49.25" text-anchor="start" dominant-baseline="alphabetic" transform="matrix(1, 0, 0, 1, 0.5, 0.5)" fill-opacity="1">Post-translational modification, protein turnover, chaperone functions</text><text fill="rgb(68,68,68)" stroke="none" font-family="helvetica" font-size="11px" font-style="normal" font-weight="normal" text-decoration="normal" x="170.06103515625" y="36.75" text-anchor="start" dominant-baseline="alphabetic" transform="matrix(1, 0, 0, 1, 0.5, 0.5)" fill-opacity="1">Energy production and conversion</text><path fill="none" stroke="none"/><text fill="rgb(68,68,68)" stroke="none" font-family="helvetica" font-size="13px" font-style="normal" font-weight="bold" text-decoration="normal" x="0" y="0" text-anchor="start" dominant-baseline="text-after-edge" transform="matrix(1, 0, 0, 1, 348.5, 22.5)" fill-opacity="1">Oxygen (µmol/kg)</text></svg>