<svg version="1.1" xmlns="http://www.w3.org/2000/svg" xmlns:xlink="http://www.w3.org/1999/xlink" width="619" height="130"><defs><clipPath id="JluiyXuuvfsk"><path fill="none" stroke="none" d="M 214.5 27.5 L 614.5 27.5 L 614.5 77.5 L 214.5 77.5 L 214.5 27.5"/></clipPath><clipPath id="aKLryiVwlTLx"><path fill="none" stroke="none" d="M 214.5 27.5 L 614.5 27.5 L 614.5 77.5 L 214.5 77.5 L 214.5 27.5"/></clipPath><clipPath id="QSpWlPXcNuvM"><path fill="none" stroke="none" d="M 214.5 27.5 L 614.5 27.5 L 614.5 77.5 L 214.5 77.5 L 214.5 27.5"/></clipPath><clipPath id="iVMmIUJKOerJ"><path fill="none" stroke="none" d="M 214.5 27.5 L 614.5 27.5 L 614.5 77.5 L 214.5 77.5 L 214.5 27.5"/></clipPath></defs><path fill="none" stroke="rgb(229,229,229)" paint-order="fill" d="M 214.5 27.5 L 614.5 27.5 L 614.5 77.5 L 214.5 77.5 L 214.5 27.5" stroke-opacity="1" stroke-linejoin="bevel" stroke-miterlimit="10" stroke-dasharray=""/><path fill="none" stroke="rgb(229,229,229)" paint-order="fill" d="M 232.5 77.5 L 232.5 27.5 M 292.5 77.5 L 292.5 27.5 M 351.5 77.5 L 351.5 27.5 M 410.5 77.5 L 410.5 27.5 M 470.5 77.5 L 470.5 27.5 M 529.5 77.5 L 529.5 27.5 M 588.5 77.5 L 588.5 27.5" stroke-opacity="1" stroke-linejoin="bevel" stroke-miterlimit="10" stroke-dasharray="" clip-path="url(#JluiyXuuvfsk)"/><path fill="none" stroke="rgb(229,229,229)" paint-order="fill" d="M 214.5 71.5 L 614.5 71.5 M 214.5 58.5 L 614.5 58.5 M 214.5 46.5 L 614.5 46.5 M 214.5 33.5 L 614.5 33.5" stroke-opacity="1" stroke-linejoin="bevel" stroke-miterlimit="10" stroke-dasharray="" clip-path="url(#aKLryiVwlTLx)"/><path fill="none" stroke="none"/><path fill="rgb(240,234,138)" stroke="none" paint-order="stroke" d="M 232.68182373046875 28.75 L 596.3181762695312 28.75 L 596.3181762695312 38.75 L 232.68182373046875 38.75 L 232.68182373046875 28.75" fill-opacity="1" clip-path="url(#QSpWlPXcNuvM)"/><path fill="none" stroke="rgb(240,234,138)" paint-order="fill" d="M 232.68182373046875 28.75 L 596.3181762695312 28.75 L 596.3181762695312 38.75 L 232.68182373046875 38.75 L 232.68182373046875 28.75" stroke-opacity="1" stroke-linejoin="bevel" stroke-miterlimit="10" stroke-dasharray="" clip-path="url(#QSpWlPXcNuvM)"/><path fill="rgb(78,174,127)" stroke="none" paint-order="stroke" d="M 232.68182373046875 41.25 L 268.8002624511719 41.25 L 268.8002624511719 51.25 L 232.68182373046875 51.25 L 232.68182373046875 41.25" fill-opacity="1" clip-path="url(#QSpWlPXcNuvM)"/><path fill="none" stroke="rgb(78,174,127)" paint-order="fill" d="M 232.68182373046875 41.25 L 268.8002624511719 41.25 L 268.8002624511719 51.25 L 232.68182373046875 51.25 L 232.68182373046875 41.25" stroke-opacity="1" stroke-linejoin="bevel" stroke-miterlimit="10" stroke-dasharray="" clip-path="url(#QSpWlPXcNuvM)"/><path fill="rgb(76,172,128)" stroke="none" paint-order="stroke" d="M 232.68182373046875 53.75 L 258.1903991699219 53.75 L 258.1903991699219 63.75 L 232.68182373046875 63.75 L 232.68182373046875 53.75" fill-opacity="1" clip-path="url(#QSpWlPXcNuvM)"/><path fill="none" stroke="rgb(76,172,128)" paint-order="fill" d="M 232.68182373046875 53.75 L 258.1903991699219 53.75 L 258.1903991699219 63.75 L 232.68182373046875 63.75 L 232.68182373046875 53.75" stroke-opacity="1" stroke-linejoin="bevel" stroke-miterlimit="10" stroke-dasharray="" clip-path="url(#QSpWlPXcNuvM)"/><path fill="rgb(90,185,120)" stroke="none" paint-order="stroke" d="M 232.68182373046875 66.25 L 243.94715881347656 66.25 L 243.94715881347656 76.25 L 232.68182373046875 76.25 L 232.68182373046875 66.25" fill-opacity="1" clip-path="url(#QSpWlPXcNuvM)"/><path fill="none" stroke="rgb(90,185,120)" paint-order="fill" d="M 232.68182373046875 66.25 L 243.94715881347656 66.25 L 243.94715881347656 76.25 L 232.68182373046875 76.25 L 232.68182373046875 66.25" stroke-opacity="1" stroke-linejoin="bevel" stroke-miterlimit="10" stroke-dasharray="" clip-path="url(#QSpWlPXcNuvM)"/><path fill="none" stroke="rgb(0,0,0)" paint-order="fill" d="M 214.5 77.5 L 614.5 77.5" stroke-opacity="1" stroke-linejoin="bevel" stroke-miterlimit="10" stroke-dasharray=""/><path fill="none" stroke="rgb(0,0,0)" paint-order="fill" d="M 232.5 83.5 L 232.5 75.5 M 292.5 83.5 L 292.5 75.5 M 351.5 83.5 L 351.5 75.5 M 410.5 83.5 L 410.5 75.5 M 470.5 83.5 L 470.5 75.5 M 529.5 83.5 L 529.5 75.5 M 588.5 83.5 L 588.5 75.5" stroke-opacity="1" stroke-linejoin="bevel" stroke-miterlimit="10" stroke-dasharray=""/><path fill="none" stroke="rgb(0,0,0)" paint-order="fill" d="M 220.5 81.5 L 220.5 77.5 M 232.5 81.5 L 232.5 77.5 M 244.5 81.5 L 244.5 77.5 M 256.5 81.5 L 256.5 77.5 M 268.5 81.5 L 268.5 77.5 M 280.5 81.5 L 280.5 77.5 M 292.5 81.5 L 292.5 77.5 M 303.5 81.5 L 303.5 77.5 M 315.5 81.5 L 315.5 77.5 M 327.5 81.5 L 327.5 77.5 M 339.5 81.5 L 339.5 77.5 M 351.5 81.5 L 351.5 77.5 M 363.5 81.5 L 363.5 77.5 M 375.5 81.5 L 375.5 77.5 M 387.5 81.5 L 387.5 77.5 M 398.5 81.5 L 398.5 77.5 M 410.5 81.5 L 410.5 77.5 M 422.5 81.5 L 422.5 77.5 M 434.5 81.5 L 434.5 77.5 M 446.5 81.5 L 446.5 77.5 M 458.5 81.5 L 458.5 77.5 M 470.5 81.5 L 470.5 77.5 M 481.5 81.5 L 481.5 77.5 M 493.5 81.5 L 493.5 77.5 M 505.5 81.5 L 505.5 77.5 M 517.5 81.5 L 517.5 77.5 M 529.5 81.5 L 529.5 77.5 M 541.5 81.5 L 541.5 77.5 M 553.5 81.5 L 553.5 77.5 M 565.5 81.5 L 565.5 77.5 M 576.5 81.5 L 576.5 77.5 M 588.5 81.5 L 588.5 77.5 M 600.5 81.5 L 600.5 77.5 M 612.5 81.5 L 612.5 77.5" stroke-opacity="1" stroke-linejoin="bevel" stroke-miterlimit="10" stroke-dasharray=""/><text fill="rgb(68,68,68)" stroke="none" font-family="helvetica" font-size="11px" font-style="normal" font-weight="normal" text-decoration="normal" x="226.06414794921875" y="91.945068359375" text-anchor="start" dominant-baseline="alphabetic" transform="matrix(0.7071067811865476, -0.7071067811865475, 0.7071067811865475, 0.7071067811865476, 6.279084957978455, 190.4519452836579)" fill-opacity="1">0</text><text fill="rgb(68,68,68)" stroke="none" font-family="helvetica" font-size="11px" font-style="normal" font-weight="normal" text-decoration="normal" x="276.25006103515625" y="91.945068359375" text-anchor="start" dominant-baseline="alphabetic" transform="matrix(0.7071067811865476, -0.7071067811865475, 0.7071067811865475, 0.7071067811865476, 23.665150629183472, 232.42562082339037)" fill-opacity="1">0.1</text><text fill="rgb(68,68,68)" stroke="none" font-family="helvetica" font-size="11px" font-style="normal" font-weight="normal" text-decoration="normal" x="335.6097717285156" y="91.945068359375" text-anchor="start" dominant-baseline="alphabetic" transform="matrix(0.7071067811865476, -0.7071067811865475, 0.7071067811865475, 0.7071067811865476, 41.05120736199683, 274.3992747839364)" fill-opacity="1">0.2</text><text fill="rgb(68,68,68)" stroke="none" font-family="helvetica" font-size="11px" font-style="normal" font-weight="normal" text-decoration="normal" x="394.9695129394531" y="91.945068359375" text-anchor="start" dominant-baseline="alphabetic" transform="matrix(0.7071067811865476, -0.7071067811865475, 0.7071067811865475, 0.7071067811865476, 58.43727303320185, 316.3729503236689)" fill-opacity="1">0.3</text><text fill="rgb(68,68,68)" stroke="none" font-family="helvetica" font-size="11px" font-style="normal" font-weight="normal" text-decoration="normal" x="454.3292541503906" y="91.945068359375" text-anchor="start" dominant-baseline="alphabetic" transform="matrix(0.7071067811865476, -0.7071067811865475, 0.7071067811865475, 0.7071067811865476, 75.82333870440686, 358.34662586340136)" fill-opacity="1">0.4</text><text fill="rgb(68,68,68)" stroke="none" font-family="helvetica" font-size="11px" font-style="normal" font-weight="normal" text-decoration="normal" x="513.68896484375" y="91.945068359375" text-anchor="start" dominant-baseline="alphabetic" transform="matrix(0.7071067811865476, -0.7071067811865475, 0.7071067811865475, 0.7071067811865476, 93.20939543722022, 400.3202798239474)" fill-opacity="1">0.5</text><text fill="rgb(68,68,68)" stroke="none" font-family="helvetica" font-size="11px" font-style="normal" font-weight="normal" text-decoration="normal" x="573.0487060546875" y="91.945068359375" text-anchor="start" dominant-baseline="alphabetic" transform="matrix(0.7071067811865476, -0.7071067811865475, 0.7071067811865475, 0.7071067811865476, 110.59546110842524, 442.29395536367986)" fill-opacity="1">0.6</text><text fill="rgb(68,68,68)" stroke="none" font-family="helvetica" font-size="13px" font-style="italic" font-weight="normal" text-decoration="normal" x="381.484130859375" y="124.39189528496706" text-anchor="start" dominant-baseline="alphabetic" transform="matrix(1, 0, 0, 1, 0.5, 0.5)" fill-opacity="1">Importance</text><path fill="none" stroke="rgb(0,0,0)" paint-order="fill" d="M 214.5 77.5 L 214.5 27.5" stroke-opacity="1" stroke-linejoin="bevel" stroke-miterlimit="10" stroke-dasharray=""/><path fill="none" stroke="rgb(0,0,0)" paint-order="fill" d="M 208.5 71.5 L 216.5 71.5 M 208.5 58.5 L 216.5 58.5 M 208.5 46.5 L 216.5 46.5 M 208.5 33.5 L 216.5 33.5" stroke-opacity="1" stroke-linejoin="bevel" stroke-miterlimit="10" stroke-dasharray=""/><path fill="none" stroke="rgb(0,0,0)" paint-order="fill" d="" stroke-opacity="1" stroke-linejoin="bevel" stroke-miterlimit="10" stroke-dasharray=""/><text fill="rgb(68,68,68)" stroke="none" font-family="helvetica" font-size="11px" font-style="normal" font-weight="normal" text-decoration="normal" x="3.0556640625" y="74.25" text-anchor="start" dominant-baseline="alphabetic" transform="matrix(1, 0, 0, 1, 0.5, 0.5)" fill-opacity="1">Cell wall/membrane/envelope biogenesis</text><text fill="rgb(68,68,68)" stroke="none" font-family="helvetica" font-size="11px" font-style="normal" font-weight="normal" text-decoration="normal" x="21.4140625" y="61.75" text-anchor="start" dominant-baseline="alphabetic" transform="matrix(1, 0, 0, 1, 0.5, 0.5)" fill-opacity="1">Amino acid metabolism and transport</text><text fill="rgb(68,68,68)" stroke="none" font-family="helvetica" font-size="11px" font-style="normal" font-weight="normal" text-decoration="normal" x="91.12548828125" y="49.25" text-anchor="start" dominant-baseline="alphabetic" transform="matrix(1, 0, 0, 1, 0.5, 0.5)" fill-opacity="1">Coenzyme metabolism</text><text fill="rgb(68,68,68)" stroke="none" font-family="helvetica" font-size="11px" font-style="normal" font-weight="normal" text-decoration="normal" x="9.1787109375" y="36.75" text-anchor="start" dominant-baseline="alphabetic" transform="matrix(1, 0, 0, 1, 0.5, 0.5)" fill-opacity="1">Carbohydrate metabolism and transport</text><path fill="none" stroke="none"/><text fill="rgb(68,68,68)" stroke="none" font-family="helvetica" font-size="13px" font-style="normal" font-weight="bold" text-decoration="normal" x="0" y="0" text-anchor="start" dominant-baseline="text-after-edge" transform="matrix(1, 0, 0, 1, 214.5, 22.5)" fill-opacity="1">Nitrates (µmol/L)</text></svg>