<svg version="1.1" xmlns="http://www.w3.org/2000/svg" xmlns:xlink="http://www.w3.org/1999/xlink" width="753" height="135"><defs><clipPath id="DUlGWkhFJtph"><path fill="none" stroke="none" d="M 348.5 27.5 L 748.5 27.5 L 748.5 77.5 L 348.5 77.5 L 348.5 27.5"/></clipPath><clipPath id="VUbtzuvdeVhg"><path fill="none" stroke="none" d="M 348.5 27.5 L 748.5 27.5 L 748.5 77.5 L 348.5 77.5 L 348.5 27.5"/></clipPath><clipPath id="mGdVoHhTDnlb"><path fill="none" stroke="none" d="M 348.5 27.5 L 748.5 27.5 L 748.5 77.5 L 348.5 77.5 L 348.5 27.5"/></clipPath><clipPath id="pBMxdUZdBRRe"><path fill="none" stroke="none" d="M 348.5 27.5 L 748.5 27.5 L 748.5 77.5 L 348.5 77.5 L 348.5 27.5"/></clipPath></defs><path fill="none" stroke="rgb(229,229,229)" paint-order="fill" d="M 348.5 27.5 L 748.5 27.5 L 748.5 77.5 L 348.5 77.5 L 348.5 27.5" stroke-opacity="1" stroke-linejoin="bevel" stroke-miterlimit="10" stroke-dasharray=""/><path fill="none" stroke="rgb(229,229,229)" paint-order="fill" d="M 366.5 77.5 L 366.5 27.5 M 452.5 77.5 L 452.5 27.5 M 538.5 77.5 L 538.5 27.5 M 623.5 77.5 L 623.5 27.5 M 709.5 77.5 L 709.5 27.5" stroke-opacity="1" stroke-linejoin="bevel" stroke-miterlimit="10" stroke-dasharray="" clip-path="url(#DUlGWkhFJtph)"/><path fill="none" stroke="rgb(229,229,229)" paint-order="fill" d="M 348.5 71.5 L 748.5 71.5 M 348.5 58.5 L 748.5 58.5 M 348.5 46.5 L 748.5 46.5 M 348.5 33.5 L 748.5 33.5" stroke-opacity="1" stroke-linejoin="bevel" stroke-miterlimit="10" stroke-dasharray="" clip-path="url(#VUbtzuvdeVhg)"/><path fill="none" stroke="none"/><path fill="rgb(132,207,98)" stroke="none" paint-order="stroke" d="M 366.68182373046875 28.75 L 730.3181762695312 28.75 L 730.3181762695312 38.75 L 366.68182373046875 38.75 L 366.68182373046875 28.75" fill-opacity="1" clip-path="url(#mGdVoHhTDnlb)"/><path fill="none" stroke="rgb(132,207,98)" paint-order="fill" d="M 366.68182373046875 28.75 L 730.3181762695312 28.75 L 730.3181762695312 38.75 L 366.68182373046875 38.75 L 366.68182373046875 28.75" stroke-opacity="1" stroke-linejoin="bevel" stroke-miterlimit="10" stroke-dasharray="" clip-path="url(#mGdVoHhTDnlb)"/><path fill="rgb(117,201,105)" stroke="none" paint-order="stroke" d="M 366.68182373046875 41.25 L 664.6326904296875 41.25 L 664.6326904296875 51.25 L 366.68182373046875 51.25 L 366.68182373046875 41.25" fill-opacity="1" clip-path="url(#mGdVoHhTDnlb)"/><path fill="none" stroke="rgb(117,201,105)" paint-order="fill" d="M 366.68182373046875 41.25 L 664.6326904296875 41.25 L 664.6326904296875 51.25 L 366.68182373046875 51.25 L 366.68182373046875 41.25" stroke-opacity="1" stroke-linejoin="bevel" stroke-miterlimit="10" stroke-dasharray="" clip-path="url(#mGdVoHhTDnlb)"/><path fill="rgb(110,198,109)" stroke="none" paint-order="stroke" d="M 366.68182373046875 53.75 L 641.619140625 53.75 L 641.619140625 63.75 L 366.68182373046875 63.75 L 366.68182373046875 53.75" fill-opacity="1" clip-path="url(#mGdVoHhTDnlb)"/><path fill="none" stroke="rgb(110,198,109)" paint-order="fill" d="M 366.68182373046875 53.75 L 641.619140625 53.75 L 641.619140625 63.75 L 366.68182373046875 63.75 L 366.68182373046875 53.75" stroke-opacity="1" stroke-linejoin="bevel" stroke-miterlimit="10" stroke-dasharray="" clip-path="url(#mGdVoHhTDnlb)"/><path fill="rgb(71,165,131)" stroke="none" paint-order="stroke" d="M 366.68182373046875 66.25 L 408.12176513671875 66.25 L 408.12176513671875 76.25 L 366.68182373046875 76.25 L 366.68182373046875 66.25" fill-opacity="1" clip-path="url(#mGdVoHhTDnlb)"/><path fill="none" stroke="rgb(71,165,131)" paint-order="fill" d="M 366.68182373046875 66.25 L 408.12176513671875 66.25 L 408.12176513671875 76.25 L 366.68182373046875 76.25 L 366.68182373046875 66.25" stroke-opacity="1" stroke-linejoin="bevel" stroke-miterlimit="10" stroke-dasharray="" clip-path="url(#mGdVoHhTDnlb)"/><path fill="none" stroke="rgb(0,0,0)" paint-order="fill" d="M 348.5 77.5 L 748.5 77.5" stroke-opacity="1" stroke-linejoin="bevel" stroke-miterlimit="10" stroke-dasharray=""/><path fill="none" stroke="rgb(0,0,0)" paint-order="fill" d="M 366.5 83.5 L 366.5 75.5 M 452.5 83.5 L 452.5 75.5 M 538.5 83.5 L 538.5 75.5 M 623.5 83.5 L 623.5 75.5 M 709.5 83.5 L 709.5 75.5" stroke-opacity="1" stroke-linejoin="bevel" stroke-miterlimit="10" stroke-dasharray=""/><path fill="none" stroke="rgb(0,0,0)" paint-order="fill" d="M 349.5 81.5 L 349.5 77.5 M 366.5 81.5 L 366.5 77.5 M 383.5 81.5 L 383.5 77.5 M 400.5 81.5 L 400.5 77.5 M 418.5 81.5 L 418.5 77.5 M 435.5 81.5 L 435.5 77.5 M 452.5 81.5 L 452.5 77.5 M 469.5 81.5 L 469.5 77.5 M 486.5 81.5 L 486.5 77.5 M 503.5 81.5 L 503.5 77.5 M 520.5 81.5 L 520.5 77.5 M 538.5 81.5 L 538.5 77.5 M 555.5 81.5 L 555.5 77.5 M 572.5 81.5 L 572.5 77.5 M 589.5 81.5 L 589.5 77.5 M 606.5 81.5 L 606.5 77.5 M 623.5 81.5 L 623.5 77.5 M 640.5 81.5 L 640.5 77.5 M 658.5 81.5 L 658.5 77.5 M 675.5 81.5 L 675.5 77.5 M 692.5 81.5 L 692.5 77.5 M 709.5 81.5 L 709.5 77.5 M 726.5 81.5 L 726.5 77.5 M 743.5 81.5 L 743.5 77.5" stroke-opacity="1" stroke-linejoin="bevel" stroke-miterlimit="10" stroke-dasharray=""/><text fill="rgb(68,68,68)" stroke="none" font-family="helvetica" font-size="11px" font-style="normal" font-weight="normal" text-decoration="normal" x="360.06414794921875" y="91.945068359375" text-anchor="start" dominant-baseline="alphabetic" transform="matrix(0.7071067811865476, -0.7071067811865475, 0.7071067811865475, 0.7071067811865476, 45.52677627898106, 285.2042539626553)" fill-opacity="1">0</text><text fill="rgb(68,68,68)" stroke="none" font-family="helvetica" font-size="11px" font-style="normal" font-weight="normal" text-decoration="normal" x="430.4853820800781" y="91.945068359375" text-anchor="start" dominant-baseline="alphabetic" transform="matrix(0.7071067811865476, -0.7071067811865475, 0.7071067811865475, 0.7071067811865476, 70.63145601598427, 345.81231226276145)" fill-opacity="1">0.05</text><text fill="rgb(68,68,68)" stroke="none" font-family="helvetica" font-size="11px" font-style="normal" font-weight="normal" text-decoration="normal" x="522.3157958984375" y="91.945068359375" text-anchor="start" dominant-baseline="alphabetic" transform="matrix(0.7071067811865476, -0.7071067811865475, 0.7071067811865475, 0.7071067811865476, 95.73613575298748, 406.4203705628676)" fill-opacity="1">0.1</text><text fill="rgb(68,68,68)" stroke="none" font-family="helvetica" font-size="11px" font-style="normal" font-weight="normal" text-decoration="normal" x="601.910888671875" y="91.945068359375" text-anchor="start" dominant-baseline="alphabetic" transform="matrix(0.7071067811865476, -0.7071067811865475, 0.7071067811865475, 0.7071067811865476, 120.84082442838235, 467.0284504421602)" fill-opacity="1">0.15</text><text fill="rgb(68,68,68)" stroke="none" font-family="helvetica" font-size="11px" font-style="normal" font-weight="normal" text-decoration="normal" x="693.7412719726562" y="91.945068359375" text-anchor="start" dominant-baseline="alphabetic" transform="matrix(0.7071067811865476, -0.7071067811865475, 0.7071067811865475, 0.7071067811865476, 145.9454952269939, 527.6364871630799)" fill-opacity="1">0.2</text><text fill="rgb(68,68,68)" stroke="none" font-family="helvetica" font-size="13px" font-style="italic" font-weight="normal" text-decoration="normal" x="515.484130859375" y="128.71774531498966" text-anchor="start" dominant-baseline="alphabetic" transform="matrix(1, 0, 0, 1, 0.5, 0.5)" fill-opacity="1">Importance</text><path fill="none" stroke="rgb(0,0,0)" paint-order="fill" d="M 348.5 77.5 L 348.5 27.5" stroke-opacity="1" stroke-linejoin="bevel" stroke-miterlimit="10" stroke-dasharray=""/><path fill="none" stroke="rgb(0,0,0)" paint-order="fill" d="M 342.5 71.5 L 350.5 71.5 M 342.5 58.5 L 350.5 58.5 M 342.5 46.5 L 350.5 46.5 M 342.5 33.5 L 350.5 33.5" stroke-opacity="1" stroke-linejoin="bevel" stroke-miterlimit="10" stroke-dasharray=""/><path fill="none" stroke="rgb(0,0,0)" paint-order="fill" d="" stroke-opacity="1" stroke-linejoin="bevel" stroke-miterlimit="10" stroke-dasharray=""/><text fill="rgb(68,68,68)" stroke="none" font-family="helvetica" font-size="11px" font-style="normal" font-weight="normal" text-decoration="normal" x="2.52587890625" y="74.25" text-anchor="start" dominant-baseline="alphabetic" transform="matrix(1, 0, 0, 1, 0.5, 0.5)" fill-opacity="1">Post-translational modification, protein turnover, chaperone functions</text><text fill="rgb(68,68,68)" stroke="none" font-family="helvetica" font-size="11px" font-style="normal" font-weight="normal" text-decoration="normal" x="143.1787109375" y="61.75" text-anchor="start" dominant-baseline="alphabetic" transform="matrix(1, 0, 0, 1, 0.5, 0.5)" fill-opacity="1">Carbohydrate metabolism and transport</text><text fill="rgb(68,68,68)" stroke="none" font-family="helvetica" font-size="11px" font-style="normal" font-weight="normal" text-decoration="normal" x="273.8251953125" y="49.25" text-anchor="start" dominant-baseline="alphabetic" transform="matrix(1, 0, 0, 1, 0.5, 0.5)" fill-opacity="1">Transcription</text><text fill="rgb(68,68,68)" stroke="none" font-family="helvetica" font-size="11px" font-style="normal" font-weight="normal" text-decoration="normal" x="225.12548828125" y="36.75" text-anchor="start" dominant-baseline="alphabetic" transform="matrix(1, 0, 0, 1, 0.5, 0.5)" fill-opacity="1">Coenzyme metabolism</text><path fill="none" stroke="none"/><text fill="rgb(68,68,68)" stroke="none" font-family="helvetica" font-size="13px" font-style="normal" font-weight="bold" text-decoration="normal" x="0" y="0" text-anchor="start" dominant-baseline="text-after-edge" transform="matrix(1, 0, 0, 1, 348.5, 22.5)" fill-opacity="1">PO4 (µmol/L)</text></svg>