<svg version="1.1" xmlns="http://www.w3.org/2000/svg" xmlns:xlink="http://www.w3.org/1999/xlink" width="598" height="135"><defs><clipPath id="SSrRAVsmpgEW"><path fill="none" stroke="none" d="M 193.5 27.5 L 593.5 27.5 L 593.5 77.5 L 193.5 77.5 L 193.5 27.5"/></clipPath><clipPath id="shBxVATyaeXr"><path fill="none" stroke="none" d="M 193.5 27.5 L 593.5 27.5 L 593.5 77.5 L 193.5 77.5 L 193.5 27.5"/></clipPath><clipPath id="TbZkivhzmqUh"><path fill="none" stroke="none" d="M 193.5 27.5 L 593.5 27.5 L 593.5 77.5 L 193.5 77.5 L 193.5 27.5"/></clipPath><clipPath id="THpCxuEKlxOi"><path fill="none" stroke="none" d="M 193.5 27.5 L 593.5 27.5 L 593.5 77.5 L 193.5 77.5 L 193.5 27.5"/></clipPath></defs><path fill="none" stroke="rgb(229,229,229)" paint-order="fill" d="M 193.5 27.5 L 593.5 27.5 L 593.5 77.5 L 193.5 77.5 L 193.5 27.5" stroke-opacity="1" stroke-linejoin="bevel" stroke-miterlimit="10" stroke-dasharray=""/><path fill="none" stroke="rgb(229,229,229)" paint-order="fill" d="M 211.5 77.5 L 211.5 27.5 M 277.5 77.5 L 277.5 27.5 M 344.5 77.5 L 344.5 27.5 M 410.5 77.5 L 410.5 27.5 M 476.5 77.5 L 476.5 27.5 M 543.5 77.5 L 543.5 27.5" stroke-opacity="1" stroke-linejoin="bevel" stroke-miterlimit="10" stroke-dasharray="" clip-path="url(#SSrRAVsmpgEW)"/><path fill="none" stroke="rgb(229,229,229)" paint-order="fill" d="M 193.5 71.5 L 593.5 71.5 M 193.5 58.5 L 593.5 58.5 M 193.5 46.5 L 593.5 46.5 M 193.5 33.5 L 593.5 33.5" stroke-opacity="1" stroke-linejoin="bevel" stroke-miterlimit="10" stroke-dasharray="" clip-path="url(#shBxVATyaeXr)"/><path fill="none" stroke="none"/><path fill="rgb(210,225,111)" stroke="none" paint-order="stroke" d="M 211.68182373046875 28.75 L 575.3181762695312 28.75 L 575.3181762695312 38.75 L 211.68182373046875 38.75 L 211.68182373046875 28.75" fill-opacity="1" clip-path="url(#TbZkivhzmqUh)"/><path fill="none" stroke="rgb(210,225,111)" paint-order="fill" d="M 211.68182373046875 28.75 L 575.3181762695312 28.75 L 575.3181762695312 38.75 L 211.68182373046875 38.75 L 211.68182373046875 28.75" stroke-opacity="1" stroke-linejoin="bevel" stroke-miterlimit="10" stroke-dasharray="" clip-path="url(#TbZkivhzmqUh)"/><path fill="rgb(95,190,117)" stroke="none" paint-order="stroke" d="M 211.68182373046875 41.25 L 304.785888671875 41.25 L 304.785888671875 51.25 L 211.68182373046875 51.25 L 211.68182373046875 41.25" fill-opacity="1" clip-path="url(#TbZkivhzmqUh)"/><path fill="none" stroke="rgb(95,190,117)" paint-order="fill" d="M 211.68182373046875 41.25 L 304.785888671875 41.25 L 304.785888671875 51.25 L 211.68182373046875 51.25 L 211.68182373046875 41.25" stroke-opacity="1" stroke-linejoin="bevel" stroke-miterlimit="10" stroke-dasharray="" clip-path="url(#TbZkivhzmqUh)"/><path fill="rgb(98,191,115)" stroke="none" paint-order="stroke" d="M 211.68182373046875 53.75 L 267.3044128417969 53.75 L 267.3044128417969 63.75 L 211.68182373046875 63.75 L 211.68182373046875 53.75" fill-opacity="1" clip-path="url(#TbZkivhzmqUh)"/><path fill="none" stroke="rgb(98,191,115)" paint-order="fill" d="M 211.68182373046875 53.75 L 267.3044128417969 53.75 L 267.3044128417969 63.75 L 211.68182373046875 63.75 L 211.68182373046875 53.75" stroke-opacity="1" stroke-linejoin="bevel" stroke-miterlimit="10" stroke-dasharray="" clip-path="url(#TbZkivhzmqUh)"/><path fill="rgb(83,180,124)" stroke="none" paint-order="stroke" d="M 211.68182373046875 66.25 L 261.2362365722656 66.25 L 261.2362365722656 76.25 L 211.68182373046875 76.25 L 211.68182373046875 66.25" fill-opacity="1" clip-path="url(#TbZkivhzmqUh)"/><path fill="none" stroke="rgb(83,180,124)" paint-order="fill" d="M 211.68182373046875 66.25 L 261.2362365722656 66.25 L 261.2362365722656 76.25 L 211.68182373046875 76.25 L 211.68182373046875 66.25" stroke-opacity="1" stroke-linejoin="bevel" stroke-miterlimit="10" stroke-dasharray="" clip-path="url(#TbZkivhzmqUh)"/><path fill="none" stroke="rgb(0,0,0)" paint-order="fill" d="M 193.5 77.5 L 593.5 77.5" stroke-opacity="1" stroke-linejoin="bevel" stroke-miterlimit="10" stroke-dasharray=""/><path fill="none" stroke="rgb(0,0,0)" paint-order="fill" d="M 211.5 83.5 L 211.5 75.5 M 277.5 83.5 L 277.5 75.5 M 344.5 83.5 L 344.5 75.5 M 410.5 83.5 L 410.5 75.5 M 476.5 83.5 L 476.5 75.5 M 543.5 83.5 L 543.5 75.5" stroke-opacity="1" stroke-linejoin="bevel" stroke-miterlimit="10" stroke-dasharray=""/><path fill="none" stroke="rgb(0,0,0)" paint-order="fill" d="M 198.5 81.5 L 198.5 77.5 M 211.5 81.5 L 211.5 77.5 M 224.5 81.5 L 224.5 77.5 M 238.5 81.5 L 238.5 77.5 M 251.5 81.5 L 251.5 77.5 M 264.5 81.5 L 264.5 77.5 M 277.5 81.5 L 277.5 77.5 M 291.5 81.5 L 291.5 77.5 M 304.5 81.5 L 304.5 77.5 M 317.5 81.5 L 317.5 77.5 M 331.5 81.5 L 331.5 77.5 M 344.5 81.5 L 344.5 77.5 M 357.5 81.5 L 357.5 77.5 M 370.5 81.5 L 370.5 77.5 M 384.5 81.5 L 384.5 77.5 M 397.5 81.5 L 397.5 77.5 M 410.5 81.5 L 410.5 77.5 M 423.5 81.5 L 423.5 77.5 M 437.5 81.5 L 437.5 77.5 M 450.5 81.5 L 450.5 77.5 M 463.5 81.5 L 463.5 77.5 M 476.5 81.5 L 476.5 77.5 M 490.5 81.5 L 490.5 77.5 M 503.5 81.5 L 503.5 77.5 M 516.5 81.5 L 516.5 77.5 M 529.5 81.5 L 529.5 77.5 M 543.5 81.5 L 543.5 77.5 M 556.5 81.5 L 556.5 77.5 M 569.5 81.5 L 569.5 77.5 M 583.5 81.5 L 583.5 77.5" stroke-opacity="1" stroke-linejoin="bevel" stroke-miterlimit="10" stroke-dasharray=""/><text fill="rgb(68,68,68)" stroke="none" font-family="helvetica" font-size="11px" font-style="normal" font-weight="normal" text-decoration="normal" x="205.06414794921875" y="91.945068359375" text-anchor="start" dominant-baseline="alphabetic" transform="matrix(0.7071067811865476, -0.7071067811865475, 0.7071067811865475, 0.7071067811865476, 0.12832736289595914, 175.6027028787404)" fill-opacity="1">0</text><text fill="rgb(68,68,68)" stroke="none" font-family="helvetica" font-size="11px" font-style="normal" font-weight="normal" text-decoration="normal" x="256.0859375" y="91.945068359375" text-anchor="start" dominant-baseline="alphabetic" transform="matrix(0.7071067811865476, -0.7071067811865475, 0.7071067811865475, 0.7071067811865476, 19.55104133364688, 222.49328236502072)" fill-opacity="1">0.05</text><text fill="rgb(68,68,68)" stroke="none" font-family="helvetica" font-size="11px" font-style="normal" font-weight="normal" text-decoration="normal" x="328.5168762207031" y="91.945068359375" text-anchor="start" dominant-baseline="alphabetic" transform="matrix(0.7071067811865476, -0.7071067811865475, 0.7071067811865475, 0.7071067811865476, 38.97374636600614, 269.3838402721146)" fill-opacity="1">0.1</text><text fill="rgb(68,68,68)" stroke="none" font-family="helvetica" font-size="11px" font-style="normal" font-weight="normal" text-decoration="normal" x="388.7124938964844" y="91.945068359375" text-anchor="start" dominant-baseline="alphabetic" transform="matrix(0.7071067811865476, -0.7071067811865475, 0.7071067811865475, 0.7071067811865476, 58.39646033675706, 316.2744197583949)" fill-opacity="1">0.15</text><text fill="rgb(68,68,68)" stroke="none" font-family="helvetica" font-size="11px" font-style="normal" font-weight="normal" text-decoration="normal" x="461.1434631347656" y="91.945068359375" text-anchor="start" dominant-baseline="alphabetic" transform="matrix(0.7071067811865476, -0.7071067811865475, 0.7071067811865475, 0.7071067811865476, 77.81917430750804, 363.1649992446752)" fill-opacity="1">0.2</text><text fill="rgb(68,68,68)" stroke="none" font-family="helvetica" font-size="11px" font-style="normal" font-weight="normal" text-decoration="normal" x="521.3390502929688" y="91.945068359375" text-anchor="start" dominant-baseline="alphabetic" transform="matrix(0.7071067811865476, -0.7071067811865475, 0.7071067811865475, 0.7071067811865476, 97.24187933986724, 410.0555571517691)" fill-opacity="1">0.25</text><text fill="rgb(68,68,68)" stroke="none" font-family="helvetica" font-size="13px" font-style="italic" font-weight="normal" text-decoration="normal" x="360.484130859375" y="128.71774531498966" text-anchor="start" dominant-baseline="alphabetic" transform="matrix(1, 0, 0, 1, 0.5, 0.5)" fill-opacity="1">Importance</text><path fill="none" stroke="rgb(0,0,0)" paint-order="fill" d="M 193.5 77.5 L 193.5 27.5" stroke-opacity="1" stroke-linejoin="bevel" stroke-miterlimit="10" stroke-dasharray=""/><path fill="none" stroke="rgb(0,0,0)" paint-order="fill" d="M 187.5 71.5 L 195.5 71.5 M 187.5 58.5 L 195.5 58.5 M 187.5 46.5 L 195.5 46.5 M 187.5 33.5 L 195.5 33.5" stroke-opacity="1" stroke-linejoin="bevel" stroke-miterlimit="10" stroke-dasharray=""/><path fill="none" stroke="rgb(0,0,0)" paint-order="fill" d="" stroke-opacity="1" stroke-linejoin="bevel" stroke-miterlimit="10" stroke-dasharray=""/><text fill="rgb(68,68,68)" stroke="none" font-family="helvetica" font-size="11px" font-style="normal" font-weight="normal" text-decoration="normal" x="2.8525390625" y="74.25" text-anchor="start" dominant-baseline="alphabetic" transform="matrix(1, 0, 0, 1, 0.5, 0.5)" fill-opacity="1">Nucleotide metabolism and transport</text><text fill="rgb(68,68,68)" stroke="none" font-family="helvetica" font-size="11px" font-style="normal" font-weight="normal" text-decoration="normal" x="118.8251953125" y="61.75" text-anchor="start" dominant-baseline="alphabetic" transform="matrix(1, 0, 0, 1, 0.5, 0.5)" fill-opacity="1">Transcription</text><text fill="rgb(68,68,68)" stroke="none" font-family="helvetica" font-size="11px" font-style="normal" font-weight="normal" text-decoration="normal" x="15.06103515625" y="49.25" text-anchor="start" dominant-baseline="alphabetic" transform="matrix(1, 0, 0, 1, 0.5, 0.5)" fill-opacity="1">Energy production and conversion</text><text fill="rgb(68,68,68)" stroke="none" font-family="helvetica" font-size="11px" font-style="normal" font-weight="normal" text-decoration="normal" x="127.98828125" y="36.75" text-anchor="start" dominant-baseline="alphabetic" transform="matrix(1, 0, 0, 1, 0.5, 0.5)" fill-opacity="1">Translation</text><path fill="none" stroke="none"/><text fill="rgb(68,68,68)" stroke="none" font-family="helvetica" font-size="13px" font-style="normal" font-weight="bold" text-decoration="normal" x="0" y="0" text-anchor="start" dominant-baseline="text-after-edge" transform="matrix(1, 0, 0, 1, 193.5, 22.5)" fill-opacity="1">Longitude</text></svg>