<svg version="1.1" xmlns="http://www.w3.org/2000/svg" xmlns:xlink="http://www.w3.org/1999/xlink" width="613" height="135"><defs><clipPath id="yIRAlJNUCufw"><path fill="none" stroke="none" d="M 208.5 27.5 L 608.5 27.5 L 608.5 77.5 L 208.5 77.5 L 208.5 27.5"/></clipPath><clipPath id="TvNpmpnxWBuD"><path fill="none" stroke="none" d="M 208.5 27.5 L 608.5 27.5 L 608.5 77.5 L 208.5 77.5 L 208.5 27.5"/></clipPath><clipPath id="TXATTvFhDkcQ"><path fill="none" stroke="none" d="M 208.5 27.5 L 608.5 27.5 L 608.5 77.5 L 208.5 77.5 L 208.5 27.5"/></clipPath><clipPath id="cDZkabIUmuTg"><path fill="none" stroke="none" d="M 208.5 27.5 L 608.5 27.5 L 608.5 77.5 L 208.5 77.5 L 208.5 27.5"/></clipPath></defs><path fill="none" stroke="rgb(229,229,229)" paint-order="fill" d="M 208.5 27.5 L 608.5 27.5 L 608.5 77.5 L 208.5 77.5 L 208.5 27.5" stroke-opacity="1" stroke-linejoin="bevel" stroke-miterlimit="10" stroke-dasharray=""/><path fill="none" stroke="rgb(229,229,229)" paint-order="fill" d="M 226.5 77.5 L 226.5 27.5 M 312.5 77.5 L 312.5 27.5 M 397.5 77.5 L 397.5 27.5 M 482.5 77.5 L 482.5 27.5 M 568.5 77.5 L 568.5 27.5" stroke-opacity="1" stroke-linejoin="bevel" stroke-miterlimit="10" stroke-dasharray="" clip-path="url(#yIRAlJNUCufw)"/><path fill="none" stroke="rgb(229,229,229)" paint-order="fill" d="M 208.5 71.5 L 608.5 71.5 M 208.5 58.5 L 608.5 58.5 M 208.5 46.5 L 608.5 46.5 M 208.5 33.5 L 608.5 33.5" stroke-opacity="1" stroke-linejoin="bevel" stroke-miterlimit="10" stroke-dasharray="" clip-path="url(#TvNpmpnxWBuD)"/><path fill="none" stroke="none"/><path fill="rgb(101,193,114)" stroke="none" paint-order="stroke" d="M 226.68182373046875 28.75 L 590.3181762695312 28.75 L 590.3181762695312 38.75 L 226.68182373046875 38.75 L 226.68182373046875 28.75" fill-opacity="1" clip-path="url(#TXATTvFhDkcQ)"/><path fill="none" stroke="rgb(101,193,114)" paint-order="fill" d="M 226.68182373046875 28.75 L 590.3181762695312 28.75 L 590.3181762695312 38.75 L 226.68182373046875 38.75 L 226.68182373046875 28.75" stroke-opacity="1" stroke-linejoin="bevel" stroke-miterlimit="10" stroke-dasharray="" clip-path="url(#TXATTvFhDkcQ)"/><path fill="rgb(85,182,123)" stroke="none" paint-order="stroke" d="M 226.68182373046875 41.25 L 470.7896423339844 41.25 L 470.7896423339844 51.25 L 226.68182373046875 51.25 L 226.68182373046875 41.25" fill-opacity="1" clip-path="url(#TXATTvFhDkcQ)"/><path fill="none" stroke="rgb(85,182,123)" paint-order="fill" d="M 226.68182373046875 41.25 L 470.7896423339844 41.25 L 470.7896423339844 51.25 L 226.68182373046875 51.25 L 226.68182373046875 41.25" stroke-opacity="1" stroke-linejoin="bevel" stroke-miterlimit="10" stroke-dasharray="" clip-path="url(#TXATTvFhDkcQ)"/><path fill="rgb(80,176,126)" stroke="none" paint-order="stroke" d="M 226.68182373046875 53.75 L 415.96258544921875 53.75 L 415.96258544921875 63.75 L 226.68182373046875 63.75 L 226.68182373046875 53.75" fill-opacity="1" clip-path="url(#TXATTvFhDkcQ)"/><path fill="none" stroke="rgb(80,176,126)" paint-order="fill" d="M 226.68182373046875 53.75 L 415.96258544921875 53.75 L 415.96258544921875 63.75 L 226.68182373046875 63.75 L 226.68182373046875 53.75" stroke-opacity="1" stroke-linejoin="bevel" stroke-miterlimit="10" stroke-dasharray="" clip-path="url(#TXATTvFhDkcQ)"/><path fill="rgb(80,176,126)" stroke="none" paint-order="stroke" d="M 226.68182373046875 66.25 L 408.811767578125 66.25 L 408.811767578125 76.25 L 226.68182373046875 76.25 L 226.68182373046875 66.25" fill-opacity="1" clip-path="url(#TXATTvFhDkcQ)"/><path fill="none" stroke="rgb(80,176,126)" paint-order="fill" d="M 226.68182373046875 66.25 L 408.811767578125 66.25 L 408.811767578125 76.25 L 226.68182373046875 76.25 L 226.68182373046875 66.25" stroke-opacity="1" stroke-linejoin="bevel" stroke-miterlimit="10" stroke-dasharray="" clip-path="url(#TXATTvFhDkcQ)"/><path fill="none" stroke="rgb(0,0,0)" paint-order="fill" d="M 208.5 77.5 L 608.5 77.5" stroke-opacity="1" stroke-linejoin="bevel" stroke-miterlimit="10" stroke-dasharray=""/><path fill="none" stroke="rgb(0,0,0)" paint-order="fill" d="M 226.5 83.5 L 226.5 75.5 M 312.5 83.5 L 312.5 75.5 M 397.5 83.5 L 397.5 75.5 M 482.5 83.5 L 482.5 75.5 M 568.5 83.5 L 568.5 75.5" stroke-opacity="1" stroke-linejoin="bevel" stroke-miterlimit="10" stroke-dasharray=""/><path fill="none" stroke="rgb(0,0,0)" paint-order="fill" d="M 209.5 81.5 L 209.5 77.5 M 226.5 81.5 L 226.5 77.5 M 243.5 81.5 L 243.5 77.5 M 260.5 81.5 L 260.5 77.5 M 277.5 81.5 L 277.5 77.5 M 294.5 81.5 L 294.5 77.5 M 312.5 81.5 L 312.5 77.5 M 329.5 81.5 L 329.5 77.5 M 346.5 81.5 L 346.5 77.5 M 363.5 81.5 L 363.5 77.5 M 380.5 81.5 L 380.5 77.5 M 397.5 81.5 L 397.5 77.5 M 414.5 81.5 L 414.5 77.5 M 431.5 81.5 L 431.5 77.5 M 448.5 81.5 L 448.5 77.5 M 465.5 81.5 L 465.5 77.5 M 482.5 81.5 L 482.5 77.5 M 499.5 81.5 L 499.5 77.5 M 516.5 81.5 L 516.5 77.5 M 533.5 81.5 L 533.5 77.5 M 551.5 81.5 L 551.5 77.5 M 568.5 81.5 L 568.5 77.5 M 585.5 81.5 L 585.5 77.5 M 602.5 81.5 L 602.5 77.5" stroke-opacity="1" stroke-linejoin="bevel" stroke-miterlimit="10" stroke-dasharray=""/><text fill="rgb(68,68,68)" stroke="none" font-family="helvetica" font-size="11px" font-style="normal" font-weight="normal" text-decoration="normal" x="220.06414794921875" y="91.945068359375" text-anchor="start" dominant-baseline="alphabetic" transform="matrix(0.7071067811865476, -0.7071067811865475, 0.7071067811865475, 0.7071067811865476, 4.521725645097746, 186.20930459653863)" fill-opacity="1">0</text><text fill="rgb(68,68,68)" stroke="none" font-family="helvetica" font-size="11px" font-style="normal" font-weight="normal" text-decoration="normal" x="290.12060546875" y="91.945068359375" text-anchor="start" dominant-baseline="alphabetic" transform="matrix(0.7071067811865476, -0.7071067811865475, 0.7071067811865475, 0.7071067811865476, 29.519564786261185, 246.5594268811564)" fill-opacity="1">0.02</text><text fill="rgb(68,68,68)" stroke="none" font-family="helvetica" font-size="11px" font-style="normal" font-weight="normal" text-decoration="normal" x="375.46856689453125" y="91.945068359375" text-anchor="start" dominant-baseline="alphabetic" transform="matrix(0.7071067811865476, -0.7071067811865475, 0.7071067811865475, 0.7071067811865476, 54.51740392742465, 306.90954916577425)" fill-opacity="1">0.04</text><text fill="rgb(68,68,68)" stroke="none" font-family="helvetica" font-size="11px" font-style="normal" font-weight="normal" text-decoration="normal" x="460.8165283203125" y="91.945068359375" text-anchor="start" dominant-baseline="alphabetic" transform="matrix(0.7071067811865476, -0.7071067811865475, 0.7071067811865475, 0.7071067811865476, 79.51524306858806, 367.25967145039203)" fill-opacity="1">0.06</text><text fill="rgb(68,68,68)" stroke="none" font-family="helvetica" font-size="11px" font-style="normal" font-weight="normal" text-decoration="normal" x="546.1644897460938" y="91.945068359375" text-anchor="start" dominant-baseline="alphabetic" transform="matrix(0.7071067811865476, -0.7071067811865475, 0.7071067811865475, 0.7071067811865476, 104.51308220975153, 427.6097937350098)" fill-opacity="1">0.08</text><text fill="rgb(68,68,68)" stroke="none" font-family="helvetica" font-size="13px" font-style="italic" font-weight="normal" text-decoration="normal" x="375.484130859375" y="128.71774531498966" text-anchor="start" dominant-baseline="alphabetic" transform="matrix(1, 0, 0, 1, 0.5, 0.5)" fill-opacity="1">Importance</text><path fill="none" stroke="rgb(0,0,0)" paint-order="fill" d="M 208.5 77.5 L 208.5 27.5" stroke-opacity="1" stroke-linejoin="bevel" stroke-miterlimit="10" stroke-dasharray=""/><path fill="none" stroke="rgb(0,0,0)" paint-order="fill" d="M 202.5 71.5 L 210.5 71.5 M 202.5 58.5 L 210.5 58.5 M 202.5 46.5 L 210.5 46.5 M 202.5 33.5 L 210.5 33.5" stroke-opacity="1" stroke-linejoin="bevel" stroke-miterlimit="10" stroke-dasharray=""/><path fill="none" stroke="rgb(0,0,0)" paint-order="fill" d="" stroke-opacity="1" stroke-linejoin="bevel" stroke-miterlimit="10" stroke-dasharray=""/><text fill="rgb(68,68,68)" stroke="none" font-family="helvetica" font-size="11px" font-style="normal" font-weight="normal" text-decoration="normal" x="3.1787109375" y="74.25" text-anchor="start" dominant-baseline="alphabetic" transform="matrix(1, 0, 0, 1, 0.5, 0.5)" fill-opacity="1">Carbohydrate metabolism and transport</text><text fill="rgb(68,68,68)" stroke="none" font-family="helvetica" font-size="11px" font-style="normal" font-weight="normal" text-decoration="normal" x="89.99169921875" y="61.75" text-anchor="start" dominant-baseline="alphabetic" transform="matrix(1, 0, 0, 1, 0.5, 0.5)" fill-opacity="1">Replication and repair</text><text fill="rgb(68,68,68)" stroke="none" font-family="helvetica" font-size="11px" font-style="normal" font-weight="normal" text-decoration="normal" x="30.06103515625" y="49.25" text-anchor="start" dominant-baseline="alphabetic" transform="matrix(1, 0, 0, 1, 0.5, 0.5)" fill-opacity="1">Energy production and conversion</text><text fill="rgb(68,68,68)" stroke="none" font-family="helvetica" font-size="11px" font-style="normal" font-weight="normal" text-decoration="normal" x="103.44091796875" y="36.75" text-anchor="start" dominant-baseline="alphabetic" transform="matrix(1, 0, 0, 1, 0.5, 0.5)" fill-opacity="1">Signal transduction</text><path fill="none" stroke="none"/><text fill="rgb(68,68,68)" stroke="none" font-family="helvetica" font-size="13px" font-style="normal" font-weight="bold" text-decoration="normal" x="0" y="0" text-anchor="start" dominant-baseline="text-after-edge" transform="matrix(1, 0, 0, 1, 208.5, 22.5)" fill-opacity="1">NO2 (µmol/L)</text></svg>