<svg version="1.1" xmlns="http://www.w3.org/2000/svg" xmlns:xlink="http://www.w3.org/1999/xlink" width="267" height="272"><defs><clipPath id="LbJebIurTeHa"><path fill="none" stroke="none" d="M 62.5 27.5 L 262.5 27.5 L 262.5 227.5 L 62.5 227.5 L 62.5 27.5"/></clipPath><clipPath id="ETIXbffRFNtd"><path fill="none" stroke="none" d="M 62.5 27.5 L 262.5 27.5 L 262.5 227.5 L 62.5 227.5 L 62.5 27.5"/></clipPath><clipPath id="xgnlcEZHibTc"><path fill="none" stroke="none" d="M 62.5 27.5 L 262.5 27.5 L 262.5 227.5 L 62.5 227.5 L 62.5 27.5"/></clipPath><clipPath id="lcEHzyTdwsZB"><path fill="none" stroke="none" d="M 62.5 27.5 L 262.5 27.5 L 262.5 227.5 L 62.5 227.5 L 62.5 27.5"/></clipPath><clipPath id="BQVMdXrqJMpV"><path fill="none" stroke="none" d="M 62.5 27.5 L 262.5 27.5 L 262.5 227.5 L 62.5 227.5 L 62.5 27.5"/></clipPath></defs><path fill="none" stroke="rgb(229,229,229)" paint-order="fill" d="M 62.5 27.5 L 262.5 27.5 L 262.5 227.5 L 62.5 227.5 L 62.5 27.5" stroke-opacity="1" stroke-linejoin="bevel" stroke-miterlimit="10" stroke-dasharray=""/><path fill="none" stroke="rgb(229,229,229)" paint-order="fill" d="M 74.5 227.5 L 74.5 27.5 M 114.5 227.5 L 114.5 27.5 M 154.5 227.5 L 154.5 27.5 M 194.5 227.5 L 194.5 27.5 M 234.5 227.5 L 234.5 27.5" stroke-opacity="1" stroke-linejoin="bevel" stroke-miterlimit="10" stroke-dasharray="" clip-path="url(#LbJebIurTeHa)"/><path fill="none" stroke="rgb(229,229,229)" paint-order="fill" d="M 62.5 187.5 L 262.5 187.5 M 62.5 137.5 L 262.5 137.5 M 62.5 87.5 L 262.5 87.5 M 62.5 37.5 L 262.5 37.5" stroke-opacity="1" stroke-linejoin="bevel" stroke-miterlimit="10" stroke-dasharray="" clip-path="url(#ETIXbffRFNtd)"/><path fill="none" stroke="none"/><path fill="rgb(31,119,180)" stroke="rgb(31,119,180)" paint-order="fill" d="M 228.2206573486328 56.39750671386719 A 2 2 0 1 1 228.2206563486329 56.39550671420052" fill-opacity="1" clip-path="url(#xgnlcEZHibTc)" stroke-opacity="1" stroke-linejoin="bevel" stroke-miterlimit="10" stroke-dasharray=""/><path fill="rgb(31,119,180)" stroke="rgb(31,119,180)" paint-order="fill" d="M 92.79778289794922 178.09925842285156 A 2 2 0 1 1 92.7977818979493 178.09725842318488" fill-opacity="1" clip-path="url(#xgnlcEZHibTc)" stroke-opacity="1" stroke-linejoin="bevel" stroke-miterlimit="10" stroke-dasharray=""/><path fill="rgb(31,119,180)" stroke="rgb(31,119,180)" paint-order="fill" d="M 82.45931243896484 218.40908813476562 A 2 2 0 1 1 82.45931143896493 218.40708813509895" fill-opacity="1" clip-path="url(#xgnlcEZHibTc)" stroke-opacity="1" stroke-linejoin="bevel" stroke-miterlimit="10" stroke-dasharray=""/><path fill="rgb(31,119,180)" stroke="rgb(31,119,180)" paint-order="fill" d="M 168.11526489257812 115.09440612792969 A 2 2 0 1 1 168.1152638925782 115.09240612826302" fill-opacity="1" clip-path="url(#xgnlcEZHibTc)" stroke-opacity="1" stroke-linejoin="bevel" stroke-miterlimit="10" stroke-dasharray=""/><path fill="rgb(31,119,180)" stroke="rgb(31,119,180)" paint-order="fill" d="M 249.496826171875 36.59090805053711 A 2 2 0 1 1 249.4968251718751 36.588908050870444" fill-opacity="1" clip-path="url(#xgnlcEZHibTc)" stroke-opacity="1" stroke-linejoin="bevel" stroke-miterlimit="10" stroke-dasharray=""/><path fill="rgb(31,119,180)" stroke="rgb(31,119,180)" paint-order="fill" d="M 252.28517150878906 51.45354080200195 A 2 2 0 1 1 252.28517050878915 51.45154080233529" fill-opacity="1" clip-path="url(#xgnlcEZHibTc)" stroke-opacity="1" stroke-linejoin="bevel" stroke-miterlimit="10" stroke-dasharray=""/><path fill="rgb(31,119,180)" stroke="rgb(31,119,180)" paint-order="fill" d="M 193.80166625976562 121.40286254882812 A 2 2 0 1 1 193.8016652597657 121.40086254916146" fill-opacity="1" clip-path="url(#xgnlcEZHibTc)" stroke-opacity="1" stroke-linejoin="bevel" stroke-miterlimit="10" stroke-dasharray=""/><path fill="rgb(31,119,180)" stroke="rgb(31,119,180)" paint-order="fill" d="M 193.8256378173828 103.5007095336914 A 2 2 0 1 1 193.8256368173829 103.49870953402474" fill-opacity="1" clip-path="url(#xgnlcEZHibTc)" stroke-opacity="1" stroke-linejoin="bevel" stroke-miterlimit="10" stroke-dasharray=""/><path fill="rgb(31,119,180)" stroke="rgb(31,119,180)" paint-order="fill" d="M 133.01718139648438 181.71778869628906 A 2 2 0 1 1 133.01718039648446 181.71578869662238" fill-opacity="1" clip-path="url(#xgnlcEZHibTc)" stroke-opacity="1" stroke-linejoin="bevel" stroke-miterlimit="10" stroke-dasharray=""/><path fill="rgb(31,119,180)" stroke="rgb(31,119,180)" paint-order="fill" d="M 255.40908813476562 45.920570373535156 A 2 2 0 1 1 255.4090871347657 45.91857037386849" fill-opacity="1" clip-path="url(#xgnlcEZHibTc)" stroke-opacity="1" stroke-linejoin="bevel" stroke-miterlimit="10" stroke-dasharray=""/><path fill="rgb(31,119,180)" stroke="rgb(31,119,180)" paint-order="fill" d="M 161.8195037841797 94.09944915771484 A 2 2 0 1 1 161.81950278417978 94.09744915804818" fill-opacity="1" clip-path="url(#xgnlcEZHibTc)" stroke-opacity="1" stroke-linejoin="bevel" stroke-miterlimit="10" stroke-dasharray=""/><path fill="rgb(31,119,180)" stroke="rgb(31,119,180)" paint-order="fill" d="M 249.52877807617188 42.74528121948242 A 2 2 0 1 1 249.52877707617196 42.743281219815756" fill-opacity="1" clip-path="url(#xgnlcEZHibTc)" stroke-opacity="1" stroke-linejoin="bevel" stroke-miterlimit="10" stroke-dasharray=""/><path fill="rgb(31,119,180)" stroke="rgb(31,119,180)" paint-order="fill" d="M 147.91769409179688 130.36410522460938 A 2 2 0 1 1 147.91769309179696 130.3621052249427" fill-opacity="1" clip-path="url(#xgnlcEZHibTc)" stroke-opacity="1" stroke-linejoin="bevel" stroke-miterlimit="10" stroke-dasharray=""/><path fill="rgb(31,119,180)" stroke="rgb(31,119,180)" paint-order="fill" d="M 247.19583129882812 90.10089874267578 A 2 2 0 1 1 247.1958302988282 90.09889874300912" fill-opacity="1" clip-path="url(#xgnlcEZHibTc)" stroke-opacity="1" stroke-linejoin="bevel" stroke-miterlimit="10" stroke-dasharray=""/><path fill="rgb(31,119,180)" stroke="rgb(31,119,180)" paint-order="fill" d="M 115.97547149658203 186.69561767578125 A 2 2 0 1 1 115.97547049658212 186.69361767611457" fill-opacity="1" clip-path="url(#xgnlcEZHibTc)" stroke-opacity="1" stroke-linejoin="bevel" stroke-miterlimit="10" stroke-dasharray=""/><path fill="rgb(31,119,180)" stroke="rgb(31,119,180)" paint-order="fill" d="M 128.83065795898438 167.71353149414062 A 2 2 0 1 1 128.83065695898446 167.71153149447395" fill-opacity="1" clip-path="url(#xgnlcEZHibTc)" stroke-opacity="1" stroke-linejoin="bevel" stroke-miterlimit="10" stroke-dasharray=""/><path fill="rgb(31,119,180)" stroke="rgb(31,119,180)" paint-order="fill" d="M 222.55606079101562 78.60919952392578 A 2 2 0 1 1 222.5560597910157 78.60719952425912" fill-opacity="1" clip-path="url(#xgnlcEZHibTc)" stroke-opacity="1" stroke-linejoin="bevel" stroke-miterlimit="10" stroke-dasharray=""/><path fill="rgb(31,119,180)" stroke="rgb(31,119,180)" paint-order="fill" d="M 222.55606079101562 90.02039337158203 A 2 2 0 1 1 222.5560597910157 90.01839337191537" fill-opacity="1" clip-path="url(#xgnlcEZHibTc)" stroke-opacity="1" stroke-linejoin="bevel" stroke-miterlimit="10" stroke-dasharray=""/><path fill="rgb(31,119,180)" stroke="rgb(31,119,180)" paint-order="fill" d="M 252.30914306640625 59.497283935546875 A 2 2 0 1 1 252.30914206640634 59.49528393588021" fill-opacity="1" clip-path="url(#xgnlcEZHibTc)" stroke-opacity="1" stroke-linejoin="bevel" stroke-miterlimit="10" stroke-dasharray=""/><path fill="rgb(31,119,180)" stroke="rgb(31,119,180)" paint-order="fill" d="M 200.0814666748047 126.99229431152344 A 2 2 0 1 1 200.08146567480478 126.99029431185677" fill-opacity="1" clip-path="url(#xgnlcEZHibTc)" stroke-opacity="1" stroke-linejoin="bevel" stroke-miterlimit="10" stroke-dasharray=""/><path fill="rgb(31,119,180)" stroke="rgb(31,119,180)" paint-order="fill" d="M 210.5238037109375 85.85957336425781 A 2 2 0 1 1 210.5238027109376 85.85757336459115" fill-opacity="1" clip-path="url(#xgnlcEZHibTc)" stroke-opacity="1" stroke-linejoin="bevel" stroke-miterlimit="10" stroke-dasharray=""/><path fill="rgb(31,119,180)" stroke="rgb(31,119,180)" paint-order="fill" d="M 145.0414581298828 154.59982299804688 A 2 2 0 1 1 145.0414571298829 154.5978229983802" fill-opacity="1" clip-path="url(#xgnlcEZHibTc)" stroke-opacity="1" stroke-linejoin="bevel" stroke-miterlimit="10" stroke-dasharray=""/><path fill="rgb(31,119,180)" stroke="rgb(31,119,180)" paint-order="fill" d="M 182.0650177001953 91.75758361816406 A 2 2 0 1 1 182.0650167001954 91.7555836184974" fill-opacity="1" clip-path="url(#xgnlcEZHibTc)" stroke-opacity="1" stroke-linejoin="bevel" stroke-miterlimit="10" stroke-dasharray=""/><path fill="rgb(31,119,180)" stroke="rgb(31,119,180)" paint-order="fill" d="M 73.59091186523438 199.14755249023438 A 2 2 0 1 1 73.59091086523446 199.1455524905677" fill-opacity="1" clip-path="url(#xgnlcEZHibTc)" stroke-opacity="1" stroke-linejoin="bevel" stroke-miterlimit="10" stroke-dasharray=""/><path fill="rgb(31,119,180)" stroke="rgb(31,119,180)" paint-order="fill" d="M 149.79522705078125 120.47990417480469 A 2 2 0 1 1 149.79522605078134 120.47790417513802" fill-opacity="1" clip-path="url(#xgnlcEZHibTc)" stroke-opacity="1" stroke-linejoin="bevel" stroke-miterlimit="10" stroke-dasharray=""/><path fill="rgb(31,119,180)" stroke="rgb(31,119,180)" paint-order="fill" d="M 207.75941467285156 74.80707550048828 A 2 2 0 1 1 207.75941367285165 74.80507550082162" fill-opacity="1" clip-path="url(#xgnlcEZHibTc)" stroke-opacity="1" stroke-linejoin="bevel" stroke-miterlimit="10" stroke-dasharray=""/><path fill="rgb(31,119,180)" stroke="rgb(31,119,180)" paint-order="fill" d="M 82.47528839111328 206.49880981445312 A 2 2 0 1 1 82.47528739111337 206.49680981478645" fill-opacity="1" clip-path="url(#xgnlcEZHibTc)" stroke-opacity="1" stroke-linejoin="bevel" stroke-miterlimit="10" stroke-dasharray=""/><path fill="rgb(31,119,180)" stroke="rgb(31,119,180)" paint-order="fill" d="M 82.47528839111328 210.0759735107422 A 2 2 0 1 1 82.47528739111337 210.0739735110755" fill-opacity="1" clip-path="url(#xgnlcEZHibTc)" stroke-opacity="1" stroke-linejoin="bevel" stroke-miterlimit="10" stroke-dasharray=""/><path fill="rgb(31,119,180)" stroke="rgb(31,119,180)" paint-order="fill" d="M 227.98097229003906 80.31388854980469 A 2 2 0 1 1 227.98097129003915 80.31188855013802" fill-opacity="1" clip-path="url(#xgnlcEZHibTc)" stroke-opacity="1" stroke-linejoin="bevel" stroke-miterlimit="10" stroke-dasharray=""/><path fill="rgb(31,119,180)" stroke="rgb(31,119,180)" paint-order="fill" d="M 112.65181732177734 195.35452270507812 A 2 2 0 1 1 112.65181632177743 195.35252270541145" fill-opacity="1" clip-path="url(#xgnlcEZHibTc)" stroke-opacity="1" stroke-linejoin="bevel" stroke-miterlimit="10" stroke-dasharray=""/><path fill="rgb(31,119,180)" stroke="rgb(31,119,180)" paint-order="fill" d="M 210.5238037109375 84.89102172851562 A 2 2 0 1 1 210.5238027109376 84.88902172884896" fill-opacity="1" clip-path="url(#xgnlcEZHibTc)" stroke-opacity="1" stroke-linejoin="bevel" stroke-miterlimit="10" stroke-dasharray=""/><path fill="rgb(31,119,180)" stroke="rgb(31,119,180)" paint-order="fill" d="M 210.7075653076172 59.98493576049805 A 2 2 0 1 1 210.70756430761728 59.98293576083138" fill-opacity="1" clip-path="url(#xgnlcEZHibTc)" stroke-opacity="1" stroke-linejoin="bevel" stroke-miterlimit="10" stroke-dasharray=""/><path fill="rgb(31,119,180)" stroke="rgb(31,119,180)" paint-order="fill" d="M 156.79408264160156 131.03436279296875 A 2 2 0 1 1 156.79408164160165 131.03236279330207" fill-opacity="1" clip-path="url(#xgnlcEZHibTc)" stroke-opacity="1" stroke-linejoin="bevel" stroke-miterlimit="10" stroke-dasharray=""/><path fill="rgb(31,119,180)" stroke="rgb(31,119,180)" paint-order="fill" d="M 201.05618286132812 105.16314697265625 A 2 2 0 1 1 201.0561818613282 105.16114697298958" fill-opacity="1" clip-path="url(#xgnlcEZHibTc)" stroke-opacity="1" stroke-linejoin="bevel" stroke-miterlimit="10" stroke-dasharray=""/><path fill="rgb(31,119,180)" stroke="rgb(31,119,180)" paint-order="fill" d="M 200.1214141845703 86.15774536132812 A 2 2 0 1 1 200.1214131845704 86.15574536166146" fill-opacity="1" clip-path="url(#xgnlcEZHibTc)" stroke-opacity="1" stroke-linejoin="bevel" stroke-miterlimit="10" stroke-dasharray=""/><path fill="rgb(31,119,180)" stroke="rgb(31,119,180)" paint-order="fill" d="M 191.14913940429688 78.79564666748047 A 2 2 0 1 1 191.14913840429696 78.7936466678138" fill-opacity="1" clip-path="url(#xgnlcEZHibTc)" stroke-opacity="1" stroke-linejoin="bevel" stroke-miterlimit="10" stroke-dasharray=""/><path fill="rgb(31,119,180)" stroke="rgb(31,119,180)" paint-order="fill" d="M 168.2510986328125 110.6763687133789 A 2 2 0 1 1 168.2510976328126 110.67436871371224" fill-opacity="1" clip-path="url(#xgnlcEZHibTc)" stroke-opacity="1" stroke-linejoin="bevel" stroke-miterlimit="10" stroke-dasharray=""/><path fill="none" stroke="rgb(0,0,0)" paint-order="fill" d="M 62.5 227.5 L 262.5 227.5" stroke-opacity="1" stroke-linejoin="bevel" stroke-miterlimit="10" stroke-dasharray=""/><path fill="none" stroke="rgb(0,0,0)" paint-order="fill" d="M 74.5 233.5 L 74.5 225.5 M 114.5 233.5 L 114.5 225.5 M 154.5 233.5 L 154.5 225.5 M 194.5 233.5 L 194.5 225.5 M 234.5 233.5 L 234.5 225.5" stroke-opacity="1" stroke-linejoin="bevel" stroke-miterlimit="10" stroke-dasharray=""/><path fill="none" stroke="rgb(0,0,0)" paint-order="fill" d="M 66.5 231.5 L 66.5 227.5 M 74.5 231.5 L 74.5 227.5 M 82.5 231.5 L 82.5 227.5 M 90.5 231.5 L 90.5 227.5 M 98.5 231.5 L 98.5 227.5 M 106.5 231.5 L 106.5 227.5 M 114.5 231.5 L 114.5 227.5 M 122.5 231.5 L 122.5 227.5 M 130.5 231.5 L 130.5 227.5 M 138.5 231.5 L 138.5 227.5 M 146.5 231.5 L 146.5 227.5 M 154.5 231.5 L 154.5 227.5 M 162.5 231.5 L 162.5 227.5 M 170.5 231.5 L 170.5 227.5 M 178.5 231.5 L 178.5 227.5 M 186.5 231.5 L 186.5 227.5 M 194.5 231.5 L 194.5 227.5 M 202.5 231.5 L 202.5 227.5 M 210.5 231.5 L 210.5 227.5 M 218.5 231.5 L 218.5 227.5 M 226.5 231.5 L 226.5 227.5 M 234.5 231.5 L 234.5 227.5 M 242.5 231.5 L 242.5 227.5 M 250.5 231.5 L 250.5 227.5 M 258.5 231.5 L 258.5 227.5" stroke-opacity="1" stroke-linejoin="bevel" stroke-miterlimit="10" stroke-dasharray=""/><text fill="rgb(68,68,68)" stroke="none" font-family="helvetica" font-size="11px" font-style="normal" font-weight="normal" text-decoration="normal" x="61.64263916015625" y="245.89013671875" text-anchor="start" dominant-baseline="alphabetic" transform="matrix(1, 0, 0, 1, 0.5, 0.5)" fill-opacity="1">−150</text><text fill="rgb(68,68,68)" stroke="none" font-family="helvetica" font-size="11px" font-style="normal" font-weight="normal" text-decoration="normal" x="101.59038543701172" y="245.89013671875" text-anchor="start" dominant-baseline="alphabetic" transform="matrix(1, 0, 0, 1, 0.5, 0.5)" fill-opacity="1">−100</text><text fill="rgb(68,68,68)" stroke="none" font-family="helvetica" font-size="11px" font-style="normal" font-weight="normal" text-decoration="normal" x="144.5969696044922" y="245.89013671875" text-anchor="start" dominant-baseline="alphabetic" transform="matrix(1, 0, 0, 1, 0.5, 0.5)" fill-opacity="1">−50</text><text fill="rgb(68,68,68)" stroke="none" font-family="helvetica" font-size="11px" font-style="normal" font-weight="normal" text-decoration="normal" x="190.8154754638672" y="245.89013671875" text-anchor="start" dominant-baseline="alphabetic" transform="matrix(1, 0, 0, 1, 0.5, 0.5)" fill-opacity="1">0</text><text fill="rgb(68,68,68)" stroke="none" font-family="helvetica" font-size="11px" font-style="normal" font-weight="normal" text-decoration="normal" x="227.70437622070312" y="245.89013671875" text-anchor="start" dominant-baseline="alphabetic" transform="matrix(1, 0, 0, 1, 0.5, 0.5)" fill-opacity="1">50</text><text fill="rgb(68,68,68)" stroke="none" font-family="helvetica" font-size="13px" font-style="italic" font-weight="normal" text-decoration="normal" x="133.819580078125" y="265.89013671875" text-anchor="start" dominant-baseline="alphabetic" transform="matrix(1, 0, 0, 1, 0.5, 0.5)" fill-opacity="1">Observed</text><path fill="none" stroke="rgb(0,0,0)" paint-order="fill" d="M 62.5 227.5 L 62.5 27.5" stroke-opacity="1" stroke-linejoin="bevel" stroke-miterlimit="10" stroke-dasharray=""/><path fill="none" stroke="rgb(0,0,0)" paint-order="fill" d="M 56.5 187.5 L 64.5 187.5 M 56.5 137.5 L 64.5 137.5 M 56.5 87.5 L 64.5 87.5 M 56.5 37.5 L 64.5 37.5" stroke-opacity="1" stroke-linejoin="bevel" stroke-miterlimit="10" stroke-dasharray=""/><path fill="none" stroke="rgb(0,0,0)" paint-order="fill" d="M 58.5 197.5 L 62.5 197.5 M 58.5 207.5 L 62.5 207.5 M 58.5 217.5 L 62.5 217.5 M 58.5 227.5 L 62.5 227.5 M 58.5 187.5 L 62.5 187.5 M 58.5 177.5 L 62.5 177.5 M 58.5 167.5 L 62.5 167.5 M 58.5 157.5 L 62.5 157.5 M 58.5 147.5 L 62.5 147.5 M 58.5 137.5 L 62.5 137.5 M 58.5 127.5 L 62.5 127.5 M 58.5 117.5 L 62.5 117.5 M 58.5 107.5 L 62.5 107.5 M 58.5 97.5 L 62.5 97.5 M 58.5 87.5 L 62.5 87.5 M 58.5 77.5 L 62.5 77.5 M 58.5 67.5 L 62.5 67.5 M 58.5 57.5 L 62.5 57.5 M 58.5 47.5 L 62.5 47.5 M 58.5 37.5 L 62.5 37.5" stroke-opacity="1" stroke-linejoin="bevel" stroke-miterlimit="10" stroke-dasharray=""/><text fill="rgb(68,68,68)" stroke="none" font-family="helvetica" font-size="11px" font-style="normal" font-weight="normal" text-decoration="normal" x="26.22314453125" y="190.55636596679688" text-anchor="start" dominant-baseline="alphabetic" transform="matrix(1, 0, 0, 1, 0.5, 0.5)" fill-opacity="1">−100</text><text fill="rgb(68,68,68)" stroke="none" font-family="helvetica" font-size="11px" font-style="normal" font-weight="normal" text-decoration="normal" x="32.3408203125" y="140.64109802246094" text-anchor="start" dominant-baseline="alphabetic" transform="matrix(1, 0, 0, 1, 0.5, 0.5)" fill-opacity="1">−50</text><text fill="rgb(68,68,68)" stroke="none" font-family="helvetica" font-size="11px" font-style="normal" font-weight="normal" text-decoration="normal" x="44.88232421875" y="90.725830078125" text-anchor="start" dominant-baseline="alphabetic" transform="matrix(1, 0, 0, 1, 0.5, 0.5)" fill-opacity="1">0</text><text fill="rgb(68,68,68)" stroke="none" font-family="helvetica" font-size="11px" font-style="normal" font-weight="normal" text-decoration="normal" x="38.7646484375" y="40.81056213378906" text-anchor="start" dominant-baseline="alphabetic" transform="matrix(1, 0, 0, 1, 0.5, 0.5)" fill-opacity="1">50</text><text fill="rgb(68,68,68)" stroke="none" font-family="helvetica" font-size="13px" font-style="italic" font-weight="normal" text-decoration="normal" x="-9.23681640625" y="124" text-anchor="start" dominant-baseline="alphabetic" transform="matrix(6.123233995736766e-17, -1, 1, 6.123233995736766e-17, -108.27685546875, 145.72314453125)" fill-opacity="1">Predicted</text><path fill="none" stroke="rgb(255,140,0)" paint-order="fill" d="M 242.2175222808566 27.5 L 82.1552820910248 227.5" stroke-opacity="1" stroke-linejoin="bevel" stroke-miterlimit="10" stroke-width="2" stroke-dasharray="" clip-path="url(#lcEHzyTdwsZB)"/><path fill="none" stroke="none"/><text fill="rgb(68,68,68)" stroke="none" font-family="helvetica" font-size="13px" font-style="normal" font-weight="bold" text-decoration="normal" x="0" y="0" text-anchor="start" dominant-baseline="text-after-edge" transform="matrix(1, 0, 0, 1, 62.5, 22.5)" fill-opacity="1">Longitude, &lt;R²&gt; = 0.74</text></svg>