<svg version="1.1" xmlns="http://www.w3.org/2000/svg" xmlns:xlink="http://www.w3.org/1999/xlink" width="257" height="272"><defs><clipPath id="NWyPNLadTOGq"><path fill="none" stroke="none" d="M 52.5 27.5 L 252.5 27.5 L 252.5 227.5 L 52.5 227.5 L 52.5 27.5"/></clipPath><clipPath id="vDDvNMQelQfh"><path fill="none" stroke="none" d="M 52.5 27.5 L 252.5 27.5 L 252.5 227.5 L 52.5 227.5 L 52.5 27.5"/></clipPath><clipPath id="VfoPVDSeNROD"><path fill="none" stroke="none" d="M 52.5 27.5 L 252.5 27.5 L 252.5 227.5 L 52.5 227.5 L 52.5 27.5"/></clipPath><clipPath id="zybRmiSGAvse"><path fill="none" stroke="none" d="M 52.5 27.5 L 252.5 27.5 L 252.5 227.5 L 52.5 227.5 L 52.5 27.5"/></clipPath><clipPath id="MHduMITOnvlo"><path fill="none" stroke="none" d="M 52.5 27.5 L 252.5 27.5 L 252.5 227.5 L 52.5 227.5 L 52.5 27.5"/></clipPath></defs><path fill="none" stroke="rgb(229,229,229)" paint-order="fill" d="M 52.5 27.5 L 252.5 27.5 L 252.5 227.5 L 52.5 227.5 L 52.5 27.5" stroke-opacity="1" stroke-linejoin="bevel" stroke-miterlimit="10" stroke-dasharray=""/><path fill="none" stroke="rgb(229,229,229)" paint-order="fill" d="M 61.5 227.5 L 61.5 27.5 M 86.5 227.5 L 86.5 27.5 M 111.5 227.5 L 111.5 27.5 M 135.5 227.5 L 135.5 27.5 M 160.5 227.5 L 160.5 27.5 M 185.5 227.5 L 185.5 27.5 M 210.5 227.5 L 210.5 27.5 M 234.5 227.5 L 234.5 27.5" stroke-opacity="1" stroke-linejoin="bevel" stroke-miterlimit="10" stroke-dasharray="" clip-path="url(#NWyPNLadTOGq)"/><path fill="none" stroke="rgb(229,229,229)" paint-order="fill" d="M 52.5 223.5 L 252.5 223.5 M 52.5 198.5 L 252.5 198.5 M 52.5 172.5 L 252.5 172.5 M 52.5 147.5 L 252.5 147.5 M 52.5 122.5 L 252.5 122.5 M 52.5 97.5 L 252.5 97.5 M 52.5 72.5 L 252.5 72.5 M 52.5 47.5 L 252.5 47.5" stroke-opacity="1" stroke-linejoin="bevel" stroke-miterlimit="10" stroke-dasharray="" clip-path="url(#vDDvNMQelQfh)"/><path fill="none" stroke="none"/><path fill="rgb(31,119,180)" stroke="rgb(31,119,180)" paint-order="fill" d="M 64.82776641845703 210.2355194091797 A 2 2 0 1 1 64.82776541845712 210.233519409513" fill-opacity="1" clip-path="url(#VfoPVDSeNROD)" stroke-opacity="1" stroke-linejoin="bevel" stroke-miterlimit="10" stroke-dasharray=""/><path fill="rgb(31,119,180)" stroke="rgb(31,119,180)" paint-order="fill" d="M 66.06462478637695 205.01365661621094 A 2 2 0 1 1 66.06462378637704 205.01165661654426" fill-opacity="1" clip-path="url(#VfoPVDSeNROD)" stroke-opacity="1" stroke-linejoin="bevel" stroke-miterlimit="10" stroke-dasharray=""/><path fill="rgb(31,119,180)" stroke="rgb(31,119,180)" paint-order="fill" d="M 68.53834533691406 185.79498291015625 A 2 2 0 1 1 68.53834433691415 185.79298291048957" fill-opacity="1" clip-path="url(#VfoPVDSeNROD)" stroke-opacity="1" stroke-linejoin="bevel" stroke-miterlimit="10" stroke-dasharray=""/><path fill="rgb(31,119,180)" stroke="rgb(31,119,180)" paint-order="fill" d="M 72.24891662597656 180.9940643310547 A 2 2 0 1 1 72.24891562597665 180.992064331388" fill-opacity="1" clip-path="url(#VfoPVDSeNROD)" stroke-opacity="1" stroke-linejoin="bevel" stroke-miterlimit="10" stroke-dasharray=""/><path fill="rgb(31,119,180)" stroke="rgb(31,119,180)" paint-order="fill" d="M 64.82776641845703 195.6623992919922 A 2 2 0 1 1 64.82776541845712 195.6603992923255" fill-opacity="1" clip-path="url(#VfoPVDSeNROD)" stroke-opacity="1" stroke-linejoin="bevel" stroke-miterlimit="10" stroke-dasharray=""/><path fill="rgb(31,119,180)" stroke="rgb(31,119,180)" paint-order="fill" d="M 64.82776641845703 159.520263671875 A 2 2 0 1 1 64.82776541845712 159.51826367220832" fill-opacity="1" clip-path="url(#VfoPVDSeNROD)" stroke-opacity="1" stroke-linejoin="bevel" stroke-miterlimit="10" stroke-dasharray=""/><path fill="rgb(31,119,180)" stroke="rgb(31,119,180)" paint-order="fill" d="M 245.40908813476562 36.59090805053711 A 2 2 0 1 1 245.4090871347657 36.588908050870444" fill-opacity="1" clip-path="url(#VfoPVDSeNROD)" stroke-opacity="1" stroke-linejoin="bevel" stroke-miterlimit="10" stroke-dasharray=""/><path fill="rgb(31,119,180)" stroke="rgb(31,119,180)" paint-order="fill" d="M 94.51236724853516 174.72982788085938 A 2 2 0 1 1 94.51236624853524 174.7278278811927" fill-opacity="1" clip-path="url(#VfoPVDSeNROD)" stroke-opacity="1" stroke-linejoin="bevel" stroke-miterlimit="10" stroke-dasharray=""/><path fill="rgb(31,119,180)" stroke="rgb(31,119,180)" paint-order="fill" d="M 84.61750030517578 180.0769805908203 A 2 2 0 1 1 84.61749930517587 180.07498059115363" fill-opacity="1" clip-path="url(#VfoPVDSeNROD)" stroke-opacity="1" stroke-linejoin="bevel" stroke-miterlimit="10" stroke-dasharray=""/><path fill="rgb(31,119,180)" stroke="rgb(31,119,180)" paint-order="fill" d="M 63.59090805053711 196.23370361328125 A 2 2 0 1 1 63.59090705053719 196.23170361361457" fill-opacity="1" clip-path="url(#VfoPVDSeNROD)" stroke-opacity="1" stroke-linejoin="bevel" stroke-miterlimit="10" stroke-dasharray=""/><path fill="rgb(31,119,180)" stroke="rgb(31,119,180)" paint-order="fill" d="M 64.82776641845703 184.7826690673828 A 2 2 0 1 1 64.82776541845712 184.78066906771613" fill-opacity="1" clip-path="url(#VfoPVDSeNROD)" stroke-opacity="1" stroke-linejoin="bevel" stroke-miterlimit="10" stroke-dasharray=""/><path fill="rgb(31,119,180)" stroke="rgb(31,119,180)" paint-order="fill" d="M 63.59090805053711 188.56126403808594 A 2 2 0 1 1 63.59090705053719 188.55926403841926" fill-opacity="1" clip-path="url(#VfoPVDSeNROD)" stroke-opacity="1" stroke-linejoin="bevel" stroke-miterlimit="10" stroke-dasharray=""/><path fill="rgb(31,119,180)" stroke="rgb(31,119,180)" paint-order="fill" d="M 69.77519989013672 206.1261749267578 A 2 2 0 1 1 69.7751988901368 206.12417492709113" fill-opacity="1" clip-path="url(#VfoPVDSeNROD)" stroke-opacity="1" stroke-linejoin="bevel" stroke-miterlimit="10" stroke-dasharray=""/><path fill="rgb(31,119,180)" stroke="rgb(31,119,180)" paint-order="fill" d="M 63.59090805053711 180.1070556640625 A 2 2 0 1 1 63.59090705053719 180.10505566439582" fill-opacity="1" clip-path="url(#VfoPVDSeNROD)" stroke-opacity="1" stroke-linejoin="bevel" stroke-miterlimit="10" stroke-dasharray=""/><path fill="rgb(31,119,180)" stroke="rgb(31,119,180)" paint-order="fill" d="M 95.74922943115234 176.32846069335938 A 2 2 0 1 1 95.74922843115243 176.3264606936927" fill-opacity="1" clip-path="url(#VfoPVDSeNROD)" stroke-opacity="1" stroke-linejoin="bevel" stroke-miterlimit="10" stroke-dasharray=""/><path fill="rgb(31,119,180)" stroke="rgb(31,119,180)" paint-order="fill" d="M 63.59090805053711 203.2496337890625 A 2 2 0 1 1 63.59090705053719 203.24763378939582" fill-opacity="1" clip-path="url(#VfoPVDSeNROD)" stroke-opacity="1" stroke-linejoin="bevel" stroke-miterlimit="10" stroke-dasharray=""/><path fill="rgb(31,119,180)" stroke="rgb(31,119,180)" paint-order="fill" d="M 63.59090805053711 218.40908813476562 A 2 2 0 1 1 63.59090705053719 218.40708813509895" fill-opacity="1" clip-path="url(#VfoPVDSeNROD)" stroke-opacity="1" stroke-linejoin="bevel" stroke-miterlimit="10" stroke-dasharray=""/><path fill="rgb(31,119,180)" stroke="rgb(31,119,180)" paint-order="fill" d="M 64.82776641845703 203.91615295410156 A 2 2 0 1 1 64.82776541845712 203.91415295443488" fill-opacity="1" clip-path="url(#VfoPVDSeNROD)" stroke-opacity="1" stroke-linejoin="bevel" stroke-miterlimit="10" stroke-dasharray=""/><path fill="rgb(31,119,180)" stroke="rgb(31,119,180)" paint-order="fill" d="M 66.06462478637695 168.2300567626953 A 2 2 0 1 1 66.06462378637704 168.22805676302863" fill-opacity="1" clip-path="url(#VfoPVDSeNROD)" stroke-opacity="1" stroke-linejoin="bevel" stroke-miterlimit="10" stroke-dasharray=""/><path fill="rgb(31,119,180)" stroke="rgb(31,119,180)" paint-order="fill" d="M 64.82776641845703 197.9475860595703 A 2 2 0 1 1 64.82776541845712 197.94558605990363" fill-opacity="1" clip-path="url(#VfoPVDSeNROD)" stroke-opacity="1" stroke-linejoin="bevel" stroke-miterlimit="10" stroke-dasharray=""/><path fill="rgb(31,119,180)" stroke="rgb(31,119,180)" paint-order="fill" d="M 69.77519989013672 185.87014770507812 A 2 2 0 1 1 69.7751988901368 185.86814770541145" fill-opacity="1" clip-path="url(#VfoPVDSeNROD)" stroke-opacity="1" stroke-linejoin="bevel" stroke-miterlimit="10" stroke-dasharray=""/><path fill="rgb(31,119,180)" stroke="rgb(31,119,180)" paint-order="fill" d="M 87.09121704101562 95.45467376708984 A 2 2 0 1 1 87.09121604101571 95.45267376742318" fill-opacity="1" clip-path="url(#VfoPVDSeNROD)" stroke-opacity="1" stroke-linejoin="bevel" stroke-miterlimit="10" stroke-dasharray=""/><path fill="rgb(31,119,180)" stroke="rgb(31,119,180)" paint-order="fill" d="M 126.67068481445312 178.49337768554688 A 2 2 0 1 1 126.67068381445321 178.4913776858802" fill-opacity="1" clip-path="url(#VfoPVDSeNROD)" stroke-opacity="1" stroke-linejoin="bevel" stroke-miterlimit="10" stroke-dasharray=""/><path fill="rgb(31,119,180)" stroke="rgb(31,119,180)" paint-order="fill" d="M 64.82776641845703 215.5576171875 A 2 2 0 1 1 64.82776541845712 215.55561718783332" fill-opacity="1" clip-path="url(#VfoPVDSeNROD)" stroke-opacity="1" stroke-linejoin="bevel" stroke-miterlimit="10" stroke-dasharray=""/><path fill="rgb(31,119,180)" stroke="rgb(31,119,180)" paint-order="fill" d="M 114.3021011352539 196.4441680908203 A 2 2 0 1 1 114.302100135254 196.44216809115363" fill-opacity="1" clip-path="url(#VfoPVDSeNROD)" stroke-opacity="1" stroke-linejoin="bevel" stroke-miterlimit="10" stroke-dasharray=""/><path fill="rgb(31,119,180)" stroke="rgb(31,119,180)" paint-order="fill" d="M 64.82776641845703 164.89749145507812 A 2 2 0 1 1 64.82776541845712 164.89549145541145" fill-opacity="1" clip-path="url(#VfoPVDSeNROD)" stroke-opacity="1" stroke-linejoin="bevel" stroke-miterlimit="10" stroke-dasharray=""/><path fill="rgb(31,119,180)" stroke="rgb(31,119,180)" paint-order="fill" d="M 94.51236724853516 169.8286895751953 A 2 2 0 1 1 94.51236624853524 169.82668957552863" fill-opacity="1" clip-path="url(#VfoPVDSeNROD)" stroke-opacity="1" stroke-linejoin="bevel" stroke-miterlimit="10" stroke-dasharray=""/><path fill="rgb(31,119,180)" stroke="rgb(31,119,180)" paint-order="fill" d="M 63.59090805053711 208.0455322265625 A 2 2 0 1 1 63.59090705053719 208.04353222689582" fill-opacity="1" clip-path="url(#VfoPVDSeNROD)" stroke-opacity="1" stroke-linejoin="bevel" stroke-miterlimit="10" stroke-dasharray=""/><path fill="rgb(31,119,180)" stroke="rgb(31,119,180)" paint-order="fill" d="M 126.67068481445312 200.26284790039062 A 2 2 0 1 1 126.67068381445321 200.26084790072395" fill-opacity="1" clip-path="url(#VfoPVDSeNROD)" stroke-opacity="1" stroke-linejoin="bevel" stroke-miterlimit="10" stroke-dasharray=""/><path fill="rgb(31,119,180)" stroke="rgb(31,119,180)" paint-order="fill" d="M 66.06462478637695 203.88609313964844 A 2 2 0 1 1 66.06462378637704 203.88409313998176" fill-opacity="1" clip-path="url(#VfoPVDSeNROD)" stroke-opacity="1" stroke-linejoin="bevel" stroke-miterlimit="10" stroke-dasharray=""/><path fill="rgb(31,119,180)" stroke="rgb(31,119,180)" paint-order="fill" d="M 69.77519989013672 206.2213897705078 A 2 2 0 1 1 69.7751988901368 206.21938977084113" fill-opacity="1" clip-path="url(#VfoPVDSeNROD)" stroke-opacity="1" stroke-linejoin="bevel" stroke-miterlimit="10" stroke-dasharray=""/><path fill="rgb(31,119,180)" stroke="rgb(31,119,180)" paint-order="fill" d="M 66.06462478637695 168.0396270751953 A 2 2 0 1 1 66.06462378637704 168.03762707552863" fill-opacity="1" clip-path="url(#VfoPVDSeNROD)" stroke-opacity="1" stroke-linejoin="bevel" stroke-miterlimit="10" stroke-dasharray=""/><path fill="rgb(31,119,180)" stroke="rgb(31,119,180)" paint-order="fill" d="M 63.59090805053711 161.4346160888672 A 2 2 0 1 1 63.59090705053719 161.4326160892005" fill-opacity="1" clip-path="url(#VfoPVDSeNROD)" stroke-opacity="1" stroke-linejoin="bevel" stroke-miterlimit="10" stroke-dasharray=""/><path fill="rgb(31,119,180)" stroke="rgb(31,119,180)" paint-order="fill" d="M 63.59090805053711 197.1658172607422 A 2 2 0 1 1 63.59090705053719 197.1638172610755" fill-opacity="1" clip-path="url(#VfoPVDSeNROD)" stroke-opacity="1" stroke-linejoin="bevel" stroke-miterlimit="10" stroke-dasharray=""/><path fill="rgb(31,119,180)" stroke="rgb(31,119,180)" paint-order="fill" d="M 64.82776641845703 210.15533447265625 A 2 2 0 1 1 64.82776541845712 210.15333447298957" fill-opacity="1" clip-path="url(#VfoPVDSeNROD)" stroke-opacity="1" stroke-linejoin="bevel" stroke-miterlimit="10" stroke-dasharray=""/><path fill="none" stroke="rgb(0,0,0)" paint-order="fill" d="M 52.5 227.5 L 252.5 227.5" stroke-opacity="1" stroke-linejoin="bevel" stroke-miterlimit="10" stroke-dasharray=""/><path fill="none" stroke="rgb(0,0,0)" paint-order="fill" d="M 61.5 233.5 L 61.5 225.5 M 86.5 233.5 L 86.5 225.5 M 111.5 233.5 L 111.5 225.5 M 135.5 233.5 L 135.5 225.5 M 160.5 233.5 L 160.5 225.5 M 185.5 233.5 L 185.5 225.5 M 210.5 233.5 L 210.5 225.5 M 234.5 233.5 L 234.5 225.5" stroke-opacity="1" stroke-linejoin="bevel" stroke-miterlimit="10" stroke-dasharray=""/><path fill="none" stroke="rgb(0,0,0)" paint-order="fill" d="M 56.5 231.5 L 56.5 227.5 M 61.5 231.5 L 61.5 227.5 M 66.5 231.5 L 66.5 227.5 M 71.5 231.5 L 71.5 227.5 M 76.5 231.5 L 76.5 227.5 M 81.5 231.5 L 81.5 227.5 M 86.5 231.5 L 86.5 227.5 M 91.5 231.5 L 91.5 227.5 M 96.5 231.5 L 96.5 227.5 M 101.5 231.5 L 101.5 227.5 M 106.5 231.5 L 106.5 227.5 M 111.5 231.5 L 111.5 227.5 M 116.5 231.5 L 116.5 227.5 M 120.5 231.5 L 120.5 227.5 M 125.5 231.5 L 125.5 227.5 M 130.5 231.5 L 130.5 227.5 M 135.5 231.5 L 135.5 227.5 M 140.5 231.5 L 140.5 227.5 M 145.5 231.5 L 145.5 227.5 M 150.5 231.5 L 150.5 227.5 M 155.5 231.5 L 155.5 227.5 M 160.5 231.5 L 160.5 227.5 M 165.5 231.5 L 165.5 227.5 M 170.5 231.5 L 170.5 227.5 M 175.5 231.5 L 175.5 227.5 M 180.5 231.5 L 180.5 227.5 M 185.5 231.5 L 185.5 227.5 M 190.5 231.5 L 190.5 227.5 M 195.5 231.5 L 195.5 227.5 M 200.5 231.5 L 200.5 227.5 M 205.5 231.5 L 205.5 227.5 M 210.5 231.5 L 210.5 227.5 M 214.5 231.5 L 214.5 227.5 M 219.5 231.5 L 219.5 227.5 M 224.5 231.5 L 224.5 227.5 M 229.5 231.5 L 229.5 227.5 M 234.5 231.5 L 234.5 227.5 M 239.5 231.5 L 239.5 227.5 M 244.5 231.5 L 244.5 227.5 M 249.5 231.5 L 249.5 227.5" stroke-opacity="1" stroke-linejoin="bevel" stroke-miterlimit="10" stroke-dasharray=""/><text fill="rgb(68,68,68)" stroke="none" font-family="helvetica" font-size="11px" font-style="normal" font-weight="normal" text-decoration="normal" x="58.03207015991211" y="245.89013671875" text-anchor="start" dominant-baseline="alphabetic" transform="matrix(1, 0, 0, 1, 0.5, 0.5)" fill-opacity="1">0</text><text fill="rgb(68,68,68)" stroke="none" font-family="helvetica" font-size="11px" font-style="normal" font-weight="normal" text-decoration="normal" x="78.18232727050781" y="245.89013671875" text-anchor="start" dominant-baseline="alphabetic" transform="matrix(1, 0, 0, 1, 0.5, 0.5)" fill-opacity="1">0.2</text><text fill="rgb(68,68,68)" stroke="none" font-family="helvetica" font-size="11px" font-style="normal" font-weight="normal" text-decoration="normal" x="102.91949462890625" y="245.89013671875" text-anchor="start" dominant-baseline="alphabetic" transform="matrix(1, 0, 0, 1, 0.5, 0.5)" fill-opacity="1">0.4</text><text fill="rgb(68,68,68)" stroke="none" font-family="helvetica" font-size="11px" font-style="normal" font-weight="normal" text-decoration="normal" x="127.65666198730469" y="245.89013671875" text-anchor="start" dominant-baseline="alphabetic" transform="matrix(1, 0, 0, 1, 0.5, 0.5)" fill-opacity="1">0.6</text><text fill="rgb(68,68,68)" stroke="none" font-family="helvetica" font-size="11px" font-style="normal" font-weight="normal" text-decoration="normal" x="152.39382934570312" y="245.89013671875" text-anchor="start" dominant-baseline="alphabetic" transform="matrix(1, 0, 0, 1, 0.5, 0.5)" fill-opacity="1">0.8</text><text fill="rgb(68,68,68)" stroke="none" font-family="helvetica" font-size="11px" font-style="normal" font-weight="normal" text-decoration="normal" x="181.71791076660156" y="245.89013671875" text-anchor="start" dominant-baseline="alphabetic" transform="matrix(1, 0, 0, 1, 0.5, 0.5)" fill-opacity="1">1</text><text fill="rgb(68,68,68)" stroke="none" font-family="helvetica" font-size="11px" font-style="normal" font-weight="normal" text-decoration="normal" x="201.8681640625" y="245.89013671875" text-anchor="start" dominant-baseline="alphabetic" transform="matrix(1, 0, 0, 1, 0.5, 0.5)" fill-opacity="1">1.2</text><text fill="rgb(68,68,68)" stroke="none" font-family="helvetica" font-size="11px" font-style="normal" font-weight="normal" text-decoration="normal" x="226.60533142089844" y="245.89013671875" text-anchor="start" dominant-baseline="alphabetic" transform="matrix(1, 0, 0, 1, 0.5, 0.5)" fill-opacity="1">1.4</text><text fill="rgb(68,68,68)" stroke="none" font-family="helvetica" font-size="13px" font-style="italic" font-weight="normal" text-decoration="normal" x="123.819580078125" y="265.89013671875" text-anchor="start" dominant-baseline="alphabetic" transform="matrix(1, 0, 0, 1, 0.5, 0.5)" fill-opacity="1">Observed</text><path fill="none" stroke="rgb(0,0,0)" paint-order="fill" d="M 52.5 227.5 L 52.5 27.5" stroke-opacity="1" stroke-linejoin="bevel" stroke-miterlimit="10" stroke-dasharray=""/><path fill="none" stroke="rgb(0,0,0)" paint-order="fill" d="M 46.5 223.5 L 54.5 223.5 M 46.5 198.5 L 54.5 198.5 M 46.5 172.5 L 54.5 172.5 M 46.5 147.5 L 54.5 147.5 M 46.5 122.5 L 54.5 122.5 M 46.5 97.5 L 54.5 97.5 M 46.5 72.5 L 54.5 72.5 M 46.5 47.5 L 54.5 47.5" stroke-opacity="1" stroke-linejoin="bevel" stroke-miterlimit="10" stroke-dasharray=""/><path fill="none" stroke="rgb(0,0,0)" paint-order="fill" d="M 48.5 223.5 L 52.5 223.5 M 48.5 218.5 L 52.5 218.5 M 48.5 213.5 L 52.5 213.5 M 48.5 208.5 L 52.5 208.5 M 48.5 203.5 L 52.5 203.5 M 48.5 198.5 L 52.5 198.5 M 48.5 193.5 L 52.5 193.5 M 48.5 187.5 L 52.5 187.5 M 48.5 182.5 L 52.5 182.5 M 48.5 177.5 L 52.5 177.5 M 48.5 172.5 L 52.5 172.5 M 48.5 167.5 L 52.5 167.5 M 48.5 162.5 L 52.5 162.5 M 48.5 157.5 L 52.5 157.5 M 48.5 152.5 L 52.5 152.5 M 48.5 147.5 L 52.5 147.5 M 48.5 142.5 L 52.5 142.5 M 48.5 137.5 L 52.5 137.5 M 48.5 132.5 L 52.5 132.5 M 48.5 127.5 L 52.5 127.5 M 48.5 122.5 L 52.5 122.5 M 48.5 117.5 L 52.5 117.5 M 48.5 112.5 L 52.5 112.5 M 48.5 107.5 L 52.5 107.5 M 48.5 102.5 L 52.5 102.5 M 48.5 97.5 L 52.5 97.5 M 48.5 92.5 L 52.5 92.5 M 48.5 87.5 L 52.5 87.5 M 48.5 82.5 L 52.5 82.5 M 48.5 77.5 L 52.5 77.5 M 48.5 72.5 L 52.5 72.5 M 48.5 67.5 L 52.5 67.5 M 48.5 62.5 L 52.5 62.5 M 48.5 57.5 L 52.5 57.5 M 48.5 52.5 L 52.5 52.5 M 48.5 47.5 L 52.5 47.5 M 48.5 42.5 L 52.5 42.5 M 48.5 37.5 L 52.5 37.5 M 48.5 32.5 L 52.5 32.5 M 48.5 27.5 L 52.5 27.5" stroke-opacity="1" stroke-linejoin="bevel" stroke-miterlimit="10" stroke-dasharray=""/><text fill="rgb(68,68,68)" stroke="none" font-family="helvetica" font-size="11px" font-style="normal" font-weight="normal" text-decoration="normal" x="34.88232421875" y="226.51475524902344" text-anchor="start" dominant-baseline="alphabetic" transform="matrix(1, 0, 0, 1, 0.5, 0.5)" fill-opacity="1">0</text><text fill="rgb(68,68,68)" stroke="none" font-family="helvetica" font-size="11px" font-style="normal" font-weight="normal" text-decoration="normal" x="25.70849609375" y="201.4578094482422" text-anchor="start" dominant-baseline="alphabetic" transform="matrix(1, 0, 0, 1, 0.5, 0.5)" fill-opacity="1">0.1</text><text fill="rgb(68,68,68)" stroke="none" font-family="helvetica" font-size="11px" font-style="normal" font-weight="normal" text-decoration="normal" x="25.70849609375" y="176.40086364746094" text-anchor="start" dominant-baseline="alphabetic" transform="matrix(1, 0, 0, 1, 0.5, 0.5)" fill-opacity="1">0.2</text><text fill="rgb(68,68,68)" stroke="none" font-family="helvetica" font-size="11px" font-style="normal" font-weight="normal" text-decoration="normal" x="25.70849609375" y="151.3439178466797" text-anchor="start" dominant-baseline="alphabetic" transform="matrix(1, 0, 0, 1, 0.5, 0.5)" fill-opacity="1">0.3</text><text fill="rgb(68,68,68)" stroke="none" font-family="helvetica" font-size="11px" font-style="normal" font-weight="normal" text-decoration="normal" x="25.70849609375" y="126.28697967529297" text-anchor="start" dominant-baseline="alphabetic" transform="matrix(1, 0, 0, 1, 0.5, 0.5)" fill-opacity="1">0.4</text><text fill="rgb(68,68,68)" stroke="none" font-family="helvetica" font-size="11px" font-style="normal" font-weight="normal" text-decoration="normal" x="25.70849609375" y="101.23004150390625" text-anchor="start" dominant-baseline="alphabetic" transform="matrix(1, 0, 0, 1, 0.5, 0.5)" fill-opacity="1">0.5</text><text fill="rgb(68,68,68)" stroke="none" font-family="helvetica" font-size="11px" font-style="normal" font-weight="normal" text-decoration="normal" x="25.70849609375" y="76.173095703125" text-anchor="start" dominant-baseline="alphabetic" transform="matrix(1, 0, 0, 1, 0.5, 0.5)" fill-opacity="1">0.6</text><text fill="rgb(68,68,68)" stroke="none" font-family="helvetica" font-size="11px" font-style="normal" font-weight="normal" text-decoration="normal" x="25.70849609375" y="51.11615753173828" text-anchor="start" dominant-baseline="alphabetic" transform="matrix(1, 0, 0, 1, 0.5, 0.5)" fill-opacity="1">0.7</text><text fill="rgb(68,68,68)" stroke="none" font-family="helvetica" font-size="13px" font-style="italic" font-weight="normal" text-decoration="normal" x="-9.75146484375" y="124" text-anchor="start" dominant-baseline="alphabetic" transform="matrix(6.123233995736766e-17, -1, 1, 6.123233995736766e-17, -108.79150390625, 145.20849609375)" fill-opacity="1">Predicted</text><path fill="none" stroke="rgb(255,140,0)" paint-order="fill" d="M 158.127829313544 27.5 L 59.40401978973405 227.5" stroke-opacity="1" stroke-linejoin="bevel" stroke-miterlimit="10" stroke-width="2" stroke-dasharray="" clip-path="url(#zybRmiSGAvse)"/><path fill="none" stroke="none"/><text fill="rgb(68,68,68)" stroke="none" font-family="helvetica" font-size="13px" font-style="normal" font-weight="bold" text-decoration="normal" x="0" y="0" text-anchor="start" dominant-baseline="text-after-edge" transform="matrix(1, 0, 0, 1, 52.5, 22.5)" fill-opacity="1">NO2 (µmol/L), &lt;R²&gt; = -0.10</text></svg>