<svg version="1.1" xmlns="http://www.w3.org/2000/svg" xmlns:xlink="http://www.w3.org/1999/xlink" width="263" height="272"><defs><clipPath id="tTZVkQInMXRI"><path fill="none" stroke="none" d="M 58.5 27.5 L 258.5 27.5 L 258.5 227.5 L 58.5 227.5 L 58.5 27.5"/></clipPath><clipPath id="MtzhCKUzgmsv"><path fill="none" stroke="none" d="M 58.5 27.5 L 258.5 27.5 L 258.5 227.5 L 58.5 227.5 L 58.5 27.5"/></clipPath><clipPath id="dgZyXPNBhNdI"><path fill="none" stroke="none" d="M 58.5 27.5 L 258.5 27.5 L 258.5 227.5 L 58.5 227.5 L 58.5 27.5"/></clipPath><clipPath id="vOaWLQnrAxaa"><path fill="none" stroke="none" d="M 58.5 27.5 L 258.5 27.5 L 258.5 227.5 L 58.5 227.5 L 58.5 27.5"/></clipPath><clipPath id="MTPhWtasOtIg"><path fill="none" stroke="none" d="M 58.5 27.5 L 258.5 27.5 L 258.5 227.5 L 58.5 227.5 L 58.5 27.5"/></clipPath></defs><path fill="none" stroke="rgb(229,229,229)" paint-order="fill" d="M 58.5 27.5 L 258.5 27.5 L 258.5 227.5 L 58.5 227.5 L 58.5 27.5" stroke-opacity="1" stroke-linejoin="bevel" stroke-miterlimit="10" stroke-dasharray=""/><path fill="none" stroke="rgb(229,229,229)" paint-order="fill" d="M 89.5 227.5 L 89.5 27.5 M 126.5 227.5 L 126.5 27.5 M 164.5 227.5 L 164.5 27.5 M 201.5 227.5 L 201.5 27.5 M 238.5 227.5 L 238.5 27.5" stroke-opacity="1" stroke-linejoin="bevel" stroke-miterlimit="10" stroke-dasharray="" clip-path="url(#tTZVkQInMXRI)"/><path fill="none" stroke="rgb(229,229,229)" paint-order="fill" d="M 58.5 203.5 L 258.5 203.5 M 58.5 172.5 L 258.5 172.5 M 58.5 141.5 L 258.5 141.5 M 58.5 110.5 L 258.5 110.5 M 58.5 79.5 L 258.5 79.5 M 58.5 48.5 L 258.5 48.5" stroke-opacity="1" stroke-linejoin="bevel" stroke-miterlimit="10" stroke-dasharray="" clip-path="url(#MtzhCKUzgmsv)"/><path fill="none" stroke="none"/><path fill="rgb(31,119,180)" stroke="rgb(31,119,180)" paint-order="fill" d="M 132.67068481445312 182.3589324951172 A 2 2 0 1 1 132.6706838144532 182.3569324954505" fill-opacity="1" clip-path="url(#dgZyXPNBhNdI)" stroke-opacity="1" stroke-linejoin="bevel" stroke-miterlimit="10" stroke-dasharray=""/><path fill="rgb(31,119,180)" stroke="rgb(31,119,180)" paint-order="fill" d="M 69.59091186523438 212.17681884765625 A 2 2 0 1 1 69.59091086523446 212.17481884798957" fill-opacity="1" clip-path="url(#dgZyXPNBhNdI)" stroke-opacity="1" stroke-linejoin="bevel" stroke-miterlimit="10" stroke-dasharray=""/><path fill="rgb(31,119,180)" stroke="rgb(31,119,180)" paint-order="fill" d="M 151.2235565185547 116.2794189453125 A 2 2 0 1 1 151.22355551855478 116.27741894564583" fill-opacity="1" clip-path="url(#dgZyXPNBhNdI)" stroke-opacity="1" stroke-linejoin="bevel" stroke-miterlimit="10" stroke-dasharray=""/><path fill="rgb(31,119,180)" stroke="rgb(31,119,180)" paint-order="fill" d="M 106.69666290283203 166.42372131347656 A 2 2 0 1 1 106.69666190283212 166.42172131380988" fill-opacity="1" clip-path="url(#dgZyXPNBhNdI)" stroke-opacity="1" stroke-linejoin="bevel" stroke-miterlimit="10" stroke-dasharray=""/><path fill="rgb(31,119,180)" stroke="rgb(31,119,180)" paint-order="fill" d="M 102.986083984375 126.19383239746094 A 2 2 0 1 1 102.98608298437509 126.19183239779427" fill-opacity="1" clip-path="url(#dgZyXPNBhNdI)" stroke-opacity="1" stroke-linejoin="bevel" stroke-miterlimit="10" stroke-dasharray=""/><path fill="rgb(31,119,180)" stroke="rgb(31,119,180)" paint-order="fill" d="M 199.46104431152344 58.38520812988281 A 2 2 0 1 1 199.46104331152353 58.38320813021615" fill-opacity="1" clip-path="url(#dgZyXPNBhNdI)" stroke-opacity="1" stroke-linejoin="bevel" stroke-miterlimit="10" stroke-dasharray=""/><path fill="rgb(31,119,180)" stroke="rgb(31,119,180)" paint-order="fill" d="M 169.7764434814453 132.8366241455078 A 2 2 0 1 1 169.7764424814454 132.83462414584113" fill-opacity="1" clip-path="url(#dgZyXPNBhNdI)" stroke-opacity="1" stroke-linejoin="bevel" stroke-miterlimit="10" stroke-dasharray=""/><path fill="rgb(31,119,180)" stroke="rgb(31,119,180)" paint-order="fill" d="M 236.56678771972656 98.51557159423828 A 2 2 0 1 1 236.56678671972665 98.51357159457162" fill-opacity="1" clip-path="url(#dgZyXPNBhNdI)" stroke-opacity="1" stroke-linejoin="bevel" stroke-miterlimit="10" stroke-dasharray=""/><path fill="rgb(31,119,180)" stroke="rgb(31,119,180)" paint-order="fill" d="M 143.8024139404297 155.99928283691406 A 2 2 0 1 1 143.80241294042978 155.99728283724738" fill-opacity="1" clip-path="url(#dgZyXPNBhNdI)" stroke-opacity="1" stroke-linejoin="bevel" stroke-miterlimit="10" stroke-dasharray=""/><path fill="rgb(31,119,180)" stroke="rgb(31,119,180)" paint-order="fill" d="M 140.0918426513672 176.11422729492188 A 2 2 0 1 1 140.09184165136728 176.1122272952552" fill-opacity="1" clip-path="url(#dgZyXPNBhNdI)" stroke-opacity="1" stroke-linejoin="bevel" stroke-miterlimit="10" stroke-dasharray=""/><path fill="rgb(31,119,180)" stroke="rgb(31,119,180)" paint-order="fill" d="M 225.43505859375 67.21736907958984 A 2 2 0 1 1 225.4350575937501 67.21536907992318" fill-opacity="1" clip-path="url(#dgZyXPNBhNdI)" stroke-opacity="1" stroke-linejoin="bevel" stroke-miterlimit="10" stroke-dasharray=""/><path fill="rgb(31,119,180)" stroke="rgb(31,119,180)" paint-order="fill" d="M 128.96011352539062 190.55667114257812 A 2 2 0 1 1 128.9601125253907 190.55467114291145" fill-opacity="1" clip-path="url(#dgZyXPNBhNdI)" stroke-opacity="1" stroke-linejoin="bevel" stroke-miterlimit="10" stroke-dasharray=""/><path fill="rgb(31,119,180)" stroke="rgb(31,119,180)" paint-order="fill" d="M 251.40908813476562 36.59090805053711 A 2 2 0 1 1 251.4090871347657 36.588908050870444" fill-opacity="1" clip-path="url(#dgZyXPNBhNdI)" stroke-opacity="1" stroke-linejoin="bevel" stroke-miterlimit="10" stroke-dasharray=""/><path fill="rgb(31,119,180)" stroke="rgb(31,119,180)" paint-order="fill" d="M 106.69666290283203 171.97181701660156 A 2 2 0 1 1 106.69666190283212 171.96981701693488" fill-opacity="1" clip-path="url(#dgZyXPNBhNdI)" stroke-opacity="1" stroke-linejoin="bevel" stroke-miterlimit="10" stroke-dasharray=""/><path fill="rgb(31,119,180)" stroke="rgb(31,119,180)" paint-order="fill" d="M 128.96011352539062 175.34295654296875 A 2 2 0 1 1 128.9601125253907 175.34095654330207" fill-opacity="1" clip-path="url(#dgZyXPNBhNdI)" stroke-opacity="1" stroke-linejoin="bevel" stroke-miterlimit="10" stroke-dasharray=""/><path fill="rgb(31,119,180)" stroke="rgb(31,119,180)" paint-order="fill" d="M 117.82838439941406 129.2664337158203 A 2 2 0 1 1 117.82838339941415 129.26443371615363" fill-opacity="1" clip-path="url(#dgZyXPNBhNdI)" stroke-opacity="1" stroke-linejoin="bevel" stroke-miterlimit="10" stroke-dasharray=""/><path fill="rgb(31,119,180)" stroke="rgb(31,119,180)" paint-order="fill" d="M 117.82838439941406 151.40904235839844 A 2 2 0 1 1 117.82838339941415 151.40704235873176" fill-opacity="1" clip-path="url(#dgZyXPNBhNdI)" stroke-opacity="1" stroke-linejoin="bevel" stroke-miterlimit="10" stroke-dasharray=""/><path fill="rgb(31,119,180)" stroke="rgb(31,119,180)" paint-order="fill" d="M 143.8024139404297 152.20518493652344 A 2 2 0 1 1 143.80241294042978 152.20318493685676" fill-opacity="1" clip-path="url(#dgZyXPNBhNdI)" stroke-opacity="1" stroke-linejoin="bevel" stroke-miterlimit="10" stroke-dasharray=""/><path fill="rgb(31,119,180)" stroke="rgb(31,119,180)" paint-order="fill" d="M 106.69666290283203 189.275390625 A 2 2 0 1 1 106.69666190283212 189.27339062533332" fill-opacity="1" clip-path="url(#dgZyXPNBhNdI)" stroke-opacity="1" stroke-linejoin="bevel" stroke-miterlimit="10" stroke-dasharray=""/><path fill="rgb(31,119,180)" stroke="rgb(31,119,180)" paint-order="fill" d="M 84.43321228027344 176.4127655029297 A 2 2 0 1 1 84.43321128027353 176.410765503263" fill-opacity="1" clip-path="url(#dgZyXPNBhNdI)" stroke-opacity="1" stroke-linejoin="bevel" stroke-miterlimit="10" stroke-dasharray=""/><path fill="rgb(31,119,180)" stroke="rgb(31,119,180)" paint-order="fill" d="M 117.82838439941406 153.5486602783203 A 2 2 0 1 1 117.82838339941415 153.54666027865363" fill-opacity="1" clip-path="url(#dgZyXPNBhNdI)" stroke-opacity="1" stroke-linejoin="bevel" stroke-miterlimit="10" stroke-dasharray=""/><path fill="rgb(31,119,180)" stroke="rgb(31,119,180)" paint-order="fill" d="M 140.0918426513672 137.63833618164062 A 2 2 0 1 1 140.09184165136728 137.63633618197395" fill-opacity="1" clip-path="url(#dgZyXPNBhNdI)" stroke-opacity="1" stroke-linejoin="bevel" stroke-miterlimit="10" stroke-dasharray=""/><path fill="rgb(31,119,180)" stroke="rgb(31,119,180)" paint-order="fill" d="M 88.14378356933594 185.29469299316406 A 2 2 0 1 1 88.14378256933603 185.29269299349738" fill-opacity="1" clip-path="url(#dgZyXPNBhNdI)" stroke-opacity="1" stroke-linejoin="bevel" stroke-miterlimit="10" stroke-dasharray=""/><path fill="rgb(31,119,180)" stroke="rgb(31,119,180)" paint-order="fill" d="M 199.46104431152344 64.97823333740234 A 2 2 0 1 1 199.46104331152353 64.97623333773568" fill-opacity="1" clip-path="url(#dgZyXPNBhNdI)" stroke-opacity="1" stroke-linejoin="bevel" stroke-miterlimit="10" stroke-dasharray=""/><path fill="rgb(31,119,180)" stroke="rgb(31,119,180)" paint-order="fill" d="M 95.56493377685547 130.52284240722656 A 2 2 0 1 1 95.56493277685556 130.52084240755988" fill-opacity="1" clip-path="url(#dgZyXPNBhNdI)" stroke-opacity="1" stroke-linejoin="bevel" stroke-miterlimit="10" stroke-dasharray=""/><path fill="rgb(31,119,180)" stroke="rgb(31,119,180)" paint-order="fill" d="M 136.38125610351562 140.176025390625 A 2 2 0 1 1 136.3812551035157 140.17402539095832" fill-opacity="1" clip-path="url(#dgZyXPNBhNdI)" stroke-opacity="1" stroke-linejoin="bevel" stroke-miterlimit="10" stroke-dasharray=""/><path fill="rgb(31,119,180)" stroke="rgb(31,119,180)" paint-order="fill" d="M 95.56493377685547 171.48666381835938 A 2 2 0 1 1 95.56493277685556 171.4846638186927" fill-opacity="1" clip-path="url(#dgZyXPNBhNdI)" stroke-opacity="1" stroke-linejoin="bevel" stroke-miterlimit="10" stroke-dasharray=""/><path fill="rgb(31,119,180)" stroke="rgb(31,119,180)" paint-order="fill" d="M 128.96011352539062 151.72003173828125 A 2 2 0 1 1 128.9601125253907 151.71803173861457" fill-opacity="1" clip-path="url(#dgZyXPNBhNdI)" stroke-opacity="1" stroke-linejoin="bevel" stroke-miterlimit="10" stroke-dasharray=""/><path fill="rgb(31,119,180)" stroke="rgb(31,119,180)" paint-order="fill" d="M 132.67068481445312 147.81398010253906 A 2 2 0 1 1 132.6706838144532 147.81198010287238" fill-opacity="1" clip-path="url(#dgZyXPNBhNdI)" stroke-opacity="1" stroke-linejoin="bevel" stroke-miterlimit="10" stroke-dasharray=""/><path fill="rgb(31,119,180)" stroke="rgb(31,119,180)" paint-order="fill" d="M 199.46104431152344 110.33325958251953 A 2 2 0 1 1 199.46104331152353 110.33125958285287" fill-opacity="1" clip-path="url(#dgZyXPNBhNdI)" stroke-opacity="1" stroke-linejoin="bevel" stroke-miterlimit="10" stroke-dasharray=""/><path fill="rgb(31,119,180)" stroke="rgb(31,119,180)" paint-order="fill" d="M 132.67068481445312 151.52099609375 A 2 2 0 1 1 132.6706838144532 151.51899609408332" fill-opacity="1" clip-path="url(#dgZyXPNBhNdI)" stroke-opacity="1" stroke-linejoin="bevel" stroke-miterlimit="10" stroke-dasharray=""/><path fill="rgb(31,119,180)" stroke="rgb(31,119,180)" paint-order="fill" d="M 151.2235565185547 96.48790740966797 A 2 2 0 1 1 151.22355551855478 96.4859074100013" fill-opacity="1" clip-path="url(#dgZyXPNBhNdI)" stroke-opacity="1" stroke-linejoin="bevel" stroke-miterlimit="10" stroke-dasharray=""/><path fill="rgb(31,119,180)" stroke="rgb(31,119,180)" paint-order="fill" d="M 77.0120620727539 218.40908813476562 A 2 2 0 1 1 77.012061072754 218.40708813509895" fill-opacity="1" clip-path="url(#dgZyXPNBhNdI)" stroke-opacity="1" stroke-linejoin="bevel" stroke-miterlimit="10" stroke-dasharray=""/><path fill="rgb(31,119,180)" stroke="rgb(31,119,180)" paint-order="fill" d="M 77.0120620727539 143.09934997558594 A 2 2 0 1 1 77.012061072754 143.09734997591926" fill-opacity="1" clip-path="url(#dgZyXPNBhNdI)" stroke-opacity="1" stroke-linejoin="bevel" stroke-miterlimit="10" stroke-dasharray=""/><path fill="rgb(31,119,180)" stroke="rgb(31,119,180)" paint-order="fill" d="M 69.59091186523438 212.8983154296875 A 2 2 0 1 1 69.59091086523446 212.89631543002082" fill-opacity="1" clip-path="url(#dgZyXPNBhNdI)" stroke-opacity="1" stroke-linejoin="bevel" stroke-miterlimit="10" stroke-dasharray=""/><path fill="rgb(31,119,180)" stroke="rgb(31,119,180)" paint-order="fill" d="M 140.0918426513672 138.99424743652344 A 2 2 0 1 1 140.09184165136728 138.99224743685676" fill-opacity="1" clip-path="url(#dgZyXPNBhNdI)" stroke-opacity="1" stroke-linejoin="bevel" stroke-miterlimit="10" stroke-dasharray=""/><path fill="none" stroke="rgb(0,0,0)" paint-order="fill" d="M 58.5 227.5 L 258.5 227.5" stroke-opacity="1" stroke-linejoin="bevel" stroke-miterlimit="10" stroke-dasharray=""/><path fill="none" stroke="rgb(0,0,0)" paint-order="fill" d="M 89.5 233.5 L 89.5 225.5 M 126.5 233.5 L 126.5 225.5 M 164.5 233.5 L 164.5 225.5 M 201.5 233.5 L 201.5 225.5 M 238.5 233.5 L 238.5 225.5" stroke-opacity="1" stroke-linejoin="bevel" stroke-miterlimit="10" stroke-dasharray=""/><path fill="none" stroke="rgb(0,0,0)" paint-order="fill" d="M 82.5 231.5 L 82.5 227.5 M 75.5 231.5 L 75.5 227.5 M 67.5 231.5 L 67.5 227.5 M 60.5 231.5 L 60.5 227.5 M 89.5 231.5 L 89.5 227.5 M 97.5 231.5 L 97.5 227.5 M 104.5 231.5 L 104.5 227.5 M 112.5 231.5 L 112.5 227.5 M 119.5 231.5 L 119.5 227.5 M 126.5 231.5 L 126.5 227.5 M 134.5 231.5 L 134.5 227.5 M 141.5 231.5 L 141.5 227.5 M 149.5 231.5 L 149.5 227.5 M 156.5 231.5 L 156.5 227.5 M 164.5 231.5 L 164.5 227.5 M 171.5 231.5 L 171.5 227.5 M 178.5 231.5 L 178.5 227.5 M 186.5 231.5 L 186.5 227.5 M 193.5 231.5 L 193.5 227.5 M 201.5 231.5 L 201.5 227.5 M 208.5 231.5 L 208.5 227.5 M 216.5 231.5 L 216.5 227.5 M 223.5 231.5 L 223.5 227.5 M 230.5 231.5 L 230.5 227.5 M 238.5 231.5 L 238.5 227.5 M 245.5 231.5 L 245.5 227.5 M 253.5 231.5 L 253.5 227.5" stroke-opacity="1" stroke-linejoin="bevel" stroke-miterlimit="10" stroke-dasharray=""/><text fill="rgb(68,68,68)" stroke="none" font-family="helvetica" font-size="11px" font-style="normal" font-weight="normal" text-decoration="normal" x="83.23668670654297" y="245.89013671875" text-anchor="start" dominant-baseline="alphabetic" transform="matrix(1, 0, 0, 1, 0.5, 0.5)" fill-opacity="1">35</text><text fill="rgb(68,68,68)" stroke="none" font-family="helvetica" font-size="11px" font-style="normal" font-weight="normal" text-decoration="normal" x="120.34243774414062" y="245.89013671875" text-anchor="start" dominant-baseline="alphabetic" transform="matrix(1, 0, 0, 1, 0.5, 0.5)" fill-opacity="1">36</text><text fill="rgb(68,68,68)" stroke="none" font-family="helvetica" font-size="11px" font-style="normal" font-weight="normal" text-decoration="normal" x="157.44818115234375" y="245.89013671875" text-anchor="start" dominant-baseline="alphabetic" transform="matrix(1, 0, 0, 1, 0.5, 0.5)" fill-opacity="1">37</text><text fill="rgb(68,68,68)" stroke="none" font-family="helvetica" font-size="11px" font-style="normal" font-weight="normal" text-decoration="normal" x="194.55393981933594" y="245.89013671875" text-anchor="start" dominant-baseline="alphabetic" transform="matrix(1, 0, 0, 1, 0.5, 0.5)" fill-opacity="1">38</text><text fill="rgb(68,68,68)" stroke="none" font-family="helvetica" font-size="11px" font-style="normal" font-weight="normal" text-decoration="normal" x="231.65968322753906" y="245.89013671875" text-anchor="start" dominant-baseline="alphabetic" transform="matrix(1, 0, 0, 1, 0.5, 0.5)" fill-opacity="1">39</text><text fill="rgb(68,68,68)" stroke="none" font-family="helvetica" font-size="13px" font-style="italic" font-weight="normal" text-decoration="normal" x="129.819580078125" y="265.89013671875" text-anchor="start" dominant-baseline="alphabetic" transform="matrix(1, 0, 0, 1, 0.5, 0.5)" fill-opacity="1">Observed</text><path fill="none" stroke="rgb(0,0,0)" paint-order="fill" d="M 58.5 227.5 L 58.5 27.5" stroke-opacity="1" stroke-linejoin="bevel" stroke-miterlimit="10" stroke-dasharray=""/><path fill="none" stroke="rgb(0,0,0)" paint-order="fill" d="M 52.5 203.5 L 60.5 203.5 M 52.5 172.5 L 60.5 172.5 M 52.5 141.5 L 60.5 141.5 M 52.5 110.5 L 60.5 110.5 M 52.5 79.5 L 60.5 79.5 M 52.5 48.5 L 60.5 48.5" stroke-opacity="1" stroke-linejoin="bevel" stroke-miterlimit="10" stroke-dasharray=""/><path fill="none" stroke="rgb(0,0,0)" paint-order="fill" d="M 54.5 209.5 L 58.5 209.5 M 54.5 215.5 L 58.5 215.5 M 54.5 222.5 L 58.5 222.5 M 54.5 203.5 L 58.5 203.5 M 54.5 197.5 L 58.5 197.5 M 54.5 191.5 L 58.5 191.5 M 54.5 184.5 L 58.5 184.5 M 54.5 178.5 L 58.5 178.5 M 54.5 172.5 L 58.5 172.5 M 54.5 166.5 L 58.5 166.5 M 54.5 159.5 L 58.5 159.5 M 54.5 153.5 L 58.5 153.5 M 54.5 147.5 L 58.5 147.5 M 54.5 141.5 L 58.5 141.5 M 54.5 135.5 L 58.5 135.5 M 54.5 128.5 L 58.5 128.5 M 54.5 122.5 L 58.5 122.5 M 54.5 116.5 L 58.5 116.5 M 54.5 110.5 L 58.5 110.5 M 54.5 103.5 L 58.5 103.5 M 54.5 97.5 L 58.5 97.5 M 54.5 91.5 L 58.5 91.5 M 54.5 85.5 L 58.5 85.5 M 54.5 79.5 L 58.5 79.5 M 54.5 72.5 L 58.5 72.5 M 54.5 66.5 L 58.5 66.5 M 54.5 60.5 L 58.5 60.5 M 54.5 54.5 L 58.5 54.5 M 54.5 48.5 L 58.5 48.5 M 54.5 41.5 L 58.5 41.5 M 54.5 35.5 L 58.5 35.5 M 54.5 29.5 L 58.5 29.5" stroke-opacity="1" stroke-linejoin="bevel" stroke-miterlimit="10" stroke-dasharray=""/><text fill="rgb(68,68,68)" stroke="none" font-family="helvetica" font-size="11px" font-style="normal" font-weight="normal" text-decoration="normal" x="34.7646484375" y="206.95143127441406" text-anchor="start" dominant-baseline="alphabetic" transform="matrix(1, 0, 0, 1, 0.5, 0.5)" fill-opacity="1">35</text><text fill="rgb(68,68,68)" stroke="none" font-family="helvetica" font-size="11px" font-style="normal" font-weight="normal" text-decoration="normal" x="25.5908203125" y="175.85226440429688" text-anchor="start" dominant-baseline="alphabetic" transform="matrix(1, 0, 0, 1, 0.5, 0.5)" fill-opacity="1">35.5</text><text fill="rgb(68,68,68)" stroke="none" font-family="helvetica" font-size="11px" font-style="normal" font-weight="normal" text-decoration="normal" x="34.7646484375" y="144.7530975341797" text-anchor="start" dominant-baseline="alphabetic" transform="matrix(1, 0, 0, 1, 0.5, 0.5)" fill-opacity="1">36</text><text fill="rgb(68,68,68)" stroke="none" font-family="helvetica" font-size="11px" font-style="normal" font-weight="normal" text-decoration="normal" x="25.5908203125" y="113.6539306640625" text-anchor="start" dominant-baseline="alphabetic" transform="matrix(1, 0, 0, 1, 0.5, 0.5)" fill-opacity="1">36.5</text><text fill="rgb(68,68,68)" stroke="none" font-family="helvetica" font-size="11px" font-style="normal" font-weight="normal" text-decoration="normal" x="34.7646484375" y="82.55476379394531" text-anchor="start" dominant-baseline="alphabetic" transform="matrix(1, 0, 0, 1, 0.5, 0.5)" fill-opacity="1">37</text><text fill="rgb(68,68,68)" stroke="none" font-family="helvetica" font-size="11px" font-style="normal" font-weight="normal" text-decoration="normal" x="25.5908203125" y="51.45559310913086" text-anchor="start" dominant-baseline="alphabetic" transform="matrix(1, 0, 0, 1, 0.5, 0.5)" fill-opacity="1">37.5</text><text fill="rgb(68,68,68)" stroke="none" font-family="helvetica" font-size="13px" font-style="italic" font-weight="normal" text-decoration="normal" x="-9.869140625" y="124" text-anchor="start" dominant-baseline="alphabetic" transform="matrix(6.123233995736766e-17, -1, 1, 6.123233995736766e-17, -108.9091796875, 145.0908203125)" fill-opacity="1">Predicted</text><path fill="none" stroke="rgb(255,140,0)" paint-order="fill" d="M 194.85473098330226 27.5 L 75.5404452690193 227.5" stroke-opacity="1" stroke-linejoin="bevel" stroke-miterlimit="10" stroke-width="2" stroke-dasharray="" clip-path="url(#vOaWLQnrAxaa)"/><path fill="none" stroke="none"/><text fill="rgb(68,68,68)" stroke="none" font-family="helvetica" font-size="13px" font-style="normal" font-weight="bold" text-decoration="normal" x="0" y="0" text-anchor="start" dominant-baseline="text-after-edge" transform="matrix(1, 0, 0, 1, 58.5, 22.5)" fill-opacity="1">Salinity (PSU), &lt;R²&gt; = 0.36</text></svg>