<svg version="1.1" xmlns="http://www.w3.org/2000/svg" xmlns:xlink="http://www.w3.org/1999/xlink" width="257" height="272"><defs><clipPath id="vDMMBmWfVBQw"><path fill="none" stroke="none" d="M 52.5 27.5 L 252.5 27.5 L 252.5 227.5 L 52.5 227.5 L 52.5 27.5"/></clipPath><clipPath id="SOudxRyBCgrh"><path fill="none" stroke="none" d="M 52.5 27.5 L 252.5 27.5 L 252.5 227.5 L 52.5 227.5 L 52.5 27.5"/></clipPath><clipPath id="GTMzFsMUTolL"><path fill="none" stroke="none" d="M 52.5 27.5 L 252.5 27.5 L 252.5 227.5 L 52.5 227.5 L 52.5 27.5"/></clipPath><clipPath id="TPaVXeJdTOXa"><path fill="none" stroke="none" d="M 52.5 27.5 L 252.5 27.5 L 252.5 227.5 L 52.5 227.5 L 52.5 27.5"/></clipPath><clipPath id="hXxNQzaULHgU"><path fill="none" stroke="none" d="M 52.5 27.5 L 252.5 27.5 L 252.5 227.5 L 52.5 227.5 L 52.5 27.5"/></clipPath></defs><path fill="none" stroke="rgb(229,229,229)" paint-order="fill" d="M 52.5 27.5 L 252.5 27.5 L 252.5 227.5 L 52.5 227.5 L 52.5 27.5" stroke-opacity="1" stroke-linejoin="bevel" stroke-miterlimit="10" stroke-dasharray=""/><path fill="none" stroke="rgb(229,229,229)" paint-order="fill" d="M 61.5 227.5 L 61.5 27.5 M 94.5 227.5 L 94.5 27.5 M 128.5 227.5 L 128.5 27.5 M 161.5 227.5 L 161.5 27.5 M 194.5 227.5 L 194.5 27.5 M 228.5 227.5 L 228.5 27.5" stroke-opacity="1" stroke-linejoin="bevel" stroke-miterlimit="10" stroke-dasharray="" clip-path="url(#vDMMBmWfVBQw)"/><path fill="none" stroke="rgb(229,229,229)" paint-order="fill" d="M 52.5 226.5 L 252.5 226.5 M 52.5 186.5 L 252.5 186.5 M 52.5 146.5 L 252.5 146.5 M 52.5 107.5 L 252.5 107.5 M 52.5 67.5 L 252.5 67.5 M 52.5 28.5 L 252.5 28.5" stroke-opacity="1" stroke-linejoin="bevel" stroke-miterlimit="10" stroke-dasharray="" clip-path="url(#SOudxRyBCgrh)"/><path fill="none" stroke="none"/><path fill="rgb(31,119,180)" stroke="rgb(31,119,180)" paint-order="fill" d="M 63.59090805053711 212.1715850830078 A 2 2 0 1 1 63.59090705053719 212.16958508334113" fill-opacity="1" clip-path="url(#GTMzFsMUTolL)" stroke-opacity="1" stroke-linejoin="bevel" stroke-miterlimit="10" stroke-dasharray=""/><path fill="rgb(31,119,180)" stroke="rgb(31,119,180)" paint-order="fill" d="M 204.11705017089844 77.29637908935547 A 2 2 0 1 1 204.11704917089853 77.2943790896888" fill-opacity="1" clip-path="url(#GTMzFsMUTolL)" stroke-opacity="1" stroke-linejoin="bevel" stroke-miterlimit="10" stroke-dasharray=""/><path fill="rgb(31,119,180)" stroke="rgb(31,119,180)" paint-order="fill" d="M 66.25491333007812 188.52015686035156 A 2 2 0 1 1 66.25491233007821 188.51815686068488" fill-opacity="1" clip-path="url(#GTMzFsMUTolL)" stroke-opacity="1" stroke-linejoin="bevel" stroke-miterlimit="10" stroke-dasharray=""/><path fill="rgb(31,119,180)" stroke="rgb(31,119,180)" paint-order="fill" d="M 86.23493194580078 203.62554931640625 A 2 2 0 1 1 86.23493094580087 203.62354931673957" fill-opacity="1" clip-path="url(#GTMzFsMUTolL)" stroke-opacity="1" stroke-linejoin="bevel" stroke-miterlimit="10" stroke-dasharray=""/><path fill="rgb(31,119,180)" stroke="rgb(31,119,180)" paint-order="fill" d="M 225.4290771484375 59.75083541870117 A 2 2 0 1 1 225.4290761484376 59.748835419034506" fill-opacity="1" clip-path="url(#GTMzFsMUTolL)" stroke-opacity="1" stroke-linejoin="bevel" stroke-miterlimit="10" stroke-dasharray=""/><path fill="rgb(31,119,180)" stroke="rgb(31,119,180)" paint-order="fill" d="M 82.23892974853516 196.1973114013672 A 2 2 0 1 1 82.23892874853524 196.1953114017005" fill-opacity="1" clip-path="url(#GTMzFsMUTolL)" stroke-opacity="1" stroke-linejoin="bevel" stroke-miterlimit="10" stroke-dasharray=""/><path fill="rgb(31,119,180)" stroke="rgb(31,119,180)" paint-order="fill" d="M 239.4150848388672 36.59090805053711 A 2 2 0 1 1 239.41508383886728 36.588908050870444" fill-opacity="1" clip-path="url(#GTMzFsMUTolL)" stroke-opacity="1" stroke-linejoin="bevel" stroke-miterlimit="10" stroke-dasharray=""/><path fill="rgb(31,119,180)" stroke="rgb(31,119,180)" paint-order="fill" d="M 245.40908813476562 52.179901123046875 A 2 2 0 1 1 245.4090871347657 52.17790112338021" fill-opacity="1" clip-path="url(#GTMzFsMUTolL)" stroke-opacity="1" stroke-linejoin="bevel" stroke-miterlimit="10" stroke-dasharray=""/><path fill="rgb(31,119,180)" stroke="rgb(31,119,180)" paint-order="fill" d="M 239.4150848388672 45.84409713745117 A 2 2 0 1 1 239.41508383886728 45.842097137784506" fill-opacity="1" clip-path="url(#GTMzFsMUTolL)" stroke-opacity="1" stroke-linejoin="bevel" stroke-miterlimit="10" stroke-dasharray=""/><path fill="rgb(31,119,180)" stroke="rgb(31,119,180)" paint-order="fill" d="M 64.25690841674805 209.98037719726562 A 2 2 0 1 1 64.25690741674813 209.97837719759895" fill-opacity="1" clip-path="url(#GTMzFsMUTolL)" stroke-opacity="1" stroke-linejoin="bevel" stroke-miterlimit="10" stroke-dasharray=""/><path fill="rgb(31,119,180)" stroke="rgb(31,119,180)" paint-order="fill" d="M 70.25091552734375 207.078857421875 A 2 2 0 1 1 70.25091452734384 207.07685742220832" fill-opacity="1" clip-path="url(#GTMzFsMUTolL)" stroke-opacity="1" stroke-linejoin="bevel" stroke-miterlimit="10" stroke-dasharray=""/><path fill="rgb(31,119,180)" stroke="rgb(31,119,180)" paint-order="fill" d="M 91.56293487548828 205.73272705078125 A 2 2 0 1 1 91.56293387548837 205.73072705111457" fill-opacity="1" clip-path="url(#GTMzFsMUTolL)" stroke-opacity="1" stroke-linejoin="bevel" stroke-miterlimit="10" stroke-dasharray=""/><path fill="rgb(31,119,180)" stroke="rgb(31,119,180)" paint-order="fill" d="M 100.88694763183594 187.7812957763672 A 2 2 0 1 1 100.88694663183603 187.7792957767005" fill-opacity="1" clip-path="url(#GTMzFsMUTolL)" stroke-opacity="1" stroke-linejoin="bevel" stroke-miterlimit="10" stroke-dasharray=""/><path fill="rgb(31,119,180)" stroke="rgb(31,119,180)" paint-order="fill" d="M 70.25091552734375 198.60574340820312 A 2 2 0 1 1 70.25091452734384 198.60374340853645" fill-opacity="1" clip-path="url(#GTMzFsMUTolL)" stroke-opacity="1" stroke-linejoin="bevel" stroke-miterlimit="10" stroke-dasharray=""/><path fill="rgb(31,119,180)" stroke="rgb(31,119,180)" paint-order="fill" d="M 66.25491333007812 210.82229614257812 A 2 2 0 1 1 66.25491233007821 210.82029614291145" fill-opacity="1" clip-path="url(#GTMzFsMUTolL)" stroke-opacity="1" stroke-linejoin="bevel" stroke-miterlimit="10" stroke-dasharray=""/><path fill="rgb(31,119,180)" stroke="rgb(31,119,180)" paint-order="fill" d="M 64.92290878295898 212.1747589111328 A 2 2 0 1 1 64.92290778295907 212.17275891146613" fill-opacity="1" clip-path="url(#GTMzFsMUTolL)" stroke-opacity="1" stroke-linejoin="bevel" stroke-miterlimit="10" stroke-dasharray=""/><path fill="rgb(31,119,180)" stroke="rgb(31,119,180)" paint-order="fill" d="M 98.88894653320312 180.1960906982422 A 2 2 0 1 1 98.88894553320321 180.1940906985755" fill-opacity="1" clip-path="url(#GTMzFsMUTolL)" stroke-opacity="1" stroke-linejoin="bevel" stroke-miterlimit="10" stroke-dasharray=""/><path fill="rgb(31,119,180)" stroke="rgb(31,119,180)" paint-order="fill" d="M 131.52297973632812 144.2012481689453 A 2 2 0 1 1 131.5229787363282 144.19924816927863" fill-opacity="1" clip-path="url(#GTMzFsMUTolL)" stroke-opacity="1" stroke-linejoin="bevel" stroke-miterlimit="10" stroke-dasharray=""/><path fill="rgb(31,119,180)" stroke="rgb(31,119,180)" paint-order="fill" d="M 68.91891479492188 203.29576110839844 A 2 2 0 1 1 68.91891379492196 203.29376110873176" fill-opacity="1" clip-path="url(#GTMzFsMUTolL)" stroke-opacity="1" stroke-linejoin="bevel" stroke-miterlimit="10" stroke-dasharray=""/><path fill="rgb(31,119,180)" stroke="rgb(31,119,180)" paint-order="fill" d="M 72.9149169921875 181.080810546875 A 2 2 0 1 1 72.91491599218759 181.07881054720832" fill-opacity="1" clip-path="url(#GTMzFsMUTolL)" stroke-opacity="1" stroke-linejoin="bevel" stroke-miterlimit="10" stroke-dasharray=""/><path fill="rgb(31,119,180)" stroke="rgb(31,119,180)" paint-order="fill" d="M 161.49301147460938 110.09319305419922 A 2 2 0 1 1 161.49301047460946 110.09119305453255" fill-opacity="1" clip-path="url(#GTMzFsMUTolL)" stroke-opacity="1" stroke-linejoin="bevel" stroke-miterlimit="10" stroke-dasharray=""/><path fill="rgb(31,119,180)" stroke="rgb(31,119,180)" paint-order="fill" d="M 76.24491882324219 205.97056579589844 A 2 2 0 1 1 76.24491782324228 205.96856579623176" fill-opacity="1" clip-path="url(#GTMzFsMUTolL)" stroke-opacity="1" stroke-linejoin="bevel" stroke-miterlimit="10" stroke-dasharray=""/><path fill="rgb(31,119,180)" stroke="rgb(31,119,180)" paint-order="fill" d="M 72.9149169921875 213.83323669433594 A 2 2 0 1 1 72.91491599218759 213.83123669466926" fill-opacity="1" clip-path="url(#GTMzFsMUTolL)" stroke-opacity="1" stroke-linejoin="bevel" stroke-miterlimit="10" stroke-dasharray=""/><path fill="rgb(31,119,180)" stroke="rgb(31,119,180)" paint-order="fill" d="M 64.92290878295898 200.2420196533203 A 2 2 0 1 1 64.92290778295907 200.24001965365363" fill-opacity="1" clip-path="url(#GTMzFsMUTolL)" stroke-opacity="1" stroke-linejoin="bevel" stroke-miterlimit="10" stroke-dasharray=""/><path fill="rgb(31,119,180)" stroke="rgb(31,119,180)" paint-order="fill" d="M 67.5869140625 214.76870727539062 A 2 2 0 1 1 67.58691306250009 214.76670727572395" fill-opacity="1" clip-path="url(#GTMzFsMUTolL)" stroke-opacity="1" stroke-linejoin="bevel" stroke-miterlimit="10" stroke-dasharray=""/><path fill="rgb(31,119,180)" stroke="rgb(31,119,180)" paint-order="fill" d="M 101.55294799804688 174.41839599609375 A 2 2 0 1 1 101.55294699804696 174.41639599642707" fill-opacity="1" clip-path="url(#GTMzFsMUTolL)" stroke-opacity="1" stroke-linejoin="bevel" stroke-miterlimit="10" stroke-dasharray=""/><path fill="rgb(31,119,180)" stroke="rgb(31,119,180)" paint-order="fill" d="M 102.88494873046875 174.51510620117188 A 2 2 0 1 1 102.88494773046884 174.5131062015052" fill-opacity="1" clip-path="url(#GTMzFsMUTolL)" stroke-opacity="1" stroke-linejoin="bevel" stroke-miterlimit="10" stroke-dasharray=""/><path fill="rgb(31,119,180)" stroke="rgb(31,119,180)" paint-order="fill" d="M 88.2329330444336 194.8987579345703 A 2 2 0 1 1 88.23293204443368 194.89675793490363" fill-opacity="1" clip-path="url(#GTMzFsMUTolL)" stroke-opacity="1" stroke-linejoin="bevel" stroke-miterlimit="10" stroke-dasharray=""/><path fill="rgb(31,119,180)" stroke="rgb(31,119,180)" paint-order="fill" d="M 63.59090805053711 205.81675720214844 A 2 2 0 1 1 63.59090705053719 205.81475720248176" fill-opacity="1" clip-path="url(#GTMzFsMUTolL)" stroke-opacity="1" stroke-linejoin="bevel" stroke-miterlimit="10" stroke-dasharray=""/><path fill="rgb(31,119,180)" stroke="rgb(31,119,180)" paint-order="fill" d="M 150.17098999023438 128.9230194091797 A 2 2 0 1 1 150.17098899023446 128.921019409513" fill-opacity="1" clip-path="url(#GTMzFsMUTolL)" stroke-opacity="1" stroke-linejoin="bevel" stroke-miterlimit="10" stroke-dasharray=""/><path fill="rgb(31,119,180)" stroke="rgb(31,119,180)" paint-order="fill" d="M 78.90892791748047 211.7942352294922 A 2 2 0 1 1 78.90892691748056 211.7922352298255" fill-opacity="1" clip-path="url(#GTMzFsMUTolL)" stroke-opacity="1" stroke-linejoin="bevel" stroke-miterlimit="10" stroke-dasharray=""/><path fill="rgb(31,119,180)" stroke="rgb(31,119,180)" paint-order="fill" d="M 96.22494506835938 180.28329467773438 A 2 2 0 1 1 96.22494406835946 180.2812946780677" fill-opacity="1" clip-path="url(#GTMzFsMUTolL)" stroke-opacity="1" stroke-linejoin="bevel" stroke-miterlimit="10" stroke-dasharray=""/><path fill="rgb(31,119,180)" stroke="rgb(31,119,180)" paint-order="fill" d="M 63.59090805053711 218.40908813476562 A 2 2 0 1 1 63.59090705053719 218.40708813509895" fill-opacity="1" clip-path="url(#GTMzFsMUTolL)" stroke-opacity="1" stroke-linejoin="bevel" stroke-miterlimit="10" stroke-dasharray=""/><path fill="rgb(31,119,180)" stroke="rgb(31,119,180)" paint-order="fill" d="M 131.52297973632812 119.9568099975586 A 2 2 0 1 1 131.5229787363282 119.95480999789193" fill-opacity="1" clip-path="url(#GTMzFsMUTolL)" stroke-opacity="1" stroke-linejoin="bevel" stroke-miterlimit="10" stroke-dasharray=""/><path fill="rgb(31,119,180)" stroke="rgb(31,119,180)" paint-order="fill" d="M 68.91891479492188 201.80059814453125 A 2 2 0 1 1 68.91891379492196 201.79859814486457" fill-opacity="1" clip-path="url(#GTMzFsMUTolL)" stroke-opacity="1" stroke-linejoin="bevel" stroke-miterlimit="10" stroke-dasharray=""/><path fill="none" stroke="rgb(0,0,0)" paint-order="fill" d="M 52.5 227.5 L 252.5 227.5" stroke-opacity="1" stroke-linejoin="bevel" stroke-miterlimit="10" stroke-dasharray=""/><path fill="none" stroke="rgb(0,0,0)" paint-order="fill" d="M 61.5 233.5 L 61.5 225.5 M 94.5 233.5 L 94.5 225.5 M 128.5 233.5 L 128.5 225.5 M 161.5 233.5 L 161.5 225.5 M 194.5 233.5 L 194.5 225.5 M 228.5 233.5 L 228.5 225.5" stroke-opacity="1" stroke-linejoin="bevel" stroke-miterlimit="10" stroke-dasharray=""/><path fill="none" stroke="rgb(0,0,0)" paint-order="fill" d="M 54.5 231.5 L 54.5 227.5 M 61.5 231.5 L 61.5 227.5 M 68.5 231.5 L 68.5 227.5 M 74.5 231.5 L 74.5 227.5 M 81.5 231.5 L 81.5 227.5 M 88.5 231.5 L 88.5 227.5 M 94.5 231.5 L 94.5 227.5 M 101.5 231.5 L 101.5 227.5 M 108.5 231.5 L 108.5 227.5 M 114.5 231.5 L 114.5 227.5 M 121.5 231.5 L 121.5 227.5 M 128.5 231.5 L 128.5 227.5 M 134.5 231.5 L 134.5 227.5 M 141.5 231.5 L 141.5 227.5 M 148.5 231.5 L 148.5 227.5 M 154.5 231.5 L 154.5 227.5 M 161.5 231.5 L 161.5 227.5 M 168.5 231.5 L 168.5 227.5 M 174.5 231.5 L 174.5 227.5 M 181.5 231.5 L 181.5 227.5 M 188.5 231.5 L 188.5 227.5 M 194.5 231.5 L 194.5 227.5 M 201.5 231.5 L 201.5 227.5 M 208.5 231.5 L 208.5 227.5 M 214.5 231.5 L 214.5 227.5 M 221.5 231.5 L 221.5 227.5 M 228.5 231.5 L 228.5 227.5 M 234.5 231.5 L 234.5 227.5 M 241.5 231.5 L 241.5 227.5 M 248.5 231.5 L 248.5 227.5" stroke-opacity="1" stroke-linejoin="bevel" stroke-miterlimit="10" stroke-dasharray=""/><text fill="rgb(68,68,68)" stroke="none" font-family="helvetica" font-size="11px" font-style="normal" font-weight="normal" text-decoration="normal" x="58.03207015991211" y="245.89013671875" text-anchor="start" dominant-baseline="alphabetic" transform="matrix(1, 0, 0, 1, 0.5, 0.5)" fill-opacity="1">0</text><text fill="rgb(68,68,68)" stroke="none" font-family="helvetica" font-size="11px" font-style="normal" font-weight="normal" text-decoration="normal" x="86.74519348144531" y="245.89013671875" text-anchor="start" dominant-baseline="alphabetic" transform="matrix(1, 0, 0, 1, 0.5, 0.5)" fill-opacity="1">0.5</text><text fill="rgb(68,68,68)" stroke="none" font-family="helvetica" font-size="11px" font-style="normal" font-weight="normal" text-decoration="normal" x="124.63214111328125" y="245.89013671875" text-anchor="start" dominant-baseline="alphabetic" transform="matrix(1, 0, 0, 1, 0.5, 0.5)" fill-opacity="1">1</text><text fill="rgb(68,68,68)" stroke="none" font-family="helvetica" font-size="11px" font-style="normal" font-weight="normal" text-decoration="normal" x="153.3452606201172" y="245.89013671875" text-anchor="start" dominant-baseline="alphabetic" transform="matrix(1, 0, 0, 1, 0.5, 0.5)" fill-opacity="1">1.5</text><text fill="rgb(68,68,68)" stroke="none" font-family="helvetica" font-size="11px" font-style="normal" font-weight="normal" text-decoration="normal" x="191.23220825195312" y="245.89013671875" text-anchor="start" dominant-baseline="alphabetic" transform="matrix(1, 0, 0, 1, 0.5, 0.5)" fill-opacity="1">2</text><text fill="rgb(68,68,68)" stroke="none" font-family="helvetica" font-size="11px" font-style="normal" font-weight="normal" text-decoration="normal" x="219.94532775878906" y="245.89013671875" text-anchor="start" dominant-baseline="alphabetic" transform="matrix(1, 0, 0, 1, 0.5, 0.5)" fill-opacity="1">2.5</text><text fill="rgb(68,68,68)" stroke="none" font-family="helvetica" font-size="13px" font-style="italic" font-weight="normal" text-decoration="normal" x="123.819580078125" y="265.89013671875" text-anchor="start" dominant-baseline="alphabetic" transform="matrix(1, 0, 0, 1, 0.5, 0.5)" fill-opacity="1">Observed</text><path fill="none" stroke="rgb(0,0,0)" paint-order="fill" d="M 52.5 227.5 L 52.5 27.5" stroke-opacity="1" stroke-linejoin="bevel" stroke-miterlimit="10" stroke-dasharray=""/><path fill="none" stroke="rgb(0,0,0)" paint-order="fill" d="M 46.5 226.5 L 54.5 226.5 M 46.5 186.5 L 54.5 186.5 M 46.5 146.5 L 54.5 146.5 M 46.5 107.5 L 54.5 107.5 M 46.5 67.5 L 54.5 67.5 M 46.5 28.5 L 54.5 28.5" stroke-opacity="1" stroke-linejoin="bevel" stroke-miterlimit="10" stroke-dasharray=""/><path fill="none" stroke="rgb(0,0,0)" paint-order="fill" d="M 48.5 226.5 L 52.5 226.5 M 48.5 218.5 L 52.5 218.5 M 48.5 210.5 L 52.5 210.5 M 48.5 202.5 L 52.5 202.5 M 48.5 194.5 L 52.5 194.5 M 48.5 186.5 L 52.5 186.5 M 48.5 178.5 L 52.5 178.5 M 48.5 170.5 L 52.5 170.5 M 48.5 162.5 L 52.5 162.5 M 48.5 154.5 L 52.5 154.5 M 48.5 146.5 L 52.5 146.5 M 48.5 139.5 L 52.5 139.5 M 48.5 131.5 L 52.5 131.5 M 48.5 123.5 L 52.5 123.5 M 48.5 115.5 L 52.5 115.5 M 48.5 107.5 L 52.5 107.5 M 48.5 99.5 L 52.5 99.5 M 48.5 91.5 L 52.5 91.5 M 48.5 83.5 L 52.5 83.5 M 48.5 75.5 L 52.5 75.5 M 48.5 67.5 L 52.5 67.5 M 48.5 59.5 L 52.5 59.5 M 48.5 51.5 L 52.5 51.5 M 48.5 43.5 L 52.5 43.5 M 48.5 35.5 L 52.5 35.5 M 48.5 28.5 L 52.5 28.5" stroke-opacity="1" stroke-linejoin="bevel" stroke-miterlimit="10" stroke-dasharray=""/><text fill="rgb(68,68,68)" stroke="none" font-family="helvetica" font-size="11px" font-style="normal" font-weight="normal" text-decoration="normal" x="34.88232421875" y="229.6772003173828" text-anchor="start" dominant-baseline="alphabetic" transform="matrix(1, 0, 0, 1, 0.5, 0.5)" fill-opacity="1">0</text><text fill="rgb(68,68,68)" stroke="none" font-family="helvetica" font-size="11px" font-style="normal" font-weight="normal" text-decoration="normal" x="25.70849609375" y="190.03878784179688" text-anchor="start" dominant-baseline="alphabetic" transform="matrix(1, 0, 0, 1, 0.5, 0.5)" fill-opacity="1">0.5</text><text fill="rgb(68,68,68)" stroke="none" font-family="helvetica" font-size="11px" font-style="normal" font-weight="normal" text-decoration="normal" x="34.88232421875" y="150.400390625" text-anchor="start" dominant-baseline="alphabetic" transform="matrix(1, 0, 0, 1, 0.5, 0.5)" fill-opacity="1">1</text><text fill="rgb(68,68,68)" stroke="none" font-family="helvetica" font-size="11px" font-style="normal" font-weight="normal" text-decoration="normal" x="25.70849609375" y="110.7619857788086" text-anchor="start" dominant-baseline="alphabetic" transform="matrix(1, 0, 0, 1, 0.5, 0.5)" fill-opacity="1">1.5</text><text fill="rgb(68,68,68)" stroke="none" font-family="helvetica" font-size="11px" font-style="normal" font-weight="normal" text-decoration="normal" x="34.88232421875" y="71.12358093261719" text-anchor="start" dominant-baseline="alphabetic" transform="matrix(1, 0, 0, 1, 0.5, 0.5)" fill-opacity="1">2</text><text fill="rgb(68,68,68)" stroke="none" font-family="helvetica" font-size="11px" font-style="normal" font-weight="normal" text-decoration="normal" x="25.70849609375" y="31.48518180847168" text-anchor="start" dominant-baseline="alphabetic" transform="matrix(1, 0, 0, 1, 0.5, 0.5)" fill-opacity="1">2.5</text><text fill="rgb(68,68,68)" stroke="none" font-family="helvetica" font-size="13px" font-style="italic" font-weight="normal" text-decoration="normal" x="-9.75146484375" y="124" text-anchor="start" dominant-baseline="alphabetic" transform="matrix(6.123233995736766e-17, -1, 1, 6.123233995736766e-17, -108.79150390625, 145.20849609375)" fill-opacity="1">Predicted</text><path fill="none" stroke="rgb(255,140,0)" paint-order="fill" d="M 228.54482184482202 27.5 L 60.525774225774214 227.5" stroke-opacity="1" stroke-linejoin="bevel" stroke-miterlimit="10" stroke-width="2" stroke-dasharray="" clip-path="url(#TPaVXeJdTOXa)"/><path fill="none" stroke="none"/><text fill="rgb(68,68,68)" stroke="none" font-family="helvetica" font-size="13px" font-style="normal" font-weight="bold" text-decoration="normal" x="0" y="0" text-anchor="start" dominant-baseline="text-after-edge" transform="matrix(1, 0, 0, 1, 52.5, 22.5)" fill-opacity="1">PO4 (µmol/L), &lt;R²&gt; = 0.71</text></svg>