<svg version="1.1" xmlns="http://www.w3.org/2000/svg" xmlns:xlink="http://www.w3.org/1999/xlink" width="267" height="272"><defs><clipPath id="LGeHvRmbHZkA"><path fill="none" stroke="none" d="M 62.5 27.5 L 262.5 27.5 L 262.5 227.5 L 62.5 227.5 L 62.5 27.5"/></clipPath><clipPath id="xdTZdWlQlOEN"><path fill="none" stroke="none" d="M 62.5 27.5 L 262.5 27.5 L 262.5 227.5 L 62.5 227.5 L 62.5 27.5"/></clipPath><clipPath id="rexiLTCItKqW"><path fill="none" stroke="none" d="M 62.5 27.5 L 262.5 27.5 L 262.5 227.5 L 62.5 227.5 L 62.5 27.5"/></clipPath><clipPath id="ieTiKDtUUcZH"><path fill="none" stroke="none" d="M 62.5 27.5 L 262.5 27.5 L 262.5 227.5 L 62.5 227.5 L 62.5 27.5"/></clipPath><clipPath id="DKVlUPWfORkE"><path fill="none" stroke="none" d="M 62.5 27.5 L 262.5 27.5 L 262.5 227.5 L 62.5 227.5 L 62.5 27.5"/></clipPath></defs><path fill="none" stroke="rgb(229,229,229)" paint-order="fill" d="M 62.5 27.5 L 262.5 27.5 L 262.5 227.5 L 62.5 227.5 L 62.5 27.5" stroke-opacity="1" stroke-linejoin="bevel" stroke-miterlimit="10" stroke-dasharray=""/><path fill="none" stroke="rgb(229,229,229)" paint-order="fill" d="M 78.5 227.5 L 78.5 27.5 M 117.5 227.5 L 117.5 27.5 M 156.5 227.5 L 156.5 27.5 M 195.5 227.5 L 195.5 27.5 M 234.5 227.5 L 234.5 27.5" stroke-opacity="1" stroke-linejoin="bevel" stroke-miterlimit="10" stroke-dasharray="" clip-path="url(#LGeHvRmbHZkA)"/><path fill="none" stroke="rgb(229,229,229)" paint-order="fill" d="M 62.5 220.5 L 262.5 220.5 M 62.5 196.5 L 262.5 196.5 M 62.5 172.5 L 262.5 172.5 M 62.5 149.5 L 262.5 149.5 M 62.5 125.5 L 262.5 125.5 M 62.5 101.5 L 262.5 101.5 M 62.5 78.5 L 262.5 78.5 M 62.5 54.5 L 262.5 54.5 M 62.5 30.5 L 262.5 30.5" stroke-opacity="1" stroke-linejoin="bevel" stroke-miterlimit="10" stroke-dasharray="" clip-path="url(#xdTZdWlQlOEN)"/><path fill="none" stroke="none"/><path fill="rgb(31,119,180)" stroke="rgb(31,119,180)" paint-order="fill" d="M 119.14693450927734 167.81617736816406 A 2 2 0 1 1 119.14693350927743 167.81417736849738" fill-opacity="1" clip-path="url(#rexiLTCItKqW)" stroke-opacity="1" stroke-linejoin="bevel" stroke-miterlimit="10" stroke-dasharray=""/><path fill="rgb(31,119,180)" stroke="rgb(31,119,180)" paint-order="fill" d="M 96.60310363769531 208.36070251464844 A 2 2 0 1 1 96.6031026376954 208.35870251498176" fill-opacity="1" clip-path="url(#rexiLTCItKqW)" stroke-opacity="1" stroke-linejoin="bevel" stroke-miterlimit="10" stroke-dasharray=""/><path fill="rgb(31,119,180)" stroke="rgb(31,119,180)" paint-order="fill" d="M 248.1260528564453 143.5614776611328 A 2 2 0 1 1 248.1260518564454 143.55947766146613" fill-opacity="1" clip-path="url(#rexiLTCItKqW)" stroke-opacity="1" stroke-linejoin="bevel" stroke-miterlimit="10" stroke-dasharray=""/><path fill="rgb(31,119,180)" stroke="rgb(31,119,180)" paint-order="fill" d="M 77.75933074951172 218.40908813476562 A 2 2 0 1 1 77.7593297495118 218.40708813509895" fill-opacity="1" clip-path="url(#rexiLTCItKqW)" stroke-opacity="1" stroke-linejoin="bevel" stroke-miterlimit="10" stroke-dasharray=""/><path fill="rgb(31,119,180)" stroke="rgb(31,119,180)" paint-order="fill" d="M 135.82061767578125 166.12677001953125 A 2 2 0 1 1 135.82061667578134 166.12477001986457" fill-opacity="1" clip-path="url(#rexiLTCItKqW)" stroke-opacity="1" stroke-linejoin="bevel" stroke-miterlimit="10" stroke-dasharray=""/><path fill="rgb(31,119,180)" stroke="rgb(31,119,180)" paint-order="fill" d="M 115.92304229736328 202.51255798339844 A 2 2 0 1 1 115.92304129736337 202.51055798373176" fill-opacity="1" clip-path="url(#rexiLTCItKqW)" stroke-opacity="1" stroke-linejoin="bevel" stroke-miterlimit="10" stroke-dasharray=""/><path fill="rgb(31,119,180)" stroke="rgb(31,119,180)" paint-order="fill" d="M 106.65727233886719 159.36508178710938 A 2 2 0 1 1 106.65727133886728 159.3630817874427" fill-opacity="1" clip-path="url(#rexiLTCItKqW)" stroke-opacity="1" stroke-linejoin="bevel" stroke-miterlimit="10" stroke-dasharray=""/><path fill="rgb(31,119,180)" stroke="rgb(31,119,180)" paint-order="fill" d="M 252.34912109375 36.59090805053711 A 2 2 0 1 1 252.3491200937501 36.588908050870444" fill-opacity="1" clip-path="url(#rexiLTCItKqW)" stroke-opacity="1" stroke-linejoin="bevel" stroke-miterlimit="10" stroke-dasharray=""/><path fill="rgb(31,119,180)" stroke="rgb(31,119,180)" paint-order="fill" d="M 247.2908172607422 67.4488296508789 A 2 2 0 1 1 247.29081626074228 67.44682965121224" fill-opacity="1" clip-path="url(#rexiLTCItKqW)" stroke-opacity="1" stroke-linejoin="bevel" stroke-miterlimit="10" stroke-dasharray=""/><path fill="rgb(31,119,180)" stroke="rgb(31,119,180)" paint-order="fill" d="M 140.69940185546875 158.44711303710938 A 2 2 0 1 1 140.69940085546884 158.4451130374427" fill-opacity="1" clip-path="url(#rexiLTCItKqW)" stroke-opacity="1" stroke-linejoin="bevel" stroke-miterlimit="10" stroke-dasharray=""/><path fill="rgb(31,119,180)" stroke="rgb(31,119,180)" paint-order="fill" d="M 128.7327423095703 197.7913055419922 A 2 2 0 1 1 128.7327413095704 197.7893055423255" fill-opacity="1" clip-path="url(#rexiLTCItKqW)" stroke-opacity="1" stroke-linejoin="bevel" stroke-miterlimit="10" stroke-dasharray=""/><path fill="rgb(31,119,180)" stroke="rgb(31,119,180)" paint-order="fill" d="M 117.26567840576172 121.69105529785156 A 2 2 0 1 1 117.2656774057618 121.6890552981849" fill-opacity="1" clip-path="url(#rexiLTCItKqW)" stroke-opacity="1" stroke-linejoin="bevel" stroke-miterlimit="10" stroke-dasharray=""/><path fill="rgb(31,119,180)" stroke="rgb(31,119,180)" paint-order="fill" d="M 248.1650848388672 62.33280944824219 A 2 2 0 1 1 248.16508383886728 62.33080944857552" fill-opacity="1" clip-path="url(#rexiLTCItKqW)" stroke-opacity="1" stroke-linejoin="bevel" stroke-miterlimit="10" stroke-dasharray=""/><path fill="rgb(31,119,180)" stroke="rgb(31,119,180)" paint-order="fill" d="M 117.33592987060547 181.02920532226562 A 2 2 0 1 1 117.33592887060556 181.02720532259895" fill-opacity="1" clip-path="url(#rexiLTCItKqW)" stroke-opacity="1" stroke-linejoin="bevel" stroke-miterlimit="10" stroke-dasharray=""/><path fill="rgb(31,119,180)" stroke="rgb(31,119,180)" paint-order="fill" d="M 73.59091186523438 179.75941467285156 A 2 2 0 1 1 73.59091086523446 179.75741467318488" fill-opacity="1" clip-path="url(#rexiLTCItKqW)" stroke-opacity="1" stroke-linejoin="bevel" stroke-miterlimit="10" stroke-dasharray=""/><path fill="rgb(31,119,180)" stroke="rgb(31,119,180)" paint-order="fill" d="M 163.9613800048828 159.3111114501953 A 2 2 0 1 1 163.9613790048829 159.30911145052863" fill-opacity="1" clip-path="url(#rexiLTCItKqW)" stroke-opacity="1" stroke-linejoin="bevel" stroke-miterlimit="10" stroke-dasharray=""/><path fill="rgb(31,119,180)" stroke="rgb(31,119,180)" paint-order="fill" d="M 212.85838317871094 99.61270141601562 A 2 2 0 1 1 212.85838217871103 99.61070141634896" fill-opacity="1" clip-path="url(#rexiLTCItKqW)" stroke-opacity="1" stroke-linejoin="bevel" stroke-miterlimit="10" stroke-dasharray=""/><path fill="rgb(31,119,180)" stroke="rgb(31,119,180)" paint-order="fill" d="M 202.2968292236328 172.3137664794922 A 2 2 0 1 1 202.2968282236329 172.3117664798255" fill-opacity="1" clip-path="url(#rexiLTCItKqW)" stroke-opacity="1" stroke-linejoin="bevel" stroke-miterlimit="10" stroke-dasharray=""/><path fill="rgb(31,119,180)" stroke="rgb(31,119,180)" paint-order="fill" d="M 255.40908813476562 100.4727783203125 A 2 2 0 1 1 255.4090871347657 100.47077832064583" fill-opacity="1" clip-path="url(#rexiLTCItKqW)" stroke-opacity="1" stroke-linejoin="bevel" stroke-miterlimit="10" stroke-dasharray=""/><path fill="rgb(31,119,180)" stroke="rgb(31,119,180)" paint-order="fill" d="M 228.60316467285156 151.97813415527344 A 2 2 0 1 1 228.60316367285165 151.97613415560676" fill-opacity="1" clip-path="url(#rexiLTCItKqW)" stroke-opacity="1" stroke-linejoin="bevel" stroke-miterlimit="10" stroke-dasharray=""/><path fill="rgb(31,119,180)" stroke="rgb(31,119,180)" paint-order="fill" d="M 192.5939178466797 154.46177673339844 A 2 2 0 1 1 192.59391684667978 154.45977673373176" fill-opacity="1" clip-path="url(#rexiLTCItKqW)" stroke-opacity="1" stroke-linejoin="bevel" stroke-miterlimit="10" stroke-dasharray=""/><path fill="none" stroke="rgb(0,0,0)" paint-order="fill" d="M 62.5 227.5 L 262.5 227.5" stroke-opacity="1" stroke-linejoin="bevel" stroke-miterlimit="10" stroke-dasharray=""/><path fill="none" stroke="rgb(0,0,0)" paint-order="fill" d="M 78.5 233.5 L 78.5 225.5 M 117.5 233.5 L 117.5 225.5 M 156.5 233.5 L 156.5 225.5 M 195.5 233.5 L 195.5 225.5 M 234.5 233.5 L 234.5 225.5" stroke-opacity="1" stroke-linejoin="bevel" stroke-miterlimit="10" stroke-dasharray=""/><path fill="none" stroke="rgb(0,0,0)" paint-order="fill" d="M 70.5 231.5 L 70.5 227.5 M 63.5 231.5 L 63.5 227.5 M 78.5 231.5 L 78.5 227.5 M 86.5 231.5 L 86.5 227.5 M 94.5 231.5 L 94.5 227.5 M 102.5 231.5 L 102.5 227.5 M 109.5 231.5 L 109.5 227.5 M 117.5 231.5 L 117.5 227.5 M 125.5 231.5 L 125.5 227.5 M 133.5 231.5 L 133.5 227.5 M 141.5 231.5 L 141.5 227.5 M 148.5 231.5 L 148.5 227.5 M 156.5 231.5 L 156.5 227.5 M 164.5 231.5 L 164.5 227.5 M 172.5 231.5 L 172.5 227.5 M 180.5 231.5 L 180.5 227.5 M 187.5 231.5 L 187.5 227.5 M 195.5 231.5 L 195.5 227.5 M 203.5 231.5 L 203.5 227.5 M 211.5 231.5 L 211.5 227.5 M 219.5 231.5 L 219.5 227.5 M 226.5 231.5 L 226.5 227.5 M 234.5 231.5 L 234.5 227.5 M 242.5 231.5 L 242.5 227.5 M 250.5 231.5 L 250.5 227.5 M 258.5 231.5 L 258.5 227.5" stroke-opacity="1" stroke-linejoin="bevel" stroke-miterlimit="10" stroke-dasharray=""/><text fill="rgb(68,68,68)" stroke="none" font-family="helvetica" font-size="11px" font-style="normal" font-weight="normal" text-decoration="normal" x="65.74352264404297" y="245.89013671875" text-anchor="start" dominant-baseline="alphabetic" transform="matrix(1, 0, 0, 1, 0.5, 0.5)" fill-opacity="1">−150</text><text fill="rgb(68,68,68)" stroke="none" font-family="helvetica" font-size="11px" font-style="normal" font-weight="normal" text-decoration="normal" x="104.7737045288086" y="245.89013671875" text-anchor="start" dominant-baseline="alphabetic" transform="matrix(1, 0, 0, 1, 0.5, 0.5)" fill-opacity="1">−100</text><text fill="rgb(68,68,68)" stroke="none" font-family="helvetica" font-size="11px" font-style="normal" font-weight="normal" text-decoration="normal" x="146.8627166748047" y="245.89013671875" text-anchor="start" dominant-baseline="alphabetic" transform="matrix(1, 0, 0, 1, 0.5, 0.5)" fill-opacity="1">−50</text><text fill="rgb(68,68,68)" stroke="none" font-family="helvetica" font-size="11px" font-style="normal" font-weight="normal" text-decoration="normal" x="192.1636505126953" y="245.89013671875" text-anchor="start" dominant-baseline="alphabetic" transform="matrix(1, 0, 0, 1, 0.5, 0.5)" fill-opacity="1">0</text><text fill="rgb(68,68,68)" stroke="none" font-family="helvetica" font-size="11px" font-style="normal" font-weight="normal" text-decoration="normal" x="228.13499450683594" y="245.89013671875" text-anchor="start" dominant-baseline="alphabetic" transform="matrix(1, 0, 0, 1, 0.5, 0.5)" fill-opacity="1">50</text><text fill="rgb(68,68,68)" stroke="none" font-family="helvetica" font-size="13px" font-style="italic" font-weight="normal" text-decoration="normal" x="133.819580078125" y="265.89013671875" text-anchor="start" dominant-baseline="alphabetic" transform="matrix(1, 0, 0, 1, 0.5, 0.5)" fill-opacity="1">Observed</text><path fill="none" stroke="rgb(0,0,0)" paint-order="fill" d="M 62.5 227.5 L 62.5 27.5" stroke-opacity="1" stroke-linejoin="bevel" stroke-miterlimit="10" stroke-dasharray=""/><path fill="none" stroke="rgb(0,0,0)" paint-order="fill" d="M 56.5 220.5 L 64.5 220.5 M 56.5 196.5 L 64.5 196.5 M 56.5 172.5 L 64.5 172.5 M 56.5 149.5 L 64.5 149.5 M 56.5 125.5 L 64.5 125.5 M 56.5 101.5 L 64.5 101.5 M 56.5 78.5 L 64.5 78.5 M 56.5 54.5 L 64.5 54.5 M 56.5 30.5 L 64.5 30.5" stroke-opacity="1" stroke-linejoin="bevel" stroke-miterlimit="10" stroke-dasharray=""/><path fill="none" stroke="rgb(0,0,0)" paint-order="fill" d="M 58.5 225.5 L 62.5 225.5 M 58.5 220.5 L 62.5 220.5 M 58.5 215.5 L 62.5 215.5 M 58.5 210.5 L 62.5 210.5 M 58.5 206.5 L 62.5 206.5 M 58.5 201.5 L 62.5 201.5 M 58.5 196.5 L 62.5 196.5 M 58.5 191.5 L 62.5 191.5 M 58.5 187.5 L 62.5 187.5 M 58.5 182.5 L 62.5 182.5 M 58.5 177.5 L 62.5 177.5 M 58.5 172.5 L 62.5 172.5 M 58.5 168.5 L 62.5 168.5 M 58.5 163.5 L 62.5 163.5 M 58.5 158.5 L 62.5 158.5 M 58.5 154.5 L 62.5 154.5 M 58.5 149.5 L 62.5 149.5 M 58.5 144.5 L 62.5 144.5 M 58.5 139.5 L 62.5 139.5 M 58.5 135.5 L 62.5 135.5 M 58.5 130.5 L 62.5 130.5 M 58.5 125.5 L 62.5 125.5 M 58.5 120.5 L 62.5 120.5 M 58.5 116.5 L 62.5 116.5 M 58.5 111.5 L 62.5 111.5 M 58.5 106.5 L 62.5 106.5 M 58.5 101.5 L 62.5 101.5 M 58.5 97.5 L 62.5 97.5 M 58.5 92.5 L 62.5 92.5 M 58.5 87.5 L 62.5 87.5 M 58.5 83.5 L 62.5 83.5 M 58.5 78.5 L 62.5 78.5 M 58.5 73.5 L 62.5 73.5 M 58.5 68.5 L 62.5 68.5 M 58.5 64.5 L 62.5 64.5 M 58.5 59.5 L 62.5 59.5 M 58.5 54.5 L 62.5 54.5 M 58.5 49.5 L 62.5 49.5 M 58.5 45.5 L 62.5 45.5 M 58.5 40.5 L 62.5 40.5 M 58.5 35.5 L 62.5 35.5 M 58.5 30.5 L 62.5 30.5" stroke-opacity="1" stroke-linejoin="bevel" stroke-miterlimit="10" stroke-dasharray=""/><text fill="rgb(68,68,68)" stroke="none" font-family="helvetica" font-size="11px" font-style="normal" font-weight="normal" text-decoration="normal" x="26.22314453125" y="223.72711181640625" text-anchor="start" dominant-baseline="alphabetic" transform="matrix(1, 0, 0, 1, 0.5, 0.5)" fill-opacity="1">−100</text><text fill="rgb(68,68,68)" stroke="none" font-family="helvetica" font-size="11px" font-style="normal" font-weight="normal" text-decoration="normal" x="32.3408203125" y="200.06614685058594" text-anchor="start" dominant-baseline="alphabetic" transform="matrix(1, 0, 0, 1, 0.5, 0.5)" fill-opacity="1">−80</text><text fill="rgb(68,68,68)" stroke="none" font-family="helvetica" font-size="11px" font-style="normal" font-weight="normal" text-decoration="normal" x="32.3408203125" y="176.40518188476562" text-anchor="start" dominant-baseline="alphabetic" transform="matrix(1, 0, 0, 1, 0.5, 0.5)" fill-opacity="1">−60</text><text fill="rgb(68,68,68)" stroke="none" font-family="helvetica" font-size="11px" font-style="normal" font-weight="normal" text-decoration="normal" x="32.3408203125" y="152.7442169189453" text-anchor="start" dominant-baseline="alphabetic" transform="matrix(1, 0, 0, 1, 0.5, 0.5)" fill-opacity="1">−40</text><text fill="rgb(68,68,68)" stroke="none" font-family="helvetica" font-size="11px" font-style="normal" font-weight="normal" text-decoration="normal" x="32.3408203125" y="129.08324432373047" text-anchor="start" dominant-baseline="alphabetic" transform="matrix(1, 0, 0, 1, 0.5, 0.5)" fill-opacity="1">−20</text><text fill="rgb(68,68,68)" stroke="none" font-family="helvetica" font-size="11px" font-style="normal" font-weight="normal" text-decoration="normal" x="44.88232421875" y="105.42227935791016" text-anchor="start" dominant-baseline="alphabetic" transform="matrix(1, 0, 0, 1, 0.5, 0.5)" fill-opacity="1">0</text><text fill="rgb(68,68,68)" stroke="none" font-family="helvetica" font-size="11px" font-style="normal" font-weight="normal" text-decoration="normal" x="38.7646484375" y="81.76131439208984" text-anchor="start" dominant-baseline="alphabetic" transform="matrix(1, 0, 0, 1, 0.5, 0.5)" fill-opacity="1">20</text><text fill="rgb(68,68,68)" stroke="none" font-family="helvetica" font-size="11px" font-style="normal" font-weight="normal" text-decoration="normal" x="38.7646484375" y="58.100345611572266" text-anchor="start" dominant-baseline="alphabetic" transform="matrix(1, 0, 0, 1, 0.5, 0.5)" fill-opacity="1">40</text><text fill="rgb(68,68,68)" stroke="none" font-family="helvetica" font-size="11px" font-style="normal" font-weight="normal" text-decoration="normal" x="38.7646484375" y="34.43937873840332" text-anchor="start" dominant-baseline="alphabetic" transform="matrix(1, 0, 0, 1, 0.5, 0.5)" fill-opacity="1">60</text><text fill="rgb(68,68,68)" stroke="none" font-family="helvetica" font-size="13px" font-style="italic" font-weight="normal" text-decoration="normal" x="-9.23681640625" y="124" text-anchor="start" dominant-baseline="alphabetic" transform="matrix(6.123233995736766e-17, -1, 1, 6.123233995736766e-17, -108.27685546875, 145.72314453125)" fill-opacity="1">Predicted</text><path fill="none" stroke="rgb(255,140,0)" paint-order="fill" d="M 244.8643303202036 27.5 L 112.89955271415853 227.5" stroke-opacity="1" stroke-linejoin="bevel" stroke-miterlimit="10" stroke-width="2" stroke-dasharray="" clip-path="url(#ieTiKDtUUcZH)"/><path fill="none" stroke="none"/><text fill="rgb(68,68,68)" stroke="none" font-family="helvetica" font-size="13px" font-style="normal" font-weight="bold" text-decoration="normal" x="0" y="0" text-anchor="start" dominant-baseline="text-after-edge" transform="matrix(1, 0, 0, 1, 62.5, 22.5)" fill-opacity="1">Longitude, &lt;R²&gt; = 0.38</text></svg>