<svg version="1.1" xmlns="http://www.w3.org/2000/svg" xmlns:xlink="http://www.w3.org/1999/xlink" width="261" height="272"><defs><clipPath id="ITwvrxIKWeal"><path fill="none" stroke="none" d="M 56.5 27.5 L 256.5 27.5 L 256.5 227.5 L 56.5 227.5 L 56.5 27.5"/></clipPath><clipPath id="BzDKRhBVNaQh"><path fill="none" stroke="none" d="M 56.5 27.5 L 256.5 27.5 L 256.5 227.5 L 56.5 227.5 L 56.5 27.5"/></clipPath><clipPath id="TKPzfiMsaMAz"><path fill="none" stroke="none" d="M 56.5 27.5 L 256.5 27.5 L 256.5 227.5 L 56.5 227.5 L 56.5 27.5"/></clipPath><clipPath id="wiFhzKAZscaE"><path fill="none" stroke="none" d="M 56.5 27.5 L 256.5 27.5 L 256.5 227.5 L 56.5 227.5 L 56.5 27.5"/></clipPath><clipPath id="PhxfKuTEuhZc"><path fill="none" stroke="none" d="M 56.5 27.5 L 256.5 27.5 L 256.5 227.5 L 56.5 227.5 L 56.5 27.5"/></clipPath></defs><path fill="none" stroke="rgb(229,229,229)" paint-order="fill" d="M 56.5 27.5 L 256.5 27.5 L 256.5 227.5 L 56.5 227.5 L 56.5 27.5" stroke-opacity="1" stroke-linejoin="bevel" stroke-miterlimit="10" stroke-dasharray=""/><path fill="none" stroke="rgb(229,229,229)" paint-order="fill" d="M 66.5 227.5 L 66.5 27.5 M 102.5 227.5 L 102.5 27.5 M 139.5 227.5 L 139.5 27.5 M 175.5 227.5 L 175.5 27.5 M 212.5 227.5 L 212.5 27.5 M 248.5 227.5 L 248.5 27.5" stroke-opacity="1" stroke-linejoin="bevel" stroke-miterlimit="10" stroke-dasharray="" clip-path="url(#ITwvrxIKWeal)"/><path fill="none" stroke="rgb(229,229,229)" paint-order="fill" d="M 56.5 224.5 L 256.5 224.5 M 56.5 191.5 L 256.5 191.5 M 56.5 157.5 L 256.5 157.5 M 56.5 124.5 L 256.5 124.5 M 56.5 90.5 L 256.5 90.5 M 56.5 57.5 L 256.5 57.5" stroke-opacity="1" stroke-linejoin="bevel" stroke-miterlimit="10" stroke-dasharray="" clip-path="url(#BzDKRhBVNaQh)"/><path fill="none" stroke="none"/><path fill="rgb(31,119,180)" stroke="rgb(31,119,180)" paint-order="fill" d="M 146.6128692626953 101.90392303466797 A 2 2 0 1 1 146.6128682626954 101.9019230350013" fill-opacity="1" clip-path="url(#TKPzfiMsaMAz)" stroke-opacity="1" stroke-linejoin="bevel" stroke-miterlimit="10" stroke-dasharray=""/><path fill="rgb(31,119,180)" stroke="rgb(31,119,180)" paint-order="fill" d="M 161.44435119628906 73.77401733398438 A 2 2 0 1 1 161.44435019628915 73.77201733431771" fill-opacity="1" clip-path="url(#TKPzfiMsaMAz)" stroke-opacity="1" stroke-linejoin="bevel" stroke-miterlimit="10" stroke-dasharray=""/><path fill="rgb(31,119,180)" stroke="rgb(31,119,180)" paint-order="fill" d="M 161.46263122558594 100.31509399414062 A 2 2 0 1 1 161.46263022558603 100.31309399447396" fill-opacity="1" clip-path="url(#TKPzfiMsaMAz)" stroke-opacity="1" stroke-linejoin="bevel" stroke-miterlimit="10" stroke-dasharray=""/><path fill="rgb(31,119,180)" stroke="rgb(31,119,180)" paint-order="fill" d="M 135.16465759277344 99.8209457397461 A 2 2 0 1 1 135.16465659277353 99.81894574007943" fill-opacity="1" clip-path="url(#TKPzfiMsaMAz)" stroke-opacity="1" stroke-linejoin="bevel" stroke-miterlimit="10" stroke-dasharray=""/><path fill="rgb(31,119,180)" stroke="rgb(31,119,180)" paint-order="fill" d="M 243.1363525390625 46.12749099731445 A 2 2 0 1 1 243.1363515390626 46.12549099764779" fill-opacity="1" clip-path="url(#TKPzfiMsaMAz)" stroke-opacity="1" stroke-linejoin="bevel" stroke-miterlimit="10" stroke-dasharray=""/><path fill="rgb(31,119,180)" stroke="rgb(31,119,180)" paint-order="fill" d="M 235.345703125 51.163047790527344 A 2 2 0 1 1 235.3457021250001 51.16104779086068" fill-opacity="1" clip-path="url(#TKPzfiMsaMAz)" stroke-opacity="1" stroke-linejoin="bevel" stroke-miterlimit="10" stroke-dasharray=""/><path fill="rgb(31,119,180)" stroke="rgb(31,119,180)" paint-order="fill" d="M 211.699462890625 68.3518295288086 A 2 2 0 1 1 211.6994618906251 68.34982952914193" fill-opacity="1" clip-path="url(#TKPzfiMsaMAz)" stroke-opacity="1" stroke-linejoin="bevel" stroke-miterlimit="10" stroke-dasharray=""/><path fill="rgb(31,119,180)" stroke="rgb(31,119,180)" paint-order="fill" d="M 118.7969970703125 100.745849609375 A 2 2 0 1 1 118.79699607031259 100.74384960970833" fill-opacity="1" clip-path="url(#TKPzfiMsaMAz)" stroke-opacity="1" stroke-linejoin="bevel" stroke-miterlimit="10" stroke-dasharray=""/><path fill="rgb(31,119,180)" stroke="rgb(31,119,180)" paint-order="fill" d="M 67.59091186523438 218.40908813476562 A 2 2 0 1 1 67.59091086523446 218.40708813509895" fill-opacity="1" clip-path="url(#TKPzfiMsaMAz)" stroke-opacity="1" stroke-linejoin="bevel" stroke-miterlimit="10" stroke-dasharray=""/><path fill="rgb(31,119,180)" stroke="rgb(31,119,180)" paint-order="fill" d="M 113.27405548095703 41.675079345703125 A 2 2 0 1 1 113.27405448095712 41.67307934603646" fill-opacity="1" clip-path="url(#TKPzfiMsaMAz)" stroke-opacity="1" stroke-linejoin="bevel" stroke-miterlimit="10" stroke-dasharray=""/><path fill="rgb(31,119,180)" stroke="rgb(31,119,180)" paint-order="fill" d="M 215.83253479003906 61.401268005371094 A 2 2 0 1 1 215.83253379003915 61.39926800570443" fill-opacity="1" clip-path="url(#TKPzfiMsaMAz)" stroke-opacity="1" stroke-linejoin="bevel" stroke-miterlimit="10" stroke-dasharray=""/><path fill="rgb(31,119,180)" stroke="rgb(31,119,180)" paint-order="fill" d="M 161.2980499267578 93.67111206054688 A 2 2 0 1 1 161.2980489267579 93.66911206088021" fill-opacity="1" clip-path="url(#TKPzfiMsaMAz)" stroke-opacity="1" stroke-linejoin="bevel" stroke-miterlimit="10" stroke-dasharray=""/><path fill="rgb(31,119,180)" stroke="rgb(31,119,180)" paint-order="fill" d="M 115.46859741210938 189.7338104248047 A 2 2 0 1 1 115.46859641210946 189.731810425138" fill-opacity="1" clip-path="url(#TKPzfiMsaMAz)" stroke-opacity="1" stroke-linejoin="bevel" stroke-miterlimit="10" stroke-dasharray=""/><path fill="rgb(31,119,180)" stroke="rgb(31,119,180)" paint-order="fill" d="M 212.50413513183594 63.879024505615234 A 2 2 0 1 1 212.50413413183603 63.87702450594857" fill-opacity="1" clip-path="url(#TKPzfiMsaMAz)" stroke-opacity="1" stroke-linejoin="bevel" stroke-miterlimit="10" stroke-dasharray=""/><path fill="rgb(31,119,180)" stroke="rgb(31,119,180)" paint-order="fill" d="M 249.40908813476562 99.0868148803711 A 2 2 0 1 1 249.4090871347657 99.08481488070443" fill-opacity="1" clip-path="url(#TKPzfiMsaMAz)" stroke-opacity="1" stroke-linejoin="bevel" stroke-miterlimit="10" stroke-dasharray=""/><path fill="rgb(31,119,180)" stroke="rgb(31,119,180)" paint-order="fill" d="M 249.18963623046875 36.59090805053711 A 2 2 0 1 1 249.18963523046884 36.588908050870444" fill-opacity="1" clip-path="url(#TKPzfiMsaMAz)" stroke-opacity="1" stroke-linejoin="bevel" stroke-miterlimit="10" stroke-dasharray=""/><path fill="rgb(31,119,180)" stroke="rgb(31,119,180)" paint-order="fill" d="M 239.95425415039062 53.376216888427734 A 2 2 0 1 1 239.9542531503907 53.37421688876107" fill-opacity="1" clip-path="url(#TKPzfiMsaMAz)" stroke-opacity="1" stroke-linejoin="bevel" stroke-miterlimit="10" stroke-dasharray=""/><path fill="rgb(31,119,180)" stroke="rgb(31,119,180)" paint-order="fill" d="M 204.43917846679688 83.16388702392578 A 2 2 0 1 1 204.43917746679696 83.16188702425912" fill-opacity="1" clip-path="url(#TKPzfiMsaMAz)" stroke-opacity="1" stroke-linejoin="bevel" stroke-miterlimit="10" stroke-dasharray=""/><path fill="rgb(31,119,180)" stroke="rgb(31,119,180)" paint-order="fill" d="M 224.6107177734375 70.95008087158203 A 2 2 0 1 1 224.6107167734376 70.94808087191537" fill-opacity="1" clip-path="url(#TKPzfiMsaMAz)" stroke-opacity="1" stroke-linejoin="bevel" stroke-miterlimit="10" stroke-dasharray=""/><path fill="rgb(31,119,180)" stroke="rgb(31,119,180)" paint-order="fill" d="M 245.47718811035156 40.02506637573242 A 2 2 0 1 1 245.47718711035165 40.023066376065756" fill-opacity="1" clip-path="url(#TKPzfiMsaMAz)" stroke-opacity="1" stroke-linejoin="bevel" stroke-miterlimit="10" stroke-dasharray=""/><path fill="rgb(31,119,180)" stroke="rgb(31,119,180)" paint-order="fill" d="M 177.73886108398438 60.04988479614258 A 2 2 0 1 1 177.73886008398446 60.04788479647591" fill-opacity="1" clip-path="url(#TKPzfiMsaMAz)" stroke-opacity="1" stroke-linejoin="bevel" stroke-miterlimit="10" stroke-dasharray=""/><path fill="none" stroke="rgb(0,0,0)" paint-order="fill" d="M 56.5 227.5 L 256.5 227.5" stroke-opacity="1" stroke-linejoin="bevel" stroke-miterlimit="10" stroke-dasharray=""/><path fill="none" stroke="rgb(0,0,0)" paint-order="fill" d="M 66.5 233.5 L 66.5 225.5 M 102.5 233.5 L 102.5 225.5 M 139.5 233.5 L 139.5 225.5 M 175.5 233.5 L 175.5 225.5 M 212.5 233.5 L 212.5 225.5 M 248.5 233.5 L 248.5 225.5" stroke-opacity="1" stroke-linejoin="bevel" stroke-miterlimit="10" stroke-dasharray=""/><path fill="none" stroke="rgb(0,0,0)" paint-order="fill" d="M 58.5 231.5 L 58.5 227.5 M 66.5 231.5 L 66.5 227.5 M 73.5 231.5 L 73.5 227.5 M 80.5 231.5 L 80.5 227.5 M 87.5 231.5 L 87.5 227.5 M 95.5 231.5 L 95.5 227.5 M 102.5 231.5 L 102.5 227.5 M 109.5 231.5 L 109.5 227.5 M 117.5 231.5 L 117.5 227.5 M 124.5 231.5 L 124.5 227.5 M 131.5 231.5 L 131.5 227.5 M 139.5 231.5 L 139.5 227.5 M 146.5 231.5 L 146.5 227.5 M 153.5 231.5 L 153.5 227.5 M 161.5 231.5 L 161.5 227.5 M 168.5 231.5 L 168.5 227.5 M 175.5 231.5 L 175.5 227.5 M 183.5 231.5 L 183.5 227.5 M 190.5 231.5 L 190.5 227.5 M 197.5 231.5 L 197.5 227.5 M 204.5 231.5 L 204.5 227.5 M 212.5 231.5 L 212.5 227.5 M 219.5 231.5 L 219.5 227.5 M 226.5 231.5 L 226.5 227.5 M 234.5 231.5 L 234.5 227.5 M 241.5 231.5 L 241.5 227.5 M 248.5 231.5 L 248.5 227.5 M 256.5 231.5 L 256.5 227.5" stroke-opacity="1" stroke-linejoin="bevel" stroke-miterlimit="10" stroke-dasharray=""/><text fill="rgb(68,68,68)" stroke="none" font-family="helvetica" font-size="11px" font-style="normal" font-weight="normal" text-decoration="normal" x="56.18193817138672" y="245.89013671875" text-anchor="start" dominant-baseline="alphabetic" transform="matrix(1, 0, 0, 1, 0.5, 0.5)" fill-opacity="1">−60</text><text fill="rgb(68,68,68)" stroke="none" font-family="helvetica" font-size="11px" font-style="normal" font-weight="normal" text-decoration="normal" x="92.7577133178711" y="245.89013671875" text-anchor="start" dominant-baseline="alphabetic" transform="matrix(1, 0, 0, 1, 0.5, 0.5)" fill-opacity="1">−40</text><text fill="rgb(68,68,68)" stroke="none" font-family="helvetica" font-size="11px" font-style="normal" font-weight="normal" text-decoration="normal" x="129.33349609375" y="245.89013671875" text-anchor="start" dominant-baseline="alphabetic" transform="matrix(1, 0, 0, 1, 0.5, 0.5)" fill-opacity="1">−20</text><text fill="rgb(68,68,68)" stroke="none" font-family="helvetica" font-size="11px" font-style="normal" font-weight="normal" text-decoration="normal" x="172.18002319335938" y="245.89013671875" text-anchor="start" dominant-baseline="alphabetic" transform="matrix(1, 0, 0, 1, 0.5, 0.5)" fill-opacity="1">0</text><text fill="rgb(68,68,68)" stroke="none" font-family="helvetica" font-size="11px" font-style="normal" font-weight="normal" text-decoration="normal" x="205.69696044921875" y="245.89013671875" text-anchor="start" dominant-baseline="alphabetic" transform="matrix(1, 0, 0, 1, 0.5, 0.5)" fill-opacity="1">20</text><text fill="rgb(68,68,68)" stroke="none" font-family="helvetica" font-size="11px" font-style="normal" font-weight="normal" text-decoration="normal" x="242.27273559570312" y="245.89013671875" text-anchor="start" dominant-baseline="alphabetic" transform="matrix(1, 0, 0, 1, 0.5, 0.5)" fill-opacity="1">40</text><text fill="rgb(68,68,68)" stroke="none" font-family="helvetica" font-size="13px" font-style="italic" font-weight="normal" text-decoration="normal" x="127.819580078125" y="265.89013671875" text-anchor="start" dominant-baseline="alphabetic" transform="matrix(1, 0, 0, 1, 0.5, 0.5)" fill-opacity="1">Observed</text><path fill="none" stroke="rgb(0,0,0)" paint-order="fill" d="M 56.5 227.5 L 56.5 27.5" stroke-opacity="1" stroke-linejoin="bevel" stroke-miterlimit="10" stroke-dasharray=""/><path fill="none" stroke="rgb(0,0,0)" paint-order="fill" d="M 50.5 224.5 L 58.5 224.5 M 50.5 191.5 L 58.5 191.5 M 50.5 157.5 L 58.5 157.5 M 50.5 124.5 L 58.5 124.5 M 50.5 90.5 L 58.5 90.5 M 50.5 57.5 L 58.5 57.5" stroke-opacity="1" stroke-linejoin="bevel" stroke-miterlimit="10" stroke-dasharray=""/><path fill="none" stroke="rgb(0,0,0)" paint-order="fill" d="M 52.5 224.5 L 56.5 224.5 M 52.5 217.5 L 56.5 217.5 M 52.5 211.5 L 56.5 211.5 M 52.5 204.5 L 56.5 204.5 M 52.5 197.5 L 56.5 197.5 M 52.5 191.5 L 56.5 191.5 M 52.5 184.5 L 56.5 184.5 M 52.5 177.5 L 56.5 177.5 M 52.5 170.5 L 56.5 170.5 M 52.5 164.5 L 56.5 164.5 M 52.5 157.5 L 56.5 157.5 M 52.5 150.5 L 56.5 150.5 M 52.5 144.5 L 56.5 144.5 M 52.5 137.5 L 56.5 137.5 M 52.5 130.5 L 56.5 130.5 M 52.5 124.5 L 56.5 124.5 M 52.5 117.5 L 56.5 117.5 M 52.5 110.5 L 56.5 110.5 M 52.5 104.5 L 56.5 104.5 M 52.5 97.5 L 56.5 97.5 M 52.5 90.5 L 56.5 90.5 M 52.5 84.5 L 56.5 84.5 M 52.5 77.5 L 56.5 77.5 M 52.5 70.5 L 56.5 70.5 M 52.5 64.5 L 56.5 64.5 M 52.5 57.5 L 56.5 57.5 M 52.5 50.5 L 56.5 50.5 M 52.5 43.5 L 56.5 43.5 M 52.5 37.5 L 56.5 37.5 M 52.5 30.5 L 56.5 30.5" stroke-opacity="1" stroke-linejoin="bevel" stroke-miterlimit="10" stroke-dasharray=""/><text fill="rgb(68,68,68)" stroke="none" font-family="helvetica" font-size="11px" font-style="normal" font-weight="normal" text-decoration="normal" x="26.3408203125" y="227.93692016601562" text-anchor="start" dominant-baseline="alphabetic" transform="matrix(1, 0, 0, 1, 0.5, 0.5)" fill-opacity="1">−40</text><text fill="rgb(68,68,68)" stroke="none" font-family="helvetica" font-size="11px" font-style="normal" font-weight="normal" text-decoration="normal" x="26.3408203125" y="194.50338745117188" text-anchor="start" dominant-baseline="alphabetic" transform="matrix(1, 0, 0, 1, 0.5, 0.5)" fill-opacity="1">−30</text><text fill="rgb(68,68,68)" stroke="none" font-family="helvetica" font-size="11px" font-style="normal" font-weight="normal" text-decoration="normal" x="26.3408203125" y="161.06985473632812" text-anchor="start" dominant-baseline="alphabetic" transform="matrix(1, 0, 0, 1, 0.5, 0.5)" fill-opacity="1">−20</text><text fill="rgb(68,68,68)" stroke="none" font-family="helvetica" font-size="11px" font-style="normal" font-weight="normal" text-decoration="normal" x="26.3408203125" y="127.63632202148438" text-anchor="start" dominant-baseline="alphabetic" transform="matrix(1, 0, 0, 1, 0.5, 0.5)" fill-opacity="1">−10</text><text fill="rgb(68,68,68)" stroke="none" font-family="helvetica" font-size="11px" font-style="normal" font-weight="normal" text-decoration="normal" x="38.88232421875" y="94.2027816772461" text-anchor="start" dominant-baseline="alphabetic" transform="matrix(1, 0, 0, 1, 0.5, 0.5)" fill-opacity="1">0</text><text fill="rgb(68,68,68)" stroke="none" font-family="helvetica" font-size="11px" font-style="normal" font-weight="normal" text-decoration="normal" x="32.7646484375" y="60.769248962402344" text-anchor="start" dominant-baseline="alphabetic" transform="matrix(1, 0, 0, 1, 0.5, 0.5)" fill-opacity="1">10</text><text fill="rgb(68,68,68)" stroke="none" font-family="helvetica" font-size="13px" font-style="italic" font-weight="normal" text-decoration="normal" x="-9.119140625" y="124" text-anchor="start" dominant-baseline="alphabetic" transform="matrix(6.123233995736766e-17, -1, 1, 6.123233995736766e-17, -108.1591796875, 145.8408203125)" fill-opacity="1">Predicted</text><path fill="none" stroke="rgb(255,140,0)" paint-order="fill" d="M 210.34034490956643 27.5 L 100.9418737769975 227.5" stroke-opacity="1" stroke-linejoin="bevel" stroke-miterlimit="10" stroke-width="2" stroke-dasharray="" clip-path="url(#wiFhzKAZscaE)"/><path fill="none" stroke="none"/><text fill="rgb(68,68,68)" stroke="none" font-family="helvetica" font-size="13px" font-style="normal" font-weight="bold" text-decoration="normal" x="0" y="0" text-anchor="start" dominant-baseline="text-after-edge" transform="matrix(1, 0, 0, 1, 56.5, 22.5)" fill-opacity="1">Latitude, &lt;R²&gt; = 0.21</text></svg>