<svg version="1.1" xmlns="http://www.w3.org/2000/svg" xmlns:xlink="http://www.w3.org/1999/xlink" width="254" height="272"><defs><clipPath id="KcxJMJRexcOn"><path fill="none" stroke="none" d="M 49.5 27.5 L 249.5 27.5 L 249.5 227.5 L 49.5 227.5 L 49.5 27.5"/></clipPath><clipPath id="HpegXkwDHuRP"><path fill="none" stroke="none" d="M 49.5 27.5 L 249.5 27.5 L 249.5 227.5 L 49.5 227.5 L 49.5 27.5"/></clipPath><clipPath id="zpkMJyaZWaoe"><path fill="none" stroke="none" d="M 49.5 27.5 L 249.5 27.5 L 249.5 227.5 L 49.5 227.5 L 49.5 27.5"/></clipPath><clipPath id="MRliDtSKSgkS"><path fill="none" stroke="none" d="M 49.5 27.5 L 249.5 27.5 L 249.5 227.5 L 49.5 227.5 L 49.5 27.5"/></clipPath><clipPath id="ocTNITQyndGG"><path fill="none" stroke="none" d="M 49.5 27.5 L 249.5 27.5 L 249.5 227.5 L 49.5 227.5 L 49.5 27.5"/></clipPath></defs><path fill="none" stroke="rgb(229,229,229)" paint-order="fill" d="M 49.5 27.5 L 249.5 27.5 L 249.5 227.5 L 49.5 227.5 L 49.5 27.5" stroke-opacity="1" stroke-linejoin="bevel" stroke-miterlimit="10" stroke-dasharray=""/><path fill="none" stroke="rgb(229,229,229)" paint-order="fill" d="M 68.5 227.5 L 68.5 27.5 M 111.5 227.5 L 111.5 27.5 M 154.5 227.5 L 154.5 27.5 M 197.5 227.5 L 197.5 27.5 M 240.5 227.5 L 240.5 27.5" stroke-opacity="1" stroke-linejoin="bevel" stroke-miterlimit="10" stroke-dasharray="" clip-path="url(#KcxJMJRexcOn)"/><path fill="none" stroke="rgb(229,229,229)" paint-order="fill" d="M 49.5 223.5 L 249.5 223.5 M 49.5 191.5 L 249.5 191.5 M 49.5 160.5 L 249.5 160.5 M 49.5 129.5 L 249.5 129.5 M 49.5 98.5 L 249.5 98.5 M 49.5 67.5 L 249.5 67.5 M 49.5 36.5 L 249.5 36.5" stroke-opacity="1" stroke-linejoin="bevel" stroke-miterlimit="10" stroke-dasharray="" clip-path="url(#HpegXkwDHuRP)"/><path fill="none" stroke="none"/><path fill="rgb(31,119,180)" stroke="rgb(31,119,180)" paint-order="fill" d="M 154.5159454345703 74.28102111816406 A 2 2 0 1 1 154.5159444345704 74.2790211184974" fill-opacity="1" clip-path="url(#zpkMJyaZWaoe)" stroke-opacity="1" stroke-linejoin="bevel" stroke-miterlimit="10" stroke-dasharray=""/><path fill="rgb(31,119,180)" stroke="rgb(31,119,180)" paint-order="fill" d="M 242.40908813476562 36.59090805053711 A 2 2 0 1 1 242.4090871347657 36.588908050870444" fill-opacity="1" clip-path="url(#zpkMJyaZWaoe)" stroke-opacity="1" stroke-linejoin="bevel" stroke-miterlimit="10" stroke-dasharray=""/><path fill="rgb(31,119,180)" stroke="rgb(31,119,180)" paint-order="fill" d="M 66.19194412231445 218.23622131347656 A 2 2 0 1 1 66.19194312231454 218.23422131380988" fill-opacity="1" clip-path="url(#zpkMJyaZWaoe)" stroke-opacity="1" stroke-linejoin="bevel" stroke-miterlimit="10" stroke-dasharray=""/><path fill="rgb(31,119,180)" stroke="rgb(31,119,180)" paint-order="fill" d="M 68.34618377685547 213.83245849609375 A 2 2 0 1 1 68.34618277685556 213.83045849642707" fill-opacity="1" clip-path="url(#zpkMJyaZWaoe)" stroke-opacity="1" stroke-linejoin="bevel" stroke-miterlimit="10" stroke-dasharray=""/><path fill="rgb(31,119,180)" stroke="rgb(31,119,180)" paint-order="fill" d="M 67.05364227294922 217.9004364013672 A 2 2 0 1 1 67.0536412729493 217.8984364017005" fill-opacity="1" clip-path="url(#zpkMJyaZWaoe)" stroke-opacity="1" stroke-linejoin="bevel" stroke-miterlimit="10" stroke-dasharray=""/><path fill="rgb(31,119,180)" stroke="rgb(31,119,180)" paint-order="fill" d="M 161.8403778076172 37.062252044677734 A 2 2 0 1 1 161.84037680761728 37.06025204501107" fill-opacity="1" clip-path="url(#zpkMJyaZWaoe)" stroke-opacity="1" stroke-linejoin="bevel" stroke-miterlimit="10" stroke-dasharray=""/><path fill="rgb(31,119,180)" stroke="rgb(31,119,180)" paint-order="fill" d="M 70.93128204345703 210.2569580078125 A 2 2 0 1 1 70.93128104345712 210.25495800814582" fill-opacity="1" clip-path="url(#zpkMJyaZWaoe)" stroke-opacity="1" stroke-linejoin="bevel" stroke-miterlimit="10" stroke-dasharray=""/><path fill="rgb(31,119,180)" stroke="rgb(31,119,180)" paint-order="fill" d="M 60.59090805053711 212.62860107421875 A 2 2 0 1 1 60.59090705053719 212.62660107455207" fill-opacity="1" clip-path="url(#zpkMJyaZWaoe)" stroke-opacity="1" stroke-linejoin="bevel" stroke-miterlimit="10" stroke-dasharray=""/><path fill="rgb(31,119,180)" stroke="rgb(31,119,180)" paint-order="fill" d="M 86.8726806640625 218.40908813476562 A 2 2 0 1 1 86.87267966406259 218.40708813509895" fill-opacity="1" clip-path="url(#zpkMJyaZWaoe)" stroke-opacity="1" stroke-linejoin="bevel" stroke-miterlimit="10" stroke-dasharray=""/><path fill="rgb(31,119,180)" stroke="rgb(31,119,180)" paint-order="fill" d="M 67.05364227294922 214.96044921875 A 2 2 0 1 1 67.0536412729493 214.95844921908332" fill-opacity="1" clip-path="url(#zpkMJyaZWaoe)" stroke-opacity="1" stroke-linejoin="bevel" stroke-miterlimit="10" stroke-dasharray=""/><path fill="rgb(31,119,180)" stroke="rgb(31,119,180)" paint-order="fill" d="M 73.08552551269531 157.04730224609375 A 2 2 0 1 1 73.0855245126954 157.04530224642707" fill-opacity="1" clip-path="url(#zpkMJyaZWaoe)" stroke-opacity="1" stroke-linejoin="bevel" stroke-miterlimit="10" stroke-dasharray=""/><path fill="rgb(31,119,180)" stroke="rgb(31,119,180)" paint-order="fill" d="M 68.34618377685547 191.76385498046875 A 2 2 0 1 1 68.34618277685556 191.76185498080207" fill-opacity="1" clip-path="url(#zpkMJyaZWaoe)" stroke-opacity="1" stroke-linejoin="bevel" stroke-miterlimit="10" stroke-dasharray=""/><path fill="rgb(31,119,180)" stroke="rgb(31,119,180)" paint-order="fill" d="M 62.74515151977539 190.986572265625 A 2 2 0 1 1 62.74515051977547 190.98457226595832" fill-opacity="1" clip-path="url(#zpkMJyaZWaoe)" stroke-opacity="1" stroke-linejoin="bevel" stroke-miterlimit="10" stroke-dasharray=""/><path fill="rgb(31,119,180)" stroke="rgb(31,119,180)" paint-order="fill" d="M 67.48448944091797 197.0642852783203 A 2 2 0 1 1 67.48448844091806 197.06228527865363" fill-opacity="1" clip-path="url(#zpkMJyaZWaoe)" stroke-opacity="1" stroke-linejoin="bevel" stroke-miterlimit="10" stroke-dasharray=""/><path fill="rgb(31,119,180)" stroke="rgb(31,119,180)" paint-order="fill" d="M 71.79297637939453 212.51417541503906 A 2 2 0 1 1 71.79297537939462 212.51217541537238" fill-opacity="1" clip-path="url(#zpkMJyaZWaoe)" stroke-opacity="1" stroke-linejoin="bevel" stroke-miterlimit="10" stroke-dasharray=""/><path fill="rgb(31,119,180)" stroke="rgb(31,119,180)" paint-order="fill" d="M 195.87742614746094 42.78553771972656 A 2 2 0 1 1 195.87742514746103 42.7835377200599" fill-opacity="1" clip-path="url(#zpkMJyaZWaoe)" stroke-opacity="1" stroke-linejoin="bevel" stroke-miterlimit="10" stroke-dasharray=""/><path fill="rgb(31,119,180)" stroke="rgb(31,119,180)" paint-order="fill" d="M 91.61202239990234 198.9820098876953 A 2 2 0 1 1 91.61202139990243 198.98000988802863" fill-opacity="1" clip-path="url(#zpkMJyaZWaoe)" stroke-opacity="1" stroke-linejoin="bevel" stroke-miterlimit="10" stroke-dasharray=""/><path fill="none" stroke="rgb(0,0,0)" paint-order="fill" d="M 49.5 227.5 L 249.5 227.5" stroke-opacity="1" stroke-linejoin="bevel" stroke-miterlimit="10" stroke-dasharray=""/><path fill="none" stroke="rgb(0,0,0)" paint-order="fill" d="M 68.5 233.5 L 68.5 225.5 M 111.5 233.5 L 111.5 225.5 M 154.5 233.5 L 154.5 225.5 M 197.5 233.5 L 197.5 225.5 M 240.5 233.5 L 240.5 225.5" stroke-opacity="1" stroke-linejoin="bevel" stroke-miterlimit="10" stroke-dasharray=""/><path fill="none" stroke="rgb(0,0,0)" paint-order="fill" d="M 59.5 231.5 L 59.5 227.5 M 50.5 231.5 L 50.5 227.5 M 68.5 231.5 L 68.5 227.5 M 76.5 231.5 L 76.5 227.5 M 85.5 231.5 L 85.5 227.5 M 93.5 231.5 L 93.5 227.5 M 102.5 231.5 L 102.5 227.5 M 111.5 231.5 L 111.5 227.5 M 119.5 231.5 L 119.5 227.5 M 128.5 231.5 L 128.5 227.5 M 137.5 231.5 L 137.5 227.5 M 145.5 231.5 L 145.5 227.5 M 154.5 231.5 L 154.5 227.5 M 162.5 231.5 L 162.5 227.5 M 171.5 231.5 L 171.5 227.5 M 180.5 231.5 L 180.5 227.5 M 188.5 231.5 L 188.5 227.5 M 197.5 231.5 L 197.5 227.5 M 205.5 231.5 L 205.5 227.5 M 214.5 231.5 L 214.5 227.5 M 223.5 231.5 L 223.5 227.5 M 231.5 231.5 L 231.5 227.5 M 240.5 231.5 L 240.5 227.5 M 249.5 231.5 L 249.5 227.5" stroke-opacity="1" stroke-linejoin="bevel" stroke-miterlimit="10" stroke-dasharray=""/><text fill="rgb(68,68,68)" stroke="none" font-family="helvetica" font-size="11px" font-style="normal" font-weight="normal" text-decoration="normal" x="64.5107421875" y="245.89013671875" text-anchor="start" dominant-baseline="alphabetic" transform="matrix(1, 0, 0, 1, 0.5, 0.5)" fill-opacity="1">0</text><text fill="rgb(68,68,68)" stroke="none" font-family="helvetica" font-size="11px" font-style="normal" font-weight="normal" text-decoration="normal" x="104.53678131103516" y="245.89013671875" text-anchor="start" dominant-baseline="alphabetic" transform="matrix(1, 0, 0, 1, 0.5, 0.5)" fill-opacity="1">10</text><text fill="rgb(68,68,68)" stroke="none" font-family="helvetica" font-size="11px" font-style="normal" font-weight="normal" text-decoration="normal" x="147.6216583251953" y="245.89013671875" text-anchor="start" dominant-baseline="alphabetic" transform="matrix(1, 0, 0, 1, 0.5, 0.5)" fill-opacity="1">20</text><text fill="rgb(68,68,68)" stroke="none" font-family="helvetica" font-size="11px" font-style="normal" font-weight="normal" text-decoration="normal" x="190.70654296875" y="245.89013671875" text-anchor="start" dominant-baseline="alphabetic" transform="matrix(1, 0, 0, 1, 0.5, 0.5)" fill-opacity="1">30</text><text fill="rgb(68,68,68)" stroke="none" font-family="helvetica" font-size="11px" font-style="normal" font-weight="normal" text-decoration="normal" x="233.79141235351562" y="245.89013671875" text-anchor="start" dominant-baseline="alphabetic" transform="matrix(1, 0, 0, 1, 0.5, 0.5)" fill-opacity="1">40</text><text fill="rgb(68,68,68)" stroke="none" font-family="helvetica" font-size="13px" font-style="italic" font-weight="normal" text-decoration="normal" x="120.819580078125" y="265.89013671875" text-anchor="start" dominant-baseline="alphabetic" transform="matrix(1, 0, 0, 1, 0.5, 0.5)" fill-opacity="1">Observed</text><path fill="none" stroke="rgb(0,0,0)" paint-order="fill" d="M 49.5 227.5 L 49.5 27.5" stroke-opacity="1" stroke-linejoin="bevel" stroke-miterlimit="10" stroke-dasharray=""/><path fill="none" stroke="rgb(0,0,0)" paint-order="fill" d="M 43.5 223.5 L 51.5 223.5 M 43.5 191.5 L 51.5 191.5 M 43.5 160.5 L 51.5 160.5 M 43.5 129.5 L 51.5 129.5 M 43.5 98.5 L 51.5 98.5 M 43.5 67.5 L 51.5 67.5 M 43.5 36.5 L 51.5 36.5" stroke-opacity="1" stroke-linejoin="bevel" stroke-miterlimit="10" stroke-dasharray=""/><path fill="none" stroke="rgb(0,0,0)" paint-order="fill" d="M 45.5 223.5 L 49.5 223.5 M 45.5 216.5 L 49.5 216.5 M 45.5 210.5 L 49.5 210.5 M 45.5 204.5 L 49.5 204.5 M 45.5 198.5 L 49.5 198.5 M 45.5 191.5 L 49.5 191.5 M 45.5 185.5 L 49.5 185.5 M 45.5 179.5 L 49.5 179.5 M 45.5 173.5 L 49.5 173.5 M 45.5 167.5 L 49.5 167.5 M 45.5 160.5 L 49.5 160.5 M 45.5 154.5 L 49.5 154.5 M 45.5 148.5 L 49.5 148.5 M 45.5 142.5 L 49.5 142.5 M 45.5 135.5 L 49.5 135.5 M 45.5 129.5 L 49.5 129.5 M 45.5 123.5 L 49.5 123.5 M 45.5 117.5 L 49.5 117.5 M 45.5 111.5 L 49.5 111.5 M 45.5 104.5 L 49.5 104.5 M 45.5 98.5 L 49.5 98.5 M 45.5 92.5 L 49.5 92.5 M 45.5 86.5 L 49.5 86.5 M 45.5 80.5 L 49.5 80.5 M 45.5 73.5 L 49.5 73.5 M 45.5 67.5 L 49.5 67.5 M 45.5 61.5 L 49.5 61.5 M 45.5 55.5 L 49.5 55.5 M 45.5 48.5 L 49.5 48.5 M 45.5 42.5 L 49.5 42.5 M 45.5 36.5 L 49.5 36.5 M 45.5 30.5 L 49.5 30.5" stroke-opacity="1" stroke-linejoin="bevel" stroke-miterlimit="10" stroke-dasharray=""/><text fill="rgb(68,68,68)" stroke="none" font-family="helvetica" font-size="11px" font-style="normal" font-weight="normal" text-decoration="normal" x="31.88232421875" y="226.48800659179688" text-anchor="start" dominant-baseline="alphabetic" transform="matrix(1, 0, 0, 1, 0.5, 0.5)" fill-opacity="1">0</text><text fill="rgb(68,68,68)" stroke="none" font-family="helvetica" font-size="11px" font-style="normal" font-weight="normal" text-decoration="normal" x="31.88232421875" y="195.39671325683594" text-anchor="start" dominant-baseline="alphabetic" transform="matrix(1, 0, 0, 1, 0.5, 0.5)" fill-opacity="1">5</text><text fill="rgb(68,68,68)" stroke="none" font-family="helvetica" font-size="11px" font-style="normal" font-weight="normal" text-decoration="normal" x="25.7646484375" y="164.30540466308594" text-anchor="start" dominant-baseline="alphabetic" transform="matrix(1, 0, 0, 1, 0.5, 0.5)" fill-opacity="1">10</text><text fill="rgb(68,68,68)" stroke="none" font-family="helvetica" font-size="11px" font-style="normal" font-weight="normal" text-decoration="normal" x="25.7646484375" y="133.214111328125" text-anchor="start" dominant-baseline="alphabetic" transform="matrix(1, 0, 0, 1, 0.5, 0.5)" fill-opacity="1">15</text><text fill="rgb(68,68,68)" stroke="none" font-family="helvetica" font-size="11px" font-style="normal" font-weight="normal" text-decoration="normal" x="25.7646484375" y="102.12281036376953" text-anchor="start" dominant-baseline="alphabetic" transform="matrix(1, 0, 0, 1, 0.5, 0.5)" fill-opacity="1">20</text><text fill="rgb(68,68,68)" stroke="none" font-family="helvetica" font-size="11px" font-style="normal" font-weight="normal" text-decoration="normal" x="25.7646484375" y="71.0315170288086" text-anchor="start" dominant-baseline="alphabetic" transform="matrix(1, 0, 0, 1, 0.5, 0.5)" fill-opacity="1">25</text><text fill="rgb(68,68,68)" stroke="none" font-family="helvetica" font-size="11px" font-style="normal" font-weight="normal" text-decoration="normal" x="25.7646484375" y="39.940216064453125" text-anchor="start" dominant-baseline="alphabetic" transform="matrix(1, 0, 0, 1, 0.5, 0.5)" fill-opacity="1">30</text><text fill="rgb(68,68,68)" stroke="none" font-family="helvetica" font-size="13px" font-style="italic" font-weight="normal" text-decoration="normal" x="-9.6953125" y="124" text-anchor="start" dominant-baseline="alphabetic" transform="matrix(6.123233995736766e-17, -1, 1, 6.123233995736766e-17, -108.7353515625, 145.2646484375)" fill-opacity="1">Predicted</text><path fill="none" stroke="rgb(255,140,0)" paint-order="fill" d="M 203.55674278328297 27.5 L 64.98138733304613 227.5" stroke-opacity="1" stroke-linejoin="bevel" stroke-miterlimit="10" stroke-width="2" stroke-dasharray="" clip-path="url(#MRliDtSKSgkS)"/><path fill="none" stroke="none"/><text fill="rgb(68,68,68)" stroke="none" font-family="helvetica" font-size="13px" font-style="normal" font-weight="bold" text-decoration="normal" x="0" y="0" text-anchor="start" dominant-baseline="text-after-edge" transform="matrix(1, 0, 0, 1, 49.5, 22.5)" fill-opacity="1">Nitrates (µmol/L), &lt;R²&gt; = 0.55</text></svg>