<svg version="1.1" xmlns="http://www.w3.org/2000/svg" xmlns:xlink="http://www.w3.org/1999/xlink" width="260" height="272"><defs><clipPath id="dUTtOGJkePdi"><path fill="none" stroke="none" d="M 55.5 27.5 L 255.5 27.5 L 255.5 227.5 L 55.5 227.5 L 55.5 27.5"/></clipPath><clipPath id="MJoaUJrKhAUv"><path fill="none" stroke="none" d="M 55.5 27.5 L 255.5 27.5 L 255.5 227.5 L 55.5 227.5 L 55.5 27.5"/></clipPath><clipPath id="UBOuFlFmMObT"><path fill="none" stroke="none" d="M 55.5 27.5 L 255.5 27.5 L 255.5 227.5 L 55.5 227.5 L 55.5 27.5"/></clipPath><clipPath id="fqkowwVrlzKO"><path fill="none" stroke="none" d="M 55.5 27.5 L 255.5 27.5 L 255.5 227.5 L 55.5 227.5 L 55.5 27.5"/></clipPath><clipPath id="aThvyrLBAxHF"><path fill="none" stroke="none" d="M 55.5 27.5 L 255.5 27.5 L 255.5 227.5 L 55.5 227.5 L 55.5 27.5"/></clipPath></defs><path fill="none" stroke="rgb(229,229,229)" paint-order="fill" d="M 55.5 27.5 L 255.5 27.5 L 255.5 227.5 L 55.5 227.5 L 55.5 27.5" stroke-opacity="1" stroke-linejoin="bevel" stroke-miterlimit="10" stroke-dasharray=""/><path fill="none" stroke="rgb(229,229,229)" paint-order="fill" d="M 63.5 227.5 L 63.5 27.5 M 106.5 227.5 L 106.5 27.5 M 150.5 227.5 L 150.5 27.5 M 193.5 227.5 L 193.5 27.5 M 237.5 227.5 L 237.5 27.5" stroke-opacity="1" stroke-linejoin="bevel" stroke-miterlimit="10" stroke-dasharray="" clip-path="url(#dUTtOGJkePdi)"/><path fill="none" stroke="rgb(229,229,229)" paint-order="fill" d="M 55.5 220.5 L 255.5 220.5 M 55.5 170.5 L 255.5 170.5 M 55.5 121.5 L 255.5 121.5 M 55.5 71.5 L 255.5 71.5" stroke-opacity="1" stroke-linejoin="bevel" stroke-miterlimit="10" stroke-dasharray="" clip-path="url(#MJoaUJrKhAUv)"/><path fill="none" stroke="none"/><path fill="rgb(31,119,180)" stroke="rgb(31,119,180)" paint-order="fill" d="M 224.9676055908203 36.59090805053711 A 2 2 0 1 1 224.9676045908204 36.588908050870444" fill-opacity="1" clip-path="url(#UBOuFlFmMObT)" stroke-opacity="1" stroke-linejoin="bevel" stroke-miterlimit="10" stroke-dasharray=""/><path fill="rgb(31,119,180)" stroke="rgb(31,119,180)" paint-order="fill" d="M 66.61263275146484 212.6917266845703 A 2 2 0 1 1 66.61263175146493 212.68972668490363" fill-opacity="1" clip-path="url(#UBOuFlFmMObT)" stroke-opacity="1" stroke-linejoin="bevel" stroke-miterlimit="10" stroke-dasharray=""/><path fill="rgb(31,119,180)" stroke="rgb(31,119,180)" paint-order="fill" d="M 71.67460632324219 209.0955047607422 A 2 2 0 1 1 71.67460532324228 209.0935047610755" fill-opacity="1" clip-path="url(#UBOuFlFmMObT)" stroke-opacity="1" stroke-linejoin="bevel" stroke-miterlimit="10" stroke-dasharray=""/><path fill="rgb(31,119,180)" stroke="rgb(31,119,180)" paint-order="fill" d="M 66.61263275146484 214.74171447753906 A 2 2 0 1 1 66.61263175146493 214.73971447787238" fill-opacity="1" clip-path="url(#UBOuFlFmMObT)" stroke-opacity="1" stroke-linejoin="bevel" stroke-miterlimit="10" stroke-dasharray=""/><path fill="rgb(31,119,180)" stroke="rgb(31,119,180)" paint-order="fill" d="M 66.63436126708984 218.40908813476562 A 2 2 0 1 1 66.63436026708993 218.40708813509895" fill-opacity="1" clip-path="url(#UBOuFlFmMObT)" stroke-opacity="1" stroke-linejoin="bevel" stroke-miterlimit="10" stroke-dasharray=""/><path fill="rgb(31,119,180)" stroke="rgb(31,119,180)" paint-order="fill" d="M 168.76451110839844 92.28948211669922 A 2 2 0 1 1 168.76451010839853 92.28748211703255" fill-opacity="1" clip-path="url(#UBOuFlFmMObT)" stroke-opacity="1" stroke-linejoin="bevel" stroke-miterlimit="10" stroke-dasharray=""/><path fill="rgb(31,119,180)" stroke="rgb(31,119,180)" paint-order="fill" d="M 66.63436126708984 214.91078186035156 A 2 2 0 1 1 66.63436026708993 214.90878186068488" fill-opacity="1" clip-path="url(#UBOuFlFmMObT)" stroke-opacity="1" stroke-linejoin="bevel" stroke-miterlimit="10" stroke-dasharray=""/><path fill="rgb(31,119,180)" stroke="rgb(31,119,180)" paint-order="fill" d="M 66.61263275146484 218.21495056152344 A 2 2 0 1 1 66.61263175146493 218.21295056185676" fill-opacity="1" clip-path="url(#UBOuFlFmMObT)" stroke-opacity="1" stroke-linejoin="bevel" stroke-miterlimit="10" stroke-dasharray=""/><path fill="rgb(31,119,180)" stroke="rgb(31,119,180)" paint-order="fill" d="M 66.65608215332031 216.6487579345703 A 2 2 0 1 1 66.6560811533204 216.64675793490363" fill-opacity="1" clip-path="url(#UBOuFlFmMObT)" stroke-opacity="1" stroke-linejoin="bevel" stroke-miterlimit="10" stroke-dasharray=""/><path fill="rgb(31,119,180)" stroke="rgb(31,119,180)" paint-order="fill" d="M 66.63436126708984 213.89288330078125 A 2 2 0 1 1 66.63436026708993 213.89088330111457" fill-opacity="1" clip-path="url(#UBOuFlFmMObT)" stroke-opacity="1" stroke-linejoin="bevel" stroke-miterlimit="10" stroke-dasharray=""/><path fill="rgb(31,119,180)" stroke="rgb(31,119,180)" paint-order="fill" d="M 194.6175079345703 77.53842163085938 A 2 2 0 1 1 194.6175069345704 77.53642163119271" fill-opacity="1" clip-path="url(#UBOuFlFmMObT)" stroke-opacity="1" stroke-linejoin="bevel" stroke-miterlimit="10" stroke-dasharray=""/><path fill="rgb(31,119,180)" stroke="rgb(31,119,180)" paint-order="fill" d="M 66.63436126708984 216.31039428710938 A 2 2 0 1 1 66.63436026708993 216.3083942874427" fill-opacity="1" clip-path="url(#UBOuFlFmMObT)" stroke-opacity="1" stroke-linejoin="bevel" stroke-miterlimit="10" stroke-dasharray=""/><path fill="rgb(31,119,180)" stroke="rgb(31,119,180)" paint-order="fill" d="M 66.63436126708984 215.8934326171875 A 2 2 0 1 1 66.63436026708993 215.89143261752082" fill-opacity="1" clip-path="url(#UBOuFlFmMObT)" stroke-opacity="1" stroke-linejoin="bevel" stroke-miterlimit="10" stroke-dasharray=""/><path fill="rgb(31,119,180)" stroke="rgb(31,119,180)" paint-order="fill" d="M 73.84712219238281 211.40948486328125 A 2 2 0 1 1 73.8471211923829 211.40748486361457" fill-opacity="1" clip-path="url(#UBOuFlFmMObT)" stroke-opacity="1" stroke-linejoin="bevel" stroke-miterlimit="10" stroke-dasharray=""/><path fill="rgb(31,119,180)" stroke="rgb(31,119,180)" paint-order="fill" d="M 77.38833618164062 208.19142150878906 A 2 2 0 1 1 77.38833518164071 208.18942150912238" fill-opacity="1" clip-path="url(#UBOuFlFmMObT)" stroke-opacity="1" stroke-linejoin="bevel" stroke-miterlimit="10" stroke-dasharray=""/><path fill="rgb(31,119,180)" stroke="rgb(31,119,180)" paint-order="fill" d="M 66.59091186523438 218.00892639160156 A 2 2 0 1 1 66.59091086523446 218.00692639193488" fill-opacity="1" clip-path="url(#UBOuFlFmMObT)" stroke-opacity="1" stroke-linejoin="bevel" stroke-miterlimit="10" stroke-dasharray=""/><path fill="rgb(31,119,180)" stroke="rgb(31,119,180)" paint-order="fill" d="M 248.40908813476562 64.3388900756836 A 2 2 0 1 1 248.4090871347657 64.33689007601693" fill-opacity="1" clip-path="url(#UBOuFlFmMObT)" stroke-opacity="1" stroke-linejoin="bevel" stroke-miterlimit="10" stroke-dasharray=""/><path fill="rgb(31,119,180)" stroke="rgb(31,119,180)" paint-order="fill" d="M 66.72126007080078 210.97569274902344 A 2 2 0 1 1 66.72125907080087 210.97369274935676" fill-opacity="1" clip-path="url(#UBOuFlFmMObT)" stroke-opacity="1" stroke-linejoin="bevel" stroke-miterlimit="10" stroke-dasharray=""/><path fill="rgb(31,119,180)" stroke="rgb(31,119,180)" paint-order="fill" d="M 66.63436126708984 217.2623748779297 A 2 2 0 1 1 66.63436026708993 217.260374878263" fill-opacity="1" clip-path="url(#UBOuFlFmMObT)" stroke-opacity="1" stroke-linejoin="bevel" stroke-miterlimit="10" stroke-dasharray=""/><path fill="rgb(31,119,180)" stroke="rgb(31,119,180)" paint-order="fill" d="M 222.44747924804688 53.26640701293945 A 2 2 0 1 1 222.44747824804696 53.26440701327279" fill-opacity="1" clip-path="url(#UBOuFlFmMObT)" stroke-opacity="1" stroke-linejoin="bevel" stroke-miterlimit="10" stroke-dasharray=""/><path fill="rgb(31,119,180)" stroke="rgb(31,119,180)" paint-order="fill" d="M 66.63436126708984 215.73175048828125 A 2 2 0 1 1 66.63436026708993 215.72975048861457" fill-opacity="1" clip-path="url(#UBOuFlFmMObT)" stroke-opacity="1" stroke-linejoin="bevel" stroke-miterlimit="10" stroke-dasharray=""/><path fill="none" stroke="rgb(0,0,0)" paint-order="fill" d="M 55.5 227.5 L 255.5 227.5" stroke-opacity="1" stroke-linejoin="bevel" stroke-miterlimit="10" stroke-dasharray=""/><path fill="none" stroke="rgb(0,0,0)" paint-order="fill" d="M 63.5 233.5 L 63.5 225.5 M 106.5 233.5 L 106.5 225.5 M 150.5 233.5 L 150.5 225.5 M 193.5 233.5 L 193.5 225.5 M 237.5 233.5 L 237.5 225.5" stroke-opacity="1" stroke-linejoin="bevel" stroke-miterlimit="10" stroke-dasharray=""/><path fill="none" stroke="rgb(0,0,0)" paint-order="fill" d="M 63.5 231.5 L 63.5 227.5 M 72.5 231.5 L 72.5 227.5 M 80.5 231.5 L 80.5 227.5 M 89.5 231.5 L 89.5 227.5 M 98.5 231.5 L 98.5 227.5 M 106.5 231.5 L 106.5 227.5 M 115.5 231.5 L 115.5 227.5 M 124.5 231.5 L 124.5 227.5 M 132.5 231.5 L 132.5 227.5 M 141.5 231.5 L 141.5 227.5 M 150.5 231.5 L 150.5 227.5 M 159.5 231.5 L 159.5 227.5 M 167.5 231.5 L 167.5 227.5 M 176.5 231.5 L 176.5 227.5 M 185.5 231.5 L 185.5 227.5 M 193.5 231.5 L 193.5 227.5 M 202.5 231.5 L 202.5 227.5 M 211.5 231.5 L 211.5 227.5 M 219.5 231.5 L 219.5 227.5 M 228.5 231.5 L 228.5 227.5 M 237.5 231.5 L 237.5 227.5 M 245.5 231.5 L 245.5 227.5 M 254.5 231.5 L 254.5 227.5" stroke-opacity="1" stroke-linejoin="bevel" stroke-miterlimit="10" stroke-dasharray=""/><text fill="rgb(68,68,68)" stroke="none" font-family="helvetica" font-size="11px" font-style="normal" font-weight="normal" text-decoration="normal" x="59.88063430786133" y="245.89013671875" text-anchor="start" dominant-baseline="alphabetic" transform="matrix(1, 0, 0, 1, 0.5, 0.5)" fill-opacity="1">0</text><text fill="rgb(68,68,68)" stroke="none" font-family="helvetica" font-size="11px" font-style="normal" font-weight="normal" text-decoration="normal" x="97.2133560180664" y="245.89013671875" text-anchor="start" dominant-baseline="alphabetic" transform="matrix(1, 0, 0, 1, 0.5, 0.5)" fill-opacity="1">200</text><text fill="rgb(68,68,68)" stroke="none" font-family="helvetica" font-size="11px" font-style="normal" font-weight="normal" text-decoration="normal" x="140.66375732421875" y="245.89013671875" text-anchor="start" dominant-baseline="alphabetic" transform="matrix(1, 0, 0, 1, 0.5, 0.5)" fill-opacity="1">400</text><text fill="rgb(68,68,68)" stroke="none" font-family="helvetica" font-size="11px" font-style="normal" font-weight="normal" text-decoration="normal" x="184.11415100097656" y="245.89013671875" text-anchor="start" dominant-baseline="alphabetic" transform="matrix(1, 0, 0, 1, 0.5, 0.5)" fill-opacity="1">600</text><text fill="rgb(68,68,68)" stroke="none" font-family="helvetica" font-size="11px" font-style="normal" font-weight="normal" text-decoration="normal" x="227.56454467773438" y="245.89013671875" text-anchor="start" dominant-baseline="alphabetic" transform="matrix(1, 0, 0, 1, 0.5, 0.5)" fill-opacity="1">800</text><text fill="rgb(68,68,68)" stroke="none" font-family="helvetica" font-size="13px" font-style="italic" font-weight="normal" text-decoration="normal" x="126.819580078125" y="265.89013671875" text-anchor="start" dominant-baseline="alphabetic" transform="matrix(1, 0, 0, 1, 0.5, 0.5)" fill-opacity="1">Observed</text><path fill="none" stroke="rgb(0,0,0)" paint-order="fill" d="M 55.5 227.5 L 55.5 27.5" stroke-opacity="1" stroke-linejoin="bevel" stroke-miterlimit="10" stroke-dasharray=""/><path fill="none" stroke="rgb(0,0,0)" paint-order="fill" d="M 49.5 220.5 L 57.5 220.5 M 49.5 170.5 L 57.5 170.5 M 49.5 121.5 L 57.5 121.5 M 49.5 71.5 L 57.5 71.5" stroke-opacity="1" stroke-linejoin="bevel" stroke-miterlimit="10" stroke-dasharray=""/><path fill="none" stroke="rgb(0,0,0)" paint-order="fill" d="M 51.5 220.5 L 55.5 220.5 M 51.5 210.5 L 55.5 210.5 M 51.5 200.5 L 55.5 200.5 M 51.5 190.5 L 55.5 190.5 M 51.5 180.5 L 55.5 180.5 M 51.5 170.5 L 55.5 170.5 M 51.5 160.5 L 55.5 160.5 M 51.5 151.5 L 55.5 151.5 M 51.5 141.5 L 55.5 141.5 M 51.5 131.5 L 55.5 131.5 M 51.5 121.5 L 55.5 121.5 M 51.5 111.5 L 55.5 111.5 M 51.5 101.5 L 55.5 101.5 M 51.5 91.5 L 55.5 91.5 M 51.5 81.5 L 55.5 81.5 M 51.5 71.5 L 55.5 71.5 M 51.5 61.5 L 55.5 61.5 M 51.5 51.5 L 55.5 51.5 M 51.5 42.5 L 55.5 42.5 M 51.5 32.5 L 55.5 32.5" stroke-opacity="1" stroke-linejoin="bevel" stroke-miterlimit="10" stroke-dasharray=""/><text fill="rgb(68,68,68)" stroke="none" font-family="helvetica" font-size="11px" font-style="normal" font-weight="normal" text-decoration="normal" x="37.88232421875" y="223.89141845703125" text-anchor="start" dominant-baseline="alphabetic" transform="matrix(1, 0, 0, 1, 0.5, 0.5)" fill-opacity="1">0</text><text fill="rgb(68,68,68)" stroke="none" font-family="helvetica" font-size="11px" font-style="normal" font-weight="normal" text-decoration="normal" x="25.64697265625" y="174.3423309326172" text-anchor="start" dominant-baseline="alphabetic" transform="matrix(1, 0, 0, 1, 0.5, 0.5)" fill-opacity="1">200</text><text fill="rgb(68,68,68)" stroke="none" font-family="helvetica" font-size="11px" font-style="normal" font-weight="normal" text-decoration="normal" x="25.64697265625" y="124.79325103759766" text-anchor="start" dominant-baseline="alphabetic" transform="matrix(1, 0, 0, 1, 0.5, 0.5)" fill-opacity="1">400</text><text fill="rgb(68,68,68)" stroke="none" font-family="helvetica" font-size="11px" font-style="normal" font-weight="normal" text-decoration="normal" x="25.64697265625" y="75.24417114257812" text-anchor="start" dominant-baseline="alphabetic" transform="matrix(1, 0, 0, 1, 0.5, 0.5)" fill-opacity="1">600</text><text fill="rgb(68,68,68)" stroke="none" font-family="helvetica" font-size="13px" font-style="italic" font-weight="normal" text-decoration="normal" x="-9.81298828125" y="124" text-anchor="start" dominant-baseline="alphabetic" transform="matrix(6.123233995736766e-17, -1, 1, 6.123233995736766e-17, -108.85302734375, 145.14697265625)" fill-opacity="1">Predicted</text><path fill="none" stroke="rgb(255,140,0)" paint-order="fill" d="M 232.6372619732988 27.5 L 57.254014273455105 227.5" stroke-opacity="1" stroke-linejoin="bevel" stroke-miterlimit="10" stroke-width="2" stroke-dasharray="" clip-path="url(#fqkowwVrlzKO)"/><path fill="none" stroke="none"/><text fill="rgb(68,68,68)" stroke="none" font-family="helvetica" font-size="13px" font-style="normal" font-weight="bold" text-decoration="normal" x="0" y="0" text-anchor="start" dominant-baseline="text-after-edge" transform="matrix(1, 0, 0, 1, 55.5, 22.5)" fill-opacity="1">Depth (m), &lt;R²&gt; = 0.87</text></svg>