<svg version="1.1" xmlns="http://www.w3.org/2000/svg" xmlns:xlink="http://www.w3.org/1999/xlink" width="254" height="272"><defs><clipPath id="OFgeHHubyETA"><path fill="none" stroke="none" d="M 49.5 27.5 L 249.5 27.5 L 249.5 227.5 L 49.5 227.5 L 49.5 27.5"/></clipPath><clipPath id="JtKUCRqabynd"><path fill="none" stroke="none" d="M 49.5 27.5 L 249.5 27.5 L 249.5 227.5 L 49.5 227.5 L 49.5 27.5"/></clipPath><clipPath id="pVgGTfCHWBQS"><path fill="none" stroke="none" d="M 49.5 27.5 L 249.5 27.5 L 249.5 227.5 L 49.5 227.5 L 49.5 27.5"/></clipPath><clipPath id="NzngemvJXvRG"><path fill="none" stroke="none" d="M 49.5 27.5 L 249.5 27.5 L 249.5 227.5 L 49.5 227.5 L 49.5 27.5"/></clipPath><clipPath id="ZWXoSDyRbfIh"><path fill="none" stroke="none" d="M 49.5 27.5 L 249.5 27.5 L 249.5 227.5 L 49.5 227.5 L 49.5 27.5"/></clipPath></defs><path fill="none" stroke="rgb(229,229,229)" paint-order="fill" d="M 49.5 27.5 L 249.5 27.5 L 249.5 227.5 L 49.5 227.5 L 49.5 27.5" stroke-opacity="1" stroke-linejoin="bevel" stroke-miterlimit="10" stroke-dasharray=""/><path fill="none" stroke="rgb(229,229,229)" paint-order="fill" d="M 63.5 227.5 L 63.5 27.5 M 108.5 227.5 L 108.5 27.5 M 152.5 227.5 L 152.5 27.5 M 196.5 227.5 L 196.5 27.5 M 240.5 227.5 L 240.5 27.5" stroke-opacity="1" stroke-linejoin="bevel" stroke-miterlimit="10" stroke-dasharray="" clip-path="url(#OFgeHHubyETA)"/><path fill="none" stroke="rgb(229,229,229)" paint-order="fill" d="M 49.5 213.5 L 249.5 213.5 M 49.5 187.5 L 249.5 187.5 M 49.5 160.5 L 249.5 160.5 M 49.5 133.5 L 249.5 133.5 M 49.5 107.5 L 249.5 107.5 M 49.5 80.5 L 249.5 80.5 M 49.5 53.5 L 249.5 53.5" stroke-opacity="1" stroke-linejoin="bevel" stroke-miterlimit="10" stroke-dasharray="" clip-path="url(#JtKUCRqabynd)"/><path fill="none" stroke="none"/><path fill="rgb(31,119,180)" stroke="rgb(31,119,180)" paint-order="fill" d="M 77.36054992675781 217.99261474609375 A 2 2 0 1 1 77.3605489267579 217.99061474642707" fill-opacity="1" clip-path="url(#pVgGTfCHWBQS)" stroke-opacity="1" stroke-linejoin="bevel" stroke-miterlimit="10" stroke-dasharray=""/><path fill="rgb(31,119,180)" stroke="rgb(31,119,180)" paint-order="fill" d="M 223.43292236328125 63.593936920166016 A 2 2 0 1 1 223.43292136328134 63.59193692049935" fill-opacity="1" clip-path="url(#pVgGTfCHWBQS)" stroke-opacity="1" stroke-linejoin="bevel" stroke-miterlimit="10" stroke-dasharray=""/><path fill="rgb(31,119,180)" stroke="rgb(31,119,180)" paint-order="fill" d="M 83.09752655029297 188.38389587402344 A 2 2 0 1 1 83.09752555029306 188.38189587435676" fill-opacity="1" clip-path="url(#pVgGTfCHWBQS)" stroke-opacity="1" stroke-linejoin="bevel" stroke-miterlimit="10" stroke-dasharray=""/><path fill="rgb(31,119,180)" stroke="rgb(31,119,180)" paint-order="fill" d="M 141.34996032714844 152.2374725341797 A 2 2 0 1 1 141.34995932714853 152.235472534513" fill-opacity="1" clip-path="url(#pVgGTfCHWBQS)" stroke-opacity="1" stroke-linejoin="bevel" stroke-miterlimit="10" stroke-dasharray=""/><path fill="rgb(31,119,180)" stroke="rgb(31,119,180)" paint-order="fill" d="M 60.59090805053711 218.40908813476562 A 2 2 0 1 1 60.59090705053719 218.40708813509895" fill-opacity="1" clip-path="url(#pVgGTfCHWBQS)" stroke-opacity="1" stroke-linejoin="bevel" stroke-miterlimit="10" stroke-dasharray=""/><path fill="rgb(31,119,180)" stroke="rgb(31,119,180)" paint-order="fill" d="M 66.3278923034668 194.70909118652344 A 2 2 0 1 1 66.32789130346688 194.70709118685676" fill-opacity="1" clip-path="url(#pVgGTfCHWBQS)" stroke-opacity="1" stroke-linejoin="bevel" stroke-miterlimit="10" stroke-dasharray=""/><path fill="rgb(31,119,180)" stroke="rgb(31,119,180)" paint-order="fill" d="M 155.4717559814453 196.6921844482422 A 2 2 0 1 1 155.4717549814454 196.6901844485755" fill-opacity="1" clip-path="url(#pVgGTfCHWBQS)" stroke-opacity="1" stroke-linejoin="bevel" stroke-miterlimit="10" stroke-dasharray=""/><path fill="rgb(31,119,180)" stroke="rgb(31,119,180)" paint-order="fill" d="M 66.76919555664062 196.02474975585938 A 2 2 0 1 1 66.76919455664071 196.0227497561927" fill-opacity="1" clip-path="url(#pVgGTfCHWBQS)" stroke-opacity="1" stroke-linejoin="bevel" stroke-miterlimit="10" stroke-dasharray=""/><path fill="rgb(31,119,180)" stroke="rgb(31,119,180)" paint-order="fill" d="M 69.85833740234375 210.16807556152344 A 2 2 0 1 1 69.85833640234384 210.16607556185676" fill-opacity="1" clip-path="url(#pVgGTfCHWBQS)" stroke-opacity="1" stroke-linejoin="bevel" stroke-miterlimit="10" stroke-dasharray=""/><path fill="rgb(31,119,180)" stroke="rgb(31,119,180)" paint-order="fill" d="M 159.88482666015625 87.88983154296875 A 2 2 0 1 1 159.88482566015634 87.88783154330208" fill-opacity="1" clip-path="url(#pVgGTfCHWBQS)" stroke-opacity="1" stroke-linejoin="bevel" stroke-miterlimit="10" stroke-dasharray=""/><path fill="rgb(31,119,180)" stroke="rgb(31,119,180)" paint-order="fill" d="M 242.40908813476562 52.980037689208984 A 2 2 0 1 1 242.4090871347657 52.97803768954232" fill-opacity="1" clip-path="url(#pVgGTfCHWBQS)" stroke-opacity="1" stroke-linejoin="bevel" stroke-miterlimit="10" stroke-dasharray=""/><path fill="rgb(31,119,180)" stroke="rgb(31,119,180)" paint-order="fill" d="M 194.74801635742188 36.59090805053711 A 2 2 0 1 1 194.74801535742196 36.588908050870444" fill-opacity="1" clip-path="url(#pVgGTfCHWBQS)" stroke-opacity="1" stroke-linejoin="bevel" stroke-miterlimit="10" stroke-dasharray=""/><path fill="rgb(31,119,180)" stroke="rgb(31,119,180)" paint-order="fill" d="M 218.57855224609375 38.6893424987793 A 2 2 0 1 1 218.57855124609384 38.68734249911263" fill-opacity="1" clip-path="url(#pVgGTfCHWBQS)" stroke-opacity="1" stroke-linejoin="bevel" stroke-miterlimit="10" stroke-dasharray=""/><path fill="rgb(31,119,180)" stroke="rgb(31,119,180)" paint-order="fill" d="M 67.65180969238281 216.3779296875 A 2 2 0 1 1 67.6518086923829 216.37592968783332" fill-opacity="1" clip-path="url(#pVgGTfCHWBQS)" stroke-opacity="1" stroke-linejoin="bevel" stroke-miterlimit="10" stroke-dasharray=""/><path fill="rgb(31,119,180)" stroke="rgb(31,119,180)" paint-order="fill" d="M 215.48941040039062 66.38436889648438 A 2 2 0 1 1 215.4894094003907 66.38236889681771" fill-opacity="1" clip-path="url(#pVgGTfCHWBQS)" stroke-opacity="1" stroke-linejoin="bevel" stroke-miterlimit="10" stroke-dasharray=""/><path fill="rgb(31,119,180)" stroke="rgb(31,119,180)" paint-order="fill" d="M 65.8865852355957 215.07615661621094 A 2 2 0 1 1 65.88658423559579 215.07415661654426" fill-opacity="1" clip-path="url(#pVgGTfCHWBQS)" stroke-opacity="1" stroke-linejoin="bevel" stroke-miterlimit="10" stroke-dasharray=""/><path fill="rgb(31,119,180)" stroke="rgb(31,119,180)" paint-order="fill" d="M 64.1213607788086 217.48001098632812 A 2 2 0 1 1 64.12135977880868 217.47801098666145" fill-opacity="1" clip-path="url(#pVgGTfCHWBQS)" stroke-opacity="1" stroke-linejoin="bevel" stroke-miterlimit="10" stroke-dasharray=""/><path fill="none" stroke="rgb(0,0,0)" paint-order="fill" d="M 49.5 227.5 L 249.5 227.5" stroke-opacity="1" stroke-linejoin="bevel" stroke-miterlimit="10" stroke-dasharray=""/><path fill="none" stroke="rgb(0,0,0)" paint-order="fill" d="M 63.5 233.5 L 63.5 225.5 M 108.5 233.5 L 108.5 225.5 M 152.5 233.5 L 152.5 225.5 M 196.5 233.5 L 196.5 225.5 M 240.5 233.5 L 240.5 225.5" stroke-opacity="1" stroke-linejoin="bevel" stroke-miterlimit="10" stroke-dasharray=""/><path fill="none" stroke="rgb(0,0,0)" paint-order="fill" d="M 55.5 231.5 L 55.5 227.5 M 63.5 231.5 L 63.5 227.5 M 72.5 231.5 L 72.5 227.5 M 81.5 231.5 L 81.5 227.5 M 90.5 231.5 L 90.5 227.5 M 99.5 231.5 L 99.5 227.5 M 108.5 231.5 L 108.5 227.5 M 116.5 231.5 L 116.5 227.5 M 125.5 231.5 L 125.5 227.5 M 134.5 231.5 L 134.5 227.5 M 143.5 231.5 L 143.5 227.5 M 152.5 231.5 L 152.5 227.5 M 160.5 231.5 L 160.5 227.5 M 169.5 231.5 L 169.5 227.5 M 178.5 231.5 L 178.5 227.5 M 187.5 231.5 L 187.5 227.5 M 196.5 231.5 L 196.5 227.5 M 205.5 231.5 L 205.5 227.5 M 213.5 231.5 L 213.5 227.5 M 222.5 231.5 L 222.5 227.5 M 231.5 231.5 L 231.5 227.5 M 240.5 231.5 L 240.5 227.5 M 249.5 231.5 L 249.5 227.5" stroke-opacity="1" stroke-linejoin="bevel" stroke-miterlimit="10" stroke-dasharray=""/><text fill="rgb(68,68,68)" stroke="none" font-family="helvetica" font-size="11px" font-style="normal" font-weight="normal" text-decoration="normal" x="60.3277473449707" y="245.89013671875" text-anchor="start" dominant-baseline="alphabetic" transform="matrix(1, 0, 0, 1, 0.5, 0.5)" fill-opacity="1">0</text><text fill="rgb(68,68,68)" stroke="none" font-family="helvetica" font-size="11px" font-style="normal" font-weight="normal" text-decoration="normal" x="101.3995361328125" y="245.89013671875" text-anchor="start" dominant-baseline="alphabetic" transform="matrix(1, 0, 0, 1, 0.5, 0.5)" fill-opacity="1">10</text><text fill="rgb(68,68,68)" stroke="none" font-family="helvetica" font-size="11px" font-style="normal" font-weight="normal" text-decoration="normal" x="145.53016662597656" y="245.89013671875" text-anchor="start" dominant-baseline="alphabetic" transform="matrix(1, 0, 0, 1, 0.5, 0.5)" fill-opacity="1">20</text><text fill="rgb(68,68,68)" stroke="none" font-family="helvetica" font-size="11px" font-style="normal" font-weight="normal" text-decoration="normal" x="189.66078186035156" y="245.89013671875" text-anchor="start" dominant-baseline="alphabetic" transform="matrix(1, 0, 0, 1, 0.5, 0.5)" fill-opacity="1">30</text><text fill="rgb(68,68,68)" stroke="none" font-family="helvetica" font-size="11px" font-style="normal" font-weight="normal" text-decoration="normal" x="233.79141235351562" y="245.89013671875" text-anchor="start" dominant-baseline="alphabetic" transform="matrix(1, 0, 0, 1, 0.5, 0.5)" fill-opacity="1">40</text><text fill="rgb(68,68,68)" stroke="none" font-family="helvetica" font-size="13px" font-style="italic" font-weight="normal" text-decoration="normal" x="120.819580078125" y="265.89013671875" text-anchor="start" dominant-baseline="alphabetic" transform="matrix(1, 0, 0, 1, 0.5, 0.5)" fill-opacity="1">Observed</text><path fill="none" stroke="rgb(0,0,0)" paint-order="fill" d="M 49.5 227.5 L 49.5 27.5" stroke-opacity="1" stroke-linejoin="bevel" stroke-miterlimit="10" stroke-dasharray=""/><path fill="none" stroke="rgb(0,0,0)" paint-order="fill" d="M 43.5 213.5 L 51.5 213.5 M 43.5 187.5 L 51.5 187.5 M 43.5 160.5 L 51.5 160.5 M 43.5 133.5 L 51.5 133.5 M 43.5 107.5 L 51.5 107.5 M 43.5 80.5 L 51.5 80.5 M 43.5 53.5 L 51.5 53.5" stroke-opacity="1" stroke-linejoin="bevel" stroke-miterlimit="10" stroke-dasharray=""/><path fill="none" stroke="rgb(0,0,0)" paint-order="fill" d="M 45.5 219.5 L 49.5 219.5 M 45.5 224.5 L 49.5 224.5 M 45.5 213.5 L 49.5 213.5 M 45.5 208.5 L 49.5 208.5 M 45.5 203.5 L 49.5 203.5 M 45.5 197.5 L 49.5 197.5 M 45.5 192.5 L 49.5 192.5 M 45.5 187.5 L 49.5 187.5 M 45.5 181.5 L 49.5 181.5 M 45.5 176.5 L 49.5 176.5 M 45.5 171.5 L 49.5 171.5 M 45.5 165.5 L 49.5 165.5 M 45.5 160.5 L 49.5 160.5 M 45.5 155.5 L 49.5 155.5 M 45.5 149.5 L 49.5 149.5 M 45.5 144.5 L 49.5 144.5 M 45.5 139.5 L 49.5 139.5 M 45.5 133.5 L 49.5 133.5 M 45.5 128.5 L 49.5 128.5 M 45.5 123.5 L 49.5 123.5 M 45.5 117.5 L 49.5 117.5 M 45.5 112.5 L 49.5 112.5 M 45.5 107.5 L 49.5 107.5 M 45.5 101.5 L 49.5 101.5 M 45.5 96.5 L 49.5 96.5 M 45.5 91.5 L 49.5 91.5 M 45.5 85.5 L 49.5 85.5 M 45.5 80.5 L 49.5 80.5 M 45.5 75.5 L 49.5 75.5 M 45.5 69.5 L 49.5 69.5 M 45.5 64.5 L 49.5 64.5 M 45.5 58.5 L 49.5 58.5 M 45.5 53.5 L 49.5 53.5 M 45.5 48.5 L 49.5 48.5 M 45.5 42.5 L 49.5 42.5 M 45.5 37.5 L 49.5 37.5 M 45.5 32.5 L 49.5 32.5" stroke-opacity="1" stroke-linejoin="bevel" stroke-miterlimit="10" stroke-dasharray=""/><text fill="rgb(68,68,68)" stroke="none" font-family="helvetica" font-size="11px" font-style="normal" font-weight="normal" text-decoration="normal" x="31.88232421875" y="217.2845916748047" text-anchor="start" dominant-baseline="alphabetic" transform="matrix(1, 0, 0, 1, 0.5, 0.5)" fill-opacity="1">0</text><text fill="rgb(68,68,68)" stroke="none" font-family="helvetica" font-size="11px" font-style="normal" font-weight="normal" text-decoration="normal" x="31.88232421875" y="190.5869903564453" text-anchor="start" dominant-baseline="alphabetic" transform="matrix(1, 0, 0, 1, 0.5, 0.5)" fill-opacity="1">5</text><text fill="rgb(68,68,68)" stroke="none" font-family="helvetica" font-size="11px" font-style="normal" font-weight="normal" text-decoration="normal" x="25.7646484375" y="163.88938903808594" text-anchor="start" dominant-baseline="alphabetic" transform="matrix(1, 0, 0, 1, 0.5, 0.5)" fill-opacity="1">10</text><text fill="rgb(68,68,68)" stroke="none" font-family="helvetica" font-size="11px" font-style="normal" font-weight="normal" text-decoration="normal" x="25.7646484375" y="137.1917724609375" text-anchor="start" dominant-baseline="alphabetic" transform="matrix(1, 0, 0, 1, 0.5, 0.5)" fill-opacity="1">15</text><text fill="rgb(68,68,68)" stroke="none" font-family="helvetica" font-size="11px" font-style="normal" font-weight="normal" text-decoration="normal" x="25.7646484375" y="110.4941635131836" text-anchor="start" dominant-baseline="alphabetic" transform="matrix(1, 0, 0, 1, 0.5, 0.5)" fill-opacity="1">20</text><text fill="rgb(68,68,68)" stroke="none" font-family="helvetica" font-size="11px" font-style="normal" font-weight="normal" text-decoration="normal" x="25.7646484375" y="83.79656219482422" text-anchor="start" dominant-baseline="alphabetic" transform="matrix(1, 0, 0, 1, 0.5, 0.5)" fill-opacity="1">25</text><text fill="rgb(68,68,68)" stroke="none" font-family="helvetica" font-size="11px" font-style="normal" font-weight="normal" text-decoration="normal" x="25.7646484375" y="57.09895324707031" text-anchor="start" dominant-baseline="alphabetic" transform="matrix(1, 0, 0, 1, 0.5, 0.5)" fill-opacity="1">30</text><text fill="rgb(68,68,68)" stroke="none" font-family="helvetica" font-size="13px" font-style="italic" font-weight="normal" text-decoration="normal" x="-9.6953125" y="124" text-anchor="start" dominant-baseline="alphabetic" transform="matrix(6.123233995736766e-17, -1, 1, 6.123233995736766e-17, -108.7353515625, 145.2646484375)" fill-opacity="1">Predicted</text><path fill="none" stroke="rgb(255,140,0)" paint-order="fill" d="M 217.89439541041457 27.5 L 52.59633715798766 227.5" stroke-opacity="1" stroke-linejoin="bevel" stroke-miterlimit="10" stroke-width="2" stroke-dasharray="" clip-path="url(#NzngemvJXvRG)"/><path fill="none" stroke="none"/><text fill="rgb(68,68,68)" stroke="none" font-family="helvetica" font-size="13px" font-style="normal" font-weight="bold" text-decoration="normal" x="0" y="0" text-anchor="start" dominant-baseline="text-after-edge" transform="matrix(1, 0, 0, 1, 49.5, 22.5)" fill-opacity="1">Nitrates (µmol/L), &lt;R²&gt; = 0.68</text></svg>