<svg version="1.1" xmlns="http://www.w3.org/2000/svg" xmlns:xlink="http://www.w3.org/1999/xlink" width="261" height="272"><defs><clipPath id="aLtfRbdobtdA"><path fill="none" stroke="none" d="M 56.5 27.5 L 256.5 27.5 L 256.5 227.5 L 56.5 227.5 L 56.5 27.5"/></clipPath><clipPath id="lvXweixmTEPy"><path fill="none" stroke="none" d="M 56.5 27.5 L 256.5 27.5 L 256.5 227.5 L 56.5 227.5 L 56.5 27.5"/></clipPath><clipPath id="bLTdFoFDvRWO"><path fill="none" stroke="none" d="M 56.5 27.5 L 256.5 27.5 L 256.5 227.5 L 56.5 227.5 L 56.5 27.5"/></clipPath><clipPath id="gmDfSTCfupwE"><path fill="none" stroke="none" d="M 56.5 27.5 L 256.5 27.5 L 256.5 227.5 L 56.5 227.5 L 56.5 27.5"/></clipPath><clipPath id="CVyyMTcSXDrT"><path fill="none" stroke="none" d="M 56.5 27.5 L 256.5 27.5 L 256.5 227.5 L 56.5 227.5 L 56.5 27.5"/></clipPath></defs><path fill="none" stroke="rgb(229,229,229)" paint-order="fill" d="M 56.5 27.5 L 256.5 27.5 L 256.5 227.5 L 56.5 227.5 L 56.5 27.5" stroke-opacity="1" stroke-linejoin="bevel" stroke-miterlimit="10" stroke-dasharray=""/><path fill="none" stroke="rgb(229,229,229)" paint-order="fill" d="M 68.5 227.5 L 68.5 27.5 M 110.5 227.5 L 110.5 27.5 M 151.5 227.5 L 151.5 27.5 M 193.5 227.5 L 193.5 27.5 M 235.5 227.5 L 235.5 27.5" stroke-opacity="1" stroke-linejoin="bevel" stroke-miterlimit="10" stroke-dasharray="" clip-path="url(#aLtfRbdobtdA)"/><path fill="none" stroke="rgb(229,229,229)" paint-order="fill" d="M 56.5 200.5 L 256.5 200.5 M 56.5 173.5 L 256.5 173.5 M 56.5 146.5 L 256.5 146.5 M 56.5 118.5 L 256.5 118.5 M 56.5 91.5 L 256.5 91.5 M 56.5 64.5 L 256.5 64.5 M 56.5 37.5 L 256.5 37.5" stroke-opacity="1" stroke-linejoin="bevel" stroke-miterlimit="10" stroke-dasharray="" clip-path="url(#lvXweixmTEPy)"/><path fill="none" stroke="none"/><path fill="rgb(31,119,180)" stroke="rgb(31,119,180)" paint-order="fill" d="M 111.76043701171875 176.575439453125 A 2 2 0 1 1 111.76043601171884 176.57343945345832" fill-opacity="1" clip-path="url(#bLTdFoFDvRWO)" stroke-opacity="1" stroke-linejoin="bevel" stroke-miterlimit="10" stroke-dasharray=""/><path fill="rgb(31,119,180)" stroke="rgb(31,119,180)" paint-order="fill" d="M 137.2774658203125 173.7525177001953 A 2 2 0 1 1 137.2774648203126 173.75051770052863" fill-opacity="1" clip-path="url(#bLTdFoFDvRWO)" stroke-opacity="1" stroke-linejoin="bevel" stroke-miterlimit="10" stroke-dasharray=""/><path fill="rgb(31,119,180)" stroke="rgb(31,119,180)" paint-order="fill" d="M 98.45626068115234 155.65504455566406 A 2 2 0 1 1 98.45625968115243 155.65304455599738" fill-opacity="1" clip-path="url(#bLTdFoFDvRWO)" stroke-opacity="1" stroke-linejoin="bevel" stroke-miterlimit="10" stroke-dasharray=""/><path fill="rgb(31,119,180)" stroke="rgb(31,119,180)" paint-order="fill" d="M 190.14427185058594 201.78199768066406 A 2 2 0 1 1 190.14427085058603 201.77999768099738" fill-opacity="1" clip-path="url(#bLTdFoFDvRWO)" stroke-opacity="1" stroke-linejoin="bevel" stroke-miterlimit="10" stroke-dasharray=""/><path fill="rgb(31,119,180)" stroke="rgb(31,119,180)" paint-order="fill" d="M 98.4312744140625 186.7241973876953 A 2 2 0 1 1 98.43127341406259 186.72219738802863" fill-opacity="1" clip-path="url(#bLTdFoFDvRWO)" stroke-opacity="1" stroke-linejoin="bevel" stroke-miterlimit="10" stroke-dasharray=""/><path fill="rgb(31,119,180)" stroke="rgb(31,119,180)" paint-order="fill" d="M 124.61475372314453 134.06907653808594 A 2 2 0 1 1 124.61475272314462 134.06707653841926" fill-opacity="1" clip-path="url(#bLTdFoFDvRWO)" stroke-opacity="1" stroke-linejoin="bevel" stroke-miterlimit="10" stroke-dasharray=""/><path fill="rgb(31,119,180)" stroke="rgb(31,119,180)" paint-order="fill" d="M 211.77085876464844 191.33233642578125 A 2 2 0 1 1 211.77085776464853 191.33033642611457" fill-opacity="1" clip-path="url(#bLTdFoFDvRWO)" stroke-opacity="1" stroke-linejoin="bevel" stroke-miterlimit="10" stroke-dasharray=""/><path fill="rgb(31,119,180)" stroke="rgb(31,119,180)" paint-order="fill" d="M 199.52467346191406 125.93042755126953 A 2 2 0 1 1 199.52467246191415 125.92842755160287" fill-opacity="1" clip-path="url(#bLTdFoFDvRWO)" stroke-opacity="1" stroke-linejoin="bevel" stroke-miterlimit="10" stroke-dasharray=""/><path fill="rgb(31,119,180)" stroke="rgb(31,119,180)" paint-order="fill" d="M 200.49937438964844 145.0856475830078 A 2 2 0 1 1 200.49937338964853 145.08364758334113" fill-opacity="1" clip-path="url(#bLTdFoFDvRWO)" stroke-opacity="1" stroke-linejoin="bevel" stroke-miterlimit="10" stroke-dasharray=""/><path fill="rgb(31,119,180)" stroke="rgb(31,119,180)" paint-order="fill" d="M 227.47427368164062 36.59090805053711 A 2 2 0 1 1 227.4742726816407 36.588908050870444" fill-opacity="1" clip-path="url(#bLTdFoFDvRWO)" stroke-opacity="1" stroke-linejoin="bevel" stroke-miterlimit="10" stroke-dasharray=""/><path fill="rgb(31,119,180)" stroke="rgb(31,119,180)" paint-order="fill" d="M 89.20082092285156 153.40463256835938 A 2 2 0 1 1 89.20081992285165 153.4026325686927" fill-opacity="1" clip-path="url(#bLTdFoFDvRWO)" stroke-opacity="1" stroke-linejoin="bevel" stroke-miterlimit="10" stroke-dasharray=""/><path fill="rgb(31,119,180)" stroke="rgb(31,119,180)" paint-order="fill" d="M 227.26600646972656 88.86492919921875 A 2 2 0 1 1 227.26600546972665 88.86292919955208" fill-opacity="1" clip-path="url(#bLTdFoFDvRWO)" stroke-opacity="1" stroke-linejoin="bevel" stroke-miterlimit="10" stroke-dasharray=""/><path fill="rgb(31,119,180)" stroke="rgb(31,119,180)" paint-order="fill" d="M 78.47084045410156 183.83160400390625 A 2 2 0 1 1 78.47083945410165 183.82960400423957" fill-opacity="1" clip-path="url(#bLTdFoFDvRWO)" stroke-opacity="1" stroke-linejoin="bevel" stroke-miterlimit="10" stroke-dasharray=""/><path fill="rgb(31,119,180)" stroke="rgb(31,119,180)" paint-order="fill" d="M 249.40908813476562 70.3377685546875 A 2 2 0 1 1 249.4090871347657 70.33576855502083" fill-opacity="1" clip-path="url(#bLTdFoFDvRWO)" stroke-opacity="1" stroke-linejoin="bevel" stroke-miterlimit="10" stroke-dasharray=""/><path fill="rgb(31,119,180)" stroke="rgb(31,119,180)" paint-order="fill" d="M 207.4971923828125 140.1392059326172 A 2 2 0 1 1 207.4971913828126 140.1372059329505" fill-opacity="1" clip-path="url(#bLTdFoFDvRWO)" stroke-opacity="1" stroke-linejoin="bevel" stroke-miterlimit="10" stroke-dasharray=""/><path fill="rgb(31,119,180)" stroke="rgb(31,119,180)" paint-order="fill" d="M 180.69723510742188 140.9810028076172 A 2 2 0 1 1 180.69723410742196 140.9790028079505" fill-opacity="1" clip-path="url(#bLTdFoFDvRWO)" stroke-opacity="1" stroke-linejoin="bevel" stroke-miterlimit="10" stroke-dasharray=""/><path fill="rgb(31,119,180)" stroke="rgb(31,119,180)" paint-order="fill" d="M 142.09262084960938 159.4549102783203 A 2 2 0 1 1 142.09261984960946 159.45291027865363" fill-opacity="1" clip-path="url(#bLTdFoFDvRWO)" stroke-opacity="1" stroke-linejoin="bevel" stroke-miterlimit="10" stroke-dasharray=""/><path fill="rgb(31,119,180)" stroke="rgb(31,119,180)" paint-order="fill" d="M 67.59091186523438 218.40908813476562 A 2 2 0 1 1 67.59091086523446 218.40708813509895" fill-opacity="1" clip-path="url(#bLTdFoFDvRWO)" stroke-opacity="1" stroke-linejoin="bevel" stroke-miterlimit="10" stroke-dasharray=""/><path fill="rgb(31,119,180)" stroke="rgb(31,119,180)" paint-order="fill" d="M 231.22311401367188 56.78828811645508 A 2 2 0 1 1 231.22311301367196 56.78628811678841" fill-opacity="1" clip-path="url(#bLTdFoFDvRWO)" stroke-opacity="1" stroke-linejoin="bevel" stroke-miterlimit="10" stroke-dasharray=""/><path fill="rgb(31,119,180)" stroke="rgb(31,119,180)" paint-order="fill" d="M 145.09169006347656 161.84532165527344 A 2 2 0 1 1 145.09168906347665 161.84332165560676" fill-opacity="1" clip-path="url(#bLTdFoFDvRWO)" stroke-opacity="1" stroke-linejoin="bevel" stroke-miterlimit="10" stroke-dasharray=""/><path fill="rgb(31,119,180)" stroke="rgb(31,119,180)" paint-order="fill" d="M 228.84051513671875 90.69874572753906 A 2 2 0 1 1 228.84051413671884 90.6967457278724" fill-opacity="1" clip-path="url(#bLTdFoFDvRWO)" stroke-opacity="1" stroke-linejoin="bevel" stroke-miterlimit="10" stroke-dasharray=""/><path fill="none" stroke="rgb(0,0,0)" paint-order="fill" d="M 56.5 227.5 L 256.5 227.5" stroke-opacity="1" stroke-linejoin="bevel" stroke-miterlimit="10" stroke-dasharray=""/><path fill="none" stroke="rgb(0,0,0)" paint-order="fill" d="M 68.5 233.5 L 68.5 225.5 M 110.5 233.5 L 110.5 225.5 M 151.5 233.5 L 151.5 225.5 M 193.5 233.5 L 193.5 225.5 M 235.5 233.5 L 235.5 225.5" stroke-opacity="1" stroke-linejoin="bevel" stroke-miterlimit="10" stroke-dasharray=""/><path fill="none" stroke="rgb(0,0,0)" paint-order="fill" d="M 60.5 231.5 L 60.5 227.5 M 68.5 231.5 L 68.5 227.5 M 76.5 231.5 L 76.5 227.5 M 85.5 231.5 L 85.5 227.5 M 93.5 231.5 L 93.5 227.5 M 101.5 231.5 L 101.5 227.5 M 110.5 231.5 L 110.5 227.5 M 118.5 231.5 L 118.5 227.5 M 126.5 231.5 L 126.5 227.5 M 135.5 231.5 L 135.5 227.5 M 143.5 231.5 L 143.5 227.5 M 151.5 231.5 L 151.5 227.5 M 160.5 231.5 L 160.5 227.5 M 168.5 231.5 L 168.5 227.5 M 176.5 231.5 L 176.5 227.5 M 185.5 231.5 L 185.5 227.5 M 193.5 231.5 L 193.5 227.5 M 201.5 231.5 L 201.5 227.5 M 210.5 231.5 L 210.5 227.5 M 218.5 231.5 L 218.5 227.5 M 226.5 231.5 L 226.5 227.5 M 235.5 231.5 L 235.5 227.5 M 243.5 231.5 L 243.5 227.5 M 251.5 231.5 L 251.5 227.5" stroke-opacity="1" stroke-linejoin="bevel" stroke-miterlimit="10" stroke-dasharray=""/><text fill="rgb(68,68,68)" stroke="none" font-family="helvetica" font-size="11px" font-style="normal" font-weight="normal" text-decoration="normal" x="55.7681884765625" y="245.89013671875" text-anchor="start" dominant-baseline="alphabetic" transform="matrix(1, 0, 0, 1, 0.5, 0.5)" fill-opacity="1">−150</text><text fill="rgb(68,68,68)" stroke="none" font-family="helvetica" font-size="11px" font-style="normal" font-weight="normal" text-decoration="normal" x="97.42183685302734" y="245.89013671875" text-anchor="start" dominant-baseline="alphabetic" transform="matrix(1, 0, 0, 1, 0.5, 0.5)" fill-opacity="1">−100</text><text fill="rgb(68,68,68)" stroke="none" font-family="helvetica" font-size="11px" font-style="normal" font-weight="normal" text-decoration="normal" x="142.1343231201172" y="245.89013671875" text-anchor="start" dominant-baseline="alphabetic" transform="matrix(1, 0, 0, 1, 0.5, 0.5)" fill-opacity="1">−50</text><text fill="rgb(68,68,68)" stroke="none" font-family="helvetica" font-size="11px" font-style="normal" font-weight="normal" text-decoration="normal" x="190.05873107910156" y="245.89013671875" text-anchor="start" dominant-baseline="alphabetic" transform="matrix(1, 0, 0, 1, 0.5, 0.5)" fill-opacity="1">0</text><text fill="rgb(68,68,68)" stroke="none" font-family="helvetica" font-size="11px" font-style="normal" font-weight="normal" text-decoration="normal" x="228.65353393554688" y="245.89013671875" text-anchor="start" dominant-baseline="alphabetic" transform="matrix(1, 0, 0, 1, 0.5, 0.5)" fill-opacity="1">50</text><text fill="rgb(68,68,68)" stroke="none" font-family="helvetica" font-size="13px" font-style="italic" font-weight="normal" text-decoration="normal" x="127.819580078125" y="265.89013671875" text-anchor="start" dominant-baseline="alphabetic" transform="matrix(1, 0, 0, 1, 0.5, 0.5)" fill-opacity="1">Observed</text><path fill="none" stroke="rgb(0,0,0)" paint-order="fill" d="M 56.5 227.5 L 56.5 27.5" stroke-opacity="1" stroke-linejoin="bevel" stroke-miterlimit="10" stroke-dasharray=""/><path fill="none" stroke="rgb(0,0,0)" paint-order="fill" d="M 50.5 200.5 L 58.5 200.5 M 50.5 173.5 L 58.5 173.5 M 50.5 146.5 L 58.5 146.5 M 50.5 118.5 L 58.5 118.5 M 50.5 91.5 L 58.5 91.5 M 50.5 64.5 L 58.5 64.5 M 50.5 37.5 L 58.5 37.5" stroke-opacity="1" stroke-linejoin="bevel" stroke-miterlimit="10" stroke-dasharray=""/><path fill="none" stroke="rgb(0,0,0)" paint-order="fill" d="M 52.5 206.5 L 56.5 206.5 M 52.5 211.5 L 56.5 211.5 M 52.5 216.5 L 56.5 216.5 M 52.5 222.5 L 56.5 222.5 M 52.5 200.5 L 56.5 200.5 M 52.5 195.5 L 56.5 195.5 M 52.5 189.5 L 56.5 189.5 M 52.5 184.5 L 56.5 184.5 M 52.5 178.5 L 56.5 178.5 M 52.5 173.5 L 56.5 173.5 M 52.5 167.5 L 56.5 167.5 M 52.5 162.5 L 56.5 162.5 M 52.5 156.5 L 56.5 156.5 M 52.5 151.5 L 56.5 151.5 M 52.5 146.5 L 56.5 146.5 M 52.5 140.5 L 56.5 140.5 M 52.5 135.5 L 56.5 135.5 M 52.5 129.5 L 56.5 129.5 M 52.5 124.5 L 56.5 124.5 M 52.5 118.5 L 56.5 118.5 M 52.5 113.5 L 56.5 113.5 M 52.5 107.5 L 56.5 107.5 M 52.5 102.5 L 56.5 102.5 M 52.5 97.5 L 56.5 97.5 M 52.5 91.5 L 56.5 91.5 M 52.5 86.5 L 56.5 86.5 M 52.5 80.5 L 56.5 80.5 M 52.5 75.5 L 56.5 75.5 M 52.5 69.5 L 56.5 69.5 M 52.5 64.5 L 56.5 64.5 M 52.5 58.5 L 56.5 58.5 M 52.5 53.5 L 56.5 53.5 M 52.5 47.5 L 56.5 47.5 M 52.5 42.5 L 56.5 42.5 M 52.5 37.5 L 56.5 37.5 M 52.5 31.5 L 56.5 31.5" stroke-opacity="1" stroke-linejoin="bevel" stroke-miterlimit="10" stroke-dasharray=""/><text fill="rgb(68,68,68)" stroke="none" font-family="helvetica" font-size="11px" font-style="normal" font-weight="normal" text-decoration="normal" x="26.3408203125" y="204.0438995361328" text-anchor="start" dominant-baseline="alphabetic" transform="matrix(1, 0, 0, 1, 0.5, 0.5)" fill-opacity="1">−80</text><text fill="rgb(68,68,68)" stroke="none" font-family="helvetica" font-size="11px" font-style="normal" font-weight="normal" text-decoration="normal" x="26.3408203125" y="176.79150390625" text-anchor="start" dominant-baseline="alphabetic" transform="matrix(1, 0, 0, 1, 0.5, 0.5)" fill-opacity="1">−60</text><text fill="rgb(68,68,68)" stroke="none" font-family="helvetica" font-size="11px" font-style="normal" font-weight="normal" text-decoration="normal" x="26.3408203125" y="149.5391082763672" text-anchor="start" dominant-baseline="alphabetic" transform="matrix(1, 0, 0, 1, 0.5, 0.5)" fill-opacity="1">−40</text><text fill="rgb(68,68,68)" stroke="none" font-family="helvetica" font-size="11px" font-style="normal" font-weight="normal" text-decoration="normal" x="26.3408203125" y="122.28671264648438" text-anchor="start" dominant-baseline="alphabetic" transform="matrix(1, 0, 0, 1, 0.5, 0.5)" fill-opacity="1">−20</text><text fill="rgb(68,68,68)" stroke="none" font-family="helvetica" font-size="11px" font-style="normal" font-weight="normal" text-decoration="normal" x="38.88232421875" y="95.03430938720703" text-anchor="start" dominant-baseline="alphabetic" transform="matrix(1, 0, 0, 1, 0.5, 0.5)" fill-opacity="1">0</text><text fill="rgb(68,68,68)" stroke="none" font-family="helvetica" font-size="11px" font-style="normal" font-weight="normal" text-decoration="normal" x="32.7646484375" y="67.78191375732422" text-anchor="start" dominant-baseline="alphabetic" transform="matrix(1, 0, 0, 1, 0.5, 0.5)" fill-opacity="1">20</text><text fill="rgb(68,68,68)" stroke="none" font-family="helvetica" font-size="11px" font-style="normal" font-weight="normal" text-decoration="normal" x="32.7646484375" y="40.529518127441406" text-anchor="start" dominant-baseline="alphabetic" transform="matrix(1, 0, 0, 1, 0.5, 0.5)" fill-opacity="1">40</text><text fill="rgb(68,68,68)" stroke="none" font-family="helvetica" font-size="13px" font-style="italic" font-weight="normal" text-decoration="normal" x="-9.119140625" y="124" text-anchor="start" dominant-baseline="alphabetic" transform="matrix(6.123233995736766e-17, -1, 1, 6.123233995736766e-17, -108.1591796875, 145.8408203125)" fill-opacity="1">Predicted</text><path fill="none" stroke="rgb(255,140,0)" paint-order="fill" d="M 232.8001895241071 27.5 L 110.52500052067083 227.5" stroke-opacity="1" stroke-linejoin="bevel" stroke-miterlimit="10" stroke-width="2" stroke-dasharray="" clip-path="url(#gmDfSTCfupwE)"/><path fill="none" stroke="none"/><text fill="rgb(68,68,68)" stroke="none" font-family="helvetica" font-size="13px" font-style="normal" font-weight="bold" text-decoration="normal" x="0" y="0" text-anchor="start" dominant-baseline="text-after-edge" transform="matrix(1, 0, 0, 1, 56.5, 22.5)" fill-opacity="1">Longitude, &lt;R²&gt; = 0.16</text></svg>