<svg version="1.1" xmlns="http://www.w3.org/2000/svg" xmlns:xlink="http://www.w3.org/1999/xlink" width="490" height="135"><defs><clipPath id="yqgIsAHTkQHP"><path fill="none" stroke="none" d="M 85.5 27.5 L 485.5 27.5 L 485.5 77.5 L 85.5 77.5 L 85.5 27.5"/></clipPath><clipPath id="KTnXVGekkxxo"><path fill="none" stroke="none" d="M 85.5 27.5 L 485.5 27.5 L 485.5 77.5 L 85.5 77.5 L 85.5 27.5"/></clipPath><clipPath id="zWbbFJJFpDFe"><path fill="none" stroke="none" d="M 85.5 27.5 L 485.5 27.5 L 485.5 77.5 L 85.5 77.5 L 85.5 27.5"/></clipPath><clipPath id="pWLCeOalyErk"><path fill="none" stroke="none" d="M 85.5 27.5 L 485.5 27.5 L 485.5 77.5 L 85.5 77.5 L 85.5 27.5"/></clipPath></defs><path fill="none" stroke="rgb(229,229,229)" paint-order="fill" d="M 85.5 27.5 L 485.5 27.5 L 485.5 77.5 L 85.5 77.5 L 85.5 27.5" stroke-opacity="1" stroke-linejoin="bevel" stroke-miterlimit="10" stroke-dasharray=""/><path fill="none" stroke="rgb(229,229,229)" paint-order="fill" d="M 103.5 77.5 L 103.5 27.5 M 159.5 77.5 L 159.5 27.5 M 216.5 77.5 L 216.5 27.5 M 272.5 77.5 L 272.5 27.5 M 328.5 77.5 L 328.5 27.5 M 385.5 77.5 L 385.5 27.5 M 441.5 77.5 L 441.5 27.5" stroke-opacity="1" stroke-linejoin="bevel" stroke-miterlimit="10" stroke-dasharray="" clip-path="url(#yqgIsAHTkQHP)"/><path fill="none" stroke="rgb(229,229,229)" paint-order="fill" d="M 85.5 71.5 L 485.5 71.5 M 85.5 58.5 L 485.5 58.5 M 85.5 46.5 L 485.5 46.5 M 85.5 33.5 L 485.5 33.5" stroke-opacity="1" stroke-linejoin="bevel" stroke-miterlimit="10" stroke-dasharray="" clip-path="url(#KTnXVGekkxxo)"/><path fill="none" stroke="none"/><path fill="rgb(165,215,92)" stroke="none" paint-order="stroke" d="M 103.68181610107422 28.75 L 467.31817626953125 28.75 L 467.31817626953125 38.75 L 103.68181610107422 38.75 L 103.68181610107422 28.75" fill-opacity="1" clip-path="url(#zWbbFJJFpDFe)"/><path fill="none" stroke="rgb(165,215,92)" paint-order="fill" d="M 103.68181610107422 28.75 L 467.31817626953125 28.75 L 467.31817626953125 38.75 L 103.68181610107422 38.75 L 103.68181610107422 28.75" stroke-opacity="1" stroke-linejoin="bevel" stroke-miterlimit="10" stroke-dasharray="" clip-path="url(#zWbbFJJFpDFe)"/><path fill="rgb(128,206,100)" stroke="none" paint-order="stroke" d="M 103.68181610107422 41.25 L 370.6802978515625 41.25 L 370.6802978515625 51.25 L 103.68181610107422 51.25 L 103.68181610107422 41.25" fill-opacity="1" clip-path="url(#zWbbFJJFpDFe)"/><path fill="none" stroke="rgb(128,206,100)" paint-order="fill" d="M 103.68181610107422 41.25 L 370.6802978515625 41.25 L 370.6802978515625 51.25 L 103.68181610107422 51.25 L 103.68181610107422 41.25" stroke-opacity="1" stroke-linejoin="bevel" stroke-miterlimit="10" stroke-dasharray="" clip-path="url(#zWbbFJJFpDFe)"/><path fill="rgb(122,203,103)" stroke="none" paint-order="stroke" d="M 103.68181610107422 53.75 L 368.0191345214844 53.75 L 368.0191345214844 63.75 L 103.68181610107422 63.75 L 103.68181610107422 53.75" fill-opacity="1" clip-path="url(#zWbbFJJFpDFe)"/><path fill="none" stroke="rgb(122,203,103)" paint-order="fill" d="M 103.68181610107422 53.75 L 368.0191345214844 53.75 L 368.0191345214844 63.75 L 103.68181610107422 63.75 L 103.68181610107422 53.75" stroke-opacity="1" stroke-linejoin="bevel" stroke-miterlimit="10" stroke-dasharray="" clip-path="url(#zWbbFJJFpDFe)"/><path fill="rgb(124,204,102)" stroke="none" paint-order="stroke" d="M 103.68181610107422 66.25 L 364.2709655761719 66.25 L 364.2709655761719 76.25 L 103.68181610107422 76.25 L 103.68181610107422 66.25" fill-opacity="1" clip-path="url(#zWbbFJJFpDFe)"/><path fill="none" stroke="rgb(124,204,102)" paint-order="fill" d="M 103.68181610107422 66.25 L 364.2709655761719 66.25 L 364.2709655761719 76.25 L 103.68181610107422 76.25 L 103.68181610107422 66.25" stroke-opacity="1" stroke-linejoin="bevel" stroke-miterlimit="10" stroke-dasharray="" clip-path="url(#zWbbFJJFpDFe)"/><path fill="none" stroke="rgb(0,0,0)" paint-order="fill" d="M 85.5 77.5 L 485.5 77.5" stroke-opacity="1" stroke-linejoin="bevel" stroke-miterlimit="10" stroke-dasharray=""/><path fill="none" stroke="rgb(0,0,0)" paint-order="fill" d="M 103.5 83.5 L 103.5 75.5 M 159.5 83.5 L 159.5 75.5 M 216.5 83.5 L 216.5 75.5 M 272.5 83.5 L 272.5 75.5 M 328.5 83.5 L 328.5 75.5 M 385.5 83.5 L 385.5 75.5 M 441.5 83.5 L 441.5 75.5" stroke-opacity="1" stroke-linejoin="bevel" stroke-miterlimit="10" stroke-dasharray=""/><path fill="none" stroke="rgb(0,0,0)" paint-order="fill" d="M 92.5 81.5 L 92.5 77.5 M 103.5 81.5 L 103.5 77.5 M 114.5 81.5 L 114.5 77.5 M 126.5 81.5 L 126.5 77.5 M 137.5 81.5 L 137.5 77.5 M 148.5 81.5 L 148.5 77.5 M 159.5 81.5 L 159.5 77.5 M 171.5 81.5 L 171.5 77.5 M 182.5 81.5 L 182.5 77.5 M 193.5 81.5 L 193.5 77.5 M 204.5 81.5 L 204.5 77.5 M 216.5 81.5 L 216.5 77.5 M 227.5 81.5 L 227.5 77.5 M 238.5 81.5 L 238.5 77.5 M 249.5 81.5 L 249.5 77.5 M 261.5 81.5 L 261.5 77.5 M 272.5 81.5 L 272.5 77.5 M 283.5 81.5 L 283.5 77.5 M 295.5 81.5 L 295.5 77.5 M 306.5 81.5 L 306.5 77.5 M 317.5 81.5 L 317.5 77.5 M 328.5 81.5 L 328.5 77.5 M 340.5 81.5 L 340.5 77.5 M 351.5 81.5 L 351.5 77.5 M 362.5 81.5 L 362.5 77.5 M 373.5 81.5 L 373.5 77.5 M 385.5 81.5 L 385.5 77.5 M 396.5 81.5 L 396.5 77.5 M 407.5 81.5 L 407.5 77.5 M 418.5 81.5 L 418.5 77.5 M 430.5 81.5 L 430.5 77.5 M 441.5 81.5 L 441.5 77.5 M 452.5 81.5 L 452.5 77.5 M 463.5 81.5 L 463.5 77.5 M 475.5 81.5 L 475.5 77.5" stroke-opacity="1" stroke-linejoin="bevel" stroke-miterlimit="10" stroke-dasharray=""/><text fill="rgb(68,68,68)" stroke="none" font-family="helvetica" font-size="11px" font-style="normal" font-weight="normal" text-decoration="normal" x="97.06414031982422" y="91.945068359375" text-anchor="start" dominant-baseline="alphabetic" transform="matrix(0.7071067811865476, -0.7071067811865475, 0.7071067811865475, 0.7071067811865476, -31.504142503554817, 99.23516511579668)" fill-opacity="1">0</text><text fill="rgb(68,68,68)" stroke="none" font-family="helvetica" font-size="11px" font-style="normal" font-weight="normal" text-decoration="normal" x="138.04798889160156" y="91.945068359375" text-anchor="start" dominant-baseline="alphabetic" transform="matrix(0.7071067811865476, -0.7071067811865475, 0.7071067811865475, 0.7071067811865476, -15.021473376403804, 139.027848466673)" fill-opacity="1">0.01</text><text fill="rgb(68,68,68)" stroke="none" font-family="helvetica" font-size="11px" font-style="normal" font-weight="normal" text-decoration="normal" x="194.32333374023438" y="91.945068359375" text-anchor="start" dominant-baseline="alphabetic" transform="matrix(0.7071067811865476, -0.7071067811865475, 0.7071067811865475, 0.7071067811865476, 1.461193516149308, 178.82052642275272)" fill-opacity="1">0.02</text><text fill="rgb(68,68,68)" stroke="none" font-family="helvetica" font-size="11px" font-style="normal" font-weight="normal" text-decoration="normal" x="250.59866333007812" y="91.945068359375" text-anchor="start" dominant-baseline="alphabetic" transform="matrix(0.7071067811865476, -0.7071067811865475, 0.7071067811865475, 0.7071067811865476, 17.943855939506562, 218.6131935892392)" fill-opacity="1">0.03</text><text fill="rgb(68,68,68)" stroke="none" font-family="helvetica" font-size="11px" font-style="normal" font-weight="normal" text-decoration="normal" x="306.8740234375" y="91.945068359375" text-anchor="start" dominant-baseline="alphabetic" transform="matrix(0.7071067811865476, -0.7071067811865475, 0.7071067811865475, 0.7071067811865476, 34.42652730125553, 258.4058823349121)" fill-opacity="1">0.04</text><text fill="rgb(68,68,68)" stroke="none" font-family="helvetica" font-size="11px" font-style="normal" font-weight="normal" text-decoration="normal" x="363.1493835449219" y="91.945068359375" text-anchor="start" dominant-baseline="alphabetic" transform="matrix(0.7071067811865476, -0.7071067811865475, 0.7071067811865475, 0.7071067811865476, 50.909198663004474, 298.19857108058505)" fill-opacity="1">0.05</text><text fill="rgb(68,68,68)" stroke="none" font-family="helvetica" font-size="11px" font-style="normal" font-weight="normal" text-decoration="normal" x="419.4247131347656" y="91.945068359375" text-anchor="start" dominant-baseline="alphabetic" transform="matrix(0.7071067811865476, -0.7071067811865475, 0.7071067811865475, 0.7071067811865476, 67.3918610863617, 337.9912382470715)" fill-opacity="1">0.06</text><text fill="rgb(68,68,68)" stroke="none" font-family="helvetica" font-size="13px" font-style="italic" font-weight="normal" text-decoration="normal" x="252.484130859375" y="128.71774531498966" text-anchor="start" dominant-baseline="alphabetic" transform="matrix(1, 0, 0, 1, 0.5, 0.5)" fill-opacity="1">Importance</text><path fill="none" stroke="rgb(0,0,0)" paint-order="fill" d="M 85.5 77.5 L 85.5 27.5" stroke-opacity="1" stroke-linejoin="bevel" stroke-miterlimit="10" stroke-dasharray=""/><path fill="none" stroke="rgb(0,0,0)" paint-order="fill" d="M 79.5 71.5 L 87.5 71.5 M 79.5 58.5 L 87.5 58.5 M 79.5 46.5 L 87.5 46.5 M 79.5 33.5 L 87.5 33.5" stroke-opacity="1" stroke-linejoin="bevel" stroke-miterlimit="10" stroke-dasharray=""/><path fill="none" stroke="rgb(0,0,0)" paint-order="fill" d="" stroke-opacity="1" stroke-linejoin="bevel" stroke-miterlimit="10" stroke-dasharray=""/><text fill="rgb(68,68,68)" stroke="none" font-family="helvetica" font-size="11px" font-style="normal" font-weight="normal" text-decoration="normal" x="23.275390625" y="74.25" text-anchor="start" dominant-baseline="alphabetic" transform="matrix(1, 0, 0, 1, 0.5, 0.5)" fill-opacity="1">Firmicutes</text><text fill="rgb(68,68,68)" stroke="none" font-family="helvetica" font-size="11px" font-style="normal" font-weight="normal" text-decoration="normal" x="4.2939453125" y="61.75" text-anchor="start" dominant-baseline="alphabetic" transform="matrix(1, 0, 0, 1, 0.5, 0.5)" fill-opacity="1">Actinobacteria</text><text fill="rgb(68,68,68)" stroke="none" font-family="helvetica" font-size="11px" font-style="normal" font-weight="normal" text-decoration="normal" x="3.0693359375" y="49.25" text-anchor="start" dominant-baseline="alphabetic" transform="matrix(1, 0, 0, 1, 0.5, 0.5)" fill-opacity="1">Cyanobacteria</text><text fill="rgb(68,68,68)" stroke="none" font-family="helvetica" font-size="11px" font-style="normal" font-weight="normal" text-decoration="normal" x="6.73779296875" y="36.75" text-anchor="start" dominant-baseline="alphabetic" transform="matrix(1, 0, 0, 1, 0.5, 0.5)" fill-opacity="1">Bacteroidetes</text><path fill="none" stroke="none"/><text fill="rgb(68,68,68)" stroke="none" font-family="helvetica" font-size="13px" font-style="normal" font-weight="bold" text-decoration="normal" x="0" y="0" text-anchor="start" dominant-baseline="text-after-edge" transform="matrix(1, 0, 0, 1, 85.5, 22.5)" fill-opacity="1">Region</text></svg>