<svg version="1.1" xmlns="http://www.w3.org/2000/svg" xmlns:xlink="http://www.w3.org/1999/xlink" width="601" height="143"><defs><clipPath id="NuLRTshLuDGm"><path fill="none" stroke="none" d="M 196.5 27.5 L 596.5 27.5 L 596.5 77.5 L 196.5 77.5 L 196.5 27.5"/></clipPath><clipPath id="JqISmsyQkrAq"><path fill="none" stroke="none" d="M 196.5 27.5 L 596.5 27.5 L 596.5 77.5 L 196.5 77.5 L 196.5 27.5"/></clipPath><clipPath id="zBFvcozxGHLQ"><path fill="none" stroke="none" d="M 196.5 27.5 L 596.5 27.5 L 596.5 77.5 L 196.5 77.5 L 196.5 27.5"/></clipPath><clipPath id="qbSfUzQSkAyc"><path fill="none" stroke="none" d="M 196.5 27.5 L 596.5 27.5 L 596.5 77.5 L 196.5 77.5 L 196.5 27.5"/></clipPath></defs><path fill="none" stroke="rgb(229,229,229)" paint-order="fill" d="M 196.5 27.5 L 596.5 27.5 L 596.5 77.5 L 196.5 77.5 L 196.5 27.5" stroke-opacity="1" stroke-linejoin="bevel" stroke-miterlimit="10" stroke-dasharray=""/><path fill="none" stroke="rgb(229,229,229)" paint-order="fill" d="M 214.5 77.5 L 214.5 27.5 M 273.5 77.5 L 273.5 27.5 M 331.5 77.5 L 331.5 27.5 M 390.5 77.5 L 390.5 27.5 M 449.5 77.5 L 449.5 27.5 M 507.5 77.5 L 507.5 27.5 M 566.5 77.5 L 566.5 27.5" stroke-opacity="1" stroke-linejoin="bevel" stroke-miterlimit="10" stroke-dasharray="" clip-path="url(#NuLRTshLuDGm)"/><path fill="none" stroke="rgb(229,229,229)" paint-order="fill" d="M 196.5 71.5 L 596.5 71.5 M 196.5 58.5 L 596.5 58.5 M 196.5 46.5 L 596.5 46.5 M 196.5 33.5 L 596.5 33.5" stroke-opacity="1" stroke-linejoin="bevel" stroke-miterlimit="10" stroke-dasharray="" clip-path="url(#JqISmsyQkrAq)"/><path fill="none" stroke="none"/><path fill="rgb(67,160,132)" stroke="none" paint-order="stroke" d="M 214.68182373046875 28.75 L 578.3181762695312 28.75 L 578.3181762695312 38.75 L 214.68182373046875 38.75 L 214.68182373046875 28.75" fill-opacity="1" clip-path="url(#zBFvcozxGHLQ)"/><path fill="none" stroke="rgb(67,160,132)" paint-order="fill" d="M 214.68182373046875 28.75 L 578.3181762695312 28.75 L 578.3181762695312 38.75 L 214.68182373046875 38.75 L 214.68182373046875 28.75" stroke-opacity="1" stroke-linejoin="bevel" stroke-miterlimit="10" stroke-dasharray="" clip-path="url(#zBFvcozxGHLQ)"/><path fill="rgb(67,160,132)" stroke="none" paint-order="stroke" d="M 214.68182373046875 41.25 L 567.633544921875 41.25 L 567.633544921875 51.25 L 214.68182373046875 51.25 L 214.68182373046875 41.25" fill-opacity="1" clip-path="url(#zBFvcozxGHLQ)"/><path fill="none" stroke="rgb(67,160,132)" paint-order="fill" d="M 214.68182373046875 41.25 L 567.633544921875 41.25 L 567.633544921875 51.25 L 214.68182373046875 51.25 L 214.68182373046875 41.25" stroke-opacity="1" stroke-linejoin="bevel" stroke-miterlimit="10" stroke-dasharray="" clip-path="url(#zBFvcozxGHLQ)"/><path fill="rgb(67,159,133)" stroke="none" paint-order="stroke" d="M 214.68182373046875 53.75 L 526.2214965820312 53.75 L 526.2214965820312 63.75 L 214.68182373046875 63.75 L 214.68182373046875 53.75" fill-opacity="1" clip-path="url(#zBFvcozxGHLQ)"/><path fill="none" stroke="rgb(67,159,133)" paint-order="fill" d="M 214.68182373046875 53.75 L 526.2214965820312 53.75 L 526.2214965820312 63.75 L 214.68182373046875 63.75 L 214.68182373046875 53.75" stroke-opacity="1" stroke-linejoin="bevel" stroke-miterlimit="10" stroke-dasharray="" clip-path="url(#zBFvcozxGHLQ)"/><path fill="rgb(67,159,133)" stroke="none" paint-order="stroke" d="M 214.68182373046875 66.25 L 495.6334533691406 66.25 L 495.6334533691406 76.25 L 214.68182373046875 76.25 L 214.68182373046875 66.25" fill-opacity="1" clip-path="url(#zBFvcozxGHLQ)"/><path fill="none" stroke="rgb(67,159,133)" paint-order="fill" d="M 214.68182373046875 66.25 L 495.6334533691406 66.25 L 495.6334533691406 76.25 L 214.68182373046875 76.25 L 214.68182373046875 66.25" stroke-opacity="1" stroke-linejoin="bevel" stroke-miterlimit="10" stroke-dasharray="" clip-path="url(#zBFvcozxGHLQ)"/><path fill="none" stroke="rgb(0,0,0)" paint-order="fill" d="M 196.5 77.5 L 596.5 77.5" stroke-opacity="1" stroke-linejoin="bevel" stroke-miterlimit="10" stroke-dasharray=""/><path fill="none" stroke="rgb(0,0,0)" paint-order="fill" d="M 214.5 83.5 L 214.5 75.5 M 273.5 83.5 L 273.5 75.5 M 331.5 83.5 L 331.5 75.5 M 390.5 83.5 L 390.5 75.5 M 449.5 83.5 L 449.5 75.5 M 507.5 83.5 L 507.5 75.5 M 566.5 83.5 L 566.5 75.5" stroke-opacity="1" stroke-linejoin="bevel" stroke-miterlimit="10" stroke-dasharray=""/><path fill="none" stroke="rgb(0,0,0)" paint-order="fill" d="M 202.5 81.5 L 202.5 77.5 M 214.5 81.5 L 214.5 77.5 M 226.5 81.5 L 226.5 77.5 M 238.5 81.5 L 238.5 77.5 M 249.5 81.5 L 249.5 77.5 M 261.5 81.5 L 261.5 77.5 M 273.5 81.5 L 273.5 77.5 M 284.5 81.5 L 284.5 77.5 M 296.5 81.5 L 296.5 77.5 M 308.5 81.5 L 308.5 77.5 M 320.5 81.5 L 320.5 77.5 M 331.5 81.5 L 331.5 77.5 M 343.5 81.5 L 343.5 77.5 M 355.5 81.5 L 355.5 77.5 M 367.5 81.5 L 367.5 77.5 M 378.5 81.5 L 378.5 77.5 M 390.5 81.5 L 390.5 77.5 M 402.5 81.5 L 402.5 77.5 M 413.5 81.5 L 413.5 77.5 M 425.5 81.5 L 425.5 77.5 M 437.5 81.5 L 437.5 77.5 M 449.5 81.5 L 449.5 77.5 M 460.5 81.5 L 460.5 77.5 M 472.5 81.5 L 472.5 77.5 M 484.5 81.5 L 484.5 77.5 M 495.5 81.5 L 495.5 77.5 M 507.5 81.5 L 507.5 77.5 M 519.5 81.5 L 519.5 77.5 M 531.5 81.5 L 531.5 77.5 M 542.5 81.5 L 542.5 77.5 M 554.5 81.5 L 554.5 77.5 M 566.5 81.5 L 566.5 77.5 M 577.5 81.5 L 577.5 77.5 M 589.5 81.5 L 589.5 77.5" stroke-opacity="1" stroke-linejoin="bevel" stroke-miterlimit="10" stroke-dasharray=""/><text fill="rgb(68,68,68)" stroke="none" font-family="helvetica" font-size="11px" font-style="normal" font-weight="normal" text-decoration="normal" x="208.06414794921875" y="91.945068359375" text-anchor="start" dominant-baseline="alphabetic" transform="matrix(0.7071067811865476, -0.7071067811865475, 0.7071067811865475, 0.7071067811865476, 1.0070070193362994, 177.72402322230005)" fill-opacity="1">0</text><text fill="rgb(68,68,68)" stroke="none" font-family="helvetica" font-size="11px" font-style="normal" font-weight="normal" text-decoration="normal" x="239.12490844726562" y="91.945068359375" text-anchor="start" dominant-baseline="alphabetic" transform="matrix(0.7071067811865476, -0.7071067811865475, 0.7071067811865475, 0.7071067811865476, 18.16692244245786, 219.15172376597536)" fill-opacity="1">0.0005</text><text fill="rgb(68,68,68)" stroke="none" font-family="helvetica" font-size="11px" font-style="normal" font-weight="normal" text-decoration="normal" x="303.8302307128906" y="91.945068359375" text-anchor="start" dominant-baseline="alphabetic" transform="matrix(0.7071067811865476, -0.7071067811865475, 0.7071067811865475, 0.7071067811865476, 35.32684680397108, 260.57944588883714)" fill-opacity="1">0.001</text><text fill="rgb(68,68,68)" stroke="none" font-family="helvetica" font-size="11px" font-style="normal" font-weight="normal" text-decoration="normal" x="356.3002014160156" y="91.945068359375" text-anchor="start" dominant-baseline="alphabetic" transform="matrix(0.7071067811865476, -0.7071067811865475, 0.7071067811865475, 0.7071067811865476, 52.486771165484356, 302.00716801169887)" fill-opacity="1">0.0015</text><text fill="rgb(68,68,68)" stroke="none" font-family="helvetica" font-size="11px" font-style="normal" font-weight="normal" text-decoration="normal" x="421.0054931640625" y="91.945068359375" text-anchor="start" dominant-baseline="alphabetic" transform="matrix(0.7071067811865476, -0.7071067811865475, 0.7071067811865475, 0.7071067811865476, 69.64668658860592, 343.4348685553742)" fill-opacity="1">0.002</text><text fill="rgb(68,68,68)" stroke="none" font-family="helvetica" font-size="11px" font-style="normal" font-weight="normal" text-decoration="normal" x="473.4754638671875" y="91.945068359375" text-anchor="start" dominant-baseline="alphabetic" transform="matrix(0.7071067811865476, -0.7071067811865475, 0.7071067811865475, 0.7071067811865476, 86.80661095011914, 384.86259067823596)" fill-opacity="1">0.0025</text><text fill="rgb(68,68,68)" stroke="none" font-family="helvetica" font-size="11px" font-style="normal" font-weight="normal" text-decoration="normal" x="538.1807861328125" y="91.945068359375" text-anchor="start" dominant-baseline="alphabetic" transform="matrix(0.7071067811865476, -0.7071067811865475, 0.7071067811865475, 0.7071067811865476, 103.96653531163241, 426.2903128010977)" fill-opacity="1">0.003</text><text fill="rgb(68,68,68)" stroke="none" font-family="helvetica" font-size="13px" font-style="italic" font-weight="normal" text-decoration="normal" x="363.484130859375" y="137.36944537503481" text-anchor="start" dominant-baseline="alphabetic" transform="matrix(1, 0, 0, 1, 0.5, 0.5)" fill-opacity="1">Importance</text><path fill="none" stroke="rgb(0,0,0)" paint-order="fill" d="M 196.5 77.5 L 196.5 27.5" stroke-opacity="1" stroke-linejoin="bevel" stroke-miterlimit="10" stroke-dasharray=""/><path fill="none" stroke="rgb(0,0,0)" paint-order="fill" d="M 190.5 71.5 L 198.5 71.5 M 190.5 58.5 L 198.5 58.5 M 190.5 46.5 L 198.5 46.5 M 190.5 33.5 L 198.5 33.5" stroke-opacity="1" stroke-linejoin="bevel" stroke-miterlimit="10" stroke-dasharray=""/><path fill="none" stroke="rgb(0,0,0)" paint-order="fill" d="" stroke-opacity="1" stroke-linejoin="bevel" stroke-miterlimit="10" stroke-dasharray=""/><text fill="rgb(68,68,68)" stroke="none" font-family="helvetica" font-size="11px" font-style="normal" font-weight="normal" text-decoration="normal" x="63.31787109375" y="74.25" text-anchor="start" dominant-baseline="alphabetic" transform="matrix(1, 0, 0, 1, 0.5, 0.5)" fill-opacity="1">Proteobacteria Surface 1</text><text fill="rgb(68,68,68)" stroke="none" font-family="helvetica" font-size="11px" font-style="normal" font-weight="normal" text-decoration="normal" x="48.66552734375" y="61.75" text-anchor="start" dominant-baseline="alphabetic" transform="matrix(1, 0, 0, 1, 0.5, 0.5)" fill-opacity="1">Proteobacteria JL-ETNP-Y6</text><text fill="rgb(68,68,68)" stroke="none" font-family="helvetica" font-size="11px" font-style="normal" font-weight="normal" text-decoration="normal" x="3.39794921875" y="49.25" text-anchor="start" dominant-baseline="alphabetic" transform="matrix(1, 0, 0, 1, 0.5, 0.5)" fill-opacity="1">Proteobacteria ZD0417 marine group</text><text fill="rgb(68,68,68)" stroke="none" font-family="helvetica" font-size="11px" font-style="normal" font-weight="normal" text-decoration="normal" x="55.3740234375" y="36.75" text-anchor="start" dominant-baseline="alphabetic" transform="matrix(1, 0, 0, 1, 0.5, 0.5)" fill-opacity="1">Cyanobacteria Chloroplast</text><path fill="none" stroke="none"/><text fill="rgb(68,68,68)" stroke="none" font-family="helvetica" font-size="13px" font-style="normal" font-weight="bold" text-decoration="normal" x="0" y="0" text-anchor="start" dominant-baseline="text-after-edge" transform="matrix(1, 0, 0, 1, 196.5, 22.5)" fill-opacity="1">Biome</text></svg>