<svg version="1.1" xmlns="http://www.w3.org/2000/svg" xmlns:xlink="http://www.w3.org/1999/xlink" width="581" height="130"><defs><clipPath id="aLEcFZCNlsqk"><path fill="none" stroke="none" d="M 176.5 27.5 L 576.5 27.5 L 576.5 77.5 L 176.5 77.5 L 176.5 27.5"/></clipPath><clipPath id="lpAmvLvyOiIq"><path fill="none" stroke="none" d="M 176.5 27.5 L 576.5 27.5 L 576.5 77.5 L 176.5 77.5 L 176.5 27.5"/></clipPath><clipPath id="OlRQOLOfvymo"><path fill="none" stroke="none" d="M 176.5 27.5 L 576.5 27.5 L 576.5 77.5 L 176.5 77.5 L 176.5 27.5"/></clipPath><clipPath id="sselbfwNcwHp"><path fill="none" stroke="none" d="M 176.5 27.5 L 576.5 27.5 L 576.5 77.5 L 176.5 77.5 L 176.5 27.5"/></clipPath></defs><path fill="none" stroke="rgb(229,229,229)" paint-order="fill" d="M 176.5 27.5 L 576.5 27.5 L 576.5 77.5 L 176.5 77.5 L 176.5 27.5" stroke-opacity="1" stroke-linejoin="bevel" stroke-miterlimit="10" stroke-dasharray=""/><path fill="none" stroke="rgb(229,229,229)" paint-order="fill" d="M 194.5 77.5 L 194.5 27.5 M 291.5 77.5 L 291.5 27.5 M 387.5 77.5 L 387.5 27.5 M 483.5 77.5 L 483.5 27.5" stroke-opacity="1" stroke-linejoin="bevel" stroke-miterlimit="10" stroke-dasharray="" clip-path="url(#aLEcFZCNlsqk)"/><path fill="none" stroke="rgb(229,229,229)" paint-order="fill" d="M 176.5 71.5 L 576.5 71.5 M 176.5 58.5 L 576.5 58.5 M 176.5 46.5 L 576.5 46.5 M 176.5 33.5 L 576.5 33.5" stroke-opacity="1" stroke-linejoin="bevel" stroke-miterlimit="10" stroke-dasharray="" clip-path="url(#lpAmvLvyOiIq)"/><path fill="none" stroke="none"/><path fill="rgb(218,227,117)" stroke="none" paint-order="stroke" d="M 194.68182373046875 28.75 L 558.3181762695312 28.75 L 558.3181762695312 38.75 L 194.68182373046875 38.75 L 194.68182373046875 28.75" fill-opacity="1" clip-path="url(#OlRQOLOfvymo)"/><path fill="none" stroke="rgb(218,227,117)" paint-order="fill" d="M 194.68182373046875 28.75 L 558.3181762695312 28.75 L 558.3181762695312 38.75 L 194.68182373046875 38.75 L 194.68182373046875 28.75" stroke-opacity="1" stroke-linejoin="bevel" stroke-miterlimit="10" stroke-dasharray="" clip-path="url(#OlRQOLOfvymo)"/><path fill="rgb(115,200,106)" stroke="none" paint-order="stroke" d="M 194.68182373046875 41.25 L 341.19744873046875 41.25 L 341.19744873046875 51.25 L 194.68182373046875 51.25 L 194.68182373046875 41.25" fill-opacity="1" clip-path="url(#OlRQOLOfvymo)"/><path fill="none" stroke="rgb(115,200,106)" paint-order="fill" d="M 194.68182373046875 41.25 L 341.19744873046875 41.25 L 341.19744873046875 51.25 L 194.68182373046875 51.25 L 194.68182373046875 41.25" stroke-opacity="1" stroke-linejoin="bevel" stroke-miterlimit="10" stroke-dasharray="" clip-path="url(#OlRQOLOfvymo)"/><path fill="rgb(84,181,123)" stroke="none" paint-order="stroke" d="M 194.68182373046875 53.75 L 220.39317321777344 53.75 L 220.39317321777344 63.75 L 194.68182373046875 63.75 L 194.68182373046875 53.75" fill-opacity="1" clip-path="url(#OlRQOLOfvymo)"/><path fill="none" stroke="rgb(84,181,123)" paint-order="fill" d="M 194.68182373046875 53.75 L 220.39317321777344 53.75 L 220.39317321777344 63.75 L 194.68182373046875 63.75 L 194.68182373046875 53.75" stroke-opacity="1" stroke-linejoin="bevel" stroke-miterlimit="10" stroke-dasharray="" clip-path="url(#OlRQOLOfvymo)"/><path fill="rgb(76,173,128)" stroke="none" paint-order="stroke" d="M 194.68182373046875 66.25 L 220.36044311523438 66.25 L 220.36044311523438 76.25 L 194.68182373046875 76.25 L 194.68182373046875 66.25" fill-opacity="1" clip-path="url(#OlRQOLOfvymo)"/><path fill="none" stroke="rgb(76,173,128)" paint-order="fill" d="M 194.68182373046875 66.25 L 220.36044311523438 66.25 L 220.36044311523438 76.25 L 194.68182373046875 76.25 L 194.68182373046875 66.25" stroke-opacity="1" stroke-linejoin="bevel" stroke-miterlimit="10" stroke-dasharray="" clip-path="url(#OlRQOLOfvymo)"/><path fill="none" stroke="rgb(0,0,0)" paint-order="fill" d="M 176.5 77.5 L 576.5 77.5" stroke-opacity="1" stroke-linejoin="bevel" stroke-miterlimit="10" stroke-dasharray=""/><path fill="none" stroke="rgb(0,0,0)" paint-order="fill" d="M 194.5 83.5 L 194.5 75.5 M 291.5 83.5 L 291.5 75.5 M 387.5 83.5 L 387.5 75.5 M 483.5 83.5 L 483.5 75.5" stroke-opacity="1" stroke-linejoin="bevel" stroke-miterlimit="10" stroke-dasharray=""/><path fill="none" stroke="rgb(0,0,0)" paint-order="fill" d="M 194.5 81.5 L 194.5 77.5 M 213.5 81.5 L 213.5 77.5 M 233.5 81.5 L 233.5 77.5 M 252.5 81.5 L 252.5 77.5 M 271.5 81.5 L 271.5 77.5 M 291.5 81.5 L 291.5 77.5 M 310.5 81.5 L 310.5 77.5 M 329.5 81.5 L 329.5 77.5 M 348.5 81.5 L 348.5 77.5 M 368.5 81.5 L 368.5 77.5 M 387.5 81.5 L 387.5 77.5 M 406.5 81.5 L 406.5 77.5 M 425.5 81.5 L 425.5 77.5 M 445.5 81.5 L 445.5 77.5 M 464.5 81.5 L 464.5 77.5 M 483.5 81.5 L 483.5 77.5 M 502.5 81.5 L 502.5 77.5 M 522.5 81.5 L 522.5 77.5 M 541.5 81.5 L 541.5 77.5 M 560.5 81.5 L 560.5 77.5" stroke-opacity="1" stroke-linejoin="bevel" stroke-miterlimit="10" stroke-dasharray=""/><text fill="rgb(68,68,68)" stroke="none" font-family="helvetica" font-size="11px" font-style="normal" font-weight="normal" text-decoration="normal" x="188.06414794921875" y="91.945068359375" text-anchor="start" dominant-baseline="alphabetic" transform="matrix(0.7071067811865476, -0.7071067811865475, 0.7071067811865475, 0.7071067811865476, -4.8508573569327496, 163.5818875985691)" fill-opacity="1">0</text><text fill="rgb(68,68,68)" stroke="none" font-family="helvetica" font-size="11px" font-style="normal" font-weight="normal" text-decoration="normal" x="275.21893310546875" y="91.945068359375" text-anchor="start" dominant-baseline="alphabetic" transform="matrix(0.7071067811865476, -0.7071067811865475, 0.7071067811865475, 0.7071067811865476, 23.363140250848858, 231.6965032720375)" fill-opacity="1">0.1</text><text fill="rgb(68,68,68)" stroke="none" font-family="helvetica" font-size="11px" font-style="normal" font-weight="normal" text-decoration="normal" x="371.5475769042969" y="91.945068359375" text-anchor="start" dominant-baseline="alphabetic" transform="matrix(0.7071067811865476, -0.7071067811865475, 0.7071067811865475, 0.7071067811865476, 51.577146797022124, 299.81114052469235)" fill-opacity="1">0.2</text><text fill="rgb(68,68,68)" stroke="none" font-family="helvetica" font-size="11px" font-style="normal" font-weight="normal" text-decoration="normal" x="467.876220703125" y="91.945068359375" text-anchor="start" dominant-baseline="alphabetic" transform="matrix(0.7071067811865476, -0.7071067811865475, 0.7071067811865475, 0.7071067811865476, 79.79115334319545, 367.92577777734715)" fill-opacity="1">0.3</text><text fill="rgb(68,68,68)" stroke="none" font-family="helvetica" font-size="13px" font-style="italic" font-weight="normal" text-decoration="normal" x="343.484130859375" y="124.39189528496706" text-anchor="start" dominant-baseline="alphabetic" transform="matrix(1, 0, 0, 1, 0.5, 0.5)" fill-opacity="1">Importance</text><path fill="none" stroke="rgb(0,0,0)" paint-order="fill" d="M 176.5 77.5 L 176.5 27.5" stroke-opacity="1" stroke-linejoin="bevel" stroke-miterlimit="10" stroke-dasharray=""/><path fill="none" stroke="rgb(0,0,0)" paint-order="fill" d="M 170.5 71.5 L 178.5 71.5 M 170.5 58.5 L 178.5 58.5 M 170.5 46.5 L 178.5 46.5 M 170.5 33.5 L 178.5 33.5" stroke-opacity="1" stroke-linejoin="bevel" stroke-miterlimit="10" stroke-dasharray=""/><path fill="none" stroke="rgb(0,0,0)" paint-order="fill" d="" stroke-opacity="1" stroke-linejoin="bevel" stroke-miterlimit="10" stroke-dasharray=""/><text fill="rgb(68,68,68)" stroke="none" font-family="helvetica" font-size="11px" font-style="normal" font-weight="normal" text-decoration="normal" x="53.09326171875" y="74.25" text-anchor="start" dominant-baseline="alphabetic" transform="matrix(1, 0, 0, 1, 0.5, 0.5)" fill-opacity="1">Proteobacteria Stappia</text><text fill="rgb(68,68,68)" stroke="none" font-family="helvetica" font-size="11px" font-style="normal" font-weight="normal" text-decoration="normal" x="2.9755859375" y="61.75" text-anchor="start" dominant-baseline="alphabetic" transform="matrix(1, 0, 0, 1, 0.5, 0.5)" fill-opacity="1">Proteobacteria Altererythrobacter</text><text fill="rgb(68,68,68)" stroke="none" font-family="helvetica" font-size="11px" font-style="normal" font-weight="normal" text-decoration="normal" x="58.59326171875" y="49.25" text-anchor="start" dominant-baseline="alphabetic" transform="matrix(1, 0, 0, 1, 0.5, 0.5)" fill-opacity="1">Proteobacteria 34P16</text><text fill="rgb(68,68,68)" stroke="none" font-family="helvetica" font-size="11px" font-style="normal" font-weight="normal" text-decoration="normal" x="39.03173828125" y="36.75" text-anchor="start" dominant-baseline="alphabetic" transform="matrix(1, 0, 0, 1, 0.5, 0.5)" fill-opacity="1">Proteobacteria uncultured</text><path fill="none" stroke="none"/><text fill="rgb(68,68,68)" stroke="none" font-family="helvetica" font-size="13px" font-style="normal" font-weight="bold" text-decoration="normal" x="0" y="0" text-anchor="start" dominant-baseline="text-after-edge" transform="matrix(1, 0, 0, 1, 176.5, 22.5)" fill-opacity="1">Longitude</text></svg>