<svg version="1.1" xmlns="http://www.w3.org/2000/svg" xmlns:xlink="http://www.w3.org/1999/xlink" width="555" height="135"><defs><clipPath id="dKpoKamxoTEe"><path fill="none" stroke="none" d="M 150.5 27.5 L 550.5 27.5 L 550.5 77.5 L 150.5 77.5 L 150.5 27.5"/></clipPath><clipPath id="aIobUfbJdUZr"><path fill="none" stroke="none" d="M 150.5 27.5 L 550.5 27.5 L 550.5 77.5 L 150.5 77.5 L 150.5 27.5"/></clipPath><clipPath id="SVmezWzOXWpw"><path fill="none" stroke="none" d="M 150.5 27.5 L 550.5 27.5 L 550.5 77.5 L 150.5 77.5 L 150.5 27.5"/></clipPath><clipPath id="TuPZhnXMmfmE"><path fill="none" stroke="none" d="M 150.5 27.5 L 550.5 27.5 L 550.5 77.5 L 150.5 77.5 L 150.5 27.5"/></clipPath></defs><path fill="none" stroke="rgb(229,229,229)" paint-order="fill" d="M 150.5 27.5 L 550.5 27.5 L 550.5 77.5 L 150.5 77.5 L 150.5 27.5" stroke-opacity="1" stroke-linejoin="bevel" stroke-miterlimit="10" stroke-dasharray=""/><path fill="none" stroke="rgb(229,229,229)" paint-order="fill" d="M 168.5 77.5 L 168.5 27.5 M 248.5 77.5 L 248.5 27.5 M 327.5 77.5 L 327.5 27.5 M 406.5 77.5 L 406.5 27.5 M 486.5 77.5 L 486.5 27.5" stroke-opacity="1" stroke-linejoin="bevel" stroke-miterlimit="10" stroke-dasharray="" clip-path="url(#dKpoKamxoTEe)"/><path fill="none" stroke="rgb(229,229,229)" paint-order="fill" d="M 150.5 71.5 L 550.5 71.5 M 150.5 58.5 L 550.5 58.5 M 150.5 46.5 L 550.5 46.5 M 150.5 33.5 L 550.5 33.5" stroke-opacity="1" stroke-linejoin="bevel" stroke-miterlimit="10" stroke-dasharray="" clip-path="url(#aIobUfbJdUZr)"/><path fill="none" stroke="none"/><path fill="rgb(85,182,123)" stroke="none" paint-order="stroke" d="M 168.68182373046875 28.75 L 532.3181762695312 28.75 L 532.3181762695312 38.75 L 168.68182373046875 38.75 L 168.68182373046875 28.75" fill-opacity="1" clip-path="url(#SVmezWzOXWpw)"/><path fill="none" stroke="rgb(85,182,123)" paint-order="fill" d="M 168.68182373046875 28.75 L 532.3181762695312 28.75 L 532.3181762695312 38.75 L 168.68182373046875 38.75 L 168.68182373046875 28.75" stroke-opacity="1" stroke-linejoin="bevel" stroke-miterlimit="10" stroke-dasharray="" clip-path="url(#SVmezWzOXWpw)"/><path fill="rgb(80,176,126)" stroke="none" paint-order="stroke" d="M 168.68182373046875 41.25 L 444.4938659667969 41.25 L 444.4938659667969 51.25 L 168.68182373046875 51.25 L 168.68182373046875 41.25" fill-opacity="1" clip-path="url(#SVmezWzOXWpw)"/><path fill="none" stroke="rgb(80,176,126)" paint-order="fill" d="M 168.68182373046875 41.25 L 444.4938659667969 41.25 L 444.4938659667969 51.25 L 168.68182373046875 51.25 L 168.68182373046875 41.25" stroke-opacity="1" stroke-linejoin="bevel" stroke-miterlimit="10" stroke-dasharray="" clip-path="url(#SVmezWzOXWpw)"/><path fill="rgb(79,175,126)" stroke="none" paint-order="stroke" d="M 168.68182373046875 53.75 L 434.3560485839844 53.75 L 434.3560485839844 63.75 L 168.68182373046875 63.75 L 168.68182373046875 53.75" fill-opacity="1" clip-path="url(#SVmezWzOXWpw)"/><path fill="none" stroke="rgb(79,175,126)" paint-order="fill" d="M 168.68182373046875 53.75 L 434.3560485839844 53.75 L 434.3560485839844 63.75 L 168.68182373046875 63.75 L 168.68182373046875 53.75" stroke-opacity="1" stroke-linejoin="bevel" stroke-miterlimit="10" stroke-dasharray="" clip-path="url(#SVmezWzOXWpw)"/><path fill="rgb(76,172,128)" stroke="none" paint-order="stroke" d="M 168.68182373046875 66.25 L 373.38677978515625 66.25 L 373.38677978515625 76.25 L 168.68182373046875 76.25 L 168.68182373046875 66.25" fill-opacity="1" clip-path="url(#SVmezWzOXWpw)"/><path fill="none" stroke="rgb(76,172,128)" paint-order="fill" d="M 168.68182373046875 66.25 L 373.38677978515625 66.25 L 373.38677978515625 76.25 L 168.68182373046875 76.25 L 168.68182373046875 66.25" stroke-opacity="1" stroke-linejoin="bevel" stroke-miterlimit="10" stroke-dasharray="" clip-path="url(#SVmezWzOXWpw)"/><path fill="none" stroke="rgb(0,0,0)" paint-order="fill" d="M 150.5 77.5 L 550.5 77.5" stroke-opacity="1" stroke-linejoin="bevel" stroke-miterlimit="10" stroke-dasharray=""/><path fill="none" stroke="rgb(0,0,0)" paint-order="fill" d="M 168.5 83.5 L 168.5 75.5 M 248.5 83.5 L 248.5 75.5 M 327.5 83.5 L 327.5 75.5 M 406.5 83.5 L 406.5 75.5 M 486.5 83.5 L 486.5 75.5" stroke-opacity="1" stroke-linejoin="bevel" stroke-miterlimit="10" stroke-dasharray=""/><path fill="none" stroke="rgb(0,0,0)" paint-order="fill" d="M 152.5 81.5 L 152.5 77.5 M 168.5 81.5 L 168.5 77.5 M 184.5 81.5 L 184.5 77.5 M 200.5 81.5 L 200.5 77.5 M 216.5 81.5 L 216.5 77.5 M 232.5 81.5 L 232.5 77.5 M 248.5 81.5 L 248.5 77.5 M 263.5 81.5 L 263.5 77.5 M 279.5 81.5 L 279.5 77.5 M 295.5 81.5 L 295.5 77.5 M 311.5 81.5 L 311.5 77.5 M 327.5 81.5 L 327.5 77.5 M 343.5 81.5 L 343.5 77.5 M 359.5 81.5 L 359.5 77.5 M 375.5 81.5 L 375.5 77.5 M 391.5 81.5 L 391.5 77.5 M 406.5 81.5 L 406.5 77.5 M 422.5 81.5 L 422.5 77.5 M 438.5 81.5 L 438.5 77.5 M 454.5 81.5 L 454.5 77.5 M 470.5 81.5 L 470.5 77.5 M 486.5 81.5 L 486.5 77.5 M 502.5 81.5 L 502.5 77.5 M 518.5 81.5 L 518.5 77.5 M 534.5 81.5 L 534.5 77.5 M 549.5 81.5 L 549.5 77.5" stroke-opacity="1" stroke-linejoin="bevel" stroke-miterlimit="10" stroke-dasharray=""/><text fill="rgb(68,68,68)" stroke="none" font-family="helvetica" font-size="11px" font-style="normal" font-weight="normal" text-decoration="normal" x="162.06414794921875" y="91.945068359375" text-anchor="start" dominant-baseline="alphabetic" transform="matrix(0.7071067811865476, -0.7071067811865475, 0.7071067811865475, 0.7071067811865476, -12.466081046082508, 145.19711128771888)" fill-opacity="1">0</text><text fill="rgb(68,68,68)" stroke="none" font-family="helvetica" font-size="11px" font-style="normal" font-weight="normal" text-decoration="normal" x="226.20071411132812" y="91.945068359375" text-anchor="start" dominant-baseline="alphabetic" transform="matrix(0.7071067811865476, -0.7071067811865475, 0.7071067811865475, 0.7071067811865476, 10.797862060379714, 201.361238249616)" fill-opacity="1">0.02</text><text fill="rgb(68,68,68)" stroke="none" font-family="helvetica" font-size="11px" font-style="normal" font-weight="normal" text-decoration="normal" x="305.6287841796875" y="91.945068359375" text-anchor="start" dominant-baseline="alphabetic" transform="matrix(0.7071067811865476, -0.7071067811865475, 0.7071067811865475, 0.7071067811865476, 34.061805166841964, 257.5253652115132)" fill-opacity="1">0.04</text><text fill="rgb(68,68,68)" stroke="none" font-family="helvetica" font-size="11px" font-style="normal" font-weight="normal" text-decoration="normal" x="385.0568542480469" y="91.945068359375" text-anchor="start" dominant-baseline="alphabetic" transform="matrix(0.7071067811865476, -0.7071067811865475, 0.7071067811865475, 0.7071067811865476, 57.32574827330416, 313.6894921734104)" fill-opacity="1">0.06</text><text fill="rgb(68,68,68)" stroke="none" font-family="helvetica" font-size="11px" font-style="normal" font-weight="normal" text-decoration="normal" x="464.48492431640625" y="91.945068359375" text-anchor="start" dominant-baseline="alphabetic" transform="matrix(0.7071067811865476, -0.7071067811865475, 0.7071067811865475, 0.7071067811865476, 80.58969137976635, 369.8536191353075)" fill-opacity="1">0.08</text><text fill="rgb(68,68,68)" stroke="none" font-family="helvetica" font-size="13px" font-style="italic" font-weight="normal" text-decoration="normal" x="317.484130859375" y="128.71774531498966" text-anchor="start" dominant-baseline="alphabetic" transform="matrix(1, 0, 0, 1, 0.5, 0.5)" fill-opacity="1">Importance</text><path fill="none" stroke="rgb(0,0,0)" paint-order="fill" d="M 150.5 77.5 L 150.5 27.5" stroke-opacity="1" stroke-linejoin="bevel" stroke-miterlimit="10" stroke-dasharray=""/><path fill="none" stroke="rgb(0,0,0)" paint-order="fill" d="M 144.5 71.5 L 152.5 71.5 M 144.5 58.5 L 152.5 58.5 M 144.5 46.5 L 152.5 46.5 M 144.5 33.5 L 152.5 33.5" stroke-opacity="1" stroke-linejoin="bevel" stroke-miterlimit="10" stroke-dasharray=""/><path fill="none" stroke="rgb(0,0,0)" paint-order="fill" d="" stroke-opacity="1" stroke-linejoin="bevel" stroke-miterlimit="10" stroke-dasharray=""/><text fill="rgb(68,68,68)" stroke="none" font-family="helvetica" font-size="11px" font-style="normal" font-weight="normal" text-decoration="normal" x="2.66552734375" y="74.25" text-anchor="start" dominant-baseline="alphabetic" transform="matrix(1, 0, 0, 1, 0.5, 0.5)" fill-opacity="1">Proteobacteria JL-ETNP-Y6</text><text fill="rgb(68,68,68)" stroke="none" font-family="helvetica" font-size="11px" font-style="normal" font-weight="normal" text-decoration="normal" x="25.26708984375" y="61.75" text-anchor="start" dominant-baseline="alphabetic" transform="matrix(1, 0, 0, 1, 0.5, 0.5)" fill-opacity="1">Proteobacteria ZD0405</text><text fill="rgb(68,68,68)" stroke="none" font-family="helvetica" font-size="11px" font-style="normal" font-weight="normal" text-decoration="normal" x="2.66552734375" y="49.25" text-anchor="start" dominant-baseline="alphabetic" transform="matrix(1, 0, 0, 1, 0.5, 0.5)" fill-opacity="1">Proteobacteria JL-ETNP-Y6</text><text fill="rgb(68,68,68)" stroke="none" font-family="helvetica" font-size="11px" font-style="normal" font-weight="normal" text-decoration="normal" x="14.87939453125" y="36.75" text-anchor="start" dominant-baseline="alphabetic" transform="matrix(1, 0, 0, 1, 0.5, 0.5)" fill-opacity="1">Proteobacteria Nitrospina</text><path fill="none" stroke="none"/><text fill="rgb(68,68,68)" stroke="none" font-family="helvetica" font-size="13px" font-style="normal" font-weight="bold" text-decoration="normal" x="0" y="0" text-anchor="start" dominant-baseline="text-after-edge" transform="matrix(1, 0, 0, 1, 150.5, 22.5)" fill-opacity="1">Temperature (°C)</text></svg>