<svg version="1.1" xmlns="http://www.w3.org/2000/svg" xmlns:xlink="http://www.w3.org/1999/xlink" width="646" height="135"><defs><clipPath id="MvqAatlTKQBp"><path fill="none" stroke="none" d="M 241.5 27.5 L 641.5 27.5 L 641.5 77.5 L 241.5 77.5 L 241.5 27.5"/></clipPath><clipPath id="PTQWQuvuOsag"><path fill="none" stroke="none" d="M 241.5 27.5 L 641.5 27.5 L 641.5 77.5 L 241.5 77.5 L 241.5 27.5"/></clipPath><clipPath id="tDcdMHKXnEoN"><path fill="none" stroke="none" d="M 241.5 27.5 L 641.5 27.5 L 641.5 77.5 L 241.5 77.5 L 241.5 27.5"/></clipPath><clipPath id="DhABPPoFkKGh"><path fill="none" stroke="none" d="M 241.5 27.5 L 641.5 27.5 L 641.5 77.5 L 241.5 77.5 L 241.5 27.5"/></clipPath></defs><path fill="none" stroke="rgb(229,229,229)" paint-order="fill" d="M 241.5 27.5 L 641.5 27.5 L 641.5 77.5 L 241.5 77.5 L 241.5 27.5" stroke-opacity="1" stroke-linejoin="bevel" stroke-miterlimit="10" stroke-dasharray=""/><path fill="none" stroke="rgb(229,229,229)" paint-order="fill" d="M 259.5 77.5 L 259.5 27.5 M 348.5 77.5 L 348.5 27.5 M 436.5 77.5 L 436.5 27.5 M 525.5 77.5 L 525.5 27.5 M 613.5 77.5 L 613.5 27.5" stroke-opacity="1" stroke-linejoin="bevel" stroke-miterlimit="10" stroke-dasharray="" clip-path="url(#MvqAatlTKQBp)"/><path fill="none" stroke="rgb(229,229,229)" paint-order="fill" d="M 241.5 71.5 L 641.5 71.5 M 241.5 58.5 L 641.5 58.5 M 241.5 46.5 L 641.5 46.5 M 241.5 33.5 L 641.5 33.5" stroke-opacity="1" stroke-linejoin="bevel" stroke-miterlimit="10" stroke-dasharray="" clip-path="url(#PTQWQuvuOsag)"/><path fill="none" stroke="none"/><path fill="rgb(82,179,124)" stroke="none" paint-order="stroke" d="M 259.68182373046875 28.75 L 623.3181762695312 28.75 L 623.3181762695312 38.75 L 259.68182373046875 38.75 L 259.68182373046875 28.75" fill-opacity="1" clip-path="url(#tDcdMHKXnEoN)"/><path fill="none" stroke="rgb(82,179,124)" paint-order="fill" d="M 259.68182373046875 28.75 L 623.3181762695312 28.75 L 623.3181762695312 38.75 L 259.68182373046875 38.75 L 259.68182373046875 28.75" stroke-opacity="1" stroke-linejoin="bevel" stroke-miterlimit="10" stroke-dasharray="" clip-path="url(#tDcdMHKXnEoN)"/><path fill="rgb(81,178,125)" stroke="none" paint-order="stroke" d="M 259.68182373046875 41.25 L 547.1192626953125 41.25 L 547.1192626953125 51.25 L 259.68182373046875 51.25 L 259.68182373046875 41.25" fill-opacity="1" clip-path="url(#tDcdMHKXnEoN)"/><path fill="none" stroke="rgb(81,178,125)" paint-order="fill" d="M 259.68182373046875 41.25 L 547.1192626953125 41.25 L 547.1192626953125 51.25 L 259.68182373046875 51.25 L 259.68182373046875 41.25" stroke-opacity="1" stroke-linejoin="bevel" stroke-miterlimit="10" stroke-dasharray="" clip-path="url(#tDcdMHKXnEoN)"/><path fill="rgb(78,174,127)" stroke="none" paint-order="stroke" d="M 259.68182373046875 53.75 L 534.1572875976562 53.75 L 534.1572875976562 63.75 L 259.68182373046875 63.75 L 259.68182373046875 53.75" fill-opacity="1" clip-path="url(#tDcdMHKXnEoN)"/><path fill="none" stroke="rgb(78,174,127)" paint-order="fill" d="M 259.68182373046875 53.75 L 534.1572875976562 53.75 L 534.1572875976562 63.75 L 259.68182373046875 63.75 L 259.68182373046875 53.75" stroke-opacity="1" stroke-linejoin="bevel" stroke-miterlimit="10" stroke-dasharray="" clip-path="url(#tDcdMHKXnEoN)"/><path fill="rgb(88,184,121)" stroke="none" paint-order="stroke" d="M 259.68182373046875 66.25 L 507.0555114746094 66.25 L 507.0555114746094 76.25 L 259.68182373046875 76.25 L 259.68182373046875 66.25" fill-opacity="1" clip-path="url(#tDcdMHKXnEoN)"/><path fill="none" stroke="rgb(88,184,121)" paint-order="fill" d="M 259.68182373046875 66.25 L 507.0555114746094 66.25 L 507.0555114746094 76.25 L 259.68182373046875 76.25 L 259.68182373046875 66.25" stroke-opacity="1" stroke-linejoin="bevel" stroke-miterlimit="10" stroke-dasharray="" clip-path="url(#tDcdMHKXnEoN)"/><path fill="none" stroke="rgb(0,0,0)" paint-order="fill" d="M 241.5 77.5 L 641.5 77.5" stroke-opacity="1" stroke-linejoin="bevel" stroke-miterlimit="10" stroke-dasharray=""/><path fill="none" stroke="rgb(0,0,0)" paint-order="fill" d="M 259.5 83.5 L 259.5 75.5 M 348.5 83.5 L 348.5 75.5 M 436.5 83.5 L 436.5 75.5 M 525.5 83.5 L 525.5 75.5 M 613.5 83.5 L 613.5 75.5" stroke-opacity="1" stroke-linejoin="bevel" stroke-miterlimit="10" stroke-dasharray=""/><path fill="none" stroke="rgb(0,0,0)" paint-order="fill" d="M 241.5 81.5 L 241.5 77.5 M 259.5 81.5 L 259.5 77.5 M 277.5 81.5 L 277.5 77.5 M 295.5 81.5 L 295.5 77.5 M 312.5 81.5 L 312.5 77.5 M 330.5 81.5 L 330.5 77.5 M 348.5 81.5 L 348.5 77.5 M 365.5 81.5 L 365.5 77.5 M 383.5 81.5 L 383.5 77.5 M 401.5 81.5 L 401.5 77.5 M 418.5 81.5 L 418.5 77.5 M 436.5 81.5 L 436.5 77.5 M 454.5 81.5 L 454.5 77.5 M 472.5 81.5 L 472.5 77.5 M 489.5 81.5 L 489.5 77.5 M 507.5 81.5 L 507.5 77.5 M 525.5 81.5 L 525.5 77.5 M 542.5 81.5 L 542.5 77.5 M 560.5 81.5 L 560.5 77.5 M 578.5 81.5 L 578.5 77.5 M 595.5 81.5 L 595.5 77.5 M 613.5 81.5 L 613.5 77.5 M 631.5 81.5 L 631.5 77.5" stroke-opacity="1" stroke-linejoin="bevel" stroke-miterlimit="10" stroke-dasharray=""/><text fill="rgb(68,68,68)" stroke="none" font-family="helvetica" font-size="11px" font-style="normal" font-weight="normal" text-decoration="normal" x="253.06414794921875" y="91.945068359375" text-anchor="start" dominant-baseline="alphabetic" transform="matrix(0.7071067811865476, -0.7071067811865475, 0.7071067811865475, 0.7071067811865476, 14.18720186594166, 209.54382837569472)" fill-opacity="1">0</text><text fill="rgb(68,68,68)" stroke="none" font-family="helvetica" font-size="11px" font-style="normal" font-weight="normal" text-decoration="normal" x="326.2661437988281" y="91.945068359375" text-anchor="start" dominant-baseline="alphabetic" transform="matrix(0.7071067811865476, -0.7071067811865475, 0.7071067811865475, 0.7071067811865476, 40.106347853502825, 272.11818214399295)" fill-opacity="1">0.01</text><text fill="rgb(68,68,68)" stroke="none" font-family="helvetica" font-size="11px" font-style="normal" font-weight="normal" text-decoration="normal" x="414.7596740722656" y="91.945068359375" text-anchor="start" dominant-baseline="alphabetic" transform="matrix(0.7071067811865476, -0.7071067811865475, 0.7071067811865475, 0.7071067811865476, 66.02550277945556, 334.69255749147766)" fill-opacity="1">0.02</text><text fill="rgb(68,68,68)" stroke="none" font-family="helvetica" font-size="11px" font-style="normal" font-weight="normal" text-decoration="normal" x="503.253173828125" y="91.945068359375" text-anchor="start" dominant-baseline="alphabetic" transform="matrix(0.7071067811865476, -0.7071067811865475, 0.7071067811865475, 0.7071067811865476, 91.9446487670167, 397.2669112597759)" fill-opacity="1">0.03</text><text fill="rgb(68,68,68)" stroke="none" font-family="helvetica" font-size="11px" font-style="normal" font-weight="normal" text-decoration="normal" x="591.7467041015625" y="91.945068359375" text-anchor="start" dominant-baseline="alphabetic" transform="matrix(0.7071067811865476, -0.7071067811865475, 0.7071067811865475, 0.7071067811865476, 117.8638036929695, 459.84128660726054)" fill-opacity="1">0.04</text><text fill="rgb(68,68,68)" stroke="none" font-family="helvetica" font-size="13px" font-style="italic" font-weight="normal" text-decoration="normal" x="408.484130859375" y="128.71774531498966" text-anchor="start" dominant-baseline="alphabetic" transform="matrix(1, 0, 0, 1, 0.5, 0.5)" fill-opacity="1">Importance</text><path fill="none" stroke="rgb(0,0,0)" paint-order="fill" d="M 241.5 77.5 L 241.5 27.5" stroke-opacity="1" stroke-linejoin="bevel" stroke-miterlimit="10" stroke-dasharray=""/><path fill="none" stroke="rgb(0,0,0)" paint-order="fill" d="M 235.5 71.5 L 243.5 71.5 M 235.5 58.5 L 243.5 58.5 M 235.5 46.5 L 243.5 46.5 M 235.5 33.5 L 243.5 33.5" stroke-opacity="1" stroke-linejoin="bevel" stroke-miterlimit="10" stroke-dasharray=""/><path fill="none" stroke="rgb(0,0,0)" paint-order="fill" d="" stroke-opacity="1" stroke-linejoin="bevel" stroke-miterlimit="10" stroke-dasharray=""/><text fill="rgb(68,68,68)" stroke="none" font-family="helvetica" font-size="11px" font-style="normal" font-weight="normal" text-decoration="normal" x="57.56103515625" y="74.25" text-anchor="start" dominant-baseline="alphabetic" transform="matrix(1, 0, 0, 1, 0.5, 0.5)" fill-opacity="1">Proteobacteria Pseudoalteromonas</text><text fill="rgb(68,68,68)" stroke="none" font-family="helvetica" font-size="11px" font-style="normal" font-weight="normal" text-decoration="normal" x="2.544921875" y="61.75" text-anchor="start" dominant-baseline="alphabetic" transform="matrix(1, 0, 0, 1, 0.5, 0.5)" fill-opacity="1">Proteobacteria SAR324 clade(Marine group B)</text><text fill="rgb(68,68,68)" stroke="none" font-family="helvetica" font-size="11px" font-style="normal" font-weight="normal" text-decoration="normal" x="129.92041015625" y="49.25" text-anchor="start" dominant-baseline="alphabetic" transform="matrix(1, 0, 0, 1, 0.5, 0.5)" fill-opacity="1">Proteobacteria TA18</text><text fill="rgb(68,68,68)" stroke="none" font-family="helvetica" font-size="11px" font-style="normal" font-weight="normal" text-decoration="normal" x="108.31787109375" y="36.75" text-anchor="start" dominant-baseline="alphabetic" transform="matrix(1, 0, 0, 1, 0.5, 0.5)" fill-opacity="1">Proteobacteria Surface 2</text><path fill="none" stroke="none"/><text fill="rgb(68,68,68)" stroke="none" font-family="helvetica" font-size="13px" font-style="normal" font-weight="bold" text-decoration="normal" x="0" y="0" text-anchor="start" dominant-baseline="text-after-edge" transform="matrix(1, 0, 0, 1, 241.5, 22.5)" fill-opacity="1">Latitude</text></svg>