<svg version="1.1" xmlns="http://www.w3.org/2000/svg" xmlns:xlink="http://www.w3.org/1999/xlink" width="613" height="135"><defs><clipPath id="oJvwaSIhRCQp"><path fill="none" stroke="none" d="M 208.5 27.5 L 608.5 27.5 L 608.5 77.5 L 208.5 77.5 L 208.5 27.5"/></clipPath><clipPath id="QmtQJxKMRlPK"><path fill="none" stroke="none" d="M 208.5 27.5 L 608.5 27.5 L 608.5 77.5 L 208.5 77.5 L 208.5 27.5"/></clipPath><clipPath id="vxrVbqSdaENl"><path fill="none" stroke="none" d="M 208.5 27.5 L 608.5 27.5 L 608.5 77.5 L 208.5 77.5 L 208.5 27.5"/></clipPath><clipPath id="LWtMluTpMwIt"><path fill="none" stroke="none" d="M 208.5 27.5 L 608.5 27.5 L 608.5 77.5 L 208.5 77.5 L 208.5 27.5"/></clipPath></defs><path fill="none" stroke="rgb(229,229,229)" paint-order="fill" d="M 208.5 27.5 L 608.5 27.5 L 608.5 77.5 L 208.5 77.5 L 208.5 27.5" stroke-opacity="1" stroke-linejoin="bevel" stroke-miterlimit="10" stroke-dasharray=""/><path fill="none" stroke="rgb(229,229,229)" paint-order="fill" d="M 226.5 77.5 L 226.5 27.5 M 306.5 77.5 L 306.5 27.5 M 386.5 77.5 L 386.5 27.5 M 465.5 77.5 L 465.5 27.5 M 545.5 77.5 L 545.5 27.5" stroke-opacity="1" stroke-linejoin="bevel" stroke-miterlimit="10" stroke-dasharray="" clip-path="url(#oJvwaSIhRCQp)"/><path fill="none" stroke="rgb(229,229,229)" paint-order="fill" d="M 208.5 71.5 L 608.5 71.5 M 208.5 58.5 L 608.5 58.5 M 208.5 46.5 L 608.5 46.5 M 208.5 33.5 L 608.5 33.5" stroke-opacity="1" stroke-linejoin="bevel" stroke-miterlimit="10" stroke-dasharray="" clip-path="url(#QmtQJxKMRlPK)"/><path fill="none" stroke="none"/><path fill="rgb(112,199,108)" stroke="none" paint-order="stroke" d="M 226.68182373046875 28.75 L 590.3181762695312 28.75 L 590.3181762695312 38.75 L 226.68182373046875 38.75 L 226.68182373046875 28.75" fill-opacity="1" clip-path="url(#vxrVbqSdaENl)"/><path fill="none" stroke="rgb(112,199,108)" paint-order="fill" d="M 226.68182373046875 28.75 L 590.3181762695312 28.75 L 590.3181762695312 38.75 L 226.68182373046875 38.75 L 226.68182373046875 28.75" stroke-opacity="1" stroke-linejoin="bevel" stroke-miterlimit="10" stroke-dasharray="" clip-path="url(#vxrVbqSdaENl)"/><path fill="rgb(76,172,128)" stroke="none" paint-order="stroke" d="M 226.68182373046875 41.25 L 317.56768798828125 41.25 L 317.56768798828125 51.25 L 226.68182373046875 51.25 L 226.68182373046875 41.25" fill-opacity="1" clip-path="url(#vxrVbqSdaENl)"/><path fill="none" stroke="rgb(76,172,128)" paint-order="fill" d="M 226.68182373046875 41.25 L 317.56768798828125 41.25 L 317.56768798828125 51.25 L 226.68182373046875 51.25 L 226.68182373046875 41.25" stroke-opacity="1" stroke-linejoin="bevel" stroke-miterlimit="10" stroke-dasharray="" clip-path="url(#vxrVbqSdaENl)"/><path fill="rgb(72,167,130)" stroke="none" paint-order="stroke" d="M 226.68182373046875 53.75 L 290.1668701171875 53.75 L 290.1668701171875 63.75 L 226.68182373046875 63.75 L 226.68182373046875 53.75" fill-opacity="1" clip-path="url(#vxrVbqSdaENl)"/><path fill="none" stroke="rgb(72,167,130)" paint-order="fill" d="M 226.68182373046875 53.75 L 290.1668701171875 53.75 L 290.1668701171875 63.75 L 226.68182373046875 63.75 L 226.68182373046875 53.75" stroke-opacity="1" stroke-linejoin="bevel" stroke-miterlimit="10" stroke-dasharray="" clip-path="url(#vxrVbqSdaENl)"/><path fill="rgb(70,164,131)" stroke="none" paint-order="stroke" d="M 226.68182373046875 66.25 L 274.8290710449219 66.25 L 274.8290710449219 76.25 L 226.68182373046875 76.25 L 226.68182373046875 66.25" fill-opacity="1" clip-path="url(#vxrVbqSdaENl)"/><path fill="none" stroke="rgb(70,164,131)" paint-order="fill" d="M 226.68182373046875 66.25 L 274.8290710449219 66.25 L 274.8290710449219 76.25 L 226.68182373046875 76.25 L 226.68182373046875 66.25" stroke-opacity="1" stroke-linejoin="bevel" stroke-miterlimit="10" stroke-dasharray="" clip-path="url(#vxrVbqSdaENl)"/><path fill="none" stroke="rgb(0,0,0)" paint-order="fill" d="M 208.5 77.5 L 608.5 77.5" stroke-opacity="1" stroke-linejoin="bevel" stroke-miterlimit="10" stroke-dasharray=""/><path fill="none" stroke="rgb(0,0,0)" paint-order="fill" d="M 226.5 83.5 L 226.5 75.5 M 306.5 83.5 L 306.5 75.5 M 386.5 83.5 L 386.5 75.5 M 465.5 83.5 L 465.5 75.5 M 545.5 83.5 L 545.5 75.5" stroke-opacity="1" stroke-linejoin="bevel" stroke-miterlimit="10" stroke-dasharray=""/><path fill="none" stroke="rgb(0,0,0)" paint-order="fill" d="M 210.5 81.5 L 210.5 77.5 M 226.5 81.5 L 226.5 77.5 M 242.5 81.5 L 242.5 77.5 M 258.5 81.5 L 258.5 77.5 M 274.5 81.5 L 274.5 77.5 M 290.5 81.5 L 290.5 77.5 M 306.5 81.5 L 306.5 77.5 M 322.5 81.5 L 322.5 77.5 M 338.5 81.5 L 338.5 77.5 M 354.5 81.5 L 354.5 77.5 M 370.5 81.5 L 370.5 77.5 M 386.5 81.5 L 386.5 77.5 M 401.5 81.5 L 401.5 77.5 M 417.5 81.5 L 417.5 77.5 M 433.5 81.5 L 433.5 77.5 M 449.5 81.5 L 449.5 77.5 M 465.5 81.5 L 465.5 77.5 M 481.5 81.5 L 481.5 77.5 M 497.5 81.5 L 497.5 77.5 M 513.5 81.5 L 513.5 77.5 M 529.5 81.5 L 529.5 77.5 M 545.5 81.5 L 545.5 77.5 M 561.5 81.5 L 561.5 77.5 M 577.5 81.5 L 577.5 77.5 M 593.5 81.5 L 593.5 77.5" stroke-opacity="1" stroke-linejoin="bevel" stroke-miterlimit="10" stroke-dasharray=""/><text fill="rgb(68,68,68)" stroke="none" font-family="helvetica" font-size="11px" font-style="normal" font-weight="normal" text-decoration="normal" x="220.06414794921875" y="91.945068359375" text-anchor="start" dominant-baseline="alphabetic" transform="matrix(0.7071067811865476, -0.7071067811865475, 0.7071067811865475, 0.7071067811865476, 4.521725645097746, 186.20930459653863)" fill-opacity="1">0</text><text fill="rgb(68,68,68)" stroke="none" font-family="helvetica" font-size="11px" font-style="normal" font-weight="normal" text-decoration="normal" x="284.4404296875" y="91.945068359375" text-anchor="start" dominant-baseline="alphabetic" transform="matrix(0.7071067811865476, -0.7071067811865475, 0.7071067811865475, 0.7071067811865476, 27.85587981826461, 242.54293606790293)" fill-opacity="1">0.05</text><text fill="rgb(68,68,68)" stroke="none" font-family="helvetica" font-size="11px" font-style="normal" font-weight="normal" text-decoration="normal" x="370.2259216308594" y="91.945068359375" text-anchor="start" dominant-baseline="alphabetic" transform="matrix(0.7071067811865476, -0.7071067811865475, 0.7071067811865475, 0.7071067811865476, 51.19004292982328, 298.87658911845375)" fill-opacity="1">0.1</text><text fill="rgb(68,68,68)" stroke="none" font-family="helvetica" font-size="11px" font-style="normal" font-weight="normal" text-decoration="normal" x="443.7760314941406" y="91.945068359375" text-anchor="start" dominant-baseline="alphabetic" transform="matrix(0.7071067811865476, -0.7071067811865475, 0.7071067811865475, 0.7071067811865476, 74.52419710299017, 355.21022058981805)" fill-opacity="1">0.15</text><text fill="rgb(68,68,68)" stroke="none" font-family="helvetica" font-size="11px" font-style="normal" font-weight="normal" text-decoration="normal" x="529.5615234375" y="91.945068359375" text-anchor="start" dominant-baseline="alphabetic" transform="matrix(0.7071067811865476, -0.7071067811865475, 0.7071067811865475, 0.7071067811865476, 97.85836021454878, 411.5438736403688)" fill-opacity="1">0.2</text><text fill="rgb(68,68,68)" stroke="none" font-family="helvetica" font-size="13px" font-style="italic" font-weight="normal" text-decoration="normal" x="375.484130859375" y="128.71774531498966" text-anchor="start" dominant-baseline="alphabetic" transform="matrix(1, 0, 0, 1, 0.5, 0.5)" fill-opacity="1">Importance</text><path fill="none" stroke="rgb(0,0,0)" paint-order="fill" d="M 208.5 77.5 L 208.5 27.5" stroke-opacity="1" stroke-linejoin="bevel" stroke-miterlimit="10" stroke-dasharray=""/><path fill="none" stroke="rgb(0,0,0)" paint-order="fill" d="M 202.5 71.5 L 210.5 71.5 M 202.5 58.5 L 210.5 58.5 M 202.5 46.5 L 210.5 46.5 M 202.5 33.5 L 210.5 33.5" stroke-opacity="1" stroke-linejoin="bevel" stroke-miterlimit="10" stroke-dasharray=""/><path fill="none" stroke="rgb(0,0,0)" paint-order="fill" d="" stroke-opacity="1" stroke-linejoin="bevel" stroke-miterlimit="10" stroke-dasharray=""/><text fill="rgb(68,68,68)" stroke="none" font-family="helvetica" font-size="11px" font-style="normal" font-weight="normal" text-decoration="normal" x="60.66552734375" y="74.25" text-anchor="start" dominant-baseline="alphabetic" transform="matrix(1, 0, 0, 1, 0.5, 0.5)" fill-opacity="1">Proteobacteria JL-ETNP-Y6</text><text fill="rgb(68,68,68)" stroke="none" font-family="helvetica" font-size="11px" font-style="normal" font-weight="normal" text-decoration="normal" x="63.09326171875" y="61.75" text-anchor="start" dominant-baseline="alphabetic" transform="matrix(1, 0, 0, 1, 0.5, 0.5)" fill-opacity="1">Proteobacteria OM43 clade</text><text fill="rgb(68,68,68)" stroke="none" font-family="helvetica" font-size="11px" font-style="normal" font-weight="normal" text-decoration="normal" x="2.544921875" y="49.25" text-anchor="start" dominant-baseline="alphabetic" transform="matrix(1, 0, 0, 1, 0.5, 0.5)" fill-opacity="1">Proteobacteria Candidatus Pelagibacter</text><text fill="rgb(68,68,68)" stroke="none" font-family="helvetica" font-size="11px" font-style="normal" font-weight="normal" text-decoration="normal" x="60.66552734375" y="36.75" text-anchor="start" dominant-baseline="alphabetic" transform="matrix(1, 0, 0, 1, 0.5, 0.5)" fill-opacity="1">Proteobacteria JL-ETNP-Y6</text><path fill="none" stroke="none"/><text fill="rgb(68,68,68)" stroke="none" font-family="helvetica" font-size="13px" font-style="normal" font-weight="bold" text-decoration="normal" x="0" y="0" text-anchor="start" dominant-baseline="text-after-edge" transform="matrix(1, 0, 0, 1, 208.5, 22.5)" fill-opacity="1">Nitrates (µmol/L)</text></svg>