<svg version="1.1" xmlns="http://www.w3.org/2000/svg" xmlns:xlink="http://www.w3.org/1999/xlink" width="753" height="130"><defs><clipPath id="TeCHyxQBcsnT"><path fill="none" stroke="none" d="M 348.5 27.5 L 748.5 27.5 L 748.5 77.5 L 348.5 77.5 L 348.5 27.5"/></clipPath><clipPath id="CHvJJFyLHmnp"><path fill="none" stroke="none" d="M 348.5 27.5 L 748.5 27.5 L 748.5 77.5 L 348.5 77.5 L 348.5 27.5"/></clipPath><clipPath id="THfLnNPfntiu"><path fill="none" stroke="none" d="M 348.5 27.5 L 748.5 27.5 L 748.5 77.5 L 348.5 77.5 L 348.5 27.5"/></clipPath><clipPath id="LyNRouXrrdvb"><path fill="none" stroke="none" d="M 348.5 27.5 L 748.5 27.5 L 748.5 77.5 L 348.5 77.5 L 348.5 27.5"/></clipPath></defs><path fill="none" stroke="rgb(229,229,229)" paint-order="fill" d="M 348.5 27.5 L 748.5 27.5 L 748.5 77.5 L 348.5 77.5 L 348.5 27.5" stroke-opacity="1" stroke-linejoin="bevel" stroke-miterlimit="10" stroke-dasharray=""/><path fill="none" stroke="rgb(229,229,229)" paint-order="fill" d="M 366.5 77.5 L 366.5 27.5 M 419.5 77.5 L 419.5 27.5 M 472.5 77.5 L 472.5 27.5 M 524.5 77.5 L 524.5 27.5 M 577.5 77.5 L 577.5 27.5 M 630.5 77.5 L 630.5 27.5 M 682.5 77.5 L 682.5 27.5 M 735.5 77.5 L 735.5 27.5" stroke-opacity="1" stroke-linejoin="bevel" stroke-miterlimit="10" stroke-dasharray="" clip-path="url(#TeCHyxQBcsnT)"/><path fill="none" stroke="rgb(229,229,229)" paint-order="fill" d="M 348.5 71.5 L 748.5 71.5 M 348.5 58.5 L 748.5 58.5 M 348.5 46.5 L 748.5 46.5 M 348.5 33.5 L 748.5 33.5" stroke-opacity="1" stroke-linejoin="bevel" stroke-miterlimit="10" stroke-dasharray="" clip-path="url(#CHvJJFyLHmnp)"/><path fill="none" stroke="none"/><path fill="rgb(250,238,150)" stroke="none" paint-order="stroke" d="M 366.68182373046875 28.75 L 730.3181762695312 28.75 L 730.3181762695312 38.75 L 366.68182373046875 38.75 L 366.68182373046875 28.75" fill-opacity="1" clip-path="url(#THfLnNPfntiu)"/><path fill="none" stroke="rgb(250,238,150)" paint-order="fill" d="M 366.68182373046875 28.75 L 730.3181762695312 28.75 L 730.3181762695312 38.75 L 366.68182373046875 38.75 L 366.68182373046875 28.75" stroke-opacity="1" stroke-linejoin="bevel" stroke-miterlimit="10" stroke-dasharray="" clip-path="url(#THfLnNPfntiu)"/><path fill="rgb(69,163,132)" stroke="none" paint-order="stroke" d="M 366.68182373046875 41.25 L 380.1170349121094 41.25 L 380.1170349121094 51.25 L 366.68182373046875 51.25 L 366.68182373046875 41.25" fill-opacity="1" clip-path="url(#THfLnNPfntiu)"/><path fill="none" stroke="rgb(69,163,132)" paint-order="fill" d="M 366.68182373046875 41.25 L 380.1170349121094 41.25 L 380.1170349121094 51.25 L 366.68182373046875 51.25 L 366.68182373046875 41.25" stroke-opacity="1" stroke-linejoin="bevel" stroke-miterlimit="10" stroke-dasharray="" clip-path="url(#THfLnNPfntiu)"/><path fill="rgb(91,186,119)" stroke="none" paint-order="stroke" d="M 366.68182373046875 53.75 L 378.7640075683594 53.75 L 378.7640075683594 63.75 L 366.68182373046875 63.75 L 366.68182373046875 53.75" fill-opacity="1" clip-path="url(#THfLnNPfntiu)"/><path fill="none" stroke="rgb(91,186,119)" paint-order="fill" d="M 366.68182373046875 53.75 L 378.7640075683594 53.75 L 378.7640075683594 63.75 L 366.68182373046875 63.75 L 366.68182373046875 53.75" stroke-opacity="1" stroke-linejoin="bevel" stroke-miterlimit="10" stroke-dasharray="" clip-path="url(#THfLnNPfntiu)"/><path fill="rgb(68,161,132)" stroke="none" paint-order="stroke" d="M 366.68182373046875 66.25 L 377.8388671875 66.25 L 377.8388671875 76.25 L 366.68182373046875 76.25 L 366.68182373046875 66.25" fill-opacity="1" clip-path="url(#THfLnNPfntiu)"/><path fill="none" stroke="rgb(68,161,132)" paint-order="fill" d="M 366.68182373046875 66.25 L 377.8388671875 66.25 L 377.8388671875 76.25 L 366.68182373046875 76.25 L 366.68182373046875 66.25" stroke-opacity="1" stroke-linejoin="bevel" stroke-miterlimit="10" stroke-dasharray="" clip-path="url(#THfLnNPfntiu)"/><path fill="none" stroke="rgb(0,0,0)" paint-order="fill" d="M 348.5 77.5 L 748.5 77.5" stroke-opacity="1" stroke-linejoin="bevel" stroke-miterlimit="10" stroke-dasharray=""/><path fill="none" stroke="rgb(0,0,0)" paint-order="fill" d="M 366.5 83.5 L 366.5 75.5 M 419.5 83.5 L 419.5 75.5 M 472.5 83.5 L 472.5 75.5 M 524.5 83.5 L 524.5 75.5 M 577.5 83.5 L 577.5 75.5 M 630.5 83.5 L 630.5 75.5 M 682.5 83.5 L 682.5 75.5 M 735.5 83.5 L 735.5 75.5" stroke-opacity="1" stroke-linejoin="bevel" stroke-miterlimit="10" stroke-dasharray=""/><path fill="none" stroke="rgb(0,0,0)" paint-order="fill" d="M 356.5 81.5 L 356.5 77.5 M 366.5 81.5 L 366.5 77.5 M 377.5 81.5 L 377.5 77.5 M 387.5 81.5 L 387.5 77.5 M 398.5 81.5 L 398.5 77.5 M 408.5 81.5 L 408.5 77.5 M 419.5 81.5 L 419.5 77.5 M 429.5 81.5 L 429.5 77.5 M 440.5 81.5 L 440.5 77.5 M 450.5 81.5 L 450.5 77.5 M 461.5 81.5 L 461.5 77.5 M 472.5 81.5 L 472.5 77.5 M 482.5 81.5 L 482.5 77.5 M 493.5 81.5 L 493.5 77.5 M 503.5 81.5 L 503.5 77.5 M 514.5 81.5 L 514.5 77.5 M 524.5 81.5 L 524.5 77.5 M 535.5 81.5 L 535.5 77.5 M 545.5 81.5 L 545.5 77.5 M 556.5 81.5 L 556.5 77.5 M 566.5 81.5 L 566.5 77.5 M 577.5 81.5 L 577.5 77.5 M 587.5 81.5 L 587.5 77.5 M 598.5 81.5 L 598.5 77.5 M 609.5 81.5 L 609.5 77.5 M 619.5 81.5 L 619.5 77.5 M 630.5 81.5 L 630.5 77.5 M 640.5 81.5 L 640.5 77.5 M 651.5 81.5 L 651.5 77.5 M 661.5 81.5 L 661.5 77.5 M 672.5 81.5 L 672.5 77.5 M 682.5 81.5 L 682.5 77.5 M 693.5 81.5 L 693.5 77.5 M 703.5 81.5 L 703.5 77.5 M 714.5 81.5 L 714.5 77.5 M 724.5 81.5 L 724.5 77.5 M 735.5 81.5 L 735.5 77.5 M 746.5 81.5 L 746.5 77.5" stroke-opacity="1" stroke-linejoin="bevel" stroke-miterlimit="10" stroke-dasharray=""/><text fill="rgb(68,68,68)" stroke="none" font-family="helvetica" font-size="11px" font-style="normal" font-weight="normal" text-decoration="normal" x="360.06414794921875" y="91.945068359375" text-anchor="start" dominant-baseline="alphabetic" transform="matrix(0.7071067811865476, -0.7071067811865475, 0.7071067811865475, 0.7071067811865476, 45.52677627898106, 285.2042539626553)" fill-opacity="1">0</text><text fill="rgb(68,68,68)" stroke="none" font-family="helvetica" font-size="11px" font-style="normal" font-weight="normal" text-decoration="normal" x="403.58270263671875" y="91.945068359375" text-anchor="start" dominant-baseline="alphabetic" transform="matrix(0.7071067811865476, -0.7071067811865475, 0.7071067811865475, 0.7071067811865476, 60.96001788788482, 322.46339516625153)" fill-opacity="1">0.1</text><text fill="rgb(68,68,68)" stroke="none" font-family="helvetica" font-size="11px" font-style="normal" font-weight="normal" text-decoration="normal" x="456.2751159667969" y="91.945068359375" text-anchor="start" dominant-baseline="alphabetic" transform="matrix(0.7071067811865476, -0.7071067811865475, 0.7071067811865475, 0.7071067811865476, 76.39326843518029, 359.7225579490342)" fill-opacity="1">0.2</text><text fill="rgb(68,68,68)" stroke="none" font-family="helvetica" font-size="11px" font-style="normal" font-weight="normal" text-decoration="normal" x="508.967529296875" y="91.945068359375" text-anchor="start" dominant-baseline="alphabetic" transform="matrix(0.7071067811865476, -0.7071067811865475, 0.7071067811865475, 0.7071067811865476, 91.82651898247576, 396.98172073181684)" fill-opacity="1">0.3</text><text fill="rgb(68,68,68)" stroke="none" font-family="helvetica" font-size="11px" font-style="normal" font-weight="normal" text-decoration="normal" x="561.659912109375" y="91.945068359375" text-anchor="start" dominant-baseline="alphabetic" transform="matrix(0.7071067811865476, -0.7071067811865475, 0.7071067811865475, 0.7071067811865476, 107.25976059137952, 434.2408619354131)" fill-opacity="1">0.4</text><text fill="rgb(68,68,68)" stroke="none" font-family="helvetica" font-size="11px" font-style="normal" font-weight="normal" text-decoration="normal" x="614.352294921875" y="91.945068359375" text-anchor="start" dominant-baseline="alphabetic" transform="matrix(0.7071067811865476, -0.7071067811865475, 0.7071067811865475, 0.7071067811865476, 122.69300220028327, 471.5000031390093)" fill-opacity="1">0.5</text><text fill="rgb(68,68,68)" stroke="none" font-family="helvetica" font-size="11px" font-style="normal" font-weight="normal" text-decoration="normal" x="667.0447387695312" y="91.945068359375" text-anchor="start" dominant-baseline="alphabetic" transform="matrix(0.7071067811865476, -0.7071067811865475, 0.7071067811865475, 0.7071067811865476, 138.12626168597035, 508.75918750097844)" fill-opacity="1">0.6</text><text fill="rgb(68,68,68)" stroke="none" font-family="helvetica" font-size="11px" font-style="normal" font-weight="normal" text-decoration="normal" x="719.7371215820312" y="91.945068359375" text-anchor="start" dominant-baseline="alphabetic" transform="matrix(0.7071067811865476, -0.7071067811865475, 0.7071067811865475, 0.7071067811865476, 153.55950329487428, 546.0183287045747)" fill-opacity="1">0.7</text><text fill="rgb(68,68,68)" stroke="none" font-family="helvetica" font-size="13px" font-style="italic" font-weight="normal" text-decoration="normal" x="515.484130859375" y="124.39189528496706" text-anchor="start" dominant-baseline="alphabetic" transform="matrix(1, 0, 0, 1, 0.5, 0.5)" fill-opacity="1">Importance</text><path fill="none" stroke="rgb(0,0,0)" paint-order="fill" d="M 348.5 77.5 L 348.5 27.5" stroke-opacity="1" stroke-linejoin="bevel" stroke-miterlimit="10" stroke-dasharray=""/><path fill="none" stroke="rgb(0,0,0)" paint-order="fill" d="M 342.5 71.5 L 350.5 71.5 M 342.5 58.5 L 350.5 58.5 M 342.5 46.5 L 350.5 46.5 M 342.5 33.5 L 350.5 33.5" stroke-opacity="1" stroke-linejoin="bevel" stroke-miterlimit="10" stroke-dasharray=""/><path fill="none" stroke="rgb(0,0,0)" paint-order="fill" d="" stroke-opacity="1" stroke-linejoin="bevel" stroke-miterlimit="10" stroke-dasharray=""/><text fill="rgb(68,68,68)" stroke="none" font-family="helvetica" font-size="11px" font-style="normal" font-weight="normal" text-decoration="normal" x="2.52587890625" y="74.25" text-anchor="start" dominant-baseline="alphabetic" transform="matrix(1, 0, 0, 1, 0.5, 0.5)" fill-opacity="1">Post-translational modification, protein turnover, chaperone functions</text><text fill="rgb(68,68,68)" stroke="none" font-family="helvetica" font-size="11px" font-style="normal" font-weight="normal" text-decoration="normal" x="166.4140625" y="61.75" text-anchor="start" dominant-baseline="alphabetic" transform="matrix(1, 0, 0, 1, 0.5, 0.5)" fill-opacity="1">Intracellular trafficing and secretion</text><text fill="rgb(68,68,68)" stroke="none" font-family="helvetica" font-size="11px" font-style="normal" font-weight="normal" text-decoration="normal" x="273.8251953125" y="49.25" text-anchor="start" dominant-baseline="alphabetic" transform="matrix(1, 0, 0, 1, 0.5, 0.5)" fill-opacity="1">Transcription</text><text fill="rgb(68,68,68)" stroke="none" font-family="helvetica" font-size="11px" font-style="normal" font-weight="normal" text-decoration="normal" x="273.8251953125" y="36.75" text-anchor="start" dominant-baseline="alphabetic" transform="matrix(1, 0, 0, 1, 0.5, 0.5)" fill-opacity="1">Transcription</text><path fill="none" stroke="none"/><text fill="rgb(68,68,68)" stroke="none" font-family="helvetica" font-size="13px" font-style="normal" font-weight="bold" text-decoration="normal" x="0" y="0" text-anchor="start" dominant-baseline="text-after-edge" transform="matrix(1, 0, 0, 1, 348.5, 22.5)" fill-opacity="1">Depth (m)</text></svg>