<svg version="1.1" xmlns="http://www.w3.org/2000/svg" xmlns:xlink="http://www.w3.org/1999/xlink" width="753" height="135"><defs><clipPath id="XXrTmnKVWEgL"><path fill="none" stroke="none" d="M 348.5 27.5 L 748.5 27.5 L 748.5 77.5 L 348.5 77.5 L 348.5 27.5"/></clipPath><clipPath id="BbSWoNBWgsoy"><path fill="none" stroke="none" d="M 348.5 27.5 L 748.5 27.5 L 748.5 77.5 L 348.5 77.5 L 348.5 27.5"/></clipPath><clipPath id="rnyuTpGSMAKk"><path fill="none" stroke="none" d="M 348.5 27.5 L 748.5 27.5 L 748.5 77.5 L 348.5 77.5 L 348.5 27.5"/></clipPath><clipPath id="QfRTddOxQDXr"><path fill="none" stroke="none" d="M 348.5 27.5 L 748.5 27.5 L 748.5 77.5 L 348.5 77.5 L 348.5 27.5"/></clipPath></defs><path fill="none" stroke="rgb(229,229,229)" paint-order="fill" d="M 348.5 27.5 L 748.5 27.5 L 748.5 77.5 L 348.5 77.5 L 348.5 27.5" stroke-opacity="1" stroke-linejoin="bevel" stroke-miterlimit="10" stroke-dasharray=""/><path fill="none" stroke="rgb(229,229,229)" paint-order="fill" d="M 366.5 77.5 L 366.5 27.5 M 447.5 77.5 L 447.5 27.5 M 528.5 77.5 L 528.5 27.5 M 609.5 77.5 L 609.5 27.5 M 690.5 77.5 L 690.5 27.5" stroke-opacity="1" stroke-linejoin="bevel" stroke-miterlimit="10" stroke-dasharray="" clip-path="url(#XXrTmnKVWEgL)"/><path fill="none" stroke="rgb(229,229,229)" paint-order="fill" d="M 348.5 71.5 L 748.5 71.5 M 348.5 58.5 L 748.5 58.5 M 348.5 46.5 L 748.5 46.5 M 348.5 33.5 L 748.5 33.5" stroke-opacity="1" stroke-linejoin="bevel" stroke-miterlimit="10" stroke-dasharray="" clip-path="url(#BbSWoNBWgsoy)"/><path fill="none" stroke="none"/><path fill="rgb(124,204,102)" stroke="none" paint-order="stroke" d="M 366.68182373046875 28.75 L 730.3181762695312 28.75 L 730.3181762695312 38.75 L 366.68182373046875 38.75 L 366.68182373046875 28.75" fill-opacity="1" clip-path="url(#rnyuTpGSMAKk)"/><path fill="none" stroke="rgb(124,204,102)" paint-order="fill" d="M 366.68182373046875 28.75 L 730.3181762695312 28.75 L 730.3181762695312 38.75 L 366.68182373046875 38.75 L 366.68182373046875 28.75" stroke-opacity="1" stroke-linejoin="bevel" stroke-miterlimit="10" stroke-dasharray="" clip-path="url(#rnyuTpGSMAKk)"/><path fill="rgb(90,185,120)" stroke="none" paint-order="stroke" d="M 366.68182373046875 41.25 L 536.79296875 41.25 L 536.79296875 51.25 L 366.68182373046875 51.25 L 366.68182373046875 41.25" fill-opacity="1" clip-path="url(#rnyuTpGSMAKk)"/><path fill="none" stroke="rgb(90,185,120)" paint-order="fill" d="M 366.68182373046875 41.25 L 536.79296875 41.25 L 536.79296875 51.25 L 366.68182373046875 51.25 L 366.68182373046875 41.25" stroke-opacity="1" stroke-linejoin="bevel" stroke-miterlimit="10" stroke-dasharray="" clip-path="url(#rnyuTpGSMAKk)"/><path fill="rgb(99,192,114)" stroke="none" paint-order="stroke" d="M 366.68182373046875 53.75 L 495.123046875 53.75 L 495.123046875 63.75 L 366.68182373046875 63.75 L 366.68182373046875 53.75" fill-opacity="1" clip-path="url(#rnyuTpGSMAKk)"/><path fill="none" stroke="rgb(99,192,114)" paint-order="fill" d="M 366.68182373046875 53.75 L 495.123046875 53.75 L 495.123046875 63.75 L 366.68182373046875 63.75 L 366.68182373046875 53.75" stroke-opacity="1" stroke-linejoin="bevel" stroke-miterlimit="10" stroke-dasharray="" clip-path="url(#rnyuTpGSMAKk)"/><path fill="rgb(83,180,124)" stroke="none" paint-order="stroke" d="M 366.68182373046875 66.25 L 494.41729736328125 66.25 L 494.41729736328125 76.25 L 366.68182373046875 76.25 L 366.68182373046875 66.25" fill-opacity="1" clip-path="url(#rnyuTpGSMAKk)"/><path fill="none" stroke="rgb(83,180,124)" paint-order="fill" d="M 366.68182373046875 66.25 L 494.41729736328125 66.25 L 494.41729736328125 76.25 L 366.68182373046875 76.25 L 366.68182373046875 66.25" stroke-opacity="1" stroke-linejoin="bevel" stroke-miterlimit="10" stroke-dasharray="" clip-path="url(#rnyuTpGSMAKk)"/><path fill="none" stroke="rgb(0,0,0)" paint-order="fill" d="M 348.5 77.5 L 748.5 77.5" stroke-opacity="1" stroke-linejoin="bevel" stroke-miterlimit="10" stroke-dasharray=""/><path fill="none" stroke="rgb(0,0,0)" paint-order="fill" d="M 366.5 83.5 L 366.5 75.5 M 447.5 83.5 L 447.5 75.5 M 528.5 83.5 L 528.5 75.5 M 609.5 83.5 L 609.5 75.5 M 690.5 83.5 L 690.5 75.5" stroke-opacity="1" stroke-linejoin="bevel" stroke-miterlimit="10" stroke-dasharray=""/><path fill="none" stroke="rgb(0,0,0)" paint-order="fill" d="M 350.5 81.5 L 350.5 77.5 M 366.5 81.5 L 366.5 77.5 M 382.5 81.5 L 382.5 77.5 M 399.5 81.5 L 399.5 77.5 M 415.5 81.5 L 415.5 77.5 M 431.5 81.5 L 431.5 77.5 M 447.5 81.5 L 447.5 77.5 M 463.5 81.5 L 463.5 77.5 M 480.5 81.5 L 480.5 77.5 M 496.5 81.5 L 496.5 77.5 M 512.5 81.5 L 512.5 77.5 M 528.5 81.5 L 528.5 77.5 M 544.5 81.5 L 544.5 77.5 M 561.5 81.5 L 561.5 77.5 M 577.5 81.5 L 577.5 77.5 M 593.5 81.5 L 593.5 77.5 M 609.5 81.5 L 609.5 77.5 M 625.5 81.5 L 625.5 77.5 M 642.5 81.5 L 642.5 77.5 M 658.5 81.5 L 658.5 77.5 M 674.5 81.5 L 674.5 77.5 M 690.5 81.5 L 690.5 77.5 M 707.5 81.5 L 707.5 77.5 M 723.5 81.5 L 723.5 77.5 M 739.5 81.5 L 739.5 77.5" stroke-opacity="1" stroke-linejoin="bevel" stroke-miterlimit="10" stroke-dasharray=""/><text fill="rgb(68,68,68)" stroke="none" font-family="helvetica" font-size="11px" font-style="normal" font-weight="normal" text-decoration="normal" x="360.06414794921875" y="91.945068359375" text-anchor="start" dominant-baseline="alphabetic" transform="matrix(0.7071067811865476, -0.7071067811865475, 0.7071067811865475, 0.7071067811865476, 45.52677627898106, 285.2042539626553)" fill-opacity="1">0</text><text fill="rgb(68,68,68)" stroke="none" font-family="helvetica" font-size="11px" font-style="normal" font-weight="normal" text-decoration="normal" x="425.8063049316406" y="91.945068359375" text-anchor="start" dominant-baseline="alphabetic" transform="matrix(0.7071067811865476, -0.7071067811865475, 0.7071067811865475, 0.7071067811865476, 69.26098604890194, 342.5037050814063)" fill-opacity="1">0.02</text><text fill="rgb(68,68,68)" stroke="none" font-family="helvetica" font-size="11px" font-style="normal" font-weight="normal" text-decoration="normal" x="506.8399658203125" y="91.945068359375" text-anchor="start" dominant-baseline="alphabetic" transform="matrix(0.7071067811865476, -0.7071067811865475, 0.7071067811865475, 0.7071067811865476, 92.99519581882282, 399.8031562001573)" fill-opacity="1">0.04</text><text fill="rgb(68,68,68)" stroke="none" font-family="helvetica" font-size="11px" font-style="normal" font-weight="normal" text-decoration="normal" x="587.8736572265625" y="91.945068359375" text-anchor="start" dominant-baseline="alphabetic" transform="matrix(0.7071067811865476, -0.7071067811865475, 0.7071067811865475, 0.7071067811865476, 116.72941452713536, 457.1026288980947)" fill-opacity="1">0.06</text><text fill="rgb(68,68,68)" stroke="none" font-family="helvetica" font-size="11px" font-style="normal" font-weight="normal" text-decoration="normal" x="668.9073486328125" y="91.945068359375" text-anchor="start" dominant-baseline="alphabetic" transform="matrix(0.7071067811865476, -0.7071067811865475, 0.7071067811865475, 0.7071067811865476, 140.46363323544801, 514.4021015960321)" fill-opacity="1">0.08</text><text fill="rgb(68,68,68)" stroke="none" font-family="helvetica" font-size="13px" font-style="italic" font-weight="normal" text-decoration="normal" x="515.484130859375" y="128.71774531498966" text-anchor="start" dominant-baseline="alphabetic" transform="matrix(1, 0, 0, 1, 0.5, 0.5)" fill-opacity="1">Importance</text><path fill="none" stroke="rgb(0,0,0)" paint-order="fill" d="M 348.5 77.5 L 348.5 27.5" stroke-opacity="1" stroke-linejoin="bevel" stroke-miterlimit="10" stroke-dasharray=""/><path fill="none" stroke="rgb(0,0,0)" paint-order="fill" d="M 342.5 71.5 L 350.5 71.5 M 342.5 58.5 L 350.5 58.5 M 342.5 46.5 L 350.5 46.5 M 342.5 33.5 L 350.5 33.5" stroke-opacity="1" stroke-linejoin="bevel" stroke-miterlimit="10" stroke-dasharray=""/><path fill="none" stroke="rgb(0,0,0)" paint-order="fill" d="" stroke-opacity="1" stroke-linejoin="bevel" stroke-miterlimit="10" stroke-dasharray=""/><text fill="rgb(68,68,68)" stroke="none" font-family="helvetica" font-size="11px" font-style="normal" font-weight="normal" text-decoration="normal" x="157.8525390625" y="74.25" text-anchor="start" dominant-baseline="alphabetic" transform="matrix(1, 0, 0, 1, 0.5, 0.5)" fill-opacity="1">Nucleotide metabolism and transport</text><text fill="rgb(68,68,68)" stroke="none" font-family="helvetica" font-size="11px" font-style="normal" font-weight="normal" text-decoration="normal" x="273.8251953125" y="61.75" text-anchor="start" dominant-baseline="alphabetic" transform="matrix(1, 0, 0, 1, 0.5, 0.5)" fill-opacity="1">Transcription</text><text fill="rgb(68,68,68)" stroke="none" font-family="helvetica" font-size="11px" font-style="normal" font-weight="normal" text-decoration="normal" x="2.52587890625" y="49.25" text-anchor="start" dominant-baseline="alphabetic" transform="matrix(1, 0, 0, 1, 0.5, 0.5)" fill-opacity="1">Post-translational modification, protein turnover, chaperone functions</text><text fill="rgb(68,68,68)" stroke="none" font-family="helvetica" font-size="11px" font-style="normal" font-weight="normal" text-decoration="normal" x="243.44091796875" y="36.75" text-anchor="start" dominant-baseline="alphabetic" transform="matrix(1, 0, 0, 1, 0.5, 0.5)" fill-opacity="1">Signal transduction</text><path fill="none" stroke="none"/><text fill="rgb(68,68,68)" stroke="none" font-family="helvetica" font-size="13px" font-style="normal" font-weight="bold" text-decoration="normal" x="0" y="0" text-anchor="start" dominant-baseline="text-after-edge" transform="matrix(1, 0, 0, 1, 348.5, 22.5)" fill-opacity="1">Salinity (PSU)</text></svg>