<svg version="1.1" xmlns="http://www.w3.org/2000/svg" xmlns:xlink="http://www.w3.org/1999/xlink" width="613" height="130"><defs><clipPath id="ZUxPxgNnXXWH"><path fill="none" stroke="none" d="M 208.5 27.5 L 608.5 27.5 L 608.5 77.5 L 208.5 77.5 L 208.5 27.5"/></clipPath><clipPath id="qubiULFCEyCa"><path fill="none" stroke="none" d="M 208.5 27.5 L 608.5 27.5 L 608.5 77.5 L 208.5 77.5 L 208.5 27.5"/></clipPath><clipPath id="PtGyhePgCwgy"><path fill="none" stroke="none" d="M 208.5 27.5 L 608.5 27.5 L 608.5 77.5 L 208.5 77.5 L 208.5 27.5"/></clipPath><clipPath id="OTnLrfGkXgbx"><path fill="none" stroke="none" d="M 208.5 27.5 L 608.5 27.5 L 608.5 77.5 L 208.5 77.5 L 208.5 27.5"/></clipPath></defs><path fill="none" stroke="rgb(229,229,229)" paint-order="fill" d="M 208.5 27.5 L 608.5 27.5 L 608.5 77.5 L 208.5 77.5 L 208.5 27.5" stroke-opacity="1" stroke-linejoin="bevel" stroke-miterlimit="10" stroke-dasharray=""/><path fill="none" stroke="rgb(229,229,229)" paint-order="fill" d="M 226.5 77.5 L 226.5 27.5 M 292.5 77.5 L 292.5 27.5 M 358.5 77.5 L 358.5 27.5 M 424.5 77.5 L 424.5 27.5 M 489.5 77.5 L 489.5 27.5 M 555.5 77.5 L 555.5 27.5" stroke-opacity="1" stroke-linejoin="bevel" stroke-miterlimit="10" stroke-dasharray="" clip-path="url(#ZUxPxgNnXXWH)"/><path fill="none" stroke="rgb(229,229,229)" paint-order="fill" d="M 208.5 71.5 L 608.5 71.5 M 208.5 58.5 L 608.5 58.5 M 208.5 46.5 L 608.5 46.5 M 208.5 33.5 L 608.5 33.5" stroke-opacity="1" stroke-linejoin="bevel" stroke-miterlimit="10" stroke-dasharray="" clip-path="url(#qubiULFCEyCa)"/><path fill="none" stroke="none"/><path fill="rgb(252,238,152)" stroke="none" paint-order="stroke" d="M 226.68182373046875 28.75 L 590.3181762695312 28.75 L 590.3181762695312 38.75 L 226.68182373046875 38.75 L 226.68182373046875 28.75" fill-opacity="1" clip-path="url(#PtGyhePgCwgy)"/><path fill="none" stroke="rgb(252,238,152)" paint-order="fill" d="M 226.68182373046875 28.75 L 590.3181762695312 28.75 L 590.3181762695312 38.75 L 226.68182373046875 38.75 L 226.68182373046875 28.75" stroke-opacity="1" stroke-linejoin="bevel" stroke-miterlimit="10" stroke-dasharray="" clip-path="url(#PtGyhePgCwgy)"/><path fill="rgb(231,231,129)" stroke="none" paint-order="stroke" d="M 226.68182373046875 41.25 L 271.78594970703125 41.25 L 271.78594970703125 51.25 L 226.68182373046875 51.25 L 226.68182373046875 41.25" fill-opacity="1" clip-path="url(#PtGyhePgCwgy)"/><path fill="none" stroke="rgb(231,231,129)" paint-order="fill" d="M 226.68182373046875 41.25 L 271.78594970703125 41.25 L 271.78594970703125 51.25 L 226.68182373046875 51.25 L 226.68182373046875 41.25" stroke-opacity="1" stroke-linejoin="bevel" stroke-miterlimit="10" stroke-dasharray="" clip-path="url(#PtGyhePgCwgy)"/><path fill="rgb(75,171,129)" stroke="none" paint-order="stroke" d="M 226.68182373046875 53.75 L 253.90882873535156 53.75 L 253.90882873535156 63.75 L 226.68182373046875 63.75 L 226.68182373046875 53.75" fill-opacity="1" clip-path="url(#PtGyhePgCwgy)"/><path fill="none" stroke="rgb(75,171,129)" paint-order="fill" d="M 226.68182373046875 53.75 L 253.90882873535156 53.75 L 253.90882873535156 63.75 L 226.68182373046875 63.75 L 226.68182373046875 53.75" stroke-opacity="1" stroke-linejoin="bevel" stroke-miterlimit="10" stroke-dasharray="" clip-path="url(#PtGyhePgCwgy)"/><path fill="rgb(126,205,101)" stroke="none" paint-order="stroke" d="M 226.68182373046875 66.25 L 247.93368530273438 66.25 L 247.93368530273438 76.25 L 226.68182373046875 76.25 L 226.68182373046875 66.25" fill-opacity="1" clip-path="url(#PtGyhePgCwgy)"/><path fill="none" stroke="rgb(126,205,101)" paint-order="fill" d="M 226.68182373046875 66.25 L 247.93368530273438 66.25 L 247.93368530273438 76.25 L 226.68182373046875 76.25 L 226.68182373046875 66.25" stroke-opacity="1" stroke-linejoin="bevel" stroke-miterlimit="10" stroke-dasharray="" clip-path="url(#PtGyhePgCwgy)"/><path fill="none" stroke="rgb(0,0,0)" paint-order="fill" d="M 208.5 77.5 L 608.5 77.5" stroke-opacity="1" stroke-linejoin="bevel" stroke-miterlimit="10" stroke-dasharray=""/><path fill="none" stroke="rgb(0,0,0)" paint-order="fill" d="M 226.5 83.5 L 226.5 75.5 M 292.5 83.5 L 292.5 75.5 M 358.5 83.5 L 358.5 75.5 M 424.5 83.5 L 424.5 75.5 M 489.5 83.5 L 489.5 75.5 M 555.5 83.5 L 555.5 75.5" stroke-opacity="1" stroke-linejoin="bevel" stroke-miterlimit="10" stroke-dasharray=""/><path fill="none" stroke="rgb(0,0,0)" paint-order="fill" d="M 213.5 81.5 L 213.5 77.5 M 226.5 81.5 L 226.5 77.5 M 239.5 81.5 L 239.5 77.5 M 253.5 81.5 L 253.5 77.5 M 266.5 81.5 L 266.5 77.5 M 279.5 81.5 L 279.5 77.5 M 292.5 81.5 L 292.5 77.5 M 305.5 81.5 L 305.5 77.5 M 318.5 81.5 L 318.5 77.5 M 331.5 81.5 L 331.5 77.5 M 345.5 81.5 L 345.5 77.5 M 358.5 81.5 L 358.5 77.5 M 371.5 81.5 L 371.5 77.5 M 384.5 81.5 L 384.5 77.5 M 397.5 81.5 L 397.5 77.5 M 410.5 81.5 L 410.5 77.5 M 424.5 81.5 L 424.5 77.5 M 437.5 81.5 L 437.5 77.5 M 450.5 81.5 L 450.5 77.5 M 463.5 81.5 L 463.5 77.5 M 476.5 81.5 L 476.5 77.5 M 489.5 81.5 L 489.5 77.5 M 503.5 81.5 L 503.5 77.5 M 516.5 81.5 L 516.5 77.5 M 529.5 81.5 L 529.5 77.5 M 542.5 81.5 L 542.5 77.5 M 555.5 81.5 L 555.5 77.5 M 568.5 81.5 L 568.5 77.5 M 582.5 81.5 L 582.5 77.5 M 595.5 81.5 L 595.5 77.5 M 608.5 81.5 L 608.5 77.5" stroke-opacity="1" stroke-linejoin="bevel" stroke-miterlimit="10" stroke-dasharray=""/><text fill="rgb(68,68,68)" stroke="none" font-family="helvetica" font-size="11px" font-style="normal" font-weight="normal" text-decoration="normal" x="220.06414794921875" y="91.945068359375" text-anchor="start" dominant-baseline="alphabetic" transform="matrix(0.7071067811865476, -0.7071067811865475, 0.7071067811865475, 0.7071067811865476, 4.521725645097746, 186.20930459653863)" fill-opacity="1">0</text><text fill="rgb(68,68,68)" stroke="none" font-family="helvetica" font-size="11px" font-style="normal" font-weight="normal" text-decoration="normal" x="276.7133483886719" y="91.945068359375" text-anchor="start" dominant-baseline="alphabetic" transform="matrix(0.7071067811865476, -0.7071067811865475, 0.7071067811865475, 0.7071067811865476, 23.800844353390232, 232.75321445269924)" fill-opacity="1">0.1</text><text fill="rgb(68,68,68)" stroke="none" font-family="helvetica" font-size="11px" font-style="normal" font-weight="normal" text-decoration="normal" x="342.5364074707031" y="91.945068359375" text-anchor="start" dominant-baseline="alphabetic" transform="matrix(0.7071067811865476, -0.7071067811865475, 0.7071067811865475, 0.7071067811865476, 43.07997200007446, 279.2971458880463)" fill-opacity="1">0.2</text><text fill="rgb(68,68,68)" stroke="none" font-family="helvetica" font-size="11px" font-style="normal" font-weight="normal" text-decoration="normal" x="408.35943603515625" y="91.945068359375" text-anchor="start" dominant-baseline="alphabetic" transform="matrix(0.7071067811865476, -0.7071067811865475, 0.7071067811865475, 0.7071067811865476, 62.35909070836692, 325.8410557442069)" fill-opacity="1">0.3</text><text fill="rgb(68,68,68)" stroke="none" font-family="helvetica" font-size="11px" font-style="normal" font-weight="normal" text-decoration="normal" x="474.1824951171875" y="91.945068359375" text-anchor="start" dominant-baseline="alphabetic" transform="matrix(0.7071067811865476, -0.7071067811865475, 0.7071067811865475, 0.7071067811865476, 81.6382183550511, 372.384987179554)" fill-opacity="1">0.4</text><text fill="rgb(68,68,68)" stroke="none" font-family="helvetica" font-size="11px" font-style="normal" font-weight="normal" text-decoration="normal" x="540.0055541992188" y="91.945068359375" text-anchor="start" dominant-baseline="alphabetic" transform="matrix(0.7071067811865476, -0.7071067811865475, 0.7071067811865475, 0.7071067811865476, 100.91734600173527, 418.928918614901)" fill-opacity="1">0.5</text><text fill="rgb(68,68,68)" stroke="none" font-family="helvetica" font-size="13px" font-style="italic" font-weight="normal" text-decoration="normal" x="375.484130859375" y="124.39189528496706" text-anchor="start" dominant-baseline="alphabetic" transform="matrix(1, 0, 0, 1, 0.5, 0.5)" fill-opacity="1">Importance</text><path fill="none" stroke="rgb(0,0,0)" paint-order="fill" d="M 208.5 77.5 L 208.5 27.5" stroke-opacity="1" stroke-linejoin="bevel" stroke-miterlimit="10" stroke-dasharray=""/><path fill="none" stroke="rgb(0,0,0)" paint-order="fill" d="M 202.5 71.5 L 210.5 71.5 M 202.5 58.5 L 210.5 58.5 M 202.5 46.5 L 210.5 46.5 M 202.5 33.5 L 210.5 33.5" stroke-opacity="1" stroke-linejoin="bevel" stroke-miterlimit="10" stroke-dasharray=""/><path fill="none" stroke="rgb(0,0,0)" paint-order="fill" d="" stroke-opacity="1" stroke-linejoin="bevel" stroke-miterlimit="10" stroke-dasharray=""/><text fill="rgb(68,68,68)" stroke="none" font-family="helvetica" font-size="11px" font-style="normal" font-weight="normal" text-decoration="normal" x="3.1787109375" y="74.25" text-anchor="start" dominant-baseline="alphabetic" transform="matrix(1, 0, 0, 1, 0.5, 0.5)" fill-opacity="1">Carbohydrate metabolism and transport</text><text fill="rgb(68,68,68)" stroke="none" font-family="helvetica" font-size="11px" font-style="normal" font-weight="normal" text-decoration="normal" x="15.4140625" y="61.75" text-anchor="start" dominant-baseline="alphabetic" transform="matrix(1, 0, 0, 1, 0.5, 0.5)" fill-opacity="1">Amino acid metabolism and transport</text><text fill="rgb(68,68,68)" stroke="none" font-family="helvetica" font-size="11px" font-style="normal" font-weight="normal" text-decoration="normal" x="30.06103515625" y="49.25" text-anchor="start" dominant-baseline="alphabetic" transform="matrix(1, 0, 0, 1, 0.5, 0.5)" fill-opacity="1">Energy production and conversion</text><text fill="rgb(68,68,68)" stroke="none" font-family="helvetica" font-size="11px" font-style="normal" font-weight="normal" text-decoration="normal" x="133.8251953125" y="36.75" text-anchor="start" dominant-baseline="alphabetic" transform="matrix(1, 0, 0, 1, 0.5, 0.5)" fill-opacity="1">Transcription</text><path fill="none" stroke="none"/><text fill="rgb(68,68,68)" stroke="none" font-family="helvetica" font-size="13px" font-style="normal" font-weight="bold" text-decoration="normal" x="0" y="0" text-anchor="start" dominant-baseline="text-after-edge" transform="matrix(1, 0, 0, 1, 208.5, 22.5)" fill-opacity="1">Temperature (°C)</text></svg>