<svg version="1.1" xmlns="http://www.w3.org/2000/svg" xmlns:xlink="http://www.w3.org/1999/xlink" width="753" height="135"><defs><clipPath id="QhWsKPRaTbMy"><path fill="none" stroke="none" d="M 348.5 27.5 L 748.5 27.5 L 748.5 77.5 L 348.5 77.5 L 348.5 27.5"/></clipPath><clipPath id="NTWEILqLHzGV"><path fill="none" stroke="none" d="M 348.5 27.5 L 748.5 27.5 L 748.5 77.5 L 348.5 77.5 L 348.5 27.5"/></clipPath><clipPath id="UFkRerDBptdx"><path fill="none" stroke="none" d="M 348.5 27.5 L 748.5 27.5 L 748.5 77.5 L 348.5 77.5 L 348.5 27.5"/></clipPath><clipPath id="DwLnJALsfvyF"><path fill="none" stroke="none" d="M 348.5 27.5 L 748.5 27.5 L 748.5 77.5 L 348.5 77.5 L 348.5 27.5"/></clipPath></defs><path fill="none" stroke="rgb(229,229,229)" paint-order="fill" d="M 348.5 27.5 L 748.5 27.5 L 748.5 77.5 L 348.5 77.5 L 348.5 27.5" stroke-opacity="1" stroke-linejoin="bevel" stroke-miterlimit="10" stroke-dasharray=""/><path fill="none" stroke="rgb(229,229,229)" paint-order="fill" d="M 366.5 77.5 L 366.5 27.5 M 427.5 77.5 L 427.5 27.5 M 489.5 77.5 L 489.5 27.5 M 550.5 77.5 L 550.5 27.5 M 611.5 77.5 L 611.5 27.5 M 672.5 77.5 L 672.5 27.5 M 733.5 77.5 L 733.5 27.5" stroke-opacity="1" stroke-linejoin="bevel" stroke-miterlimit="10" stroke-dasharray="" clip-path="url(#QhWsKPRaTbMy)"/><path fill="none" stroke="rgb(229,229,229)" paint-order="fill" d="M 348.5 71.5 L 748.5 71.5 M 348.5 58.5 L 748.5 58.5 M 348.5 46.5 L 748.5 46.5 M 348.5 33.5 L 748.5 33.5" stroke-opacity="1" stroke-linejoin="bevel" stroke-miterlimit="10" stroke-dasharray="" clip-path="url(#NTWEILqLHzGV)"/><path fill="none" stroke="none"/><path fill="rgb(115,200,106)" stroke="none" paint-order="stroke" d="M 366.68182373046875 28.75 L 730.3181762695312 28.75 L 730.3181762695312 38.75 L 366.68182373046875 38.75 L 366.68182373046875 28.75" fill-opacity="1" clip-path="url(#UFkRerDBptdx)"/><path fill="none" stroke="rgb(115,200,106)" paint-order="fill" d="M 366.68182373046875 28.75 L 730.3181762695312 28.75 L 730.3181762695312 38.75 L 366.68182373046875 38.75 L 366.68182373046875 28.75" stroke-opacity="1" stroke-linejoin="bevel" stroke-miterlimit="10" stroke-dasharray="" clip-path="url(#UFkRerDBptdx)"/><path fill="rgb(95,190,117)" stroke="none" paint-order="stroke" d="M 366.68182373046875 41.25 L 550.0458374023438 41.25 L 550.0458374023438 51.25 L 366.68182373046875 51.25 L 366.68182373046875 41.25" fill-opacity="1" clip-path="url(#UFkRerDBptdx)"/><path fill="none" stroke="rgb(95,190,117)" paint-order="fill" d="M 366.68182373046875 41.25 L 550.0458374023438 41.25 L 550.0458374023438 51.25 L 366.68182373046875 51.25 L 366.68182373046875 41.25" stroke-opacity="1" stroke-linejoin="bevel" stroke-miterlimit="10" stroke-dasharray="" clip-path="url(#UFkRerDBptdx)"/><path fill="rgb(87,184,121)" stroke="none" paint-order="stroke" d="M 366.68182373046875 53.75 L 536.4735717773438 53.75 L 536.4735717773438 63.75 L 366.68182373046875 63.75 L 366.68182373046875 53.75" fill-opacity="1" clip-path="url(#UFkRerDBptdx)"/><path fill="none" stroke="rgb(87,184,121)" paint-order="fill" d="M 366.68182373046875 53.75 L 536.4735717773438 53.75 L 536.4735717773438 63.75 L 366.68182373046875 63.75 L 366.68182373046875 53.75" stroke-opacity="1" stroke-linejoin="bevel" stroke-miterlimit="10" stroke-dasharray="" clip-path="url(#UFkRerDBptdx)"/><path fill="rgb(81,178,125)" stroke="none" paint-order="stroke" d="M 366.68182373046875 66.25 L 495.0912780761719 66.25 L 495.0912780761719 76.25 L 366.68182373046875 76.25 L 366.68182373046875 66.25" fill-opacity="1" clip-path="url(#UFkRerDBptdx)"/><path fill="none" stroke="rgb(81,178,125)" paint-order="fill" d="M 366.68182373046875 66.25 L 495.0912780761719 66.25 L 495.0912780761719 76.25 L 366.68182373046875 76.25 L 366.68182373046875 66.25" stroke-opacity="1" stroke-linejoin="bevel" stroke-miterlimit="10" stroke-dasharray="" clip-path="url(#UFkRerDBptdx)"/><path fill="none" stroke="rgb(0,0,0)" paint-order="fill" d="M 348.5 77.5 L 748.5 77.5" stroke-opacity="1" stroke-linejoin="bevel" stroke-miterlimit="10" stroke-dasharray=""/><path fill="none" stroke="rgb(0,0,0)" paint-order="fill" d="M 366.5 83.5 L 366.5 75.5 M 427.5 83.5 L 427.5 75.5 M 489.5 83.5 L 489.5 75.5 M 550.5 83.5 L 550.5 75.5 M 611.5 83.5 L 611.5 75.5 M 672.5 83.5 L 672.5 75.5 M 733.5 83.5 L 733.5 75.5" stroke-opacity="1" stroke-linejoin="bevel" stroke-miterlimit="10" stroke-dasharray=""/><path fill="none" stroke="rgb(0,0,0)" paint-order="fill" d="M 354.5 81.5 L 354.5 77.5 M 366.5 81.5 L 366.5 77.5 M 378.5 81.5 L 378.5 77.5 M 391.5 81.5 L 391.5 77.5 M 403.5 81.5 L 403.5 77.5 M 415.5 81.5 L 415.5 77.5 M 427.5 81.5 L 427.5 77.5 M 440.5 81.5 L 440.5 77.5 M 452.5 81.5 L 452.5 77.5 M 464.5 81.5 L 464.5 77.5 M 476.5 81.5 L 476.5 77.5 M 489.5 81.5 L 489.5 77.5 M 501.5 81.5 L 501.5 77.5 M 513.5 81.5 L 513.5 77.5 M 525.5 81.5 L 525.5 77.5 M 538.5 81.5 L 538.5 77.5 M 550.5 81.5 L 550.5 77.5 M 562.5 81.5 L 562.5 77.5 M 574.5 81.5 L 574.5 77.5 M 587.5 81.5 L 587.5 77.5 M 599.5 81.5 L 599.5 77.5 M 611.5 81.5 L 611.5 77.5 M 623.5 81.5 L 623.5 77.5 M 635.5 81.5 L 635.5 77.5 M 648.5 81.5 L 648.5 77.5 M 660.5 81.5 L 660.5 77.5 M 672.5 81.5 L 672.5 77.5 M 684.5 81.5 L 684.5 77.5 M 697.5 81.5 L 697.5 77.5 M 709.5 81.5 L 709.5 77.5 M 721.5 81.5 L 721.5 77.5 M 733.5 81.5 L 733.5 77.5 M 746.5 81.5 L 746.5 77.5" stroke-opacity="1" stroke-linejoin="bevel" stroke-miterlimit="10" stroke-dasharray=""/><text fill="rgb(68,68,68)" stroke="none" font-family="helvetica" font-size="11px" font-style="normal" font-weight="normal" text-decoration="normal" x="360.06414794921875" y="91.945068359375" text-anchor="start" dominant-baseline="alphabetic" transform="matrix(0.7071067811865476, -0.7071067811865475, 0.7071067811865475, 0.7071067811865476, 45.52677627898106, 285.2042539626553)" fill-opacity="1">0</text><text fill="rgb(68,68,68)" stroke="none" font-family="helvetica" font-size="11px" font-style="normal" font-weight="normal" text-decoration="normal" x="405.9803161621094" y="91.945068359375" text-anchor="start" dominant-baseline="alphabetic" transform="matrix(0.7071067811865476, -0.7071067811865475, 0.7071067811865475, 0.7071067811865476, 63.45408838203457, 328.4846139787424)" fill-opacity="1">0.01</text><text fill="rgb(68,68,68)" stroke="none" font-family="helvetica" font-size="11px" font-style="normal" font-weight="normal" text-decoration="normal" x="467.18798828125" y="91.945068359375" text-anchor="start" dominant-baseline="alphabetic" transform="matrix(0.7071067811865476, -0.7071067811865475, 0.7071067811865475, 0.7071067811865476, 81.38140048508808, 371.7649739948295)" fill-opacity="1">0.02</text><text fill="rgb(68,68,68)" stroke="none" font-family="helvetica" font-size="11px" font-style="normal" font-weight="normal" text-decoration="normal" x="528.3956298828125" y="91.945068359375" text-anchor="start" dominant-baseline="alphabetic" transform="matrix(0.7071067811865476, -0.7071067811865475, 0.7071067811865475, 0.7071067811865476, 99.30870364974993, 415.04531243173017)" fill-opacity="1">0.03</text><text fill="rgb(68,68,68)" stroke="none" font-family="helvetica" font-size="11px" font-style="normal" font-weight="normal" text-decoration="normal" x="589.6033325195312" y="91.945068359375" text-anchor="start" dominant-baseline="alphabetic" transform="matrix(0.7071067811865476, -0.7071067811865475, 0.7071067811865475, 0.7071067811865476, 117.2360246911951, 458.32569402700375)" fill-opacity="1">0.04</text><text fill="rgb(68,68,68)" stroke="none" font-family="helvetica" font-size="11px" font-style="normal" font-weight="normal" text-decoration="normal" x="650.8109741210938" y="91.945068359375" text-anchor="start" dominant-baseline="alphabetic" transform="matrix(0.7071067811865476, -0.7071067811865475, 0.7071067811865475, 0.7071067811865476, 135.163327855857, 501.6060324639044)" fill-opacity="1">0.05</text><text fill="rgb(68,68,68)" stroke="none" font-family="helvetica" font-size="11px" font-style="normal" font-weight="normal" text-decoration="normal" x="712.0186157226562" y="91.945068359375" text-anchor="start" dominant-baseline="alphabetic" transform="matrix(0.7071067811865476, -0.7071067811865475, 0.7071067811865475, 0.7071067811865476, 153.09063102051869, 544.8863709008051)" fill-opacity="1">0.06</text><text fill="rgb(68,68,68)" stroke="none" font-family="helvetica" font-size="13px" font-style="italic" font-weight="normal" text-decoration="normal" x="515.484130859375" y="128.71774531498966" text-anchor="start" dominant-baseline="alphabetic" transform="matrix(1, 0, 0, 1, 0.5, 0.5)" fill-opacity="1">Importance</text><path fill="none" stroke="rgb(0,0,0)" paint-order="fill" d="M 348.5 77.5 L 348.5 27.5" stroke-opacity="1" stroke-linejoin="bevel" stroke-miterlimit="10" stroke-dasharray=""/><path fill="none" stroke="rgb(0,0,0)" paint-order="fill" d="M 342.5 71.5 L 350.5 71.5 M 342.5 58.5 L 350.5 58.5 M 342.5 46.5 L 350.5 46.5 M 342.5 33.5 L 350.5 33.5" stroke-opacity="1" stroke-linejoin="bevel" stroke-miterlimit="10" stroke-dasharray=""/><path fill="none" stroke="rgb(0,0,0)" paint-order="fill" d="" stroke-opacity="1" stroke-linejoin="bevel" stroke-miterlimit="10" stroke-dasharray=""/><text fill="rgb(68,68,68)" stroke="none" font-family="helvetica" font-size="11px" font-style="normal" font-weight="normal" text-decoration="normal" x="231.232421875" y="74.25" text-anchor="start" dominant-baseline="alphabetic" transform="matrix(1, 0, 0, 1, 0.5, 0.5)" fill-opacity="1">Defense mechanisms</text><text fill="rgb(68,68,68)" stroke="none" font-family="helvetica" font-size="11px" font-style="normal" font-weight="normal" text-decoration="normal" x="2.52587890625" y="61.75" text-anchor="start" dominant-baseline="alphabetic" transform="matrix(1, 0, 0, 1, 0.5, 0.5)" fill-opacity="1">Post-translational modification, protein turnover, chaperone functions</text><text fill="rgb(68,68,68)" stroke="none" font-family="helvetica" font-size="11px" font-style="normal" font-weight="normal" text-decoration="normal" x="273.8251953125" y="49.25" text-anchor="start" dominant-baseline="alphabetic" transform="matrix(1, 0, 0, 1, 0.5, 0.5)" fill-opacity="1">Transcription</text><text fill="rgb(68,68,68)" stroke="none" font-family="helvetica" font-size="11px" font-style="normal" font-weight="normal" text-decoration="normal" x="231.232421875" y="36.75" text-anchor="start" dominant-baseline="alphabetic" transform="matrix(1, 0, 0, 1, 0.5, 0.5)" fill-opacity="1">Defense mechanisms</text><path fill="none" stroke="none"/><text fill="rgb(68,68,68)" stroke="none" font-family="helvetica" font-size="13px" font-style="normal" font-weight="bold" text-decoration="normal" x="0" y="0" text-anchor="start" dominant-baseline="text-after-edge" transform="matrix(1, 0, 0, 1, 348.5, 22.5)" fill-opacity="1">Latitude</text></svg>