<svg version="1.1" xmlns="http://www.w3.org/2000/svg" xmlns:xlink="http://www.w3.org/1999/xlink" width="261" height="272"><defs><clipPath id="UTdqLdLyNWWA"><path fill="none" stroke="none" d="M 56.5 27.5 L 256.5 27.5 L 256.5 227.5 L 56.5 227.5 L 56.5 27.5"/></clipPath><clipPath id="vLEkbVRpcqmN"><path fill="none" stroke="none" d="M 56.5 27.5 L 256.5 27.5 L 256.5 227.5 L 56.5 227.5 L 56.5 27.5"/></clipPath><clipPath id="omuLnwHcHHHa"><path fill="none" stroke="none" d="M 56.5 27.5 L 256.5 27.5 L 256.5 227.5 L 56.5 227.5 L 56.5 27.5"/></clipPath><clipPath id="BFxNiLKgSBIT"><path fill="none" stroke="none" d="M 56.5 27.5 L 256.5 27.5 L 256.5 227.5 L 56.5 227.5 L 56.5 27.5"/></clipPath><clipPath id="oydhCPOwfrWF"><path fill="none" stroke="none" d="M 56.5 27.5 L 256.5 27.5 L 256.5 227.5 L 56.5 227.5 L 56.5 27.5"/></clipPath></defs><path fill="none" stroke="rgb(229,229,229)" paint-order="fill" d="M 56.5 27.5 L 256.5 27.5 L 256.5 227.5 L 56.5 227.5 L 56.5 27.5" stroke-opacity="1" stroke-linejoin="bevel" stroke-miterlimit="10" stroke-dasharray=""/><path fill="none" stroke="rgb(229,229,229)" paint-order="fill" d="M 80.5 227.5 L 80.5 27.5 M 122.5 227.5 L 122.5 27.5 M 164.5 227.5 L 164.5 27.5 M 206.5 227.5 L 206.5 27.5 M 248.5 227.5 L 248.5 27.5" stroke-opacity="1" stroke-linejoin="bevel" stroke-miterlimit="10" stroke-dasharray="" clip-path="url(#UTdqLdLyNWWA)"/><path fill="none" stroke="rgb(229,229,229)" paint-order="fill" d="M 56.5 225.5 L 256.5 225.5 M 56.5 193.5 L 256.5 193.5 M 56.5 160.5 L 256.5 160.5 M 56.5 127.5 L 256.5 127.5 M 56.5 94.5 L 256.5 94.5 M 56.5 61.5 L 256.5 61.5 M 56.5 29.5 L 256.5 29.5" stroke-opacity="1" stroke-linejoin="bevel" stroke-miterlimit="10" stroke-dasharray="" clip-path="url(#vLEkbVRpcqmN)"/><path fill="none" stroke="none"/><path fill="rgb(31,119,180)" stroke="rgb(31,119,180)" paint-order="fill" d="M 212.81028747558594 62.997894287109375 A 2 2 0 1 1 212.81028647558603 62.99589428744271" fill-opacity="1" clip-path="url(#omuLnwHcHHHa)" stroke-opacity="1" stroke-linejoin="bevel" stroke-miterlimit="10" stroke-dasharray=""/><path fill="rgb(31,119,180)" stroke="rgb(31,119,180)" paint-order="fill" d="M 117.96414184570312 96.97466278076172 A 2 2 0 1 1 117.96414084570321 96.97266278109505" fill-opacity="1" clip-path="url(#omuLnwHcHHHa)" stroke-opacity="1" stroke-linejoin="bevel" stroke-miterlimit="10" stroke-dasharray=""/><path fill="rgb(31,119,180)" stroke="rgb(31,119,180)" paint-order="fill" d="M 210.3745574951172 59.3945426940918 A 2 2 0 1 1 210.37455649511728 59.39254269442513" fill-opacity="1" clip-path="url(#omuLnwHcHHHa)" stroke-opacity="1" stroke-linejoin="bevel" stroke-miterlimit="10" stroke-dasharray=""/><path fill="rgb(31,119,180)" stroke="rgb(31,119,180)" paint-order="fill" d="M 147.6127471923828 108.10120391845703 A 2 2 0 1 1 147.6127461923829 108.09920391879037" fill-opacity="1" clip-path="url(#omuLnwHcHHHa)" stroke-opacity="1" stroke-linejoin="bevel" stroke-miterlimit="10" stroke-dasharray=""/><path fill="rgb(31,119,180)" stroke="rgb(31,119,180)" paint-order="fill" d="M 206.61599731445312 98.10590362548828 A 2 2 0 1 1 206.6159963144532 98.10390362582162" fill-opacity="1" clip-path="url(#omuLnwHcHHHa)" stroke-opacity="1" stroke-linejoin="bevel" stroke-miterlimit="10" stroke-dasharray=""/><path fill="rgb(31,119,180)" stroke="rgb(31,119,180)" paint-order="fill" d="M 131.04563903808594 111.2761459350586 A 2 2 0 1 1 131.04563803808603 111.27414593539193" fill-opacity="1" clip-path="url(#omuLnwHcHHHa)" stroke-opacity="1" stroke-linejoin="bevel" stroke-miterlimit="10" stroke-dasharray=""/><path fill="rgb(31,119,180)" stroke="rgb(31,119,180)" paint-order="fill" d="M 205.2931365966797 70.52141571044922 A 2 2 0 1 1 205.29313559667978 70.51941571078255" fill-opacity="1" clip-path="url(#omuLnwHcHHHa)" stroke-opacity="1" stroke-linejoin="bevel" stroke-miterlimit="10" stroke-dasharray=""/><path fill="rgb(31,119,180)" stroke="rgb(31,119,180)" paint-order="fill" d="M 241.74496459960938 116.1725845336914 A 2 2 0 1 1 241.74496359960946 116.17058453402474" fill-opacity="1" clip-path="url(#omuLnwHcHHHa)" stroke-opacity="1" stroke-linejoin="bevel" stroke-miterlimit="10" stroke-dasharray=""/><path fill="rgb(31,119,180)" stroke="rgb(31,119,180)" paint-order="fill" d="M 166.65756225585938 80.25729370117188 A 2 2 0 1 1 166.65756125585946 80.25529370150521" fill-opacity="1" clip-path="url(#omuLnwHcHHHa)" stroke-opacity="1" stroke-linejoin="bevel" stroke-miterlimit="10" stroke-dasharray=""/><path fill="rgb(31,119,180)" stroke="rgb(31,119,180)" paint-order="fill" d="M 238.25936889648438 36.59090805053711 A 2 2 0 1 1 238.25936789648446 36.588908050870444" fill-opacity="1" clip-path="url(#omuLnwHcHHHa)" stroke-opacity="1" stroke-linejoin="bevel" stroke-miterlimit="10" stroke-dasharray=""/><path fill="rgb(31,119,180)" stroke="rgb(31,119,180)" paint-order="fill" d="M 139.38168334960938 126.8803482055664 A 2 2 0 1 1 139.38168234960946 126.87834820589974" fill-opacity="1" clip-path="url(#omuLnwHcHHHa)" stroke-opacity="1" stroke-linejoin="bevel" stroke-miterlimit="10" stroke-dasharray=""/><path fill="rgb(31,119,180)" stroke="rgb(31,119,180)" paint-order="fill" d="M 147.5287628173828 120.1452407836914 A 2 2 0 1 1 147.5287618173829 120.14324078402474" fill-opacity="1" clip-path="url(#omuLnwHcHHHa)" stroke-opacity="1" stroke-linejoin="bevel" stroke-miterlimit="10" stroke-dasharray=""/><path fill="rgb(31,119,180)" stroke="rgb(31,119,180)" paint-order="fill" d="M 147.5287628173828 122.37418365478516 A 2 2 0 1 1 147.5287618173829 122.37218365511849" fill-opacity="1" clip-path="url(#omuLnwHcHHHa)" stroke-opacity="1" stroke-linejoin="bevel" stroke-miterlimit="10" stroke-dasharray=""/><path fill="rgb(31,119,180)" stroke="rgb(31,119,180)" paint-order="fill" d="M 147.96971130371094 118.46672821044922 A 2 2 0 1 1 147.96971030371103 118.46472821078255" fill-opacity="1" clip-path="url(#omuLnwHcHHHa)" stroke-opacity="1" stroke-linejoin="bevel" stroke-miterlimit="10" stroke-dasharray=""/><path fill="rgb(31,119,180)" stroke="rgb(31,119,180)" paint-order="fill" d="M 243.40377807617188 44.54257583618164 A 2 2 0 1 1 243.40377707617196 44.540575836514975" fill-opacity="1" clip-path="url(#omuLnwHcHHHa)" stroke-opacity="1" stroke-linejoin="bevel" stroke-miterlimit="10" stroke-dasharray=""/><path fill="rgb(31,119,180)" stroke="rgb(31,119,180)" paint-order="fill" d="M 123.73847961425781 130.60231018066406 A 2 2 0 1 1 123.7384786142579 130.60031018099738" fill-opacity="1" clip-path="url(#omuLnwHcHHHa)" stroke-opacity="1" stroke-linejoin="bevel" stroke-miterlimit="10" stroke-dasharray=""/><path fill="rgb(31,119,180)" stroke="rgb(31,119,180)" paint-order="fill" d="M 206.63699340820312 97.35589599609375 A 2 2 0 1 1 206.6369924082032 97.35389599642708" fill-opacity="1" clip-path="url(#omuLnwHcHHHa)" stroke-opacity="1" stroke-linejoin="bevel" stroke-miterlimit="10" stroke-dasharray=""/><path fill="rgb(31,119,180)" stroke="rgb(31,119,180)" paint-order="fill" d="M 103.37081146240234 131.4845428466797 A 2 2 0 1 1 103.37081046240243 131.482542847013" fill-opacity="1" clip-path="url(#omuLnwHcHHHa)" stroke-opacity="1" stroke-linejoin="bevel" stroke-miterlimit="10" stroke-dasharray=""/><path fill="rgb(31,119,180)" stroke="rgb(31,119,180)" paint-order="fill" d="M 148.2216796875 114.30941772460938 A 2 2 0 1 1 148.2216786875001 114.30741772494271" fill-opacity="1" clip-path="url(#omuLnwHcHHHa)" stroke-opacity="1" stroke-linejoin="bevel" stroke-miterlimit="10" stroke-dasharray=""/><path fill="rgb(31,119,180)" stroke="rgb(31,119,180)" paint-order="fill" d="M 179.25611877441406 93.98483276367188 A 2 2 0 1 1 179.25611777441415 93.98283276400521" fill-opacity="1" clip-path="url(#omuLnwHcHHHa)" stroke-opacity="1" stroke-linejoin="bevel" stroke-miterlimit="10" stroke-dasharray=""/><path fill="rgb(31,119,180)" stroke="rgb(31,119,180)" paint-order="fill" d="M 162.73101806640625 86.18492126464844 A 2 2 0 1 1 162.73101706640634 86.18292126498177" fill-opacity="1" clip-path="url(#omuLnwHcHHHa)" stroke-opacity="1" stroke-linejoin="bevel" stroke-miterlimit="10" stroke-dasharray=""/><path fill="rgb(31,119,180)" stroke="rgb(31,119,180)" paint-order="fill" d="M 162.79400634765625 100.51707458496094 A 2 2 0 1 1 162.79400534765634 100.51507458529427" fill-opacity="1" clip-path="url(#omuLnwHcHHHa)" stroke-opacity="1" stroke-linejoin="bevel" stroke-miterlimit="10" stroke-dasharray=""/><path fill="rgb(31,119,180)" stroke="rgb(31,119,180)" paint-order="fill" d="M 123.88545989990234 132.84225463867188 A 2 2 0 1 1 123.88545889990243 132.8402546390052" fill-opacity="1" clip-path="url(#omuLnwHcHHHa)" stroke-opacity="1" stroke-linejoin="bevel" stroke-miterlimit="10" stroke-dasharray=""/><path fill="rgb(31,119,180)" stroke="rgb(31,119,180)" paint-order="fill" d="M 179.31912231445312 99.68128204345703 A 2 2 0 1 1 179.3191213144532 99.67928204379037" fill-opacity="1" clip-path="url(#omuLnwHcHHHa)" stroke-opacity="1" stroke-linejoin="bevel" stroke-miterlimit="10" stroke-dasharray=""/><path fill="rgb(31,119,180)" stroke="rgb(31,119,180)" paint-order="fill" d="M 67.59091186523438 218.40908813476562 A 2 2 0 1 1 67.59091086523446 218.40708813509895" fill-opacity="1" clip-path="url(#omuLnwHcHHHa)" stroke-opacity="1" stroke-linejoin="bevel" stroke-miterlimit="10" stroke-dasharray=""/><path fill="rgb(31,119,180)" stroke="rgb(31,119,180)" paint-order="fill" d="M 123.88545989990234 131.50656127929688 A 2 2 0 1 1 123.88545889990243 131.5045612796302" fill-opacity="1" clip-path="url(#omuLnwHcHHHa)" stroke-opacity="1" stroke-linejoin="bevel" stroke-miterlimit="10" stroke-dasharray=""/><path fill="rgb(31,119,180)" stroke="rgb(31,119,180)" paint-order="fill" d="M 147.78073120117188 118.34510803222656 A 2 2 0 1 1 147.78073020117196 118.3431080325599" fill-opacity="1" clip-path="url(#omuLnwHcHHHa)" stroke-opacity="1" stroke-linejoin="bevel" stroke-miterlimit="10" stroke-dasharray=""/><path fill="rgb(31,119,180)" stroke="rgb(31,119,180)" paint-order="fill" d="M 147.80172729492188 125.48005676269531 A 2 2 0 1 1 147.80172629492196 125.47805676302865" fill-opacity="1" clip-path="url(#omuLnwHcHHHa)" stroke-opacity="1" stroke-linejoin="bevel" stroke-miterlimit="10" stroke-dasharray=""/><path fill="rgb(31,119,180)" stroke="rgb(31,119,180)" paint-order="fill" d="M 101.48102569580078 125.1566162109375 A 2 2 0 1 1 101.48102469580087 125.15461621127083" fill-opacity="1" clip-path="url(#omuLnwHcHHHa)" stroke-opacity="1" stroke-linejoin="bevel" stroke-miterlimit="10" stroke-dasharray=""/><path fill="rgb(31,119,180)" stroke="rgb(31,119,180)" paint-order="fill" d="M 92.64104461669922 138.7293243408203 A 2 2 0 1 1 92.6410436166993 138.72732434115363" fill-opacity="1" clip-path="url(#omuLnwHcHHHa)" stroke-opacity="1" stroke-linejoin="bevel" stroke-miterlimit="10" stroke-dasharray=""/><path fill="rgb(31,119,180)" stroke="rgb(31,119,180)" paint-order="fill" d="M 146.94082641601562 113.4688491821289 A 2 2 0 1 1 146.9408254160157 113.46684918246224" fill-opacity="1" clip-path="url(#omuLnwHcHHHa)" stroke-opacity="1" stroke-linejoin="bevel" stroke-miterlimit="10" stroke-dasharray=""/><path fill="rgb(31,119,180)" stroke="rgb(31,119,180)" paint-order="fill" d="M 147.96971130371094 98.83521270751953 A 2 2 0 1 1 147.96971030371103 98.83321270785287" fill-opacity="1" clip-path="url(#omuLnwHcHHHa)" stroke-opacity="1" stroke-linejoin="bevel" stroke-miterlimit="10" stroke-dasharray=""/><path fill="rgb(31,119,180)" stroke="rgb(31,119,180)" paint-order="fill" d="M 249.40908813476562 75.95458221435547 A 2 2 0 1 1 249.4090871347657 75.9525822146888" fill-opacity="1" clip-path="url(#omuLnwHcHHHa)" stroke-opacity="1" stroke-linejoin="bevel" stroke-miterlimit="10" stroke-dasharray=""/><path fill="rgb(31,119,180)" stroke="rgb(31,119,180)" paint-order="fill" d="M 210.3745574951172 84.94385528564453 A 2 2 0 1 1 210.37455649511728 84.94185528597787" fill-opacity="1" clip-path="url(#omuLnwHcHHHa)" stroke-opacity="1" stroke-linejoin="bevel" stroke-miterlimit="10" stroke-dasharray=""/><path fill="rgb(31,119,180)" stroke="rgb(31,119,180)" paint-order="fill" d="M 101.50202941894531 167.4512176513672 A 2 2 0 1 1 101.5020284189454 167.4492176517005" fill-opacity="1" clip-path="url(#omuLnwHcHHHa)" stroke-opacity="1" stroke-linejoin="bevel" stroke-miterlimit="10" stroke-dasharray=""/><path fill="rgb(31,119,180)" stroke="rgb(31,119,180)" paint-order="fill" d="M 241.72396850585938 47.82052230834961 A 2 2 0 1 1 241.72396750585946 47.818522308682944" fill-opacity="1" clip-path="url(#omuLnwHcHHHa)" stroke-opacity="1" stroke-linejoin="bevel" stroke-miterlimit="10" stroke-dasharray=""/><path fill="rgb(31,119,180)" stroke="rgb(31,119,180)" paint-order="fill" d="M 147.78073120117188 106.80974578857422 A 2 2 0 1 1 147.78073020117196 106.80774578890755" fill-opacity="1" clip-path="url(#omuLnwHcHHHa)" stroke-opacity="1" stroke-linejoin="bevel" stroke-miterlimit="10" stroke-dasharray=""/><path fill="none" stroke="rgb(0,0,0)" paint-order="fill" d="M 56.5 227.5 L 256.5 227.5" stroke-opacity="1" stroke-linejoin="bevel" stroke-miterlimit="10" stroke-dasharray=""/><path fill="none" stroke="rgb(0,0,0)" paint-order="fill" d="M 80.5 233.5 L 80.5 225.5 M 122.5 233.5 L 122.5 225.5 M 164.5 233.5 L 164.5 225.5 M 206.5 233.5 L 206.5 225.5 M 248.5 233.5 L 248.5 225.5" stroke-opacity="1" stroke-linejoin="bevel" stroke-miterlimit="10" stroke-dasharray=""/><path fill="none" stroke="rgb(0,0,0)" paint-order="fill" d="M 72.5 231.5 L 72.5 227.5 M 63.5 231.5 L 63.5 227.5 M 80.5 231.5 L 80.5 227.5 M 89.5 231.5 L 89.5 227.5 M 97.5 231.5 L 97.5 227.5 M 105.5 231.5 L 105.5 227.5 M 114.5 231.5 L 114.5 227.5 M 122.5 231.5 L 122.5 227.5 M 131.5 231.5 L 131.5 227.5 M 139.5 231.5 L 139.5 227.5 M 147.5 231.5 L 147.5 227.5 M 156.5 231.5 L 156.5 227.5 M 164.5 231.5 L 164.5 227.5 M 173.5 231.5 L 173.5 227.5 M 181.5 231.5 L 181.5 227.5 M 189.5 231.5 L 189.5 227.5 M 198.5 231.5 L 198.5 227.5 M 206.5 231.5 L 206.5 227.5 M 215.5 231.5 L 215.5 227.5 M 223.5 231.5 L 223.5 227.5 M 231.5 231.5 L 231.5 227.5 M 240.5 231.5 L 240.5 227.5 M 248.5 231.5 L 248.5 227.5" stroke-opacity="1" stroke-linejoin="bevel" stroke-miterlimit="10" stroke-dasharray=""/><text fill="rgb(68,68,68)" stroke="none" font-family="helvetica" font-size="11px" font-style="normal" font-weight="normal" text-decoration="normal" x="70.83759307861328" y="245.89013671875" text-anchor="start" dominant-baseline="alphabetic" transform="matrix(1, 0, 0, 1, 0.5, 0.5)" fill-opacity="1">−40</text><text fill="rgb(68,68,68)" stroke="none" font-family="helvetica" font-size="11px" font-style="normal" font-weight="normal" text-decoration="normal" x="112.8327865600586" y="245.89013671875" text-anchor="start" dominant-baseline="alphabetic" transform="matrix(1, 0, 0, 1, 0.5, 0.5)" fill-opacity="1">−20</text><text fill="rgb(68,68,68)" stroke="none" font-family="helvetica" font-size="11px" font-style="normal" font-weight="normal" text-decoration="normal" x="161.09872436523438" y="245.89013671875" text-anchor="start" dominant-baseline="alphabetic" transform="matrix(1, 0, 0, 1, 0.5, 0.5)" fill-opacity="1">0</text><text fill="rgb(68,68,68)" stroke="none" font-family="helvetica" font-size="11px" font-style="normal" font-weight="normal" text-decoration="normal" x="200.0350799560547" y="245.89013671875" text-anchor="start" dominant-baseline="alphabetic" transform="matrix(1, 0, 0, 1, 0.5, 0.5)" fill-opacity="1">20</text><text fill="rgb(68,68,68)" stroke="none" font-family="helvetica" font-size="11px" font-style="normal" font-weight="normal" text-decoration="normal" x="242.0302734375" y="245.89013671875" text-anchor="start" dominant-baseline="alphabetic" transform="matrix(1, 0, 0, 1, 0.5, 0.5)" fill-opacity="1">40</text><text fill="rgb(68,68,68)" stroke="none" font-family="helvetica" font-size="13px" font-style="italic" font-weight="normal" text-decoration="normal" x="127.819580078125" y="265.89013671875" text-anchor="start" dominant-baseline="alphabetic" transform="matrix(1, 0, 0, 1, 0.5, 0.5)" fill-opacity="1">Observed</text><path fill="none" stroke="rgb(0,0,0)" paint-order="fill" d="M 56.5 227.5 L 56.5 27.5" stroke-opacity="1" stroke-linejoin="bevel" stroke-miterlimit="10" stroke-dasharray=""/><path fill="none" stroke="rgb(0,0,0)" paint-order="fill" d="M 50.5 225.5 L 58.5 225.5 M 50.5 193.5 L 58.5 193.5 M 50.5 160.5 L 58.5 160.5 M 50.5 127.5 L 58.5 127.5 M 50.5 94.5 L 58.5 94.5 M 50.5 61.5 L 58.5 61.5 M 50.5 29.5 L 58.5 29.5" stroke-opacity="1" stroke-linejoin="bevel" stroke-miterlimit="10" stroke-dasharray=""/><path fill="none" stroke="rgb(0,0,0)" paint-order="fill" d="M 52.5 225.5 L 56.5 225.5 M 52.5 219.5 L 56.5 219.5 M 52.5 212.5 L 56.5 212.5 M 52.5 206.5 L 56.5 206.5 M 52.5 199.5 L 56.5 199.5 M 52.5 193.5 L 56.5 193.5 M 52.5 186.5 L 56.5 186.5 M 52.5 179.5 L 56.5 179.5 M 52.5 173.5 L 56.5 173.5 M 52.5 166.5 L 56.5 166.5 M 52.5 160.5 L 56.5 160.5 M 52.5 153.5 L 56.5 153.5 M 52.5 147.5 L 56.5 147.5 M 52.5 140.5 L 56.5 140.5 M 52.5 134.5 L 56.5 134.5 M 52.5 127.5 L 56.5 127.5 M 52.5 120.5 L 56.5 120.5 M 52.5 114.5 L 56.5 114.5 M 52.5 107.5 L 56.5 107.5 M 52.5 101.5 L 56.5 101.5 M 52.5 94.5 L 56.5 94.5 M 52.5 88.5 L 56.5 88.5 M 52.5 81.5 L 56.5 81.5 M 52.5 75.5 L 56.5 75.5 M 52.5 68.5 L 56.5 68.5 M 52.5 61.5 L 56.5 61.5 M 52.5 55.5 L 56.5 55.5 M 52.5 48.5 L 56.5 48.5 M 52.5 42.5 L 56.5 42.5 M 52.5 35.5 L 56.5 35.5 M 52.5 29.5 L 56.5 29.5" stroke-opacity="1" stroke-linejoin="bevel" stroke-miterlimit="10" stroke-dasharray=""/><text fill="rgb(68,68,68)" stroke="none" font-family="helvetica" font-size="11px" font-style="normal" font-weight="normal" text-decoration="normal" x="26.3408203125" y="229.21295166015625" text-anchor="start" dominant-baseline="alphabetic" transform="matrix(1, 0, 0, 1, 0.5, 0.5)" fill-opacity="1">−40</text><text fill="rgb(68,68,68)" stroke="none" font-family="helvetica" font-size="11px" font-style="normal" font-weight="normal" text-decoration="normal" x="26.3408203125" y="196.44985961914062" text-anchor="start" dominant-baseline="alphabetic" transform="matrix(1, 0, 0, 1, 0.5, 0.5)" fill-opacity="1">−30</text><text fill="rgb(68,68,68)" stroke="none" font-family="helvetica" font-size="11px" font-style="normal" font-weight="normal" text-decoration="normal" x="26.3408203125" y="163.686767578125" text-anchor="start" dominant-baseline="alphabetic" transform="matrix(1, 0, 0, 1, 0.5, 0.5)" fill-opacity="1">−20</text><text fill="rgb(68,68,68)" stroke="none" font-family="helvetica" font-size="11px" font-style="normal" font-weight="normal" text-decoration="normal" x="26.3408203125" y="130.92367553710938" text-anchor="start" dominant-baseline="alphabetic" transform="matrix(1, 0, 0, 1, 0.5, 0.5)" fill-opacity="1">−10</text><text fill="rgb(68,68,68)" stroke="none" font-family="helvetica" font-size="11px" font-style="normal" font-weight="normal" text-decoration="normal" x="38.88232421875" y="98.16058349609375" text-anchor="start" dominant-baseline="alphabetic" transform="matrix(1, 0, 0, 1, 0.5, 0.5)" fill-opacity="1">0</text><text fill="rgb(68,68,68)" stroke="none" font-family="helvetica" font-size="11px" font-style="normal" font-weight="normal" text-decoration="normal" x="32.7646484375" y="65.39749145507812" text-anchor="start" dominant-baseline="alphabetic" transform="matrix(1, 0, 0, 1, 0.5, 0.5)" fill-opacity="1">10</text><text fill="rgb(68,68,68)" stroke="none" font-family="helvetica" font-size="11px" font-style="normal" font-weight="normal" text-decoration="normal" x="32.7646484375" y="32.63440132141113" text-anchor="start" dominant-baseline="alphabetic" transform="matrix(1, 0, 0, 1, 0.5, 0.5)" fill-opacity="1">20</text><text fill="rgb(68,68,68)" stroke="none" font-family="helvetica" font-size="13px" font-style="italic" font-weight="normal" text-decoration="normal" x="-9.119140625" y="124" text-anchor="start" dominant-baseline="alphabetic" transform="matrix(6.123233995736766e-17, -1, 1, 6.123233995736766e-17, -108.1591796875, 145.8408203125)" fill-opacity="1">Predicted</text><path fill="none" stroke="rgb(255,140,0)" paint-order="fill" d="M 207.73543764238985 27.5 L 79.55707986435604 227.5" stroke-opacity="1" stroke-linejoin="bevel" stroke-miterlimit="10" stroke-width="2" stroke-dasharray="" clip-path="url(#BFxNiLKgSBIT)"/><path fill="none" stroke="none"/><text fill="rgb(68,68,68)" stroke="none" font-family="helvetica" font-size="13px" font-style="normal" font-weight="bold" text-decoration="normal" x="0" y="0" text-anchor="start" dominant-baseline="text-after-edge" transform="matrix(1, 0, 0, 1, 56.5, 22.5)" fill-opacity="1">Latitude, &lt;R²&gt; = 0.36</text></svg>