<svg version="1.1" xmlns="http://www.w3.org/2000/svg" xmlns:xlink="http://www.w3.org/1999/xlink" width="260" height="272"><defs><clipPath id="ecFEzQrdfdXQ"><path fill="none" stroke="none" d="M 55.5 27.5 L 255.5 27.5 L 255.5 227.5 L 55.5 227.5 L 55.5 27.5"/></clipPath><clipPath id="NJOCTyGBQQpa"><path fill="none" stroke="none" d="M 55.5 27.5 L 255.5 27.5 L 255.5 227.5 L 55.5 227.5 L 55.5 27.5"/></clipPath><clipPath id="lOfEigziNuBD"><path fill="none" stroke="none" d="M 55.5 27.5 L 255.5 27.5 L 255.5 227.5 L 55.5 227.5 L 55.5 27.5"/></clipPath><clipPath id="dXQSBNqaIlnc"><path fill="none" stroke="none" d="M 55.5 27.5 L 255.5 27.5 L 255.5 227.5 L 55.5 227.5 L 55.5 27.5"/></clipPath><clipPath id="cMkxvdCvfimn"><path fill="none" stroke="none" d="M 55.5 27.5 L 255.5 27.5 L 255.5 227.5 L 55.5 227.5 L 55.5 27.5"/></clipPath></defs><path fill="none" stroke="rgb(229,229,229)" paint-order="fill" d="M 55.5 27.5 L 255.5 27.5 L 255.5 227.5 L 55.5 227.5 L 55.5 27.5" stroke-opacity="1" stroke-linejoin="bevel" stroke-miterlimit="10" stroke-dasharray=""/><path fill="none" stroke="rgb(229,229,229)" paint-order="fill" d="M 63.5 227.5 L 63.5 27.5 M 90.5 227.5 L 90.5 27.5 M 116.5 227.5 L 116.5 27.5 M 143.5 227.5 L 143.5 27.5 M 169.5 227.5 L 169.5 27.5 M 196.5 227.5 L 196.5 27.5 M 223.5 227.5 L 223.5 27.5 M 249.5 227.5 L 249.5 27.5" stroke-opacity="1" stroke-linejoin="bevel" stroke-miterlimit="10" stroke-dasharray="" clip-path="url(#ecFEzQrdfdXQ)"/><path fill="none" stroke="rgb(229,229,229)" paint-order="fill" d="M 55.5 205.5 L 255.5 205.5 M 55.5 171.5 L 255.5 171.5 M 55.5 137.5 L 255.5 137.5 M 55.5 103.5 L 255.5 103.5 M 55.5 69.5 L 255.5 69.5 M 55.5 34.5 L 255.5 34.5" stroke-opacity="1" stroke-linejoin="bevel" stroke-miterlimit="10" stroke-dasharray="" clip-path="url(#NJOCTyGBQQpa)"/><path fill="none" stroke="none"/><path fill="rgb(31,119,180)" stroke="rgb(31,119,180)" paint-order="fill" d="M 161.3112030029297 116.41466522216797 A 2 2 0 1 1 161.31120200292978 116.4126652225013" fill-opacity="1" clip-path="url(#lOfEigziNuBD)" stroke-opacity="1" stroke-linejoin="bevel" stroke-miterlimit="10" stroke-dasharray=""/><path fill="rgb(31,119,180)" stroke="rgb(31,119,180)" paint-order="fill" d="M 168.29396057128906 107.34405517578125 A 2 2 0 1 1 168.29395957128915 107.34205517611458" fill-opacity="1" clip-path="url(#lOfEigziNuBD)" stroke-opacity="1" stroke-linejoin="bevel" stroke-miterlimit="10" stroke-dasharray=""/><path fill="rgb(31,119,180)" stroke="rgb(31,119,180)" paint-order="fill" d="M 164.6160125732422 111.12445831298828 A 2 2 0 1 1 164.61601157324228 111.12245831332162" fill-opacity="1" clip-path="url(#lOfEigziNuBD)" stroke-opacity="1" stroke-linejoin="bevel" stroke-miterlimit="10" stroke-dasharray=""/><path fill="rgb(31,119,180)" stroke="rgb(31,119,180)" paint-order="fill" d="M 173.99742126464844 115.88978576660156 A 2 2 0 1 1 173.99742026464853 115.8877857669349" fill-opacity="1" clip-path="url(#lOfEigziNuBD)" stroke-opacity="1" stroke-linejoin="bevel" stroke-miterlimit="10" stroke-dasharray=""/><path fill="rgb(31,119,180)" stroke="rgb(31,119,180)" paint-order="fill" d="M 159.12576293945312 112.1204605102539 A 2 2 0 1 1 159.1257619394532 112.11846051058724" fill-opacity="1" clip-path="url(#lOfEigziNuBD)" stroke-opacity="1" stroke-linejoin="bevel" stroke-miterlimit="10" stroke-dasharray=""/><path fill="rgb(31,119,180)" stroke="rgb(31,119,180)" paint-order="fill" d="M 165.2556610107422 108.53630828857422 A 2 2 0 1 1 165.25566001074228 108.53430828890755" fill-opacity="1" clip-path="url(#lOfEigziNuBD)" stroke-opacity="1" stroke-linejoin="bevel" stroke-miterlimit="10" stroke-dasharray=""/><path fill="rgb(31,119,180)" stroke="rgb(31,119,180)" paint-order="fill" d="M 161.2578887939453 118.05904388427734 A 2 2 0 1 1 161.2578877939454 118.05704388461068" fill-opacity="1" clip-path="url(#lOfEigziNuBD)" stroke-opacity="1" stroke-linejoin="bevel" stroke-miterlimit="10" stroke-dasharray=""/><path fill="rgb(31,119,180)" stroke="rgb(31,119,180)" paint-order="fill" d="M 175.70314025878906 98.25196838378906 A 2 2 0 1 1 175.70313925878915 98.2499683841224" fill-opacity="1" clip-path="url(#lOfEigziNuBD)" stroke-opacity="1" stroke-linejoin="bevel" stroke-miterlimit="10" stroke-dasharray=""/><path fill="rgb(31,119,180)" stroke="rgb(31,119,180)" paint-order="fill" d="M 173.99742126464844 109.03834533691406 A 2 2 0 1 1 173.99742026464853 109.0363453372474" fill-opacity="1" clip-path="url(#lOfEigziNuBD)" stroke-opacity="1" stroke-linejoin="bevel" stroke-miterlimit="10" stroke-dasharray=""/><path fill="rgb(31,119,180)" stroke="rgb(31,119,180)" paint-order="fill" d="M 195.90516662597656 79.90081787109375 A 2 2 0 1 1 195.90516562597665 79.89881787142708" fill-opacity="1" clip-path="url(#lOfEigziNuBD)" stroke-opacity="1" stroke-linejoin="bevel" stroke-miterlimit="10" stroke-dasharray=""/><path fill="rgb(31,119,180)" stroke="rgb(31,119,180)" paint-order="fill" d="M 66.59091186523438 214.87567138671875 A 2 2 0 1 1 66.59091086523446 214.87367138705207" fill-opacity="1" clip-path="url(#lOfEigziNuBD)" stroke-opacity="1" stroke-linejoin="bevel" stroke-miterlimit="10" stroke-dasharray=""/><path fill="rgb(31,119,180)" stroke="rgb(31,119,180)" paint-order="fill" d="M 167.54771423339844 107.5240249633789 A 2 2 0 1 1 167.54771323339853 107.52202496371224" fill-opacity="1" clip-path="url(#lOfEigziNuBD)" stroke-opacity="1" stroke-linejoin="bevel" stroke-miterlimit="10" stroke-dasharray=""/><path fill="rgb(31,119,180)" stroke="rgb(31,119,180)" paint-order="fill" d="M 187.69642639160156 100.3170166015625 A 2 2 0 1 1 187.69642539160165 100.31501660189583" fill-opacity="1" clip-path="url(#lOfEigziNuBD)" stroke-opacity="1" stroke-linejoin="bevel" stroke-miterlimit="10" stroke-dasharray=""/><path fill="rgb(31,119,180)" stroke="rgb(31,119,180)" paint-order="fill" d="M 248.40908813476562 36.59090805053711 A 2 2 0 1 1 248.4090871347657 36.588908050870444" fill-opacity="1" clip-path="url(#lOfEigziNuBD)" stroke-opacity="1" stroke-linejoin="bevel" stroke-miterlimit="10" stroke-dasharray=""/><path fill="rgb(31,119,180)" stroke="rgb(31,119,180)" paint-order="fill" d="M 138.97703552246094 138.37596130371094 A 2 2 0 1 1 138.97703452246103 138.37396130404426" fill-opacity="1" clip-path="url(#lOfEigziNuBD)" stroke-opacity="1" stroke-linejoin="bevel" stroke-miterlimit="10" stroke-dasharray=""/><path fill="rgb(31,119,180)" stroke="rgb(31,119,180)" paint-order="fill" d="M 173.62429809570312 105.41412353515625 A 2 2 0 1 1 173.6242970957032 105.41212353548958" fill-opacity="1" clip-path="url(#lOfEigziNuBD)" stroke-opacity="1" stroke-linejoin="bevel" stroke-miterlimit="10" stroke-dasharray=""/><path fill="rgb(31,119,180)" stroke="rgb(31,119,180)" paint-order="fill" d="M 198.30381774902344 84.80304718017578 A 2 2 0 1 1 198.30381674902353 84.80104718050912" fill-opacity="1" clip-path="url(#lOfEigziNuBD)" stroke-opacity="1" stroke-linejoin="bevel" stroke-miterlimit="10" stroke-dasharray=""/><path fill="rgb(31,119,180)" stroke="rgb(31,119,180)" paint-order="fill" d="M 168.93359375 103.64584350585938 A 2 2 0 1 1 168.9335927500001 103.64384350619271" fill-opacity="1" clip-path="url(#lOfEigziNuBD)" stroke-opacity="1" stroke-linejoin="bevel" stroke-miterlimit="10" stroke-dasharray=""/><path fill="rgb(31,119,180)" stroke="rgb(31,119,180)" paint-order="fill" d="M 171.22564697265625 131.0745849609375 A 2 2 0 1 1 171.22564597265634 131.07258496127082" fill-opacity="1" clip-path="url(#lOfEigziNuBD)" stroke-opacity="1" stroke-linejoin="bevel" stroke-miterlimit="10" stroke-dasharray=""/><path fill="rgb(31,119,180)" stroke="rgb(31,119,180)" paint-order="fill" d="M 177.30224609375 110.88936614990234 A 2 2 0 1 1 177.3022450937501 110.88736615023568" fill-opacity="1" clip-path="url(#lOfEigziNuBD)" stroke-opacity="1" stroke-linejoin="bevel" stroke-miterlimit="10" stroke-dasharray=""/><path fill="rgb(31,119,180)" stroke="rgb(31,119,180)" paint-order="fill" d="M 177.30224609375 101.66435241699219 A 2 2 0 1 1 177.3022450937501 101.66235241732552" fill-opacity="1" clip-path="url(#lOfEigziNuBD)" stroke-opacity="1" stroke-linejoin="bevel" stroke-miterlimit="10" stroke-dasharray=""/><path fill="rgb(31,119,180)" stroke="rgb(31,119,180)" paint-order="fill" d="M 151.55665588378906 120.86258697509766 A 2 2 0 1 1 151.55665488378915 120.86058697543099" fill-opacity="1" clip-path="url(#lOfEigziNuBD)" stroke-opacity="1" stroke-linejoin="bevel" stroke-miterlimit="10" stroke-dasharray=""/><path fill="rgb(31,119,180)" stroke="rgb(31,119,180)" paint-order="fill" d="M 139.29685974121094 135.95260620117188 A 2 2 0 1 1 139.29685874121103 135.9506062015052" fill-opacity="1" clip-path="url(#lOfEigziNuBD)" stroke-opacity="1" stroke-linejoin="bevel" stroke-miterlimit="10" stroke-dasharray=""/><path fill="rgb(31,119,180)" stroke="rgb(31,119,180)" paint-order="fill" d="M 164.6160125732422 111.07440185546875 A 2 2 0 1 1 164.61601157324228 111.07240185580208" fill-opacity="1" clip-path="url(#lOfEigziNuBD)" stroke-opacity="1" stroke-linejoin="bevel" stroke-miterlimit="10" stroke-dasharray=""/><path fill="rgb(31,119,180)" stroke="rgb(31,119,180)" paint-order="fill" d="M 164.08297729492188 102.7627944946289 A 2 2 0 1 1 164.08297629492196 102.76079449496224" fill-opacity="1" clip-path="url(#lOfEigziNuBD)" stroke-opacity="1" stroke-linejoin="bevel" stroke-miterlimit="10" stroke-dasharray=""/><path fill="rgb(31,119,180)" stroke="rgb(31,119,180)" paint-order="fill" d="M 171.91859436035156 104.9769058227539 A 2 2 0 1 1 171.91859336035165 104.97490582308724" fill-opacity="1" clip-path="url(#lOfEigziNuBD)" stroke-opacity="1" stroke-linejoin="bevel" stroke-miterlimit="10" stroke-dasharray=""/><path fill="rgb(31,119,180)" stroke="rgb(31,119,180)" paint-order="fill" d="M 141.6955108642578 99.5147933959961 A 2 2 0 1 1 141.6955098642579 99.51279339632943" fill-opacity="1" clip-path="url(#lOfEigziNuBD)" stroke-opacity="1" stroke-linejoin="bevel" stroke-miterlimit="10" stroke-dasharray=""/><path fill="rgb(31,119,180)" stroke="rgb(31,119,180)" paint-order="fill" d="M 175.27671813964844 103.87969970703125 A 2 2 0 1 1 175.27671713964853 103.87769970736458" fill-opacity="1" clip-path="url(#lOfEigziNuBD)" stroke-opacity="1" stroke-linejoin="bevel" stroke-miterlimit="10" stroke-dasharray=""/><path fill="rgb(31,119,180)" stroke="rgb(31,119,180)" paint-order="fill" d="M 192.9734649658203 84.34750366210938 A 2 2 0 1 1 192.9734639658204 84.34550366244271" fill-opacity="1" clip-path="url(#lOfEigziNuBD)" stroke-opacity="1" stroke-linejoin="bevel" stroke-miterlimit="10" stroke-dasharray=""/><path fill="rgb(31,119,180)" stroke="rgb(31,119,180)" paint-order="fill" d="M 166.26841735839844 104.67535400390625 A 2 2 0 1 1 166.26841635839853 104.67335400423958" fill-opacity="1" clip-path="url(#lOfEigziNuBD)" stroke-opacity="1" stroke-linejoin="bevel" stroke-miterlimit="10" stroke-dasharray=""/><path fill="rgb(31,119,180)" stroke="rgb(31,119,180)" paint-order="fill" d="M 168.2406463623047 104.84014892578125 A 2 2 0 1 1 168.24064536230478 104.83814892611458" fill-opacity="1" clip-path="url(#lOfEigziNuBD)" stroke-opacity="1" stroke-linejoin="bevel" stroke-miterlimit="10" stroke-dasharray=""/><path fill="rgb(31,119,180)" stroke="rgb(31,119,180)" paint-order="fill" d="M 144.41400146484375 118.31519317626953 A 2 2 0 1 1 144.41400046484384 118.31319317660287" fill-opacity="1" clip-path="url(#lOfEigziNuBD)" stroke-opacity="1" stroke-linejoin="bevel" stroke-miterlimit="10" stroke-dasharray=""/><path fill="rgb(31,119,180)" stroke="rgb(31,119,180)" paint-order="fill" d="M 66.59091186523438 218.40908813476562 A 2 2 0 1 1 66.59091086523446 218.40708813509895" fill-opacity="1" clip-path="url(#lOfEigziNuBD)" stroke-opacity="1" stroke-linejoin="bevel" stroke-miterlimit="10" stroke-dasharray=""/><path fill="rgb(31,119,180)" stroke="rgb(31,119,180)" paint-order="fill" d="M 171.49215698242188 98.41143035888672 A 2 2 0 1 1 171.49215598242196 98.40943035922005" fill-opacity="1" clip-path="url(#lOfEigziNuBD)" stroke-opacity="1" stroke-linejoin="bevel" stroke-miterlimit="10" stroke-dasharray=""/><path fill="rgb(31,119,180)" stroke="rgb(31,119,180)" paint-order="fill" d="M 142.4417724609375 99.46774291992188 A 2 2 0 1 1 142.4417714609376 99.46574292025521" fill-opacity="1" clip-path="url(#lOfEigziNuBD)" stroke-opacity="1" stroke-linejoin="bevel" stroke-miterlimit="10" stroke-dasharray=""/><path fill="rgb(31,119,180)" stroke="rgb(31,119,180)" paint-order="fill" d="M 182.20616149902344 97.4866714477539 A 2 2 0 1 1 182.20616049902353 97.48467144808724" fill-opacity="1" clip-path="url(#lOfEigziNuBD)" stroke-opacity="1" stroke-linejoin="bevel" stroke-miterlimit="10" stroke-dasharray=""/><path fill="none" stroke="rgb(0,0,0)" paint-order="fill" d="M 55.5 227.5 L 255.5 227.5" stroke-opacity="1" stroke-linejoin="bevel" stroke-miterlimit="10" stroke-dasharray=""/><path fill="none" stroke="rgb(0,0,0)" paint-order="fill" d="M 63.5 233.5 L 63.5 225.5 M 90.5 233.5 L 90.5 225.5 M 116.5 233.5 L 116.5 225.5 M 143.5 233.5 L 143.5 225.5 M 169.5 233.5 L 169.5 225.5 M 196.5 233.5 L 196.5 225.5 M 223.5 233.5 L 223.5 225.5 M 249.5 233.5 L 249.5 225.5" stroke-opacity="1" stroke-linejoin="bevel" stroke-miterlimit="10" stroke-dasharray=""/><path fill="none" stroke="rgb(0,0,0)" paint-order="fill" d="M 58.5 231.5 L 58.5 227.5 M 63.5 231.5 L 63.5 227.5 M 68.5 231.5 L 68.5 227.5 M 74.5 231.5 L 74.5 227.5 M 79.5 231.5 L 79.5 227.5 M 84.5 231.5 L 84.5 227.5 M 90.5 231.5 L 90.5 227.5 M 95.5 231.5 L 95.5 227.5 M 100.5 231.5 L 100.5 227.5 M 106.5 231.5 L 106.5 227.5 M 111.5 231.5 L 111.5 227.5 M 116.5 231.5 L 116.5 227.5 M 121.5 231.5 L 121.5 227.5 M 127.5 231.5 L 127.5 227.5 M 132.5 231.5 L 132.5 227.5 M 137.5 231.5 L 137.5 227.5 M 143.5 231.5 L 143.5 227.5 M 148.5 231.5 L 148.5 227.5 M 153.5 231.5 L 153.5 227.5 M 159.5 231.5 L 159.5 227.5 M 164.5 231.5 L 164.5 227.5 M 169.5 231.5 L 169.5 227.5 M 175.5 231.5 L 175.5 227.5 M 180.5 231.5 L 180.5 227.5 M 185.5 231.5 L 185.5 227.5 M 191.5 231.5 L 191.5 227.5 M 196.5 231.5 L 196.5 227.5 M 201.5 231.5 L 201.5 227.5 M 207.5 231.5 L 207.5 227.5 M 212.5 231.5 L 212.5 227.5 M 217.5 231.5 L 217.5 227.5 M 223.5 231.5 L 223.5 227.5 M 228.5 231.5 L 228.5 227.5 M 233.5 231.5 L 233.5 227.5 M 239.5 231.5 L 239.5 227.5 M 244.5 231.5 L 244.5 227.5 M 249.5 231.5 L 249.5 227.5 M 255.5 231.5 L 255.5 227.5" stroke-opacity="1" stroke-linejoin="bevel" stroke-miterlimit="10" stroke-dasharray=""/><text fill="rgb(68,68,68)" stroke="none" font-family="helvetica" font-size="11px" font-style="normal" font-weight="normal" text-decoration="normal" x="59.80609130859375" y="245.89013671875" text-anchor="start" dominant-baseline="alphabetic" transform="matrix(1, 0, 0, 1, 0.5, 0.5)" fill-opacity="1">0</text><text fill="rgb(68,68,68)" stroke="none" font-family="helvetica" font-size="11px" font-style="normal" font-weight="normal" text-decoration="normal" x="83.39899444580078" y="245.89013671875" text-anchor="start" dominant-baseline="alphabetic" transform="matrix(1, 0, 0, 1, 0.5, 0.5)" fill-opacity="1">50</text><text fill="rgb(68,68,68)" stroke="none" font-family="helvetica" font-size="11px" font-style="normal" font-weight="normal" text-decoration="normal" x="106.99189758300781" y="245.89013671875" text-anchor="start" dominant-baseline="alphabetic" transform="matrix(1, 0, 0, 1, 0.5, 0.5)" fill-opacity="1">100</text><text fill="rgb(68,68,68)" stroke="none" font-family="helvetica" font-size="11px" font-style="normal" font-weight="normal" text-decoration="normal" x="133.64364624023438" y="245.89013671875" text-anchor="start" dominant-baseline="alphabetic" transform="matrix(1, 0, 0, 1, 0.5, 0.5)" fill-opacity="1">150</text><text fill="rgb(68,68,68)" stroke="none" font-family="helvetica" font-size="11px" font-style="normal" font-weight="normal" text-decoration="normal" x="160.29537963867188" y="245.89013671875" text-anchor="start" dominant-baseline="alphabetic" transform="matrix(1, 0, 0, 1, 0.5, 0.5)" fill-opacity="1">200</text><text fill="rgb(68,68,68)" stroke="none" font-family="helvetica" font-size="11px" font-style="normal" font-weight="normal" text-decoration="normal" x="186.94712829589844" y="245.89013671875" text-anchor="start" dominant-baseline="alphabetic" transform="matrix(1, 0, 0, 1, 0.5, 0.5)" fill-opacity="1">250</text><text fill="rgb(68,68,68)" stroke="none" font-family="helvetica" font-size="11px" font-style="normal" font-weight="normal" text-decoration="normal" x="213.59886169433594" y="245.89013671875" text-anchor="start" dominant-baseline="alphabetic" transform="matrix(1, 0, 0, 1, 0.5, 0.5)" fill-opacity="1">300</text><text fill="rgb(68,68,68)" stroke="none" font-family="helvetica" font-size="11px" font-style="normal" font-weight="normal" text-decoration="normal" x="240.2506103515625" y="245.89013671875" text-anchor="start" dominant-baseline="alphabetic" transform="matrix(1, 0, 0, 1, 0.5, 0.5)" fill-opacity="1">350</text><text fill="rgb(68,68,68)" stroke="none" font-family="helvetica" font-size="13px" font-style="italic" font-weight="normal" text-decoration="normal" x="126.819580078125" y="265.89013671875" text-anchor="start" dominant-baseline="alphabetic" transform="matrix(1, 0, 0, 1, 0.5, 0.5)" fill-opacity="1">Observed</text><path fill="none" stroke="rgb(0,0,0)" paint-order="fill" d="M 55.5 227.5 L 55.5 27.5" stroke-opacity="1" stroke-linejoin="bevel" stroke-miterlimit="10" stroke-dasharray=""/><path fill="none" stroke="rgb(0,0,0)" paint-order="fill" d="M 49.5 205.5 L 57.5 205.5 M 49.5 171.5 L 57.5 171.5 M 49.5 137.5 L 57.5 137.5 M 49.5 103.5 L 57.5 103.5 M 49.5 69.5 L 57.5 69.5 M 49.5 34.5 L 57.5 34.5" stroke-opacity="1" stroke-linejoin="bevel" stroke-miterlimit="10" stroke-dasharray=""/><path fill="none" stroke="rgb(0,0,0)" paint-order="fill" d="M 51.5 212.5 L 55.5 212.5 M 51.5 219.5 L 55.5 219.5 M 51.5 226.5 L 55.5 226.5 M 51.5 205.5 L 55.5 205.5 M 51.5 198.5 L 55.5 198.5 M 51.5 192.5 L 55.5 192.5 M 51.5 185.5 L 55.5 185.5 M 51.5 178.5 L 55.5 178.5 M 51.5 171.5 L 55.5 171.5 M 51.5 164.5 L 55.5 164.5 M 51.5 157.5 L 55.5 157.5 M 51.5 151.5 L 55.5 151.5 M 51.5 144.5 L 55.5 144.5 M 51.5 137.5 L 55.5 137.5 M 51.5 130.5 L 55.5 130.5 M 51.5 123.5 L 55.5 123.5 M 51.5 116.5 L 55.5 116.5 M 51.5 110.5 L 55.5 110.5 M 51.5 103.5 L 55.5 103.5 M 51.5 96.5 L 55.5 96.5 M 51.5 89.5 L 55.5 89.5 M 51.5 82.5 L 55.5 82.5 M 51.5 75.5 L 55.5 75.5 M 51.5 69.5 L 55.5 69.5 M 51.5 62.5 L 55.5 62.5 M 51.5 55.5 L 55.5 55.5 M 51.5 48.5 L 55.5 48.5 M 51.5 41.5 L 55.5 41.5 M 51.5 34.5 L 55.5 34.5 M 51.5 28.5 L 55.5 28.5" stroke-opacity="1" stroke-linejoin="bevel" stroke-miterlimit="10" stroke-dasharray=""/><text fill="rgb(68,68,68)" stroke="none" font-family="helvetica" font-size="11px" font-style="normal" font-weight="normal" text-decoration="normal" x="31.7646484375" y="209.24684143066406" text-anchor="start" dominant-baseline="alphabetic" transform="matrix(1, 0, 0, 1, 0.5, 0.5)" fill-opacity="1">50</text><text fill="rgb(68,68,68)" stroke="none" font-family="helvetica" font-size="11px" font-style="normal" font-weight="normal" text-decoration="normal" x="25.64697265625" y="175.0573272705078" text-anchor="start" dominant-baseline="alphabetic" transform="matrix(1, 0, 0, 1, 0.5, 0.5)" fill-opacity="1">100</text><text fill="rgb(68,68,68)" stroke="none" font-family="helvetica" font-size="11px" font-style="normal" font-weight="normal" text-decoration="normal" x="25.64697265625" y="140.86782836914062" text-anchor="start" dominant-baseline="alphabetic" transform="matrix(1, 0, 0, 1, 0.5, 0.5)" fill-opacity="1">150</text><text fill="rgb(68,68,68)" stroke="none" font-family="helvetica" font-size="11px" font-style="normal" font-weight="normal" text-decoration="normal" x="25.64697265625" y="106.67830657958984" text-anchor="start" dominant-baseline="alphabetic" transform="matrix(1, 0, 0, 1, 0.5, 0.5)" fill-opacity="1">200</text><text fill="rgb(68,68,68)" stroke="none" font-family="helvetica" font-size="11px" font-style="normal" font-weight="normal" text-decoration="normal" x="25.64697265625" y="72.48880004882812" text-anchor="start" dominant-baseline="alphabetic" transform="matrix(1, 0, 0, 1, 0.5, 0.5)" fill-opacity="1">250</text><text fill="rgb(68,68,68)" stroke="none" font-family="helvetica" font-size="11px" font-style="normal" font-weight="normal" text-decoration="normal" x="25.64697265625" y="38.299285888671875" text-anchor="start" dominant-baseline="alphabetic" transform="matrix(1, 0, 0, 1, 0.5, 0.5)" fill-opacity="1">300</text><text fill="rgb(68,68,68)" stroke="none" font-family="helvetica" font-size="13px" font-style="italic" font-weight="normal" text-decoration="normal" x="-9.81298828125" y="124" text-anchor="start" dominant-baseline="alphabetic" transform="matrix(6.123233995736766e-17, -1, 1, 6.123233995736766e-17, -108.85302734375, 145.14697265625)" fill-opacity="1">Predicted</text><path fill="none" stroke="rgb(255,140,0)" paint-order="fill" d="M 229.0082114016145 27.5 L 73.10226006769543 227.5" stroke-opacity="1" stroke-linejoin="bevel" stroke-miterlimit="10" stroke-width="2" stroke-dasharray="" clip-path="url(#dXQSBNqaIlnc)"/><path fill="none" stroke="none"/><text fill="rgb(68,68,68)" stroke="none" font-family="helvetica" font-size="13px" font-style="normal" font-weight="bold" text-decoration="normal" x="0" y="0" text-anchor="start" dominant-baseline="text-after-edge" transform="matrix(1, 0, 0, 1, 55.5, 22.5)" fill-opacity="1">Oxygen (µmol/kg), &lt;R²&gt; = 0.63</text></svg>