<svg version="1.1" xmlns="http://www.w3.org/2000/svg" xmlns:xlink="http://www.w3.org/1999/xlink" width="254" height="272"><defs><clipPath id="bIeUCSegJXzE"><path fill="none" stroke="none" d="M 49.5 27.5 L 249.5 27.5 L 249.5 227.5 L 49.5 227.5 L 49.5 27.5"/></clipPath><clipPath id="TzlDnloyzAUq"><path fill="none" stroke="none" d="M 49.5 27.5 L 249.5 27.5 L 249.5 227.5 L 49.5 227.5 L 49.5 27.5"/></clipPath><clipPath id="hEheTJgLnXVk"><path fill="none" stroke="none" d="M 49.5 27.5 L 249.5 27.5 L 249.5 227.5 L 49.5 227.5 L 49.5 27.5"/></clipPath><clipPath id="WQPThGcLLktw"><path fill="none" stroke="none" d="M 49.5 27.5 L 249.5 27.5 L 249.5 227.5 L 49.5 227.5 L 49.5 27.5"/></clipPath><clipPath id="vhIghxcLdqLi"><path fill="none" stroke="none" d="M 49.5 27.5 L 249.5 27.5 L 249.5 227.5 L 49.5 227.5 L 49.5 27.5"/></clipPath></defs><path fill="none" stroke="rgb(229,229,229)" paint-order="fill" d="M 49.5 27.5 L 249.5 27.5 L 249.5 227.5 L 49.5 227.5 L 49.5 27.5" stroke-opacity="1" stroke-linejoin="bevel" stroke-miterlimit="10" stroke-dasharray=""/><path fill="none" stroke="rgb(229,229,229)" paint-order="fill" d="M 68.5 227.5 L 68.5 27.5 M 114.5 227.5 L 114.5 27.5 M 159.5 227.5 L 159.5 27.5 M 204.5 227.5 L 204.5 27.5" stroke-opacity="1" stroke-linejoin="bevel" stroke-miterlimit="10" stroke-dasharray="" clip-path="url(#bIeUCSegJXzE)"/><path fill="none" stroke="rgb(229,229,229)" paint-order="fill" d="M 49.5 219.5 L 249.5 219.5 M 49.5 193.5 L 249.5 193.5 M 49.5 167.5 L 249.5 167.5 M 49.5 141.5 L 249.5 141.5 M 49.5 115.5 L 249.5 115.5 M 49.5 89.5 L 249.5 89.5 M 49.5 63.5 L 249.5 63.5 M 49.5 37.5 L 249.5 37.5" stroke-opacity="1" stroke-linejoin="bevel" stroke-miterlimit="10" stroke-dasharray="" clip-path="url(#TzlDnloyzAUq)"/><path fill="none" stroke="none"/><path fill="rgb(31,119,180)" stroke="rgb(31,119,180)" paint-order="fill" d="M 88.31818389892578 203.1331024169922 A 2 2 0 1 1 88.31818289892587 203.1311024173255" fill-opacity="1" clip-path="url(#hEheTJgLnXVk)" stroke-opacity="1" stroke-linejoin="bevel" stroke-miterlimit="10" stroke-dasharray=""/><path fill="rgb(31,119,180)" stroke="rgb(31,119,180)" paint-order="fill" d="M 68.7727279663086 216.81866455078125 A 2 2 0 1 1 68.77272696630868 216.81666455111457" fill-opacity="1" clip-path="url(#hEheTJgLnXVk)" stroke-opacity="1" stroke-linejoin="bevel" stroke-miterlimit="10" stroke-dasharray=""/><path fill="rgb(31,119,180)" stroke="rgb(31,119,180)" paint-order="fill" d="M 88.31818389892578 196.1566619873047 A 2 2 0 1 1 88.31818289892587 196.154661987638" fill-opacity="1" clip-path="url(#hEheTJgLnXVk)" stroke-opacity="1" stroke-linejoin="bevel" stroke-miterlimit="10" stroke-dasharray=""/><path fill="rgb(31,119,180)" stroke="rgb(31,119,180)" paint-order="fill" d="M 71.5 215.27088928222656 A 2 2 0 1 1 71.49999900000009 215.26888928255988" fill-opacity="1" clip-path="url(#hEheTJgLnXVk)" stroke-opacity="1" stroke-linejoin="bevel" stroke-miterlimit="10" stroke-dasharray=""/><path fill="rgb(31,119,180)" stroke="rgb(31,119,180)" paint-order="fill" d="M 221.0454559326172 110.57429504394531 A 2 2 0 1 1 221.04545493261728 110.57229504427865" fill-opacity="1" clip-path="url(#hEheTJgLnXVk)" stroke-opacity="1" stroke-linejoin="bevel" stroke-miterlimit="10" stroke-dasharray=""/><path fill="rgb(31,119,180)" stroke="rgb(31,119,180)" paint-order="fill" d="M 93.7727279663086 199.95225524902344 A 2 2 0 1 1 93.77272696630868 199.95025524935676" fill-opacity="1" clip-path="url(#hEheTJgLnXVk)" stroke-opacity="1" stroke-linejoin="bevel" stroke-miterlimit="10" stroke-dasharray=""/><path fill="rgb(31,119,180)" stroke="rgb(31,119,180)" paint-order="fill" d="M 73.31818389892578 210.32798767089844 A 2 2 0 1 1 73.31818289892587 210.32598767123176" fill-opacity="1" clip-path="url(#hEheTJgLnXVk)" stroke-opacity="1" stroke-linejoin="bevel" stroke-miterlimit="10" stroke-dasharray=""/><path fill="rgb(31,119,180)" stroke="rgb(31,119,180)" paint-order="fill" d="M 93.7727279663086 200.7781524658203 A 2 2 0 1 1 93.77272696630868 200.77615246615363" fill-opacity="1" clip-path="url(#hEheTJgLnXVk)" stroke-opacity="1" stroke-linejoin="bevel" stroke-miterlimit="10" stroke-dasharray=""/><path fill="rgb(31,119,180)" stroke="rgb(31,119,180)" paint-order="fill" d="M 63.772727966308594 183.10455322265625 A 2 2 0 1 1 63.772726966308674 183.10255322298957" fill-opacity="1" clip-path="url(#hEheTJgLnXVk)" stroke-opacity="1" stroke-linejoin="bevel" stroke-miterlimit="10" stroke-dasharray=""/><path fill="rgb(31,119,180)" stroke="rgb(31,119,180)" paint-order="fill" d="M 64.68181991577148 197.57337951660156 A 2 2 0 1 1 64.68181891577157 197.57137951693488" fill-opacity="1" clip-path="url(#hEheTJgLnXVk)" stroke-opacity="1" stroke-linejoin="bevel" stroke-miterlimit="10" stroke-dasharray=""/><path fill="rgb(31,119,180)" stroke="rgb(31,119,180)" paint-order="fill" d="M 159.68182373046875 125.60792541503906 A 2 2 0 1 1 159.68182273046884 125.6059254153724" fill-opacity="1" clip-path="url(#hEheTJgLnXVk)" stroke-opacity="1" stroke-linejoin="bevel" stroke-miterlimit="10" stroke-dasharray=""/><path fill="rgb(31,119,180)" stroke="rgb(31,119,180)" paint-order="fill" d="M 72.86363983154297 208.1238555908203 A 2 2 0 1 1 72.86363883154306 208.12185559115363" fill-opacity="1" clip-path="url(#hEheTJgLnXVk)" stroke-opacity="1" stroke-linejoin="bevel" stroke-miterlimit="10" stroke-dasharray=""/><path fill="rgb(31,119,180)" stroke="rgb(31,119,180)" paint-order="fill" d="M 77.86363983154297 201.50314331054688 A 2 2 0 1 1 77.86363883154306 201.5011433108802" fill-opacity="1" clip-path="url(#hEheTJgLnXVk)" stroke-opacity="1" stroke-linejoin="bevel" stroke-miterlimit="10" stroke-dasharray=""/><path fill="rgb(31,119,180)" stroke="rgb(31,119,180)" paint-order="fill" d="M 187.86363220214844 70.3372573852539 A 2 2 0 1 1 187.86363120214853 70.33525738558724" fill-opacity="1" clip-path="url(#hEheTJgLnXVk)" stroke-opacity="1" stroke-linejoin="bevel" stroke-miterlimit="10" stroke-dasharray=""/><path fill="rgb(31,119,180)" stroke="rgb(31,119,180)" paint-order="fill" d="M 181.5 103.55936431884766 A 2 2 0 1 1 181.4999990000001 103.55736431918099" fill-opacity="1" clip-path="url(#hEheTJgLnXVk)" stroke-opacity="1" stroke-linejoin="bevel" stroke-miterlimit="10" stroke-dasharray=""/><path fill="rgb(31,119,180)" stroke="rgb(31,119,180)" paint-order="fill" d="M 70.13636016845703 197.3955078125 A 2 2 0 1 1 70.13635916845712 197.39350781283332" fill-opacity="1" clip-path="url(#hEheTJgLnXVk)" stroke-opacity="1" stroke-linejoin="bevel" stroke-miterlimit="10" stroke-dasharray=""/><path fill="rgb(31,119,180)" stroke="rgb(31,119,180)" paint-order="fill" d="M 93.7727279663086 198.7217254638672 A 2 2 0 1 1 93.77272696630868 198.7197254642005" fill-opacity="1" clip-path="url(#hEheTJgLnXVk)" stroke-opacity="1" stroke-linejoin="bevel" stroke-miterlimit="10" stroke-dasharray=""/><path fill="rgb(31,119,180)" stroke="rgb(31,119,180)" paint-order="fill" d="M 93.31818389892578 202.65774536132812 A 2 2 0 1 1 93.31818289892587 202.65574536166145" fill-opacity="1" clip-path="url(#hEheTJgLnXVk)" stroke-opacity="1" stroke-linejoin="bevel" stroke-miterlimit="10" stroke-dasharray=""/><path fill="rgb(31,119,180)" stroke="rgb(31,119,180)" paint-order="fill" d="M 93.31818389892578 199.8815155029297 A 2 2 0 1 1 93.31818289892587 199.879515503263" fill-opacity="1" clip-path="url(#hEheTJgLnXVk)" stroke-opacity="1" stroke-linejoin="bevel" stroke-miterlimit="10" stroke-dasharray=""/><path fill="rgb(31,119,180)" stroke="rgb(31,119,180)" paint-order="fill" d="M 224.68182373046875 36.59090805053711 A 2 2 0 1 1 224.68182273046884 36.588908050870444" fill-opacity="1" clip-path="url(#hEheTJgLnXVk)" stroke-opacity="1" stroke-linejoin="bevel" stroke-miterlimit="10" stroke-dasharray=""/><path fill="rgb(31,119,180)" stroke="rgb(31,119,180)" paint-order="fill" d="M 206.0454559326172 63.06020736694336 A 2 2 0 1 1 206.04545493261728 63.058207367276694" fill-opacity="1" clip-path="url(#hEheTJgLnXVk)" stroke-opacity="1" stroke-linejoin="bevel" stroke-miterlimit="10" stroke-dasharray=""/><path fill="rgb(31,119,180)" stroke="rgb(31,119,180)" paint-order="fill" d="M 206.0454559326172 51.697349548339844 A 2 2 0 1 1 206.04545493261728 51.69534954867318" fill-opacity="1" clip-path="url(#hEheTJgLnXVk)" stroke-opacity="1" stroke-linejoin="bevel" stroke-miterlimit="10" stroke-dasharray=""/><path fill="rgb(31,119,180)" stroke="rgb(31,119,180)" paint-order="fill" d="M 81.95454406738281 206.3129119873047 A 2 2 0 1 1 81.9545430673829 206.310911987638" fill-opacity="1" clip-path="url(#hEheTJgLnXVk)" stroke-opacity="1" stroke-linejoin="bevel" stroke-miterlimit="10" stroke-dasharray=""/><path fill="rgb(31,119,180)" stroke="rgb(31,119,180)" paint-order="fill" d="M 71.95454406738281 216.01461791992188 A 2 2 0 1 1 71.9545430673829 216.0126179202552" fill-opacity="1" clip-path="url(#hEheTJgLnXVk)" stroke-opacity="1" stroke-linejoin="bevel" stroke-miterlimit="10" stroke-dasharray=""/><path fill="rgb(31,119,180)" stroke="rgb(31,119,180)" paint-order="fill" d="M 242.40908813476562 124.88188171386719 A 2 2 0 1 1 242.4090871347657 124.87988171420052" fill-opacity="1" clip-path="url(#hEheTJgLnXVk)" stroke-opacity="1" stroke-linejoin="bevel" stroke-miterlimit="10" stroke-dasharray=""/><path fill="rgb(31,119,180)" stroke="rgb(31,119,180)" paint-order="fill" d="M 68.7727279663086 203.42019653320312 A 2 2 0 1 1 68.77272696630868 203.41819653353645" fill-opacity="1" clip-path="url(#hEheTJgLnXVk)" stroke-opacity="1" stroke-linejoin="bevel" stroke-miterlimit="10" stroke-dasharray=""/><path fill="rgb(31,119,180)" stroke="rgb(31,119,180)" paint-order="fill" d="M 60.59090805053711 215.04725646972656 A 2 2 0 1 1 60.59090705053719 215.04525647005988" fill-opacity="1" clip-path="url(#hEheTJgLnXVk)" stroke-opacity="1" stroke-linejoin="bevel" stroke-miterlimit="10" stroke-dasharray=""/><path fill="rgb(31,119,180)" stroke="rgb(31,119,180)" paint-order="fill" d="M 70.59091186523438 218.40908813476562 A 2 2 0 1 1 70.59091086523446 218.40708813509895" fill-opacity="1" clip-path="url(#hEheTJgLnXVk)" stroke-opacity="1" stroke-linejoin="bevel" stroke-miterlimit="10" stroke-dasharray=""/><path fill="rgb(31,119,180)" stroke="rgb(31,119,180)" paint-order="fill" d="M 74.68181610107422 215.931396484375 A 2 2 0 1 1 74.6818151010743 215.92939648470832" fill-opacity="1" clip-path="url(#hEheTJgLnXVk)" stroke-opacity="1" stroke-linejoin="bevel" stroke-miterlimit="10" stroke-dasharray=""/><path fill="rgb(31,119,180)" stroke="rgb(31,119,180)" paint-order="fill" d="M 76.04545593261719 212.6569366455078 A 2 2 0 1 1 76.04545493261728 212.65493664584113" fill-opacity="1" clip-path="url(#hEheTJgLnXVk)" stroke-opacity="1" stroke-linejoin="bevel" stroke-miterlimit="10" stroke-dasharray=""/><path fill="none" stroke="rgb(0,0,0)" paint-order="fill" d="M 49.5 227.5 L 249.5 227.5" stroke-opacity="1" stroke-linejoin="bevel" stroke-miterlimit="10" stroke-dasharray=""/><path fill="none" stroke="rgb(0,0,0)" paint-order="fill" d="M 68.5 233.5 L 68.5 225.5 M 114.5 233.5 L 114.5 225.5 M 159.5 233.5 L 159.5 225.5 M 204.5 233.5 L 204.5 225.5" stroke-opacity="1" stroke-linejoin="bevel" stroke-miterlimit="10" stroke-dasharray=""/><path fill="none" stroke="rgb(0,0,0)" paint-order="fill" d="M 59.5 231.5 L 59.5 227.5 M 50.5 231.5 L 50.5 227.5 M 68.5 231.5 L 68.5 227.5 M 77.5 231.5 L 77.5 227.5 M 86.5 231.5 L 86.5 227.5 M 95.5 231.5 L 95.5 227.5 M 104.5 231.5 L 104.5 227.5 M 114.5 231.5 L 114.5 227.5 M 123.5 231.5 L 123.5 227.5 M 132.5 231.5 L 132.5 227.5 M 141.5 231.5 L 141.5 227.5 M 150.5 231.5 L 150.5 227.5 M 159.5 231.5 L 159.5 227.5 M 168.5 231.5 L 168.5 227.5 M 177.5 231.5 L 177.5 227.5 M 186.5 231.5 L 186.5 227.5 M 195.5 231.5 L 195.5 227.5 M 204.5 231.5 L 204.5 227.5 M 214.5 231.5 L 214.5 227.5 M 223.5 231.5 L 223.5 227.5 M 232.5 231.5 L 232.5 227.5 M 241.5 231.5 L 241.5 227.5" stroke-opacity="1" stroke-linejoin="bevel" stroke-miterlimit="10" stroke-dasharray=""/><text fill="rgb(68,68,68)" stroke="none" font-family="helvetica" font-size="11px" font-style="normal" font-weight="normal" text-decoration="normal" x="65.03207397460938" y="245.89013671875" text-anchor="start" dominant-baseline="alphabetic" transform="matrix(1, 0, 0, 1, 0.5, 0.5)" fill-opacity="1">0</text><text fill="rgb(68,68,68)" stroke="none" font-family="helvetica" font-size="11px" font-style="normal" font-weight="normal" text-decoration="normal" x="107.42778015136719" y="245.89013671875" text-anchor="start" dominant-baseline="alphabetic" transform="matrix(1, 0, 0, 1, 0.5, 0.5)" fill-opacity="1">10</text><text fill="rgb(68,68,68)" stroke="none" font-family="helvetica" font-size="11px" font-style="normal" font-weight="normal" text-decoration="normal" x="152.88232421875" y="245.89013671875" text-anchor="start" dominant-baseline="alphabetic" transform="matrix(1, 0, 0, 1, 0.5, 0.5)" fill-opacity="1">20</text><text fill="rgb(68,68,68)" stroke="none" font-family="helvetica" font-size="11px" font-style="normal" font-weight="normal" text-decoration="normal" x="198.3368682861328" y="245.89013671875" text-anchor="start" dominant-baseline="alphabetic" transform="matrix(1, 0, 0, 1, 0.5, 0.5)" fill-opacity="1">30</text><text fill="rgb(68,68,68)" stroke="none" font-family="helvetica" font-size="13px" font-style="italic" font-weight="normal" text-decoration="normal" x="120.819580078125" y="265.89013671875" text-anchor="start" dominant-baseline="alphabetic" transform="matrix(1, 0, 0, 1, 0.5, 0.5)" fill-opacity="1">Observed</text><path fill="none" stroke="rgb(0,0,0)" paint-order="fill" d="M 49.5 227.5 L 49.5 27.5" stroke-opacity="1" stroke-linejoin="bevel" stroke-miterlimit="10" stroke-dasharray=""/><path fill="none" stroke="rgb(0,0,0)" paint-order="fill" d="M 43.5 219.5 L 51.5 219.5 M 43.5 193.5 L 51.5 193.5 M 43.5 167.5 L 51.5 167.5 M 43.5 141.5 L 51.5 141.5 M 43.5 115.5 L 51.5 115.5 M 43.5 89.5 L 51.5 89.5 M 43.5 63.5 L 51.5 63.5 M 43.5 37.5 L 51.5 37.5" stroke-opacity="1" stroke-linejoin="bevel" stroke-miterlimit="10" stroke-dasharray=""/><path fill="none" stroke="rgb(0,0,0)" paint-order="fill" d="M 45.5 224.5 L 49.5 224.5 M 45.5 219.5 L 49.5 219.5 M 45.5 214.5 L 49.5 214.5 M 45.5 209.5 L 49.5 209.5 M 45.5 203.5 L 49.5 203.5 M 45.5 198.5 L 49.5 198.5 M 45.5 193.5 L 49.5 193.5 M 45.5 188.5 L 49.5 188.5 M 45.5 183.5 L 49.5 183.5 M 45.5 177.5 L 49.5 177.5 M 45.5 172.5 L 49.5 172.5 M 45.5 167.5 L 49.5 167.5 M 45.5 162.5 L 49.5 162.5 M 45.5 157.5 L 49.5 157.5 M 45.5 151.5 L 49.5 151.5 M 45.5 146.5 L 49.5 146.5 M 45.5 141.5 L 49.5 141.5 M 45.5 136.5 L 49.5 136.5 M 45.5 131.5 L 49.5 131.5 M 45.5 125.5 L 49.5 125.5 M 45.5 120.5 L 49.5 120.5 M 45.5 115.5 L 49.5 115.5 M 45.5 110.5 L 49.5 110.5 M 45.5 105.5 L 49.5 105.5 M 45.5 99.5 L 49.5 99.5 M 45.5 94.5 L 49.5 94.5 M 45.5 89.5 L 49.5 89.5 M 45.5 84.5 L 49.5 84.5 M 45.5 79.5 L 49.5 79.5 M 45.5 73.5 L 49.5 73.5 M 45.5 68.5 L 49.5 68.5 M 45.5 63.5 L 49.5 63.5 M 45.5 58.5 L 49.5 58.5 M 45.5 53.5 L 49.5 53.5 M 45.5 47.5 L 49.5 47.5 M 45.5 42.5 L 49.5 42.5 M 45.5 37.5 L 49.5 37.5 M 45.5 32.5 L 49.5 32.5" stroke-opacity="1" stroke-linejoin="bevel" stroke-miterlimit="10" stroke-dasharray=""/><text fill="rgb(68,68,68)" stroke="none" font-family="helvetica" font-size="11px" font-style="normal" font-weight="normal" text-decoration="normal" x="31.88232421875" y="222.87353515625" text-anchor="start" dominant-baseline="alphabetic" transform="matrix(1, 0, 0, 1, 0.5, 0.5)" fill-opacity="1">0</text><text fill="rgb(68,68,68)" stroke="none" font-family="helvetica" font-size="11px" font-style="normal" font-weight="normal" text-decoration="normal" x="31.88232421875" y="196.8691864013672" text-anchor="start" dominant-baseline="alphabetic" transform="matrix(1, 0, 0, 1, 0.5, 0.5)" fill-opacity="1">5</text><text fill="rgb(68,68,68)" stroke="none" font-family="helvetica" font-size="11px" font-style="normal" font-weight="normal" text-decoration="normal" x="25.7646484375" y="170.86485290527344" text-anchor="start" dominant-baseline="alphabetic" transform="matrix(1, 0, 0, 1, 0.5, 0.5)" fill-opacity="1">10</text><text fill="rgb(68,68,68)" stroke="none" font-family="helvetica" font-size="11px" font-style="normal" font-weight="normal" text-decoration="normal" x="25.7646484375" y="144.86050415039062" text-anchor="start" dominant-baseline="alphabetic" transform="matrix(1, 0, 0, 1, 0.5, 0.5)" fill-opacity="1">15</text><text fill="rgb(68,68,68)" stroke="none" font-family="helvetica" font-size="11px" font-style="normal" font-weight="normal" text-decoration="normal" x="25.7646484375" y="118.85617065429688" text-anchor="start" dominant-baseline="alphabetic" transform="matrix(1, 0, 0, 1, 0.5, 0.5)" fill-opacity="1">20</text><text fill="rgb(68,68,68)" stroke="none" font-family="helvetica" font-size="11px" font-style="normal" font-weight="normal" text-decoration="normal" x="25.7646484375" y="92.8518295288086" text-anchor="start" dominant-baseline="alphabetic" transform="matrix(1, 0, 0, 1, 0.5, 0.5)" fill-opacity="1">25</text><text fill="rgb(68,68,68)" stroke="none" font-family="helvetica" font-size="11px" font-style="normal" font-weight="normal" text-decoration="normal" x="25.7646484375" y="66.84749221801758" text-anchor="start" dominant-baseline="alphabetic" transform="matrix(1, 0, 0, 1, 0.5, 0.5)" fill-opacity="1">30</text><text fill="rgb(68,68,68)" stroke="none" font-family="helvetica" font-size="11px" font-style="normal" font-weight="normal" text-decoration="normal" x="25.7646484375" y="40.8431510925293" text-anchor="start" dominant-baseline="alphabetic" transform="matrix(1, 0, 0, 1, 0.5, 0.5)" fill-opacity="1">35</text><text fill="rgb(68,68,68)" stroke="none" font-family="helvetica" font-size="13px" font-style="italic" font-weight="normal" text-decoration="normal" x="-9.6953125" y="124" text-anchor="start" dominant-baseline="alphabetic" transform="matrix(6.123233995736766e-17, -1, 1, 6.123233995736766e-17, -108.7353515625, 145.2646484375)" fill-opacity="1">Predicted</text><path fill="none" stroke="rgb(255,140,0)" paint-order="fill" d="M 236.33254545454542 27.5 L 61.536545454545454 227.5" stroke-opacity="1" stroke-linejoin="bevel" stroke-miterlimit="10" stroke-width="2" stroke-dasharray="" clip-path="url(#WQPThGcLLktw)"/><path fill="none" stroke="none"/><text fill="rgb(68,68,68)" stroke="none" font-family="helvetica" font-size="13px" font-style="normal" font-weight="bold" text-decoration="normal" x="0" y="0" text-anchor="start" dominant-baseline="text-after-edge" transform="matrix(1, 0, 0, 1, 49.5, 22.5)" fill-opacity="1">Nitrates (µmol/L), &lt;R²&gt; = 0.71</text></svg>