<svg version="1.1" xmlns="http://www.w3.org/2000/svg" xmlns:xlink="http://www.w3.org/1999/xlink" width="260" height="272"><defs><clipPath id="TykDUODfdPvP"><path fill="none" stroke="none" d="M 55.5 27.5 L 255.5 27.5 L 255.5 227.5 L 55.5 227.5 L 55.5 27.5"/></clipPath><clipPath id="lPINkWwTHmcP"><path fill="none" stroke="none" d="M 55.5 27.5 L 255.5 27.5 L 255.5 227.5 L 55.5 227.5 L 55.5 27.5"/></clipPath><clipPath id="ISCsFlPrruTp"><path fill="none" stroke="none" d="M 55.5 27.5 L 255.5 27.5 L 255.5 227.5 L 55.5 227.5 L 55.5 27.5"/></clipPath><clipPath id="wWOgRvrFhXbJ"><path fill="none" stroke="none" d="M 55.5 27.5 L 255.5 27.5 L 255.5 227.5 L 55.5 227.5 L 55.5 27.5"/></clipPath><clipPath id="bteuFJJFDJoa"><path fill="none" stroke="none" d="M 55.5 27.5 L 255.5 27.5 L 255.5 227.5 L 55.5 227.5 L 55.5 27.5"/></clipPath></defs><path fill="none" stroke="rgb(229,229,229)" paint-order="fill" d="M 55.5 27.5 L 255.5 27.5 L 255.5 227.5 L 55.5 227.5 L 55.5 27.5" stroke-opacity="1" stroke-linejoin="bevel" stroke-miterlimit="10" stroke-dasharray=""/><path fill="none" stroke="rgb(229,229,229)" paint-order="fill" d="M 63.5 227.5 L 63.5 27.5 M 109.5 227.5 L 109.5 27.5 M 155.5 227.5 L 155.5 27.5 M 201.5 227.5 L 201.5 27.5 M 248.5 227.5 L 248.5 27.5" stroke-opacity="1" stroke-linejoin="bevel" stroke-miterlimit="10" stroke-dasharray="" clip-path="url(#TykDUODfdPvP)"/><path fill="none" stroke="rgb(229,229,229)" paint-order="fill" d="M 55.5 220.5 L 255.5 220.5 M 55.5 172.5 L 255.5 172.5 M 55.5 124.5 L 255.5 124.5 M 55.5 76.5 L 255.5 76.5 M 55.5 28.5 L 255.5 28.5" stroke-opacity="1" stroke-linejoin="bevel" stroke-miterlimit="10" stroke-dasharray="" clip-path="url(#lPINkWwTHmcP)"/><path fill="none" stroke="none"/><path fill="rgb(31,119,180)" stroke="rgb(31,119,180)" paint-order="fill" d="M 66.68328094482422 216.06289672851562 A 2 2 0 1 1 66.6832799448243 216.06089672884895" fill-opacity="1" clip-path="url(#ISCsFlPrruTp)" stroke-opacity="1" stroke-linejoin="bevel" stroke-miterlimit="10" stroke-dasharray=""/><path fill="rgb(31,119,180)" stroke="rgb(31,119,180)" paint-order="fill" d="M 69.36217498779297 210.07237243652344 A 2 2 0 1 1 69.36217398779306 210.07037243685676" fill-opacity="1" clip-path="url(#ISCsFlPrruTp)" stroke-opacity="1" stroke-linejoin="bevel" stroke-miterlimit="10" stroke-dasharray=""/><path fill="rgb(31,119,180)" stroke="rgb(31,119,180)" paint-order="fill" d="M 92.66390991210938 197.69338989257812 A 2 2 0 1 1 92.66390891210946 197.69138989291145" fill-opacity="1" clip-path="url(#ISCsFlPrruTp)" stroke-opacity="1" stroke-linejoin="bevel" stroke-miterlimit="10" stroke-dasharray=""/><path fill="rgb(31,119,180)" stroke="rgb(31,119,180)" paint-order="fill" d="M 66.70637512207031 215.62344360351562 A 2 2 0 1 1 66.7063741220704 215.62144360384895" fill-opacity="1" clip-path="url(#ISCsFlPrruTp)" stroke-opacity="1" stroke-linejoin="bevel" stroke-miterlimit="10" stroke-dasharray=""/><path fill="rgb(31,119,180)" stroke="rgb(31,119,180)" paint-order="fill" d="M 99.52279663085938 192.2496337890625 A 2 2 0 1 1 99.52279563085946 192.24763378939582" fill-opacity="1" clip-path="url(#ISCsFlPrruTp)" stroke-opacity="1" stroke-linejoin="bevel" stroke-miterlimit="10" stroke-dasharray=""/><path fill="rgb(31,119,180)" stroke="rgb(31,119,180)" paint-order="fill" d="M 66.61400604248047 213.3346405029297 A 2 2 0 1 1 66.61400504248056 213.332640503263" fill-opacity="1" clip-path="url(#ISCsFlPrruTp)" stroke-opacity="1" stroke-linejoin="bevel" stroke-miterlimit="10" stroke-dasharray=""/><path fill="rgb(31,119,180)" stroke="rgb(31,119,180)" paint-order="fill" d="M 66.59091186523438 213.10879516601562 A 2 2 0 1 1 66.59091086523446 213.10679516634895" fill-opacity="1" clip-path="url(#ISCsFlPrruTp)" stroke-opacity="1" stroke-linejoin="bevel" stroke-miterlimit="10" stroke-dasharray=""/><path fill="rgb(31,119,180)" stroke="rgb(31,119,180)" paint-order="fill" d="M 66.59091186523438 218.38330078125 A 2 2 0 1 1 66.59091086523446 218.38130078158332" fill-opacity="1" clip-path="url(#ISCsFlPrruTp)" stroke-opacity="1" stroke-linejoin="bevel" stroke-miterlimit="10" stroke-dasharray=""/><path fill="rgb(31,119,180)" stroke="rgb(31,119,180)" paint-order="fill" d="M 66.61400604248047 218.40908813476562 A 2 2 0 1 1 66.61400504248056 218.40708813509895" fill-opacity="1" clip-path="url(#ISCsFlPrruTp)" stroke-opacity="1" stroke-linejoin="bevel" stroke-miterlimit="10" stroke-dasharray=""/><path fill="rgb(31,119,180)" stroke="rgb(31,119,180)" paint-order="fill" d="M 66.61400604248047 209.63133239746094 A 2 2 0 1 1 66.61400504248056 209.62933239779426" fill-opacity="1" clip-path="url(#ISCsFlPrruTp)" stroke-opacity="1" stroke-linejoin="bevel" stroke-miterlimit="10" stroke-dasharray=""/><path fill="rgb(31,119,180)" stroke="rgb(31,119,180)" paint-order="fill" d="M 76.24415588378906 211.8686065673828 A 2 2 0 1 1 76.24415488378915 211.86660656771613" fill-opacity="1" clip-path="url(#ISCsFlPrruTp)" stroke-opacity="1" stroke-linejoin="bevel" stroke-miterlimit="10" stroke-dasharray=""/><path fill="rgb(31,119,180)" stroke="rgb(31,119,180)" paint-order="fill" d="M 97.25959014892578 192.92283630371094 A 2 2 0 1 1 97.25958914892587 192.92083630404426" fill-opacity="1" clip-path="url(#ISCsFlPrruTp)" stroke-opacity="1" stroke-linejoin="bevel" stroke-miterlimit="10" stroke-dasharray=""/><path fill="rgb(31,119,180)" stroke="rgb(31,119,180)" paint-order="fill" d="M 80.03155517578125 210.3982696533203 A 2 2 0 1 1 80.03155417578134 210.39626965365363" fill-opacity="1" clip-path="url(#ISCsFlPrruTp)" stroke-opacity="1" stroke-linejoin="bevel" stroke-miterlimit="10" stroke-dasharray=""/><path fill="rgb(31,119,180)" stroke="rgb(31,119,180)" paint-order="fill" d="M 66.59091186523438 216.68504333496094 A 2 2 0 1 1 66.59091086523446 216.68304333529426" fill-opacity="1" clip-path="url(#ISCsFlPrruTp)" stroke-opacity="1" stroke-linejoin="bevel" stroke-miterlimit="10" stroke-dasharray=""/><path fill="rgb(31,119,180)" stroke="rgb(31,119,180)" paint-order="fill" d="M 224.53001403808594 36.59090805053711 A 2 2 0 1 1 224.53001303808603 36.588908050870444" fill-opacity="1" clip-path="url(#ISCsFlPrruTp)" stroke-opacity="1" stroke-linejoin="bevel" stroke-miterlimit="10" stroke-dasharray=""/><path fill="rgb(31,119,180)" stroke="rgb(31,119,180)" paint-order="fill" d="M 248.15505981445312 52.27608871459961 A 2 2 0 1 1 248.1550588144532 52.274088714932944" fill-opacity="1" clip-path="url(#ISCsFlPrruTp)" stroke-opacity="1" stroke-linejoin="bevel" stroke-miterlimit="10" stroke-dasharray=""/><path fill="rgb(31,119,180)" stroke="rgb(31,119,180)" paint-order="fill" d="M 87.37541198730469 196.1636962890625 A 2 2 0 1 1 87.37541098730478 196.16169628939582" fill-opacity="1" clip-path="url(#ISCsFlPrruTp)" stroke-opacity="1" stroke-linejoin="bevel" stroke-miterlimit="10" stroke-dasharray=""/><path fill="rgb(31,119,180)" stroke="rgb(31,119,180)" paint-order="fill" d="M 78.04547882080078 213.04244995117188 A 2 2 0 1 1 78.04547782080087 213.0404499515052" fill-opacity="1" clip-path="url(#ISCsFlPrruTp)" stroke-opacity="1" stroke-linejoin="bevel" stroke-miterlimit="10" stroke-dasharray=""/><path fill="rgb(31,119,180)" stroke="rgb(31,119,180)" paint-order="fill" d="M 66.63710021972656 217.3722381591797 A 2 2 0 1 1 66.63709921972665 217.370238159513" fill-opacity="1" clip-path="url(#ISCsFlPrruTp)" stroke-opacity="1" stroke-linejoin="bevel" stroke-miterlimit="10" stroke-dasharray=""/><path fill="rgb(31,119,180)" stroke="rgb(31,119,180)" paint-order="fill" d="M 67.63013458251953 206.71560668945312 A 2 2 0 1 1 67.63013358251962 206.71360668978645" fill-opacity="1" clip-path="url(#ISCsFlPrruTp)" stroke-opacity="1" stroke-linejoin="bevel" stroke-miterlimit="10" stroke-dasharray=""/><path fill="rgb(31,119,180)" stroke="rgb(31,119,180)" paint-order="fill" d="M 66.59091186523438 216.00990295410156 A 2 2 0 1 1 66.59091086523446 216.00790295443488" fill-opacity="1" clip-path="url(#ISCsFlPrruTp)" stroke-opacity="1" stroke-linejoin="bevel" stroke-miterlimit="10" stroke-dasharray=""/><path fill="rgb(31,119,180)" stroke="rgb(31,119,180)" paint-order="fill" d="M 83.26469421386719 198.34103393554688 A 2 2 0 1 1 83.26469321386728 198.3390339358802" fill-opacity="1" clip-path="url(#ISCsFlPrruTp)" stroke-opacity="1" stroke-linejoin="bevel" stroke-miterlimit="10" stroke-dasharray=""/><path fill="rgb(31,119,180)" stroke="rgb(31,119,180)" paint-order="fill" d="M 66.61400604248047 212.59339904785156 A 2 2 0 1 1 66.61400504248056 212.59139904818488" fill-opacity="1" clip-path="url(#ISCsFlPrruTp)" stroke-opacity="1" stroke-linejoin="bevel" stroke-miterlimit="10" stroke-dasharray=""/><path fill="rgb(31,119,180)" stroke="rgb(31,119,180)" paint-order="fill" d="M 67.63013458251953 210.95652770996094 A 2 2 0 1 1 67.63013358251962 210.95452771029426" fill-opacity="1" clip-path="url(#ISCsFlPrruTp)" stroke-opacity="1" stroke-linejoin="bevel" stroke-miterlimit="10" stroke-dasharray=""/><path fill="rgb(31,119,180)" stroke="rgb(31,119,180)" paint-order="fill" d="M 202.66009521484375 107.13897705078125 A 2 2 0 1 1 202.66009421484384 107.13697705111458" fill-opacity="1" clip-path="url(#ISCsFlPrruTp)" stroke-opacity="1" stroke-linejoin="bevel" stroke-miterlimit="10" stroke-dasharray=""/><path fill="rgb(31,119,180)" stroke="rgb(31,119,180)" paint-order="fill" d="M 91.62468719482422 206.50416564941406 A 2 2 0 1 1 91.6246861948243 206.50216564974738" fill-opacity="1" clip-path="url(#ISCsFlPrruTp)" stroke-opacity="1" stroke-linejoin="bevel" stroke-miterlimit="10" stroke-dasharray=""/><path fill="rgb(31,119,180)" stroke="rgb(31,119,180)" paint-order="fill" d="M 67.07588195800781 211.30450439453125 A 2 2 0 1 1 67.0758809580079 211.30250439486457" fill-opacity="1" clip-path="url(#ISCsFlPrruTp)" stroke-opacity="1" stroke-linejoin="bevel" stroke-miterlimit="10" stroke-dasharray=""/><path fill="rgb(31,119,180)" stroke="rgb(31,119,180)" paint-order="fill" d="M 234.92225646972656 64.1524658203125 A 2 2 0 1 1 234.92225546972665 64.15046582064583" fill-opacity="1" clip-path="url(#ISCsFlPrruTp)" stroke-opacity="1" stroke-linejoin="bevel" stroke-miterlimit="10" stroke-dasharray=""/><path fill="rgb(31,119,180)" stroke="rgb(31,119,180)" paint-order="fill" d="M 71.94869232177734 215.0792236328125 A 2 2 0 1 1 71.94869132177743 215.07722363314582" fill-opacity="1" clip-path="url(#ISCsFlPrruTp)" stroke-opacity="1" stroke-linejoin="bevel" stroke-miterlimit="10" stroke-dasharray=""/><path fill="rgb(31,119,180)" stroke="rgb(31,119,180)" paint-order="fill" d="M 83.5880126953125 206.80914306640625 A 2 2 0 1 1 83.58801169531259 206.80714306673957" fill-opacity="1" clip-path="url(#ISCsFlPrruTp)" stroke-opacity="1" stroke-linejoin="bevel" stroke-miterlimit="10" stroke-dasharray=""/><path fill="rgb(31,119,180)" stroke="rgb(31,119,180)" paint-order="fill" d="M 66.70637512207031 207.36956787109375 A 2 2 0 1 1 66.7063741220704 207.36756787142707" fill-opacity="1" clip-path="url(#ISCsFlPrruTp)" stroke-opacity="1" stroke-linejoin="bevel" stroke-miterlimit="10" stroke-dasharray=""/><path fill="rgb(31,119,180)" stroke="rgb(31,119,180)" paint-order="fill" d="M 248.40908813476562 66.19103240966797 A 2 2 0 1 1 248.4090871347657 66.1890324100013" fill-opacity="1" clip-path="url(#ISCsFlPrruTp)" stroke-opacity="1" stroke-linejoin="bevel" stroke-miterlimit="10" stroke-dasharray=""/><path fill="rgb(31,119,180)" stroke="rgb(31,119,180)" paint-order="fill" d="M 66.59091186523438 199.37562561035156 A 2 2 0 1 1 66.59091086523446 199.37362561068488" fill-opacity="1" clip-path="url(#ISCsFlPrruTp)" stroke-opacity="1" stroke-linejoin="bevel" stroke-miterlimit="10" stroke-dasharray=""/><path fill="rgb(31,119,180)" stroke="rgb(31,119,180)" paint-order="fill" d="M 66.61400604248047 216.19882202148438 A 2 2 0 1 1 66.61400504248056 216.1968220218177" fill-opacity="1" clip-path="url(#ISCsFlPrruTp)" stroke-opacity="1" stroke-linejoin="bevel" stroke-miterlimit="10" stroke-dasharray=""/><path fill="rgb(31,119,180)" stroke="rgb(31,119,180)" paint-order="fill" d="M 66.61400604248047 212.3983154296875 A 2 2 0 1 1 66.61400504248056 212.39631543002082" fill-opacity="1" clip-path="url(#ISCsFlPrruTp)" stroke-opacity="1" stroke-linejoin="bevel" stroke-miterlimit="10" stroke-dasharray=""/><path fill="rgb(31,119,180)" stroke="rgb(31,119,180)" paint-order="fill" d="M 74.65067291259766 216.33387756347656 A 2 2 0 1 1 74.65067191259774 216.33187756380988" fill-opacity="1" clip-path="url(#ISCsFlPrruTp)" stroke-opacity="1" stroke-linejoin="bevel" stroke-miterlimit="10" stroke-dasharray=""/><path fill="rgb(31,119,180)" stroke="rgb(31,119,180)" paint-order="fill" d="M 66.61400604248047 216.48634338378906 A 2 2 0 1 1 66.61400504248056 216.48434338412238" fill-opacity="1" clip-path="url(#ISCsFlPrruTp)" stroke-opacity="1" stroke-linejoin="bevel" stroke-miterlimit="10" stroke-dasharray=""/><path fill="none" stroke="rgb(0,0,0)" paint-order="fill" d="M 55.5 227.5 L 255.5 227.5" stroke-opacity="1" stroke-linejoin="bevel" stroke-miterlimit="10" stroke-dasharray=""/><path fill="none" stroke="rgb(0,0,0)" paint-order="fill" d="M 63.5 233.5 L 63.5 225.5 M 109.5 233.5 L 109.5 225.5 M 155.5 233.5 L 155.5 225.5 M 201.5 233.5 L 201.5 225.5 M 248.5 233.5 L 248.5 225.5" stroke-opacity="1" stroke-linejoin="bevel" stroke-miterlimit="10" stroke-dasharray=""/><path fill="none" stroke="rgb(0,0,0)" paint-order="fill" d="M 63.5 231.5 L 63.5 227.5 M 72.5 231.5 L 72.5 227.5 M 81.5 231.5 L 81.5 227.5 M 91.5 231.5 L 91.5 227.5 M 100.5 231.5 L 100.5 227.5 M 109.5 231.5 L 109.5 227.5 M 118.5 231.5 L 118.5 227.5 M 128.5 231.5 L 128.5 227.5 M 137.5 231.5 L 137.5 227.5 M 146.5 231.5 L 146.5 227.5 M 155.5 231.5 L 155.5 227.5 M 164.5 231.5 L 164.5 227.5 M 174.5 231.5 L 174.5 227.5 M 183.5 231.5 L 183.5 227.5 M 192.5 231.5 L 192.5 227.5 M 201.5 231.5 L 201.5 227.5 M 211.5 231.5 L 211.5 227.5 M 220.5 231.5 L 220.5 227.5 M 229.5 231.5 L 229.5 227.5 M 238.5 231.5 L 238.5 227.5 M 248.5 231.5 L 248.5 227.5" stroke-opacity="1" stroke-linejoin="bevel" stroke-miterlimit="10" stroke-dasharray=""/><text fill="rgb(68,68,68)" stroke="none" font-family="helvetica" font-size="11px" font-style="normal" font-weight="normal" text-decoration="normal" x="59.78499984741211" y="245.89013671875" text-anchor="start" dominant-baseline="alphabetic" transform="matrix(1, 0, 0, 1, 0.5, 0.5)" fill-opacity="1">0</text><text fill="rgb(68,68,68)" stroke="none" font-family="helvetica" font-size="11px" font-style="normal" font-weight="normal" text-decoration="normal" x="99.8551025390625" y="245.89013671875" text-anchor="start" dominant-baseline="alphabetic" transform="matrix(1, 0, 0, 1, 0.5, 0.5)" fill-opacity="1">200</text><text fill="rgb(68,68,68)" stroke="none" font-family="helvetica" font-size="11px" font-style="normal" font-weight="normal" text-decoration="normal" x="146.04287719726562" y="245.89013671875" text-anchor="start" dominant-baseline="alphabetic" transform="matrix(1, 0, 0, 1, 0.5, 0.5)" fill-opacity="1">400</text><text fill="rgb(68,68,68)" stroke="none" font-family="helvetica" font-size="11px" font-style="normal" font-weight="normal" text-decoration="normal" x="192.23065185546875" y="245.89013671875" text-anchor="start" dominant-baseline="alphabetic" transform="matrix(1, 0, 0, 1, 0.5, 0.5)" fill-opacity="1">600</text><text fill="rgb(68,68,68)" stroke="none" font-family="helvetica" font-size="11px" font-style="normal" font-weight="normal" text-decoration="normal" x="238.41842651367188" y="245.89013671875" text-anchor="start" dominant-baseline="alphabetic" transform="matrix(1, 0, 0, 1, 0.5, 0.5)" fill-opacity="1">800</text><text fill="rgb(68,68,68)" stroke="none" font-family="helvetica" font-size="13px" font-style="italic" font-weight="normal" text-decoration="normal" x="126.819580078125" y="265.89013671875" text-anchor="start" dominant-baseline="alphabetic" transform="matrix(1, 0, 0, 1, 0.5, 0.5)" fill-opacity="1">Observed</text><path fill="none" stroke="rgb(0,0,0)" paint-order="fill" d="M 55.5 227.5 L 55.5 27.5" stroke-opacity="1" stroke-linejoin="bevel" stroke-miterlimit="10" stroke-dasharray=""/><path fill="none" stroke="rgb(0,0,0)" paint-order="fill" d="M 49.5 220.5 L 57.5 220.5 M 49.5 172.5 L 57.5 172.5 M 49.5 124.5 L 57.5 124.5 M 49.5 76.5 L 57.5 76.5 M 49.5 28.5 L 57.5 28.5" stroke-opacity="1" stroke-linejoin="bevel" stroke-miterlimit="10" stroke-dasharray=""/><path fill="none" stroke="rgb(0,0,0)" paint-order="fill" d="M 51.5 220.5 L 55.5 220.5 M 51.5 211.5 L 55.5 211.5 M 51.5 201.5 L 55.5 201.5 M 51.5 192.5 L 55.5 192.5 M 51.5 182.5 L 55.5 182.5 M 51.5 172.5 L 55.5 172.5 M 51.5 163.5 L 55.5 163.5 M 51.5 153.5 L 55.5 153.5 M 51.5 143.5 L 55.5 143.5 M 51.5 134.5 L 55.5 134.5 M 51.5 124.5 L 55.5 124.5 M 51.5 114.5 L 55.5 114.5 M 51.5 105.5 L 55.5 105.5 M 51.5 95.5 L 55.5 95.5 M 51.5 85.5 L 55.5 85.5 M 51.5 76.5 L 55.5 76.5 M 51.5 66.5 L 55.5 66.5 M 51.5 57.5 L 55.5 57.5 M 51.5 47.5 L 55.5 47.5 M 51.5 37.5 L 55.5 37.5 M 51.5 28.5 L 55.5 28.5" stroke-opacity="1" stroke-linejoin="bevel" stroke-miterlimit="10" stroke-dasharray=""/><text fill="rgb(68,68,68)" stroke="none" font-family="helvetica" font-size="11px" font-style="normal" font-weight="normal" text-decoration="normal" x="37.88232421875" y="224.44210815429688" text-anchor="start" dominant-baseline="alphabetic" transform="matrix(1, 0, 0, 1, 0.5, 0.5)" fill-opacity="1">0</text><text fill="rgb(68,68,68)" stroke="none" font-family="helvetica" font-size="11px" font-style="normal" font-weight="normal" text-decoration="normal" x="25.64697265625" y="176.22511291503906" text-anchor="start" dominant-baseline="alphabetic" transform="matrix(1, 0, 0, 1, 0.5, 0.5)" fill-opacity="1">200</text><text fill="rgb(68,68,68)" stroke="none" font-family="helvetica" font-size="11px" font-style="normal" font-weight="normal" text-decoration="normal" x="25.64697265625" y="128.00812530517578" text-anchor="start" dominant-baseline="alphabetic" transform="matrix(1, 0, 0, 1, 0.5, 0.5)" fill-opacity="1">400</text><text fill="rgb(68,68,68)" stroke="none" font-family="helvetica" font-size="11px" font-style="normal" font-weight="normal" text-decoration="normal" x="25.64697265625" y="79.79113006591797" text-anchor="start" dominant-baseline="alphabetic" transform="matrix(1, 0, 0, 1, 0.5, 0.5)" fill-opacity="1">600</text><text fill="rgb(68,68,68)" stroke="none" font-family="helvetica" font-size="11px" font-style="normal" font-weight="normal" text-decoration="normal" x="25.64697265625" y="31.57413673400879" text-anchor="start" dominant-baseline="alphabetic" transform="matrix(1, 0, 0, 1, 0.5, 0.5)" fill-opacity="1">800</text><text fill="rgb(68,68,68)" stroke="none" font-family="helvetica" font-size="13px" font-style="italic" font-weight="normal" text-decoration="normal" x="-9.81298828125" y="124" text-anchor="start" dominant-baseline="alphabetic" transform="matrix(6.123233995736766e-17, -1, 1, 6.123233995736766e-17, -108.85302734375, 145.14697265625)" fill-opacity="1">Predicted</text><path fill="none" stroke="rgb(255,140,0)" paint-order="fill" d="M 248.697538191517 27.5 L 57.114558387122905 227.5" stroke-opacity="1" stroke-linejoin="bevel" stroke-miterlimit="10" stroke-width="2" stroke-dasharray="" clip-path="url(#wWOgRvrFhXbJ)"/><path fill="none" stroke="none"/><text fill="rgb(68,68,68)" stroke="none" font-family="helvetica" font-size="13px" font-style="normal" font-weight="bold" text-decoration="normal" x="0" y="0" text-anchor="start" dominant-baseline="text-after-edge" transform="matrix(1, 0, 0, 1, 55.5, 22.5)" fill-opacity="1">Depth (m), &lt;R²&gt; = 0.80</text></svg>