<svg version="1.1" xmlns="http://www.w3.org/2000/svg" xmlns:xlink="http://www.w3.org/1999/xlink" width="254" height="272"><defs><clipPath id="FXtZUpPnVNRL"><path fill="none" stroke="none" d="M 49.5 27.5 L 249.5 27.5 L 249.5 227.5 L 49.5 227.5 L 49.5 27.5"/></clipPath><clipPath id="cakfmLpHiAXN"><path fill="none" stroke="none" d="M 49.5 27.5 L 249.5 27.5 L 249.5 227.5 L 49.5 227.5 L 49.5 27.5"/></clipPath><clipPath id="ZeTeuMUNbyvb"><path fill="none" stroke="none" d="M 49.5 27.5 L 249.5 27.5 L 249.5 227.5 L 49.5 227.5 L 49.5 27.5"/></clipPath><clipPath id="skymllzPiSKp"><path fill="none" stroke="none" d="M 49.5 27.5 L 249.5 27.5 L 249.5 227.5 L 49.5 227.5 L 49.5 27.5"/></clipPath><clipPath id="OgkDyzMufNnp"><path fill="none" stroke="none" d="M 49.5 27.5 L 249.5 27.5 L 249.5 227.5 L 49.5 227.5 L 49.5 27.5"/></clipPath></defs><path fill="none" stroke="rgb(229,229,229)" paint-order="fill" d="M 49.5 27.5 L 249.5 27.5 L 249.5 227.5 L 49.5 227.5 L 49.5 27.5" stroke-opacity="1" stroke-linejoin="bevel" stroke-miterlimit="10" stroke-dasharray=""/><path fill="none" stroke="rgb(229,229,229)" paint-order="fill" d="M 79.5 227.5 L 79.5 27.5 M 111.5 227.5 L 111.5 27.5 M 144.5 227.5 L 144.5 27.5 M 176.5 227.5 L 176.5 27.5 M 209.5 227.5 L 209.5 27.5 M 241.5 227.5 L 241.5 27.5" stroke-opacity="1" stroke-linejoin="bevel" stroke-miterlimit="10" stroke-dasharray="" clip-path="url(#FXtZUpPnVNRL)"/><path fill="none" stroke="rgb(229,229,229)" paint-order="fill" d="M 49.5 217.5 L 249.5 217.5 M 49.5 176.5 L 249.5 176.5 M 49.5 136.5 L 249.5 136.5 M 49.5 96.5 L 249.5 96.5 M 49.5 55.5 L 249.5 55.5" stroke-opacity="1" stroke-linejoin="bevel" stroke-miterlimit="10" stroke-dasharray="" clip-path="url(#cakfmLpHiAXN)"/><path fill="none" stroke="none"/><path fill="rgb(31,119,180)" stroke="rgb(31,119,180)" paint-order="fill" d="M 212.53895568847656 62.2879524230957 A 2 2 0 1 1 212.53895468847665 62.28595242342904" fill-opacity="1" clip-path="url(#ZeTeuMUNbyvb)" stroke-opacity="1" stroke-linejoin="bevel" stroke-miterlimit="10" stroke-dasharray=""/><path fill="rgb(31,119,180)" stroke="rgb(31,119,180)" paint-order="fill" d="M 211.24026489257812 56.19478988647461 A 2 2 0 1 1 211.2402638925782 56.192789886807944" fill-opacity="1" clip-path="url(#ZeTeuMUNbyvb)" stroke-opacity="1" stroke-linejoin="bevel" stroke-miterlimit="10" stroke-dasharray=""/><path fill="rgb(31,119,180)" stroke="rgb(31,119,180)" paint-order="fill" d="M 157.99349975585938 117.30106353759766 A 2 2 0 1 1 157.99349875585946 117.29906353793099" fill-opacity="1" clip-path="url(#ZeTeuMUNbyvb)" stroke-opacity="1" stroke-linejoin="bevel" stroke-miterlimit="10" stroke-dasharray=""/><path fill="rgb(31,119,180)" stroke="rgb(31,119,180)" paint-order="fill" d="M 193.70779418945312 68.34554290771484 A 2 2 0 1 1 193.7077931894532 68.34354290804818" fill-opacity="1" clip-path="url(#ZeTeuMUNbyvb)" stroke-opacity="1" stroke-linejoin="bevel" stroke-miterlimit="10" stroke-dasharray=""/><path fill="rgb(31,119,180)" stroke="rgb(31,119,180)" paint-order="fill" d="M 202.7987060546875 79.60851287841797 A 2 2 0 1 1 202.7987050546876 79.6065128787513" fill-opacity="1" clip-path="url(#ZeTeuMUNbyvb)" stroke-opacity="1" stroke-linejoin="bevel" stroke-miterlimit="10" stroke-dasharray=""/><path fill="rgb(31,119,180)" stroke="rgb(31,119,180)" paint-order="fill" d="M 221.62986755371094 51.0928955078125 A 2 2 0 1 1 221.62986655371103 51.090895508145834" fill-opacity="1" clip-path="url(#ZeTeuMUNbyvb)" stroke-opacity="1" stroke-linejoin="bevel" stroke-miterlimit="10" stroke-dasharray=""/><path fill="rgb(31,119,180)" stroke="rgb(31,119,180)" paint-order="fill" d="M 146.30519104003906 92.06004333496094 A 2 2 0 1 1 146.30519004003915 92.05804333529427" fill-opacity="1" clip-path="url(#ZeTeuMUNbyvb)" stroke-opacity="1" stroke-linejoin="bevel" stroke-miterlimit="10" stroke-dasharray=""/><path fill="rgb(31,119,180)" stroke="rgb(31,119,180)" paint-order="fill" d="M 209.29220581054688 80.77442932128906 A 2 2 0 1 1 209.29220481054696 80.7724293216224" fill-opacity="1" clip-path="url(#ZeTeuMUNbyvb)" stroke-opacity="1" stroke-linejoin="bevel" stroke-miterlimit="10" stroke-dasharray=""/><path fill="rgb(31,119,180)" stroke="rgb(31,119,180)" paint-order="fill" d="M 200.2012939453125 66.47134399414062 A 2 2 0 1 1 200.2012929453126 66.46934399447396" fill-opacity="1" clip-path="url(#ZeTeuMUNbyvb)" stroke-opacity="1" stroke-linejoin="bevel" stroke-miterlimit="10" stroke-dasharray=""/><path fill="rgb(31,119,180)" stroke="rgb(31,119,180)" paint-order="fill" d="M 79.42208099365234 185.28317260742188 A 2 2 0 1 1 79.42207999365243 185.2811726077552" fill-opacity="1" clip-path="url(#ZeTeuMUNbyvb)" stroke-opacity="1" stroke-linejoin="bevel" stroke-miterlimit="10" stroke-dasharray=""/><path fill="rgb(31,119,180)" stroke="rgb(31,119,180)" paint-order="fill" d="M 237.86363220214844 36.59090805053711 A 2 2 0 1 1 237.86363120214853 36.588908050870444" fill-opacity="1" clip-path="url(#ZeTeuMUNbyvb)" stroke-opacity="1" stroke-linejoin="bevel" stroke-miterlimit="10" stroke-dasharray=""/><path fill="rgb(31,119,180)" stroke="rgb(31,119,180)" paint-order="fill" d="M 60.59090805053711 218.40908813476562 A 2 2 0 1 1 60.59090705053719 218.40708813509895" fill-opacity="1" clip-path="url(#ZeTeuMUNbyvb)" stroke-opacity="1" stroke-linejoin="bevel" stroke-miterlimit="10" stroke-dasharray=""/><path fill="rgb(31,119,180)" stroke="rgb(31,119,180)" paint-order="fill" d="M 178.12338256835938 79.14926147460938 A 2 2 0 1 1 178.12338156835946 79.14726147494271" fill-opacity="1" clip-path="url(#ZeTeuMUNbyvb)" stroke-opacity="1" stroke-linejoin="bevel" stroke-miterlimit="10" stroke-dasharray=""/><path fill="rgb(31,119,180)" stroke="rgb(31,119,180)" paint-order="fill" d="M 200.2012939453125 73.32776641845703 A 2 2 0 1 1 200.2012929453126 73.32576641879037" fill-opacity="1" clip-path="url(#ZeTeuMUNbyvb)" stroke-opacity="1" stroke-linejoin="bevel" stroke-miterlimit="10" stroke-dasharray=""/><path fill="rgb(31,119,180)" stroke="rgb(31,119,180)" paint-order="fill" d="M 117.7337646484375 182.4290313720703 A 2 2 0 1 1 117.73376364843759 182.42703137240363" fill-opacity="1" clip-path="url(#ZeTeuMUNbyvb)" stroke-opacity="1" stroke-linejoin="bevel" stroke-miterlimit="10" stroke-dasharray=""/><path fill="rgb(31,119,180)" stroke="rgb(31,119,180)" paint-order="fill" d="M 79.42208099365234 213.87156677246094 A 2 2 0 1 1 79.42207999365243 213.86956677279426" fill-opacity="1" clip-path="url(#ZeTeuMUNbyvb)" stroke-opacity="1" stroke-linejoin="bevel" stroke-miterlimit="10" stroke-dasharray=""/><path fill="rgb(31,119,180)" stroke="rgb(31,119,180)" paint-order="fill" d="M 187.86363220214844 83.940673828125 A 2 2 0 1 1 187.86363120214853 83.93867382845833" fill-opacity="1" clip-path="url(#ZeTeuMUNbyvb)" stroke-opacity="1" stroke-linejoin="bevel" stroke-miterlimit="10" stroke-dasharray=""/><path fill="rgb(31,119,180)" stroke="rgb(31,119,180)" paint-order="fill" d="M 205.39610290527344 80.18096160888672 A 2 2 0 1 1 205.39610190527353 80.17896160922005" fill-opacity="1" clip-path="url(#ZeTeuMUNbyvb)" stroke-opacity="1" stroke-linejoin="bevel" stroke-miterlimit="10" stroke-dasharray=""/><path fill="rgb(31,119,180)" stroke="rgb(31,119,180)" paint-order="fill" d="M 216.43505859375 57.752037048339844 A 2 2 0 1 1 216.4350575937501 57.75003704867318" fill-opacity="1" clip-path="url(#ZeTeuMUNbyvb)" stroke-opacity="1" stroke-linejoin="bevel" stroke-miterlimit="10" stroke-dasharray=""/><path fill="rgb(31,119,180)" stroke="rgb(31,119,180)" paint-order="fill" d="M 120.33116912841797 180.84751892089844 A 2 2 0 1 1 120.33116812841806 180.84551892123176" fill-opacity="1" clip-path="url(#ZeTeuMUNbyvb)" stroke-opacity="1" stroke-linejoin="bevel" stroke-miterlimit="10" stroke-dasharray=""/><path fill="rgb(31,119,180)" stroke="rgb(31,119,180)" paint-order="fill" d="M 161.88961791992188 141.57345581054688 A 2 2 0 1 1 161.88961691992196 141.5714558108802" fill-opacity="1" clip-path="url(#ZeTeuMUNbyvb)" stroke-opacity="1" stroke-linejoin="bevel" stroke-miterlimit="10" stroke-dasharray=""/><path fill="rgb(31,119,180)" stroke="rgb(31,119,180)" paint-order="fill" d="M 86.56493377685547 158.953857421875 A 2 2 0 1 1 86.56493277685556 158.95185742220832" fill-opacity="1" clip-path="url(#ZeTeuMUNbyvb)" stroke-opacity="1" stroke-linejoin="bevel" stroke-miterlimit="10" stroke-dasharray=""/><path fill="rgb(31,119,180)" stroke="rgb(31,119,180)" paint-order="fill" d="M 242.40908813476562 50.04664611816406 A 2 2 0 1 1 242.4090871347657 50.0446461184974" fill-opacity="1" clip-path="url(#ZeTeuMUNbyvb)" stroke-opacity="1" stroke-linejoin="bevel" stroke-miterlimit="10" stroke-dasharray=""/><path fill="rgb(31,119,180)" stroke="rgb(31,119,180)" paint-order="fill" d="M 127.47402954101562 128.6804656982422 A 2 2 0 1 1 127.47402854101571 128.6784656985755" fill-opacity="1" clip-path="url(#ZeTeuMUNbyvb)" stroke-opacity="1" stroke-linejoin="bevel" stroke-miterlimit="10" stroke-dasharray=""/><path fill="rgb(31,119,180)" stroke="rgb(31,119,180)" paint-order="fill" d="M 192.40908813476562 85.11467742919922 A 2 2 0 1 1 192.4090871347657 85.11267742953255" fill-opacity="1" clip-path="url(#ZeTeuMUNbyvb)" stroke-opacity="1" stroke-linejoin="bevel" stroke-miterlimit="10" stroke-dasharray=""/><path fill="rgb(31,119,180)" stroke="rgb(31,119,180)" paint-order="fill" d="M 112.5389633178711 191.56553649902344 A 2 2 0 1 1 112.53896231787118 191.56353649935676" fill-opacity="1" clip-path="url(#ZeTeuMUNbyvb)" stroke-opacity="1" stroke-linejoin="bevel" stroke-miterlimit="10" stroke-dasharray=""/><path fill="rgb(31,119,180)" stroke="rgb(31,119,180)" paint-order="fill" d="M 141.75973510742188 139.3111572265625 A 2 2 0 1 1 141.75973410742196 139.30915722689582" fill-opacity="1" clip-path="url(#ZeTeuMUNbyvb)" stroke-opacity="1" stroke-linejoin="bevel" stroke-miterlimit="10" stroke-dasharray=""/><path fill="rgb(31,119,180)" stroke="rgb(31,119,180)" paint-order="fill" d="M 168.38311767578125 87.81681823730469 A 2 2 0 1 1 168.38311667578134 87.81481823763802" fill-opacity="1" clip-path="url(#ZeTeuMUNbyvb)" stroke-opacity="1" stroke-linejoin="bevel" stroke-miterlimit="10" stroke-dasharray=""/><path fill="rgb(31,119,180)" stroke="rgb(31,119,180)" paint-order="fill" d="M 157.99349975585938 114.9368896484375 A 2 2 0 1 1 157.99349875585946 114.93488964877083" fill-opacity="1" clip-path="url(#ZeTeuMUNbyvb)" stroke-opacity="1" stroke-linejoin="bevel" stroke-miterlimit="10" stroke-dasharray=""/><path fill="rgb(31,119,180)" stroke="rgb(31,119,180)" paint-order="fill" d="M 147.60389709472656 111.54749298095703 A 2 2 0 1 1 147.60389609472665 111.54549298129037" fill-opacity="1" clip-path="url(#ZeTeuMUNbyvb)" stroke-opacity="1" stroke-linejoin="bevel" stroke-miterlimit="10" stroke-dasharray=""/><path fill="rgb(31,119,180)" stroke="rgb(31,119,180)" paint-order="fill" d="M 228.12338256835938 51.43733596801758 A 2 2 0 1 1 228.12338156835946 51.43533596835091" fill-opacity="1" clip-path="url(#ZeTeuMUNbyvb)" stroke-opacity="1" stroke-linejoin="bevel" stroke-miterlimit="10" stroke-dasharray=""/><path fill="rgb(31,119,180)" stroke="rgb(31,119,180)" paint-order="fill" d="M 190.46104431152344 77.8604507446289 A 2 2 0 1 1 190.46104331152353 77.85845074496224" fill-opacity="1" clip-path="url(#ZeTeuMUNbyvb)" stroke-opacity="1" stroke-linejoin="bevel" stroke-miterlimit="10" stroke-dasharray=""/><path fill="rgb(31,119,180)" stroke="rgb(31,119,180)" paint-order="fill" d="M 94.35713958740234 182.464599609375 A 2 2 0 1 1 94.35713858740243 182.46259960970832" fill-opacity="1" clip-path="url(#ZeTeuMUNbyvb)" stroke-opacity="1" stroke-linejoin="bevel" stroke-miterlimit="10" stroke-dasharray=""/><path fill="rgb(31,119,180)" stroke="rgb(31,119,180)" paint-order="fill" d="M 180.07142639160156 74.36431884765625 A 2 2 0 1 1 180.07142539160165 74.36231884798958" fill-opacity="1" clip-path="url(#ZeTeuMUNbyvb)" stroke-opacity="1" stroke-linejoin="bevel" stroke-miterlimit="10" stroke-dasharray=""/><path fill="rgb(31,119,180)" stroke="rgb(31,119,180)" paint-order="fill" d="M 101.5 179.60560607910156 A 2 2 0 1 1 101.49999900000009 179.60360607943488" fill-opacity="1" clip-path="url(#ZeTeuMUNbyvb)" stroke-opacity="1" stroke-linejoin="bevel" stroke-miterlimit="10" stroke-dasharray=""/><path fill="rgb(31,119,180)" stroke="rgb(31,119,180)" paint-order="fill" d="M 212.53895568847656 58.704498291015625 A 2 2 0 1 1 212.53895468847665 58.70249829134896" fill-opacity="1" clip-path="url(#ZeTeuMUNbyvb)" stroke-opacity="1" stroke-linejoin="bevel" stroke-miterlimit="10" stroke-dasharray=""/><path fill="rgb(31,119,180)" stroke="rgb(31,119,180)" paint-order="fill" d="M 242.40908813476562 38.37940216064453 A 2 2 0 1 1 242.4090871347657 38.377402160977866" fill-opacity="1" clip-path="url(#ZeTeuMUNbyvb)" stroke-opacity="1" stroke-linejoin="bevel" stroke-miterlimit="10" stroke-dasharray=""/><path fill="none" stroke="rgb(0,0,0)" paint-order="fill" d="M 49.5 227.5 L 249.5 227.5" stroke-opacity="1" stroke-linejoin="bevel" stroke-miterlimit="10" stroke-dasharray=""/><path fill="none" stroke="rgb(0,0,0)" paint-order="fill" d="M 79.5 233.5 L 79.5 225.5 M 111.5 233.5 L 111.5 225.5 M 144.5 233.5 L 144.5 225.5 M 176.5 233.5 L 176.5 225.5 M 209.5 233.5 L 209.5 225.5 M 241.5 233.5 L 241.5 225.5" stroke-opacity="1" stroke-linejoin="bevel" stroke-miterlimit="10" stroke-dasharray=""/><path fill="none" stroke="rgb(0,0,0)" paint-order="fill" d="M 72.5 231.5 L 72.5 227.5 M 66.5 231.5 L 66.5 227.5 M 59.5 231.5 L 59.5 227.5 M 53.5 231.5 L 53.5 227.5 M 79.5 231.5 L 79.5 227.5 M 85.5 231.5 L 85.5 227.5 M 92.5 231.5 L 92.5 227.5 M 98.5 231.5 L 98.5 227.5 M 105.5 231.5 L 105.5 227.5 M 111.5 231.5 L 111.5 227.5 M 118.5 231.5 L 118.5 227.5 M 124.5 231.5 L 124.5 227.5 M 131.5 231.5 L 131.5 227.5 M 137.5 231.5 L 137.5 227.5 M 144.5 231.5 L 144.5 227.5 M 150.5 231.5 L 150.5 227.5 M 157.5 231.5 L 157.5 227.5 M 163.5 231.5 L 163.5 227.5 M 170.5 231.5 L 170.5 227.5 M 176.5 231.5 L 176.5 227.5 M 183.5 231.5 L 183.5 227.5 M 189.5 231.5 L 189.5 227.5 M 196.5 231.5 L 196.5 227.5 M 202.5 231.5 L 202.5 227.5 M 209.5 231.5 L 209.5 227.5 M 215.5 231.5 L 215.5 227.5 M 222.5 231.5 L 222.5 227.5 M 228.5 231.5 L 228.5 227.5 M 235.5 231.5 L 235.5 227.5 M 241.5 231.5 L 241.5 227.5 M 248.5 231.5 L 248.5 227.5" stroke-opacity="1" stroke-linejoin="bevel" stroke-miterlimit="10" stroke-dasharray=""/><text fill="rgb(68,68,68)" stroke="none" font-family="helvetica" font-size="11px" font-style="normal" font-weight="normal" text-decoration="normal" x="75.81129455566406" y="245.89013671875" text-anchor="start" dominant-baseline="alphabetic" transform="matrix(1, 0, 0, 1, 0.5, 0.5)" fill-opacity="1">5</text><text fill="rgb(68,68,68)" stroke="none" font-family="helvetica" font-size="11px" font-style="normal" font-weight="normal" text-decoration="normal" x="105.21998596191406" y="245.89013671875" text-anchor="start" dominant-baseline="alphabetic" transform="matrix(1, 0, 0, 1, 0.5, 0.5)" fill-opacity="1">10</text><text fill="rgb(68,68,68)" stroke="none" font-family="helvetica" font-size="11px" font-style="normal" font-weight="normal" text-decoration="normal" x="137.68751525878906" y="245.89013671875" text-anchor="start" dominant-baseline="alphabetic" transform="matrix(1, 0, 0, 1, 0.5, 0.5)" fill-opacity="1">15</text><text fill="rgb(68,68,68)" stroke="none" font-family="helvetica" font-size="11px" font-style="normal" font-weight="normal" text-decoration="normal" x="170.15504455566406" y="245.89013671875" text-anchor="start" dominant-baseline="alphabetic" transform="matrix(1, 0, 0, 1, 0.5, 0.5)" fill-opacity="1">20</text><text fill="rgb(68,68,68)" stroke="none" font-family="helvetica" font-size="11px" font-style="normal" font-weight="normal" text-decoration="normal" x="202.62258911132812" y="245.89013671875" text-anchor="start" dominant-baseline="alphabetic" transform="matrix(1, 0, 0, 1, 0.5, 0.5)" fill-opacity="1">25</text><text fill="rgb(68,68,68)" stroke="none" font-family="helvetica" font-size="11px" font-style="normal" font-weight="normal" text-decoration="normal" x="235.09011840820312" y="245.89013671875" text-anchor="start" dominant-baseline="alphabetic" transform="matrix(1, 0, 0, 1, 0.5, 0.5)" fill-opacity="1">30</text><text fill="rgb(68,68,68)" stroke="none" font-family="helvetica" font-size="13px" font-style="italic" font-weight="normal" text-decoration="normal" x="120.819580078125" y="265.89013671875" text-anchor="start" dominant-baseline="alphabetic" transform="matrix(1, 0, 0, 1, 0.5, 0.5)" fill-opacity="1">Observed</text><path fill="none" stroke="rgb(0,0,0)" paint-order="fill" d="M 49.5 227.5 L 49.5 27.5" stroke-opacity="1" stroke-linejoin="bevel" stroke-miterlimit="10" stroke-dasharray=""/><path fill="none" stroke="rgb(0,0,0)" paint-order="fill" d="M 43.5 217.5 L 51.5 217.5 M 43.5 176.5 L 51.5 176.5 M 43.5 136.5 L 51.5 136.5 M 43.5 96.5 L 51.5 96.5 M 43.5 55.5 L 51.5 55.5" stroke-opacity="1" stroke-linejoin="bevel" stroke-miterlimit="10" stroke-dasharray=""/><path fill="none" stroke="rgb(0,0,0)" paint-order="fill" d="M 45.5 225.5 L 49.5 225.5 M 45.5 217.5 L 49.5 217.5 M 45.5 209.5 L 49.5 209.5 M 45.5 201.5 L 49.5 201.5 M 45.5 193.5 L 49.5 193.5 M 45.5 184.5 L 49.5 184.5 M 45.5 176.5 L 49.5 176.5 M 45.5 168.5 L 49.5 168.5 M 45.5 160.5 L 49.5 160.5 M 45.5 152.5 L 49.5 152.5 M 45.5 144.5 L 49.5 144.5 M 45.5 136.5 L 49.5 136.5 M 45.5 128.5 L 49.5 128.5 M 45.5 120.5 L 49.5 120.5 M 45.5 112.5 L 49.5 112.5 M 45.5 104.5 L 49.5 104.5 M 45.5 96.5 L 49.5 96.5 M 45.5 87.5 L 49.5 87.5 M 45.5 79.5 L 49.5 79.5 M 45.5 71.5 L 49.5 71.5 M 45.5 63.5 L 49.5 63.5 M 45.5 55.5 L 49.5 55.5 M 45.5 47.5 L 49.5 47.5 M 45.5 39.5 L 49.5 39.5 M 45.5 31.5 L 49.5 31.5" stroke-opacity="1" stroke-linejoin="bevel" stroke-miterlimit="10" stroke-dasharray=""/><text fill="rgb(68,68,68)" stroke="none" font-family="helvetica" font-size="11px" font-style="normal" font-weight="normal" text-decoration="normal" x="31.88232421875" y="220.77072143554688" text-anchor="start" dominant-baseline="alphabetic" transform="matrix(1, 0, 0, 1, 0.5, 0.5)" fill-opacity="1">5</text><text fill="rgb(68,68,68)" stroke="none" font-family="helvetica" font-size="11px" font-style="normal" font-weight="normal" text-decoration="normal" x="25.7646484375" y="180.3436737060547" text-anchor="start" dominant-baseline="alphabetic" transform="matrix(1, 0, 0, 1, 0.5, 0.5)" fill-opacity="1">10</text><text fill="rgb(68,68,68)" stroke="none" font-family="helvetica" font-size="11px" font-style="normal" font-weight="normal" text-decoration="normal" x="25.7646484375" y="139.91664123535156" text-anchor="start" dominant-baseline="alphabetic" transform="matrix(1, 0, 0, 1, 0.5, 0.5)" fill-opacity="1">15</text><text fill="rgb(68,68,68)" stroke="none" font-family="helvetica" font-size="11px" font-style="normal" font-weight="normal" text-decoration="normal" x="25.7646484375" y="99.4896011352539" text-anchor="start" dominant-baseline="alphabetic" transform="matrix(1, 0, 0, 1, 0.5, 0.5)" fill-opacity="1">20</text><text fill="rgb(68,68,68)" stroke="none" font-family="helvetica" font-size="11px" font-style="normal" font-weight="normal" text-decoration="normal" x="25.7646484375" y="59.062557220458984" text-anchor="start" dominant-baseline="alphabetic" transform="matrix(1, 0, 0, 1, 0.5, 0.5)" fill-opacity="1">25</text><text fill="rgb(68,68,68)" stroke="none" font-family="helvetica" font-size="13px" font-style="italic" font-weight="normal" text-decoration="normal" x="-9.6953125" y="124" text-anchor="start" dominant-baseline="alphabetic" transform="matrix(6.123233995736766e-17, -1, 1, 6.123233995736766e-17, -108.7353515625, 145.2646484375)" fill-opacity="1">Predicted</text><path fill="none" stroke="rgb(255,140,0)" paint-order="fill" d="M 231.82181818181846 27.5 L 71.19896103896104 227.5" stroke-opacity="1" stroke-linejoin="bevel" stroke-miterlimit="10" stroke-width="2" stroke-dasharray="" clip-path="url(#skymllzPiSKp)"/><path fill="none" stroke="none"/><text fill="rgb(68,68,68)" stroke="none" font-family="helvetica" font-size="13px" font-style="normal" font-weight="bold" text-decoration="normal" x="0" y="0" text-anchor="start" dominant-baseline="text-after-edge" transform="matrix(1, 0, 0, 1, 49.5, 22.5)" fill-opacity="1">Temperature (°C), &lt;R²&gt; = 0.77</text></svg>