<svg version="1.1" xmlns="http://www.w3.org/2000/svg" xmlns:xlink="http://www.w3.org/1999/xlink" width="646" height="135"><defs><clipPath id="MEOSzHhiZtuO"><path fill="none" stroke="none" d="M 241.5 27.5 L 641.5 27.5 L 641.5 77.5 L 241.5 77.5 L 241.5 27.5"/></clipPath><clipPath id="RsNSXrorKExd"><path fill="none" stroke="none" d="M 241.5 27.5 L 641.5 27.5 L 641.5 77.5 L 241.5 77.5 L 241.5 27.5"/></clipPath><clipPath id="OKdiqTacmCLH"><path fill="none" stroke="none" d="M 241.5 27.5 L 641.5 27.5 L 641.5 77.5 L 241.5 77.5 L 241.5 27.5"/></clipPath><clipPath id="DdrMNfXTNZfz"><path fill="none" stroke="none" d="M 241.5 27.5 L 641.5 27.5 L 641.5 77.5 L 241.5 77.5 L 241.5 27.5"/></clipPath></defs><path fill="none" stroke="rgb(229,229,229)" paint-order="fill" d="M 241.5 27.5 L 641.5 27.5 L 641.5 77.5 L 241.5 77.5 L 241.5 27.5" stroke-opacity="1" stroke-linejoin="bevel" stroke-miterlimit="10" stroke-dasharray=""/><path fill="none" stroke="rgb(229,229,229)" paint-order="fill" d="M 259.5 77.5 L 259.5 27.5 M 327.5 77.5 L 327.5 27.5 M 394.5 77.5 L 394.5 27.5 M 461.5 77.5 L 461.5 27.5 M 529.5 77.5 L 529.5 27.5 M 596.5 77.5 L 596.5 27.5" stroke-opacity="1" stroke-linejoin="bevel" stroke-miterlimit="10" stroke-dasharray="" clip-path="url(#MEOSzHhiZtuO)"/><path fill="none" stroke="rgb(229,229,229)" paint-order="fill" d="M 241.5 71.5 L 641.5 71.5 M 241.5 58.5 L 641.5 58.5 M 241.5 46.5 L 641.5 46.5 M 241.5 33.5 L 641.5 33.5" stroke-opacity="1" stroke-linejoin="bevel" stroke-miterlimit="10" stroke-dasharray="" clip-path="url(#RsNSXrorKExd)"/><path fill="none" stroke="none"/><path fill="rgb(75,171,129)" stroke="none" paint-order="stroke" d="M 259.68182373046875 28.75 L 623.3181762695312 28.75 L 623.3181762695312 38.75 L 259.68182373046875 38.75 L 259.68182373046875 28.75" fill-opacity="1" clip-path="url(#OKdiqTacmCLH)"/><path fill="none" stroke="rgb(75,171,129)" paint-order="fill" d="M 259.68182373046875 28.75 L 623.3181762695312 28.75 L 623.3181762695312 38.75 L 259.68182373046875 38.75 L 259.68182373046875 28.75" stroke-opacity="1" stroke-linejoin="bevel" stroke-miterlimit="10" stroke-dasharray="" clip-path="url(#OKdiqTacmCLH)"/><path fill="rgb(74,169,129)" stroke="none" paint-order="stroke" d="M 259.68182373046875 41.25 L 586.9127807617188 41.25 L 586.9127807617188 51.25 L 259.68182373046875 51.25 L 259.68182373046875 41.25" fill-opacity="1" clip-path="url(#OKdiqTacmCLH)"/><path fill="none" stroke="rgb(74,169,129)" paint-order="fill" d="M 259.68182373046875 41.25 L 586.9127807617188 41.25 L 586.9127807617188 51.25 L 259.68182373046875 51.25 L 259.68182373046875 41.25" stroke-opacity="1" stroke-linejoin="bevel" stroke-miterlimit="10" stroke-dasharray="" clip-path="url(#OKdiqTacmCLH)"/><path fill="rgb(72,166,130)" stroke="none" paint-order="stroke" d="M 259.68182373046875 53.75 L 504.6485290527344 53.75 L 504.6485290527344 63.75 L 259.68182373046875 63.75 L 259.68182373046875 53.75" fill-opacity="1" clip-path="url(#OKdiqTacmCLH)"/><path fill="none" stroke="rgb(72,166,130)" paint-order="fill" d="M 259.68182373046875 53.75 L 504.6485290527344 53.75 L 504.6485290527344 63.75 L 259.68182373046875 63.75 L 259.68182373046875 53.75" stroke-opacity="1" stroke-linejoin="bevel" stroke-miterlimit="10" stroke-dasharray="" clip-path="url(#OKdiqTacmCLH)"/><path fill="rgb(70,164,131)" stroke="none" paint-order="stroke" d="M 259.68182373046875 66.25 L 462.3766174316406 66.25 L 462.3766174316406 76.25 L 259.68182373046875 76.25 L 259.68182373046875 66.25" fill-opacity="1" clip-path="url(#OKdiqTacmCLH)"/><path fill="none" stroke="rgb(70,164,131)" paint-order="fill" d="M 259.68182373046875 66.25 L 462.3766174316406 66.25 L 462.3766174316406 76.25 L 259.68182373046875 76.25 L 259.68182373046875 66.25" stroke-opacity="1" stroke-linejoin="bevel" stroke-miterlimit="10" stroke-dasharray="" clip-path="url(#OKdiqTacmCLH)"/><path fill="none" stroke="rgb(0,0,0)" paint-order="fill" d="M 241.5 77.5 L 641.5 77.5" stroke-opacity="1" stroke-linejoin="bevel" stroke-miterlimit="10" stroke-dasharray=""/><path fill="none" stroke="rgb(0,0,0)" paint-order="fill" d="M 259.5 83.5 L 259.5 75.5 M 327.5 83.5 L 327.5 75.5 M 394.5 83.5 L 394.5 75.5 M 461.5 83.5 L 461.5 75.5 M 529.5 83.5 L 529.5 75.5 M 596.5 83.5 L 596.5 75.5" stroke-opacity="1" stroke-linejoin="bevel" stroke-miterlimit="10" stroke-dasharray=""/><path fill="none" stroke="rgb(0,0,0)" paint-order="fill" d="M 246.5 81.5 L 246.5 77.5 M 259.5 81.5 L 259.5 77.5 M 273.5 81.5 L 273.5 77.5 M 286.5 81.5 L 286.5 77.5 M 300.5 81.5 L 300.5 77.5 M 313.5 81.5 L 313.5 77.5 M 327.5 81.5 L 327.5 77.5 M 340.5 81.5 L 340.5 77.5 M 353.5 81.5 L 353.5 77.5 M 367.5 81.5 L 367.5 77.5 M 380.5 81.5 L 380.5 77.5 M 394.5 81.5 L 394.5 77.5 M 407.5 81.5 L 407.5 77.5 M 421.5 81.5 L 421.5 77.5 M 434.5 81.5 L 434.5 77.5 M 448.5 81.5 L 448.5 77.5 M 461.5 81.5 L 461.5 77.5 M 475.5 81.5 L 475.5 77.5 M 488.5 81.5 L 488.5 77.5 M 502.5 81.5 L 502.5 77.5 M 515.5 81.5 L 515.5 77.5 M 529.5 81.5 L 529.5 77.5 M 542.5 81.5 L 542.5 77.5 M 555.5 81.5 L 555.5 77.5 M 569.5 81.5 L 569.5 77.5 M 582.5 81.5 L 582.5 77.5 M 596.5 81.5 L 596.5 77.5 M 609.5 81.5 L 609.5 77.5 M 623.5 81.5 L 623.5 77.5 M 636.5 81.5 L 636.5 77.5" stroke-opacity="1" stroke-linejoin="bevel" stroke-miterlimit="10" stroke-dasharray=""/><text fill="rgb(68,68,68)" stroke="none" font-family="helvetica" font-size="11px" font-style="normal" font-weight="normal" text-decoration="normal" x="253.06414794921875" y="91.945068359375" text-anchor="start" dominant-baseline="alphabetic" transform="matrix(0.7071067811865476, -0.7071067811865475, 0.7071067811865475, 0.7071067811865476, 14.18720186594166, 209.54382837569472)" fill-opacity="1">0</text><text fill="rgb(68,68,68)" stroke="none" font-family="helvetica" font-size="11px" font-style="normal" font-weight="normal" text-decoration="normal" x="305.1084289550781" y="91.945068359375" text-anchor="start" dominant-baseline="alphabetic" transform="matrix(0.7071067811865476, -0.7071067811865475, 0.7071067811865475, 0.7071067811865476, 33.9093966501797, 257.157418503566)" fill-opacity="1">0.01</text><text fill="rgb(68,68,68)" stroke="none" font-family="helvetica" font-size="11px" font-style="normal" font-weight="normal" text-decoration="normal" x="372.4442443847656" y="91.945068359375" text-anchor="start" dominant-baseline="alphabetic" transform="matrix(0.7071067811865476, -0.7071067811865475, 0.7071067811865475, 0.7071067811865476, 53.63160037280937, 304.77103021062385)" fill-opacity="1">0.02</text><text fill="rgb(68,68,68)" stroke="none" font-family="helvetica" font-size="11px" font-style="normal" font-weight="normal" text-decoration="normal" x="439.780029296875" y="91.945068359375" text-anchor="start" dominant-baseline="alphabetic" transform="matrix(0.7071067811865476, -0.7071067811865475, 0.7071067811865475, 0.7071067811865476, 73.35379515704739, 352.3846203384952)" fill-opacity="1">0.03</text><text fill="rgb(68,68,68)" stroke="none" font-family="helvetica" font-size="11px" font-style="normal" font-weight="normal" text-decoration="normal" x="507.1158447265625" y="91.945068359375" text-anchor="start" dominant-baseline="alphabetic" transform="matrix(0.7071067811865476, -0.7071067811865475, 0.7071067811865475, 0.7071067811865476, 93.07599887967712, 399.998232045553)" fill-opacity="1">0.04</text><text fill="rgb(68,68,68)" stroke="none" font-family="helvetica" font-size="11px" font-style="normal" font-weight="normal" text-decoration="normal" x="574.45166015625" y="91.945068359375" text-anchor="start" dominant-baseline="alphabetic" transform="matrix(0.7071067811865476, -0.7071067811865475, 0.7071067811865475, 0.7071067811865476, 112.79820260230684, 447.61184375261075)" fill-opacity="1">0.05</text><text fill="rgb(68,68,68)" stroke="none" font-family="helvetica" font-size="13px" font-style="italic" font-weight="normal" text-decoration="normal" x="408.484130859375" y="128.71774531498966" text-anchor="start" dominant-baseline="alphabetic" transform="matrix(1, 0, 0, 1, 0.5, 0.5)" fill-opacity="1">Importance</text><path fill="none" stroke="rgb(0,0,0)" paint-order="fill" d="M 241.5 77.5 L 241.5 27.5" stroke-opacity="1" stroke-linejoin="bevel" stroke-miterlimit="10" stroke-dasharray=""/><path fill="none" stroke="rgb(0,0,0)" paint-order="fill" d="M 235.5 71.5 L 243.5 71.5 M 235.5 58.5 L 243.5 58.5 M 235.5 46.5 L 243.5 46.5 M 235.5 33.5 L 243.5 33.5" stroke-opacity="1" stroke-linejoin="bevel" stroke-miterlimit="10" stroke-dasharray=""/><path fill="none" stroke="rgb(0,0,0)" paint-order="fill" d="" stroke-opacity="1" stroke-linejoin="bevel" stroke-miterlimit="10" stroke-dasharray=""/><text fill="rgb(68,68,68)" stroke="none" font-family="helvetica" font-size="11px" font-style="normal" font-weight="normal" text-decoration="normal" x="102.81787109375" y="74.25" text-anchor="start" dominant-baseline="alphabetic" transform="matrix(1, 0, 0, 1, 0.5, 0.5)" fill-opacity="1">Euryarchaeota Haloarcula</text><text fill="rgb(68,68,68)" stroke="none" font-family="helvetica" font-size="11px" font-style="normal" font-weight="normal" text-decoration="normal" x="104.03173828125" y="61.75" text-anchor="start" dominant-baseline="alphabetic" transform="matrix(1, 0, 0, 1, 0.5, 0.5)" fill-opacity="1">Proteobacteria uncultured</text><text fill="rgb(68,68,68)" stroke="none" font-family="helvetica" font-size="11px" font-style="normal" font-weight="normal" text-decoration="normal" x="2.544921875" y="49.25" text-anchor="start" dominant-baseline="alphabetic" transform="matrix(1, 0, 0, 1, 0.5, 0.5)" fill-opacity="1">Proteobacteria SAR324 clade(Marine group B)</text><text fill="rgb(68,68,68)" stroke="none" font-family="helvetica" font-size="11px" font-style="normal" font-weight="normal" text-decoration="normal" x="105.87939453125" y="36.75" text-anchor="start" dominant-baseline="alphabetic" transform="matrix(1, 0, 0, 1, 0.5, 0.5)" fill-opacity="1">Proteobacteria Nitrospina</text><path fill="none" stroke="none"/><text fill="rgb(68,68,68)" stroke="none" font-family="helvetica" font-size="13px" font-style="normal" font-weight="bold" text-decoration="normal" x="0" y="0" text-anchor="start" dominant-baseline="text-after-edge" transform="matrix(1, 0, 0, 1, 241.5, 22.5)" fill-opacity="1">Depth (m)</text></svg>