<svg version="1.1" xmlns="http://www.w3.org/2000/svg" xmlns:xlink="http://www.w3.org/1999/xlink" width="559" height="135"><defs><clipPath id="QEWHxQDhkuOt"><path fill="none" stroke="none" d="M 154.5 27.5 L 554.5 27.5 L 554.5 77.5 L 154.5 77.5 L 154.5 27.5"/></clipPath><clipPath id="wAfLbHIToKrg"><path fill="none" stroke="none" d="M 154.5 27.5 L 554.5 27.5 L 554.5 77.5 L 154.5 77.5 L 154.5 27.5"/></clipPath><clipPath id="kvapTBoTMbPL"><path fill="none" stroke="none" d="M 154.5 27.5 L 554.5 27.5 L 554.5 77.5 L 154.5 77.5 L 154.5 27.5"/></clipPath><clipPath id="BvdeMMGaJdTR"><path fill="none" stroke="none" d="M 154.5 27.5 L 554.5 27.5 L 554.5 77.5 L 154.5 77.5 L 154.5 27.5"/></clipPath></defs><path fill="none" stroke="rgb(229,229,229)" paint-order="fill" d="M 154.5 27.5 L 554.5 27.5 L 554.5 77.5 L 154.5 77.5 L 154.5 27.5" stroke-opacity="1" stroke-linejoin="bevel" stroke-miterlimit="10" stroke-dasharray=""/><path fill="none" stroke="rgb(229,229,229)" paint-order="fill" d="M 172.5 77.5 L 172.5 27.5 M 230.5 77.5 L 230.5 27.5 M 287.5 77.5 L 287.5 27.5 M 344.5 77.5 L 344.5 27.5 M 402.5 77.5 L 402.5 27.5 M 459.5 77.5 L 459.5 27.5 M 517.5 77.5 L 517.5 27.5" stroke-opacity="1" stroke-linejoin="bevel" stroke-miterlimit="10" stroke-dasharray="" clip-path="url(#QEWHxQDhkuOt)"/><path fill="none" stroke="rgb(229,229,229)" paint-order="fill" d="M 154.5 71.5 L 554.5 71.5 M 154.5 58.5 L 554.5 58.5 M 154.5 46.5 L 554.5 46.5 M 154.5 33.5 L 554.5 33.5" stroke-opacity="1" stroke-linejoin="bevel" stroke-miterlimit="10" stroke-dasharray="" clip-path="url(#wAfLbHIToKrg)"/><path fill="none" stroke="none"/><path fill="rgb(86,183,122)" stroke="none" paint-order="stroke" d="M 172.68182373046875 28.75 L 536.3181762695312 28.75 L 536.3181762695312 38.75 L 172.68182373046875 38.75 L 172.68182373046875 28.75" fill-opacity="1" clip-path="url(#kvapTBoTMbPL)"/><path fill="none" stroke="rgb(86,183,122)" paint-order="fill" d="M 172.68182373046875 28.75 L 536.3181762695312 28.75 L 536.3181762695312 38.75 L 172.68182373046875 38.75 L 172.68182373046875 28.75" stroke-opacity="1" stroke-linejoin="bevel" stroke-miterlimit="10" stroke-dasharray="" clip-path="url(#kvapTBoTMbPL)"/><path fill="rgb(90,185,120)" stroke="none" paint-order="stroke" d="M 172.68182373046875 41.25 L 497.32464599609375 41.25 L 497.32464599609375 51.25 L 172.68182373046875 51.25 L 172.68182373046875 41.25" fill-opacity="1" clip-path="url(#kvapTBoTMbPL)"/><path fill="none" stroke="rgb(90,185,120)" paint-order="fill" d="M 172.68182373046875 41.25 L 497.32464599609375 41.25 L 497.32464599609375 51.25 L 172.68182373046875 51.25 L 172.68182373046875 41.25" stroke-opacity="1" stroke-linejoin="bevel" stroke-miterlimit="10" stroke-dasharray="" clip-path="url(#kvapTBoTMbPL)"/><path fill="rgb(93,188,118)" stroke="none" paint-order="stroke" d="M 172.68182373046875 53.75 L 490.3449401855469 53.75 L 490.3449401855469 63.75 L 172.68182373046875 63.75 L 172.68182373046875 53.75" fill-opacity="1" clip-path="url(#kvapTBoTMbPL)"/><path fill="none" stroke="rgb(93,188,118)" paint-order="fill" d="M 172.68182373046875 53.75 L 490.3449401855469 53.75 L 490.3449401855469 63.75 L 172.68182373046875 63.75 L 172.68182373046875 53.75" stroke-opacity="1" stroke-linejoin="bevel" stroke-miterlimit="10" stroke-dasharray="" clip-path="url(#kvapTBoTMbPL)"/><path fill="rgb(76,173,128)" stroke="none" paint-order="stroke" d="M 172.68182373046875 66.25 L 369.17095947265625 66.25 L 369.17095947265625 76.25 L 172.68182373046875 76.25 L 172.68182373046875 66.25" fill-opacity="1" clip-path="url(#kvapTBoTMbPL)"/><path fill="none" stroke="rgb(76,173,128)" paint-order="fill" d="M 172.68182373046875 66.25 L 369.17095947265625 66.25 L 369.17095947265625 76.25 L 172.68182373046875 76.25 L 172.68182373046875 66.25" stroke-opacity="1" stroke-linejoin="bevel" stroke-miterlimit="10" stroke-dasharray="" clip-path="url(#kvapTBoTMbPL)"/><path fill="none" stroke="rgb(0,0,0)" paint-order="fill" d="M 154.5 77.5 L 554.5 77.5" stroke-opacity="1" stroke-linejoin="bevel" stroke-miterlimit="10" stroke-dasharray=""/><path fill="none" stroke="rgb(0,0,0)" paint-order="fill" d="M 172.5 83.5 L 172.5 75.5 M 230.5 83.5 L 230.5 75.5 M 287.5 83.5 L 287.5 75.5 M 344.5 83.5 L 344.5 75.5 M 402.5 83.5 L 402.5 75.5 M 459.5 83.5 L 459.5 75.5 M 517.5 83.5 L 517.5 75.5" stroke-opacity="1" stroke-linejoin="bevel" stroke-miterlimit="10" stroke-dasharray=""/><path fill="none" stroke="rgb(0,0,0)" paint-order="fill" d="M 161.5 81.5 L 161.5 77.5 M 172.5 81.5 L 172.5 77.5 M 184.5 81.5 L 184.5 77.5 M 195.5 81.5 L 195.5 77.5 M 207.5 81.5 L 207.5 77.5 M 218.5 81.5 L 218.5 77.5 M 230.5 81.5 L 230.5 77.5 M 241.5 81.5 L 241.5 77.5 M 253.5 81.5 L 253.5 77.5 M 264.5 81.5 L 264.5 77.5 M 276.5 81.5 L 276.5 77.5 M 287.5 81.5 L 287.5 77.5 M 299.5 81.5 L 299.5 77.5 M 310.5 81.5 L 310.5 77.5 M 322.5 81.5 L 322.5 77.5 M 333.5 81.5 L 333.5 77.5 M 344.5 81.5 L 344.5 77.5 M 356.5 81.5 L 356.5 77.5 M 367.5 81.5 L 367.5 77.5 M 379.5 81.5 L 379.5 77.5 M 390.5 81.5 L 390.5 77.5 M 402.5 81.5 L 402.5 77.5 M 413.5 81.5 L 413.5 77.5 M 425.5 81.5 L 425.5 77.5 M 436.5 81.5 L 436.5 77.5 M 448.5 81.5 L 448.5 77.5 M 459.5 81.5 L 459.5 77.5 M 471.5 81.5 L 471.5 77.5 M 482.5 81.5 L 482.5 77.5 M 494.5 81.5 L 494.5 77.5 M 505.5 81.5 L 505.5 77.5 M 517.5 81.5 L 517.5 77.5 M 528.5 81.5 L 528.5 77.5 M 540.5 81.5 L 540.5 77.5 M 551.5 81.5 L 551.5 77.5" stroke-opacity="1" stroke-linejoin="bevel" stroke-miterlimit="10" stroke-dasharray=""/><text fill="rgb(68,68,68)" stroke="none" font-family="helvetica" font-size="11px" font-style="normal" font-weight="normal" text-decoration="normal" x="166.06414794921875" y="91.945068359375" text-anchor="start" dominant-baseline="alphabetic" transform="matrix(0.7071067811865476, -0.7071067811865475, 0.7071067811865475, 0.7071067811865476, -11.294508170828692, 148.02553841246507)" fill-opacity="1">0</text><text fill="rgb(68,68,68)" stroke="none" font-family="helvetica" font-size="11px" font-style="normal" font-weight="normal" text-decoration="normal" x="208.2036895751953" y="91.945068359375" text-anchor="start" dominant-baseline="alphabetic" transform="matrix(0.7071067811865476, -0.7071067811865475, 0.7071067811865475, 0.7071067811865476, 5.52665561492708, 188.63542015893586)" fill-opacity="1">0.01</text><text fill="rgb(68,68,68)" stroke="none" font-family="helvetica" font-size="11px" font-style="normal" font-weight="normal" text-decoration="normal" x="265.6347351074219" y="91.945068359375" text-anchor="start" dominant-baseline="alphabetic" transform="matrix(0.7071067811865476, -0.7071067811865475, 0.7071067811865475, 0.7071067811865476, 22.34781940068285, 229.24530190540662)" fill-opacity="1">0.02</text><text fill="rgb(68,68,68)" stroke="none" font-family="helvetica" font-size="11px" font-style="normal" font-weight="normal" text-decoration="normal" x="323.0657958984375" y="91.945068359375" text-anchor="start" dominant-baseline="alphabetic" transform="matrix(0.7071067811865476, -0.7071067811865475, 0.7071067811865475, 0.7071067811865476, 39.16898765563451, 269.8551944414706)" fill-opacity="1">0.03</text><text fill="rgb(68,68,68)" stroke="none" font-family="helvetica" font-size="11px" font-style="normal" font-weight="normal" text-decoration="normal" x="380.496826171875" y="91.945068359375" text-anchor="start" dominant-baseline="alphabetic" transform="matrix(0.7071067811865476, -0.7071067811865475, 0.7071067811865475, 0.7071067811865476, 55.99014697219445, 310.46506539834814)" fill-opacity="1">0.04</text><text fill="rgb(68,68,68)" stroke="none" font-family="helvetica" font-size="11px" font-style="normal" font-weight="normal" text-decoration="normal" x="437.9278869628906" y="91.945068359375" text-anchor="start" dominant-baseline="alphabetic" transform="matrix(0.7071067811865476, -0.7071067811865475, 0.7071067811865475, 0.7071067811865476, 72.81131522714605, 351.07495793441217)" fill-opacity="1">0.05</text><text fill="rgb(68,68,68)" stroke="none" font-family="helvetica" font-size="11px" font-style="normal" font-weight="normal" text-decoration="normal" x="495.35894775390625" y="91.945068359375" text-anchor="start" dominant-baseline="alphabetic" transform="matrix(0.7071067811865476, -0.7071067811865475, 0.7071067811865475, 0.7071067811865476, 89.63248348209771, 391.68485047047614)" fill-opacity="1">0.06</text><text fill="rgb(68,68,68)" stroke="none" font-family="helvetica" font-size="13px" font-style="italic" font-weight="normal" text-decoration="normal" x="321.484130859375" y="128.71774531498966" text-anchor="start" dominant-baseline="alphabetic" transform="matrix(1, 0, 0, 1, 0.5, 0.5)" fill-opacity="1">Importance</text><path fill="none" stroke="rgb(0,0,0)" paint-order="fill" d="M 154.5 77.5 L 154.5 27.5" stroke-opacity="1" stroke-linejoin="bevel" stroke-miterlimit="10" stroke-dasharray=""/><path fill="none" stroke="rgb(0,0,0)" paint-order="fill" d="M 148.5 71.5 L 156.5 71.5 M 148.5 58.5 L 156.5 58.5 M 148.5 46.5 L 156.5 46.5 M 148.5 33.5 L 156.5 33.5" stroke-opacity="1" stroke-linejoin="bevel" stroke-miterlimit="10" stroke-dasharray=""/><path fill="none" stroke="rgb(0,0,0)" paint-order="fill" d="" stroke-opacity="1" stroke-linejoin="bevel" stroke-miterlimit="10" stroke-dasharray=""/><text fill="rgb(68,68,68)" stroke="none" font-family="helvetica" font-size="11px" font-style="normal" font-weight="normal" text-decoration="normal" x="29.2724609375" y="74.25" text-anchor="start" dominant-baseline="alphabetic" transform="matrix(1, 0, 0, 1, 0.5, 0.5)" fill-opacity="1">Proteobacteria Coxiella</text><text fill="rgb(68,68,68)" stroke="none" font-family="helvetica" font-size="11px" font-style="normal" font-weight="normal" text-decoration="normal" x="5.005859375" y="61.75" text-anchor="start" dominant-baseline="alphabetic" transform="matrix(1, 0, 0, 1, 0.5, 0.5)" fill-opacity="1">Proteobacteria SAR11 clade</text><text fill="rgb(68,68,68)" stroke="none" font-family="helvetica" font-size="11px" font-style="normal" font-weight="normal" text-decoration="normal" x="21.31787109375" y="49.25" text-anchor="start" dominant-baseline="alphabetic" transform="matrix(1, 0, 0, 1, 0.5, 0.5)" fill-opacity="1">Proteobacteria Surface 1</text><text fill="rgb(68,68,68)" stroke="none" font-family="helvetica" font-size="11px" font-style="normal" font-weight="normal" text-decoration="normal" x="3.02392578125" y="36.75" text-anchor="start" dominant-baseline="alphabetic" transform="matrix(1, 0, 0, 1, 0.5, 0.5)" fill-opacity="1">Firmicutes Marinilactibacillus</text><path fill="none" stroke="none"/><text fill="rgb(68,68,68)" stroke="none" font-family="helvetica" font-size="13px" font-style="normal" font-weight="bold" text-decoration="normal" x="0" y="0" text-anchor="start" dominant-baseline="text-after-edge" transform="matrix(1, 0, 0, 1, 154.5, 22.5)" fill-opacity="1">Salinity (PSU)</text></svg>