<svg version="1.1" xmlns="http://www.w3.org/2000/svg" xmlns:xlink="http://www.w3.org/1999/xlink" width="603" height="135"><defs><clipPath id="xXVabmJHZfyl"><path fill="none" stroke="none" d="M 198.5 27.5 L 598.5 27.5 L 598.5 77.5 L 198.5 77.5 L 198.5 27.5"/></clipPath><clipPath id="hlhHRFUTtAfG"><path fill="none" stroke="none" d="M 198.5 27.5 L 598.5 27.5 L 598.5 77.5 L 198.5 77.5 L 198.5 27.5"/></clipPath><clipPath id="pUZDkyrkqieE"><path fill="none" stroke="none" d="M 198.5 27.5 L 598.5 27.5 L 598.5 77.5 L 198.5 77.5 L 198.5 27.5"/></clipPath><clipPath id="dvLbTsLQQIFE"><path fill="none" stroke="none" d="M 198.5 27.5 L 598.5 27.5 L 598.5 77.5 L 198.5 77.5 L 198.5 27.5"/></clipPath></defs><path fill="none" stroke="rgb(229,229,229)" paint-order="fill" d="M 198.5 27.5 L 598.5 27.5 L 598.5 77.5 L 198.5 77.5 L 198.5 27.5" stroke-opacity="1" stroke-linejoin="bevel" stroke-miterlimit="10" stroke-dasharray=""/><path fill="none" stroke="rgb(229,229,229)" paint-order="fill" d="M 216.5 77.5 L 216.5 27.5 M 281.5 77.5 L 281.5 27.5 M 345.5 77.5 L 345.5 27.5 M 410.5 77.5 L 410.5 27.5 M 475.5 77.5 L 475.5 27.5 M 539.5 77.5 L 539.5 27.5" stroke-opacity="1" stroke-linejoin="bevel" stroke-miterlimit="10" stroke-dasharray="" clip-path="url(#xXVabmJHZfyl)"/><path fill="none" stroke="rgb(229,229,229)" paint-order="fill" d="M 198.5 71.5 L 598.5 71.5 M 198.5 58.5 L 598.5 58.5 M 198.5 46.5 L 598.5 46.5 M 198.5 33.5 L 598.5 33.5" stroke-opacity="1" stroke-linejoin="bevel" stroke-miterlimit="10" stroke-dasharray="" clip-path="url(#hlhHRFUTtAfG)"/><path fill="none" stroke="none"/><path fill="rgb(78,174,127)" stroke="none" paint-order="stroke" d="M 216.68182373046875 28.75 L 580.3181762695312 28.75 L 580.3181762695312 38.75 L 216.68182373046875 38.75 L 216.68182373046875 28.75" fill-opacity="1" clip-path="url(#pUZDkyrkqieE)"/><path fill="none" stroke="rgb(78,174,127)" paint-order="fill" d="M 216.68182373046875 28.75 L 580.3181762695312 28.75 L 580.3181762695312 38.75 L 216.68182373046875 38.75 L 216.68182373046875 28.75" stroke-opacity="1" stroke-linejoin="bevel" stroke-miterlimit="10" stroke-dasharray="" clip-path="url(#pUZDkyrkqieE)"/><path fill="rgb(86,183,122)" stroke="none" paint-order="stroke" d="M 216.68182373046875 41.25 L 515.8898315429688 41.25 L 515.8898315429688 51.25 L 216.68182373046875 51.25 L 216.68182373046875 41.25" fill-opacity="1" clip-path="url(#pUZDkyrkqieE)"/><path fill="none" stroke="rgb(86,183,122)" paint-order="fill" d="M 216.68182373046875 41.25 L 515.8898315429688 41.25 L 515.8898315429688 51.25 L 216.68182373046875 51.25 L 216.68182373046875 41.25" stroke-opacity="1" stroke-linejoin="bevel" stroke-miterlimit="10" stroke-dasharray="" clip-path="url(#pUZDkyrkqieE)"/><path fill="rgb(73,168,130)" stroke="none" paint-order="stroke" d="M 216.68182373046875 53.75 L 421.5237731933594 53.75 L 421.5237731933594 63.75 L 216.68182373046875 63.75 L 216.68182373046875 53.75" fill-opacity="1" clip-path="url(#pUZDkyrkqieE)"/><path fill="none" stroke="rgb(73,168,130)" paint-order="fill" d="M 216.68182373046875 53.75 L 421.5237731933594 53.75 L 421.5237731933594 63.75 L 216.68182373046875 63.75 L 216.68182373046875 53.75" stroke-opacity="1" stroke-linejoin="bevel" stroke-miterlimit="10" stroke-dasharray="" clip-path="url(#pUZDkyrkqieE)"/><path fill="rgb(72,167,130)" stroke="none" paint-order="stroke" d="M 216.68182373046875 66.25 L 373.8206787109375 66.25 L 373.8206787109375 76.25 L 216.68182373046875 76.25 L 216.68182373046875 66.25" fill-opacity="1" clip-path="url(#pUZDkyrkqieE)"/><path fill="none" stroke="rgb(72,167,130)" paint-order="fill" d="M 216.68182373046875 66.25 L 373.8206787109375 66.25 L 373.8206787109375 76.25 L 216.68182373046875 76.25 L 216.68182373046875 66.25" stroke-opacity="1" stroke-linejoin="bevel" stroke-miterlimit="10" stroke-dasharray="" clip-path="url(#pUZDkyrkqieE)"/><path fill="none" stroke="rgb(0,0,0)" paint-order="fill" d="M 198.5 77.5 L 598.5 77.5" stroke-opacity="1" stroke-linejoin="bevel" stroke-miterlimit="10" stroke-dasharray=""/><path fill="none" stroke="rgb(0,0,0)" paint-order="fill" d="M 216.5 83.5 L 216.5 75.5 M 281.5 83.5 L 281.5 75.5 M 345.5 83.5 L 345.5 75.5 M 410.5 83.5 L 410.5 75.5 M 475.5 83.5 L 475.5 75.5 M 539.5 83.5 L 539.5 75.5" stroke-opacity="1" stroke-linejoin="bevel" stroke-miterlimit="10" stroke-dasharray=""/><path fill="none" stroke="rgb(0,0,0)" paint-order="fill" d="M 203.5 81.5 L 203.5 77.5 M 216.5 81.5 L 216.5 77.5 M 229.5 81.5 L 229.5 77.5 M 242.5 81.5 L 242.5 77.5 M 255.5 81.5 L 255.5 77.5 M 268.5 81.5 L 268.5 77.5 M 281.5 81.5 L 281.5 77.5 M 294.5 81.5 L 294.5 77.5 M 307.5 81.5 L 307.5 77.5 M 320.5 81.5 L 320.5 77.5 M 333.5 81.5 L 333.5 77.5 M 345.5 81.5 L 345.5 77.5 M 358.5 81.5 L 358.5 77.5 M 371.5 81.5 L 371.5 77.5 M 384.5 81.5 L 384.5 77.5 M 397.5 81.5 L 397.5 77.5 M 410.5 81.5 L 410.5 77.5 M 423.5 81.5 L 423.5 77.5 M 436.5 81.5 L 436.5 77.5 M 449.5 81.5 L 449.5 77.5 M 462.5 81.5 L 462.5 77.5 M 475.5 81.5 L 475.5 77.5 M 488.5 81.5 L 488.5 77.5 M 501.5 81.5 L 501.5 77.5 M 514.5 81.5 L 514.5 77.5 M 527.5 81.5 L 527.5 77.5 M 539.5 81.5 L 539.5 77.5 M 552.5 81.5 L 552.5 77.5 M 565.5 81.5 L 565.5 77.5 M 578.5 81.5 L 578.5 77.5 M 591.5 81.5 L 591.5 77.5" stroke-opacity="1" stroke-linejoin="bevel" stroke-miterlimit="10" stroke-dasharray=""/><text fill="rgb(68,68,68)" stroke="none" font-family="helvetica" font-size="11px" font-style="normal" font-weight="normal" text-decoration="normal" x="210.06414794921875" y="91.945068359375" text-anchor="start" dominant-baseline="alphabetic" transform="matrix(0.7071067811865476, -0.7071067811865475, 0.7071067811865475, 0.7071067811865476, 1.5927934569632214, 179.13823678467315)" fill-opacity="1">0</text><text fill="rgb(68,68,68)" stroke="none" font-family="helvetica" font-size="11px" font-style="normal" font-weight="normal" text-decoration="normal" x="259.42919921875" y="91.945068359375" text-anchor="start" dominant-baseline="alphabetic" transform="matrix(0.7071067811865476, -0.7071067811865475, 0.7071067811865475, 0.7071067811865476, 20.530260019787363, 224.85732539763023)" fill-opacity="1">0.01</text><text fill="rgb(68,68,68)" stroke="none" font-family="helvetica" font-size="11px" font-style="normal" font-weight="normal" text-decoration="normal" x="324.08575439453125" y="91.945068359375" text-anchor="start" dominant-baseline="alphabetic" transform="matrix(0.7071067811865476, -0.7071067811865475, 0.7071067811865475, 0.7071067811865476, 39.46772658261153, 270.5764140105873)" fill-opacity="1">0.02</text><text fill="rgb(68,68,68)" stroke="none" font-family="helvetica" font-size="11px" font-style="normal" font-weight="normal" text-decoration="normal" x="388.7422790527344" y="91.945068359375" text-anchor="start" dominant-baseline="alphabetic" transform="matrix(0.7071067811865476, -0.7071067811865475, 0.7071067811865475, 0.7071067811865476, 58.40518420704399, 316.295481044358)" fill-opacity="1">0.03</text><text fill="rgb(68,68,68)" stroke="none" font-family="helvetica" font-size="11px" font-style="normal" font-weight="normal" text-decoration="normal" x="453.3988342285156" y="91.945068359375" text-anchor="start" dominant-baseline="alphabetic" transform="matrix(0.7071067811865476, -0.7071067811865475, 0.7071067811865475, 0.7071067811865476, 77.34265076986816, 362.01456965731506)" fill-opacity="1">0.04</text><text fill="rgb(68,68,68)" stroke="none" font-family="helvetica" font-size="11px" font-style="normal" font-weight="normal" text-decoration="normal" x="518.055419921875" y="91.945068359375" text-anchor="start" dominant-baseline="alphabetic" transform="matrix(0.7071067811865476, -0.7071067811865475, 0.7071067811865475, 0.7071067811865476, 96.28012627108399, 407.7336798494586)" fill-opacity="1">0.05</text><text fill="rgb(68,68,68)" stroke="none" font-family="helvetica" font-size="13px" font-style="italic" font-weight="normal" text-decoration="normal" x="365.484130859375" y="128.71774531498966" text-anchor="start" dominant-baseline="alphabetic" transform="matrix(1, 0, 0, 1, 0.5, 0.5)" fill-opacity="1">Importance</text><path fill="none" stroke="rgb(0,0,0)" paint-order="fill" d="M 198.5 77.5 L 198.5 27.5" stroke-opacity="1" stroke-linejoin="bevel" stroke-miterlimit="10" stroke-dasharray=""/><path fill="none" stroke="rgb(0,0,0)" paint-order="fill" d="M 192.5 71.5 L 200.5 71.5 M 192.5 58.5 L 200.5 58.5 M 192.5 46.5 L 200.5 46.5 M 192.5 33.5 L 200.5 33.5" stroke-opacity="1" stroke-linejoin="bevel" stroke-miterlimit="10" stroke-dasharray=""/><path fill="none" stroke="rgb(0,0,0)" paint-order="fill" d="" stroke-opacity="1" stroke-linejoin="bevel" stroke-miterlimit="10" stroke-dasharray=""/><text fill="rgb(68,68,68)" stroke="none" font-family="helvetica" font-size="11px" font-style="normal" font-weight="normal" text-decoration="normal" x="2.943359375" y="74.25" text-anchor="start" dominant-baseline="alphabetic" transform="matrix(1, 0, 0, 1, 0.5, 0.5)" fill-opacity="1">Actinobacteria Sva0996 marine group</text><text fill="rgb(68,68,68)" stroke="none" font-family="helvetica" font-size="11px" font-style="normal" font-weight="normal" text-decoration="normal" x="51.86328125" y="61.75" text-anchor="start" dominant-baseline="alphabetic" transform="matrix(1, 0, 0, 1, 0.5, 0.5)" fill-opacity="1">Bacteroidetes VC2.1 Bac22</text><text fill="rgb(68,68,68)" stroke="none" font-family="helvetica" font-size="11px" font-style="normal" font-weight="normal" text-decoration="normal" x="18.26171875" y="49.25" text-anchor="start" dominant-baseline="alphabetic" transform="matrix(1, 0, 0, 1, 0.5, 0.5)" fill-opacity="1">Proteobacteria SPOTSOCT00m83</text><text fill="rgb(68,68,68)" stroke="none" font-family="helvetica" font-size="11px" font-style="normal" font-weight="normal" text-decoration="normal" x="24.9755859375" y="36.75" text-anchor="start" dominant-baseline="alphabetic" transform="matrix(1, 0, 0, 1, 0.5, 0.5)" fill-opacity="1">Proteobacteria Altererythrobacter</text><path fill="none" stroke="none"/><text fill="rgb(68,68,68)" stroke="none" font-family="helvetica" font-size="13px" font-style="normal" font-weight="bold" text-decoration="normal" x="0" y="0" text-anchor="start" dominant-baseline="text-after-edge" transform="matrix(1, 0, 0, 1, 198.5, 22.5)" fill-opacity="1">NO2 (µmol/L)</text></svg>