<svg version="1.1" xmlns="http://www.w3.org/2000/svg" xmlns:xlink="http://www.w3.org/1999/xlink" width="601" height="135"><defs><clipPath id="TQwngIeNVkxs"><path fill="none" stroke="none" d="M 196.5 27.5 L 596.5 27.5 L 596.5 77.5 L 196.5 77.5 L 196.5 27.5"/></clipPath><clipPath id="wJSPeVsmsnvw"><path fill="none" stroke="none" d="M 196.5 27.5 L 596.5 27.5 L 596.5 77.5 L 196.5 77.5 L 196.5 27.5"/></clipPath><clipPath id="FQKtLMQfesbJ"><path fill="none" stroke="none" d="M 196.5 27.5 L 596.5 27.5 L 596.5 77.5 L 196.5 77.5 L 196.5 27.5"/></clipPath><clipPath id="kXtmnmQRgpTy"><path fill="none" stroke="none" d="M 196.5 27.5 L 596.5 27.5 L 596.5 77.5 L 196.5 77.5 L 196.5 27.5"/></clipPath></defs><path fill="none" stroke="rgb(229,229,229)" paint-order="fill" d="M 196.5 27.5 L 596.5 27.5 L 596.5 77.5 L 196.5 77.5 L 196.5 27.5" stroke-opacity="1" stroke-linejoin="bevel" stroke-miterlimit="10" stroke-dasharray=""/><path fill="none" stroke="rgb(229,229,229)" paint-order="fill" d="M 214.5 77.5 L 214.5 27.5 M 290.5 77.5 L 290.5 27.5 M 365.5 77.5 L 365.5 27.5 M 440.5 77.5 L 440.5 27.5 M 516.5 77.5 L 516.5 27.5 M 591.5 77.5 L 591.5 27.5" stroke-opacity="1" stroke-linejoin="bevel" stroke-miterlimit="10" stroke-dasharray="" clip-path="url(#TQwngIeNVkxs)"/><path fill="none" stroke="rgb(229,229,229)" paint-order="fill" d="M 196.5 71.5 L 596.5 71.5 M 196.5 58.5 L 596.5 58.5 M 196.5 46.5 L 596.5 46.5 M 196.5 33.5 L 596.5 33.5" stroke-opacity="1" stroke-linejoin="bevel" stroke-miterlimit="10" stroke-dasharray="" clip-path="url(#wJSPeVsmsnvw)"/><path fill="none" stroke="none"/><path fill="rgb(85,182,123)" stroke="none" paint-order="stroke" d="M 214.68182373046875 28.75 L 578.3181762695312 28.75 L 578.3181762695312 38.75 L 214.68182373046875 38.75 L 214.68182373046875 28.75" fill-opacity="1" clip-path="url(#FQKtLMQfesbJ)"/><path fill="none" stroke="rgb(85,182,123)" paint-order="fill" d="M 214.68182373046875 28.75 L 578.3181762695312 28.75 L 578.3181762695312 38.75 L 214.68182373046875 38.75 L 214.68182373046875 28.75" stroke-opacity="1" stroke-linejoin="bevel" stroke-miterlimit="10" stroke-dasharray="" clip-path="url(#FQKtLMQfesbJ)"/><path fill="rgb(82,179,124)" stroke="none" paint-order="stroke" d="M 214.68182373046875 41.25 L 521.2966918945312 41.25 L 521.2966918945312 51.25 L 214.68182373046875 51.25 L 214.68182373046875 41.25" fill-opacity="1" clip-path="url(#FQKtLMQfesbJ)"/><path fill="none" stroke="rgb(82,179,124)" paint-order="fill" d="M 214.68182373046875 41.25 L 521.2966918945312 41.25 L 521.2966918945312 51.25 L 214.68182373046875 51.25 L 214.68182373046875 41.25" stroke-opacity="1" stroke-linejoin="bevel" stroke-miterlimit="10" stroke-dasharray="" clip-path="url(#FQKtLMQfesbJ)"/><path fill="rgb(81,177,125)" stroke="none" paint-order="stroke" d="M 214.68182373046875 53.75 L 485.4626159667969 53.75 L 485.4626159667969 63.75 L 214.68182373046875 63.75 L 214.68182373046875 53.75" fill-opacity="1" clip-path="url(#FQKtLMQfesbJ)"/><path fill="none" stroke="rgb(81,177,125)" paint-order="fill" d="M 214.68182373046875 53.75 L 485.4626159667969 53.75 L 485.4626159667969 63.75 L 214.68182373046875 63.75 L 214.68182373046875 53.75" stroke-opacity="1" stroke-linejoin="bevel" stroke-miterlimit="10" stroke-dasharray="" clip-path="url(#FQKtLMQfesbJ)"/><path fill="rgb(80,176,126)" stroke="none" paint-order="stroke" d="M 214.68182373046875 66.25 L 470.3684387207031 66.25 L 470.3684387207031 76.25 L 214.68182373046875 76.25 L 214.68182373046875 66.25" fill-opacity="1" clip-path="url(#FQKtLMQfesbJ)"/><path fill="none" stroke="rgb(80,176,126)" paint-order="fill" d="M 214.68182373046875 66.25 L 470.3684387207031 66.25 L 470.3684387207031 76.25 L 214.68182373046875 76.25 L 214.68182373046875 66.25" stroke-opacity="1" stroke-linejoin="bevel" stroke-miterlimit="10" stroke-dasharray="" clip-path="url(#FQKtLMQfesbJ)"/><path fill="none" stroke="rgb(0,0,0)" paint-order="fill" d="M 196.5 77.5 L 596.5 77.5" stroke-opacity="1" stroke-linejoin="bevel" stroke-miterlimit="10" stroke-dasharray=""/><path fill="none" stroke="rgb(0,0,0)" paint-order="fill" d="M 214.5 83.5 L 214.5 75.5 M 290.5 83.5 L 290.5 75.5 M 365.5 83.5 L 365.5 75.5 M 440.5 83.5 L 440.5 75.5 M 516.5 83.5 L 516.5 75.5 M 591.5 83.5 L 591.5 75.5" stroke-opacity="1" stroke-linejoin="bevel" stroke-miterlimit="10" stroke-dasharray=""/><path fill="none" stroke="rgb(0,0,0)" paint-order="fill" d="M 199.5 81.5 L 199.5 77.5 M 214.5 81.5 L 214.5 77.5 M 229.5 81.5 L 229.5 77.5 M 244.5 81.5 L 244.5 77.5 M 259.5 81.5 L 259.5 77.5 M 274.5 81.5 L 274.5 77.5 M 290.5 81.5 L 290.5 77.5 M 305.5 81.5 L 305.5 77.5 M 320.5 81.5 L 320.5 77.5 M 335.5 81.5 L 335.5 77.5 M 350.5 81.5 L 350.5 77.5 M 365.5 81.5 L 365.5 77.5 M 380.5 81.5 L 380.5 77.5 M 395.5 81.5 L 395.5 77.5 M 410.5 81.5 L 410.5 77.5 M 425.5 81.5 L 425.5 77.5 M 440.5 81.5 L 440.5 77.5 M 455.5 81.5 L 455.5 77.5 M 470.5 81.5 L 470.5 77.5 M 486.5 81.5 L 486.5 77.5 M 501.5 81.5 L 501.5 77.5 M 516.5 81.5 L 516.5 77.5 M 531.5 81.5 L 531.5 77.5 M 546.5 81.5 L 546.5 77.5 M 561.5 81.5 L 561.5 77.5 M 576.5 81.5 L 576.5 77.5 M 591.5 81.5 L 591.5 77.5" stroke-opacity="1" stroke-linejoin="bevel" stroke-miterlimit="10" stroke-dasharray=""/><text fill="rgb(68,68,68)" stroke="none" font-family="helvetica" font-size="11px" font-style="normal" font-weight="normal" text-decoration="normal" x="208.06414794921875" y="91.945068359375" text-anchor="start" dominant-baseline="alphabetic" transform="matrix(0.7071067811865476, -0.7071067811865475, 0.7071067811865475, 0.7071067811865476, 1.0070070193362994, 177.72402322230005)" fill-opacity="1">0</text><text fill="rgb(68,68,68)" stroke="none" font-family="helvetica" font-size="11px" font-style="normal" font-weight="normal" text-decoration="normal" x="268.15435791015625" y="91.945068359375" text-anchor="start" dominant-baseline="alphabetic" transform="matrix(0.7071067811865476, -0.7071067811865475, 0.7071067811865475, 0.7071067811865476, 23.085799833571514, 231.02694427525233)" fill-opacity="1">0.02</text><text fill="rgb(68,68,68)" stroke="none" font-family="helvetica" font-size="11px" font-style="normal" font-weight="normal" text-decoration="normal" x="343.5361022949219" y="91.945068359375" text-anchor="start" dominant-baseline="alphabetic" transform="matrix(0.7071067811865476, -0.7071067811865475, 0.7071067811865475, 0.7071067811865476, 45.16460158619839, 284.3298869073911)" fill-opacity="1">0.04</text><text fill="rgb(68,68,68)" stroke="none" font-family="helvetica" font-size="11px" font-style="normal" font-weight="normal" text-decoration="normal" x="418.9178161621094" y="91.945068359375" text-anchor="start" dominant-baseline="alphabetic" transform="matrix(0.7071067811865476, -0.7071067811865475, 0.7071067811865475, 0.7071067811865476, 67.2433944004336, 337.63280796034337)" fill-opacity="1">0.06</text><text fill="rgb(68,68,68)" stroke="none" font-family="helvetica" font-size="11px" font-style="normal" font-weight="normal" text-decoration="normal" x="494.299560546875" y="91.945068359375" text-anchor="start" dominant-baseline="alphabetic" transform="matrix(0.7071067811865476, -0.7071067811865475, 0.7071067811865475, 0.7071067811865476, 89.32219615306053, 390.93575059248207)" fill-opacity="1">0.08</text><text fill="rgb(68,68,68)" stroke="none" font-family="helvetica" font-size="11px" font-style="normal" font-weight="normal" text-decoration="normal" x="575.7989501953125" y="91.945068359375" text-anchor="start" dominant-baseline="alphabetic" transform="matrix(0.7071067811865476, -0.7071067811865475, 0.7071067811865475, 0.7071067811865476, 111.40098896729575, 444.23867164543435)" fill-opacity="1">0.1</text><text fill="rgb(68,68,68)" stroke="none" font-family="helvetica" font-size="13px" font-style="italic" font-weight="normal" text-decoration="normal" x="363.484130859375" y="128.71774531498966" text-anchor="start" dominant-baseline="alphabetic" transform="matrix(1, 0, 0, 1, 0.5, 0.5)" fill-opacity="1">Importance</text><path fill="none" stroke="rgb(0,0,0)" paint-order="fill" d="M 196.5 77.5 L 196.5 27.5" stroke-opacity="1" stroke-linejoin="bevel" stroke-miterlimit="10" stroke-dasharray=""/><path fill="none" stroke="rgb(0,0,0)" paint-order="fill" d="M 190.5 71.5 L 198.5 71.5 M 190.5 58.5 L 198.5 58.5 M 190.5 46.5 L 198.5 46.5 M 190.5 33.5 L 198.5 33.5" stroke-opacity="1" stroke-linejoin="bevel" stroke-miterlimit="10" stroke-dasharray=""/><path fill="none" stroke="rgb(0,0,0)" paint-order="fill" d="" stroke-opacity="1" stroke-linejoin="bevel" stroke-miterlimit="10" stroke-dasharray=""/><text fill="rgb(68,68,68)" stroke="none" font-family="helvetica" font-size="11px" font-style="normal" font-weight="normal" text-decoration="normal" x="63.31787109375" y="74.25" text-anchor="start" dominant-baseline="alphabetic" transform="matrix(1, 0, 0, 1, 0.5, 0.5)" fill-opacity="1">Proteobacteria Surface 1</text><text fill="rgb(68,68,68)" stroke="none" font-family="helvetica" font-size="11px" font-style="normal" font-weight="normal" text-decoration="normal" x="48.66552734375" y="61.75" text-anchor="start" dominant-baseline="alphabetic" transform="matrix(1, 0, 0, 1, 0.5, 0.5)" fill-opacity="1">Proteobacteria JL-ETNP-Y6</text><text fill="rgb(68,68,68)" stroke="none" font-family="helvetica" font-size="11px" font-style="normal" font-weight="normal" text-decoration="normal" x="3.39794921875" y="49.25" text-anchor="start" dominant-baseline="alphabetic" transform="matrix(1, 0, 0, 1, 0.5, 0.5)" fill-opacity="1">Proteobacteria ZD0417 marine group</text><text fill="rgb(68,68,68)" stroke="none" font-family="helvetica" font-size="11px" font-style="normal" font-weight="normal" text-decoration="normal" x="55.3740234375" y="36.75" text-anchor="start" dominant-baseline="alphabetic" transform="matrix(1, 0, 0, 1, 0.5, 0.5)" fill-opacity="1">Cyanobacteria Chloroplast</text><path fill="none" stroke="none"/><text fill="rgb(68,68,68)" stroke="none" font-family="helvetica" font-size="13px" font-style="normal" font-weight="bold" text-decoration="normal" x="0" y="0" text-anchor="start" dominant-baseline="text-after-edge" transform="matrix(1, 0, 0, 1, 196.5, 22.5)" fill-opacity="1">PO4 (µmol/L)</text></svg>