<svg version="1.1" xmlns="http://www.w3.org/2000/svg" xmlns:xlink="http://www.w3.org/1999/xlink" width="646" height="135"><defs><clipPath id="FiOPJkiMMLrC"><path fill="none" stroke="none" d="M 241.5 27.5 L 641.5 27.5 L 641.5 77.5 L 241.5 77.5 L 241.5 27.5"/></clipPath><clipPath id="zNkmeAoGczbs"><path fill="none" stroke="none" d="M 241.5 27.5 L 641.5 27.5 L 641.5 77.5 L 241.5 77.5 L 241.5 27.5"/></clipPath><clipPath id="JtbXlofOdpBG"><path fill="none" stroke="none" d="M 241.5 27.5 L 641.5 27.5 L 641.5 77.5 L 241.5 77.5 L 241.5 27.5"/></clipPath><clipPath id="TVpcSpPgdaAk"><path fill="none" stroke="none" d="M 241.5 27.5 L 641.5 27.5 L 641.5 77.5 L 241.5 77.5 L 241.5 27.5"/></clipPath></defs><path fill="none" stroke="rgb(229,229,229)" paint-order="fill" d="M 241.5 27.5 L 641.5 27.5 L 641.5 77.5 L 241.5 77.5 L 241.5 27.5" stroke-opacity="1" stroke-linejoin="bevel" stroke-miterlimit="10" stroke-dasharray=""/><path fill="none" stroke="rgb(229,229,229)" paint-order="fill" d="M 259.5 77.5 L 259.5 27.5 M 335.5 77.5 L 335.5 27.5 M 410.5 77.5 L 410.5 27.5 M 485.5 77.5 L 485.5 27.5 M 561.5 77.5 L 561.5 27.5 M 636.5 77.5 L 636.5 27.5" stroke-opacity="1" stroke-linejoin="bevel" stroke-miterlimit="10" stroke-dasharray="" clip-path="url(#FiOPJkiMMLrC)"/><path fill="none" stroke="rgb(229,229,229)" paint-order="fill" d="M 241.5 71.5 L 641.5 71.5 M 241.5 58.5 L 641.5 58.5 M 241.5 46.5 L 641.5 46.5 M 241.5 33.5 L 641.5 33.5" stroke-opacity="1" stroke-linejoin="bevel" stroke-miterlimit="10" stroke-dasharray="" clip-path="url(#zNkmeAoGczbs)"/><path fill="none" stroke="none"/><path fill="rgb(124,204,102)" stroke="none" paint-order="stroke" d="M 259.68182373046875 28.75 L 623.3181762695312 28.75 L 623.3181762695312 38.75 L 259.68182373046875 38.75 L 259.68182373046875 28.75" fill-opacity="1" clip-path="url(#JtbXlofOdpBG)"/><path fill="none" stroke="rgb(124,204,102)" paint-order="fill" d="M 259.68182373046875 28.75 L 623.3181762695312 28.75 L 623.3181762695312 38.75 L 259.68182373046875 38.75 L 259.68182373046875 28.75" stroke-opacity="1" stroke-linejoin="bevel" stroke-miterlimit="10" stroke-dasharray="" clip-path="url(#JtbXlofOdpBG)"/><path fill="rgb(91,186,119)" stroke="none" paint-order="stroke" d="M 259.68182373046875 41.25 L 438.3650817871094 41.25 L 438.3650817871094 51.25 L 259.68182373046875 51.25 L 259.68182373046875 41.25" fill-opacity="1" clip-path="url(#JtbXlofOdpBG)"/><path fill="none" stroke="rgb(91,186,119)" paint-order="fill" d="M 259.68182373046875 41.25 L 438.3650817871094 41.25 L 438.3650817871094 51.25 L 259.68182373046875 51.25 L 259.68182373046875 41.25" stroke-opacity="1" stroke-linejoin="bevel" stroke-miterlimit="10" stroke-dasharray="" clip-path="url(#JtbXlofOdpBG)"/><path fill="rgb(79,175,126)" stroke="none" paint-order="stroke" d="M 259.68182373046875 53.75 L 360.5110778808594 53.75 L 360.5110778808594 63.75 L 259.68182373046875 63.75 L 259.68182373046875 53.75" fill-opacity="1" clip-path="url(#JtbXlofOdpBG)"/><path fill="none" stroke="rgb(79,175,126)" paint-order="fill" d="M 259.68182373046875 53.75 L 360.5110778808594 53.75 L 360.5110778808594 63.75 L 259.68182373046875 63.75 L 259.68182373046875 53.75" stroke-opacity="1" stroke-linejoin="bevel" stroke-miterlimit="10" stroke-dasharray="" clip-path="url(#JtbXlofOdpBG)"/><path fill="rgb(76,172,128)" stroke="none" paint-order="stroke" d="M 259.68182373046875 66.25 L 335.0558166503906 66.25 L 335.0558166503906 76.25 L 259.68182373046875 76.25 L 259.68182373046875 66.25" fill-opacity="1" clip-path="url(#JtbXlofOdpBG)"/><path fill="none" stroke="rgb(76,172,128)" paint-order="fill" d="M 259.68182373046875 66.25 L 335.0558166503906 66.25 L 335.0558166503906 76.25 L 259.68182373046875 76.25 L 259.68182373046875 66.25" stroke-opacity="1" stroke-linejoin="bevel" stroke-miterlimit="10" stroke-dasharray="" clip-path="url(#JtbXlofOdpBG)"/><path fill="none" stroke="rgb(0,0,0)" paint-order="fill" d="M 241.5 77.5 L 641.5 77.5" stroke-opacity="1" stroke-linejoin="bevel" stroke-miterlimit="10" stroke-dasharray=""/><path fill="none" stroke="rgb(0,0,0)" paint-order="fill" d="M 259.5 83.5 L 259.5 75.5 M 335.5 83.5 L 335.5 75.5 M 410.5 83.5 L 410.5 75.5 M 485.5 83.5 L 485.5 75.5 M 561.5 83.5 L 561.5 75.5 M 636.5 83.5 L 636.5 75.5" stroke-opacity="1" stroke-linejoin="bevel" stroke-miterlimit="10" stroke-dasharray=""/><path fill="none" stroke="rgb(0,0,0)" paint-order="fill" d="M 244.5 81.5 L 244.5 77.5 M 259.5 81.5 L 259.5 77.5 M 274.5 81.5 L 274.5 77.5 M 289.5 81.5 L 289.5 77.5 M 304.5 81.5 L 304.5 77.5 M 320.5 81.5 L 320.5 77.5 M 335.5 81.5 L 335.5 77.5 M 350.5 81.5 L 350.5 77.5 M 365.5 81.5 L 365.5 77.5 M 380.5 81.5 L 380.5 77.5 M 395.5 81.5 L 395.5 77.5 M 410.5 81.5 L 410.5 77.5 M 425.5 81.5 L 425.5 77.5 M 440.5 81.5 L 440.5 77.5 M 455.5 81.5 L 455.5 77.5 M 470.5 81.5 L 470.5 77.5 M 485.5 81.5 L 485.5 77.5 M 500.5 81.5 L 500.5 77.5 M 516.5 81.5 L 516.5 77.5 M 531.5 81.5 L 531.5 77.5 M 546.5 81.5 L 546.5 77.5 M 561.5 81.5 L 561.5 77.5 M 576.5 81.5 L 576.5 77.5 M 591.5 81.5 L 591.5 77.5 M 606.5 81.5 L 606.5 77.5 M 621.5 81.5 L 621.5 77.5 M 636.5 81.5 L 636.5 77.5" stroke-opacity="1" stroke-linejoin="bevel" stroke-miterlimit="10" stroke-dasharray=""/><text fill="rgb(68,68,68)" stroke="none" font-family="helvetica" font-size="11px" font-style="normal" font-weight="normal" text-decoration="normal" x="253.06414794921875" y="91.945068359375" text-anchor="start" dominant-baseline="alphabetic" transform="matrix(0.7071067811865476, -0.7071067811865475, 0.7071067811865475, 0.7071067811865476, 14.18720186594166, 209.54382837569472)" fill-opacity="1">0</text><text fill="rgb(68,68,68)" stroke="none" font-family="helvetica" font-size="11px" font-style="normal" font-weight="normal" text-decoration="normal" x="313.1716613769531" y="91.945068359375" text-anchor="start" dominant-baseline="alphabetic" transform="matrix(0.7071067811865476, -0.7071067811865475, 0.7071067811865475, 0.7071067811865476, 36.2710627482636, 262.85898482735706)" fill-opacity="1">0.05</text><text fill="rgb(68,68,68)" stroke="none" font-family="helvetica" font-size="11px" font-style="normal" font-weight="normal" text-decoration="normal" x="394.6883544921875" y="91.945068359375" text-anchor="start" dominant-baseline="alphabetic" transform="matrix(0.7071067811865476, -0.7071067811865475, 0.7071067811865475, 0.7071067811865476, 58.35492363058563, 316.17414127901947)" fill-opacity="1">0.1</text><text fill="rgb(68,68,68)" stroke="none" font-family="helvetica" font-size="11px" font-style="normal" font-weight="normal" text-decoration="normal" x="463.9696960449219" y="91.945068359375" text-anchor="start" dominant-baseline="alphabetic" transform="matrix(0.7071067811865476, -0.7071067811865475, 0.7071067811865475, 0.7071067811865476, 80.4387845129076, 369.48929773068187)" fill-opacity="1">0.15</text><text fill="rgb(68,68,68)" stroke="none" font-family="helvetica" font-size="11px" font-style="normal" font-weight="normal" text-decoration="normal" x="545.4863891601562" y="91.945068359375" text-anchor="start" dominant-baseline="alphabetic" transform="matrix(0.7071067811865476, -0.7071067811865475, 0.7071067811865475, 0.7071067811865476, 102.52264539522957, 422.8044541823443)" fill-opacity="1">0.2</text><text fill="rgb(68,68,68)" stroke="none" font-family="helvetica" font-size="11px" font-style="normal" font-weight="normal" text-decoration="normal" x="614.7677612304688" y="91.945068359375" text-anchor="start" dominant-baseline="alphabetic" transform="matrix(0.7071067811865476, -0.7071067811865475, 0.7071067811865475, 0.7071067811865476, 124.60651521594332, 476.1196322131931)" fill-opacity="1">0.25</text><text fill="rgb(68,68,68)" stroke="none" font-family="helvetica" font-size="13px" font-style="italic" font-weight="normal" text-decoration="normal" x="408.484130859375" y="128.71774531498966" text-anchor="start" dominant-baseline="alphabetic" transform="matrix(1, 0, 0, 1, 0.5, 0.5)" fill-opacity="1">Importance</text><path fill="none" stroke="rgb(0,0,0)" paint-order="fill" d="M 241.5 77.5 L 241.5 27.5" stroke-opacity="1" stroke-linejoin="bevel" stroke-miterlimit="10" stroke-dasharray=""/><path fill="none" stroke="rgb(0,0,0)" paint-order="fill" d="M 235.5 71.5 L 243.5 71.5 M 235.5 58.5 L 243.5 58.5 M 235.5 46.5 L 243.5 46.5 M 235.5 33.5 L 243.5 33.5" stroke-opacity="1" stroke-linejoin="bevel" stroke-miterlimit="10" stroke-dasharray=""/><path fill="none" stroke="rgb(0,0,0)" paint-order="fill" d="" stroke-opacity="1" stroke-linejoin="bevel" stroke-miterlimit="10" stroke-dasharray=""/><text fill="rgb(68,68,68)" stroke="none" font-family="helvetica" font-size="11px" font-style="normal" font-weight="normal" text-decoration="normal" x="48.39794921875" y="74.25" text-anchor="start" dominant-baseline="alphabetic" transform="matrix(1, 0, 0, 1, 0.5, 0.5)" fill-opacity="1">Proteobacteria ZD0417 marine group</text><text fill="rgb(68,68,68)" stroke="none" font-family="helvetica" font-size="11px" font-style="normal" font-weight="normal" text-decoration="normal" x="70.4140625" y="61.75" text-anchor="start" dominant-baseline="alphabetic" transform="matrix(1, 0, 0, 1, 0.5, 0.5)" fill-opacity="1">Bacteroidetes NS9 marine group</text><text fill="rgb(68,68,68)" stroke="none" font-family="helvetica" font-size="11px" font-style="normal" font-weight="normal" text-decoration="normal" x="2.544921875" y="49.25" text-anchor="start" dominant-baseline="alphabetic" transform="matrix(1, 0, 0, 1, 0.5, 0.5)" fill-opacity="1">Proteobacteria SAR324 clade(Marine group B)</text><text fill="rgb(68,68,68)" stroke="none" font-family="helvetica" font-size="11px" font-style="normal" font-weight="normal" text-decoration="normal" x="2.544921875" y="36.75" text-anchor="start" dominant-baseline="alphabetic" transform="matrix(1, 0, 0, 1, 0.5, 0.5)" fill-opacity="1">Proteobacteria SAR324 clade(Marine group B)</text><path fill="none" stroke="none"/><text fill="rgb(68,68,68)" stroke="none" font-family="helvetica" font-size="13px" font-style="normal" font-weight="bold" text-decoration="normal" x="0" y="0" text-anchor="start" dominant-baseline="text-after-edge" transform="matrix(1, 0, 0, 1, 241.5, 22.5)" fill-opacity="1">Oxygen (µmol/kg)</text></svg>