<svg version="1.1" xmlns="http://www.w3.org/2000/svg" xmlns:xlink="http://www.w3.org/1999/xlink" width="613" height="139"><defs><clipPath id="PpsTzqvoNIrN"><path fill="none" stroke="none" d="M 208.5 27.5 L 608.5 27.5 L 608.5 77.5 L 208.5 77.5 L 208.5 27.5"/></clipPath><clipPath id="nOsTXEwIyULl"><path fill="none" stroke="none" d="M 208.5 27.5 L 608.5 27.5 L 608.5 77.5 L 208.5 77.5 L 208.5 27.5"/></clipPath><clipPath id="MhPcplnaNHUu"><path fill="none" stroke="none" d="M 208.5 27.5 L 608.5 27.5 L 608.5 77.5 L 208.5 77.5 L 208.5 27.5"/></clipPath><clipPath id="XyfPrIyhzwVm"><path fill="none" stroke="none" d="M 208.5 27.5 L 608.5 27.5 L 608.5 77.5 L 208.5 77.5 L 208.5 27.5"/></clipPath></defs><path fill="none" stroke="rgb(229,229,229)" paint-order="fill" d="M 208.5 27.5 L 608.5 27.5 L 608.5 77.5 L 208.5 77.5 L 208.5 27.5" stroke-opacity="1" stroke-linejoin="bevel" stroke-miterlimit="10" stroke-dasharray=""/><path fill="none" stroke="rgb(229,229,229)" paint-order="fill" d="M 226.5 77.5 L 226.5 27.5 M 326.5 77.5 L 326.5 27.5 M 425.5 77.5 L 425.5 27.5 M 524.5 77.5 L 524.5 27.5" stroke-opacity="1" stroke-linejoin="bevel" stroke-miterlimit="10" stroke-dasharray="" clip-path="url(#PpsTzqvoNIrN)"/><path fill="none" stroke="rgb(229,229,229)" paint-order="fill" d="M 208.5 71.5 L 608.5 71.5 M 208.5 58.5 L 608.5 58.5 M 208.5 46.5 L 608.5 46.5 M 208.5 33.5 L 608.5 33.5" stroke-opacity="1" stroke-linejoin="bevel" stroke-miterlimit="10" stroke-dasharray="" clip-path="url(#nOsTXEwIyULl)"/><path fill="none" stroke="none"/><path fill="rgb(76,172,128)" stroke="none" paint-order="stroke" d="M 226.68182373046875 28.75 L 590.3181762695312 28.75 L 590.3181762695312 38.75 L 226.68182373046875 38.75 L 226.68182373046875 28.75" fill-opacity="1" clip-path="url(#MhPcplnaNHUu)"/><path fill="none" stroke="rgb(76,172,128)" paint-order="fill" d="M 226.68182373046875 28.75 L 590.3181762695312 28.75 L 590.3181762695312 38.75 L 226.68182373046875 38.75 L 226.68182373046875 28.75" stroke-opacity="1" stroke-linejoin="bevel" stroke-miterlimit="10" stroke-dasharray="" clip-path="url(#MhPcplnaNHUu)"/><path fill="rgb(76,172,128)" stroke="none" paint-order="stroke" d="M 226.68182373046875 41.25 L 548.640625 41.25 L 548.640625 51.25 L 226.68182373046875 51.25 L 226.68182373046875 41.25" fill-opacity="1" clip-path="url(#MhPcplnaNHUu)"/><path fill="none" stroke="rgb(76,172,128)" paint-order="fill" d="M 226.68182373046875 41.25 L 548.640625 41.25 L 548.640625 51.25 L 226.68182373046875 51.25 L 226.68182373046875 41.25" stroke-opacity="1" stroke-linejoin="bevel" stroke-miterlimit="10" stroke-dasharray="" clip-path="url(#MhPcplnaNHUu)"/><path fill="rgb(75,171,129)" stroke="none" paint-order="stroke" d="M 226.68182373046875 53.75 L 535.9521484375 53.75 L 535.9521484375 63.75 L 226.68182373046875 63.75 L 226.68182373046875 53.75" fill-opacity="1" clip-path="url(#MhPcplnaNHUu)"/><path fill="none" stroke="rgb(75,171,129)" paint-order="fill" d="M 226.68182373046875 53.75 L 535.9521484375 53.75 L 535.9521484375 63.75 L 226.68182373046875 63.75 L 226.68182373046875 53.75" stroke-opacity="1" stroke-linejoin="bevel" stroke-miterlimit="10" stroke-dasharray="" clip-path="url(#MhPcplnaNHUu)"/><path fill="rgb(74,169,129)" stroke="none" paint-order="stroke" d="M 226.68182373046875 66.25 L 521.8927001953125 66.25 L 521.8927001953125 76.25 L 226.68182373046875 76.25 L 226.68182373046875 66.25" fill-opacity="1" clip-path="url(#MhPcplnaNHUu)"/><path fill="none" stroke="rgb(74,169,129)" paint-order="fill" d="M 226.68182373046875 66.25 L 521.8927001953125 66.25 L 521.8927001953125 76.25 L 226.68182373046875 76.25 L 226.68182373046875 66.25" stroke-opacity="1" stroke-linejoin="bevel" stroke-miterlimit="10" stroke-dasharray="" clip-path="url(#MhPcplnaNHUu)"/><path fill="none" stroke="rgb(0,0,0)" paint-order="fill" d="M 208.5 77.5 L 608.5 77.5" stroke-opacity="1" stroke-linejoin="bevel" stroke-miterlimit="10" stroke-dasharray=""/><path fill="none" stroke="rgb(0,0,0)" paint-order="fill" d="M 226.5 83.5 L 226.5 75.5 M 326.5 83.5 L 326.5 75.5 M 425.5 83.5 L 425.5 75.5 M 524.5 83.5 L 524.5 75.5" stroke-opacity="1" stroke-linejoin="bevel" stroke-miterlimit="10" stroke-dasharray=""/><path fill="none" stroke="rgb(0,0,0)" paint-order="fill" d="M 226.5 81.5 L 226.5 77.5 M 246.5 81.5 L 246.5 77.5 M 266.5 81.5 L 266.5 77.5 M 286.5 81.5 L 286.5 77.5 M 306.5 81.5 L 306.5 77.5 M 326.5 81.5 L 326.5 77.5 M 345.5 81.5 L 345.5 77.5 M 365.5 81.5 L 365.5 77.5 M 385.5 81.5 L 385.5 77.5 M 405.5 81.5 L 405.5 77.5 M 425.5 81.5 L 425.5 77.5 M 445.5 81.5 L 445.5 77.5 M 465.5 81.5 L 465.5 77.5 M 484.5 81.5 L 484.5 77.5 M 504.5 81.5 L 504.5 77.5 M 524.5 81.5 L 524.5 77.5 M 544.5 81.5 L 544.5 77.5 M 564.5 81.5 L 564.5 77.5 M 584.5 81.5 L 584.5 77.5 M 604.5 81.5 L 604.5 77.5" stroke-opacity="1" stroke-linejoin="bevel" stroke-miterlimit="10" stroke-dasharray=""/><text fill="rgb(68,68,68)" stroke="none" font-family="helvetica" font-size="11px" font-style="normal" font-weight="normal" text-decoration="normal" x="220.06414794921875" y="91.945068359375" text-anchor="start" dominant-baseline="alphabetic" transform="matrix(0.7071067811865476, -0.7071067811865475, 0.7071067811865475, 0.7071067811865476, 4.521725645097746, 186.20930459653863)" fill-opacity="1">0</text><text fill="rgb(68,68,68)" stroke="none" font-family="helvetica" font-size="11px" font-style="normal" font-weight="normal" text-decoration="normal" x="297.9817810058594" y="91.945068359375" text-anchor="start" dominant-baseline="alphabetic" transform="matrix(0.7071067811865476, -0.7071067811865475, 0.7071067811865475, 0.7071067811865476, 33.613875544210146, 256.4439674415668)" fill-opacity="1">0.002</text><text fill="rgb(68,68,68)" stroke="none" font-family="helvetica" font-size="11px" font-style="normal" font-weight="normal" text-decoration="normal" x="397.30859375" y="91.945068359375" text-anchor="start" dominant-baseline="alphabetic" transform="matrix(0.7071067811865476, -0.7071067811865475, 0.7071067811865475, 0.7071067811865476, 62.70602544332252, 326.6786302865951)" fill-opacity="1">0.004</text><text fill="rgb(68,68,68)" stroke="none" font-family="helvetica" font-size="11px" font-style="normal" font-weight="normal" text-decoration="normal" x="496.6353759765625" y="91.945068359375" text-anchor="start" dominant-baseline="alphabetic" transform="matrix(0.7071067811865476, -0.7071067811865475, 0.7071067811865475, 0.7071067811865476, 91.79816640404323, 396.91327155243687)" fill-opacity="1">0.006</text><text fill="rgb(68,68,68)" stroke="none" font-family="helvetica" font-size="13px" font-style="italic" font-weight="normal" text-decoration="normal" x="375.484130859375" y="133.04359534501222" text-anchor="start" dominant-baseline="alphabetic" transform="matrix(1, 0, 0, 1, 0.5, 0.5)" fill-opacity="1">Importance</text><path fill="none" stroke="rgb(0,0,0)" paint-order="fill" d="M 208.5 77.5 L 208.5 27.5" stroke-opacity="1" stroke-linejoin="bevel" stroke-miterlimit="10" stroke-dasharray=""/><path fill="none" stroke="rgb(0,0,0)" paint-order="fill" d="M 202.5 71.5 L 210.5 71.5 M 202.5 58.5 L 210.5 58.5 M 202.5 46.5 L 210.5 46.5 M 202.5 33.5 L 210.5 33.5" stroke-opacity="1" stroke-linejoin="bevel" stroke-miterlimit="10" stroke-dasharray=""/><path fill="none" stroke="rgb(0,0,0)" paint-order="fill" d="" stroke-opacity="1" stroke-linejoin="bevel" stroke-miterlimit="10" stroke-dasharray=""/><text fill="rgb(68,68,68)" stroke="none" font-family="helvetica" font-size="11px" font-style="normal" font-weight="normal" text-decoration="normal" x="3.1787109375" y="74.25" text-anchor="start" dominant-baseline="alphabetic" transform="matrix(1, 0, 0, 1, 0.5, 0.5)" fill-opacity="1">Carbohydrate metabolism and transport</text><text fill="rgb(68,68,68)" stroke="none" font-family="helvetica" font-size="11px" font-style="normal" font-weight="normal" text-decoration="normal" x="89.99169921875" y="61.75" text-anchor="start" dominant-baseline="alphabetic" transform="matrix(1, 0, 0, 1, 0.5, 0.5)" fill-opacity="1">Replication and repair</text><text fill="rgb(68,68,68)" stroke="none" font-family="helvetica" font-size="11px" font-style="normal" font-weight="normal" text-decoration="normal" x="17.8525390625" y="49.25" text-anchor="start" dominant-baseline="alphabetic" transform="matrix(1, 0, 0, 1, 0.5, 0.5)" fill-opacity="1">Nucleotide metabolism and transport</text><text fill="rgb(68,68,68)" stroke="none" font-family="helvetica" font-size="11px" font-style="normal" font-weight="normal" text-decoration="normal" x="30.06103515625" y="36.75" text-anchor="start" dominant-baseline="alphabetic" transform="matrix(1, 0, 0, 1, 0.5, 0.5)" fill-opacity="1">Energy production and conversion</text><path fill="none" stroke="none"/><text fill="rgb(68,68,68)" stroke="none" font-family="helvetica" font-size="13px" font-style="normal" font-weight="bold" text-decoration="normal" x="0" y="0" text-anchor="start" dominant-baseline="text-after-edge" transform="matrix(1, 0, 0, 1, 208.5, 22.5)" fill-opacity="1">Region</text></svg>