<svg version="1.1" xmlns="http://www.w3.org/2000/svg" xmlns:xlink="http://www.w3.org/1999/xlink" width="162" height="90"><defs><clipPath id="kBAsTDZtBpzD"><path fill="none" stroke="none" d="M 5.5 5.5 L 5.5 5.5 L 5.5 85.5 L 5.5 85.5 L 5.5 5.5"/></clipPath><clipPath id="zslCqmgJvmnE"><path fill="none" stroke="none" d="M 5.5 5.5 L 5.5 5.5 L 5.5 85.5 L 5.5 85.5 L 5.5 5.5"/></clipPath><clipPath id="ciuCMGvfwgpJ"><path fill="none" stroke="none" d="M 5.5 5.5 L 5.5 5.5 L 5.5 85.5 L 5.5 85.5 L 5.5 5.5"/></clipPath><clipPath id="dzdSBFkvxlId"><path fill="none" stroke="none" d="M 5.5 5.5 L 5.5 5.5 L 5.5 85.5 L 5.5 85.5 L 5.5 5.5"/></clipPath><clipPath id="IoxwocTkIcKI"><path fill="none" stroke="none" d="M 5.5 5.5 L 5.5 5.5 L 5.5 85.5 L 5.5 85.5 L 5.5 5.5"/></clipPath></defs><path fill="rgb(255,255,255)" stroke="none" paint-order="stroke" d="M 0.5 0.5 L 162.5 0.5 L 162.5 90.5 L 0.5 90.5 L 0.5 0.5" fill-opacity="1"/><rect fill="#FFFFFF" stroke="none" x="5" y="5" width="0" height="80" transform="matrix(1, 0, 0, 1, 0.5, 0.5)"/><path fill="rgb(255,255,255)" stroke="none" paint-order="stroke" d="M 5.5 5.5 L 5.5 5.5 L 5.5 85.5 L 5.5 85.5 L 5.5 5.5" fill-opacity="1"/><path fill="none" stroke="rgb(229,229,229)" paint-order="fill" d="M 5.5 5.5 L 5.5 5.5 L 5.5 85.5 L 5.5 85.5 L 5.5 5.5" stroke-opacity="1" stroke-linejoin="bevel" stroke-miterlimit="10" stroke-dasharray=""/><path fill="none" stroke="rgb(229,229,229)" paint-order="fill" d="M 5.5 85.5 L 5.5 5.5 M 5.5 85.5 L 5.5 5.5 M 5.5 85.5 L 5.5 5.5" stroke-opacity="1" stroke-linejoin="bevel" stroke-miterlimit="10" stroke-dasharray="" clip-path="url(#kBAsTDZtBpzD)"/><path fill="none" stroke="rgb(229,229,229)" paint-order="fill" d="M 5.5 65.5 L 5.5 65.5 M 5.5 45.5 L 5.5 45.5 M 5.5 25.5 L 5.5 25.5" stroke-opacity="1" stroke-linejoin="bevel" stroke-miterlimit="10" stroke-dasharray="" clip-path="url(#zslCqmgJvmnE)"/><path fill="none" stroke="none"/><path fill="rgb(31,119,180)" stroke="rgb(31,119,180)" paint-order="fill" d="M 7.5 45.5 A 2 2 0 1 1 7.499999000000083 45.498000000333334" fill-opacity="1" clip-path="url(#ciuCMGvfwgpJ)" stroke-opacity="1" stroke-linejoin="bevel" stroke-miterlimit="10" stroke-dasharray=""/><path fill="none" stroke="none"/><path fill="rgb(255,165,0)" stroke="rgb(255,165,0)" paint-order="fill" d="M 7.5 45.5 A 2 2 0 1 1 7.499999000000083 45.498000000333334" fill-opacity="1" clip-path="url(#dzdSBFkvxlId)" stroke-opacity="1" stroke-linejoin="bevel" stroke-miterlimit="10" stroke-dasharray=""/><path fill="rgb(255,255,255)" stroke="rgb(229,229,229)" paint-order="fill" d="M 15.35009765625 15.5 L 122.5 15.5 L 122.5 78.5 L 15.35009765625 78.5 L 15.35009765625 15.5" fill-opacity="0.9490196078431372" stroke-opacity="0.5019607843137255" stroke-linejoin="bevel" stroke-miterlimit="10" stroke-dasharray=""/><text fill="rgb(68,68,68)" stroke="none" font-family="helvetica" font-size="13px" font-style="normal" font-weight="normal" text-decoration="normal" x="49.85009765625" y="35" text-anchor="start" dominant-baseline="central" transform="matrix(1, 0, 0, 1, 0.5, 0.5)" fill-opacity="1">Primary</text><path fill="rgb(31,119,180)" stroke="rgb(31,119,180)" paint-order="fill" d="M 39.35009765625 35.5 A 4 4 0 1 1 39.35009565625017 35.49600000066666" fill-opacity="1" stroke-opacity="1" stroke-linejoin="bevel" stroke-miterlimit="10" stroke-dasharray=""/><text fill="rgb(68,68,68)" stroke="none" font-family="helvetica" font-size="13px" font-style="normal" font-weight="normal" text-decoration="normal" x="49.85009765625" y="58" text-anchor="start" dominant-baseline="central" transform="matrix(1, 0, 0, 1, 0.5, 0.5)" fill-opacity="1">Secondary</text><path fill="rgb(255,165,0)" stroke="rgb(255,165,0)" paint-order="fill" d="M 39.35009765625 58.5 A 4 4 0 1 1 39.35009565625017 58.49600000066666" fill-opacity="1" stroke-opacity="1" stroke-linejoin="bevel" stroke-miterlimit="10" stroke-dasharray=""/></svg>