<svg version="1.1" xmlns="http://www.w3.org/2000/svg" xmlns:xlink="http://www.w3.org/1999/xlink" width="161" height="150"><defs><clipPath id="UhbkbIHkgsMW"><path fill="none" stroke="none" d="M 5.5 5.5 L 5.5 5.5 L 5.5 145.5 L 5.5 145.5 L 5.5 5.5"/></clipPath><clipPath id="elFoOXtTPLXp"><path fill="none" stroke="none" d="M 5.5 5.5 L 5.5 5.5 L 5.5 145.5 L 5.5 145.5 L 5.5 5.5"/></clipPath><clipPath id="HOXUBUaziiEL"><path fill="none" stroke="none" d="M 5.5 5.5 L 5.5 5.5 L 5.5 145.5 L 5.5 145.5 L 5.5 5.5"/></clipPath><clipPath id="CunkNBmSyqQX"><path fill="none" stroke="none" d="M 5.5 5.5 L 5.5 5.5 L 5.5 145.5 L 5.5 145.5 L 5.5 5.5"/></clipPath><clipPath id="nLBROOKUvoBD"><path fill="none" stroke="none" d="M 5.5 5.5 L 5.5 5.5 L 5.5 145.5 L 5.5 145.5 L 5.5 5.5"/></clipPath><clipPath id="yUvyxpRQNXSv"><path fill="none" stroke="none" d="M 5.5 5.5 L 5.5 5.5 L 5.5 145.5 L 5.5 145.5 L 5.5 5.5"/></clipPath><clipPath id="NtMdIZCqheCw"><path fill="none" stroke="none" d="M 5.5 5.5 L 5.5 5.5 L 5.5 145.5 L 5.5 145.5 L 5.5 5.5"/></clipPath><clipPath id="gcACCbggFUew"><path fill="none" stroke="none" d="M 5.5 5.5 L 5.5 5.5 L 5.5 145.5 L 5.5 145.5 L 5.5 5.5"/></clipPath></defs><path fill="rgb(255,255,255)" stroke="none" paint-order="stroke" d="M 0.5 0.5 L 161.5 0.5 L 161.5 150.5 L 0.5 150.5 L 0.5 0.5" fill-opacity="1"/><rect fill="#FFFFFF" stroke="none" x="5" y="5" width="0" height="140" transform="matrix(1, 0, 0, 1, 0.5, 0.5)"/><path fill="rgb(255,255,255)" stroke="none" paint-order="stroke" d="M 5.5 5.5 L 5.5 5.5 L 5.5 145.5 L 5.5 145.5 L 5.5 5.5" fill-opacity="1"/><path fill="none" stroke="rgb(229,229,229)" paint-order="fill" d="M 5.5 5.5 L 5.5 5.5 L 5.5 145.5 L 5.5 145.5 L 5.5 5.5" stroke-opacity="1" stroke-linejoin="bevel" stroke-miterlimit="10" stroke-dasharray=""/><path fill="none" stroke="rgb(229,229,229)" paint-order="fill" d="M 5.5 145.5 L 5.5 5.5 M 5.5 145.5 L 5.5 5.5 M 5.5 145.5 L 5.5 5.5" stroke-opacity="1" stroke-linejoin="bevel" stroke-miterlimit="10" stroke-dasharray="" clip-path="url(#UhbkbIHkgsMW)"/><path fill="none" stroke="rgb(229,229,229)" paint-order="fill" d="M 5.5 110.5 L 5.5 110.5 M 5.5 75.5 L 5.5 75.5 M 5.5 40.5 L 5.5 40.5" stroke-opacity="1" stroke-linejoin="bevel" stroke-miterlimit="10" stroke-dasharray="" clip-path="url(#elFoOXtTPLXp)"/><path fill="none" stroke="none"/><path fill="rgb(202,235,178)" stroke="rgb(202,235,178)" paint-order="fill" d="M 7.5 75.5 A 2 2 0 1 1 7.499999000000083 75.49800000033333" fill-opacity="1" clip-path="url(#HOXUBUaziiEL)" stroke-opacity="1" stroke-linejoin="bevel" stroke-miterlimit="10" stroke-dasharray=""/><path fill="none" stroke="none"/><path fill="rgb(95,188,164)" stroke="rgb(95,188,164)" paint-order="fill" d="M 7.5 75.5 A 2 2 0 1 1 7.499999000000083 75.49800000033333" fill-opacity="1" clip-path="url(#CunkNBmSyqQX)" stroke-opacity="1" stroke-linejoin="bevel" stroke-miterlimit="10" stroke-dasharray=""/><path fill="none" stroke="none"/><path fill="rgb(68,130,155)" stroke="rgb(68,130,155)" paint-order="fill" d="M 7.5 75.5 A 2 2 0 1 1 7.499999000000083 75.49800000033333" fill-opacity="1" clip-path="url(#nLBROOKUvoBD)" stroke-opacity="1" stroke-linejoin="bevel" stroke-miterlimit="10" stroke-dasharray=""/><path fill="none" stroke="none"/><path fill="rgb(65,70,132)" stroke="rgb(65,70,132)" paint-order="fill" d="M 7.5 75.5 A 2 2 0 1 1 7.499999000000083 75.49800000033333" fill-opacity="1" clip-path="url(#yUvyxpRQNXSv)" stroke-opacity="1" stroke-linejoin="bevel" stroke-miterlimit="10" stroke-dasharray=""/><path fill="none" stroke="none"/><path fill="rgb(40,26,44)" stroke="rgb(40,26,44)" paint-order="fill" d="M 7.5 75.5 A 2 2 0 1 1 7.499999000000083 75.49800000033333" fill-opacity="1" clip-path="url(#NtMdIZCqheCw)" stroke-opacity="1" stroke-linejoin="bevel" stroke-miterlimit="10" stroke-dasharray=""/><path fill="rgb(255,255,255)" stroke="rgb(229,229,229)" paint-order="fill" d="M 15.83544921875 15.5 L 121.5 15.5 L 121.5 147.5 L 15.83544921875 147.5 L 15.83544921875 15.5" fill-opacity="0.9490196078431372" stroke-opacity="0.5019607843137255" stroke-linejoin="bevel" stroke-miterlimit="10" stroke-dasharray=""/><text fill="rgb(68,68,68)" stroke="none" font-family="helvetica" font-size="13px" font-style="normal" font-weight="normal" text-decoration="normal" x="50.33544921875" y="35" text-anchor="start" dominant-baseline="central" transform="matrix(1, 0, 0, 1, 0.5, 0.5)" fill-opacity="1">SRF</text><path fill="rgb(202,235,178)" stroke="rgb(202,235,178)" paint-order="fill" d="M 39.83544921875 35.5 A 4 4 0 1 1 39.83544721875017 35.49600000066666" fill-opacity="1" stroke-opacity="1" stroke-linejoin="bevel" stroke-miterlimit="10" stroke-dasharray=""/><text fill="rgb(68,68,68)" stroke="none" font-family="helvetica" font-size="13px" font-style="normal" font-weight="normal" text-decoration="normal" x="50.33544921875" y="58" text-anchor="start" dominant-baseline="central" transform="matrix(1, 0, 0, 1, 0.5, 0.5)" fill-opacity="1">DCM</text><path fill="rgb(95,188,164)" stroke="rgb(95,188,164)" paint-order="fill" d="M 39.83544921875 58.5 A 4 4 0 1 1 39.83544721875017 58.49600000066666" fill-opacity="1" stroke-opacity="1" stroke-linejoin="bevel" stroke-miterlimit="10" stroke-dasharray=""/><text fill="rgb(68,68,68)" stroke="none" font-family="helvetica" font-size="13px" font-style="normal" font-weight="normal" text-decoration="normal" x="50.33544921875" y="81" text-anchor="start" dominant-baseline="central" transform="matrix(1, 0, 0, 1, 0.5, 0.5)" fill-opacity="1">MIX</text><path fill="rgb(68,130,155)" stroke="rgb(68,130,155)" paint-order="fill" d="M 39.83544921875 81.5 A 4 4 0 1 1 39.83544721875017 81.49600000066667" fill-opacity="1" stroke-opacity="1" stroke-linejoin="bevel" stroke-miterlimit="10" stroke-dasharray=""/><text fill="rgb(68,68,68)" stroke="none" font-family="helvetica" font-size="13px" font-style="normal" font-weight="normal" text-decoration="normal" x="50.33544921875" y="104" text-anchor="start" dominant-baseline="central" transform="matrix(1, 0, 0, 1, 0.5, 0.5)" fill-opacity="1">MES/OMZ</text><path fill="rgb(65,70,132)" stroke="rgb(65,70,132)" paint-order="fill" d="M 39.83544921875 104.5 A 4 4 0 1 1 39.83544721875017 104.49600000066667" fill-opacity="1" stroke-opacity="1" stroke-linejoin="bevel" stroke-miterlimit="10" stroke-dasharray=""/><text fill="rgb(68,68,68)" stroke="none" font-family="helvetica" font-size="13px" font-style="normal" font-weight="normal" text-decoration="normal" x="50.33544921875" y="127" text-anchor="start" dominant-baseline="central" transform="matrix(1, 0, 0, 1, 0.5, 0.5)" fill-opacity="1">MES</text><path fill="rgb(40,26,44)" stroke="rgb(40,26,44)" paint-order="fill" d="M 39.83544921875 127.5 A 4 4 0 1 1 39.83544721875017 127.49600000066667" fill-opacity="1" stroke-opacity="1" stroke-linejoin="bevel" stroke-miterlimit="10" stroke-dasharray=""/></svg>