<svg version="1.1" xmlns="http://www.w3.org/2000/svg" xmlns:xlink="http://www.w3.org/1999/xlink" width="128" height="220"><defs><clipPath id="voIiZGONhSKF"><path fill="none" stroke="none" d="M 5.5 5.5 L 5.5 5.5 L 5.5 215.5 L 5.5 215.5 L 5.5 5.5"/></clipPath><clipPath id="xbFtuwSmTaTv"><path fill="none" stroke="none" d="M 5.5 5.5 L 5.5 5.5 L 5.5 215.5 L 5.5 215.5 L 5.5 5.5"/></clipPath><clipPath id="LWqxCTwbRoCu"><path fill="none" stroke="none" d="M 5.5 5.5 L 5.5 5.5 L 5.5 215.5 L 5.5 215.5 L 5.5 5.5"/></clipPath><clipPath id="XKxusTWGyXpb"><path fill="none" stroke="none" d="M 5.5 5.5 L 5.5 5.5 L 5.5 215.5 L 5.5 215.5 L 5.5 5.5"/></clipPath><clipPath id="ARORfLIcGGfM"><path fill="none" stroke="none" d="M 5.5 5.5 L 5.5 5.5 L 5.5 215.5 L 5.5 215.5 L 5.5 5.5"/></clipPath><clipPath id="hIkNmtQTvtVT"><path fill="none" stroke="none" d="M 5.5 5.5 L 5.5 5.5 L 5.5 215.5 L 5.5 215.5 L 5.5 5.5"/></clipPath><clipPath id="ACkFBMGRIiTP"><path fill="none" stroke="none" d="M 5.5 5.5 L 5.5 5.5 L 5.5 215.5 L 5.5 215.5 L 5.5 5.5"/></clipPath><clipPath id="xsmXzOLliFOd"><path fill="none" stroke="none" d="M 5.5 5.5 L 5.5 5.5 L 5.5 215.5 L 5.5 215.5 L 5.5 5.5"/></clipPath><clipPath id="GhhQnOQiDzaD"><path fill="none" stroke="none" d="M 5.5 5.5 L 5.5 5.5 L 5.5 215.5 L 5.5 215.5 L 5.5 5.5"/></clipPath><clipPath id="QGmQXJaZrQVf"><path fill="none" stroke="none" d="M 5.5 5.5 L 5.5 5.5 L 5.5 215.5 L 5.5 215.5 L 5.5 5.5"/></clipPath><clipPath id="NhvawNzTgEwK"><path fill="none" stroke="none" d="M 5.5 5.5 L 5.5 5.5 L 5.5 215.5 L 5.5 215.5 L 5.5 5.5"/></clipPath></defs><path fill="rgb(255,255,255)" stroke="none" paint-order="stroke" d="M 0.5 0.5 L 128.5 0.5 L 128.5 220.5 L 0.5 220.5 L 0.5 0.5" fill-opacity="1"/><rect fill="#FFFFFF" stroke="none" x="5" y="5" width="0" height="210" transform="matrix(1, 0, 0, 1, 0.5, 0.5)"/><path fill="rgb(255,255,255)" stroke="none" paint-order="stroke" d="M 5.5 5.5 L 5.5 5.5 L 5.5 215.5 L 5.5 215.5 L 5.5 5.5" fill-opacity="1"/><path fill="none" stroke="rgb(229,229,229)" paint-order="fill" d="M 5.5 5.5 L 5.5 5.5 L 5.5 215.5 L 5.5 215.5 L 5.5 5.5" stroke-opacity="1" stroke-linejoin="bevel" stroke-miterlimit="10" stroke-dasharray=""/><path fill="none" stroke="rgb(229,229,229)" paint-order="fill" d="M 5.5 215.5 L 5.5 5.5 M 5.5 215.5 L 5.5 5.5 M 5.5 215.5 L 5.5 5.5" stroke-opacity="1" stroke-linejoin="bevel" stroke-miterlimit="10" stroke-dasharray="" clip-path="url(#voIiZGONhSKF)"/><path fill="none" stroke="rgb(229,229,229)" paint-order="fill" d="M 5.5 163.5 L 5.5 163.5 M 5.5 110.5 L 5.5 110.5 M 5.5 58.5 L 5.5 58.5" stroke-opacity="1" stroke-linejoin="bevel" stroke-miterlimit="10" stroke-dasharray="" clip-path="url(#xbFtuwSmTaTv)"/><path fill="none" stroke="none"/><path fill="rgb(102,194,165)" stroke="rgb(102,194,165)" paint-order="fill" d="M 7.5 110.5 A 2 2 0 1 1 7.499999000000083 110.49800000033333" fill-opacity="1" clip-path="url(#LWqxCTwbRoCu)" stroke-opacity="1" stroke-linejoin="bevel" stroke-miterlimit="10" stroke-dasharray=""/><path fill="none" stroke="none"/><path fill="rgb(231,138,195)" stroke="rgb(231,138,195)" paint-order="fill" d="M 7.5 110.5 A 2 2 0 1 1 7.499999000000083 110.49800000033333" fill-opacity="1" clip-path="url(#XKxusTWGyXpb)" stroke-opacity="1" stroke-linejoin="bevel" stroke-miterlimit="10" stroke-dasharray=""/><path fill="none" stroke="none"/><path fill="rgb(166,216,84)" stroke="rgb(166,216,84)" paint-order="fill" d="M 7.5 110.5 A 2 2 0 1 1 7.499999000000083 110.49800000033333" fill-opacity="1" clip-path="url(#ARORfLIcGGfM)" stroke-opacity="1" stroke-linejoin="bevel" stroke-miterlimit="10" stroke-dasharray=""/><path fill="none" stroke="none"/><path fill="rgb(141,160,203)" stroke="rgb(141,160,203)" paint-order="fill" d="M 7.5 110.5 A 2 2 0 1 1 7.499999000000083 110.49800000033333" fill-opacity="1" clip-path="url(#hIkNmtQTvtVT)" stroke-opacity="1" stroke-linejoin="bevel" stroke-miterlimit="10" stroke-dasharray=""/><path fill="none" stroke="none"/><path fill="rgb(179,179,179)" stroke="rgb(179,179,179)" paint-order="fill" d="M 7.5 110.5 A 2 2 0 1 1 7.499999000000083 110.49800000033333" fill-opacity="1" clip-path="url(#ACkFBMGRIiTP)" stroke-opacity="1" stroke-linejoin="bevel" stroke-miterlimit="10" stroke-dasharray=""/><path fill="none" stroke="none"/><path fill="rgb(229,196,148)" stroke="rgb(229,196,148)" paint-order="fill" d="M 7.5 110.5 A 2 2 0 1 1 7.499999000000083 110.49800000033333" fill-opacity="1" clip-path="url(#xsmXzOLliFOd)" stroke-opacity="1" stroke-linejoin="bevel" stroke-miterlimit="10" stroke-dasharray=""/><path fill="none" stroke="none"/><path fill="rgb(255,217,47)" stroke="rgb(255,217,47)" paint-order="fill" d="M 7.5 110.5 A 2 2 0 1 1 7.499999000000083 110.49800000033333" fill-opacity="1" clip-path="url(#GhhQnOQiDzaD)" stroke-opacity="1" stroke-linejoin="bevel" stroke-miterlimit="10" stroke-dasharray=""/><path fill="none" stroke="none"/><path fill="rgb(252,141,98)" stroke="rgb(252,141,98)" paint-order="fill" d="M 7.5 110.5 A 2 2 0 1 1 7.499999000000083 110.49800000033333" fill-opacity="1" clip-path="url(#QGmQXJaZrQVf)" stroke-opacity="1" stroke-linejoin="bevel" stroke-miterlimit="10" stroke-dasharray=""/><path fill="rgb(255,255,255)" stroke="rgb(229,229,229)" paint-order="fill" d="M 15.3291015625 15.5 L 88.5 15.5 L 88.5 216.5 L 15.3291015625 216.5 L 15.3291015625 15.5" fill-opacity="0.9490196078431372" stroke-opacity="0.5019607843137255" stroke-linejoin="bevel" stroke-miterlimit="10" stroke-dasharray=""/><text fill="rgb(68,68,68)" stroke="none" font-family="helvetica" font-size="13px" font-style="normal" font-weight="normal" text-decoration="normal" x="49.8291015625" y="35" text-anchor="start" dominant-baseline="central" transform="matrix(1, 0, 0, 1, 0.5, 0.5)" fill-opacity="1">NPO</text><path fill="rgb(102,194,165)" stroke="rgb(102,194,165)" paint-order="fill" d="M 39.3291015625 35.5 A 4 4 0 1 1 39.32909956250017 35.49600000066666" fill-opacity="1" stroke-opacity="1" stroke-linejoin="bevel" stroke-miterlimit="10" stroke-dasharray=""/><text fill="rgb(68,68,68)" stroke="none" font-family="helvetica" font-size="13px" font-style="normal" font-weight="normal" text-decoration="normal" x="49.8291015625" y="58" text-anchor="start" dominant-baseline="central" transform="matrix(1, 0, 0, 1, 0.5, 0.5)" fill-opacity="1">SPO</text><path fill="rgb(231,138,195)" stroke="rgb(231,138,195)" paint-order="fill" d="M 39.3291015625 58.5 A 4 4 0 1 1 39.32909956250017 58.49600000066666" fill-opacity="1" stroke-opacity="1" stroke-linejoin="bevel" stroke-miterlimit="10" stroke-dasharray=""/><text fill="rgb(68,68,68)" stroke="none" font-family="helvetica" font-size="13px" font-style="normal" font-weight="normal" text-decoration="normal" x="49.8291015625" y="81" text-anchor="start" dominant-baseline="central" transform="matrix(1, 0, 0, 1, 0.5, 0.5)" fill-opacity="1">NAO</text><path fill="rgb(166,216,84)" stroke="rgb(166,216,84)" paint-order="fill" d="M 39.3291015625 81.5 A 4 4 0 1 1 39.32909956250017 81.49600000066667" fill-opacity="1" stroke-opacity="1" stroke-linejoin="bevel" stroke-miterlimit="10" stroke-dasharray=""/><text fill="rgb(68,68,68)" stroke="none" font-family="helvetica" font-size="13px" font-style="normal" font-weight="normal" text-decoration="normal" x="49.8291015625" y="104" text-anchor="start" dominant-baseline="central" transform="matrix(1, 0, 0, 1, 0.5, 0.5)" fill-opacity="1">SAO</text><path fill="rgb(141,160,203)" stroke="rgb(141,160,203)" paint-order="fill" d="M 39.3291015625 104.5 A 4 4 0 1 1 39.32909956250017 104.49600000066667" fill-opacity="1" stroke-opacity="1" stroke-linejoin="bevel" stroke-miterlimit="10" stroke-dasharray=""/><text fill="rgb(68,68,68)" stroke="none" font-family="helvetica" font-size="13px" font-style="normal" font-weight="normal" text-decoration="normal" x="49.8291015625" y="127" text-anchor="start" dominant-baseline="central" transform="matrix(1, 0, 0, 1, 0.5, 0.5)" fill-opacity="1">SO</text><path fill="rgb(179,179,179)" stroke="rgb(179,179,179)" paint-order="fill" d="M 39.3291015625 127.5 A 4 4 0 1 1 39.32909956250017 127.49600000066667" fill-opacity="1" stroke-opacity="1" stroke-linejoin="bevel" stroke-miterlimit="10" stroke-dasharray=""/><text fill="rgb(68,68,68)" stroke="none" font-family="helvetica" font-size="13px" font-style="normal" font-weight="normal" text-decoration="normal" x="49.8291015625" y="150" text-anchor="start" dominant-baseline="central" transform="matrix(1, 0, 0, 1, 0.5, 0.5)" fill-opacity="1">IO</text><path fill="rgb(229,196,148)" stroke="rgb(229,196,148)" paint-order="fill" d="M 39.3291015625 150.5 A 4 4 0 1 1 39.32909956250017 150.49600000066667" fill-opacity="1" stroke-opacity="1" stroke-linejoin="bevel" stroke-miterlimit="10" stroke-dasharray=""/><text fill="rgb(68,68,68)" stroke="none" font-family="helvetica" font-size="13px" font-style="normal" font-weight="normal" text-decoration="normal" x="49.8291015625" y="173" text-anchor="start" dominant-baseline="central" transform="matrix(1, 0, 0, 1, 0.5, 0.5)" fill-opacity="1">MS</text><path fill="rgb(255,217,47)" stroke="rgb(255,217,47)" paint-order="fill" d="M 39.3291015625 173.5 A 4 4 0 1 1 39.32909956250017 173.49600000066667" fill-opacity="1" stroke-opacity="1" stroke-linejoin="bevel" stroke-miterlimit="10" stroke-dasharray=""/><text fill="rgb(68,68,68)" stroke="none" font-family="helvetica" font-size="13px" font-style="normal" font-weight="normal" text-decoration="normal" x="49.8291015625" y="196" text-anchor="start" dominant-baseline="central" transform="matrix(1, 0, 0, 1, 0.5, 0.5)" fill-opacity="1">RS</text><path fill="rgb(252,141,98)" stroke="rgb(252,141,98)" paint-order="fill" d="M 39.3291015625 196.5 A 4 4 0 1 1 39.32909956250017 196.49600000066667" fill-opacity="1" stroke-opacity="1" stroke-linejoin="bevel" stroke-miterlimit="10" stroke-dasharray=""/></svg>