<svg version="1.1" xmlns="http://www.w3.org/2000/svg" xmlns:xlink="http://www.w3.org/1999/xlink" width="601" height="135"><defs><clipPath id="chltTZxqVpFW"><path fill="none" stroke="none" d="M 196.5 27.5 L 596.5 27.5 L 596.5 77.5 L 196.5 77.5 L 196.5 27.5"/></clipPath><clipPath id="XLTkkLkyJrDT"><path fill="none" stroke="none" d="M 196.5 27.5 L 596.5 27.5 L 596.5 77.5 L 196.5 77.5 L 196.5 27.5"/></clipPath><clipPath id="SANxvyWgkrxo"><path fill="none" stroke="none" d="M 196.5 27.5 L 596.5 27.5 L 596.5 77.5 L 196.5 77.5 L 196.5 27.5"/></clipPath><clipPath id="rEMsyZUucLZe"><path fill="none" stroke="none" d="M 196.5 27.5 L 596.5 27.5 L 596.5 77.5 L 196.5 77.5 L 196.5 27.5"/></clipPath></defs><path fill="none" stroke="rgb(229,229,229)" paint-order="fill" d="M 196.5 27.5 L 596.5 27.5 L 596.5 77.5 L 196.5 77.5 L 196.5 27.5" stroke-opacity="1" stroke-linejoin="bevel" stroke-miterlimit="10" stroke-dasharray=""/><path fill="none" stroke="rgb(229,229,229)" paint-order="fill" d="M 214.5 77.5 L 214.5 27.5 M 272.5 77.5 L 272.5 27.5 M 330.5 77.5 L 330.5 27.5 M 388.5 77.5 L 388.5 27.5 M 445.5 77.5 L 445.5 27.5 M 503.5 77.5 L 503.5 27.5 M 561.5 77.5 L 561.5 27.5" stroke-opacity="1" stroke-linejoin="bevel" stroke-miterlimit="10" stroke-dasharray="" clip-path="url(#chltTZxqVpFW)"/><path fill="none" stroke="rgb(229,229,229)" paint-order="fill" d="M 196.5 71.5 L 596.5 71.5 M 196.5 58.5 L 596.5 58.5 M 196.5 46.5 L 596.5 46.5 M 196.5 33.5 L 596.5 33.5" stroke-opacity="1" stroke-linejoin="bevel" stroke-miterlimit="10" stroke-dasharray="" clip-path="url(#XLTkkLkyJrDT)"/><path fill="none" stroke="none"/><path fill="rgb(126,205,101)" stroke="none" paint-order="stroke" d="M 214.68182373046875 28.75 L 578.3181762695312 28.75 L 578.3181762695312 38.75 L 214.68182373046875 38.75 L 214.68182373046875 28.75" fill-opacity="1" clip-path="url(#SANxvyWgkrxo)"/><path fill="none" stroke="rgb(126,205,101)" paint-order="fill" d="M 214.68182373046875 28.75 L 578.3181762695312 28.75 L 578.3181762695312 38.75 L 214.68182373046875 38.75 L 214.68182373046875 28.75" stroke-opacity="1" stroke-linejoin="bevel" stroke-miterlimit="10" stroke-dasharray="" clip-path="url(#SANxvyWgkrxo)"/><path fill="rgb(95,190,117)" stroke="none" paint-order="stroke" d="M 214.68182373046875 41.25 L 498.9587097167969 41.25 L 498.9587097167969 51.25 L 214.68182373046875 51.25 L 214.68182373046875 41.25" fill-opacity="1" clip-path="url(#SANxvyWgkrxo)"/><path fill="none" stroke="rgb(95,190,117)" paint-order="fill" d="M 214.68182373046875 41.25 L 498.9587097167969 41.25 L 498.9587097167969 51.25 L 214.68182373046875 51.25 L 214.68182373046875 41.25" stroke-opacity="1" stroke-linejoin="bevel" stroke-miterlimit="10" stroke-dasharray="" clip-path="url(#SANxvyWgkrxo)"/><path fill="rgb(108,197,110)" stroke="none" paint-order="stroke" d="M 214.68182373046875 53.75 L 460.6968688964844 53.75 L 460.6968688964844 63.75 L 214.68182373046875 63.75 L 214.68182373046875 53.75" fill-opacity="1" clip-path="url(#SANxvyWgkrxo)"/><path fill="none" stroke="rgb(108,197,110)" paint-order="fill" d="M 214.68182373046875 53.75 L 460.6968688964844 53.75 L 460.6968688964844 63.75 L 214.68182373046875 63.75 L 214.68182373046875 53.75" stroke-opacity="1" stroke-linejoin="bevel" stroke-miterlimit="10" stroke-dasharray="" clip-path="url(#SANxvyWgkrxo)"/><path fill="rgb(88,184,121)" stroke="none" paint-order="stroke" d="M 214.68182373046875 66.25 L 449.9884338378906 66.25 L 449.9884338378906 76.25 L 214.68182373046875 76.25 L 214.68182373046875 66.25" fill-opacity="1" clip-path="url(#SANxvyWgkrxo)"/><path fill="none" stroke="rgb(88,184,121)" paint-order="fill" d="M 214.68182373046875 66.25 L 449.9884338378906 66.25 L 449.9884338378906 76.25 L 214.68182373046875 76.25 L 214.68182373046875 66.25" stroke-opacity="1" stroke-linejoin="bevel" stroke-miterlimit="10" stroke-dasharray="" clip-path="url(#SANxvyWgkrxo)"/><path fill="none" stroke="rgb(0,0,0)" paint-order="fill" d="M 196.5 77.5 L 596.5 77.5" stroke-opacity="1" stroke-linejoin="bevel" stroke-miterlimit="10" stroke-dasharray=""/><path fill="none" stroke="rgb(0,0,0)" paint-order="fill" d="M 214.5 83.5 L 214.5 75.5 M 272.5 83.5 L 272.5 75.5 M 330.5 83.5 L 330.5 75.5 M 388.5 83.5 L 388.5 75.5 M 445.5 83.5 L 445.5 75.5 M 503.5 83.5 L 503.5 75.5 M 561.5 83.5 L 561.5 75.5" stroke-opacity="1" stroke-linejoin="bevel" stroke-miterlimit="10" stroke-dasharray=""/><path fill="none" stroke="rgb(0,0,0)" paint-order="fill" d="M 203.5 81.5 L 203.5 77.5 M 214.5 81.5 L 214.5 77.5 M 226.5 81.5 L 226.5 77.5 M 237.5 81.5 L 237.5 77.5 M 249.5 81.5 L 249.5 77.5 M 260.5 81.5 L 260.5 77.5 M 272.5 81.5 L 272.5 77.5 M 284.5 81.5 L 284.5 77.5 M 295.5 81.5 L 295.5 77.5 M 307.5 81.5 L 307.5 77.5 M 318.5 81.5 L 318.5 77.5 M 330.5 81.5 L 330.5 77.5 M 341.5 81.5 L 341.5 77.5 M 353.5 81.5 L 353.5 77.5 M 365.5 81.5 L 365.5 77.5 M 376.5 81.5 L 376.5 77.5 M 388.5 81.5 L 388.5 77.5 M 399.5 81.5 L 399.5 77.5 M 411.5 81.5 L 411.5 77.5 M 422.5 81.5 L 422.5 77.5 M 434.5 81.5 L 434.5 77.5 M 445.5 81.5 L 445.5 77.5 M 457.5 81.5 L 457.5 77.5 M 469.5 81.5 L 469.5 77.5 M 480.5 81.5 L 480.5 77.5 M 492.5 81.5 L 492.5 77.5 M 503.5 81.5 L 503.5 77.5 M 515.5 81.5 L 515.5 77.5 M 526.5 81.5 L 526.5 77.5 M 538.5 81.5 L 538.5 77.5 M 550.5 81.5 L 550.5 77.5 M 561.5 81.5 L 561.5 77.5 M 573.5 81.5 L 573.5 77.5 M 584.5 81.5 L 584.5 77.5 M 596.5 81.5 L 596.5 77.5" stroke-opacity="1" stroke-linejoin="bevel" stroke-miterlimit="10" stroke-dasharray=""/><text fill="rgb(68,68,68)" stroke="none" font-family="helvetica" font-size="11px" font-style="normal" font-weight="normal" text-decoration="normal" x="208.06414794921875" y="91.945068359375" text-anchor="start" dominant-baseline="alphabetic" transform="matrix(0.7071067811865476, -0.7071067811865475, 0.7071067811865475, 0.7071067811865476, 1.0070070193362994, 177.72402322230005)" fill-opacity="1">0</text><text fill="rgb(68,68,68)" stroke="none" font-family="helvetica" font-size="11px" font-style="normal" font-weight="normal" text-decoration="normal" x="250.59219360351562" y="91.945068359375" text-anchor="start" dominant-baseline="alphabetic" transform="matrix(0.7071067811865476, -0.7071067811865475, 0.7071067811865475, 0.7071067811865476, 17.941961000468808, 218.60861880171439)" fill-opacity="1">0.02</text><text fill="rgb(68,68,68)" stroke="none" font-family="helvetica" font-size="11px" font-style="normal" font-weight="normal" text-decoration="normal" x="308.4117736816406" y="91.945068359375" text-anchor="start" dominant-baseline="alphabetic" transform="matrix(0.7071067811865476, -0.7071067811865475, 0.7071067811865475, 0.7071067811865476, 34.87692391999303, 259.4932359603152)" fill-opacity="1">0.04</text><text fill="rgb(68,68,68)" stroke="none" font-family="helvetica" font-size="11px" font-style="normal" font-weight="normal" text-decoration="normal" x="366.2313537597656" y="91.945068359375" text-anchor="start" dominant-baseline="alphabetic" transform="matrix(0.7071067811865476, -0.7071067811865475, 0.7071067811865475, 0.7071067811865476, 51.81188683951723, 300.377853118916)" fill-opacity="1">0.06</text><text fill="rgb(68,68,68)" stroke="none" font-family="helvetica" font-size="11px" font-style="normal" font-weight="normal" text-decoration="normal" x="424.0509033203125" y="91.945068359375" text-anchor="start" dominant-baseline="alphabetic" transform="matrix(0.7071067811865476, -0.7071067811865475, 0.7071067811865475, 0.7071067811865476, 68.74684082064971, 341.2624486983304)" fill-opacity="1">0.08</text><text fill="rgb(68,68,68)" stroke="none" font-family="helvetica" font-size="11px" font-style="normal" font-weight="normal" text-decoration="normal" x="487.9881591796875" y="91.945068359375" text-anchor="start" dominant-baseline="alphabetic" transform="matrix(0.7071067811865476, -0.7071067811865475, 0.7071067811865475, 0.7071067811865476, 85.68180374017396, 382.14706585693114)" fill-opacity="1">0.1</text><text fill="rgb(68,68,68)" stroke="none" font-family="helvetica" font-size="11px" font-style="normal" font-weight="normal" text-decoration="normal" x="539.6900634765625" y="91.945068359375" text-anchor="start" dominant-baseline="alphabetic" transform="matrix(0.7071067811865476, -0.7071067811865475, 0.7071067811865475, 0.7071067811865476, 102.61676665969816, 423.03168301553194)" fill-opacity="1">0.12</text><text fill="rgb(68,68,68)" stroke="none" font-family="helvetica" font-size="13px" font-style="italic" font-weight="normal" text-decoration="normal" x="363.484130859375" y="128.71774531498966" text-anchor="start" dominant-baseline="alphabetic" transform="matrix(1, 0, 0, 1, 0.5, 0.5)" fill-opacity="1">Importance</text><path fill="none" stroke="rgb(0,0,0)" paint-order="fill" d="M 196.5 77.5 L 196.5 27.5" stroke-opacity="1" stroke-linejoin="bevel" stroke-miterlimit="10" stroke-dasharray=""/><path fill="none" stroke="rgb(0,0,0)" paint-order="fill" d="M 190.5 71.5 L 198.5 71.5 M 190.5 58.5 L 198.5 58.5 M 190.5 46.5 L 198.5 46.5 M 190.5 33.5 L 198.5 33.5" stroke-opacity="1" stroke-linejoin="bevel" stroke-miterlimit="10" stroke-dasharray=""/><path fill="none" stroke="rgb(0,0,0)" paint-order="fill" d="" stroke-opacity="1" stroke-linejoin="bevel" stroke-miterlimit="10" stroke-dasharray=""/><text fill="rgb(68,68,68)" stroke="none" font-family="helvetica" font-size="11px" font-style="normal" font-weight="normal" text-decoration="normal" x="3.4140625" y="74.25" text-anchor="start" dominant-baseline="alphabetic" transform="matrix(1, 0, 0, 1, 0.5, 0.5)" fill-opacity="1">Amino acid metabolism and transport</text><text fill="rgb(68,68,68)" stroke="none" font-family="helvetica" font-size="11px" font-style="normal" font-weight="normal" text-decoration="normal" x="86.56396484375" y="61.75" text-anchor="start" dominant-baseline="alphabetic" transform="matrix(1, 0, 0, 1, 0.5, 0.5)" fill-opacity="1">Secondary structure</text><text fill="rgb(68,68,68)" stroke="none" font-family="helvetica" font-size="11px" font-style="normal" font-weight="normal" text-decoration="normal" x="73.12548828125" y="49.25" text-anchor="start" dominant-baseline="alphabetic" transform="matrix(1, 0, 0, 1, 0.5, 0.5)" fill-opacity="1">Coenzyme metabolism</text><text fill="rgb(68,68,68)" stroke="none" font-family="helvetica" font-size="11px" font-style="normal" font-weight="normal" text-decoration="normal" x="5.8525390625" y="36.75" text-anchor="start" dominant-baseline="alphabetic" transform="matrix(1, 0, 0, 1, 0.5, 0.5)" fill-opacity="1">Nucleotide metabolism and transport</text><path fill="none" stroke="none"/><text fill="rgb(68,68,68)" stroke="none" font-family="helvetica" font-size="13px" font-style="normal" font-weight="bold" text-decoration="normal" x="0" y="0" text-anchor="start" dominant-baseline="text-after-edge" transform="matrix(1, 0, 0, 1, 196.5, 22.5)" fill-opacity="1">Longitude</text></svg>