<svg version="1.1" xmlns="http://www.w3.org/2000/svg" xmlns:xlink="http://www.w3.org/1999/xlink" width="619" height="130"><defs><clipPath id="FNLinPMFBQoV"><path fill="none" stroke="none" d="M 214.5 27.5 L 614.5 27.5 L 614.5 77.5 L 214.5 77.5 L 214.5 27.5"/></clipPath><clipPath id="bNiRLPggbyeZ"><path fill="none" stroke="none" d="M 214.5 27.5 L 614.5 27.5 L 614.5 77.5 L 214.5 77.5 L 214.5 27.5"/></clipPath><clipPath id="LbpTrtPfqvTu"><path fill="none" stroke="none" d="M 214.5 27.5 L 614.5 27.5 L 614.5 77.5 L 214.5 77.5 L 214.5 27.5"/></clipPath><clipPath id="MpsHSDFHUDfK"><path fill="none" stroke="none" d="M 214.5 27.5 L 614.5 27.5 L 614.5 77.5 L 214.5 77.5 L 214.5 27.5"/></clipPath></defs><path fill="none" stroke="rgb(229,229,229)" paint-order="fill" d="M 214.5 27.5 L 614.5 27.5 L 614.5 77.5 L 214.5 77.5 L 214.5 27.5" stroke-opacity="1" stroke-linejoin="bevel" stroke-miterlimit="10" stroke-dasharray=""/><path fill="none" stroke="rgb(229,229,229)" paint-order="fill" d="M 232.5 77.5 L 232.5 27.5 M 317.5 77.5 L 317.5 27.5 M 403.5 77.5 L 403.5 27.5 M 488.5 77.5 L 488.5 27.5 M 573.5 77.5 L 573.5 27.5" stroke-opacity="1" stroke-linejoin="bevel" stroke-miterlimit="10" stroke-dasharray="" clip-path="url(#FNLinPMFBQoV)"/><path fill="none" stroke="rgb(229,229,229)" paint-order="fill" d="M 214.5 71.5 L 614.5 71.5 M 214.5 58.5 L 614.5 58.5 M 214.5 46.5 L 614.5 46.5 M 214.5 33.5 L 614.5 33.5" stroke-opacity="1" stroke-linejoin="bevel" stroke-miterlimit="10" stroke-dasharray="" clip-path="url(#bNiRLPggbyeZ)"/><path fill="none" stroke="none"/><path fill="rgb(191,220,99)" stroke="none" paint-order="stroke" d="M 232.68182373046875 28.75 L 596.3181762695312 28.75 L 596.3181762695312 38.75 L 232.68182373046875 38.75 L 232.68182373046875 28.75" fill-opacity="1" clip-path="url(#LbpTrtPfqvTu)"/><path fill="none" stroke="rgb(191,220,99)" paint-order="fill" d="M 232.68182373046875 28.75 L 596.3181762695312 28.75 L 596.3181762695312 38.75 L 232.68182373046875 38.75 L 232.68182373046875 28.75" stroke-opacity="1" stroke-linejoin="bevel" stroke-miterlimit="10" stroke-dasharray="" clip-path="url(#LbpTrtPfqvTu)"/><path fill="rgb(102,194,113)" stroke="none" paint-order="stroke" d="M 232.68182373046875 41.25 L 370.6935729980469 41.25 L 370.6935729980469 51.25 L 232.68182373046875 51.25 L 232.68182373046875 41.25" fill-opacity="1" clip-path="url(#LbpTrtPfqvTu)"/><path fill="none" stroke="rgb(102,194,113)" paint-order="fill" d="M 232.68182373046875 41.25 L 370.6935729980469 41.25 L 370.6935729980469 51.25 L 232.68182373046875 51.25 L 232.68182373046875 41.25" stroke-opacity="1" stroke-linejoin="bevel" stroke-miterlimit="10" stroke-dasharray="" clip-path="url(#LbpTrtPfqvTu)"/><path fill="rgb(78,174,127)" stroke="none" paint-order="stroke" d="M 232.68182373046875 53.75 L 337.7991943359375 53.75 L 337.7991943359375 63.75 L 232.68182373046875 63.75 L 232.68182373046875 53.75" fill-opacity="1" clip-path="url(#LbpTrtPfqvTu)"/><path fill="none" stroke="rgb(78,174,127)" paint-order="fill" d="M 232.68182373046875 53.75 L 337.7991943359375 53.75 L 337.7991943359375 63.75 L 232.68182373046875 63.75 L 232.68182373046875 53.75" stroke-opacity="1" stroke-linejoin="bevel" stroke-miterlimit="10" stroke-dasharray="" clip-path="url(#LbpTrtPfqvTu)"/><path fill="rgb(72,167,130)" stroke="none" paint-order="stroke" d="M 232.68182373046875 66.25 L 309.71478271484375 66.25 L 309.71478271484375 76.25 L 232.68182373046875 76.25 L 232.68182373046875 66.25" fill-opacity="1" clip-path="url(#LbpTrtPfqvTu)"/><path fill="none" stroke="rgb(72,167,130)" paint-order="fill" d="M 232.68182373046875 66.25 L 309.71478271484375 66.25 L 309.71478271484375 76.25 L 232.68182373046875 76.25 L 232.68182373046875 66.25" stroke-opacity="1" stroke-linejoin="bevel" stroke-miterlimit="10" stroke-dasharray="" clip-path="url(#LbpTrtPfqvTu)"/><path fill="none" stroke="rgb(0,0,0)" paint-order="fill" d="M 214.5 77.5 L 614.5 77.5" stroke-opacity="1" stroke-linejoin="bevel" stroke-miterlimit="10" stroke-dasharray=""/><path fill="none" stroke="rgb(0,0,0)" paint-order="fill" d="M 232.5 83.5 L 232.5 75.5 M 317.5 83.5 L 317.5 75.5 M 403.5 83.5 L 403.5 75.5 M 488.5 83.5 L 488.5 75.5 M 573.5 83.5 L 573.5 75.5" stroke-opacity="1" stroke-linejoin="bevel" stroke-miterlimit="10" stroke-dasharray=""/><path fill="none" stroke="rgb(0,0,0)" paint-order="fill" d="M 215.5 81.5 L 215.5 77.5 M 232.5 81.5 L 232.5 77.5 M 249.5 81.5 L 249.5 77.5 M 266.5 81.5 L 266.5 77.5 M 283.5 81.5 L 283.5 77.5 M 300.5 81.5 L 300.5 77.5 M 317.5 81.5 L 317.5 77.5 M 335.5 81.5 L 335.5 77.5 M 352.5 81.5 L 352.5 77.5 M 369.5 81.5 L 369.5 77.5 M 386.5 81.5 L 386.5 77.5 M 403.5 81.5 L 403.5 77.5 M 420.5 81.5 L 420.5 77.5 M 437.5 81.5 L 437.5 77.5 M 454.5 81.5 L 454.5 77.5 M 471.5 81.5 L 471.5 77.5 M 488.5 81.5 L 488.5 77.5 M 505.5 81.5 L 505.5 77.5 M 522.5 81.5 L 522.5 77.5 M 539.5 81.5 L 539.5 77.5 M 556.5 81.5 L 556.5 77.5 M 573.5 81.5 L 573.5 77.5 M 590.5 81.5 L 590.5 77.5 M 608.5 81.5 L 608.5 77.5" stroke-opacity="1" stroke-linejoin="bevel" stroke-miterlimit="10" stroke-dasharray=""/><text fill="rgb(68,68,68)" stroke="none" font-family="helvetica" font-size="11px" font-style="normal" font-weight="normal" text-decoration="normal" x="226.06414794921875" y="91.945068359375" text-anchor="start" dominant-baseline="alphabetic" transform="matrix(0.7071067811865476, -0.7071067811865475, 0.7071067811865475, 0.7071067811865476, 6.279084957978455, 190.4519452836579)" fill-opacity="1">0</text><text fill="rgb(68,68,68)" stroke="none" font-family="helvetica" font-size="11px" font-style="normal" font-weight="normal" text-decoration="normal" x="302.1962890625" y="91.945068359375" text-anchor="start" dominant-baseline="alphabetic" transform="matrix(0.7071067811865476, -0.7071067811865475, 0.7071067811865475, 0.7071067811865476, 31.26462487217998, 250.77237460773762)" fill-opacity="1">0.1</text><text fill="rgb(68,68,68)" stroke="none" font-family="helvetica" font-size="11px" font-style="normal" font-weight="normal" text-decoration="normal" x="387.50225830078125" y="91.945068359375" text-anchor="start" dominant-baseline="alphabetic" transform="matrix(0.7071067811865476, -0.7071067811865475, 0.7071067811865475, 0.7071067811865476, 56.25016478638156, 311.0928039318173)" fill-opacity="1">0.2</text><text fill="rgb(68,68,68)" stroke="none" font-family="helvetica" font-size="11px" font-style="normal" font-weight="normal" text-decoration="normal" x="472.8082275390625" y="91.945068359375" text-anchor="start" dominant-baseline="alphabetic" transform="matrix(0.7071067811865476, -0.7071067811865475, 0.7071067811865475, 0.7071067811865476, 81.23570470058309, 371.413233255897)" fill-opacity="1">0.3</text><text fill="rgb(68,68,68)" stroke="none" font-family="helvetica" font-size="11px" font-style="normal" font-weight="normal" text-decoration="normal" x="558.1141967773438" y="91.945068359375" text-anchor="start" dominant-baseline="alphabetic" transform="matrix(0.7071067811865476, -0.7071067811865475, 0.7071067811865475, 0.7071067811865476, 106.22124461478467, 431.7336625799767)" fill-opacity="1">0.4</text><text fill="rgb(68,68,68)" stroke="none" font-family="helvetica" font-size="13px" font-style="italic" font-weight="normal" text-decoration="normal" x="381.484130859375" y="124.39189528496706" text-anchor="start" dominant-baseline="alphabetic" transform="matrix(1, 0, 0, 1, 0.5, 0.5)" fill-opacity="1">Importance</text><path fill="none" stroke="rgb(0,0,0)" paint-order="fill" d="M 214.5 77.5 L 214.5 27.5" stroke-opacity="1" stroke-linejoin="bevel" stroke-miterlimit="10" stroke-dasharray=""/><path fill="none" stroke="rgb(0,0,0)" paint-order="fill" d="M 208.5 71.5 L 216.5 71.5 M 208.5 58.5 L 216.5 58.5 M 208.5 46.5 L 216.5 46.5 M 208.5 33.5 L 216.5 33.5" stroke-opacity="1" stroke-linejoin="bevel" stroke-miterlimit="10" stroke-dasharray=""/><path fill="none" stroke="rgb(0,0,0)" paint-order="fill" d="" stroke-opacity="1" stroke-linejoin="bevel" stroke-miterlimit="10" stroke-dasharray=""/><text fill="rgb(68,68,68)" stroke="none" font-family="helvetica" font-size="11px" font-style="normal" font-weight="normal" text-decoration="normal" x="12.841796875" y="74.25" text-anchor="start" dominant-baseline="alphabetic" transform="matrix(1, 0, 0, 1, 0.5, 0.5)" fill-opacity="1">Inorganic ion transport and metabolism</text><text fill="rgb(68,68,68)" stroke="none" font-family="helvetica" font-size="11px" font-style="normal" font-weight="normal" text-decoration="normal" x="139.8251953125" y="61.75" text-anchor="start" dominant-baseline="alphabetic" transform="matrix(1, 0, 0, 1, 0.5, 0.5)" fill-opacity="1">Transcription</text><text fill="rgb(68,68,68)" stroke="none" font-family="helvetica" font-size="11px" font-style="normal" font-weight="normal" text-decoration="normal" x="146.77001953125" y="49.25" text-anchor="start" dominant-baseline="alphabetic" transform="matrix(1, 0, 0, 1, 0.5, 0.5)" fill-opacity="1">Cell motility</text><text fill="rgb(68,68,68)" stroke="none" font-family="helvetica" font-size="11px" font-style="normal" font-weight="normal" text-decoration="normal" x="3.0556640625" y="36.75" text-anchor="start" dominant-baseline="alphabetic" transform="matrix(1, 0, 0, 1, 0.5, 0.5)" fill-opacity="1">Cell wall/membrane/envelope biogenesis</text><path fill="none" stroke="none"/><text fill="rgb(68,68,68)" stroke="none" font-family="helvetica" font-size="13px" font-style="normal" font-weight="bold" text-decoration="normal" x="0" y="0" text-anchor="start" dominant-baseline="text-after-edge" transform="matrix(1, 0, 0, 1, 214.5, 22.5)" fill-opacity="1">Depth (m)</text></svg>