<svg version="1.1" xmlns="http://www.w3.org/2000/svg" xmlns:xlink="http://www.w3.org/1999/xlink" width="613" height="135"><defs><clipPath id="arDCUaDOIdOV"><path fill="none" stroke="none" d="M 208.5 27.5 L 608.5 27.5 L 608.5 77.5 L 208.5 77.5 L 208.5 27.5"/></clipPath><clipPath id="FPZfeHhXRGQM"><path fill="none" stroke="none" d="M 208.5 27.5 L 608.5 27.5 L 608.5 77.5 L 208.5 77.5 L 208.5 27.5"/></clipPath><clipPath id="iTkWSiTkFsTP"><path fill="none" stroke="none" d="M 208.5 27.5 L 608.5 27.5 L 608.5 77.5 L 208.5 77.5 L 208.5 27.5"/></clipPath><clipPath id="tMhfLAvzLEEn"><path fill="none" stroke="none" d="M 208.5 27.5 L 608.5 27.5 L 608.5 77.5 L 208.5 77.5 L 208.5 27.5"/></clipPath></defs><path fill="none" stroke="rgb(229,229,229)" paint-order="fill" d="M 208.5 27.5 L 608.5 27.5 L 608.5 77.5 L 208.5 77.5 L 208.5 27.5" stroke-opacity="1" stroke-linejoin="bevel" stroke-miterlimit="10" stroke-dasharray=""/><path fill="none" stroke="rgb(229,229,229)" paint-order="fill" d="M 226.5 77.5 L 226.5 27.5 M 279.5 77.5 L 279.5 27.5 M 332.5 77.5 L 332.5 27.5 M 385.5 77.5 L 385.5 27.5 M 437.5 77.5 L 437.5 27.5 M 490.5 77.5 L 490.5 27.5 M 543.5 77.5 L 543.5 27.5 M 596.5 77.5 L 596.5 27.5" stroke-opacity="1" stroke-linejoin="bevel" stroke-miterlimit="10" stroke-dasharray="" clip-path="url(#arDCUaDOIdOV)"/><path fill="none" stroke="rgb(229,229,229)" paint-order="fill" d="M 208.5 71.5 L 608.5 71.5 M 208.5 58.5 L 608.5 58.5 M 208.5 46.5 L 608.5 46.5 M 208.5 33.5 L 608.5 33.5" stroke-opacity="1" stroke-linejoin="bevel" stroke-miterlimit="10" stroke-dasharray="" clip-path="url(#FPZfeHhXRGQM)"/><path fill="none" stroke="none"/><path fill="rgb(175,217,93)" stroke="none" paint-order="stroke" d="M 226.68182373046875 28.75 L 590.3181762695312 28.75 L 590.3181762695312 38.75 L 226.68182373046875 38.75 L 226.68182373046875 28.75" fill-opacity="1" clip-path="url(#iTkWSiTkFsTP)"/><path fill="none" stroke="rgb(175,217,93)" paint-order="fill" d="M 226.68182373046875 28.75 L 590.3181762695312 28.75 L 590.3181762695312 38.75 L 226.68182373046875 38.75 L 226.68182373046875 28.75" stroke-opacity="1" stroke-linejoin="bevel" stroke-miterlimit="10" stroke-dasharray="" clip-path="url(#iTkWSiTkFsTP)"/><path fill="rgb(112,199,108)" stroke="none" paint-order="stroke" d="M 226.68182373046875 41.25 L 523.6619873046875 41.25 L 523.6619873046875 51.25 L 226.68182373046875 51.25 L 226.68182373046875 41.25" fill-opacity="1" clip-path="url(#iTkWSiTkFsTP)"/><path fill="none" stroke="rgb(112,199,108)" paint-order="fill" d="M 226.68182373046875 41.25 L 523.6619873046875 41.25 L 523.6619873046875 51.25 L 226.68182373046875 51.25 L 226.68182373046875 41.25" stroke-opacity="1" stroke-linejoin="bevel" stroke-miterlimit="10" stroke-dasharray="" clip-path="url(#iTkWSiTkFsTP)"/><path fill="rgb(98,191,115)" stroke="none" paint-order="stroke" d="M 226.68182373046875 53.75 L 491.6804504394531 53.75 L 491.6804504394531 63.75 L 226.68182373046875 63.75 L 226.68182373046875 53.75" fill-opacity="1" clip-path="url(#iTkWSiTkFsTP)"/><path fill="none" stroke="rgb(98,191,115)" paint-order="fill" d="M 226.68182373046875 53.75 L 491.6804504394531 53.75 L 491.6804504394531 63.75 L 226.68182373046875 63.75 L 226.68182373046875 53.75" stroke-opacity="1" stroke-linejoin="bevel" stroke-miterlimit="10" stroke-dasharray="" clip-path="url(#iTkWSiTkFsTP)"/><path fill="rgb(91,186,119)" stroke="none" paint-order="stroke" d="M 226.68182373046875 66.25 L 458.0240783691406 66.25 L 458.0240783691406 76.25 L 226.68182373046875 76.25 L 226.68182373046875 66.25" fill-opacity="1" clip-path="url(#iTkWSiTkFsTP)"/><path fill="none" stroke="rgb(91,186,119)" paint-order="fill" d="M 226.68182373046875 66.25 L 458.0240783691406 66.25 L 458.0240783691406 76.25 L 226.68182373046875 76.25 L 226.68182373046875 66.25" stroke-opacity="1" stroke-linejoin="bevel" stroke-miterlimit="10" stroke-dasharray="" clip-path="url(#iTkWSiTkFsTP)"/><path fill="none" stroke="rgb(0,0,0)" paint-order="fill" d="M 208.5 77.5 L 608.5 77.5" stroke-opacity="1" stroke-linejoin="bevel" stroke-miterlimit="10" stroke-dasharray=""/><path fill="none" stroke="rgb(0,0,0)" paint-order="fill" d="M 226.5 83.5 L 226.5 75.5 M 279.5 83.5 L 279.5 75.5 M 332.5 83.5 L 332.5 75.5 M 385.5 83.5 L 385.5 75.5 M 437.5 83.5 L 437.5 75.5 M 490.5 83.5 L 490.5 75.5 M 543.5 83.5 L 543.5 75.5 M 596.5 83.5 L 596.5 75.5" stroke-opacity="1" stroke-linejoin="bevel" stroke-miterlimit="10" stroke-dasharray=""/><path fill="none" stroke="rgb(0,0,0)" paint-order="fill" d="M 216.5 81.5 L 216.5 77.5 M 226.5 81.5 L 226.5 77.5 M 237.5 81.5 L 237.5 77.5 M 247.5 81.5 L 247.5 77.5 M 258.5 81.5 L 258.5 77.5 M 268.5 81.5 L 268.5 77.5 M 279.5 81.5 L 279.5 77.5 M 290.5 81.5 L 290.5 77.5 M 300.5 81.5 L 300.5 77.5 M 311.5 81.5 L 311.5 77.5 M 321.5 81.5 L 321.5 77.5 M 332.5 81.5 L 332.5 77.5 M 342.5 81.5 L 342.5 77.5 M 353.5 81.5 L 353.5 77.5 M 364.5 81.5 L 364.5 77.5 M 374.5 81.5 L 374.5 77.5 M 385.5 81.5 L 385.5 77.5 M 395.5 81.5 L 395.5 77.5 M 406.5 81.5 L 406.5 77.5 M 416.5 81.5 L 416.5 77.5 M 427.5 81.5 L 427.5 77.5 M 437.5 81.5 L 437.5 77.5 M 448.5 81.5 L 448.5 77.5 M 459.5 81.5 L 459.5 77.5 M 469.5 81.5 L 469.5 77.5 M 480.5 81.5 L 480.5 77.5 M 490.5 81.5 L 490.5 77.5 M 501.5 81.5 L 501.5 77.5 M 511.5 81.5 L 511.5 77.5 M 522.5 81.5 L 522.5 77.5 M 533.5 81.5 L 533.5 77.5 M 543.5 81.5 L 543.5 77.5 M 554.5 81.5 L 554.5 77.5 M 564.5 81.5 L 564.5 77.5 M 575.5 81.5 L 575.5 77.5 M 585.5 81.5 L 585.5 77.5 M 596.5 81.5 L 596.5 77.5 M 607.5 81.5 L 607.5 77.5" stroke-opacity="1" stroke-linejoin="bevel" stroke-miterlimit="10" stroke-dasharray=""/><text fill="rgb(68,68,68)" stroke="none" font-family="helvetica" font-size="11px" font-style="normal" font-weight="normal" text-decoration="normal" x="220.06414794921875" y="91.945068359375" text-anchor="start" dominant-baseline="alphabetic" transform="matrix(0.7071067811865476, -0.7071067811865475, 0.7071067811865475, 0.7071067811865476, 4.521725645097746, 186.20930459653863)" fill-opacity="1">0</text><text fill="rgb(68,68,68)" stroke="none" font-family="helvetica" font-size="11px" font-style="normal" font-weight="normal" text-decoration="normal" x="257.59942626953125" y="91.945068359375" text-anchor="start" dominant-baseline="alphabetic" transform="matrix(0.7071067811865476, -0.7071067811865475, 0.7071067811865475, 0.7071067811865476, 19.99433193099287, 223.56348053720598)" fill-opacity="1">0.02</text><text fill="rgb(68,68,68)" stroke="none" font-family="helvetica" font-size="11px" font-style="normal" font-weight="normal" text-decoration="normal" x="310.42620849609375" y="91.945068359375" text-anchor="start" dominant-baseline="alphabetic" transform="matrix(0.7071067811865476, -0.7071067811865475, 0.7071067811865475, 0.7071067811865476, 35.46693821688808, 260.91765647787327)" fill-opacity="1">0.04</text><text fill="rgb(68,68,68)" stroke="none" font-family="helvetica" font-size="11px" font-style="normal" font-weight="normal" text-decoration="normal" x="363.25299072265625" y="91.945068359375" text-anchor="start" dominant-baseline="alphabetic" transform="matrix(0.7071067811865476, -0.7071067811865475, 0.7071067811865475, 0.7071067811865476, 50.939544502783235, 298.2718324185406)" fill-opacity="1">0.06</text><text fill="rgb(68,68,68)" stroke="none" font-family="helvetica" font-size="11px" font-style="normal" font-weight="normal" text-decoration="normal" x="416.07977294921875" y="91.945068359375" text-anchor="start" dominant-baseline="alphabetic" transform="matrix(0.7071067811865476, -0.7071067811865475, 0.7071067811865475, 0.7071067811865476, 66.41215078867839, 335.62600835920796)" fill-opacity="1">0.08</text><text fill="rgb(68,68,68)" stroke="none" font-family="helvetica" font-size="11px" font-style="normal" font-weight="normal" text-decoration="normal" x="475.02423095703125" y="91.945068359375" text-anchor="start" dominant-baseline="alphabetic" transform="matrix(0.7071067811865476, -0.7071067811865475, 0.7071067811865475, 0.7071067811865476, 81.8847570745736, 372.98018429987525)" fill-opacity="1">0.1</text><text fill="rgb(68,68,68)" stroke="none" font-family="helvetica" font-size="11px" font-style="normal" font-weight="normal" text-decoration="normal" x="521.7333374023438" y="91.945068359375" text-anchor="start" dominant-baseline="alphabetic" transform="matrix(0.7071067811865476, -0.7071067811865475, 0.7071067811865475, 0.7071067811865476, 97.35736336046875, 410.3343602405426)" fill-opacity="1">0.12</text><text fill="rgb(68,68,68)" stroke="none" font-family="helvetica" font-size="11px" font-style="normal" font-weight="normal" text-decoration="normal" x="574.5601196289062" y="91.945068359375" text-anchor="start" dominant-baseline="alphabetic" transform="matrix(0.7071067811865476, -0.7071067811865475, 0.7071067811865475, 0.7071067811865476, 112.8299696463639, 447.6885361812099)" fill-opacity="1">0.14</text><text fill="rgb(68,68,68)" stroke="none" font-family="helvetica" font-size="13px" font-style="italic" font-weight="normal" text-decoration="normal" x="375.484130859375" y="128.71774531498966" text-anchor="start" dominant-baseline="alphabetic" transform="matrix(1, 0, 0, 1, 0.5, 0.5)" fill-opacity="1">Importance</text><path fill="none" stroke="rgb(0,0,0)" paint-order="fill" d="M 208.5 77.5 L 208.5 27.5" stroke-opacity="1" stroke-linejoin="bevel" stroke-miterlimit="10" stroke-dasharray=""/><path fill="none" stroke="rgb(0,0,0)" paint-order="fill" d="M 202.5 71.5 L 210.5 71.5 M 202.5 58.5 L 210.5 58.5 M 202.5 46.5 L 210.5 46.5 M 202.5 33.5 L 210.5 33.5" stroke-opacity="1" stroke-linejoin="bevel" stroke-miterlimit="10" stroke-dasharray=""/><path fill="none" stroke="rgb(0,0,0)" paint-order="fill" d="" stroke-opacity="1" stroke-linejoin="bevel" stroke-miterlimit="10" stroke-dasharray=""/><text fill="rgb(68,68,68)" stroke="none" font-family="helvetica" font-size="11px" font-style="normal" font-weight="normal" text-decoration="normal" x="29.486328125" y="74.25" text-anchor="start" dominant-baseline="alphabetic" transform="matrix(1, 0, 0, 1, 0.5, 0.5)" fill-opacity="1">Chromatin structure and dynamics</text><text fill="rgb(68,68,68)" stroke="none" font-family="helvetica" font-size="11px" font-style="normal" font-weight="normal" text-decoration="normal" x="114.46240234375" y="61.75" text-anchor="start" dominant-baseline="alphabetic" transform="matrix(1, 0, 0, 1, 0.5, 0.5)" fill-opacity="1">Lipid metabolism</text><text fill="rgb(68,68,68)" stroke="none" font-family="helvetica" font-size="11px" font-style="normal" font-weight="normal" text-decoration="normal" x="3.1787109375" y="49.25" text-anchor="start" dominant-baseline="alphabetic" transform="matrix(1, 0, 0, 1, 0.5, 0.5)" fill-opacity="1">Carbohydrate metabolism and transport</text><text fill="rgb(68,68,68)" stroke="none" font-family="helvetica" font-size="11px" font-style="normal" font-weight="normal" text-decoration="normal" x="98.56396484375" y="36.75" text-anchor="start" dominant-baseline="alphabetic" transform="matrix(1, 0, 0, 1, 0.5, 0.5)" fill-opacity="1">Secondary structure</text><path fill="none" stroke="none"/><text fill="rgb(68,68,68)" stroke="none" font-family="helvetica" font-size="13px" font-style="normal" font-weight="bold" text-decoration="normal" x="0" y="0" text-anchor="start" dominant-baseline="text-after-edge" transform="matrix(1, 0, 0, 1, 208.5, 22.5)" fill-opacity="1">Salinity (PSU)</text></svg>