<svg version="1.1" xmlns="http://www.w3.org/2000/svg" xmlns:xlink="http://www.w3.org/1999/xlink" width="601" height="135"><defs><clipPath id="sTuJVBpKbpTq"><path fill="none" stroke="none" d="M 196.5 27.5 L 596.5 27.5 L 596.5 77.5 L 196.5 77.5 L 196.5 27.5"/></clipPath><clipPath id="ywVuoiOxzkRJ"><path fill="none" stroke="none" d="M 196.5 27.5 L 596.5 27.5 L 596.5 77.5 L 196.5 77.5 L 196.5 27.5"/></clipPath><clipPath id="fCpTxqzwTofm"><path fill="none" stroke="none" d="M 196.5 27.5 L 596.5 27.5 L 596.5 77.5 L 196.5 77.5 L 196.5 27.5"/></clipPath><clipPath id="bXqPMNDUUzel"><path fill="none" stroke="none" d="M 196.5 27.5 L 596.5 27.5 L 596.5 77.5 L 196.5 77.5 L 196.5 27.5"/></clipPath></defs><path fill="none" stroke="rgb(229,229,229)" paint-order="fill" d="M 196.5 27.5 L 596.5 27.5 L 596.5 77.5 L 196.5 77.5 L 196.5 27.5" stroke-opacity="1" stroke-linejoin="bevel" stroke-miterlimit="10" stroke-dasharray=""/><path fill="none" stroke="rgb(229,229,229)" paint-order="fill" d="M 214.5 77.5 L 214.5 27.5 M 273.5 77.5 L 273.5 27.5 M 331.5 77.5 L 331.5 27.5 M 389.5 77.5 L 389.5 27.5 M 448.5 77.5 L 448.5 27.5 M 506.5 77.5 L 506.5 27.5 M 564.5 77.5 L 564.5 27.5" stroke-opacity="1" stroke-linejoin="bevel" stroke-miterlimit="10" stroke-dasharray="" clip-path="url(#sTuJVBpKbpTq)"/><path fill="none" stroke="rgb(229,229,229)" paint-order="fill" d="M 196.5 71.5 L 596.5 71.5 M 196.5 58.5 L 596.5 58.5 M 196.5 46.5 L 596.5 46.5 M 196.5 33.5 L 596.5 33.5" stroke-opacity="1" stroke-linejoin="bevel" stroke-miterlimit="10" stroke-dasharray="" clip-path="url(#ywVuoiOxzkRJ)"/><path fill="none" stroke="none"/><path fill="rgb(146,211,94)" stroke="none" paint-order="stroke" d="M 214.68182373046875 28.75 L 578.3181762695312 28.75 L 578.3181762695312 38.75 L 214.68182373046875 38.75 L 214.68182373046875 28.75" fill-opacity="1" clip-path="url(#fCpTxqzwTofm)"/><path fill="none" stroke="rgb(146,211,94)" paint-order="fill" d="M 214.68182373046875 28.75 L 578.3181762695312 28.75 L 578.3181762695312 38.75 L 214.68182373046875 38.75 L 214.68182373046875 28.75" stroke-opacity="1" stroke-linejoin="bevel" stroke-miterlimit="10" stroke-dasharray="" clip-path="url(#fCpTxqzwTofm)"/><path fill="rgb(113,200,107)" stroke="none" paint-order="stroke" d="M 214.68182373046875 41.25 L 574.4462280273438 41.25 L 574.4462280273438 51.25 L 214.68182373046875 51.25 L 214.68182373046875 41.25" fill-opacity="1" clip-path="url(#fCpTxqzwTofm)"/><path fill="none" stroke="rgb(113,200,107)" paint-order="fill" d="M 214.68182373046875 41.25 L 574.4462280273438 41.25 L 574.4462280273438 51.25 L 214.68182373046875 51.25 L 214.68182373046875 41.25" stroke-opacity="1" stroke-linejoin="bevel" stroke-miterlimit="10" stroke-dasharray="" clip-path="url(#fCpTxqzwTofm)"/><path fill="rgb(112,199,108)" stroke="none" paint-order="stroke" d="M 214.68182373046875 53.75 L 472.78485107421875 53.75 L 472.78485107421875 63.75 L 214.68182373046875 63.75 L 214.68182373046875 53.75" fill-opacity="1" clip-path="url(#fCpTxqzwTofm)"/><path fill="none" stroke="rgb(112,199,108)" paint-order="fill" d="M 214.68182373046875 53.75 L 472.78485107421875 53.75 L 472.78485107421875 63.75 L 214.68182373046875 63.75 L 214.68182373046875 53.75" stroke-opacity="1" stroke-linejoin="bevel" stroke-miterlimit="10" stroke-dasharray="" clip-path="url(#fCpTxqzwTofm)"/><path fill="rgb(73,168,130)" stroke="none" paint-order="stroke" d="M 214.68182373046875 66.25 L 416.0641174316406 66.25 L 416.0641174316406 76.25 L 214.68182373046875 76.25 L 214.68182373046875 66.25" fill-opacity="1" clip-path="url(#fCpTxqzwTofm)"/><path fill="none" stroke="rgb(73,168,130)" paint-order="fill" d="M 214.68182373046875 66.25 L 416.0641174316406 66.25 L 416.0641174316406 76.25 L 214.68182373046875 76.25 L 214.68182373046875 66.25" stroke-opacity="1" stroke-linejoin="bevel" stroke-miterlimit="10" stroke-dasharray="" clip-path="url(#fCpTxqzwTofm)"/><path fill="none" stroke="rgb(0,0,0)" paint-order="fill" d="M 196.5 77.5 L 596.5 77.5" stroke-opacity="1" stroke-linejoin="bevel" stroke-miterlimit="10" stroke-dasharray=""/><path fill="none" stroke="rgb(0,0,0)" paint-order="fill" d="M 214.5 83.5 L 214.5 75.5 M 273.5 83.5 L 273.5 75.5 M 331.5 83.5 L 331.5 75.5 M 389.5 83.5 L 389.5 75.5 M 448.5 83.5 L 448.5 75.5 M 506.5 83.5 L 506.5 75.5 M 564.5 83.5 L 564.5 75.5" stroke-opacity="1" stroke-linejoin="bevel" stroke-miterlimit="10" stroke-dasharray=""/><path fill="none" stroke="rgb(0,0,0)" paint-order="fill" d="M 203.5 81.5 L 203.5 77.5 M 214.5 81.5 L 214.5 77.5 M 226.5 81.5 L 226.5 77.5 M 238.5 81.5 L 238.5 77.5 M 249.5 81.5 L 249.5 77.5 M 261.5 81.5 L 261.5 77.5 M 273.5 81.5 L 273.5 77.5 M 284.5 81.5 L 284.5 77.5 M 296.5 81.5 L 296.5 77.5 M 308.5 81.5 L 308.5 77.5 M 319.5 81.5 L 319.5 77.5 M 331.5 81.5 L 331.5 77.5 M 343.5 81.5 L 343.5 77.5 M 354.5 81.5 L 354.5 77.5 M 366.5 81.5 L 366.5 77.5 M 378.5 81.5 L 378.5 77.5 M 389.5 81.5 L 389.5 77.5 M 401.5 81.5 L 401.5 77.5 M 413.5 81.5 L 413.5 77.5 M 424.5 81.5 L 424.5 77.5 M 436.5 81.5 L 436.5 77.5 M 448.5 81.5 L 448.5 77.5 M 459.5 81.5 L 459.5 77.5 M 471.5 81.5 L 471.5 77.5 M 483.5 81.5 L 483.5 77.5 M 494.5 81.5 L 494.5 77.5 M 506.5 81.5 L 506.5 77.5 M 518.5 81.5 L 518.5 77.5 M 529.5 81.5 L 529.5 77.5 M 541.5 81.5 L 541.5 77.5 M 553.5 81.5 L 553.5 77.5 M 564.5 81.5 L 564.5 77.5 M 576.5 81.5 L 576.5 77.5 M 588.5 81.5 L 588.5 77.5" stroke-opacity="1" stroke-linejoin="bevel" stroke-miterlimit="10" stroke-dasharray=""/><text fill="rgb(68,68,68)" stroke="none" font-family="helvetica" font-size="11px" font-style="normal" font-weight="normal" text-decoration="normal" x="208.06414794921875" y="91.945068359375" text-anchor="start" dominant-baseline="alphabetic" transform="matrix(0.7071067811865476, -0.7071067811865475, 0.7071067811865475, 0.7071067811865476, 1.0070070193362994, 177.72402322230005)" fill-opacity="1">0</text><text fill="rgb(68,68,68)" stroke="none" font-family="helvetica" font-size="11px" font-style="normal" font-weight="normal" text-decoration="normal" x="251.12850952148438" y="91.945068359375" text-anchor="start" dominant-baseline="alphabetic" transform="matrix(0.7071067811865476, -0.7071067811865475, 0.7071067811865475, 0.7071067811865476, 18.09904429598359, 218.9878514241684)" fill-opacity="1">0.02</text><text fill="rgb(68,68,68)" stroke="none" font-family="helvetica" font-size="11px" font-style="normal" font-weight="normal" text-decoration="normal" x="309.4844055175781" y="91.945068359375" text-anchor="start" dominant-baseline="alphabetic" transform="matrix(0.7071067811865476, -0.7071067811865475, 0.7071067811865475, 0.7071067811865476, 35.19109051102254, 260.2517012052232)" fill-opacity="1">0.04</text><text fill="rgb(68,68,68)" stroke="none" font-family="helvetica" font-size="11px" font-style="normal" font-weight="normal" text-decoration="normal" x="367.8403015136719" y="91.945068359375" text-anchor="start" dominant-baseline="alphabetic" transform="matrix(0.7071067811865476, -0.7071067811865475, 0.7071067811865475, 0.7071067811865476, 52.283136726061514, 301.515550986278)" fill-opacity="1">0.06</text><text fill="rgb(68,68,68)" stroke="none" font-family="helvetica" font-size="11px" font-style="normal" font-weight="normal" text-decoration="normal" x="426.1961975097656" y="91.945068359375" text-anchor="start" dominant-baseline="alphabetic" transform="matrix(0.7071067811865476, -0.7071067811865475, 0.7071067811865475, 0.7071067811865476, 69.37518294110043, 342.7794007673328)" fill-opacity="1">0.08</text><text fill="rgb(68,68,68)" stroke="none" font-family="helvetica" font-size="11px" font-style="normal" font-weight="normal" text-decoration="normal" x="490.66973876953125" y="91.945068359375" text-anchor="start" dominant-baseline="alphabetic" transform="matrix(0.7071067811865476, -0.7071067811865475, 0.7071067811865475, 0.7071067811865476, 86.46722021774775, 384.0432289692011)" fill-opacity="1">0.1</text><text fill="rgb(68,68,68)" stroke="none" font-family="helvetica" font-size="11px" font-style="normal" font-weight="normal" text-decoration="normal" x="542.907958984375" y="91.945068359375" text-anchor="start" dominant-baseline="alphabetic" transform="matrix(0.7071067811865476, -0.7071067811865475, 0.7071067811865475, 0.7071067811865476, 103.55926643278667, 425.3070787502559)" fill-opacity="1">0.12</text><text fill="rgb(68,68,68)" stroke="none" font-family="helvetica" font-size="13px" font-style="italic" font-weight="normal" text-decoration="normal" x="363.484130859375" y="128.71774531498966" text-anchor="start" dominant-baseline="alphabetic" transform="matrix(1, 0, 0, 1, 0.5, 0.5)" fill-opacity="1">Importance</text><path fill="none" stroke="rgb(0,0,0)" paint-order="fill" d="M 196.5 77.5 L 196.5 27.5" stroke-opacity="1" stroke-linejoin="bevel" stroke-miterlimit="10" stroke-dasharray=""/><path fill="none" stroke="rgb(0,0,0)" paint-order="fill" d="M 190.5 71.5 L 198.5 71.5 M 190.5 58.5 L 198.5 58.5 M 190.5 46.5 L 198.5 46.5 M 190.5 33.5 L 198.5 33.5" stroke-opacity="1" stroke-linejoin="bevel" stroke-miterlimit="10" stroke-dasharray=""/><path fill="none" stroke="rgb(0,0,0)" paint-order="fill" d="" stroke-opacity="1" stroke-linejoin="bevel" stroke-miterlimit="10" stroke-dasharray=""/><text fill="rgb(68,68,68)" stroke="none" font-family="helvetica" font-size="11px" font-style="normal" font-weight="normal" text-decoration="normal" x="73.12548828125" y="74.25" text-anchor="start" dominant-baseline="alphabetic" transform="matrix(1, 0, 0, 1, 0.5, 0.5)" fill-opacity="1">Coenzyme metabolism</text><text fill="rgb(68,68,68)" stroke="none" font-family="helvetica" font-size="11px" font-style="normal" font-weight="normal" text-decoration="normal" x="43.1708984375" y="61.75" text-anchor="start" dominant-baseline="alphabetic" transform="matrix(1, 0, 0, 1, 0.5, 0.5)" fill-opacity="1">Cell cycle control and mitosis</text><text fill="rgb(68,68,68)" stroke="none" font-family="helvetica" font-size="11px" font-style="normal" font-weight="normal" text-decoration="normal" x="18.06103515625" y="49.25" text-anchor="start" dominant-baseline="alphabetic" transform="matrix(1, 0, 0, 1, 0.5, 0.5)" fill-opacity="1">Energy production and conversion</text><text fill="rgb(68,68,68)" stroke="none" font-family="helvetica" font-size="11px" font-style="normal" font-weight="normal" text-decoration="normal" x="3.4140625" y="36.75" text-anchor="start" dominant-baseline="alphabetic" transform="matrix(1, 0, 0, 1, 0.5, 0.5)" fill-opacity="1">Amino acid metabolism and transport</text><path fill="none" stroke="none"/><text fill="rgb(68,68,68)" stroke="none" font-family="helvetica" font-size="13px" font-style="normal" font-weight="bold" text-decoration="normal" x="0" y="0" text-anchor="start" dominant-baseline="text-after-edge" transform="matrix(1, 0, 0, 1, 196.5, 22.5)" fill-opacity="1">Latitude</text></svg>