<svg version="1.1" xmlns="http://www.w3.org/2000/svg" xmlns:xlink="http://www.w3.org/1999/xlink" width="601" height="130"><defs><clipPath id="TxAFSvbNmZHV"><path fill="none" stroke="none" d="M 196.5 27.5 L 596.5 27.5 L 596.5 77.5 L 196.5 77.5 L 196.5 27.5"/></clipPath><clipPath id="EQWinEKgOAuz"><path fill="none" stroke="none" d="M 196.5 27.5 L 596.5 27.5 L 596.5 77.5 L 196.5 77.5 L 196.5 27.5"/></clipPath><clipPath id="mJRftWUCNTPJ"><path fill="none" stroke="none" d="M 196.5 27.5 L 596.5 27.5 L 596.5 77.5 L 196.5 77.5 L 196.5 27.5"/></clipPath><clipPath id="BMktcEdQvvFx"><path fill="none" stroke="none" d="M 196.5 27.5 L 596.5 27.5 L 596.5 77.5 L 196.5 77.5 L 196.5 27.5"/></clipPath></defs><path fill="none" stroke="rgb(229,229,229)" paint-order="fill" d="M 196.5 27.5 L 596.5 27.5 L 596.5 77.5 L 196.5 77.5 L 196.5 27.5" stroke-opacity="1" stroke-linejoin="bevel" stroke-miterlimit="10" stroke-dasharray=""/><path fill="none" stroke="rgb(229,229,229)" paint-order="fill" d="M 214.5 77.5 L 214.5 27.5 M 301.5 77.5 L 301.5 27.5 M 387.5 77.5 L 387.5 27.5 M 474.5 77.5 L 474.5 27.5 M 561.5 77.5 L 561.5 27.5" stroke-opacity="1" stroke-linejoin="bevel" stroke-miterlimit="10" stroke-dasharray="" clip-path="url(#TxAFSvbNmZHV)"/><path fill="none" stroke="rgb(229,229,229)" paint-order="fill" d="M 196.5 71.5 L 596.5 71.5 M 196.5 58.5 L 596.5 58.5 M 196.5 46.5 L 596.5 46.5 M 196.5 33.5 L 596.5 33.5" stroke-opacity="1" stroke-linejoin="bevel" stroke-miterlimit="10" stroke-dasharray="" clip-path="url(#EQWinEKgOAuz)"/><path fill="none" stroke="none"/><path fill="rgb(245,236,144)" stroke="none" paint-order="stroke" d="M 214.68182373046875 28.75 L 578.3181762695312 28.75 L 578.3181762695312 38.75 L 214.68182373046875 38.75 L 214.68182373046875 28.75" fill-opacity="1" clip-path="url(#mJRftWUCNTPJ)"/><path fill="none" stroke="rgb(245,236,144)" paint-order="fill" d="M 214.68182373046875 28.75 L 578.3181762695312 28.75 L 578.3181762695312 38.75 L 214.68182373046875 38.75 L 214.68182373046875 28.75" stroke-opacity="1" stroke-linejoin="bevel" stroke-miterlimit="10" stroke-dasharray="" clip-path="url(#mJRftWUCNTPJ)"/><path fill="rgb(104,195,112)" stroke="none" paint-order="stroke" d="M 214.68182373046875 41.25 L 305.76123046875 41.25 L 305.76123046875 51.25 L 214.68182373046875 51.25 L 214.68182373046875 41.25" fill-opacity="1" clip-path="url(#mJRftWUCNTPJ)"/><path fill="none" stroke="rgb(104,195,112)" paint-order="fill" d="M 214.68182373046875 41.25 L 305.76123046875 41.25 L 305.76123046875 51.25 L 214.68182373046875 51.25 L 214.68182373046875 41.25" stroke-opacity="1" stroke-linejoin="bevel" stroke-miterlimit="10" stroke-dasharray="" clip-path="url(#mJRftWUCNTPJ)"/><path fill="rgb(76,173,128)" stroke="none" paint-order="stroke" d="M 214.68182373046875 53.75 L 281.1443786621094 53.75 L 281.1443786621094 63.75 L 214.68182373046875 63.75 L 214.68182373046875 53.75" fill-opacity="1" clip-path="url(#mJRftWUCNTPJ)"/><path fill="none" stroke="rgb(76,173,128)" paint-order="fill" d="M 214.68182373046875 53.75 L 281.1443786621094 53.75 L 281.1443786621094 63.75 L 214.68182373046875 63.75 L 214.68182373046875 53.75" stroke-opacity="1" stroke-linejoin="bevel" stroke-miterlimit="10" stroke-dasharray="" clip-path="url(#mJRftWUCNTPJ)"/><path fill="rgb(64,154,134)" stroke="none" paint-order="stroke" d="M 214.68182373046875 66.25 L 263.59033203125 66.25 L 263.59033203125 76.25 L 214.68182373046875 76.25 L 214.68182373046875 66.25" fill-opacity="1" clip-path="url(#mJRftWUCNTPJ)"/><path fill="none" stroke="rgb(64,154,134)" paint-order="fill" d="M 214.68182373046875 66.25 L 263.59033203125 66.25 L 263.59033203125 76.25 L 214.68182373046875 76.25 L 214.68182373046875 66.25" stroke-opacity="1" stroke-linejoin="bevel" stroke-miterlimit="10" stroke-dasharray="" clip-path="url(#mJRftWUCNTPJ)"/><path fill="none" stroke="rgb(0,0,0)" paint-order="fill" d="M 196.5 77.5 L 596.5 77.5" stroke-opacity="1" stroke-linejoin="bevel" stroke-miterlimit="10" stroke-dasharray=""/><path fill="none" stroke="rgb(0,0,0)" paint-order="fill" d="M 214.5 83.5 L 214.5 75.5 M 301.5 83.5 L 301.5 75.5 M 387.5 83.5 L 387.5 75.5 M 474.5 83.5 L 474.5 75.5 M 561.5 83.5 L 561.5 75.5" stroke-opacity="1" stroke-linejoin="bevel" stroke-miterlimit="10" stroke-dasharray=""/><path fill="none" stroke="rgb(0,0,0)" paint-order="fill" d="M 197.5 81.5 L 197.5 77.5 M 214.5 81.5 L 214.5 77.5 M 232.5 81.5 L 232.5 77.5 M 249.5 81.5 L 249.5 77.5 M 266.5 81.5 L 266.5 77.5 M 283.5 81.5 L 283.5 77.5 M 301.5 81.5 L 301.5 77.5 M 318.5 81.5 L 318.5 77.5 M 335.5 81.5 L 335.5 77.5 M 353.5 81.5 L 353.5 77.5 M 370.5 81.5 L 370.5 77.5 M 387.5 81.5 L 387.5 77.5 M 405.5 81.5 L 405.5 77.5 M 422.5 81.5 L 422.5 77.5 M 439.5 81.5 L 439.5 77.5 M 457.5 81.5 L 457.5 77.5 M 474.5 81.5 L 474.5 77.5 M 491.5 81.5 L 491.5 77.5 M 509.5 81.5 L 509.5 77.5 M 526.5 81.5 L 526.5 77.5 M 543.5 81.5 L 543.5 77.5 M 561.5 81.5 L 561.5 77.5 M 578.5 81.5 L 578.5 77.5 M 595.5 81.5 L 595.5 77.5" stroke-opacity="1" stroke-linejoin="bevel" stroke-miterlimit="10" stroke-dasharray=""/><text fill="rgb(68,68,68)" stroke="none" font-family="helvetica" font-size="11px" font-style="normal" font-weight="normal" text-decoration="normal" x="208.06414794921875" y="91.945068359375" text-anchor="start" dominant-baseline="alphabetic" transform="matrix(0.7071067811865476, -0.7071067811865475, 0.7071067811865475, 0.7071067811865476, 1.0070070193362994, 177.72402322230005)" fill-opacity="1">0</text><text fill="rgb(68,68,68)" stroke="none" font-family="helvetica" font-size="11px" font-style="normal" font-weight="normal" text-decoration="normal" x="285.50579833984375" y="91.945068359375" text-anchor="start" dominant-baseline="alphabetic" transform="matrix(0.7071067811865476, -0.7071067811865475, 0.7071067811865475, 0.7071067811865476, 26.376093320845143, 238.9704154364162)" fill-opacity="1">0.1</text><text fill="rgb(68,68,68)" stroke="none" font-family="helvetica" font-size="11px" font-style="normal" font-weight="normal" text-decoration="normal" x="372.12127685546875" y="91.945068359375" text-anchor="start" dominant-baseline="alphabetic" transform="matrix(0.7071067811865476, -0.7071067811865475, 0.7071067811865475, 0.7071067811865476, 51.74517962235399, 300.21680765053236)" fill-opacity="1">0.2</text><text fill="rgb(68,68,68)" stroke="none" font-family="helvetica" font-size="11px" font-style="normal" font-weight="normal" text-decoration="normal" x="458.7367248535156" y="91.945068359375" text-anchor="start" dominant-baseline="alphabetic" transform="matrix(0.7071067811865476, -0.7071067811865475, 0.7071067811865475, 0.7071067811865476, 77.11425698547112, 361.4631782854621)" fill-opacity="1">0.3</text><text fill="rgb(68,68,68)" stroke="none" font-family="helvetica" font-size="11px" font-style="normal" font-weight="normal" text-decoration="normal" x="545.3522338867188" y="91.945068359375" text-anchor="start" dominant-baseline="alphabetic" transform="matrix(0.7071067811865476, -0.7071067811865475, 0.7071067811865475, 0.7071067811865476, 102.48335222537168, 422.7095920787647)" fill-opacity="1">0.4</text><text fill="rgb(68,68,68)" stroke="none" font-family="helvetica" font-size="13px" font-style="italic" font-weight="normal" text-decoration="normal" x="363.484130859375" y="124.39189528496706" text-anchor="start" dominant-baseline="alphabetic" transform="matrix(1, 0, 0, 1, 0.5, 0.5)" fill-opacity="1">Importance</text><path fill="none" stroke="rgb(0,0,0)" paint-order="fill" d="M 196.5 77.5 L 196.5 27.5" stroke-opacity="1" stroke-linejoin="bevel" stroke-miterlimit="10" stroke-dasharray=""/><path fill="none" stroke="rgb(0,0,0)" paint-order="fill" d="M 190.5 71.5 L 198.5 71.5 M 190.5 58.5 L 198.5 58.5 M 190.5 46.5 L 198.5 46.5 M 190.5 33.5 L 198.5 33.5" stroke-opacity="1" stroke-linejoin="bevel" stroke-miterlimit="10" stroke-dasharray=""/><path fill="none" stroke="rgb(0,0,0)" paint-order="fill" d="" stroke-opacity="1" stroke-linejoin="bevel" stroke-miterlimit="10" stroke-dasharray=""/><text fill="rgb(68,68,68)" stroke="none" font-family="helvetica" font-size="11px" font-style="normal" font-weight="normal" text-decoration="normal" x="102.46240234375" y="74.25" text-anchor="start" dominant-baseline="alphabetic" transform="matrix(1, 0, 0, 1, 0.5, 0.5)" fill-opacity="1">Lipid metabolism</text><text fill="rgb(68,68,68)" stroke="none" font-family="helvetica" font-size="11px" font-style="normal" font-weight="normal" text-decoration="normal" x="18.06103515625" y="61.75" text-anchor="start" dominant-baseline="alphabetic" transform="matrix(1, 0, 0, 1, 0.5, 0.5)" fill-opacity="1">Energy production and conversion</text><text fill="rgb(68,68,68)" stroke="none" font-family="helvetica" font-size="11px" font-style="normal" font-weight="normal" text-decoration="normal" x="3.4140625" y="49.25" text-anchor="start" dominant-baseline="alphabetic" transform="matrix(1, 0, 0, 1, 0.5, 0.5)" fill-opacity="1">Amino acid metabolism and transport</text><text fill="rgb(68,68,68)" stroke="none" font-family="helvetica" font-size="11px" font-style="normal" font-weight="normal" text-decoration="normal" x="128.77001953125" y="36.75" text-anchor="start" dominant-baseline="alphabetic" transform="matrix(1, 0, 0, 1, 0.5, 0.5)" fill-opacity="1">Cell motility</text><path fill="none" stroke="none"/><text fill="rgb(68,68,68)" stroke="none" font-family="helvetica" font-size="13px" font-style="normal" font-weight="bold" text-decoration="normal" x="0" y="0" text-anchor="start" dominant-baseline="text-after-edge" transform="matrix(1, 0, 0, 1, 196.5, 22.5)" fill-opacity="1">Oxygen (µmol/kg)</text></svg>