<svg version="1.1" xmlns="http://www.w3.org/2000/svg" xmlns:xlink="http://www.w3.org/1999/xlink" width="613" height="135"><defs><clipPath id="HsiQvIbupnla"><path fill="none" stroke="none" d="M 208.5 27.5 L 608.5 27.5 L 608.5 77.5 L 208.5 77.5 L 208.5 27.5"/></clipPath><clipPath id="JoTcKZHXAMUp"><path fill="none" stroke="none" d="M 208.5 27.5 L 608.5 27.5 L 608.5 77.5 L 208.5 77.5 L 208.5 27.5"/></clipPath><clipPath id="DgbkdHoBGxct"><path fill="none" stroke="none" d="M 208.5 27.5 L 608.5 27.5 L 608.5 77.5 L 208.5 77.5 L 208.5 27.5"/></clipPath><clipPath id="LxnqlAMyFTEz"><path fill="none" stroke="none" d="M 208.5 27.5 L 608.5 27.5 L 608.5 77.5 L 208.5 77.5 L 208.5 27.5"/></clipPath></defs><path fill="none" stroke="rgb(229,229,229)" paint-order="fill" d="M 208.5 27.5 L 608.5 27.5 L 608.5 77.5 L 208.5 77.5 L 208.5 27.5" stroke-opacity="1" stroke-linejoin="bevel" stroke-miterlimit="10" stroke-dasharray=""/><path fill="none" stroke="rgb(229,229,229)" paint-order="fill" d="M 226.5 77.5 L 226.5 27.5 M 303.5 77.5 L 303.5 27.5 M 380.5 77.5 L 380.5 27.5 M 458.5 77.5 L 458.5 27.5 M 535.5 77.5 L 535.5 27.5" stroke-opacity="1" stroke-linejoin="bevel" stroke-miterlimit="10" stroke-dasharray="" clip-path="url(#HsiQvIbupnla)"/><path fill="none" stroke="rgb(229,229,229)" paint-order="fill" d="M 208.5 71.5 L 608.5 71.5 M 208.5 58.5 L 608.5 58.5 M 208.5 46.5 L 608.5 46.5 M 208.5 33.5 L 608.5 33.5" stroke-opacity="1" stroke-linejoin="bevel" stroke-miterlimit="10" stroke-dasharray="" clip-path="url(#JoTcKZHXAMUp)"/><path fill="none" stroke="none"/><path fill="rgb(132,207,98)" stroke="none" paint-order="stroke" d="M 226.68182373046875 28.75 L 590.3181762695312 28.75 L 590.3181762695312 38.75 L 226.68182373046875 38.75 L 226.68182373046875 28.75" fill-opacity="1" clip-path="url(#DgbkdHoBGxct)"/><path fill="none" stroke="rgb(132,207,98)" paint-order="fill" d="M 226.68182373046875 28.75 L 590.3181762695312 28.75 L 590.3181762695312 38.75 L 226.68182373046875 38.75 L 226.68182373046875 28.75" stroke-opacity="1" stroke-linejoin="bevel" stroke-miterlimit="10" stroke-dasharray="" clip-path="url(#DgbkdHoBGxct)"/><path fill="rgb(97,191,116)" stroke="none" paint-order="stroke" d="M 226.68182373046875 41.25 L 483.2932434082031 41.25 L 483.2932434082031 51.25 L 226.68182373046875 51.25 L 226.68182373046875 41.25" fill-opacity="1" clip-path="url(#DgbkdHoBGxct)"/><path fill="none" stroke="rgb(97,191,116)" paint-order="fill" d="M 226.68182373046875 41.25 L 483.2932434082031 41.25 L 483.2932434082031 51.25 L 226.68182373046875 51.25 L 226.68182373046875 41.25" stroke-opacity="1" stroke-linejoin="bevel" stroke-miterlimit="10" stroke-dasharray="" clip-path="url(#DgbkdHoBGxct)"/><path fill="rgb(93,188,118)" stroke="none" paint-order="stroke" d="M 226.68182373046875 53.75 L 399.7887268066406 53.75 L 399.7887268066406 63.75 L 226.68182373046875 63.75 L 226.68182373046875 53.75" fill-opacity="1" clip-path="url(#DgbkdHoBGxct)"/><path fill="none" stroke="rgb(93,188,118)" paint-order="fill" d="M 226.68182373046875 53.75 L 399.7887268066406 53.75 L 399.7887268066406 63.75 L 226.68182373046875 63.75 L 226.68182373046875 53.75" stroke-opacity="1" stroke-linejoin="bevel" stroke-miterlimit="10" stroke-dasharray="" clip-path="url(#DgbkdHoBGxct)"/><path fill="rgb(66,158,133)" stroke="none" paint-order="stroke" d="M 226.68182373046875 66.25 L 314.81036376953125 66.25 L 314.81036376953125 76.25 L 226.68182373046875 76.25 L 226.68182373046875 66.25" fill-opacity="1" clip-path="url(#DgbkdHoBGxct)"/><path fill="none" stroke="rgb(66,158,133)" paint-order="fill" d="M 226.68182373046875 66.25 L 314.81036376953125 66.25 L 314.81036376953125 76.25 L 226.68182373046875 76.25 L 226.68182373046875 66.25" stroke-opacity="1" stroke-linejoin="bevel" stroke-miterlimit="10" stroke-dasharray="" clip-path="url(#DgbkdHoBGxct)"/><path fill="none" stroke="rgb(0,0,0)" paint-order="fill" d="M 208.5 77.5 L 608.5 77.5" stroke-opacity="1" stroke-linejoin="bevel" stroke-miterlimit="10" stroke-dasharray=""/><path fill="none" stroke="rgb(0,0,0)" paint-order="fill" d="M 226.5 83.5 L 226.5 75.5 M 303.5 83.5 L 303.5 75.5 M 380.5 83.5 L 380.5 75.5 M 458.5 83.5 L 458.5 75.5 M 535.5 83.5 L 535.5 75.5" stroke-opacity="1" stroke-linejoin="bevel" stroke-miterlimit="10" stroke-dasharray=""/><path fill="none" stroke="rgb(0,0,0)" paint-order="fill" d="M 211.5 81.5 L 211.5 77.5 M 226.5 81.5 L 226.5 77.5 M 242.5 81.5 L 242.5 77.5 M 257.5 81.5 L 257.5 77.5 M 272.5 81.5 L 272.5 77.5 M 288.5 81.5 L 288.5 77.5 M 303.5 81.5 L 303.5 77.5 M 319.5 81.5 L 319.5 77.5 M 334.5 81.5 L 334.5 77.5 M 350.5 81.5 L 350.5 77.5 M 365.5 81.5 L 365.5 77.5 M 380.5 81.5 L 380.5 77.5 M 396.5 81.5 L 396.5 77.5 M 411.5 81.5 L 411.5 77.5 M 427.5 81.5 L 427.5 77.5 M 442.5 81.5 L 442.5 77.5 M 458.5 81.5 L 458.5 77.5 M 473.5 81.5 L 473.5 77.5 M 488.5 81.5 L 488.5 77.5 M 504.5 81.5 L 504.5 77.5 M 519.5 81.5 L 519.5 77.5 M 535.5 81.5 L 535.5 77.5 M 550.5 81.5 L 550.5 77.5 M 566.5 81.5 L 566.5 77.5 M 581.5 81.5 L 581.5 77.5 M 596.5 81.5 L 596.5 77.5" stroke-opacity="1" stroke-linejoin="bevel" stroke-miterlimit="10" stroke-dasharray=""/><text fill="rgb(68,68,68)" stroke="none" font-family="helvetica" font-size="11px" font-style="normal" font-weight="normal" text-decoration="normal" x="220.06414794921875" y="91.945068359375" text-anchor="start" dominant-baseline="alphabetic" transform="matrix(0.7071067811865476, -0.7071067811865475, 0.7071067811865475, 0.7071067811865476, 4.521725645097746, 186.20930459653863)" fill-opacity="1">0</text><text fill="rgb(68,68,68)" stroke="none" font-family="helvetica" font-size="11px" font-style="normal" font-weight="normal" text-decoration="normal" x="281.9190673828125" y="91.945068359375" text-anchor="start" dominant-baseline="alphabetic" transform="matrix(0.7071067811865476, -0.7071067811865475, 0.7071067811865475, 0.7071067811865476, 27.11738989704986, 240.7600636844303)" fill-opacity="1">0.05</text><text fill="rgb(68,68,68)" stroke="none" font-family="helvetica" font-size="11px" font-style="normal" font-weight="normal" text-decoration="normal" x="365.1831970214844" y="91.945068359375" text-anchor="start" dominant-baseline="alphabetic" transform="matrix(0.7071067811865476, -0.7071067811865475, 0.7071067811865475, 0.7071067811865476, 49.71306308739361, 295.31084435150836)" fill-opacity="1">0.1</text><text fill="rgb(68,68,68)" stroke="none" font-family="helvetica" font-size="11px" font-style="normal" font-weight="normal" text-decoration="normal" x="436.2119445800781" y="91.945068359375" text-anchor="start" dominant-baseline="alphabetic" transform="matrix(0.7071067811865476, -0.7071067811865475, 0.7071067811865475, 0.7071067811865476, 72.3087273393457, 349.8616034394)" fill-opacity="1">0.15</text><text fill="rgb(68,68,68)" stroke="none" font-family="helvetica" font-size="11px" font-style="normal" font-weight="normal" text-decoration="normal" x="519.47607421875" y="91.945068359375" text-anchor="start" dominant-baseline="alphabetic" transform="matrix(0.7071067811865476, -0.7071067811865475, 0.7071067811865475, 0.7071067811865476, 94.90440052968944, 404.4123841064781)" fill-opacity="1">0.2</text><text fill="rgb(68,68,68)" stroke="none" font-family="helvetica" font-size="13px" font-style="italic" font-weight="normal" text-decoration="normal" x="375.484130859375" y="128.71774531498966" text-anchor="start" dominant-baseline="alphabetic" transform="matrix(1, 0, 0, 1, 0.5, 0.5)" fill-opacity="1">Importance</text><path fill="none" stroke="rgb(0,0,0)" paint-order="fill" d="M 208.5 77.5 L 208.5 27.5" stroke-opacity="1" stroke-linejoin="bevel" stroke-miterlimit="10" stroke-dasharray=""/><path fill="none" stroke="rgb(0,0,0)" paint-order="fill" d="M 202.5 71.5 L 210.5 71.5 M 202.5 58.5 L 210.5 58.5 M 202.5 46.5 L 210.5 46.5 M 202.5 33.5 L 210.5 33.5" stroke-opacity="1" stroke-linejoin="bevel" stroke-miterlimit="10" stroke-dasharray=""/><path fill="none" stroke="rgb(0,0,0)" paint-order="fill" d="" stroke-opacity="1" stroke-linejoin="bevel" stroke-miterlimit="10" stroke-dasharray=""/><text fill="rgb(68,68,68)" stroke="none" font-family="helvetica" font-size="11px" font-style="normal" font-weight="normal" text-decoration="normal" x="55.1708984375" y="74.25" text-anchor="start" dominant-baseline="alphabetic" transform="matrix(1, 0, 0, 1, 0.5, 0.5)" fill-opacity="1">Cell cycle control and mitosis</text><text fill="rgb(68,68,68)" stroke="none" font-family="helvetica" font-size="11px" font-style="normal" font-weight="normal" text-decoration="normal" x="98.56396484375" y="61.75" text-anchor="start" dominant-baseline="alphabetic" transform="matrix(1, 0, 0, 1, 0.5, 0.5)" fill-opacity="1">Secondary structure</text><text fill="rgb(68,68,68)" stroke="none" font-family="helvetica" font-size="11px" font-style="normal" font-weight="normal" text-decoration="normal" x="3.1787109375" y="49.25" text-anchor="start" dominant-baseline="alphabetic" transform="matrix(1, 0, 0, 1, 0.5, 0.5)" fill-opacity="1">Carbohydrate metabolism and transport</text><text fill="rgb(68,68,68)" stroke="none" font-family="helvetica" font-size="11px" font-style="normal" font-weight="normal" text-decoration="normal" x="114.46240234375" y="36.75" text-anchor="start" dominant-baseline="alphabetic" transform="matrix(1, 0, 0, 1, 0.5, 0.5)" fill-opacity="1">Lipid metabolism</text><path fill="none" stroke="none"/><text fill="rgb(68,68,68)" stroke="none" font-family="helvetica" font-size="13px" font-style="normal" font-weight="bold" text-decoration="normal" x="0" y="0" text-anchor="start" dominant-baseline="text-after-edge" transform="matrix(1, 0, 0, 1, 208.5, 22.5)" fill-opacity="1">NO2 (µmol/L)</text></svg>