<svg version="1.1" xmlns="http://www.w3.org/2000/svg" xmlns:xlink="http://www.w3.org/1999/xlink" width="619" height="135"><defs><clipPath id="URXJTSpEeuqF"><path fill="none" stroke="none" d="M 214.5 27.5 L 614.5 27.5 L 614.5 77.5 L 214.5 77.5 L 214.5 27.5"/></clipPath><clipPath id="QDTHkerocrcx"><path fill="none" stroke="none" d="M 214.5 27.5 L 614.5 27.5 L 614.5 77.5 L 214.5 77.5 L 214.5 27.5"/></clipPath><clipPath id="hsxnIIewpzmz"><path fill="none" stroke="none" d="M 214.5 27.5 L 614.5 27.5 L 614.5 77.5 L 214.5 77.5 L 214.5 27.5"/></clipPath><clipPath id="nshdREpdyULD"><path fill="none" stroke="none" d="M 214.5 27.5 L 614.5 27.5 L 614.5 77.5 L 214.5 77.5 L 214.5 27.5"/></clipPath></defs><path fill="none" stroke="rgb(229,229,229)" paint-order="fill" d="M 214.5 27.5 L 614.5 27.5 L 614.5 77.5 L 214.5 77.5 L 214.5 27.5" stroke-opacity="1" stroke-linejoin="bevel" stroke-miterlimit="10" stroke-dasharray=""/><path fill="none" stroke="rgb(229,229,229)" paint-order="fill" d="M 232.5 77.5 L 232.5 27.5 M 290.5 77.5 L 290.5 27.5 M 349.5 77.5 L 349.5 27.5 M 407.5 77.5 L 407.5 27.5 M 465.5 77.5 L 465.5 27.5 M 523.5 77.5 L 523.5 27.5 M 581.5 77.5 L 581.5 27.5" stroke-opacity="1" stroke-linejoin="bevel" stroke-miterlimit="10" stroke-dasharray="" clip-path="url(#URXJTSpEeuqF)"/><path fill="none" stroke="rgb(229,229,229)" paint-order="fill" d="M 214.5 71.5 L 614.5 71.5 M 214.5 58.5 L 614.5 58.5 M 214.5 46.5 L 614.5 46.5 M 214.5 33.5 L 614.5 33.5" stroke-opacity="1" stroke-linejoin="bevel" stroke-miterlimit="10" stroke-dasharray="" clip-path="url(#QDTHkerocrcx)"/><path fill="none" stroke="none"/><path fill="rgb(165,215,92)" stroke="none" paint-order="stroke" d="M 232.68182373046875 28.75 L 596.3181762695312 28.75 L 596.3181762695312 38.75 L 232.68182373046875 38.75 L 232.68182373046875 28.75" fill-opacity="1" clip-path="url(#hsxnIIewpzmz)"/><path fill="none" stroke="rgb(165,215,92)" paint-order="fill" d="M 232.68182373046875 28.75 L 596.3181762695312 28.75 L 596.3181762695312 38.75 L 232.68182373046875 38.75 L 232.68182373046875 28.75" stroke-opacity="1" stroke-linejoin="bevel" stroke-miterlimit="10" stroke-dasharray="" clip-path="url(#hsxnIIewpzmz)"/><path fill="rgb(105,196,111)" stroke="none" paint-order="stroke" d="M 232.68182373046875 41.25 L 454.0289001464844 41.25 L 454.0289001464844 51.25 L 232.68182373046875 51.25 L 232.68182373046875 41.25" fill-opacity="1" clip-path="url(#hsxnIIewpzmz)"/><path fill="none" stroke="rgb(105,196,111)" paint-order="fill" d="M 232.68182373046875 41.25 L 454.0289001464844 41.25 L 454.0289001464844 51.25 L 232.68182373046875 51.25 L 232.68182373046875 41.25" stroke-opacity="1" stroke-linejoin="bevel" stroke-miterlimit="10" stroke-dasharray="" clip-path="url(#hsxnIIewpzmz)"/><path fill="rgb(93,188,118)" stroke="none" paint-order="stroke" d="M 232.68182373046875 53.75 L 397.170654296875 53.75 L 397.170654296875 63.75 L 232.68182373046875 63.75 L 232.68182373046875 53.75" fill-opacity="1" clip-path="url(#hsxnIIewpzmz)"/><path fill="none" stroke="rgb(93,188,118)" paint-order="fill" d="M 232.68182373046875 53.75 L 397.170654296875 53.75 L 397.170654296875 63.75 L 232.68182373046875 63.75 L 232.68182373046875 53.75" stroke-opacity="1" stroke-linejoin="bevel" stroke-miterlimit="10" stroke-dasharray="" clip-path="url(#hsxnIIewpzmz)"/><path fill="rgb(64,154,134)" stroke="none" paint-order="stroke" d="M 232.68182373046875 66.25 L 295.92181396484375 66.25 L 295.92181396484375 76.25 L 232.68182373046875 76.25 L 232.68182373046875 66.25" fill-opacity="1" clip-path="url(#hsxnIIewpzmz)"/><path fill="none" stroke="rgb(64,154,134)" paint-order="fill" d="M 232.68182373046875 66.25 L 295.92181396484375 66.25 L 295.92181396484375 76.25 L 232.68182373046875 76.25 L 232.68182373046875 66.25" stroke-opacity="1" stroke-linejoin="bevel" stroke-miterlimit="10" stroke-dasharray="" clip-path="url(#hsxnIIewpzmz)"/><path fill="none" stroke="rgb(0,0,0)" paint-order="fill" d="M 214.5 77.5 L 614.5 77.5" stroke-opacity="1" stroke-linejoin="bevel" stroke-miterlimit="10" stroke-dasharray=""/><path fill="none" stroke="rgb(0,0,0)" paint-order="fill" d="M 232.5 83.5 L 232.5 75.5 M 290.5 83.5 L 290.5 75.5 M 349.5 83.5 L 349.5 75.5 M 407.5 83.5 L 407.5 75.5 M 465.5 83.5 L 465.5 75.5 M 523.5 83.5 L 523.5 75.5 M 581.5 83.5 L 581.5 75.5" stroke-opacity="1" stroke-linejoin="bevel" stroke-miterlimit="10" stroke-dasharray=""/><path fill="none" stroke="rgb(0,0,0)" paint-order="fill" d="M 221.5 81.5 L 221.5 77.5 M 232.5 81.5 L 232.5 77.5 M 244.5 81.5 L 244.5 77.5 M 255.5 81.5 L 255.5 77.5 M 267.5 81.5 L 267.5 77.5 M 279.5 81.5 L 279.5 77.5 M 290.5 81.5 L 290.5 77.5 M 302.5 81.5 L 302.5 77.5 M 314.5 81.5 L 314.5 77.5 M 325.5 81.5 L 325.5 77.5 M 337.5 81.5 L 337.5 77.5 M 349.5 81.5 L 349.5 77.5 M 360.5 81.5 L 360.5 77.5 M 372.5 81.5 L 372.5 77.5 M 383.5 81.5 L 383.5 77.5 M 395.5 81.5 L 395.5 77.5 M 407.5 81.5 L 407.5 77.5 M 418.5 81.5 L 418.5 77.5 M 430.5 81.5 L 430.5 77.5 M 442.5 81.5 L 442.5 77.5 M 453.5 81.5 L 453.5 77.5 M 465.5 81.5 L 465.5 77.5 M 477.5 81.5 L 477.5 77.5 M 488.5 81.5 L 488.5 77.5 M 500.5 81.5 L 500.5 77.5 M 511.5 81.5 L 511.5 77.5 M 523.5 81.5 L 523.5 77.5 M 535.5 81.5 L 535.5 77.5 M 546.5 81.5 L 546.5 77.5 M 558.5 81.5 L 558.5 77.5 M 570.5 81.5 L 570.5 77.5 M 581.5 81.5 L 581.5 77.5 M 593.5 81.5 L 593.5 77.5 M 605.5 81.5 L 605.5 77.5" stroke-opacity="1" stroke-linejoin="bevel" stroke-miterlimit="10" stroke-dasharray=""/><text fill="rgb(68,68,68)" stroke="none" font-family="helvetica" font-size="11px" font-style="normal" font-weight="normal" text-decoration="normal" x="226.06414794921875" y="91.945068359375" text-anchor="start" dominant-baseline="alphabetic" transform="matrix(0.7071067811865476, -0.7071067811865475, 0.7071067811865475, 0.7071067811865476, 6.279084957978455, 190.4519452836579)" fill-opacity="1">0</text><text fill="rgb(68,68,68)" stroke="none" font-family="helvetica" font-size="11px" font-style="normal" font-weight="normal" text-decoration="normal" x="268.9559020996094" y="91.945068359375" text-anchor="start" dominant-baseline="alphabetic" transform="matrix(0.7071067811865476, -0.7071067811865475, 0.7071067811865475, 0.7071067811865476, 23.320566691241652, 231.59372160703532)" fill-opacity="1">0.05</text><text fill="rgb(68,68,68)" stroke="none" font-family="helvetica" font-size="11px" font-style="normal" font-weight="normal" text-decoration="normal" x="333.2568664550781" y="91.945068359375" text-anchor="start" dominant-baseline="alphabetic" transform="matrix(0.7071067811865476, -0.7071067811865475, 0.7071067811865475, 0.7071067811865476, 40.362057362896564, 272.73551950959916)" fill-opacity="1">0.1</text><text fill="rgb(68,68,68)" stroke="none" font-family="helvetica" font-size="11px" font-style="normal" font-weight="normal" text-decoration="normal" x="385.32244873046875" y="91.945068359375" text-anchor="start" dominant-baseline="alphabetic" transform="matrix(0.7071067811865476, -0.7071067811865475, 0.7071067811865475, 0.7071067811865476, 57.40353909615976, 313.8772958329766)" fill-opacity="1">0.15</text><text fill="rgb(68,68,68)" stroke="none" font-family="helvetica" font-size="11px" font-style="normal" font-weight="normal" text-decoration="normal" x="449.6233825683594" y="91.945068359375" text-anchor="start" dominant-baseline="alphabetic" transform="matrix(0.7071067811865476, -0.7071067811865475, 0.7071067811865475, 0.7071067811865476, 74.44502082942296, 355.019072156354)" fill-opacity="1">0.2</text><text fill="rgb(68,68,68)" stroke="none" font-family="helvetica" font-size="11px" font-style="normal" font-weight="normal" text-decoration="normal" x="501.68896484375" y="91.945068359375" text-anchor="start" dominant-baseline="alphabetic" transform="matrix(0.7071067811865476, -0.7071067811865475, 0.7071067811865475, 0.7071067811865476, 91.48650256268621, 396.1608484797314)" fill-opacity="1">0.25</text><text fill="rgb(68,68,68)" stroke="none" font-family="helvetica" font-size="11px" font-style="normal" font-weight="normal" text-decoration="normal" x="565.9899291992188" y="91.945068359375" text-anchor="start" dominant-baseline="alphabetic" transform="matrix(0.7071067811865476, -0.7071067811865475, 0.7071067811865475, 0.7071067811865476, 108.52799323434107, 437.3026463822952)" fill-opacity="1">0.3</text><text fill="rgb(68,68,68)" stroke="none" font-family="helvetica" font-size="13px" font-style="italic" font-weight="normal" text-decoration="normal" x="381.484130859375" y="128.71774531498966" text-anchor="start" dominant-baseline="alphabetic" transform="matrix(1, 0, 0, 1, 0.5, 0.5)" fill-opacity="1">Importance</text><path fill="none" stroke="rgb(0,0,0)" paint-order="fill" d="M 214.5 77.5 L 214.5 27.5" stroke-opacity="1" stroke-linejoin="bevel" stroke-miterlimit="10" stroke-dasharray=""/><path fill="none" stroke="rgb(0,0,0)" paint-order="fill" d="M 208.5 71.5 L 216.5 71.5 M 208.5 58.5 L 216.5 58.5 M 208.5 46.5 L 216.5 46.5 M 208.5 33.5 L 216.5 33.5" stroke-opacity="1" stroke-linejoin="bevel" stroke-miterlimit="10" stroke-dasharray=""/><path fill="none" stroke="rgb(0,0,0)" paint-order="fill" d="" stroke-opacity="1" stroke-linejoin="bevel" stroke-miterlimit="10" stroke-dasharray=""/><text fill="rgb(68,68,68)" stroke="none" font-family="helvetica" font-size="11px" font-style="normal" font-weight="normal" text-decoration="normal" x="104.56396484375" y="74.25" text-anchor="start" dominant-baseline="alphabetic" transform="matrix(1, 0, 0, 1, 0.5, 0.5)" fill-opacity="1">Secondary structure</text><text fill="rgb(68,68,68)" stroke="none" font-family="helvetica" font-size="11px" font-style="normal" font-weight="normal" text-decoration="normal" x="23.8525390625" y="61.75" text-anchor="start" dominant-baseline="alphabetic" transform="matrix(1, 0, 0, 1, 0.5, 0.5)" fill-opacity="1">Nucleotide metabolism and transport</text><text fill="rgb(68,68,68)" stroke="none" font-family="helvetica" font-size="11px" font-style="normal" font-weight="normal" text-decoration="normal" x="3.0556640625" y="49.25" text-anchor="start" dominant-baseline="alphabetic" transform="matrix(1, 0, 0, 1, 0.5, 0.5)" fill-opacity="1">Cell wall/membrane/envelope biogenesis</text><text fill="rgb(68,68,68)" stroke="none" font-family="helvetica" font-size="11px" font-style="normal" font-weight="normal" text-decoration="normal" x="146.77001953125" y="36.75" text-anchor="start" dominant-baseline="alphabetic" transform="matrix(1, 0, 0, 1, 0.5, 0.5)" fill-opacity="1">Cell motility</text><path fill="none" stroke="none"/><text fill="rgb(68,68,68)" stroke="none" font-family="helvetica" font-size="13px" font-style="normal" font-weight="bold" text-decoration="normal" x="0" y="0" text-anchor="start" dominant-baseline="text-after-edge" transform="matrix(1, 0, 0, 1, 214.5, 22.5)" fill-opacity="1">PO4 (µmol/L)</text></svg>