<svg version="1.1" xmlns="http://www.w3.org/2000/svg" xmlns:xlink="http://www.w3.org/1999/xlink" width="619" height="135"><defs><clipPath id="ncsLTgBRpVEv"><path fill="none" stroke="none" d="M 214.5 27.5 L 614.5 27.5 L 614.5 77.5 L 214.5 77.5 L 214.5 27.5"/></clipPath><clipPath id="agoVpZZWSrAk"><path fill="none" stroke="none" d="M 214.5 27.5 L 614.5 27.5 L 614.5 77.5 L 214.5 77.5 L 214.5 27.5"/></clipPath><clipPath id="owIGRJzlxQWc"><path fill="none" stroke="none" d="M 214.5 27.5 L 614.5 27.5 L 614.5 77.5 L 214.5 77.5 L 214.5 27.5"/></clipPath><clipPath id="eGLXpfdEFrsp"><path fill="none" stroke="none" d="M 214.5 27.5 L 614.5 27.5 L 614.5 77.5 L 214.5 77.5 L 214.5 27.5"/></clipPath></defs><path fill="none" stroke="rgb(229,229,229)" paint-order="fill" d="M 214.5 27.5 L 614.5 27.5 L 614.5 77.5 L 214.5 77.5 L 214.5 27.5" stroke-opacity="1" stroke-linejoin="bevel" stroke-miterlimit="10" stroke-dasharray=""/><path fill="none" stroke="rgb(229,229,229)" paint-order="fill" d="M 232.5 77.5 L 232.5 27.5 M 290.5 77.5 L 290.5 27.5 M 348.5 77.5 L 348.5 27.5 M 406.5 77.5 L 406.5 27.5 M 463.5 77.5 L 463.5 27.5 M 521.5 77.5 L 521.5 27.5 M 579.5 77.5 L 579.5 27.5" stroke-opacity="1" stroke-linejoin="bevel" stroke-miterlimit="10" stroke-dasharray="" clip-path="url(#ncsLTgBRpVEv)"/><path fill="none" stroke="rgb(229,229,229)" paint-order="fill" d="M 214.5 71.5 L 614.5 71.5 M 214.5 58.5 L 614.5 58.5 M 214.5 46.5 L 614.5 46.5 M 214.5 33.5 L 614.5 33.5" stroke-opacity="1" stroke-linejoin="bevel" stroke-miterlimit="10" stroke-dasharray="" clip-path="url(#agoVpZZWSrAk)"/><path fill="none" stroke="none"/><path fill="rgb(141,210,95)" stroke="none" paint-order="stroke" d="M 232.68182373046875 28.75 L 596.3181762695312 28.75 L 596.3181762695312 38.75 L 232.68182373046875 38.75 L 232.68182373046875 28.75" fill-opacity="1" clip-path="url(#owIGRJzlxQWc)"/><path fill="none" stroke="rgb(141,210,95)" paint-order="fill" d="M 232.68182373046875 28.75 L 596.3181762695312 28.75 L 596.3181762695312 38.75 L 232.68182373046875 38.75 L 232.68182373046875 28.75" stroke-opacity="1" stroke-linejoin="bevel" stroke-miterlimit="10" stroke-dasharray="" clip-path="url(#owIGRJzlxQWc)"/><path fill="rgb(134,208,98)" stroke="none" paint-order="stroke" d="M 232.68182373046875 41.25 L 576.1160278320312 41.25 L 576.1160278320312 51.25 L 232.68182373046875 51.25 L 232.68182373046875 41.25" fill-opacity="1" clip-path="url(#owIGRJzlxQWc)"/><path fill="none" stroke="rgb(134,208,98)" paint-order="fill" d="M 232.68182373046875 41.25 L 576.1160278320312 41.25 L 576.1160278320312 51.25 L 232.68182373046875 51.25 L 232.68182373046875 41.25" stroke-opacity="1" stroke-linejoin="bevel" stroke-miterlimit="10" stroke-dasharray="" clip-path="url(#owIGRJzlxQWc)"/><path fill="rgb(85,182,123)" stroke="none" paint-order="stroke" d="M 232.68182373046875 53.75 L 384.1696472167969 53.75 L 384.1696472167969 63.75 L 232.68182373046875 63.75 L 232.68182373046875 53.75" fill-opacity="1" clip-path="url(#owIGRJzlxQWc)"/><path fill="none" stroke="rgb(85,182,123)" paint-order="fill" d="M 232.68182373046875 53.75 L 384.1696472167969 53.75 L 384.1696472167969 63.75 L 232.68182373046875 63.75 L 232.68182373046875 53.75" stroke-opacity="1" stroke-linejoin="bevel" stroke-miterlimit="10" stroke-dasharray="" clip-path="url(#owIGRJzlxQWc)"/><path fill="rgb(68,162,132)" stroke="none" paint-order="stroke" d="M 232.68182373046875 66.25 L 300.0012512207031 66.25 L 300.0012512207031 76.25 L 232.68182373046875 76.25 L 232.68182373046875 66.25" fill-opacity="1" clip-path="url(#owIGRJzlxQWc)"/><path fill="none" stroke="rgb(68,162,132)" paint-order="fill" d="M 232.68182373046875 66.25 L 300.0012512207031 66.25 L 300.0012512207031 76.25 L 232.68182373046875 76.25 L 232.68182373046875 66.25" stroke-opacity="1" stroke-linejoin="bevel" stroke-miterlimit="10" stroke-dasharray="" clip-path="url(#owIGRJzlxQWc)"/><path fill="none" stroke="rgb(0,0,0)" paint-order="fill" d="M 214.5 77.5 L 614.5 77.5" stroke-opacity="1" stroke-linejoin="bevel" stroke-miterlimit="10" stroke-dasharray=""/><path fill="none" stroke="rgb(0,0,0)" paint-order="fill" d="M 232.5 83.5 L 232.5 75.5 M 290.5 83.5 L 290.5 75.5 M 348.5 83.5 L 348.5 75.5 M 406.5 83.5 L 406.5 75.5 M 463.5 83.5 L 463.5 75.5 M 521.5 83.5 L 521.5 75.5 M 579.5 83.5 L 579.5 75.5" stroke-opacity="1" stroke-linejoin="bevel" stroke-miterlimit="10" stroke-dasharray=""/><path fill="none" stroke="rgb(0,0,0)" paint-order="fill" d="M 221.5 81.5 L 221.5 77.5 M 232.5 81.5 L 232.5 77.5 M 244.5 81.5 L 244.5 77.5 M 255.5 81.5 L 255.5 77.5 M 267.5 81.5 L 267.5 77.5 M 278.5 81.5 L 278.5 77.5 M 290.5 81.5 L 290.5 77.5 M 302.5 81.5 L 302.5 77.5 M 313.5 81.5 L 313.5 77.5 M 325.5 81.5 L 325.5 77.5 M 336.5 81.5 L 336.5 77.5 M 348.5 81.5 L 348.5 77.5 M 359.5 81.5 L 359.5 77.5 M 371.5 81.5 L 371.5 77.5 M 382.5 81.5 L 382.5 77.5 M 394.5 81.5 L 394.5 77.5 M 406.5 81.5 L 406.5 77.5 M 417.5 81.5 L 417.5 77.5 M 429.5 81.5 L 429.5 77.5 M 440.5 81.5 L 440.5 77.5 M 452.5 81.5 L 452.5 77.5 M 463.5 81.5 L 463.5 77.5 M 475.5 81.5 L 475.5 77.5 M 487.5 81.5 L 487.5 77.5 M 498.5 81.5 L 498.5 77.5 M 510.5 81.5 L 510.5 77.5 M 521.5 81.5 L 521.5 77.5 M 533.5 81.5 L 533.5 77.5 M 544.5 81.5 L 544.5 77.5 M 556.5 81.5 L 556.5 77.5 M 568.5 81.5 L 568.5 77.5 M 579.5 81.5 L 579.5 77.5 M 591.5 81.5 L 591.5 77.5 M 602.5 81.5 L 602.5 77.5 M 614.5 81.5 L 614.5 77.5" stroke-opacity="1" stroke-linejoin="bevel" stroke-miterlimit="10" stroke-dasharray=""/><text fill="rgb(68,68,68)" stroke="none" font-family="helvetica" font-size="11px" font-style="normal" font-weight="normal" text-decoration="normal" x="226.06414794921875" y="91.945068359375" text-anchor="start" dominant-baseline="alphabetic" transform="matrix(0.7071067811865476, -0.7071067811865475, 0.7071067811865475, 0.7071067811865476, 6.279084957978455, 190.4519452836579)" fill-opacity="1">0</text><text fill="rgb(68,68,68)" stroke="none" font-family="helvetica" font-size="11px" font-style="normal" font-weight="normal" text-decoration="normal" x="268.5872497558594" y="91.945068359375" text-anchor="start" dominant-baseline="alphabetic" transform="matrix(0.7071067811865476, -0.7071067811865475, 0.7071067811865475, 0.7071067811865476, 23.2125909196576, 231.33304503486937)" fill-opacity="1">0.05</text><text fill="rgb(68,68,68)" stroke="none" font-family="helvetica" font-size="11px" font-style="normal" font-weight="normal" text-decoration="normal" x="332.5195617675781" y="91.945068359375" text-anchor="start" dominant-baseline="alphabetic" transform="matrix(0.7071067811865476, -0.7071067811865475, 0.7071067811865475, 0.7071067811865476, 40.146105819728405, 272.21416636526726)" fill-opacity="1">0.1</text><text fill="rgb(68,68,68)" stroke="none" font-family="helvetica" font-size="11px" font-style="normal" font-weight="normal" text-decoration="normal" x="384.2165222167969" y="91.945068359375" text-anchor="start" dominant-baseline="alphabetic" transform="matrix(0.7071067811865476, -0.7071067811865475, 0.7071067811865475, 0.7071067811865476, 57.079620719799266, 313.0952876956652)" fill-opacity="1">0.15</text><text fill="rgb(68,68,68)" stroke="none" font-family="helvetica" font-size="11px" font-style="normal" font-weight="normal" text-decoration="normal" x="448.1488037109375" y="91.945068359375" text-anchor="start" dominant-baseline="alphabetic" transform="matrix(0.7071067811865476, -0.7071067811865475, 0.7071067811865475, 0.7071067811865476, 74.01312668147841, 353.9763874468767)" fill-opacity="1">0.2</text><text fill="rgb(68,68,68)" stroke="none" font-family="helvetica" font-size="11px" font-style="normal" font-weight="normal" text-decoration="normal" x="499.84576416015625" y="91.945068359375" text-anchor="start" dominant-baseline="alphabetic" transform="matrix(0.7071067811865476, -0.7071067811865475, 0.7071067811865475, 0.7071067811865476, 90.94664158154927, 394.8575087772746)" fill-opacity="1">0.25</text><text fill="rgb(68,68,68)" stroke="none" font-family="helvetica" font-size="11px" font-style="normal" font-weight="normal" text-decoration="normal" x="563.778076171875" y="91.945068359375" text-anchor="start" dominant-baseline="alphabetic" transform="matrix(0.7071067811865476, -0.7071067811865475, 0.7071067811865475, 0.7071067811865476, 107.88015648162008, 435.73863010767246)" fill-opacity="1">0.3</text><text fill="rgb(68,68,68)" stroke="none" font-family="helvetica" font-size="13px" font-style="italic" font-weight="normal" text-decoration="normal" x="381.484130859375" y="128.71774531498966" text-anchor="start" dominant-baseline="alphabetic" transform="matrix(1, 0, 0, 1, 0.5, 0.5)" fill-opacity="1">Importance</text><path fill="none" stroke="rgb(0,0,0)" paint-order="fill" d="M 214.5 77.5 L 214.5 27.5" stroke-opacity="1" stroke-linejoin="bevel" stroke-miterlimit="10" stroke-dasharray=""/><path fill="none" stroke="rgb(0,0,0)" paint-order="fill" d="M 208.5 71.5 L 216.5 71.5 M 208.5 58.5 L 216.5 58.5 M 208.5 46.5 L 216.5 46.5 M 208.5 33.5 L 216.5 33.5" stroke-opacity="1" stroke-linejoin="bevel" stroke-miterlimit="10" stroke-dasharray=""/><path fill="none" stroke="rgb(0,0,0)" paint-order="fill" d="" stroke-opacity="1" stroke-linejoin="bevel" stroke-miterlimit="10" stroke-dasharray=""/><text fill="rgb(68,68,68)" stroke="none" font-family="helvetica" font-size="11px" font-style="normal" font-weight="normal" text-decoration="normal" x="104.56396484375" y="74.25" text-anchor="start" dominant-baseline="alphabetic" transform="matrix(1, 0, 0, 1, 0.5, 0.5)" fill-opacity="1">Secondary structure</text><text fill="rgb(68,68,68)" stroke="none" font-family="helvetica" font-size="11px" font-style="normal" font-weight="normal" text-decoration="normal" x="23.8525390625" y="61.75" text-anchor="start" dominant-baseline="alphabetic" transform="matrix(1, 0, 0, 1, 0.5, 0.5)" fill-opacity="1">Nucleotide metabolism and transport</text><text fill="rgb(68,68,68)" stroke="none" font-family="helvetica" font-size="11px" font-style="normal" font-weight="normal" text-decoration="normal" x="146.77001953125" y="49.25" text-anchor="start" dominant-baseline="alphabetic" transform="matrix(1, 0, 0, 1, 0.5, 0.5)" fill-opacity="1">Cell motility</text><text fill="rgb(68,68,68)" stroke="none" font-family="helvetica" font-size="11px" font-style="normal" font-weight="normal" text-decoration="normal" x="3.0556640625" y="36.75" text-anchor="start" dominant-baseline="alphabetic" transform="matrix(1, 0, 0, 1, 0.5, 0.5)" fill-opacity="1">Cell wall/membrane/envelope biogenesis</text><path fill="none" stroke="none"/><text fill="rgb(68,68,68)" stroke="none" font-family="helvetica" font-size="13px" font-style="normal" font-weight="bold" text-decoration="normal" x="0" y="0" text-anchor="start" dominant-baseline="text-after-edge" transform="matrix(1, 0, 0, 1, 214.5, 22.5)" fill-opacity="1">Nitrates (µmol/L)</text></svg>