<svg version="1.1" xmlns="http://www.w3.org/2000/svg" xmlns:xlink="http://www.w3.org/1999/xlink" width="541" height="135"><defs><clipPath id="cGevxwsBBXvp"><path fill="none" stroke="none" d="M 136.5 27.5 L 536.5 27.5 L 536.5 77.5 L 136.5 77.5 L 136.5 27.5"/></clipPath><clipPath id="fUGmgKAgRQlQ"><path fill="none" stroke="none" d="M 136.5 27.5 L 536.5 27.5 L 536.5 77.5 L 136.5 77.5 L 136.5 27.5"/></clipPath><clipPath id="TvGvVBkOLfxK"><path fill="none" stroke="none" d="M 136.5 27.5 L 536.5 27.5 L 536.5 77.5 L 136.5 77.5 L 136.5 27.5"/></clipPath><clipPath id="xvwaonvOWbcL"><path fill="none" stroke="none" d="M 136.5 27.5 L 536.5 27.5 L 536.5 77.5 L 136.5 77.5 L 136.5 27.5"/></clipPath></defs><path fill="none" stroke="rgb(229,229,229)" paint-order="fill" d="M 136.5 27.5 L 536.5 27.5 L 536.5 77.5 L 136.5 77.5 L 136.5 27.5" stroke-opacity="1" stroke-linejoin="bevel" stroke-miterlimit="10" stroke-dasharray=""/><path fill="none" stroke="rgb(229,229,229)" paint-order="fill" d="M 154.5 77.5 L 154.5 27.5 M 220.5 77.5 L 220.5 27.5 M 286.5 77.5 L 286.5 27.5 M 353.5 77.5 L 353.5 27.5 M 419.5 77.5 L 419.5 27.5 M 485.5 77.5 L 485.5 27.5" stroke-opacity="1" stroke-linejoin="bevel" stroke-miterlimit="10" stroke-dasharray="" clip-path="url(#cGevxwsBBXvp)"/><path fill="none" stroke="rgb(229,229,229)" paint-order="fill" d="M 136.5 71.5 L 536.5 71.5 M 136.5 58.5 L 536.5 58.5 M 136.5 46.5 L 536.5 46.5 M 136.5 33.5 L 536.5 33.5" stroke-opacity="1" stroke-linejoin="bevel" stroke-miterlimit="10" stroke-dasharray="" clip-path="url(#fUGmgKAgRQlQ)"/><path fill="none" stroke="none"/><path fill="rgb(124,204,102)" stroke="none" paint-order="stroke" d="M 154.68182373046875 28.75 L 518.3181762695312 28.75 L 518.3181762695312 38.75 L 154.68182373046875 38.75 L 154.68182373046875 28.75" fill-opacity="1" clip-path="url(#TvGvVBkOLfxK)"/><path fill="none" stroke="rgb(124,204,102)" paint-order="fill" d="M 154.68182373046875 28.75 L 518.3181762695312 28.75 L 518.3181762695312 38.75 L 154.68182373046875 38.75 L 154.68182373046875 28.75" stroke-opacity="1" stroke-linejoin="bevel" stroke-miterlimit="10" stroke-dasharray="" clip-path="url(#TvGvVBkOLfxK)"/><path fill="rgb(113,200,107)" stroke="none" paint-order="stroke" d="M 154.68182373046875 41.25 L 472.4000244140625 41.25 L 472.4000244140625 51.25 L 154.68182373046875 51.25 L 154.68182373046875 41.25" fill-opacity="1" clip-path="url(#TvGvVBkOLfxK)"/><path fill="none" stroke="rgb(113,200,107)" paint-order="fill" d="M 154.68182373046875 41.25 L 472.4000244140625 41.25 L 472.4000244140625 51.25 L 154.68182373046875 51.25 L 154.68182373046875 41.25" stroke-opacity="1" stroke-linejoin="bevel" stroke-miterlimit="10" stroke-dasharray="" clip-path="url(#TvGvVBkOLfxK)"/><path fill="rgb(112,199,108)" stroke="none" paint-order="stroke" d="M 154.68182373046875 53.75 L 465.83935546875 53.75 L 465.83935546875 63.75 L 154.68182373046875 63.75 L 154.68182373046875 53.75" fill-opacity="1" clip-path="url(#TvGvVBkOLfxK)"/><path fill="none" stroke="rgb(112,199,108)" paint-order="fill" d="M 154.68182373046875 53.75 L 465.83935546875 53.75 L 465.83935546875 63.75 L 154.68182373046875 63.75 L 154.68182373046875 53.75" stroke-opacity="1" stroke-linejoin="bevel" stroke-miterlimit="10" stroke-dasharray="" clip-path="url(#TvGvVBkOLfxK)"/><path fill="rgb(66,157,133)" stroke="none" paint-order="stroke" d="M 154.68182373046875 66.25 L 201.06776428222656 66.25 L 201.06776428222656 76.25 L 154.68182373046875 76.25 L 154.68182373046875 66.25" fill-opacity="1" clip-path="url(#TvGvVBkOLfxK)"/><path fill="none" stroke="rgb(66,157,133)" paint-order="fill" d="M 154.68182373046875 66.25 L 201.06776428222656 66.25 L 201.06776428222656 76.25 L 154.68182373046875 76.25 L 154.68182373046875 66.25" stroke-opacity="1" stroke-linejoin="bevel" stroke-miterlimit="10" stroke-dasharray="" clip-path="url(#TvGvVBkOLfxK)"/><path fill="none" stroke="rgb(0,0,0)" paint-order="fill" d="M 136.5 77.5 L 536.5 77.5" stroke-opacity="1" stroke-linejoin="bevel" stroke-miterlimit="10" stroke-dasharray=""/><path fill="none" stroke="rgb(0,0,0)" paint-order="fill" d="M 154.5 83.5 L 154.5 75.5 M 220.5 83.5 L 220.5 75.5 M 286.5 83.5 L 286.5 75.5 M 353.5 83.5 L 353.5 75.5 M 419.5 83.5 L 419.5 75.5 M 485.5 83.5 L 485.5 75.5" stroke-opacity="1" stroke-linejoin="bevel" stroke-miterlimit="10" stroke-dasharray=""/><path fill="none" stroke="rgb(0,0,0)" paint-order="fill" d="M 141.5 81.5 L 141.5 77.5 M 154.5 81.5 L 154.5 77.5 M 167.5 81.5 L 167.5 77.5 M 181.5 81.5 L 181.5 77.5 M 194.5 81.5 L 194.5 77.5 M 207.5 81.5 L 207.5 77.5 M 220.5 81.5 L 220.5 77.5 M 234.5 81.5 L 234.5 77.5 M 247.5 81.5 L 247.5 77.5 M 260.5 81.5 L 260.5 77.5 M 273.5 81.5 L 273.5 77.5 M 286.5 81.5 L 286.5 77.5 M 300.5 81.5 L 300.5 77.5 M 313.5 81.5 L 313.5 77.5 M 326.5 81.5 L 326.5 77.5 M 339.5 81.5 L 339.5 77.5 M 353.5 81.5 L 353.5 77.5 M 366.5 81.5 L 366.5 77.5 M 379.5 81.5 L 379.5 77.5 M 392.5 81.5 L 392.5 77.5 M 406.5 81.5 L 406.5 77.5 M 419.5 81.5 L 419.5 77.5 M 432.5 81.5 L 432.5 77.5 M 445.5 81.5 L 445.5 77.5 M 458.5 81.5 L 458.5 77.5 M 472.5 81.5 L 472.5 77.5 M 485.5 81.5 L 485.5 77.5 M 498.5 81.5 L 498.5 77.5 M 511.5 81.5 L 511.5 77.5 M 525.5 81.5 L 525.5 77.5" stroke-opacity="1" stroke-linejoin="bevel" stroke-miterlimit="10" stroke-dasharray=""/><text fill="rgb(68,68,68)" stroke="none" font-family="helvetica" font-size="11px" font-style="normal" font-weight="normal" text-decoration="normal" x="148.06414794921875" y="91.945068359375" text-anchor="start" dominant-baseline="alphabetic" transform="matrix(0.7071067811865476, -0.7071067811865475, 0.7071067811865475, 0.7071067811865476, -16.566586109470848, 135.2976163511072)" fill-opacity="1">0</text><text fill="rgb(68,68,68)" stroke="none" font-family="helvetica" font-size="11px" font-style="normal" font-weight="normal" text-decoration="normal" x="198.91798400878906" y="91.945068359375" text-anchor="start" dominant-baseline="alphabetic" transform="matrix(0.7071067811865476, -0.7071067811865475, 0.7071067811865475, 0.7071067811865476, 2.806935422628385, 182.06943478482833)" fill-opacity="1">0.05</text><text fill="rgb(68,68,68)" stroke="none" font-family="helvetica" font-size="11px" font-style="normal" font-weight="normal" text-decoration="normal" x="271.1809997558594" y="91.945068359375" text-anchor="start" dominant-baseline="alphabetic" transform="matrix(0.7071067811865476, -0.7071067811865475, 0.7071067811865475, 0.7071067811865476, 22.18045695472756, 228.8412532185494)" fill-opacity="1">0.1</text><text fill="rgb(68,68,68)" stroke="none" font-family="helvetica" font-size="11px" font-style="normal" font-weight="normal" text-decoration="normal" x="331.2086486816406" y="91.945068359375" text-anchor="start" dominant-baseline="alphabetic" transform="matrix(0.7071067811865476, -0.7071067811865475, 0.7071067811865475, 0.7071067811865476, 41.553974017630935, 275.6130608626773)" fill-opacity="1">0.15</text><text fill="rgb(68,68,68)" stroke="none" font-family="helvetica" font-size="11px" font-style="normal" font-weight="normal" text-decoration="normal" x="403.4716796875" y="91.945068359375" text-anchor="start" dominant-baseline="alphabetic" transform="matrix(0.7071067811865476, -0.7071067811865475, 0.7071067811865475, 0.7071067811865476, 60.927500018926025, 322.38489008599163)" fill-opacity="1">0.2</text><text fill="rgb(68,68,68)" stroke="none" font-family="helvetica" font-size="11px" font-style="normal" font-weight="normal" text-decoration="normal" x="463.4993591308594" y="91.945068359375" text-anchor="start" dominant-baseline="alphabetic" transform="matrix(0.7071067811865476, -0.7071067811865475, 0.7071067811865475, 0.7071067811865476, 80.30102602022106, 369.1567193093059)" fill-opacity="1">0.25</text><text fill="rgb(68,68,68)" stroke="none" font-family="helvetica" font-size="13px" font-style="italic" font-weight="normal" text-decoration="normal" x="303.484130859375" y="128.71774531498966" text-anchor="start" dominant-baseline="alphabetic" transform="matrix(1, 0, 0, 1, 0.5, 0.5)" fill-opacity="1">Importance</text><path fill="none" stroke="rgb(0,0,0)" paint-order="fill" d="M 136.5 77.5 L 136.5 27.5" stroke-opacity="1" stroke-linejoin="bevel" stroke-miterlimit="10" stroke-dasharray=""/><path fill="none" stroke="rgb(0,0,0)" paint-order="fill" d="M 130.5 71.5 L 138.5 71.5 M 130.5 58.5 L 138.5 58.5 M 130.5 46.5 L 138.5 46.5 M 130.5 33.5 L 138.5 33.5" stroke-opacity="1" stroke-linejoin="bevel" stroke-miterlimit="10" stroke-dasharray=""/><path fill="none" stroke="rgb(0,0,0)" paint-order="fill" d="" stroke-opacity="1" stroke-linejoin="bevel" stroke-miterlimit="10" stroke-dasharray=""/><text fill="rgb(68,68,68)" stroke="none" font-family="helvetica" font-size="11px" font-style="normal" font-weight="normal" text-decoration="normal" x="54.0693359375" y="74.25" text-anchor="start" dominant-baseline="alphabetic" transform="matrix(1, 0, 0, 1, 0.5, 0.5)" fill-opacity="1">Cyanobacteria</text><text fill="rgb(68,68,68)" stroke="none" font-family="helvetica" font-size="11px" font-style="normal" font-weight="normal" text-decoration="normal" x="2.7109375" y="61.75" text-anchor="start" dominant-baseline="alphabetic" transform="matrix(1, 0, 0, 1, 0.5, 0.5)" fill-opacity="1">Candidate division BRC1</text><text fill="rgb(68,68,68)" stroke="none" font-family="helvetica" font-size="11px" font-style="normal" font-weight="normal" text-decoration="normal" x="58.35009765625" y="49.25" text-anchor="start" dominant-baseline="alphabetic" transform="matrix(1, 0, 0, 1, 0.5, 0.5)" fill-opacity="1">Acidobacteria</text><text fill="rgb(68,68,68)" stroke="none" font-family="helvetica" font-size="11px" font-style="normal" font-weight="normal" text-decoration="normal" x="41.83935546875" y="36.75" text-anchor="start" dominant-baseline="alphabetic" transform="matrix(1, 0, 0, 1, 0.5, 0.5)" fill-opacity="1">Thaumarchaeota</text><path fill="none" stroke="none"/><text fill="rgb(68,68,68)" stroke="none" font-family="helvetica" font-size="13px" font-style="normal" font-weight="bold" text-decoration="normal" x="0" y="0" text-anchor="start" dominant-baseline="text-after-edge" transform="matrix(1, 0, 0, 1, 136.5, 22.5)" fill-opacity="1">Depth (m)</text></svg>