<svg version="1.1" xmlns="http://www.w3.org/2000/svg" xmlns:xlink="http://www.w3.org/1999/xlink" width="541" height="135"><defs><clipPath id="UnCrMzvJdTLa"><path fill="none" stroke="none" d="M 136.5 27.5 L 536.5 27.5 L 536.5 77.5 L 136.5 77.5 L 136.5 27.5"/></clipPath><clipPath id="HBkPdrRlTySg"><path fill="none" stroke="none" d="M 136.5 27.5 L 536.5 27.5 L 536.5 77.5 L 136.5 77.5 L 136.5 27.5"/></clipPath><clipPath id="xibyHfTNBMys"><path fill="none" stroke="none" d="M 136.5 27.5 L 536.5 27.5 L 536.5 77.5 L 136.5 77.5 L 136.5 27.5"/></clipPath><clipPath id="XXLvKeuySTvU"><path fill="none" stroke="none" d="M 136.5 27.5 L 536.5 27.5 L 536.5 77.5 L 136.5 77.5 L 136.5 27.5"/></clipPath></defs><path fill="none" stroke="rgb(229,229,229)" paint-order="fill" d="M 136.5 27.5 L 536.5 27.5 L 536.5 77.5 L 136.5 77.5 L 136.5 27.5" stroke-opacity="1" stroke-linejoin="bevel" stroke-miterlimit="10" stroke-dasharray=""/><path fill="none" stroke="rgb(229,229,229)" paint-order="fill" d="M 154.5 77.5 L 154.5 27.5 M 210.5 77.5 L 210.5 27.5 M 266.5 77.5 L 266.5 27.5 M 323.5 77.5 L 323.5 27.5 M 379.5 77.5 L 379.5 27.5 M 435.5 77.5 L 435.5 27.5 M 491.5 77.5 L 491.5 27.5" stroke-opacity="1" stroke-linejoin="bevel" stroke-miterlimit="10" stroke-dasharray="" clip-path="url(#UnCrMzvJdTLa)"/><path fill="none" stroke="rgb(229,229,229)" paint-order="fill" d="M 136.5 71.5 L 536.5 71.5 M 136.5 58.5 L 536.5 58.5 M 136.5 46.5 L 536.5 46.5 M 136.5 33.5 L 536.5 33.5" stroke-opacity="1" stroke-linejoin="bevel" stroke-miterlimit="10" stroke-dasharray="" clip-path="url(#HBkPdrRlTySg)"/><path fill="none" stroke="none"/><path fill="rgb(168,216,92)" stroke="none" paint-order="stroke" d="M 154.68182373046875 28.75 L 518.3181762695312 28.75 L 518.3181762695312 38.75 L 154.68182373046875 38.75 L 154.68182373046875 28.75" fill-opacity="1" clip-path="url(#xibyHfTNBMys)"/><path fill="none" stroke="rgb(168,216,92)" paint-order="fill" d="M 154.68182373046875 28.75 L 518.3181762695312 28.75 L 518.3181762695312 38.75 L 154.68182373046875 38.75 L 154.68182373046875 28.75" stroke-opacity="1" stroke-linejoin="bevel" stroke-miterlimit="10" stroke-dasharray="" clip-path="url(#xibyHfTNBMys)"/><path fill="rgb(120,203,104)" stroke="none" paint-order="stroke" d="M 154.68182373046875 41.25 L 404.3887939453125 41.25 L 404.3887939453125 51.25 L 154.68182373046875 51.25 L 154.68182373046875 41.25" fill-opacity="1" clip-path="url(#xibyHfTNBMys)"/><path fill="none" stroke="rgb(120,203,104)" paint-order="fill" d="M 154.68182373046875 41.25 L 404.3887939453125 41.25 L 404.3887939453125 51.25 L 154.68182373046875 51.25 L 154.68182373046875 41.25" stroke-opacity="1" stroke-linejoin="bevel" stroke-miterlimit="10" stroke-dasharray="" clip-path="url(#xibyHfTNBMys)"/><path fill="rgb(76,173,128)" stroke="none" paint-order="stroke" d="M 154.68182373046875 53.75 L 234.99276733398438 53.75 L 234.99276733398438 63.75 L 154.68182373046875 63.75 L 154.68182373046875 53.75" fill-opacity="1" clip-path="url(#xibyHfTNBMys)"/><path fill="none" stroke="rgb(76,173,128)" paint-order="fill" d="M 154.68182373046875 53.75 L 234.99276733398438 53.75 L 234.99276733398438 63.75 L 154.68182373046875 63.75 L 154.68182373046875 53.75" stroke-opacity="1" stroke-linejoin="bevel" stroke-miterlimit="10" stroke-dasharray="" clip-path="url(#xibyHfTNBMys)"/><path fill="rgb(80,176,126)" stroke="none" paint-order="stroke" d="M 154.68182373046875 66.25 L 199.41851806640625 66.25 L 199.41851806640625 76.25 L 154.68182373046875 76.25 L 154.68182373046875 66.25" fill-opacity="1" clip-path="url(#xibyHfTNBMys)"/><path fill="none" stroke="rgb(80,176,126)" paint-order="fill" d="M 154.68182373046875 66.25 L 199.41851806640625 66.25 L 199.41851806640625 76.25 L 154.68182373046875 76.25 L 154.68182373046875 66.25" stroke-opacity="1" stroke-linejoin="bevel" stroke-miterlimit="10" stroke-dasharray="" clip-path="url(#xibyHfTNBMys)"/><path fill="none" stroke="rgb(0,0,0)" paint-order="fill" d="M 136.5 77.5 L 536.5 77.5" stroke-opacity="1" stroke-linejoin="bevel" stroke-miterlimit="10" stroke-dasharray=""/><path fill="none" stroke="rgb(0,0,0)" paint-order="fill" d="M 154.5 83.5 L 154.5 75.5 M 210.5 83.5 L 210.5 75.5 M 266.5 83.5 L 266.5 75.5 M 323.5 83.5 L 323.5 75.5 M 379.5 83.5 L 379.5 75.5 M 435.5 83.5 L 435.5 75.5 M 491.5 83.5 L 491.5 75.5" stroke-opacity="1" stroke-linejoin="bevel" stroke-miterlimit="10" stroke-dasharray=""/><path fill="none" stroke="rgb(0,0,0)" paint-order="fill" d="M 143.5 81.5 L 143.5 77.5 M 154.5 81.5 L 154.5 77.5 M 165.5 81.5 L 165.5 77.5 M 177.5 81.5 L 177.5 77.5 M 188.5 81.5 L 188.5 77.5 M 199.5 81.5 L 199.5 77.5 M 210.5 81.5 L 210.5 77.5 M 222.5 81.5 L 222.5 77.5 M 233.5 81.5 L 233.5 77.5 M 244.5 81.5 L 244.5 77.5 M 255.5 81.5 L 255.5 77.5 M 266.5 81.5 L 266.5 77.5 M 278.5 81.5 L 278.5 77.5 M 289.5 81.5 L 289.5 77.5 M 300.5 81.5 L 300.5 77.5 M 311.5 81.5 L 311.5 77.5 M 323.5 81.5 L 323.5 77.5 M 334.5 81.5 L 334.5 77.5 M 345.5 81.5 L 345.5 77.5 M 356.5 81.5 L 356.5 77.5 M 367.5 81.5 L 367.5 77.5 M 379.5 81.5 L 379.5 77.5 M 390.5 81.5 L 390.5 77.5 M 401.5 81.5 L 401.5 77.5 M 412.5 81.5 L 412.5 77.5 M 424.5 81.5 L 424.5 77.5 M 435.5 81.5 L 435.5 77.5 M 446.5 81.5 L 446.5 77.5 M 457.5 81.5 L 457.5 77.5 M 468.5 81.5 L 468.5 77.5 M 480.5 81.5 L 480.5 77.5 M 491.5 81.5 L 491.5 77.5 M 502.5 81.5 L 502.5 77.5 M 513.5 81.5 L 513.5 77.5 M 525.5 81.5 L 525.5 77.5 M 536.5 81.5 L 536.5 77.5" stroke-opacity="1" stroke-linejoin="bevel" stroke-miterlimit="10" stroke-dasharray=""/><text fill="rgb(68,68,68)" stroke="none" font-family="helvetica" font-size="11px" font-style="normal" font-weight="normal" text-decoration="normal" x="148.06414794921875" y="91.945068359375" text-anchor="start" dominant-baseline="alphabetic" transform="matrix(0.7071067811865476, -0.7071067811865475, 0.7071067811865475, 0.7071067811865476, -16.566586109470848, 135.2976163511072)" fill-opacity="1">0</text><text fill="rgb(68,68,68)" stroke="none" font-family="helvetica" font-size="11px" font-style="normal" font-weight="normal" text-decoration="normal" x="188.88772583007812" y="91.945068359375" text-anchor="start" dominant-baseline="alphabetic" transform="matrix(0.7071067811865476, -0.7071067811865475, 0.7071067811865475, 0.7071067811865476, -0.13085918086423476, 174.97697120960999)" fill-opacity="1">0.05</text><text fill="rgb(68,68,68)" stroke="none" font-family="helvetica" font-size="11px" font-style="normal" font-weight="normal" text-decoration="normal" x="251.1204833984375" y="91.945068359375" text-anchor="start" dominant-baseline="alphabetic" transform="matrix(0.7071067811865476, -0.7071067811865475, 0.7071067811865475, 0.7071067811865476, 16.304867747742378, 214.65632606811272)" fill-opacity="1">0.1</text><text fill="rgb(68,68,68)" stroke="none" font-family="helvetica" font-size="11px" font-style="normal" font-weight="normal" text-decoration="normal" x="301.1178894042969" y="91.945068359375" text-anchor="start" dominant-baseline="alphabetic" transform="matrix(0.7071067811865476, -0.7071067811865475, 0.7071067811865475, 0.7071067811865476, 32.74059467634902, 254.3356809266155)" fill-opacity="1">0.15</text><text fill="rgb(68,68,68)" stroke="none" font-family="helvetica" font-size="11px" font-style="normal" font-weight="normal" text-decoration="normal" x="363.35064697265625" y="91.945068359375" text-anchor="start" dominant-baseline="alphabetic" transform="matrix(0.7071067811865476, -0.7071067811865475, 0.7071067811865475, 0.7071067811865476, 49.176321604955604, 294.0150357851183)" fill-opacity="1">0.2</text><text fill="rgb(68,68,68)" stroke="none" font-family="helvetica" font-size="11px" font-style="normal" font-weight="normal" text-decoration="normal" x="413.3480529785156" y="91.945068359375" text-anchor="start" dominant-baseline="alphabetic" transform="matrix(0.7071067811865476, -0.7071067811865475, 0.7071067811865475, 0.7071067811865476, 65.61204853356219, 333.69439064362103)" fill-opacity="1">0.25</text><text fill="rgb(68,68,68)" stroke="none" font-family="helvetica" font-size="11px" font-style="normal" font-weight="normal" text-decoration="normal" x="475.5807800292969" y="91.945068359375" text-anchor="start" dominant-baseline="alphabetic" transform="matrix(0.7071067811865476, -0.7071067811865475, 0.7071067811865475, 0.7071067811865476, 82.04776652377711, 373.37372392293736)" fill-opacity="1">0.3</text><text fill="rgb(68,68,68)" stroke="none" font-family="helvetica" font-size="13px" font-style="italic" font-weight="normal" text-decoration="normal" x="303.484130859375" y="128.71774531498966" text-anchor="start" dominant-baseline="alphabetic" transform="matrix(1, 0, 0, 1, 0.5, 0.5)" fill-opacity="1">Importance</text><path fill="none" stroke="rgb(0,0,0)" paint-order="fill" d="M 136.5 77.5 L 136.5 27.5" stroke-opacity="1" stroke-linejoin="bevel" stroke-miterlimit="10" stroke-dasharray=""/><path fill="none" stroke="rgb(0,0,0)" paint-order="fill" d="M 130.5 71.5 L 138.5 71.5 M 130.5 58.5 L 138.5 58.5 M 130.5 46.5 L 138.5 46.5 M 130.5 33.5 L 138.5 33.5" stroke-opacity="1" stroke-linejoin="bevel" stroke-miterlimit="10" stroke-dasharray=""/><path fill="none" stroke="rgb(0,0,0)" paint-order="fill" d="" stroke-opacity="1" stroke-linejoin="bevel" stroke-miterlimit="10" stroke-dasharray=""/><text fill="rgb(68,68,68)" stroke="none" font-family="helvetica" font-size="11px" font-style="normal" font-weight="normal" text-decoration="normal" x="57.73779296875" y="74.25" text-anchor="start" dominant-baseline="alphabetic" transform="matrix(1, 0, 0, 1, 0.5, 0.5)" fill-opacity="1">Bacteroidetes</text><text fill="rgb(68,68,68)" stroke="none" font-family="helvetica" font-size="11px" font-style="normal" font-weight="normal" text-decoration="normal" x="54.0693359375" y="61.75" text-anchor="start" dominant-baseline="alphabetic" transform="matrix(1, 0, 0, 1, 0.5, 0.5)" fill-opacity="1">Cyanobacteria</text><text fill="rgb(68,68,68)" stroke="none" font-family="helvetica" font-size="11px" font-style="normal" font-weight="normal" text-decoration="normal" x="2.7109375" y="49.25" text-anchor="start" dominant-baseline="alphabetic" transform="matrix(1, 0, 0, 1, 0.5, 0.5)" fill-opacity="1">Candidate division BRC1</text><text fill="rgb(68,68,68)" stroke="none" font-family="helvetica" font-size="11px" font-style="normal" font-weight="normal" text-decoration="normal" x="58.35009765625" y="36.75" text-anchor="start" dominant-baseline="alphabetic" transform="matrix(1, 0, 0, 1, 0.5, 0.5)" fill-opacity="1">Acidobacteria</text><path fill="none" stroke="none"/><text fill="rgb(68,68,68)" stroke="none" font-family="helvetica" font-size="13px" font-style="normal" font-weight="bold" text-decoration="normal" x="0" y="0" text-anchor="start" dominant-baseline="text-after-edge" transform="matrix(1, 0, 0, 1, 136.5, 22.5)" fill-opacity="1">Nitrates (µmol/L)</text></svg>