<svg version="1.1" xmlns="http://www.w3.org/2000/svg" xmlns:xlink="http://www.w3.org/1999/xlink" width="541" height="135"><defs><clipPath id="mIrTcAgSMCox"><path fill="none" stroke="none" d="M 136.5 27.5 L 536.5 27.5 L 536.5 77.5 L 136.5 77.5 L 136.5 27.5"/></clipPath><clipPath id="dWoSPuVbNOTG"><path fill="none" stroke="none" d="M 136.5 27.5 L 536.5 27.5 L 536.5 77.5 L 136.5 77.5 L 136.5 27.5"/></clipPath><clipPath id="qTrWRUDRlQgX"><path fill="none" stroke="none" d="M 136.5 27.5 L 536.5 27.5 L 536.5 77.5 L 136.5 77.5 L 136.5 27.5"/></clipPath><clipPath id="wLAVudWxTmto"><path fill="none" stroke="none" d="M 136.5 27.5 L 536.5 27.5 L 536.5 77.5 L 136.5 77.5 L 136.5 27.5"/></clipPath></defs><path fill="none" stroke="rgb(229,229,229)" paint-order="fill" d="M 136.5 27.5 L 536.5 27.5 L 536.5 77.5 L 136.5 77.5 L 136.5 27.5" stroke-opacity="1" stroke-linejoin="bevel" stroke-miterlimit="10" stroke-dasharray=""/><path fill="none" stroke="rgb(229,229,229)" paint-order="fill" d="M 154.5 77.5 L 154.5 27.5 M 218.5 77.5 L 218.5 27.5 M 281.5 77.5 L 281.5 27.5 M 344.5 77.5 L 344.5 27.5 M 408.5 77.5 L 408.5 27.5 M 471.5 77.5 L 471.5 27.5 M 534.5 77.5 L 534.5 27.5" stroke-opacity="1" stroke-linejoin="bevel" stroke-miterlimit="10" stroke-dasharray="" clip-path="url(#mIrTcAgSMCox)"/><path fill="none" stroke="rgb(229,229,229)" paint-order="fill" d="M 136.5 71.5 L 536.5 71.5 M 136.5 58.5 L 536.5 58.5 M 136.5 46.5 L 536.5 46.5 M 136.5 33.5 L 536.5 33.5" stroke-opacity="1" stroke-linejoin="bevel" stroke-miterlimit="10" stroke-dasharray="" clip-path="url(#dWoSPuVbNOTG)"/><path fill="none" stroke="none"/><path fill="rgb(170,216,92)" stroke="none" paint-order="stroke" d="M 154.68182373046875 28.75 L 518.3181762695312 28.75 L 518.3181762695312 38.75 L 154.68182373046875 38.75 L 154.68182373046875 28.75" fill-opacity="1" clip-path="url(#qTrWRUDRlQgX)"/><path fill="none" stroke="rgb(170,216,92)" paint-order="fill" d="M 154.68182373046875 28.75 L 518.3181762695312 28.75 L 518.3181762695312 38.75 L 154.68182373046875 38.75 L 154.68182373046875 28.75" stroke-opacity="1" stroke-linejoin="bevel" stroke-miterlimit="10" stroke-dasharray="" clip-path="url(#qTrWRUDRlQgX)"/><path fill="rgb(104,195,112)" stroke="none" paint-order="stroke" d="M 154.68182373046875 41.25 L 345.8523864746094 41.25 L 345.8523864746094 51.25 L 154.68182373046875 51.25 L 154.68182373046875 41.25" fill-opacity="1" clip-path="url(#qTrWRUDRlQgX)"/><path fill="none" stroke="rgb(104,195,112)" paint-order="fill" d="M 154.68182373046875 41.25 L 345.8523864746094 41.25 L 345.8523864746094 51.25 L 154.68182373046875 51.25 L 154.68182373046875 41.25" stroke-opacity="1" stroke-linejoin="bevel" stroke-miterlimit="10" stroke-dasharray="" clip-path="url(#qTrWRUDRlQgX)"/><path fill="rgb(85,182,123)" stroke="none" paint-order="stroke" d="M 154.68182373046875 53.75 L 263.4176025390625 53.75 L 263.4176025390625 63.75 L 154.68182373046875 63.75 L 154.68182373046875 53.75" fill-opacity="1" clip-path="url(#qTrWRUDRlQgX)"/><path fill="none" stroke="rgb(85,182,123)" paint-order="fill" d="M 154.68182373046875 53.75 L 263.4176025390625 53.75 L 263.4176025390625 63.75 L 154.68182373046875 63.75 L 154.68182373046875 53.75" stroke-opacity="1" stroke-linejoin="bevel" stroke-miterlimit="10" stroke-dasharray="" clip-path="url(#qTrWRUDRlQgX)"/><path fill="rgb(102,194,113)" stroke="none" paint-order="stroke" d="M 154.68182373046875 66.25 L 237.5751495361328 66.25 L 237.5751495361328 76.25 L 154.68182373046875 76.25 L 154.68182373046875 66.25" fill-opacity="1" clip-path="url(#qTrWRUDRlQgX)"/><path fill="none" stroke="rgb(102,194,113)" paint-order="fill" d="M 154.68182373046875 66.25 L 237.5751495361328 66.25 L 237.5751495361328 76.25 L 154.68182373046875 76.25 L 154.68182373046875 66.25" stroke-opacity="1" stroke-linejoin="bevel" stroke-miterlimit="10" stroke-dasharray="" clip-path="url(#qTrWRUDRlQgX)"/><path fill="none" stroke="rgb(0,0,0)" paint-order="fill" d="M 136.5 77.5 L 536.5 77.5" stroke-opacity="1" stroke-linejoin="bevel" stroke-miterlimit="10" stroke-dasharray=""/><path fill="none" stroke="rgb(0,0,0)" paint-order="fill" d="M 154.5 83.5 L 154.5 75.5 M 218.5 83.5 L 218.5 75.5 M 281.5 83.5 L 281.5 75.5 M 344.5 83.5 L 344.5 75.5 M 408.5 83.5 L 408.5 75.5 M 471.5 83.5 L 471.5 75.5 M 534.5 83.5 L 534.5 75.5" stroke-opacity="1" stroke-linejoin="bevel" stroke-miterlimit="10" stroke-dasharray=""/><path fill="none" stroke="rgb(0,0,0)" paint-order="fill" d="M 142.5 81.5 L 142.5 77.5 M 154.5 81.5 L 154.5 77.5 M 167.5 81.5 L 167.5 77.5 M 180.5 81.5 L 180.5 77.5 M 192.5 81.5 L 192.5 77.5 M 205.5 81.5 L 205.5 77.5 M 218.5 81.5 L 218.5 77.5 M 230.5 81.5 L 230.5 77.5 M 243.5 81.5 L 243.5 77.5 M 256.5 81.5 L 256.5 77.5 M 268.5 81.5 L 268.5 77.5 M 281.5 81.5 L 281.5 77.5 M 294.5 81.5 L 294.5 77.5 M 306.5 81.5 L 306.5 77.5 M 319.5 81.5 L 319.5 77.5 M 332.5 81.5 L 332.5 77.5 M 344.5 81.5 L 344.5 77.5 M 357.5 81.5 L 357.5 77.5 M 370.5 81.5 L 370.5 77.5 M 382.5 81.5 L 382.5 77.5 M 395.5 81.5 L 395.5 77.5 M 408.5 81.5 L 408.5 77.5 M 420.5 81.5 L 420.5 77.5 M 433.5 81.5 L 433.5 77.5 M 446.5 81.5 L 446.5 77.5 M 458.5 81.5 L 458.5 77.5 M 471.5 81.5 L 471.5 77.5 M 484.5 81.5 L 484.5 77.5 M 496.5 81.5 L 496.5 77.5 M 509.5 81.5 L 509.5 77.5 M 522.5 81.5 L 522.5 77.5 M 534.5 81.5 L 534.5 77.5" stroke-opacity="1" stroke-linejoin="bevel" stroke-miterlimit="10" stroke-dasharray=""/><text fill="rgb(68,68,68)" stroke="none" font-family="helvetica" font-size="11px" font-style="normal" font-weight="normal" text-decoration="normal" x="148.06414794921875" y="91.945068359375" text-anchor="start" dominant-baseline="alphabetic" transform="matrix(0.7071067811865476, -0.7071067811865475, 0.7071067811865475, 0.7071067811865476, -16.566586109470848, 135.2976163511072)" fill-opacity="1">0</text><text fill="rgb(68,68,68)" stroke="none" font-family="helvetica" font-size="11px" font-style="normal" font-weight="normal" text-decoration="normal" x="196.15382385253906" y="91.945068359375" text-anchor="start" dominant-baseline="alphabetic" transform="matrix(0.7071067811865476, -0.7071067811865475, 0.7071067811865475, 0.7071067811865476, 1.9973316571484077, 180.11487839405828)" fill-opacity="1">0.05</text><text fill="rgb(68,68,68)" stroke="none" font-family="helvetica" font-size="11px" font-style="normal" font-weight="normal" text-decoration="normal" x="265.6526794433594" y="91.945068359375" text-anchor="start" dominant-baseline="alphabetic" transform="matrix(0.7071067811865476, -0.7071067811865475, 0.7071067811865475, 0.7071067811865476, 20.561249423767663, 224.9321404370093)" fill-opacity="1">0.1</text><text fill="rgb(68,68,68)" stroke="none" font-family="helvetica" font-size="11px" font-style="normal" font-weight="normal" text-decoration="normal" x="322.91619873046875" y="91.945068359375" text-anchor="start" dominant-baseline="alphabetic" transform="matrix(0.7071067811865476, -0.7071067811865475, 0.7071067811865475, 0.7071067811865476, 39.12517165958275, 269.7494132695536)" fill-opacity="1">0.15</text><text fill="rgb(68,68,68)" stroke="none" font-family="helvetica" font-size="11px" font-style="normal" font-weight="normal" text-decoration="normal" x="392.4150695800781" y="91.945068359375" text-anchor="start" dominant-baseline="alphabetic" transform="matrix(0.7071067811865476, -0.7071067811865475, 0.7071067811865475, 0.7071067811865476, 57.68909389539783, 314.5666861020979)" fill-opacity="1">0.2</text><text fill="rgb(68,68,68)" stroke="none" font-family="helvetica" font-size="11px" font-style="normal" font-weight="normal" text-decoration="normal" x="449.6785888671875" y="91.945068359375" text-anchor="start" dominant-baseline="alphabetic" transform="matrix(0.7071067811865476, -0.7071067811865475, 0.7071067811865475, 0.7071067811865476, 76.25301613121297, 359.3839589346422)" fill-opacity="1">0.25</text><text fill="rgb(68,68,68)" stroke="none" font-family="helvetica" font-size="11px" font-style="normal" font-weight="normal" text-decoration="normal" x="519.1774291992188" y="91.945068359375" text-anchor="start" dominant-baseline="alphabetic" transform="matrix(0.7071067811865476, -0.7071067811865475, 0.7071067811865475, 0.7071067811865476, 94.81692942863634, 404.201210188)" fill-opacity="1">0.3</text><text fill="rgb(68,68,68)" stroke="none" font-family="helvetica" font-size="13px" font-style="italic" font-weight="normal" text-decoration="normal" x="303.484130859375" y="128.71774531498966" text-anchor="start" dominant-baseline="alphabetic" transform="matrix(1, 0, 0, 1, 0.5, 0.5)" fill-opacity="1">Importance</text><path fill="none" stroke="rgb(0,0,0)" paint-order="fill" d="M 136.5 77.5 L 136.5 27.5" stroke-opacity="1" stroke-linejoin="bevel" stroke-miterlimit="10" stroke-dasharray=""/><path fill="none" stroke="rgb(0,0,0)" paint-order="fill" d="M 130.5 71.5 L 138.5 71.5 M 130.5 58.5 L 138.5 58.5 M 130.5 46.5 L 138.5 46.5 M 130.5 33.5 L 138.5 33.5" stroke-opacity="1" stroke-linejoin="bevel" stroke-miterlimit="10" stroke-dasharray=""/><path fill="none" stroke="rgb(0,0,0)" paint-order="fill" d="" stroke-opacity="1" stroke-linejoin="bevel" stroke-miterlimit="10" stroke-dasharray=""/><text fill="rgb(68,68,68)" stroke="none" font-family="helvetica" font-size="11px" font-style="normal" font-weight="normal" text-decoration="normal" x="57.73779296875" y="74.25" text-anchor="start" dominant-baseline="alphabetic" transform="matrix(1, 0, 0, 1, 0.5, 0.5)" fill-opacity="1">Bacteroidetes</text><text fill="rgb(68,68,68)" stroke="none" font-family="helvetica" font-size="11px" font-style="normal" font-weight="normal" text-decoration="normal" x="54.0693359375" y="61.75" text-anchor="start" dominant-baseline="alphabetic" transform="matrix(1, 0, 0, 1, 0.5, 0.5)" fill-opacity="1">Cyanobacteria</text><text fill="rgb(68,68,68)" stroke="none" font-family="helvetica" font-size="11px" font-style="normal" font-weight="normal" text-decoration="normal" x="2.7109375" y="49.25" text-anchor="start" dominant-baseline="alphabetic" transform="matrix(1, 0, 0, 1, 0.5, 0.5)" fill-opacity="1">Candidate division BRC1</text><text fill="rgb(68,68,68)" stroke="none" font-family="helvetica" font-size="11px" font-style="normal" font-weight="normal" text-decoration="normal" x="58.35009765625" y="36.75" text-anchor="start" dominant-baseline="alphabetic" transform="matrix(1, 0, 0, 1, 0.5, 0.5)" fill-opacity="1">Acidobacteria</text><path fill="none" stroke="none"/><text fill="rgb(68,68,68)" stroke="none" font-family="helvetica" font-size="13px" font-style="normal" font-weight="bold" text-decoration="normal" x="0" y="0" text-anchor="start" dominant-baseline="text-after-edge" transform="matrix(1, 0, 0, 1, 136.5, 22.5)" fill-opacity="1">PO4 (µmol/L)</text></svg>