<svg version="1.1" xmlns="http://www.w3.org/2000/svg" xmlns:xlink="http://www.w3.org/1999/xlink" width="489" height="135"><defs><clipPath id="PmOAOEVZBxbb"><path fill="none" stroke="none" d="M 84.5 27.5 L 484.5 27.5 L 484.5 77.5 L 84.5 77.5 L 84.5 27.5"/></clipPath><clipPath id="DNBvaBQqApQT"><path fill="none" stroke="none" d="M 84.5 27.5 L 484.5 27.5 L 484.5 77.5 L 84.5 77.5 L 84.5 27.5"/></clipPath><clipPath id="xwZAMKPNZMQH"><path fill="none" stroke="none" d="M 84.5 27.5 L 484.5 27.5 L 484.5 77.5 L 84.5 77.5 L 84.5 27.5"/></clipPath><clipPath id="reNUOuxksJff"><path fill="none" stroke="none" d="M 84.5 27.5 L 484.5 27.5 L 484.5 77.5 L 84.5 77.5 L 84.5 27.5"/></clipPath></defs><path fill="none" stroke="rgb(229,229,229)" paint-order="fill" d="M 84.5 27.5 L 484.5 27.5 L 484.5 77.5 L 84.5 77.5 L 84.5 27.5" stroke-opacity="1" stroke-linejoin="bevel" stroke-miterlimit="10" stroke-dasharray=""/><path fill="none" stroke="rgb(229,229,229)" paint-order="fill" d="M 102.5 77.5 L 102.5 27.5 M 169.5 77.5 L 169.5 27.5 M 236.5 77.5 L 236.5 27.5 M 304.5 77.5 L 304.5 27.5 M 371.5 77.5 L 371.5 27.5 M 438.5 77.5 L 438.5 27.5" stroke-opacity="1" stroke-linejoin="bevel" stroke-miterlimit="10" stroke-dasharray="" clip-path="url(#PmOAOEVZBxbb)"/><path fill="none" stroke="rgb(229,229,229)" paint-order="fill" d="M 84.5 71.5 L 484.5 71.5 M 84.5 58.5 L 484.5 58.5 M 84.5 46.5 L 484.5 46.5 M 84.5 33.5 L 484.5 33.5" stroke-opacity="1" stroke-linejoin="bevel" stroke-miterlimit="10" stroke-dasharray="" clip-path="url(#DNBvaBQqApQT)"/><path fill="none" stroke="none"/><path fill="rgb(128,206,100)" stroke="none" paint-order="stroke" d="M 102.68181610107422 28.75 L 466.31817626953125 28.75 L 466.31817626953125 38.75 L 102.68181610107422 38.75 L 102.68181610107422 28.75" fill-opacity="1" clip-path="url(#xwZAMKPNZMQH)"/><path fill="none" stroke="rgb(128,206,100)" paint-order="fill" d="M 102.68181610107422 28.75 L 466.31817626953125 28.75 L 466.31817626953125 38.75 L 102.68181610107422 38.75 L 102.68181610107422 28.75" stroke-opacity="1" stroke-linejoin="bevel" stroke-miterlimit="10" stroke-dasharray="" clip-path="url(#xwZAMKPNZMQH)"/><path fill="rgb(143,210,95)" stroke="none" paint-order="stroke" d="M 102.68181610107422 41.25 L 449.5041198730469 41.25 L 449.5041198730469 51.25 L 102.68181610107422 51.25 L 102.68181610107422 41.25" fill-opacity="1" clip-path="url(#xwZAMKPNZMQH)"/><path fill="none" stroke="rgb(143,210,95)" paint-order="fill" d="M 102.68181610107422 41.25 L 449.5041198730469 41.25 L 449.5041198730469 51.25 L 102.68181610107422 51.25 L 102.68181610107422 41.25" stroke-opacity="1" stroke-linejoin="bevel" stroke-miterlimit="10" stroke-dasharray="" clip-path="url(#xwZAMKPNZMQH)"/><path fill="rgb(122,203,103)" stroke="none" paint-order="stroke" d="M 102.68181610107422 53.75 L 350.7676696777344 53.75 L 350.7676696777344 63.75 L 102.68181610107422 63.75 L 102.68181610107422 53.75" fill-opacity="1" clip-path="url(#xwZAMKPNZMQH)"/><path fill="none" stroke="rgb(122,203,103)" paint-order="fill" d="M 102.68181610107422 53.75 L 350.7676696777344 53.75 L 350.7676696777344 63.75 L 102.68181610107422 63.75 L 102.68181610107422 53.75" stroke-opacity="1" stroke-linejoin="bevel" stroke-miterlimit="10" stroke-dasharray="" clip-path="url(#xwZAMKPNZMQH)"/><path fill="rgb(112,199,108)" stroke="none" paint-order="stroke" d="M 102.68181610107422 66.25 L 326.41180419921875 66.25 L 326.41180419921875 76.25 L 102.68181610107422 76.25 L 102.68181610107422 66.25" fill-opacity="1" clip-path="url(#xwZAMKPNZMQH)"/><path fill="none" stroke="rgb(112,199,108)" paint-order="fill" d="M 102.68181610107422 66.25 L 326.41180419921875 66.25 L 326.41180419921875 76.25 L 102.68181610107422 76.25 L 102.68181610107422 66.25" stroke-opacity="1" stroke-linejoin="bevel" stroke-miterlimit="10" stroke-dasharray="" clip-path="url(#xwZAMKPNZMQH)"/><path fill="none" stroke="rgb(0,0,0)" paint-order="fill" d="M 84.5 77.5 L 484.5 77.5" stroke-opacity="1" stroke-linejoin="bevel" stroke-miterlimit="10" stroke-dasharray=""/><path fill="none" stroke="rgb(0,0,0)" paint-order="fill" d="M 102.5 83.5 L 102.5 75.5 M 169.5 83.5 L 169.5 75.5 M 236.5 83.5 L 236.5 75.5 M 304.5 83.5 L 304.5 75.5 M 371.5 83.5 L 371.5 75.5 M 438.5 83.5 L 438.5 75.5" stroke-opacity="1" stroke-linejoin="bevel" stroke-miterlimit="10" stroke-dasharray=""/><path fill="none" stroke="rgb(0,0,0)" paint-order="fill" d="M 89.5 81.5 L 89.5 77.5 M 102.5 81.5 L 102.5 77.5 M 116.5 81.5 L 116.5 77.5 M 129.5 81.5 L 129.5 77.5 M 142.5 81.5 L 142.5 77.5 M 156.5 81.5 L 156.5 77.5 M 169.5 81.5 L 169.5 77.5 M 183.5 81.5 L 183.5 77.5 M 196.5 81.5 L 196.5 77.5 M 210.5 81.5 L 210.5 77.5 M 223.5 81.5 L 223.5 77.5 M 236.5 81.5 L 236.5 77.5 M 250.5 81.5 L 250.5 77.5 M 263.5 81.5 L 263.5 77.5 M 277.5 81.5 L 277.5 77.5 M 290.5 81.5 L 290.5 77.5 M 304.5 81.5 L 304.5 77.5 M 317.5 81.5 L 317.5 77.5 M 330.5 81.5 L 330.5 77.5 M 344.5 81.5 L 344.5 77.5 M 357.5 81.5 L 357.5 77.5 M 371.5 81.5 L 371.5 77.5 M 384.5 81.5 L 384.5 77.5 M 397.5 81.5 L 397.5 77.5 M 411.5 81.5 L 411.5 77.5 M 424.5 81.5 L 424.5 77.5 M 438.5 81.5 L 438.5 77.5 M 451.5 81.5 L 451.5 77.5 M 465.5 81.5 L 465.5 77.5 M 478.5 81.5 L 478.5 77.5" stroke-opacity="1" stroke-linejoin="bevel" stroke-miterlimit="10" stroke-dasharray=""/><text fill="rgb(68,68,68)" stroke="none" font-family="helvetica" font-size="11px" font-style="normal" font-weight="normal" text-decoration="normal" x="96.06414031982422" y="91.945068359375" text-anchor="start" dominant-baseline="alphabetic" transform="matrix(0.7071067811865476, -0.7071067811865475, 0.7071067811865475, 0.7071067811865476, -31.797035722368292, 98.52805833461014)" fill-opacity="1">0</text><text fill="rgb(68,68,68)" stroke="none" font-family="helvetica" font-size="11px" font-style="normal" font-weight="normal" text-decoration="normal" x="147.8798828125" y="91.945068359375" text-anchor="start" dominant-baseline="alphabetic" transform="matrix(0.7071067811865476, -0.7071067811865475, 0.7071067811865475, 0.7071067811865476, -12.14177831887946, 145.98004733004706)" fill-opacity="1">0.02</text><text fill="rgb(68,68,68)" stroke="none" font-family="helvetica" font-size="11px" font-style="normal" font-weight="normal" text-decoration="normal" x="214.9871368408203" y="91.945068359375" text-anchor="start" dominant-baseline="alphabetic" transform="matrix(0.7071067811865476, -0.7071067811865475, 0.7071067811865475, 0.7071067811865476, 7.513481319207301, 193.4320417202806)" fill-opacity="1">0.04</text><text fill="rgb(68,68,68)" stroke="none" font-family="helvetica" font-size="11px" font-style="normal" font-weight="normal" text-decoration="normal" x="282.0943908691406" y="91.945068359375" text-anchor="start" dominant-baseline="alphabetic" transform="matrix(0.7071067811865476, -0.7071067811865475, 0.7071067811865475, 0.7071067811865476, 27.168740957294062, 240.88403611051416)" fill-opacity="1">0.06</text><text fill="rgb(68,68,68)" stroke="none" font-family="helvetica" font-size="11px" font-style="normal" font-weight="normal" text-decoration="normal" x="349.2016296386719" y="91.945068359375" text-anchor="start" dominant-baseline="alphabetic" transform="matrix(0.7071067811865476, -0.7071067811865475, 0.7071067811865475, 0.7071067811865476, 46.823996126184966, 288.3360197111545)" fill-opacity="1">0.08</text><text fill="rgb(68,68,68)" stroke="none" font-family="helvetica" font-size="11px" font-style="normal" font-weight="normal" text-decoration="normal" x="422.4265441894531" y="91.945068359375" text-anchor="start" dominant-baseline="alphabetic" transform="matrix(0.7071067811865476, -0.7071067811865475, 0.7071067811865475, 0.7071067811865476, 66.47925129507587, 335.78800331179485)" fill-opacity="1">0.1</text><text fill="rgb(68,68,68)" stroke="none" font-family="helvetica" font-size="13px" font-style="italic" font-weight="normal" text-decoration="normal" x="251.484130859375" y="128.71774531498966" text-anchor="start" dominant-baseline="alphabetic" transform="matrix(1, 0, 0, 1, 0.5, 0.5)" fill-opacity="1">Importance</text><path fill="none" stroke="rgb(0,0,0)" paint-order="fill" d="M 84.5 77.5 L 84.5 27.5" stroke-opacity="1" stroke-linejoin="bevel" stroke-miterlimit="10" stroke-dasharray=""/><path fill="none" stroke="rgb(0,0,0)" paint-order="fill" d="M 78.5 71.5 L 86.5 71.5 M 78.5 58.5 L 86.5 58.5 M 78.5 46.5 L 86.5 46.5 M 78.5 33.5 L 86.5 33.5" stroke-opacity="1" stroke-linejoin="bevel" stroke-miterlimit="10" stroke-dasharray=""/><path fill="none" stroke="rgb(0,0,0)" paint-order="fill" d="" stroke-opacity="1" stroke-linejoin="bevel" stroke-miterlimit="10" stroke-dasharray=""/><text fill="rgb(68,68,68)" stroke="none" font-family="helvetica" font-size="11px" font-style="normal" font-weight="normal" text-decoration="normal" x="5.73779296875" y="74.25" text-anchor="start" dominant-baseline="alphabetic" transform="matrix(1, 0, 0, 1, 0.5, 0.5)" fill-opacity="1">Bacteroidetes</text><text fill="rgb(68,68,68)" stroke="none" font-family="helvetica" font-size="11px" font-style="normal" font-weight="normal" text-decoration="normal" x="41.82080078125" y="61.75" text-anchor="start" dominant-baseline="alphabetic" transform="matrix(1, 0, 0, 1, 0.5, 0.5)" fill-opacity="1">BD1-5</text><text fill="rgb(68,68,68)" stroke="none" font-family="helvetica" font-size="11px" font-style="normal" font-weight="normal" text-decoration="normal" x="3.27783203125" y="49.25" text-anchor="start" dominant-baseline="alphabetic" transform="matrix(1, 0, 0, 1, 0.5, 0.5)" fill-opacity="1">Lentisphaerae</text><text fill="rgb(68,68,68)" stroke="none" font-family="helvetica" font-size="11px" font-style="normal" font-weight="normal" text-decoration="normal" x="16.74853515625" y="36.75" text-anchor="start" dominant-baseline="alphabetic" transform="matrix(1, 0, 0, 1, 0.5, 0.5)" fill-opacity="1">Tenericutes</text><path fill="none" stroke="none"/><text fill="rgb(68,68,68)" stroke="none" font-family="helvetica" font-size="13px" font-style="normal" font-weight="bold" text-decoration="normal" x="0" y="0" text-anchor="start" dominant-baseline="text-after-edge" transform="matrix(1, 0, 0, 1, 84.5, 22.5)" fill-opacity="1">Salinity (PSU)</text></svg>