<svg version="1.1" xmlns="http://www.w3.org/2000/svg" xmlns:xlink="http://www.w3.org/1999/xlink" width="489" height="135"><defs><clipPath id="MZeJyIMCnalT"><path fill="none" stroke="none" d="M 84.5 27.5 L 484.5 27.5 L 484.5 77.5 L 84.5 77.5 L 84.5 27.5"/></clipPath><clipPath id="pLsAZTLRiNqR"><path fill="none" stroke="none" d="M 84.5 27.5 L 484.5 27.5 L 484.5 77.5 L 84.5 77.5 L 84.5 27.5"/></clipPath><clipPath id="HwnDqcICLgvq"><path fill="none" stroke="none" d="M 84.5 27.5 L 484.5 27.5 L 484.5 77.5 L 84.5 77.5 L 84.5 27.5"/></clipPath><clipPath id="inLbvNJyrLgC"><path fill="none" stroke="none" d="M 84.5 27.5 L 484.5 27.5 L 484.5 77.5 L 84.5 77.5 L 84.5 27.5"/></clipPath></defs><path fill="none" stroke="rgb(229,229,229)" paint-order="fill" d="M 84.5 27.5 L 484.5 27.5 L 484.5 77.5 L 84.5 77.5 L 84.5 27.5" stroke-opacity="1" stroke-linejoin="bevel" stroke-miterlimit="10" stroke-dasharray=""/><path fill="none" stroke="rgb(229,229,229)" paint-order="fill" d="M 102.5 77.5 L 102.5 27.5 M 160.5 77.5 L 160.5 27.5 M 217.5 77.5 L 217.5 27.5 M 275.5 77.5 L 275.5 27.5 M 333.5 77.5 L 333.5 27.5 M 390.5 77.5 L 390.5 27.5 M 448.5 77.5 L 448.5 27.5" stroke-opacity="1" stroke-linejoin="bevel" stroke-miterlimit="10" stroke-dasharray="" clip-path="url(#MZeJyIMCnalT)"/><path fill="none" stroke="rgb(229,229,229)" paint-order="fill" d="M 84.5 71.5 L 484.5 71.5 M 84.5 58.5 L 484.5 58.5 M 84.5 46.5 L 484.5 46.5 M 84.5 33.5 L 484.5 33.5" stroke-opacity="1" stroke-linejoin="bevel" stroke-miterlimit="10" stroke-dasharray="" clip-path="url(#pLsAZTLRiNqR)"/><path fill="none" stroke="none"/><path fill="rgb(146,211,94)" stroke="none" paint-order="stroke" d="M 102.68181610107422 28.75 L 466.31817626953125 28.75 L 466.31817626953125 38.75 L 102.68181610107422 38.75 L 102.68181610107422 28.75" fill-opacity="1" clip-path="url(#HwnDqcICLgvq)"/><path fill="none" stroke="rgb(146,211,94)" paint-order="fill" d="M 102.68181610107422 28.75 L 466.31817626953125 28.75 L 466.31817626953125 38.75 L 102.68181610107422 38.75 L 102.68181610107422 28.75" stroke-opacity="1" stroke-linejoin="bevel" stroke-miterlimit="10" stroke-dasharray="" clip-path="url(#HwnDqcICLgvq)"/><path fill="rgb(120,203,104)" stroke="none" paint-order="stroke" d="M 102.68181610107422 41.25 L 388.5794677734375 41.25 L 388.5794677734375 51.25 L 102.68181610107422 51.25 L 102.68181610107422 41.25" fill-opacity="1" clip-path="url(#HwnDqcICLgvq)"/><path fill="none" stroke="rgb(120,203,104)" paint-order="fill" d="M 102.68181610107422 41.25 L 388.5794677734375 41.25 L 388.5794677734375 51.25 L 102.68181610107422 51.25 L 102.68181610107422 41.25" stroke-opacity="1" stroke-linejoin="bevel" stroke-miterlimit="10" stroke-dasharray="" clip-path="url(#HwnDqcICLgvq)"/><path fill="rgb(119,202,104)" stroke="none" paint-order="stroke" d="M 102.68181610107422 53.75 L 318.9046325683594 53.75 L 318.9046325683594 63.75 L 102.68181610107422 63.75 L 102.68181610107422 53.75" fill-opacity="1" clip-path="url(#HwnDqcICLgvq)"/><path fill="none" stroke="rgb(119,202,104)" paint-order="fill" d="M 102.68181610107422 53.75 L 318.9046325683594 53.75 L 318.9046325683594 63.75 L 102.68181610107422 63.75 L 102.68181610107422 53.75" stroke-opacity="1" stroke-linejoin="bevel" stroke-miterlimit="10" stroke-dasharray="" clip-path="url(#HwnDqcICLgvq)"/><path fill="rgb(88,184,121)" stroke="none" paint-order="stroke" d="M 102.68181610107422 66.25 L 269.1189270019531 66.25 L 269.1189270019531 76.25 L 102.68181610107422 76.25 L 102.68181610107422 66.25" fill-opacity="1" clip-path="url(#HwnDqcICLgvq)"/><path fill="none" stroke="rgb(88,184,121)" paint-order="fill" d="M 102.68181610107422 66.25 L 269.1189270019531 66.25 L 269.1189270019531 76.25 L 102.68181610107422 76.25 L 102.68181610107422 66.25" stroke-opacity="1" stroke-linejoin="bevel" stroke-miterlimit="10" stroke-dasharray="" clip-path="url(#HwnDqcICLgvq)"/><path fill="none" stroke="rgb(0,0,0)" paint-order="fill" d="M 84.5 77.5 L 484.5 77.5" stroke-opacity="1" stroke-linejoin="bevel" stroke-miterlimit="10" stroke-dasharray=""/><path fill="none" stroke="rgb(0,0,0)" paint-order="fill" d="M 102.5 83.5 L 102.5 75.5 M 160.5 83.5 L 160.5 75.5 M 217.5 83.5 L 217.5 75.5 M 275.5 83.5 L 275.5 75.5 M 333.5 83.5 L 333.5 75.5 M 390.5 83.5 L 390.5 75.5 M 448.5 83.5 L 448.5 75.5" stroke-opacity="1" stroke-linejoin="bevel" stroke-miterlimit="10" stroke-dasharray=""/><path fill="none" stroke="rgb(0,0,0)" paint-order="fill" d="M 91.5 81.5 L 91.5 77.5 M 102.5 81.5 L 102.5 77.5 M 114.5 81.5 L 114.5 77.5 M 125.5 81.5 L 125.5 77.5 M 137.5 81.5 L 137.5 77.5 M 148.5 81.5 L 148.5 77.5 M 160.5 81.5 L 160.5 77.5 M 171.5 81.5 L 171.5 77.5 M 183.5 81.5 L 183.5 77.5 M 194.5 81.5 L 194.5 77.5 M 206.5 81.5 L 206.5 77.5 M 217.5 81.5 L 217.5 77.5 M 229.5 81.5 L 229.5 77.5 M 240.5 81.5 L 240.5 77.5 M 252.5 81.5 L 252.5 77.5 M 263.5 81.5 L 263.5 77.5 M 275.5 81.5 L 275.5 77.5 M 286.5 81.5 L 286.5 77.5 M 298.5 81.5 L 298.5 77.5 M 310.5 81.5 L 310.5 77.5 M 321.5 81.5 L 321.5 77.5 M 333.5 81.5 L 333.5 77.5 M 344.5 81.5 L 344.5 77.5 M 356.5 81.5 L 356.5 77.5 M 367.5 81.5 L 367.5 77.5 M 379.5 81.5 L 379.5 77.5 M 390.5 81.5 L 390.5 77.5 M 402.5 81.5 L 402.5 77.5 M 413.5 81.5 L 413.5 77.5 M 425.5 81.5 L 425.5 77.5 M 436.5 81.5 L 436.5 77.5 M 448.5 81.5 L 448.5 77.5 M 459.5 81.5 L 459.5 77.5 M 471.5 81.5 L 471.5 77.5 M 482.5 81.5 L 482.5 77.5" stroke-opacity="1" stroke-linejoin="bevel" stroke-miterlimit="10" stroke-dasharray=""/><text fill="rgb(68,68,68)" stroke="none" font-family="helvetica" font-size="11px" font-style="normal" font-weight="normal" text-decoration="normal" x="96.06414031982422" y="91.945068359375" text-anchor="start" dominant-baseline="alphabetic" transform="matrix(0.7071067811865476, -0.7071067811865475, 0.7071067811865475, 0.7071067811865476, -31.797035722368292, 98.52805833461014)" fill-opacity="1">0</text><text fill="rgb(68,68,68)" stroke="none" font-family="helvetica" font-size="11px" font-style="normal" font-weight="normal" text-decoration="normal" x="138.36155700683594" y="91.945068359375" text-anchor="start" dominant-baseline="alphabetic" transform="matrix(0.7071067811865476, -0.7071067811865475, 0.7071067811865475, 0.7071067811865476, -14.929631401815527, 139.24957460731912)" fill-opacity="1">0.02</text><text fill="rgb(68,68,68)" stroke="none" font-family="helvetica" font-size="11px" font-style="normal" font-weight="normal" text-decoration="normal" x="195.95045471191406" y="91.945068359375" text-anchor="start" dominant-baseline="alphabetic" transform="matrix(0.7071067811865476, -0.7071067811865475, 0.7071067811865475, 0.7071067811865476, 1.937766214943423, 179.97107469563826)" fill-opacity="1">0.04</text><text fill="rgb(68,68,68)" stroke="none" font-family="helvetica" font-size="11px" font-style="normal" font-weight="normal" text-decoration="normal" x="253.53936767578125" y="91.945068359375" text-anchor="start" dominant-baseline="alphabetic" transform="matrix(0.7071067811865476, -0.7071067811865475, 0.7071067811865475, 0.7071067811865476, 18.80516830089823, 220.69258557355062)" fill-opacity="1">0.06</text><text fill="rgb(68,68,68)" stroke="none" font-family="helvetica" font-size="11px" font-style="normal" font-weight="normal" text-decoration="normal" x="311.1282958984375" y="91.945068359375" text-anchor="start" dominant-baseline="alphabetic" transform="matrix(0.7071067811865476, -0.7071067811865475, 0.7071067811865475, 0.7071067811865476, 35.672574856048925, 261.4141072410562)" fill-opacity="1">0.08</text><text fill="rgb(68,68,68)" stroke="none" font-family="helvetica" font-size="11px" font-style="normal" font-weight="normal" text-decoration="normal" x="374.8348693847656" y="91.945068359375" text-anchor="start" dominant-baseline="alphabetic" transform="matrix(0.7071067811865476, -0.7071067811865475, 0.7071067811865475, 0.7071067811865476, 52.539972472807904, 302.1356073293753)" fill-opacity="1">0.1</text><text fill="rgb(68,68,68)" stroke="none" font-family="helvetica" font-size="11px" font-style="normal" font-weight="normal" text-decoration="normal" x="426.3061218261719" y="91.945068359375" text-anchor="start" dominant-baseline="alphabetic" transform="matrix(0.7071067811865476, -0.7071067811865475, 0.7071067811865475, 0.7071067811865476, 69.40737902795854, 342.85712899688093)" fill-opacity="1">0.12</text><text fill="rgb(68,68,68)" stroke="none" font-family="helvetica" font-size="13px" font-style="italic" font-weight="normal" text-decoration="normal" x="251.484130859375" y="128.71774531498966" text-anchor="start" dominant-baseline="alphabetic" transform="matrix(1, 0, 0, 1, 0.5, 0.5)" fill-opacity="1">Importance</text><path fill="none" stroke="rgb(0,0,0)" paint-order="fill" d="M 84.5 77.5 L 84.5 27.5" stroke-opacity="1" stroke-linejoin="bevel" stroke-miterlimit="10" stroke-dasharray=""/><path fill="none" stroke="rgb(0,0,0)" paint-order="fill" d="M 78.5 71.5 L 86.5 71.5 M 78.5 58.5 L 86.5 58.5 M 78.5 46.5 L 86.5 46.5 M 78.5 33.5 L 86.5 33.5" stroke-opacity="1" stroke-linejoin="bevel" stroke-miterlimit="10" stroke-dasharray=""/><path fill="none" stroke="rgb(0,0,0)" paint-order="fill" d="" stroke-opacity="1" stroke-linejoin="bevel" stroke-miterlimit="10" stroke-dasharray=""/><text fill="rgb(68,68,68)" stroke="none" font-family="helvetica" font-size="11px" font-style="normal" font-weight="normal" text-decoration="normal" x="21.03466796875" y="74.25" text-anchor="start" dominant-baseline="alphabetic" transform="matrix(1, 0, 0, 1, 0.5, 0.5)" fill-opacity="1">Chloroflexi</text><text fill="rgb(68,68,68)" stroke="none" font-family="helvetica" font-size="11px" font-style="normal" font-weight="normal" text-decoration="normal" x="3.27783203125" y="61.75" text-anchor="start" dominant-baseline="alphabetic" transform="matrix(1, 0, 0, 1, 0.5, 0.5)" fill-opacity="1">Lentisphaerae</text><text fill="rgb(68,68,68)" stroke="none" font-family="helvetica" font-size="11px" font-style="normal" font-weight="normal" text-decoration="normal" x="9.41162109375" y="49.25" text-anchor="start" dominant-baseline="alphabetic" transform="matrix(1, 0, 0, 1, 0.5, 0.5)" fill-opacity="1">Fusobacteria</text><text fill="rgb(68,68,68)" stroke="none" font-family="helvetica" font-size="11px" font-style="normal" font-weight="normal" text-decoration="normal" x="3.2939453125" y="36.75" text-anchor="start" dominant-baseline="alphabetic" transform="matrix(1, 0, 0, 1, 0.5, 0.5)" fill-opacity="1">Actinobacteria</text><path fill="none" stroke="none"/><text fill="rgb(68,68,68)" stroke="none" font-family="helvetica" font-size="13px" font-style="normal" font-weight="bold" text-decoration="normal" x="0" y="0" text-anchor="start" dominant-baseline="text-after-edge" transform="matrix(1, 0, 0, 1, 84.5, 22.5)" fill-opacity="1">Latitude</text></svg>