<svg version="1.1" xmlns="http://www.w3.org/2000/svg" xmlns:xlink="http://www.w3.org/1999/xlink" width="601" height="143"><defs><clipPath id="hzAnvaPwKori"><path fill="none" stroke="none" d="M 196.5 27.5 L 596.5 27.5 L 596.5 77.5 L 196.5 77.5 L 196.5 27.5"/></clipPath><clipPath id="rGTbQTlPBabh"><path fill="none" stroke="none" d="M 196.5 27.5 L 596.5 27.5 L 596.5 77.5 L 196.5 77.5 L 196.5 27.5"/></clipPath><clipPath id="GvGbTgeCtDEK"><path fill="none" stroke="none" d="M 196.5 27.5 L 596.5 27.5 L 596.5 77.5 L 196.5 77.5 L 196.5 27.5"/></clipPath><clipPath id="bqhxwWlFtUzP"><path fill="none" stroke="none" d="M 196.5 27.5 L 596.5 27.5 L 596.5 77.5 L 196.5 77.5 L 196.5 27.5"/></clipPath></defs><path fill="none" stroke="rgb(229,229,229)" paint-order="fill" d="M 196.5 27.5 L 596.5 27.5 L 596.5 77.5 L 196.5 77.5 L 196.5 27.5" stroke-opacity="1" stroke-linejoin="bevel" stroke-miterlimit="10" stroke-dasharray=""/><path fill="none" stroke="rgb(229,229,229)" paint-order="fill" d="M 214.5 77.5 L 214.5 27.5 M 265.5 77.5 L 265.5 27.5 M 316.5 77.5 L 316.5 27.5 M 367.5 77.5 L 367.5 27.5 M 418.5 77.5 L 418.5 27.5 M 469.5 77.5 L 469.5 27.5 M 520.5 77.5 L 520.5 27.5 M 571.5 77.5 L 571.5 27.5" stroke-opacity="1" stroke-linejoin="bevel" stroke-miterlimit="10" stroke-dasharray="" clip-path="url(#hzAnvaPwKori)"/><path fill="none" stroke="rgb(229,229,229)" paint-order="fill" d="M 196.5 71.5 L 596.5 71.5 M 196.5 58.5 L 596.5 58.5 M 196.5 46.5 L 596.5 46.5 M 196.5 33.5 L 596.5 33.5" stroke-opacity="1" stroke-linejoin="bevel" stroke-miterlimit="10" stroke-dasharray="" clip-path="url(#rGTbQTlPBabh)"/><path fill="none" stroke="none"/><path fill="rgb(66,157,133)" stroke="none" paint-order="stroke" d="M 214.68182373046875 28.75 L 578.3181762695312 28.75 L 578.3181762695312 38.75 L 214.68182373046875 38.75 L 214.68182373046875 28.75" fill-opacity="1" clip-path="url(#GvGbTgeCtDEK)"/><path fill="none" stroke="rgb(66,157,133)" paint-order="fill" d="M 214.68182373046875 28.75 L 578.3181762695312 28.75 L 578.3181762695312 38.75 L 214.68182373046875 38.75 L 214.68182373046875 28.75" stroke-opacity="1" stroke-linejoin="bevel" stroke-miterlimit="10" stroke-dasharray="" clip-path="url(#GvGbTgeCtDEK)"/><path fill="rgb(65,156,133)" stroke="none" paint-order="stroke" d="M 214.68182373046875 41.25 L 537.2281494140625 41.25 L 537.2281494140625 51.25 L 214.68182373046875 51.25 L 214.68182373046875 41.25" fill-opacity="1" clip-path="url(#GvGbTgeCtDEK)"/><path fill="none" stroke="rgb(65,156,133)" paint-order="fill" d="M 214.68182373046875 41.25 L 537.2281494140625 41.25 L 537.2281494140625 51.25 L 214.68182373046875 51.25 L 214.68182373046875 41.25" stroke-opacity="1" stroke-linejoin="bevel" stroke-miterlimit="10" stroke-dasharray="" clip-path="url(#GvGbTgeCtDEK)"/><path fill="rgb(65,156,133)" stroke="none" paint-order="stroke" d="M 214.68182373046875 53.75 L 524.01611328125 53.75 L 524.01611328125 63.75 L 214.68182373046875 63.75 L 214.68182373046875 53.75" fill-opacity="1" clip-path="url(#GvGbTgeCtDEK)"/><path fill="none" stroke="rgb(65,156,133)" paint-order="fill" d="M 214.68182373046875 53.75 L 524.01611328125 53.75 L 524.01611328125 63.75 L 214.68182373046875 63.75 L 214.68182373046875 53.75" stroke-opacity="1" stroke-linejoin="bevel" stroke-miterlimit="10" stroke-dasharray="" clip-path="url(#GvGbTgeCtDEK)"/><path fill="rgb(65,156,133)" stroke="none" paint-order="stroke" d="M 214.68182373046875 66.25 L 501.490966796875 66.25 L 501.490966796875 76.25 L 214.68182373046875 76.25 L 214.68182373046875 66.25" fill-opacity="1" clip-path="url(#GvGbTgeCtDEK)"/><path fill="none" stroke="rgb(65,156,133)" paint-order="fill" d="M 214.68182373046875 66.25 L 501.490966796875 66.25 L 501.490966796875 76.25 L 214.68182373046875 76.25 L 214.68182373046875 66.25" stroke-opacity="1" stroke-linejoin="bevel" stroke-miterlimit="10" stroke-dasharray="" clip-path="url(#GvGbTgeCtDEK)"/><path fill="none" stroke="rgb(0,0,0)" paint-order="fill" d="M 196.5 77.5 L 596.5 77.5" stroke-opacity="1" stroke-linejoin="bevel" stroke-miterlimit="10" stroke-dasharray=""/><path fill="none" stroke="rgb(0,0,0)" paint-order="fill" d="M 214.5 83.5 L 214.5 75.5 M 265.5 83.5 L 265.5 75.5 M 316.5 83.5 L 316.5 75.5 M 367.5 83.5 L 367.5 75.5 M 418.5 83.5 L 418.5 75.5 M 469.5 83.5 L 469.5 75.5 M 520.5 83.5 L 520.5 75.5 M 571.5 83.5 L 571.5 75.5" stroke-opacity="1" stroke-linejoin="bevel" stroke-miterlimit="10" stroke-dasharray=""/><path fill="none" stroke="rgb(0,0,0)" paint-order="fill" d="M 204.5 81.5 L 204.5 77.5 M 214.5 81.5 L 214.5 77.5 M 224.5 81.5 L 224.5 77.5 M 235.5 81.5 L 235.5 77.5 M 245.5 81.5 L 245.5 77.5 M 255.5 81.5 L 255.5 77.5 M 265.5 81.5 L 265.5 77.5 M 275.5 81.5 L 275.5 77.5 M 285.5 81.5 L 285.5 77.5 M 296.5 81.5 L 296.5 77.5 M 306.5 81.5 L 306.5 77.5 M 316.5 81.5 L 316.5 77.5 M 326.5 81.5 L 326.5 77.5 M 336.5 81.5 L 336.5 77.5 M 347.5 81.5 L 347.5 77.5 M 357.5 81.5 L 357.5 77.5 M 367.5 81.5 L 367.5 77.5 M 377.5 81.5 L 377.5 77.5 M 387.5 81.5 L 387.5 77.5 M 398.5 81.5 L 398.5 77.5 M 408.5 81.5 L 408.5 77.5 M 418.5 81.5 L 418.5 77.5 M 428.5 81.5 L 428.5 77.5 M 438.5 81.5 L 438.5 77.5 M 449.5 81.5 L 449.5 77.5 M 459.5 81.5 L 459.5 77.5 M 469.5 81.5 L 469.5 77.5 M 479.5 81.5 L 479.5 77.5 M 489.5 81.5 L 489.5 77.5 M 499.5 81.5 L 499.5 77.5 M 510.5 81.5 L 510.5 77.5 M 520.5 81.5 L 520.5 77.5 M 530.5 81.5 L 530.5 77.5 M 540.5 81.5 L 540.5 77.5 M 550.5 81.5 L 550.5 77.5 M 561.5 81.5 L 561.5 77.5 M 571.5 81.5 L 571.5 77.5 M 581.5 81.5 L 581.5 77.5 M 591.5 81.5 L 591.5 77.5" stroke-opacity="1" stroke-linejoin="bevel" stroke-miterlimit="10" stroke-dasharray=""/><text fill="rgb(68,68,68)" stroke="none" font-family="helvetica" font-size="11px" font-style="normal" font-weight="normal" text-decoration="normal" x="208.06414794921875" y="91.945068359375" text-anchor="start" dominant-baseline="alphabetic" transform="matrix(0.7071067811865476, -0.7071067811865475, 0.7071067811865475, 0.7071067811865476, 1.0070070193362994, 177.72402322230005)" fill-opacity="1">0</text><text fill="rgb(68,68,68)" stroke="none" font-family="helvetica" font-size="11px" font-style="normal" font-weight="normal" text-decoration="normal" x="231.47610473632812" y="91.945068359375" text-anchor="start" dominant-baseline="alphabetic" transform="matrix(0.7071067811865476, -0.7071067811865475, 0.7071067811865475, 0.7071067811865476, 15.926639703489087, 213.74320279400666)" fill-opacity="1">0.0005</text><text fill="rgb(68,68,68)" stroke="none" font-family="helvetica" font-size="11px" font-style="normal" font-weight="normal" text-decoration="normal" x="288.5325927734375" y="91.945068359375" text-anchor="start" dominant-baseline="alphabetic" transform="matrix(0.7071067811865476, -0.7071067811865475, 0.7071067811865475, 0.7071067811865476, 30.846272387641875, 249.76238236571322)" fill-opacity="1">0.001</text><text fill="rgb(68,68,68)" stroke="none" font-family="helvetica" font-size="11px" font-style="normal" font-weight="normal" text-decoration="normal" x="333.3537292480469" y="91.945068359375" text-anchor="start" dominant-baseline="alphabetic" transform="matrix(0.7071067811865476, -0.7071067811865475, 0.7071067811865475, 0.7071067811865476, 45.76590507179469, 285.7815619374198)" fill-opacity="1">0.0015</text><text fill="rgb(68,68,68)" stroke="none" font-family="helvetica" font-size="11px" font-style="normal" font-weight="normal" text-decoration="normal" x="390.41021728515625" y="91.945068359375" text-anchor="start" dominant-baseline="alphabetic" transform="matrix(0.7071067811865476, -0.7071067811865475, 0.7071067811865475, 0.7071067811865476, 60.68553775594745, 321.8007415091264)" fill-opacity="1">0.002</text><text fill="rgb(68,68,68)" stroke="none" font-family="helvetica" font-size="11px" font-style="normal" font-weight="normal" text-decoration="normal" x="435.23138427734375" y="91.945068359375" text-anchor="start" dominant-baseline="alphabetic" transform="matrix(0.7071067811865476, -0.7071067811865475, 0.7071067811865475, 0.7071067811865476, 75.60517937849198, 357.8199426600194)" fill-opacity="1">0.0025</text><text fill="rgb(68,68,68)" stroke="none" font-family="helvetica" font-size="11px" font-style="normal" font-weight="normal" text-decoration="normal" x="492.287841796875" y="91.945068359375" text-anchor="start" dominant-baseline="alphabetic" transform="matrix(0.7071067811865476, -0.7071067811865475, 0.7071067811865475, 0.7071067811865476, 90.52480312425308, 393.8391006525395)" fill-opacity="1">0.003</text><text fill="rgb(68,68,68)" stroke="none" font-family="helvetica" font-size="11px" font-style="normal" font-weight="normal" text-decoration="normal" x="537.1090087890625" y="91.945068359375" text-anchor="start" dominant-baseline="alphabetic" transform="matrix(0.7071067811865476, -0.7071067811865475, 0.7071067811865475, 0.7071067811865476, 105.44444474679756, 429.85830180343254)" fill-opacity="1">0.0035</text><text fill="rgb(68,68,68)" stroke="none" font-family="helvetica" font-size="13px" font-style="italic" font-weight="normal" text-decoration="normal" x="363.484130859375" y="137.36944537503481" text-anchor="start" dominant-baseline="alphabetic" transform="matrix(1, 0, 0, 1, 0.5, 0.5)" fill-opacity="1">Importance</text><path fill="none" stroke="rgb(0,0,0)" paint-order="fill" d="M 196.5 77.5 L 196.5 27.5" stroke-opacity="1" stroke-linejoin="bevel" stroke-miterlimit="10" stroke-dasharray=""/><path fill="none" stroke="rgb(0,0,0)" paint-order="fill" d="M 190.5 71.5 L 198.5 71.5 M 190.5 58.5 L 198.5 58.5 M 190.5 46.5 L 198.5 46.5 M 190.5 33.5 L 198.5 33.5" stroke-opacity="1" stroke-linejoin="bevel" stroke-miterlimit="10" stroke-dasharray=""/><path fill="none" stroke="rgb(0,0,0)" paint-order="fill" d="" stroke-opacity="1" stroke-linejoin="bevel" stroke-miterlimit="10" stroke-dasharray=""/><text fill="rgb(68,68,68)" stroke="none" font-family="helvetica" font-size="11px" font-style="normal" font-weight="normal" text-decoration="normal" x="63.31787109375" y="74.25" text-anchor="start" dominant-baseline="alphabetic" transform="matrix(1, 0, 0, 1, 0.5, 0.5)" fill-opacity="1">Proteobacteria Surface 1</text><text fill="rgb(68,68,68)" stroke="none" font-family="helvetica" font-size="11px" font-style="normal" font-weight="normal" text-decoration="normal" x="48.66552734375" y="61.75" text-anchor="start" dominant-baseline="alphabetic" transform="matrix(1, 0, 0, 1, 0.5, 0.5)" fill-opacity="1">Proteobacteria JL-ETNP-Y6</text><text fill="rgb(68,68,68)" stroke="none" font-family="helvetica" font-size="11px" font-style="normal" font-weight="normal" text-decoration="normal" x="3.39794921875" y="49.25" text-anchor="start" dominant-baseline="alphabetic" transform="matrix(1, 0, 0, 1, 0.5, 0.5)" fill-opacity="1">Proteobacteria ZD0417 marine group</text><text fill="rgb(68,68,68)" stroke="none" font-family="helvetica" font-size="11px" font-style="normal" font-weight="normal" text-decoration="normal" x="55.3740234375" y="36.75" text-anchor="start" dominant-baseline="alphabetic" transform="matrix(1, 0, 0, 1, 0.5, 0.5)" fill-opacity="1">Cyanobacteria Chloroplast</text><path fill="none" stroke="none"/><text fill="rgb(68,68,68)" stroke="none" font-family="helvetica" font-size="13px" font-style="normal" font-weight="bold" text-decoration="normal" x="0" y="0" text-anchor="start" dominant-baseline="text-after-edge" transform="matrix(1, 0, 0, 1, 196.5, 22.5)" fill-opacity="1">Environmental Feature</text></svg>