<svg version="1.1" xmlns="http://www.w3.org/2000/svg" xmlns:xlink="http://www.w3.org/1999/xlink" width="500" height="400"><defs><clipPath id="AdhbUecwGvLS"><path fill="none" stroke="none" d="M 88.5 27.5 L 470.5 27.5 L 470.5 318.5 L 88.5 318.5 L 88.5 27.5"/></clipPath><clipPath id="rpJQmzBkzKpc"><path fill="none" stroke="none" d="M 88.5 27.5 L 470.5 27.5 L 470.5 318.5 L 88.5 318.5 L 88.5 27.5"/></clipPath><clipPath id="RlqhnJlgyfao"><path fill="none" stroke="none" d="M 88.5 27.5 L 470.5 27.5 L 470.5 318.5 L 88.5 318.5 L 88.5 27.5"/></clipPath><clipPath id="TTXyxQTHuoKz"><path fill="none" stroke="none" d="M 88.5 27.5 L 470.5 27.5 L 470.5 318.5 L 88.5 318.5 L 88.5 27.5"/></clipPath><clipPath id="chBvxVZcxKaO"><path fill="none" stroke="none" d="M 88.5 27.5 L 470.5 27.5 L 470.5 318.5 L 88.5 318.5 L 88.5 27.5"/></clipPath></defs><path fill="none" stroke="rgb(229,229,229)" paint-order="fill" d="M 88.5 27.5 L 470.5 27.5 L 470.5 318.5 L 88.5 318.5 L 88.5 27.5" stroke-opacity="1" stroke-linejoin="bevel" stroke-miterlimit="10" stroke-dasharray=""/><path fill="none" stroke="none"/><path fill="rgb(39,26,44)" stroke="none" paint-order="stroke" d="M 88.5 27.5 L 164.9000015258789 27.5 L 164.9000015258789 85.70000076293945 L 88.5 85.70000076293945 L 88.5 27.5" fill-opacity="1" clip-path="url(#RlqhnJlgyfao)"/><path fill="rgb(39,26,44)" stroke="none" paint-order="stroke" d="M 88.5 85.69999694824219 L 164.9000015258789 85.69999694824219 L 164.9000015258789 143.89999771118164 L 88.5 143.89999771118164 L 88.5 85.69999694824219" fill-opacity="1" clip-path="url(#RlqhnJlgyfao)"/><path fill="rgb(39,26,44)" stroke="none" paint-order="stroke" d="M 88.5 143.89999389648438 L 164.9000015258789 143.89999389648438 L 164.9000015258789 202.09999465942383 L 88.5 202.09999465942383 L 88.5 143.89999389648438" fill-opacity="1" clip-path="url(#RlqhnJlgyfao)"/><path fill="rgb(51,39,69)" stroke="none" paint-order="stroke" d="M 88.5 202.10000610351562 L 164.9000015258789 202.10000610351562 L 164.9000015258789 260.3000068664551 L 88.5 260.3000068664551 L 88.5 202.10000610351562" fill-opacity="1" clip-path="url(#RlqhnJlgyfao)"/><path fill="rgb(81,168,162)" stroke="none" paint-order="stroke" d="M 88.5 260.29998779296875 L 164.9000015258789 260.29998779296875 L 164.9000015258789 318.4999885559082 L 88.5 318.4999885559082 L 88.5 260.29998779296875" fill-opacity="1" clip-path="url(#RlqhnJlgyfao)"/><path fill="rgb(39,26,44)" stroke="none" paint-order="stroke" d="M 164.89999389648438 27.5 L 241.29999542236328 27.5 L 241.29999542236328 85.70000076293945 L 164.89999389648438 85.70000076293945 L 164.89999389648438 27.5" fill-opacity="1" clip-path="url(#RlqhnJlgyfao)"/><path fill="rgb(39,26,44)" stroke="none" paint-order="stroke" d="M 164.89999389648438 85.69999694824219 L 241.29999542236328 85.69999694824219 L 241.29999542236328 143.89999771118164 L 164.89999389648438 143.89999771118164 L 164.89999389648438 85.69999694824219" fill-opacity="1" clip-path="url(#RlqhnJlgyfao)"/><path fill="rgb(39,26,44)" stroke="none" paint-order="stroke" d="M 164.89999389648438 143.89999389648438 L 241.29999542236328 143.89999389648438 L 241.29999542236328 202.09999465942383 L 164.89999389648438 202.09999465942383 L 164.89999389648438 143.89999389648438" fill-opacity="1" clip-path="url(#RlqhnJlgyfao)"/><path fill="rgb(160,221,165)" stroke="none" paint-order="stroke" d="M 164.89999389648438 202.10000610351562 L 241.29999542236328 202.10000610351562 L 241.29999542236328 260.3000068664551 L 164.89999389648438 260.3000068664551 L 164.89999389648438 202.10000610351562" fill-opacity="1" clip-path="url(#RlqhnJlgyfao)"/><path fill="rgb(61,90,146)" stroke="none" paint-order="stroke" d="M 164.89999389648438 260.29998779296875 L 241.29999542236328 260.29998779296875 L 241.29999542236328 318.4999885559082 L 164.89999389648438 318.4999885559082 L 164.89999389648438 260.29998779296875" fill-opacity="1" clip-path="url(#RlqhnJlgyfao)"/><path fill="rgb(39,26,44)" stroke="none" paint-order="stroke" d="M 241.3000030517578 27.5 L 317.7000045776367 27.5 L 317.7000045776367 85.70000076293945 L 241.3000030517578 85.70000076293945 L 241.3000030517578 27.5" fill-opacity="1" clip-path="url(#RlqhnJlgyfao)"/><path fill="rgb(39,26,44)" stroke="none" paint-order="stroke" d="M 241.3000030517578 85.69999694824219 L 317.7000045776367 85.69999694824219 L 317.7000045776367 143.89999771118164 L 241.3000030517578 143.89999771118164 L 241.3000030517578 85.69999694824219" fill-opacity="1" clip-path="url(#RlqhnJlgyfao)"/><path fill="rgb(39,26,44)" stroke="none" paint-order="stroke" d="M 241.3000030517578 143.89999389648438 L 317.7000045776367 143.89999389648438 L 317.7000045776367 202.09999465942383 L 241.3000030517578 202.09999465942383 L 241.3000030517578 143.89999389648438" fill-opacity="1" clip-path="url(#RlqhnJlgyfao)"/><path fill="rgb(39,26,44)" stroke="none" paint-order="stroke" d="M 241.3000030517578 202.10000610351562 L 317.7000045776367 202.10000610351562 L 317.7000045776367 260.3000068664551 L 241.3000030517578 260.3000068664551 L 241.3000030517578 202.10000610351562" fill-opacity="1" clip-path="url(#RlqhnJlgyfao)"/><path fill="rgb(39,26,44)" stroke="none" paint-order="stroke" d="M 241.3000030517578 260.29998779296875 L 317.7000045776367 260.29998779296875 L 317.7000045776367 318.4999885559082 L 241.3000030517578 318.4999885559082 L 241.3000030517578 260.29998779296875" fill-opacity="1" clip-path="url(#RlqhnJlgyfao)"/><path fill="rgb(39,26,44)" stroke="none" paint-order="stroke" d="M 317.70001220703125 27.5 L 394.10001373291016 27.5 L 394.10001373291016 85.70000076293945 L 317.70001220703125 85.70000076293945 L 317.70001220703125 27.5" fill-opacity="1" clip-path="url(#RlqhnJlgyfao)"/><path fill="rgb(201,235,177)" stroke="none" paint-order="stroke" d="M 317.70001220703125 85.69999694824219 L 394.10001373291016 85.69999694824219 L 394.10001373291016 143.89999771118164 L 317.70001220703125 143.89999771118164 L 317.70001220703125 85.69999694824219" fill-opacity="1" clip-path="url(#RlqhnJlgyfao)"/><path fill="rgb(39,26,44)" stroke="none" paint-order="stroke" d="M 317.70001220703125 143.89999389648438 L 394.10001373291016 143.89999389648438 L 394.10001373291016 202.09999465942383 L 317.70001220703125 202.09999465942383 L 317.70001220703125 143.89999389648438" fill-opacity="1" clip-path="url(#RlqhnJlgyfao)"/><path fill="rgb(39,26,44)" stroke="none" paint-order="stroke" d="M 317.70001220703125 202.10000610351562 L 394.10001373291016 202.10000610351562 L 394.10001373291016 260.3000068664551 L 317.70001220703125 260.3000068664551 L 317.70001220703125 202.10000610351562" fill-opacity="1" clip-path="url(#RlqhnJlgyfao)"/><path fill="rgb(39,26,44)" stroke="none" paint-order="stroke" d="M 317.70001220703125 260.29998779296875 L 394.10001373291016 260.29998779296875 L 394.10001373291016 318.4999885559082 L 317.70001220703125 318.4999885559082 L 317.70001220703125 260.29998779296875" fill-opacity="1" clip-path="url(#RlqhnJlgyfao)"/><path fill="rgb(39,26,44)" stroke="none" paint-order="stroke" d="M 394.1000061035156 27.5 L 470.50000762939453 27.5 L 470.50000762939453 85.70000076293945 L 394.1000061035156 85.70000076293945 L 394.1000061035156 27.5" fill-opacity="1" clip-path="url(#RlqhnJlgyfao)"/><path fill="rgb(39,26,44)" stroke="none" paint-order="stroke" d="M 394.1000061035156 85.69999694824219 L 470.50000762939453 85.69999694824219 L 470.50000762939453 143.89999771118164 L 394.1000061035156 143.89999771118164 L 394.1000061035156 85.69999694824219" fill-opacity="1" clip-path="url(#RlqhnJlgyfao)"/><path fill="rgb(39,26,44)" stroke="none" paint-order="stroke" d="M 394.1000061035156 143.89999389648438 L 470.50000762939453 143.89999389648438 L 470.50000762939453 202.09999465942383 L 394.1000061035156 202.09999465942383 L 394.1000061035156 143.89999389648438" fill-opacity="1" clip-path="url(#RlqhnJlgyfao)"/><path fill="rgb(39,26,44)" stroke="none" paint-order="stroke" d="M 394.1000061035156 202.10000610351562 L 470.50000762939453 202.10000610351562 L 470.50000762939453 260.3000068664551 L 394.1000061035156 260.3000068664551 L 394.1000061035156 202.10000610351562" fill-opacity="1" clip-path="url(#RlqhnJlgyfao)"/><path fill="rgb(39,26,44)" stroke="none" paint-order="stroke" d="M 394.1000061035156 260.29998779296875 L 470.50000762939453 260.29998779296875 L 470.50000762939453 318.4999885559082 L 394.1000061035156 318.4999885559082 L 394.1000061035156 260.29998779296875" fill-opacity="1" clip-path="url(#RlqhnJlgyfao)"/><path fill="none" stroke="none"/><text fill="rgb(255,255,255)" stroke="none" font-family="helvetica" font-size="8pt" font-style="normal" font-weight="normal" text-decoration="normal" x="0" y="-7.199999999999999" text-anchor="middle" dominant-baseline="central" transform="matrix(1, 0, 0, 1, 126.69999694824219, 289.3999938964844)" fill-opacity="1">2</text><text fill="rgb(255,255,255)" stroke="none" font-family="helvetica" font-size="8pt" font-style="normal" font-weight="normal" text-decoration="normal" x="0" y="7.199999999999999" text-anchor="middle" dominant-baseline="central" transform="matrix(1, 0, 0, 1, 126.69999694824219, 289.3999938964844)" fill-opacity="1">(66.7%)</text><text fill="rgb(255,255,255)" stroke="none" font-family="helvetica" font-size="8pt" font-style="normal" font-weight="normal" text-decoration="normal" x="0" y="-7.199999999999999" text-anchor="middle" dominant-baseline="central" transform="matrix(1, 0, 0, 1, 203.10000610351562, 289.3999938964844)" fill-opacity="1">1</text><text fill="rgb(255,255,255)" stroke="none" font-family="helvetica" font-size="8pt" font-style="normal" font-weight="normal" text-decoration="normal" x="0" y="7.199999999999999" text-anchor="middle" dominant-baseline="central" transform="matrix(1, 0, 0, 1, 203.10000610351562, 289.3999938964844)" fill-opacity="1">(33.3%)</text><text fill="rgb(255,255,255)" stroke="none" font-family="helvetica" font-size="8pt" font-style="normal" font-weight="normal" text-decoration="normal" x="0" y="-7.199999999999999" text-anchor="middle" dominant-baseline="central" transform="matrix(1, 0, 0, 1, 279.5, 289.3999938964844)" fill-opacity="1">0</text><text fill="rgb(255,255,255)" stroke="none" font-family="helvetica" font-size="8pt" font-style="normal" font-weight="normal" text-decoration="normal" x="0" y="7.199999999999999" text-anchor="middle" dominant-baseline="central" transform="matrix(1, 0, 0, 1, 279.5, 289.3999938964844)" fill-opacity="1">(0.0%)</text><text fill="rgb(255,255,255)" stroke="none" font-family="helvetica" font-size="8pt" font-style="normal" font-weight="normal" text-decoration="normal" x="0" y="-7.199999999999999" text-anchor="middle" dominant-baseline="central" transform="matrix(1, 0, 0, 1, 355.8999938964844, 289.3999938964844)" fill-opacity="1">0</text><text fill="rgb(255,255,255)" stroke="none" font-family="helvetica" font-size="8pt" font-style="normal" font-weight="normal" text-decoration="normal" x="0" y="7.199999999999999" text-anchor="middle" dominant-baseline="central" transform="matrix(1, 0, 0, 1, 355.8999938964844, 289.3999938964844)" fill-opacity="1">(0.0%)</text><text fill="rgb(255,255,255)" stroke="none" font-family="helvetica" font-size="8pt" font-style="normal" font-weight="normal" text-decoration="normal" x="0" y="-7.199999999999999" text-anchor="middle" dominant-baseline="central" transform="matrix(1, 0, 0, 1, 432.29998779296875, 289.3999938964844)" fill-opacity="1">0</text><text fill="rgb(255,255,255)" stroke="none" font-family="helvetica" font-size="8pt" font-style="normal" font-weight="normal" text-decoration="normal" x="0" y="7.199999999999999" text-anchor="middle" dominant-baseline="central" transform="matrix(1, 0, 0, 1, 432.29998779296875, 289.3999938964844)" fill-opacity="1">(0.0%)</text><text fill="rgb(255,255,255)" stroke="none" font-family="helvetica" font-size="8pt" font-style="normal" font-weight="normal" text-decoration="normal" x="0" y="-7.199999999999999" text-anchor="middle" dominant-baseline="central" transform="matrix(1, 0, 0, 1, 126.69999694824219, 231.1999969482422)" fill-opacity="1">1</text><text fill="rgb(255,255,255)" stroke="none" font-family="helvetica" font-size="8pt" font-style="normal" font-weight="normal" text-decoration="normal" x="0" y="7.199999999999999" text-anchor="middle" dominant-baseline="central" transform="matrix(1, 0, 0, 1, 126.69999694824219, 231.1999969482422)" fill-opacity="1">(8.3%)</text><text fill="rgb(255,255,255)" stroke="none" font-family="helvetica" font-size="8pt" font-style="normal" font-weight="normal" text-decoration="normal" x="0" y="-7.199999999999999" text-anchor="middle" dominant-baseline="central" transform="matrix(1, 0, 0, 1, 203.10000610351562, 231.1999969482422)" fill-opacity="1">11</text><text fill="rgb(255,255,255)" stroke="none" font-family="helvetica" font-size="8pt" font-style="normal" font-weight="normal" text-decoration="normal" x="0" y="7.199999999999999" text-anchor="middle" dominant-baseline="central" transform="matrix(1, 0, 0, 1, 203.10000610351562, 231.1999969482422)" fill-opacity="1">(91.7%)</text><text fill="rgb(255,255,255)" stroke="none" font-family="helvetica" font-size="8pt" font-style="normal" font-weight="normal" text-decoration="normal" x="0" y="-7.199999999999999" text-anchor="middle" dominant-baseline="central" transform="matrix(1, 0, 0, 1, 279.5, 231.1999969482422)" fill-opacity="1">0</text><text fill="rgb(255,255,255)" stroke="none" font-family="helvetica" font-size="8pt" font-style="normal" font-weight="normal" text-decoration="normal" x="0" y="7.199999999999999" text-anchor="middle" dominant-baseline="central" transform="matrix(1, 0, 0, 1, 279.5, 231.1999969482422)" fill-opacity="1">(0.0%)</text><text fill="rgb(255,255,255)" stroke="none" font-family="helvetica" font-size="8pt" font-style="normal" font-weight="normal" text-decoration="normal" x="0" y="-7.199999999999999" text-anchor="middle" dominant-baseline="central" transform="matrix(1, 0, 0, 1, 355.8999938964844, 231.1999969482422)" fill-opacity="1">0</text><text fill="rgb(255,255,255)" stroke="none" font-family="helvetica" font-size="8pt" font-style="normal" font-weight="normal" text-decoration="normal" x="0" y="7.199999999999999" text-anchor="middle" dominant-baseline="central" transform="matrix(1, 0, 0, 1, 355.8999938964844, 231.1999969482422)" fill-opacity="1">(0.0%)</text><text fill="rgb(255,255,255)" stroke="none" font-family="helvetica" font-size="8pt" font-style="normal" font-weight="normal" text-decoration="normal" x="0" y="-7.199999999999999" text-anchor="middle" dominant-baseline="central" transform="matrix(1, 0, 0, 1, 432.29998779296875, 231.1999969482422)" fill-opacity="1">0</text><text fill="rgb(255,255,255)" stroke="none" font-family="helvetica" font-size="8pt" font-style="normal" font-weight="normal" text-decoration="normal" x="0" y="7.199999999999999" text-anchor="middle" dominant-baseline="central" transform="matrix(1, 0, 0, 1, 432.29998779296875, 231.1999969482422)" fill-opacity="1">(0.0%)</text><text fill="rgb(255,255,255)" stroke="none" font-family="helvetica" font-size="8pt" font-style="normal" font-weight="normal" text-decoration="normal" x="0" y="-7.199999999999999" text-anchor="middle" dominant-baseline="central" transform="matrix(1, 0, 0, 1, 126.69999694824219, 173)" fill-opacity="1">0</text><text fill="rgb(255,255,255)" stroke="none" font-family="helvetica" font-size="8pt" font-style="normal" font-weight="normal" text-decoration="normal" x="0" y="7.199999999999999" text-anchor="middle" dominant-baseline="central" transform="matrix(1, 0, 0, 1, 126.69999694824219, 173)" fill-opacity="1">(0.0%)</text><text fill="rgb(255,255,255)" stroke="none" font-family="helvetica" font-size="8pt" font-style="normal" font-weight="normal" text-decoration="normal" x="0" y="-7.199999999999999" text-anchor="middle" dominant-baseline="central" transform="matrix(1, 0, 0, 1, 203.10000610351562, 173)" fill-opacity="1">0</text><text fill="rgb(255,255,255)" stroke="none" font-family="helvetica" font-size="8pt" font-style="normal" font-weight="normal" text-decoration="normal" x="0" y="7.199999999999999" text-anchor="middle" dominant-baseline="central" transform="matrix(1, 0, 0, 1, 203.10000610351562, 173)" fill-opacity="1">(0.0%)</text><text fill="rgb(255,255,255)" stroke="none" font-family="helvetica" font-size="8pt" font-style="normal" font-weight="normal" text-decoration="normal" x="0" y="-7.199999999999999" text-anchor="middle" dominant-baseline="central" transform="matrix(1, 0, 0, 1, 279.5, 173)" fill-opacity="1">0</text><text fill="rgb(255,255,255)" stroke="none" font-family="helvetica" font-size="8pt" font-style="normal" font-weight="normal" text-decoration="normal" x="0" y="7.199999999999999" text-anchor="middle" dominant-baseline="central" transform="matrix(1, 0, 0, 1, 279.5, 173)" fill-opacity="1">(0.0%)</text><text fill="rgb(255,255,255)" stroke="none" font-family="helvetica" font-size="8pt" font-style="normal" font-weight="normal" text-decoration="normal" x="0" y="-7.199999999999999" text-anchor="middle" dominant-baseline="central" transform="matrix(1, 0, 0, 1, 355.8999938964844, 173)" fill-opacity="1">0</text><text fill="rgb(255,255,255)" stroke="none" font-family="helvetica" font-size="8pt" font-style="normal" font-weight="normal" text-decoration="normal" x="0" y="7.199999999999999" text-anchor="middle" dominant-baseline="central" transform="matrix(1, 0, 0, 1, 355.8999938964844, 173)" fill-opacity="1">(0.0%)</text><text fill="rgb(255,255,255)" stroke="none" font-family="helvetica" font-size="8pt" font-style="normal" font-weight="normal" text-decoration="normal" x="0" y="-7.199999999999999" text-anchor="middle" dominant-baseline="central" transform="matrix(1, 0, 0, 1, 432.29998779296875, 173)" fill-opacity="1">0</text><text fill="rgb(255,255,255)" stroke="none" font-family="helvetica" font-size="8pt" font-style="normal" font-weight="normal" text-decoration="normal" x="0" y="7.199999999999999" text-anchor="middle" dominant-baseline="central" transform="matrix(1, 0, 0, 1, 432.29998779296875, 173)" fill-opacity="1">(0.0%)</text><text fill="rgb(255,255,255)" stroke="none" font-family="helvetica" font-size="8pt" font-style="normal" font-weight="normal" text-decoration="normal" x="0" y="-7.199999999999999" text-anchor="middle" dominant-baseline="central" transform="matrix(1, 0, 0, 1, 126.69999694824219, 114.80000305175781)" fill-opacity="1">0</text><text fill="rgb(255,255,255)" stroke="none" font-family="helvetica" font-size="8pt" font-style="normal" font-weight="normal" text-decoration="normal" x="0" y="7.199999999999999" text-anchor="middle" dominant-baseline="central" transform="matrix(1, 0, 0, 1, 126.69999694824219, 114.80000305175781)" fill-opacity="1">(0.0%)</text><text fill="rgb(255,255,255)" stroke="none" font-family="helvetica" font-size="8pt" font-style="normal" font-weight="normal" text-decoration="normal" x="0" y="-7.199999999999999" text-anchor="middle" dominant-baseline="central" transform="matrix(1, 0, 0, 1, 203.10000610351562, 114.80000305175781)" fill-opacity="1">0</text><text fill="rgb(255,255,255)" stroke="none" font-family="helvetica" font-size="8pt" font-style="normal" font-weight="normal" text-decoration="normal" x="0" y="7.199999999999999" text-anchor="middle" dominant-baseline="central" transform="matrix(1, 0, 0, 1, 203.10000610351562, 114.80000305175781)" fill-opacity="1">(0.0%)</text><text fill="rgb(255,255,255)" stroke="none" font-family="helvetica" font-size="8pt" font-style="normal" font-weight="normal" text-decoration="normal" x="0" y="-7.199999999999999" text-anchor="middle" dominant-baseline="central" transform="matrix(1, 0, 0, 1, 279.5, 114.80000305175781)" fill-opacity="1">0</text><text fill="rgb(255,255,255)" stroke="none" font-family="helvetica" font-size="8pt" font-style="normal" font-weight="normal" text-decoration="normal" x="0" y="7.199999999999999" text-anchor="middle" dominant-baseline="central" transform="matrix(1, 0, 0, 1, 279.5, 114.80000305175781)" fill-opacity="1">(0.0%)</text><text fill="rgb(255,255,255)" stroke="none" font-family="helvetica" font-size="8pt" font-style="normal" font-weight="normal" text-decoration="normal" x="0" y="-7.199999999999999" text-anchor="middle" dominant-baseline="central" transform="matrix(1, 0, 0, 1, 355.8999938964844, 114.80000305175781)" fill-opacity="1">6</text><text fill="rgb(255,255,255)" stroke="none" font-family="helvetica" font-size="8pt" font-style="normal" font-weight="normal" text-decoration="normal" x="0" y="7.199999999999999" text-anchor="middle" dominant-baseline="central" transform="matrix(1, 0, 0, 1, 355.8999938964844, 114.80000305175781)" fill-opacity="1">(100.0%)</text><text fill="rgb(255,255,255)" stroke="none" font-family="helvetica" font-size="8pt" font-style="normal" font-weight="normal" text-decoration="normal" x="0" y="-7.199999999999999" text-anchor="middle" dominant-baseline="central" transform="matrix(1, 0, 0, 1, 432.29998779296875, 114.80000305175781)" fill-opacity="1">0</text><text fill="rgb(255,255,255)" stroke="none" font-family="helvetica" font-size="8pt" font-style="normal" font-weight="normal" text-decoration="normal" x="0" y="7.199999999999999" text-anchor="middle" dominant-baseline="central" transform="matrix(1, 0, 0, 1, 432.29998779296875, 114.80000305175781)" fill-opacity="1">(0.0%)</text><text fill="rgb(255,255,255)" stroke="none" font-family="helvetica" font-size="8pt" font-style="normal" font-weight="normal" text-decoration="normal" x="0" y="-7.199999999999999" text-anchor="middle" dominant-baseline="central" transform="matrix(1, 0, 0, 1, 126.69999694824219, 56.599998474121094)" fill-opacity="1">0</text><text fill="rgb(255,255,255)" stroke="none" font-family="helvetica" font-size="8pt" font-style="normal" font-weight="normal" text-decoration="normal" x="0" y="7.199999999999999" text-anchor="middle" dominant-baseline="central" transform="matrix(1, 0, 0, 1, 126.69999694824219, 56.599998474121094)" fill-opacity="1">(0.0%)</text><text fill="rgb(255,255,255)" stroke="none" font-family="helvetica" font-size="8pt" font-style="normal" font-weight="normal" text-decoration="normal" x="0" y="-7.199999999999999" text-anchor="middle" dominant-baseline="central" transform="matrix(1, 0, 0, 1, 203.10000610351562, 56.599998474121094)" fill-opacity="1">0</text><text fill="rgb(255,255,255)" stroke="none" font-family="helvetica" font-size="8pt" font-style="normal" font-weight="normal" text-decoration="normal" x="0" y="7.199999999999999" text-anchor="middle" dominant-baseline="central" transform="matrix(1, 0, 0, 1, 203.10000610351562, 56.599998474121094)" fill-opacity="1">(0.0%)</text><text fill="rgb(255,255,255)" stroke="none" font-family="helvetica" font-size="8pt" font-style="normal" font-weight="normal" text-decoration="normal" x="0" y="-7.199999999999999" text-anchor="middle" dominant-baseline="central" transform="matrix(1, 0, 0, 1, 279.5, 56.599998474121094)" fill-opacity="1">0</text><text fill="rgb(255,255,255)" stroke="none" font-family="helvetica" font-size="8pt" font-style="normal" font-weight="normal" text-decoration="normal" x="0" y="7.199999999999999" text-anchor="middle" dominant-baseline="central" transform="matrix(1, 0, 0, 1, 279.5, 56.599998474121094)" fill-opacity="1">(0.0%)</text><text fill="rgb(255,255,255)" stroke="none" font-family="helvetica" font-size="8pt" font-style="normal" font-weight="normal" text-decoration="normal" x="0" y="-7.199999999999999" text-anchor="middle" dominant-baseline="central" transform="matrix(1, 0, 0, 1, 355.8999938964844, 56.599998474121094)" fill-opacity="1">0</text><text fill="rgb(255,255,255)" stroke="none" font-family="helvetica" font-size="8pt" font-style="normal" font-weight="normal" text-decoration="normal" x="0" y="7.199999999999999" text-anchor="middle" dominant-baseline="central" transform="matrix(1, 0, 0, 1, 355.8999938964844, 56.599998474121094)" fill-opacity="1">(0.0%)</text><text fill="rgb(255,255,255)" stroke="none" font-family="helvetica" font-size="8pt" font-style="normal" font-weight="normal" text-decoration="normal" x="0" y="-7.199999999999999" text-anchor="middle" dominant-baseline="central" transform="matrix(1, 0, 0, 1, 432.29998779296875, 56.599998474121094)" fill-opacity="1">0</text><text fill="rgb(255,255,255)" stroke="none" font-family="helvetica" font-size="8pt" font-style="normal" font-weight="normal" text-decoration="normal" x="0" y="7.199999999999999" text-anchor="middle" dominant-baseline="central" transform="matrix(1, 0, 0, 1, 432.29998779296875, 56.599998474121094)" fill-opacity="1">(0.0%)</text><path fill="none" stroke="rgb(0,0,0)" paint-order="fill" d="M 88.5 318.5 L 470.5 318.5" stroke-opacity="1" stroke-linejoin="bevel" stroke-miterlimit="10" stroke-dasharray=""/><path fill="none" stroke="rgb(0,0,0)" paint-order="fill" d="M 126.5 324.5 L 126.5 316.5 M 203.5 324.5 L 203.5 316.5 M 279.5 324.5 L 279.5 316.5 M 355.5 324.5 L 355.5 316.5 M 432.5 324.5 L 432.5 316.5" stroke-opacity="1" stroke-linejoin="bevel" stroke-miterlimit="10" stroke-dasharray=""/><path fill="none" stroke="rgb(0,0,0)" paint-order="fill" d="" stroke-opacity="1" stroke-linejoin="bevel" stroke-miterlimit="10" stroke-dasharray=""/><text fill="rgb(68,68,68)" stroke="none" font-family="helvetica" font-size="11px" font-style="normal" font-weight="normal" text-decoration="normal" x="101.14921569824219" y="332.5" text-anchor="start" dominant-baseline="alphabetic" transform="matrix(0.7071067811865476, -0.7071067811865475, 0.7071067811865475, 0.7071067811865476, -195.17500768995558, 186.0987426174495)" fill-opacity="1">DCM</text><text fill="rgb(68,68,68)" stroke="none" font-family="helvetica" font-size="11px" font-style="normal" font-weight="normal" text-decoration="normal" x="180.60000610351562" y="332.5" text-anchor="start" dominant-baseline="alphabetic" transform="matrix(0.7071067811865476, -0.7071067811865475, 0.7071067811865475, 0.7071067811865476, -172.7979630910903, 240.12170717385766)" fill-opacity="1">SRF</text><text fill="rgb(68,68,68)" stroke="none" font-family="helvetica" font-size="11px" font-style="normal" font-weight="normal" text-decoration="normal" x="227.66845703125" y="332.5" text-anchor="start" dominant-baseline="alphabetic" transform="matrix(0.7071067811865476, -0.7071067811865475, 0.7071067811865475, 0.7071067811865476, -150.42092296142084, 294.14466094067257)" fill-opacity="1">MES/OMZ</text><text fill="rgb(68,68,68)" stroke="none" font-family="helvetica" font-size="11px" font-style="normal" font-weight="normal" text-decoration="normal" x="331.5630798339844" y="332.5" text-anchor="start" dominant-baseline="alphabetic" transform="matrix(0.7071067811865476, -0.7071067811865475, 0.7071067811865475, 0.7071067811865476, -128.0438828317515, 348.16761470748753)" fill-opacity="1">MES</text><text fill="rgb(68,68,68)" stroke="none" font-family="helvetica" font-size="11px" font-style="normal" font-weight="normal" text-decoration="normal" x="412.24383544921875" y="332.5" text-anchor="start" dominant-baseline="alphabetic" transform="matrix(0.7071067811865476, -0.7071067811865475, 0.7071067811865475, 0.7071067811865476, -105.66684270208202, 402.1905684743025)" fill-opacity="1">MIX</text><text fill="rgb(68,68,68)" stroke="none" font-family="helvetica" font-size="13px" font-style="italic" font-weight="normal" text-decoration="normal" x="251.5400390625" y="394.4892702773969" text-anchor="start" dominant-baseline="alphabetic" transform="matrix(1, 0, 0, 1, 0.5, 0.5)" fill-opacity="1">Predicted</text><path fill="none" stroke="rgb(0,0,0)" paint-order="fill" d="M 88.5 318.5 L 88.5 27.5" stroke-opacity="1" stroke-linejoin="bevel" stroke-miterlimit="10" stroke-dasharray=""/><path fill="none" stroke="rgb(0,0,0)" paint-order="fill" d="M 82.5 289.5 L 90.5 289.5 M 82.5 231.5 L 90.5 231.5 M 82.5 173.5 L 90.5 173.5 M 82.5 114.5 L 90.5 114.5 M 82.5 56.5 L 90.5 56.5" stroke-opacity="1" stroke-linejoin="bevel" stroke-miterlimit="10" stroke-dasharray=""/><path fill="none" stroke="rgb(0,0,0)" paint-order="fill" d="" stroke-opacity="1" stroke-linejoin="bevel" stroke-miterlimit="10" stroke-dasharray=""/><text fill="rgb(68,68,68)" stroke="none" font-family="helvetica" font-size="11px" font-style="normal" font-weight="normal" text-decoration="normal" x="51.94921875" y="292.3999938964844" text-anchor="start" dominant-baseline="alphabetic" transform="matrix(1, 0, 0, 1, 0.5, 0.5)" fill-opacity="1">DCM</text><text fill="rgb(68,68,68)" stroke="none" font-family="helvetica" font-size="11px" font-style="normal" font-weight="normal" text-decoration="normal" x="55" y="234.1999969482422" text-anchor="start" dominant-baseline="alphabetic" transform="matrix(1, 0, 0, 1, 0.5, 0.5)" fill-opacity="1">SRF</text><text fill="rgb(68,68,68)" stroke="none" font-family="helvetica" font-size="11px" font-style="normal" font-weight="normal" text-decoration="normal" x="25.66845703125" y="176" text-anchor="start" dominant-baseline="alphabetic" transform="matrix(1, 0, 0, 1, 0.5, 0.5)" fill-opacity="1">MES/OMZ</text><text fill="rgb(68,68,68)" stroke="none" font-family="helvetica" font-size="11px" font-style="normal" font-weight="normal" text-decoration="normal" x="53.1630859375" y="117.80000305175781" text-anchor="start" dominant-baseline="alphabetic" transform="matrix(1, 0, 0, 1, 0.5, 0.5)" fill-opacity="1">MES</text><text fill="rgb(68,68,68)" stroke="none" font-family="helvetica" font-size="11px" font-style="normal" font-weight="normal" text-decoration="normal" x="57.44384765625" y="59.599998474121094" text-anchor="start" dominant-baseline="alphabetic" transform="matrix(1, 0, 0, 1, 0.5, 0.5)" fill-opacity="1">MIX</text><text fill="rgb(68,68,68)" stroke="none" font-family="helvetica" font-size="13px" font-style="italic" font-weight="normal" text-decoration="normal" x="-0.39697265625" y="169.5" text-anchor="start" dominant-baseline="alphabetic" transform="matrix(6.123233995736766e-17, -1, 1, 6.123233995736766e-17, -154.33154296875, 190.66845703125)" fill-opacity="1">Actual</text><path fill="none" stroke="none"/><text fill="rgb(68,68,68)" stroke="none" font-family="helvetica" font-size="13px" font-style="normal" font-weight="bold" text-decoration="normal" x="0" y="0" text-anchor="start" dominant-baseline="text-after-edge" transform="matrix(1, 0, 0, 1, 88.5, 22.5)" fill-opacity="1">Environmental Feature, &lt;Accuracy&gt; = 0.62</text></svg>