<svg version="1.1" xmlns="http://www.w3.org/2000/svg" xmlns:xlink="http://www.w3.org/1999/xlink" width="500" height="400"><defs><clipPath id="TAoalcseRrAk"><path fill="none" stroke="none" d="M 88.5 27.5 L 470.5 27.5 L 470.5 318.5 L 88.5 318.5 L 88.5 27.5"/></clipPath><clipPath id="nIoATgnQpCEN"><path fill="none" stroke="none" d="M 88.5 27.5 L 470.5 27.5 L 470.5 318.5 L 88.5 318.5 L 88.5 27.5"/></clipPath><clipPath id="yCAMVvocqZJN"><path fill="none" stroke="none" d="M 88.5 27.5 L 470.5 27.5 L 470.5 318.5 L 88.5 318.5 L 88.5 27.5"/></clipPath><clipPath id="BWDKelOUEXBw"><path fill="none" stroke="none" d="M 88.5 27.5 L 470.5 27.5 L 470.5 318.5 L 88.5 318.5 L 88.5 27.5"/></clipPath><clipPath id="BNLRmHpWsLqT"><path fill="none" stroke="none" d="M 88.5 27.5 L 470.5 27.5 L 470.5 318.5 L 88.5 318.5 L 88.5 27.5"/></clipPath></defs><path fill="none" stroke="rgb(229,229,229)" paint-order="fill" d="M 88.5 27.5 L 470.5 27.5 L 470.5 318.5 L 88.5 318.5 L 88.5 27.5" stroke-opacity="1" stroke-linejoin="bevel" stroke-miterlimit="10" stroke-dasharray=""/><path fill="none" stroke="none"/><path fill="rgb(39,26,44)" stroke="none" paint-order="stroke" d="M 88.5 27.5 L 184 27.5 L 184 100.25 L 88.5 100.25 L 88.5 27.5" fill-opacity="1" clip-path="url(#yCAMVvocqZJN)"/><path fill="rgb(39,26,44)" stroke="none" paint-order="stroke" d="M 88.5 100.25 L 184 100.25 L 184 173 L 88.5 173 L 88.5 100.25" fill-opacity="1" clip-path="url(#yCAMVvocqZJN)"/><path fill="rgb(39,26,44)" stroke="none" paint-order="stroke" d="M 88.5 173 L 184 173 L 184 245.75 L 88.5 245.75 L 88.5 173" fill-opacity="1" clip-path="url(#yCAMVvocqZJN)"/><path fill="rgb(108,199,163)" stroke="none" paint-order="stroke" d="M 88.5 245.75 L 184 245.75 L 184 318.5 L 88.5 318.5 L 88.5 245.75" fill-opacity="1" clip-path="url(#yCAMVvocqZJN)"/><path fill="rgb(39,26,44)" stroke="none" paint-order="stroke" d="M 184 27.5 L 279.5 27.5 L 279.5 100.25 L 184 100.25 L 184 27.5" fill-opacity="1" clip-path="url(#yCAMVvocqZJN)"/><path fill="rgb(39,26,44)" stroke="none" paint-order="stroke" d="M 184 100.25 L 279.5 100.25 L 279.5 173 L 184 173 L 184 100.25" fill-opacity="1" clip-path="url(#yCAMVvocqZJN)"/><path fill="rgb(201,235,177)" stroke="none" paint-order="stroke" d="M 184 173 L 279.5 173 L 279.5 245.75 L 184 245.75 L 184 173" fill-opacity="1" clip-path="url(#yCAMVvocqZJN)"/><path fill="rgb(39,26,44)" stroke="none" paint-order="stroke" d="M 184 245.75 L 279.5 245.75 L 279.5 318.5 L 184 318.5 L 184 245.75" fill-opacity="1" clip-path="url(#yCAMVvocqZJN)"/><path fill="rgb(39,26,44)" stroke="none" paint-order="stroke" d="M 279.5 27.5 L 375 27.5 L 375 100.25 L 279.5 100.25 L 279.5 27.5" fill-opacity="1" clip-path="url(#yCAMVvocqZJN)"/><path fill="rgb(201,235,177)" stroke="none" paint-order="stroke" d="M 279.5 100.25 L 375 100.25 L 375 173 L 279.5 173 L 279.5 100.25" fill-opacity="1" clip-path="url(#yCAMVvocqZJN)"/><path fill="rgb(39,26,44)" stroke="none" paint-order="stroke" d="M 279.5 173 L 375 173 L 375 245.75 L 279.5 245.75 L 279.5 173" fill-opacity="1" clip-path="url(#yCAMVvocqZJN)"/><path fill="rgb(64,60,115)" stroke="none" paint-order="stroke" d="M 279.5 245.75 L 375 245.75 L 375 318.5 L 279.5 318.5 L 279.5 245.75" fill-opacity="1" clip-path="url(#yCAMVvocqZJN)"/><path fill="rgb(39,26,44)" stroke="none" paint-order="stroke" d="M 375 27.5 L 470.5 27.5 L 470.5 100.25 L 375 100.25 L 375 27.5" fill-opacity="1" clip-path="url(#yCAMVvocqZJN)"/><path fill="rgb(39,26,44)" stroke="none" paint-order="stroke" d="M 375 100.25 L 470.5 100.25 L 470.5 173 L 375 173 L 375 100.25" fill-opacity="1" clip-path="url(#yCAMVvocqZJN)"/><path fill="rgb(39,26,44)" stroke="none" paint-order="stroke" d="M 375 173 L 470.5 173 L 470.5 245.75 L 375 245.75 L 375 173" fill-opacity="1" clip-path="url(#yCAMVvocqZJN)"/><path fill="rgb(39,26,44)" stroke="none" paint-order="stroke" d="M 375 245.75 L 470.5 245.75 L 470.5 318.5 L 375 318.5 L 375 245.75" fill-opacity="1" clip-path="url(#yCAMVvocqZJN)"/><path fill="none" stroke="none"/><text fill="rgb(255,255,255)" stroke="none" font-family="helvetica" font-size="8pt" font-style="normal" font-weight="normal" text-decoration="normal" x="0" y="-7.199999999999999" text-anchor="middle" dominant-baseline="central" transform="matrix(1, 0, 0, 1, 136.25, 282.125)" fill-opacity="1">4</text><text fill="rgb(255,255,255)" stroke="none" font-family="helvetica" font-size="8pt" font-style="normal" font-weight="normal" text-decoration="normal" x="0" y="7.199999999999999" text-anchor="middle" dominant-baseline="central" transform="matrix(1, 0, 0, 1, 136.25, 282.125)" fill-opacity="1">(80.0%)</text><text fill="rgb(255,255,255)" stroke="none" font-family="helvetica" font-size="8pt" font-style="normal" font-weight="normal" text-decoration="normal" x="0" y="-7.199999999999999" text-anchor="middle" dominant-baseline="central" transform="matrix(1, 0, 0, 1, 231.75, 282.125)" fill-opacity="1">0</text><text fill="rgb(255,255,255)" stroke="none" font-family="helvetica" font-size="8pt" font-style="normal" font-weight="normal" text-decoration="normal" x="0" y="7.199999999999999" text-anchor="middle" dominant-baseline="central" transform="matrix(1, 0, 0, 1, 231.75, 282.125)" fill-opacity="1">(0.0%)</text><text fill="rgb(255,255,255)" stroke="none" font-family="helvetica" font-size="8pt" font-style="normal" font-weight="normal" text-decoration="normal" x="0" y="-7.199999999999999" text-anchor="middle" dominant-baseline="central" transform="matrix(1, 0, 0, 1, 327.25, 282.125)" fill-opacity="1">1</text><text fill="rgb(255,255,255)" stroke="none" font-family="helvetica" font-size="8pt" font-style="normal" font-weight="normal" text-decoration="normal" x="0" y="7.199999999999999" text-anchor="middle" dominant-baseline="central" transform="matrix(1, 0, 0, 1, 327.25, 282.125)" fill-opacity="1">(20.0%)</text><text fill="rgb(255,255,255)" stroke="none" font-family="helvetica" font-size="8pt" font-style="normal" font-weight="normal" text-decoration="normal" x="0" y="-7.199999999999999" text-anchor="middle" dominant-baseline="central" transform="matrix(1, 0, 0, 1, 422.75, 282.125)" fill-opacity="1">0</text><text fill="rgb(255,255,255)" stroke="none" font-family="helvetica" font-size="8pt" font-style="normal" font-weight="normal" text-decoration="normal" x="0" y="7.199999999999999" text-anchor="middle" dominant-baseline="central" transform="matrix(1, 0, 0, 1, 422.75, 282.125)" fill-opacity="1">(0.0%)</text><text fill="rgb(255,255,255)" stroke="none" font-family="helvetica" font-size="8pt" font-style="normal" font-weight="normal" text-decoration="normal" x="0" y="-7.199999999999999" text-anchor="middle" dominant-baseline="central" transform="matrix(1, 0, 0, 1, 136.25, 209.375)" fill-opacity="1">0</text><text fill="rgb(255,255,255)" stroke="none" font-family="helvetica" font-size="8pt" font-style="normal" font-weight="normal" text-decoration="normal" x="0" y="7.199999999999999" text-anchor="middle" dominant-baseline="central" transform="matrix(1, 0, 0, 1, 136.25, 209.375)" fill-opacity="1">(0.0%)</text><text fill="rgb(255,255,255)" stroke="none" font-family="helvetica" font-size="8pt" font-style="normal" font-weight="normal" text-decoration="normal" x="0" y="-7.199999999999999" text-anchor="middle" dominant-baseline="central" transform="matrix(1, 0, 0, 1, 231.75, 209.375)" fill-opacity="1">4</text><text fill="rgb(255,255,255)" stroke="none" font-family="helvetica" font-size="8pt" font-style="normal" font-weight="normal" text-decoration="normal" x="0" y="7.199999999999999" text-anchor="middle" dominant-baseline="central" transform="matrix(1, 0, 0, 1, 231.75, 209.375)" fill-opacity="1">(100.0%)</text><text fill="rgb(255,255,255)" stroke="none" font-family="helvetica" font-size="8pt" font-style="normal" font-weight="normal" text-decoration="normal" x="0" y="-7.199999999999999" text-anchor="middle" dominant-baseline="central" transform="matrix(1, 0, 0, 1, 327.25, 209.375)" fill-opacity="1">0</text><text fill="rgb(255,255,255)" stroke="none" font-family="helvetica" font-size="8pt" font-style="normal" font-weight="normal" text-decoration="normal" x="0" y="7.199999999999999" text-anchor="middle" dominant-baseline="central" transform="matrix(1, 0, 0, 1, 327.25, 209.375)" fill-opacity="1">(0.0%)</text><text fill="rgb(255,255,255)" stroke="none" font-family="helvetica" font-size="8pt" font-style="normal" font-weight="normal" text-decoration="normal" x="0" y="-7.199999999999999" text-anchor="middle" dominant-baseline="central" transform="matrix(1, 0, 0, 1, 422.75, 209.375)" fill-opacity="1">0</text><text fill="rgb(255,255,255)" stroke="none" font-family="helvetica" font-size="8pt" font-style="normal" font-weight="normal" text-decoration="normal" x="0" y="7.199999999999999" text-anchor="middle" dominant-baseline="central" transform="matrix(1, 0, 0, 1, 422.75, 209.375)" fill-opacity="1">(0.0%)</text><text fill="rgb(255,255,255)" stroke="none" font-family="helvetica" font-size="8pt" font-style="normal" font-weight="normal" text-decoration="normal" x="0" y="-7.199999999999999" text-anchor="middle" dominant-baseline="central" transform="matrix(1, 0, 0, 1, 136.25, 136.625)" fill-opacity="1">0</text><text fill="rgb(255,255,255)" stroke="none" font-family="helvetica" font-size="8pt" font-style="normal" font-weight="normal" text-decoration="normal" x="0" y="7.199999999999999" text-anchor="middle" dominant-baseline="central" transform="matrix(1, 0, 0, 1, 136.25, 136.625)" fill-opacity="1">(0.0%)</text><text fill="rgb(255,255,255)" stroke="none" font-family="helvetica" font-size="8pt" font-style="normal" font-weight="normal" text-decoration="normal" x="0" y="-7.199999999999999" text-anchor="middle" dominant-baseline="central" transform="matrix(1, 0, 0, 1, 231.75, 136.625)" fill-opacity="1">0</text><text fill="rgb(255,255,255)" stroke="none" font-family="helvetica" font-size="8pt" font-style="normal" font-weight="normal" text-decoration="normal" x="0" y="7.199999999999999" text-anchor="middle" dominant-baseline="central" transform="matrix(1, 0, 0, 1, 231.75, 136.625)" fill-opacity="1">(0.0%)</text><text fill="rgb(255,255,255)" stroke="none" font-family="helvetica" font-size="8pt" font-style="normal" font-weight="normal" text-decoration="normal" x="0" y="-7.199999999999999" text-anchor="middle" dominant-baseline="central" transform="matrix(1, 0, 0, 1, 327.25, 136.625)" fill-opacity="1">12</text><text fill="rgb(255,255,255)" stroke="none" font-family="helvetica" font-size="8pt" font-style="normal" font-weight="normal" text-decoration="normal" x="0" y="7.199999999999999" text-anchor="middle" dominant-baseline="central" transform="matrix(1, 0, 0, 1, 327.25, 136.625)" fill-opacity="1">(100.0%)</text><text fill="rgb(255,255,255)" stroke="none" font-family="helvetica" font-size="8pt" font-style="normal" font-weight="normal" text-decoration="normal" x="0" y="-7.199999999999999" text-anchor="middle" dominant-baseline="central" transform="matrix(1, 0, 0, 1, 422.75, 136.625)" fill-opacity="1">0</text><text fill="rgb(255,255,255)" stroke="none" font-family="helvetica" font-size="8pt" font-style="normal" font-weight="normal" text-decoration="normal" x="0" y="7.199999999999999" text-anchor="middle" dominant-baseline="central" transform="matrix(1, 0, 0, 1, 422.75, 136.625)" fill-opacity="1">(0.0%)</text><text fill="rgb(255,255,255)" stroke="none" font-family="helvetica" font-size="8pt" font-style="normal" font-weight="normal" text-decoration="normal" x="0" y="-7.199999999999999" text-anchor="middle" dominant-baseline="central" transform="matrix(1, 0, 0, 1, 136.25, 63.875)" fill-opacity="1">0</text><text fill="rgb(255,255,255)" stroke="none" font-family="helvetica" font-size="8pt" font-style="normal" font-weight="normal" text-decoration="normal" x="0" y="7.199999999999999" text-anchor="middle" dominant-baseline="central" transform="matrix(1, 0, 0, 1, 136.25, 63.875)" fill-opacity="1">(0.0%)</text><text fill="rgb(255,255,255)" stroke="none" font-family="helvetica" font-size="8pt" font-style="normal" font-weight="normal" text-decoration="normal" x="0" y="-7.199999999999999" text-anchor="middle" dominant-baseline="central" transform="matrix(1, 0, 0, 1, 231.75, 63.875)" fill-opacity="1">0</text><text fill="rgb(255,255,255)" stroke="none" font-family="helvetica" font-size="8pt" font-style="normal" font-weight="normal" text-decoration="normal" x="0" y="7.199999999999999" text-anchor="middle" dominant-baseline="central" transform="matrix(1, 0, 0, 1, 231.75, 63.875)" fill-opacity="1">(0.0%)</text><text fill="rgb(255,255,255)" stroke="none" font-family="helvetica" font-size="8pt" font-style="normal" font-weight="normal" text-decoration="normal" x="0" y="-7.199999999999999" text-anchor="middle" dominant-baseline="central" transform="matrix(1, 0, 0, 1, 327.25, 63.875)" fill-opacity="1">0</text><text fill="rgb(255,255,255)" stroke="none" font-family="helvetica" font-size="8pt" font-style="normal" font-weight="normal" text-decoration="normal" x="0" y="7.199999999999999" text-anchor="middle" dominant-baseline="central" transform="matrix(1, 0, 0, 1, 327.25, 63.875)" fill-opacity="1">(0.0%)</text><text fill="rgb(255,255,255)" stroke="none" font-family="helvetica" font-size="8pt" font-style="normal" font-weight="normal" text-decoration="normal" x="0" y="-7.199999999999999" text-anchor="middle" dominant-baseline="central" transform="matrix(1, 0, 0, 1, 422.75, 63.875)" fill-opacity="1">0</text><text fill="rgb(255,255,255)" stroke="none" font-family="helvetica" font-size="8pt" font-style="normal" font-weight="normal" text-decoration="normal" x="0" y="7.199999999999999" text-anchor="middle" dominant-baseline="central" transform="matrix(1, 0, 0, 1, 422.75, 63.875)" fill-opacity="1">(0.0%)</text><path fill="none" stroke="rgb(0,0,0)" paint-order="fill" d="M 88.5 318.5 L 470.5 318.5" stroke-opacity="1" stroke-linejoin="bevel" stroke-miterlimit="10" stroke-dasharray=""/><path fill="none" stroke="rgb(0,0,0)" paint-order="fill" d="M 136.5 324.5 L 136.5 316.5 M 231.5 324.5 L 231.5 316.5 M 327.5 324.5 L 327.5 316.5 M 422.5 324.5 L 422.5 316.5" stroke-opacity="1" stroke-linejoin="bevel" stroke-miterlimit="10" stroke-dasharray=""/><path fill="none" stroke="rgb(0,0,0)" paint-order="fill" d="" stroke-opacity="1" stroke-linejoin="bevel" stroke-miterlimit="10" stroke-dasharray=""/><text fill="rgb(68,68,68)" stroke="none" font-family="helvetica" font-size="11px" font-style="normal" font-weight="normal" text-decoration="normal" x="84.60107421875" y="332.5" text-anchor="start" dominant-baseline="alphabetic" transform="matrix(0.7071067811865476, -0.7071067811865475, 0.7071067811865475, 0.7071067811865476, -192.37787655644797, 192.8516145356997)" fill-opacity="1">Westerlies</text><text fill="rgb(68,68,68)" stroke="none" font-family="helvetica" font-size="11px" font-style="normal" font-weight="normal" text-decoration="normal" x="193.953125" y="332.5" text-anchor="start" dominant-baseline="alphabetic" transform="matrix(0.7071067811865476, -0.7071067811865475, 0.7071067811865475, 0.7071067811865476, -164.40657415976324, 260.38031213901496)" fill-opacity="1">Coastal</text><text fill="rgb(68,68,68)" stroke="none" font-family="helvetica" font-size="11px" font-style="normal" font-weight="normal" text-decoration="normal" x="292.91748046875" y="332.5" text-anchor="start" dominant-baseline="alphabetic" transform="matrix(0.7071067811865476, -0.7071067811865475, 0.7071067811865475, 0.7071067811865476, -136.4352717630785, 327.9090097423302)" fill-opacity="1">Trades</text><text fill="rgb(68,68,68)" stroke="none" font-family="helvetica" font-size="11px" font-style="normal" font-weight="normal" text-decoration="normal" x="396.57080078125" y="332.5" text-anchor="start" dominant-baseline="alphabetic" transform="matrix(0.7071067811865476, -0.7071067811865475, 0.7071067811865475, 0.7071067811865476, -108.46396936639383, 395.43770734564555)" fill-opacity="1">Polar</text><text fill="rgb(68,68,68)" stroke="none" font-family="helvetica" font-size="13px" font-style="italic" font-weight="normal" text-decoration="normal" x="251.5400390625" y="394.3601404257544" text-anchor="start" dominant-baseline="alphabetic" transform="matrix(1, 0, 0, 1, 0.5, 0.5)" fill-opacity="1">Predicted</text><path fill="none" stroke="rgb(0,0,0)" paint-order="fill" d="M 88.5 318.5 L 88.5 27.5" stroke-opacity="1" stroke-linejoin="bevel" stroke-miterlimit="10" stroke-dasharray=""/><path fill="none" stroke="rgb(0,0,0)" paint-order="fill" d="M 82.5 282.5 L 90.5 282.5 M 82.5 209.5 L 90.5 209.5 M 82.5 136.5 L 90.5 136.5 M 82.5 63.5 L 90.5 63.5" stroke-opacity="1" stroke-linejoin="bevel" stroke-miterlimit="10" stroke-dasharray=""/><path fill="none" stroke="rgb(0,0,0)" paint-order="fill" d="" stroke-opacity="1" stroke-linejoin="bevel" stroke-miterlimit="10" stroke-dasharray=""/><text fill="rgb(68,68,68)" stroke="none" font-family="helvetica" font-size="11px" font-style="normal" font-weight="normal" text-decoration="normal" x="25.85107421875" y="285.125" text-anchor="start" dominant-baseline="alphabetic" transform="matrix(1, 0, 0, 1, 0.5, 0.5)" fill-opacity="1">Westerlies</text><text fill="rgb(68,68,68)" stroke="none" font-family="helvetica" font-size="11px" font-style="normal" font-weight="normal" text-decoration="normal" x="39.703125" y="212.375" text-anchor="start" dominant-baseline="alphabetic" transform="matrix(1, 0, 0, 1, 0.5, 0.5)" fill-opacity="1">Coastal</text><text fill="rgb(68,68,68)" stroke="none" font-family="helvetica" font-size="11px" font-style="normal" font-weight="normal" text-decoration="normal" x="43.16748046875" y="139.625" text-anchor="start" dominant-baseline="alphabetic" transform="matrix(1, 0, 0, 1, 0.5, 0.5)" fill-opacity="1">Trades</text><text fill="rgb(68,68,68)" stroke="none" font-family="helvetica" font-size="11px" font-style="normal" font-weight="normal" text-decoration="normal" x="51.32080078125" y="66.875" text-anchor="start" dominant-baseline="alphabetic" transform="matrix(1, 0, 0, 1, 0.5, 0.5)" fill-opacity="1">Polar</text><text fill="rgb(68,68,68)" stroke="none" font-family="helvetica" font-size="13px" font-style="italic" font-weight="normal" text-decoration="normal" x="-0.21435546875" y="169.5" text-anchor="start" dominant-baseline="alphabetic" transform="matrix(6.123233995736766e-17, -1, 1, 6.123233995736766e-17, -154.14892578125, 190.85107421875)" fill-opacity="1">Actual</text><path fill="none" stroke="none"/><text fill="rgb(68,68,68)" stroke="none" font-family="helvetica" font-size="13px" font-style="normal" font-weight="bold" text-decoration="normal" x="0" y="0" text-anchor="start" dominant-baseline="text-after-edge" transform="matrix(1, 0, 0, 1, 88.5, 22.5)" fill-opacity="1">Biome, &lt;Accuracy&gt; = 0.90</text></svg>