<svg version="1.1" xmlns="http://www.w3.org/2000/svg" xmlns:xlink="http://www.w3.org/1999/xlink" width="486" height="135"><defs><clipPath id="EoqUAIKFZfHq"><path fill="none" stroke="none" d="M 81.5 27.5 L 481.5 27.5 L 481.5 77.5 L 81.5 77.5 L 81.5 27.5"/></clipPath><clipPath id="SmWKAwWKFxvb"><path fill="none" stroke="none" d="M 81.5 27.5 L 481.5 27.5 L 481.5 77.5 L 81.5 77.5 L 81.5 27.5"/></clipPath><clipPath id="SOFikoHsePsU"><path fill="none" stroke="none" d="M 81.5 27.5 L 481.5 27.5 L 481.5 77.5 L 81.5 77.5 L 81.5 27.5"/></clipPath><clipPath id="SvPMTtdnMBOL"><path fill="none" stroke="none" d="M 81.5 27.5 L 481.5 27.5 L 481.5 77.5 L 81.5 77.5 L 81.5 27.5"/></clipPath></defs><path fill="none" stroke="rgb(229,229,229)" paint-order="fill" d="M 81.5 27.5 L 481.5 27.5 L 481.5 77.5 L 81.5 77.5 L 81.5 27.5" stroke-opacity="1" stroke-linejoin="bevel" stroke-miterlimit="10" stroke-dasharray=""/><path fill="none" stroke="rgb(229,229,229)" paint-order="fill" d="M 99.5 77.5 L 99.5 27.5 M 190.5 77.5 L 190.5 27.5 M 280.5 77.5 L 280.5 27.5 M 370.5 77.5 L 370.5 27.5 M 461.5 77.5 L 461.5 27.5" stroke-opacity="1" stroke-linejoin="bevel" stroke-miterlimit="10" stroke-dasharray="" clip-path="url(#EoqUAIKFZfHq)"/><path fill="none" stroke="rgb(229,229,229)" paint-order="fill" d="M 81.5 71.5 L 481.5 71.5 M 81.5 58.5 L 481.5 58.5 M 81.5 46.5 L 481.5 46.5 M 81.5 33.5 L 481.5 33.5" stroke-opacity="1" stroke-linejoin="bevel" stroke-miterlimit="10" stroke-dasharray="" clip-path="url(#SmWKAwWKFxvb)"/><path fill="none" stroke="none"/><path fill="rgb(137,208,97)" stroke="none" paint-order="stroke" d="M 99.68181610107422 28.75 L 463.31817626953125 28.75 L 463.31817626953125 38.75 L 99.68181610107422 38.75 L 99.68181610107422 28.75" fill-opacity="1" clip-path="url(#SOFikoHsePsU)"/><path fill="none" stroke="rgb(137,208,97)" paint-order="fill" d="M 99.68181610107422 28.75 L 463.31817626953125 28.75 L 463.31817626953125 38.75 L 99.68181610107422 38.75 L 99.68181610107422 28.75" stroke-opacity="1" stroke-linejoin="bevel" stroke-miterlimit="10" stroke-dasharray="" clip-path="url(#SOFikoHsePsU)"/><path fill="rgb(146,211,94)" stroke="none" paint-order="stroke" d="M 99.68181610107422 41.25 L 452.234619140625 41.25 L 452.234619140625 51.25 L 99.68181610107422 51.25 L 99.68181610107422 41.25" fill-opacity="1" clip-path="url(#SOFikoHsePsU)"/><path fill="none" stroke="rgb(146,211,94)" paint-order="fill" d="M 99.68181610107422 41.25 L 452.234619140625 41.25 L 452.234619140625 51.25 L 99.68181610107422 51.25 L 99.68181610107422 41.25" stroke-opacity="1" stroke-linejoin="bevel" stroke-miterlimit="10" stroke-dasharray="" clip-path="url(#SOFikoHsePsU)"/><path fill="rgb(122,203,103)" stroke="none" paint-order="stroke" d="M 99.68181610107422 53.75 L 263.82684326171875 53.75 L 263.82684326171875 63.75 L 99.68181610107422 63.75 L 99.68181610107422 53.75" fill-opacity="1" clip-path="url(#SOFikoHsePsU)"/><path fill="none" stroke="rgb(122,203,103)" paint-order="fill" d="M 99.68181610107422 53.75 L 263.82684326171875 53.75 L 263.82684326171875 63.75 L 99.68181610107422 63.75 L 99.68181610107422 53.75" stroke-opacity="1" stroke-linejoin="bevel" stroke-miterlimit="10" stroke-dasharray="" clip-path="url(#SOFikoHsePsU)"/><path fill="rgb(93,188,118)" stroke="none" paint-order="stroke" d="M 99.68181610107422 66.25 L 236.7018280029297 66.25 L 236.7018280029297 76.25 L 99.68181610107422 76.25 L 99.68181610107422 66.25" fill-opacity="1" clip-path="url(#SOFikoHsePsU)"/><path fill="none" stroke="rgb(93,188,118)" paint-order="fill" d="M 99.68181610107422 66.25 L 236.7018280029297 66.25 L 236.7018280029297 76.25 L 99.68181610107422 76.25 L 99.68181610107422 66.25" stroke-opacity="1" stroke-linejoin="bevel" stroke-miterlimit="10" stroke-dasharray="" clip-path="url(#SOFikoHsePsU)"/><path fill="none" stroke="rgb(0,0,0)" paint-order="fill" d="M 81.5 77.5 L 481.5 77.5" stroke-opacity="1" stroke-linejoin="bevel" stroke-miterlimit="10" stroke-dasharray=""/><path fill="none" stroke="rgb(0,0,0)" paint-order="fill" d="M 99.5 83.5 L 99.5 75.5 M 190.5 83.5 L 190.5 75.5 M 280.5 83.5 L 280.5 75.5 M 370.5 83.5 L 370.5 75.5 M 461.5 83.5 L 461.5 75.5" stroke-opacity="1" stroke-linejoin="bevel" stroke-miterlimit="10" stroke-dasharray=""/><path fill="none" stroke="rgb(0,0,0)" paint-order="fill" d="M 81.5 81.5 L 81.5 77.5 M 99.5 81.5 L 99.5 77.5 M 117.5 81.5 L 117.5 77.5 M 135.5 81.5 L 135.5 77.5 M 153.5 81.5 L 153.5 77.5 M 172.5 81.5 L 172.5 77.5 M 190.5 81.5 L 190.5 77.5 M 208.5 81.5 L 208.5 77.5 M 226.5 81.5 L 226.5 77.5 M 244.5 81.5 L 244.5 77.5 M 262.5 81.5 L 262.5 77.5 M 280.5 81.5 L 280.5 77.5 M 298.5 81.5 L 298.5 77.5 M 316.5 81.5 L 316.5 77.5 M 334.5 81.5 L 334.5 77.5 M 352.5 81.5 L 352.5 77.5 M 370.5 81.5 L 370.5 77.5 M 389.5 81.5 L 389.5 77.5 M 407.5 81.5 L 407.5 77.5 M 425.5 81.5 L 425.5 77.5 M 443.5 81.5 L 443.5 77.5 M 461.5 81.5 L 461.5 77.5 M 479.5 81.5 L 479.5 77.5" stroke-opacity="1" stroke-linejoin="bevel" stroke-miterlimit="10" stroke-dasharray=""/><text fill="rgb(68,68,68)" stroke="none" font-family="helvetica" font-size="11px" font-style="normal" font-weight="normal" text-decoration="normal" x="93.06414031982422" y="91.945068359375" text-anchor="start" dominant-baseline="alphabetic" transform="matrix(0.7071067811865476, -0.7071067811865475, 0.7071067811865475, 0.7071067811865476, -32.67571537880866, 96.40673799105049)" fill-opacity="1">0</text><text fill="rgb(68,68,68)" stroke="none" font-family="helvetica" font-size="11px" font-style="normal" font-weight="normal" text-decoration="normal" x="168.19798278808594" y="91.945068359375" text-anchor="start" dominant-baseline="alphabetic" transform="matrix(0.7071067811865476, -0.7071067811865475, 0.7071067811865475, 0.7071067811865476, -6.190744616856563, 160.34711360361013)" fill-opacity="1">0.05</text><text fill="rgb(68,68,68)" stroke="none" font-family="helvetica" font-size="11px" font-style="normal" font-weight="normal" text-decoration="normal" x="264.7409973144531" y="91.945068359375" text-anchor="start" dominant-baseline="alphabetic" transform="matrix(0.7071067811865476, -0.7071067811865475, 0.7071067811865475, 0.7071067811865476, 20.294223910497635, 224.28748382137314)" fill-opacity="1">0.1</text><text fill="rgb(68,68,68)" stroke="none" font-family="helvetica" font-size="11px" font-style="normal" font-weight="normal" text-decoration="normal" x="349.0486755371094" y="91.945068359375" text-anchor="start" dominant-baseline="alphabetic" transform="matrix(0.7071067811865476, -0.7071067811865475, 0.7071067811865475, 0.7071067811865476, 46.779196907047606, 288.22786482872937)" fill-opacity="1">0.15</text><text fill="rgb(68,68,68)" stroke="none" font-family="helvetica" font-size="11px" font-style="normal" font-weight="normal" text-decoration="normal" x="445.5916748046875" y="91.945068359375" text-anchor="start" dominant-baseline="alphabetic" transform="matrix(0.7071067811865476, -0.7071067811865475, 0.7071067811865475, 0.7071067811865476, 73.26416096520592, 352.1682242568992)" fill-opacity="1">0.2</text><text fill="rgb(68,68,68)" stroke="none" font-family="helvetica" font-size="13px" font-style="italic" font-weight="normal" text-decoration="normal" x="248.484130859375" y="128.71774531498966" text-anchor="start" dominant-baseline="alphabetic" transform="matrix(1, 0, 0, 1, 0.5, 0.5)" fill-opacity="1">Importance</text><path fill="none" stroke="rgb(0,0,0)" paint-order="fill" d="M 81.5 77.5 L 81.5 27.5" stroke-opacity="1" stroke-linejoin="bevel" stroke-miterlimit="10" stroke-dasharray=""/><path fill="none" stroke="rgb(0,0,0)" paint-order="fill" d="M 75.5 71.5 L 83.5 71.5 M 75.5 58.5 L 83.5 58.5 M 75.5 46.5 L 83.5 46.5 M 75.5 33.5 L 83.5 33.5" stroke-opacity="1" stroke-linejoin="bevel" stroke-miterlimit="10" stroke-dasharray=""/><path fill="none" stroke="rgb(0,0,0)" paint-order="fill" d="" stroke-opacity="1" stroke-linejoin="bevel" stroke-miterlimit="10" stroke-dasharray=""/><text fill="rgb(68,68,68)" stroke="none" font-family="helvetica" font-size="11px" font-style="normal" font-weight="normal" text-decoration="normal" x="16.8154296875" y="74.25" text-anchor="start" dominant-baseline="alphabetic" transform="matrix(1, 0, 0, 1, 0.5, 0.5)" fill-opacity="1">Nitrospirae</text><text fill="rgb(68,68,68)" stroke="none" font-family="helvetica" font-size="11px" font-style="normal" font-weight="normal" text-decoration="normal" x="2.73779296875" y="61.75" text-anchor="start" dominant-baseline="alphabetic" transform="matrix(1, 0, 0, 1, 0.5, 0.5)" fill-opacity="1">Bacteroidetes</text><text fill="rgb(68,68,68)" stroke="none" font-family="helvetica" font-size="11px" font-style="normal" font-weight="normal" text-decoration="normal" x="29.03466796875" y="49.25" text-anchor="start" dominant-baseline="alphabetic" transform="matrix(1, 0, 0, 1, 0.5, 0.5)" fill-opacity="1">Chlorobi</text><text fill="rgb(68,68,68)" stroke="none" font-family="helvetica" font-size="11px" font-style="normal" font-weight="normal" text-decoration="normal" x="3.35009765625" y="36.75" text-anchor="start" dominant-baseline="alphabetic" transform="matrix(1, 0, 0, 1, 0.5, 0.5)" fill-opacity="1">Acidobacteria</text><path fill="none" stroke="none"/><text fill="rgb(68,68,68)" stroke="none" font-family="helvetica" font-size="13px" font-style="normal" font-weight="bold" text-decoration="normal" x="0" y="0" text-anchor="start" dominant-baseline="text-after-edge" transform="matrix(1, 0, 0, 1, 81.5, 22.5)" fill-opacity="1">Temperature (°C)</text></svg>