<svg version="1.1" xmlns="http://www.w3.org/2000/svg" xmlns:xlink="http://www.w3.org/1999/xlink" width="494" height="130"><defs><clipPath id="nlIhmgTeUizH"><path fill="none" stroke="none" d="M 89.5 27.5 L 489.5 27.5 L 489.5 77.5 L 89.5 77.5 L 89.5 27.5"/></clipPath><clipPath id="KnWroiPGonrF"><path fill="none" stroke="none" d="M 89.5 27.5 L 489.5 27.5 L 489.5 77.5 L 89.5 77.5 L 89.5 27.5"/></clipPath><clipPath id="TarGDDeZaWOD"><path fill="none" stroke="none" d="M 89.5 27.5 L 489.5 27.5 L 489.5 77.5 L 89.5 77.5 L 89.5 27.5"/></clipPath><clipPath id="iAzEyeNBdeFJ"><path fill="none" stroke="none" d="M 89.5 27.5 L 489.5 27.5 L 489.5 77.5 L 89.5 77.5 L 89.5 27.5"/></clipPath></defs><path fill="none" stroke="rgb(229,229,229)" paint-order="fill" d="M 89.5 27.5 L 489.5 27.5 L 489.5 77.5 L 89.5 77.5 L 89.5 27.5" stroke-opacity="1" stroke-linejoin="bevel" stroke-miterlimit="10" stroke-dasharray=""/><path fill="none" stroke="rgb(229,229,229)" paint-order="fill" d="M 107.5 77.5 L 107.5 27.5 M 197.5 77.5 L 197.5 27.5 M 288.5 77.5 L 288.5 27.5 M 378.5 77.5 L 378.5 27.5 M 468.5 77.5 L 468.5 27.5" stroke-opacity="1" stroke-linejoin="bevel" stroke-miterlimit="10" stroke-dasharray="" clip-path="url(#nlIhmgTeUizH)"/><path fill="none" stroke="rgb(229,229,229)" paint-order="fill" d="M 89.5 71.5 L 489.5 71.5 M 89.5 58.5 L 489.5 58.5 M 89.5 46.5 L 489.5 46.5 M 89.5 33.5 L 489.5 33.5" stroke-opacity="1" stroke-linejoin="bevel" stroke-miterlimit="10" stroke-dasharray="" clip-path="url(#KnWroiPGonrF)"/><path fill="none" stroke="none"/><path fill="rgb(231,231,129)" stroke="none" paint-order="stroke" d="M 107.68181610107422 28.75 L 471.31817626953125 28.75 L 471.31817626953125 38.75 L 107.68181610107422 38.75 L 107.68181610107422 28.75" fill-opacity="1" clip-path="url(#TarGDDeZaWOD)"/><path fill="none" stroke="rgb(231,231,129)" paint-order="fill" d="M 107.68181610107422 28.75 L 471.31817626953125 28.75 L 471.31817626953125 38.75 L 107.68181610107422 38.75 L 107.68181610107422 28.75" stroke-opacity="1" stroke-linejoin="bevel" stroke-miterlimit="10" stroke-dasharray="" clip-path="url(#TarGDDeZaWOD)"/><path fill="rgb(77,174,127)" stroke="none" paint-order="stroke" d="M 107.68181610107422 41.25 L 161.406494140625 41.25 L 161.406494140625 51.25 L 107.68181610107422 51.25 L 107.68181610107422 41.25" fill-opacity="1" clip-path="url(#TarGDDeZaWOD)"/><path fill="none" stroke="rgb(77,174,127)" paint-order="fill" d="M 107.68181610107422 41.25 L 161.406494140625 41.25 L 161.406494140625 51.25 L 107.68181610107422 51.25 L 107.68181610107422 41.25" stroke-opacity="1" stroke-linejoin="bevel" stroke-miterlimit="10" stroke-dasharray="" clip-path="url(#TarGDDeZaWOD)"/><path fill="rgb(112,199,108)" stroke="none" paint-order="stroke" d="M 107.68181610107422 53.75 L 156.490966796875 53.75 L 156.490966796875 63.75 L 107.68181610107422 63.75 L 107.68181610107422 53.75" fill-opacity="1" clip-path="url(#TarGDDeZaWOD)"/><path fill="none" stroke="rgb(112,199,108)" paint-order="fill" d="M 107.68181610107422 53.75 L 156.490966796875 53.75 L 156.490966796875 63.75 L 107.68181610107422 63.75 L 107.68181610107422 53.75" stroke-opacity="1" stroke-linejoin="bevel" stroke-miterlimit="10" stroke-dasharray="" clip-path="url(#TarGDDeZaWOD)"/><path fill="rgb(81,178,125)" stroke="none" paint-order="stroke" d="M 107.68181610107422 66.25 L 149.4820556640625 66.25 L 149.4820556640625 76.25 L 107.68181610107422 76.25 L 107.68181610107422 66.25" fill-opacity="1" clip-path="url(#TarGDDeZaWOD)"/><path fill="none" stroke="rgb(81,178,125)" paint-order="fill" d="M 107.68181610107422 66.25 L 149.4820556640625 66.25 L 149.4820556640625 76.25 L 107.68181610107422 76.25 L 107.68181610107422 66.25" stroke-opacity="1" stroke-linejoin="bevel" stroke-miterlimit="10" stroke-dasharray="" clip-path="url(#TarGDDeZaWOD)"/><path fill="none" stroke="rgb(0,0,0)" paint-order="fill" d="M 89.5 77.5 L 489.5 77.5" stroke-opacity="1" stroke-linejoin="bevel" stroke-miterlimit="10" stroke-dasharray=""/><path fill="none" stroke="rgb(0,0,0)" paint-order="fill" d="M 107.5 83.5 L 107.5 75.5 M 197.5 83.5 L 197.5 75.5 M 288.5 83.5 L 288.5 75.5 M 378.5 83.5 L 378.5 75.5 M 468.5 83.5 L 468.5 75.5" stroke-opacity="1" stroke-linejoin="bevel" stroke-miterlimit="10" stroke-dasharray=""/><path fill="none" stroke="rgb(0,0,0)" paint-order="fill" d="M 89.5 81.5 L 89.5 77.5 M 107.5 81.5 L 107.5 77.5 M 125.5 81.5 L 125.5 77.5 M 143.5 81.5 L 143.5 77.5 M 161.5 81.5 L 161.5 77.5 M 179.5 81.5 L 179.5 77.5 M 197.5 81.5 L 197.5 77.5 M 215.5 81.5 L 215.5 77.5 M 234.5 81.5 L 234.5 77.5 M 252.5 81.5 L 252.5 77.5 M 270.5 81.5 L 270.5 77.5 M 288.5 81.5 L 288.5 77.5 M 306.5 81.5 L 306.5 77.5 M 324.5 81.5 L 324.5 77.5 M 342.5 81.5 L 342.5 77.5 M 360.5 81.5 L 360.5 77.5 M 378.5 81.5 L 378.5 77.5 M 396.5 81.5 L 396.5 77.5 M 414.5 81.5 L 414.5 77.5 M 432.5 81.5 L 432.5 77.5 M 450.5 81.5 L 450.5 77.5 M 468.5 81.5 L 468.5 77.5 M 486.5 81.5 L 486.5 77.5" stroke-opacity="1" stroke-linejoin="bevel" stroke-miterlimit="10" stroke-dasharray=""/><text fill="rgb(68,68,68)" stroke="none" font-family="helvetica" font-size="11px" font-style="normal" font-weight="normal" text-decoration="normal" x="101.06414031982422" y="91.945068359375" text-anchor="start" dominant-baseline="alphabetic" transform="matrix(0.7071067811865476, -0.7071067811865475, 0.7071067811865475, 0.7071067811865476, -30.33256962830103, 102.06359224054287)" fill-opacity="1">0</text><text fill="rgb(68,68,68)" stroke="none" font-family="helvetica" font-size="11px" font-style="normal" font-weight="normal" text-decoration="normal" x="182.15489196777344" y="91.945068359375" text-anchor="start" dominant-baseline="alphabetic" transform="matrix(0.7071067811865476, -0.7071067811865475, 0.7071067811865475, 0.7071067811865476, -3.8946863137582852, 165.89028869894935)" fill-opacity="1">0.1</text><text fill="rgb(68,68,68)" stroke="none" font-family="helvetica" font-size="11px" font-style="normal" font-weight="normal" text-decoration="normal" x="272.41949462890625" y="91.945068359375" text-anchor="start" dominant-baseline="alphabetic" transform="matrix(0.7071067811865476, -0.7071067811865475, 0.7071067811865475, 0.7071067811865476, 22.543203704578218, 229.71700134174563)" fill-opacity="1">0.2</text><text fill="rgb(68,68,68)" stroke="none" font-family="helvetica" font-size="11px" font-style="normal" font-weight="normal" text-decoration="normal" x="362.6840515136719" y="91.945068359375" text-anchor="start" dominant-baseline="alphabetic" transform="matrix(0.7071067811865476, -0.7071067811865475, 0.7071067811865475, 0.7071067811865476, 48.98108031532723, 293.5436816157623)" fill-opacity="1">0.3</text><text fill="rgb(68,68,68)" stroke="none" font-family="helvetica" font-size="11px" font-style="normal" font-weight="normal" text-decoration="normal" x="452.9486389160156" y="91.945068359375" text-anchor="start" dominant-baseline="alphabetic" transform="matrix(0.7071067811865476, -0.7071067811865475, 0.7071067811865475, 0.7071067811865476, 75.4189658644679, 357.3703834689653)" fill-opacity="1">0.4</text><text fill="rgb(68,68,68)" stroke="none" font-family="helvetica" font-size="13px" font-style="italic" font-weight="normal" text-decoration="normal" x="256.484130859375" y="124.39189528496706" text-anchor="start" dominant-baseline="alphabetic" transform="matrix(1, 0, 0, 1, 0.5, 0.5)" fill-opacity="1">Importance</text><path fill="none" stroke="rgb(0,0,0)" paint-order="fill" d="M 89.5 77.5 L 89.5 27.5" stroke-opacity="1" stroke-linejoin="bevel" stroke-miterlimit="10" stroke-dasharray=""/><path fill="none" stroke="rgb(0,0,0)" paint-order="fill" d="M 83.5 71.5 L 91.5 71.5 M 83.5 58.5 L 91.5 58.5 M 83.5 46.5 L 91.5 46.5 M 83.5 33.5 L 91.5 33.5" stroke-opacity="1" stroke-linejoin="bevel" stroke-miterlimit="10" stroke-dasharray=""/><path fill="none" stroke="rgb(0,0,0)" paint-order="fill" d="" stroke-opacity="1" stroke-linejoin="bevel" stroke-miterlimit="10" stroke-dasharray=""/><text fill="rgb(68,68,68)" stroke="none" font-family="helvetica" font-size="11px" font-style="normal" font-weight="normal" text-decoration="normal" x="10.73779296875" y="74.25" text-anchor="start" dominant-baseline="alphabetic" transform="matrix(1, 0, 0, 1, 0.5, 0.5)" fill-opacity="1">Bacteroidetes</text><text fill="rgb(68,68,68)" stroke="none" font-family="helvetica" font-size="11px" font-style="normal" font-weight="normal" text-decoration="normal" x="8.2939453125" y="61.75" text-anchor="start" dominant-baseline="alphabetic" transform="matrix(1, 0, 0, 1, 0.5, 0.5)" fill-opacity="1">Actinobacteria</text><text fill="rgb(68,68,68)" stroke="none" font-family="helvetica" font-size="11px" font-style="normal" font-weight="normal" text-decoration="normal" x="24.8154296875" y="49.25" text-anchor="start" dominant-baseline="alphabetic" transform="matrix(1, 0, 0, 1, 0.5, 0.5)" fill-opacity="1">Nitrospirae</text><text fill="rgb(68,68,68)" stroke="none" font-family="helvetica" font-size="11px" font-style="normal" font-weight="normal" text-decoration="normal" x="2.8046875" y="36.75" text-anchor="start" dominant-baseline="alphabetic" transform="matrix(1, 0, 0, 1, 0.5, 0.5)" fill-opacity="1">Deferribacteres</text><path fill="none" stroke="none"/><text fill="rgb(68,68,68)" stroke="none" font-family="helvetica" font-size="13px" font-style="normal" font-weight="bold" text-decoration="normal" x="0" y="0" text-anchor="start" dominant-baseline="text-after-edge" transform="matrix(1, 0, 0, 1, 89.5, 22.5)" fill-opacity="1">Oxygen (µmol/kg)</text></svg>