<svg version="1.1" xmlns="http://www.w3.org/2000/svg" xmlns:xlink="http://www.w3.org/1999/xlink" width="489" height="135"><defs><clipPath id="MfSMFliMbRZJ"><path fill="none" stroke="none" d="M 84.5 27.5 L 484.5 27.5 L 484.5 77.5 L 84.5 77.5 L 84.5 27.5"/></clipPath><clipPath id="cZpyxkLfcwmQ"><path fill="none" stroke="none" d="M 84.5 27.5 L 484.5 27.5 L 484.5 77.5 L 84.5 77.5 L 84.5 27.5"/></clipPath><clipPath id="WzgTAhwJLcOU"><path fill="none" stroke="none" d="M 84.5 27.5 L 484.5 27.5 L 484.5 77.5 L 84.5 77.5 L 84.5 27.5"/></clipPath><clipPath id="xTWfTzsWuHAk"><path fill="none" stroke="none" d="M 84.5 27.5 L 484.5 27.5 L 484.5 77.5 L 84.5 77.5 L 84.5 27.5"/></clipPath></defs><path fill="none" stroke="rgb(229,229,229)" paint-order="fill" d="M 84.5 27.5 L 484.5 27.5 L 484.5 77.5 L 84.5 77.5 L 84.5 27.5" stroke-opacity="1" stroke-linejoin="bevel" stroke-miterlimit="10" stroke-dasharray=""/><path fill="none" stroke="rgb(229,229,229)" paint-order="fill" d="M 102.5 77.5 L 102.5 27.5 M 183.5 77.5 L 183.5 27.5 M 265.5 77.5 L 265.5 27.5 M 346.5 77.5 L 346.5 27.5 M 427.5 77.5 L 427.5 27.5" stroke-opacity="1" stroke-linejoin="bevel" stroke-miterlimit="10" stroke-dasharray="" clip-path="url(#MfSMFliMbRZJ)"/><path fill="none" stroke="rgb(229,229,229)" paint-order="fill" d="M 84.5 71.5 L 484.5 71.5 M 84.5 58.5 L 484.5 58.5 M 84.5 46.5 L 484.5 46.5 M 84.5 33.5 L 484.5 33.5" stroke-opacity="1" stroke-linejoin="bevel" stroke-miterlimit="10" stroke-dasharray="" clip-path="url(#cZpyxkLfcwmQ)"/><path fill="none" stroke="none"/><path fill="rgb(252,238,152)" stroke="none" paint-order="stroke" d="M 102.68181610107422 28.75 L 466.31817626953125 28.75 L 466.31817626953125 38.75 L 102.68181610107422 38.75 L 102.68181610107422 28.75" fill-opacity="1" clip-path="url(#WzgTAhwJLcOU)"/><path fill="none" stroke="rgb(252,238,152)" paint-order="fill" d="M 102.68181610107422 28.75 L 466.31817626953125 28.75 L 466.31817626953125 38.75 L 102.68181610107422 38.75 L 102.68181610107422 28.75" stroke-opacity="1" stroke-linejoin="bevel" stroke-miterlimit="10" stroke-dasharray="" clip-path="url(#WzgTAhwJLcOU)"/><path fill="rgb(130,206,99)" stroke="none" paint-order="stroke" d="M 102.68181610107422 41.25 L 255.41172790527344 41.25 L 255.41172790527344 51.25 L 102.68181610107422 51.25 L 102.68181610107422 41.25" fill-opacity="1" clip-path="url(#WzgTAhwJLcOU)"/><path fill="none" stroke="rgb(130,206,99)" paint-order="fill" d="M 102.68181610107422 41.25 L 255.41172790527344 41.25 L 255.41172790527344 51.25 L 102.68181610107422 51.25 L 102.68181610107422 41.25" stroke-opacity="1" stroke-linejoin="bevel" stroke-miterlimit="10" stroke-dasharray="" clip-path="url(#WzgTAhwJLcOU)"/><path fill="rgb(143,210,95)" stroke="none" paint-order="stroke" d="M 102.68181610107422 53.75 L 224.06143188476562 53.75 L 224.06143188476562 63.75 L 102.68181610107422 63.75 L 102.68181610107422 53.75" fill-opacity="1" clip-path="url(#WzgTAhwJLcOU)"/><path fill="none" stroke="rgb(143,210,95)" paint-order="fill" d="M 102.68181610107422 53.75 L 224.06143188476562 53.75 L 224.06143188476562 63.75 L 102.68181610107422 63.75 L 102.68181610107422 53.75" stroke-opacity="1" stroke-linejoin="bevel" stroke-miterlimit="10" stroke-dasharray="" clip-path="url(#WzgTAhwJLcOU)"/><path fill="rgb(94,189,117)" stroke="none" paint-order="stroke" d="M 102.68181610107422 66.25 L 194.04397583007812 66.25 L 194.04397583007812 76.25 L 102.68181610107422 76.25 L 102.68181610107422 66.25" fill-opacity="1" clip-path="url(#WzgTAhwJLcOU)"/><path fill="none" stroke="rgb(94,189,117)" paint-order="fill" d="M 102.68181610107422 66.25 L 194.04397583007812 66.25 L 194.04397583007812 76.25 L 102.68181610107422 76.25 L 102.68181610107422 66.25" stroke-opacity="1" stroke-linejoin="bevel" stroke-miterlimit="10" stroke-dasharray="" clip-path="url(#WzgTAhwJLcOU)"/><path fill="none" stroke="rgb(0,0,0)" paint-order="fill" d="M 84.5 77.5 L 484.5 77.5" stroke-opacity="1" stroke-linejoin="bevel" stroke-miterlimit="10" stroke-dasharray=""/><path fill="none" stroke="rgb(0,0,0)" paint-order="fill" d="M 102.5 83.5 L 102.5 75.5 M 183.5 83.5 L 183.5 75.5 M 265.5 83.5 L 265.5 75.5 M 346.5 83.5 L 346.5 75.5 M 427.5 83.5 L 427.5 75.5" stroke-opacity="1" stroke-linejoin="bevel" stroke-miterlimit="10" stroke-dasharray=""/><path fill="none" stroke="rgb(0,0,0)" paint-order="fill" d="M 86.5 81.5 L 86.5 77.5 M 102.5 81.5 L 102.5 77.5 M 118.5 81.5 L 118.5 77.5 M 135.5 81.5 L 135.5 77.5 M 151.5 81.5 L 151.5 77.5 M 167.5 81.5 L 167.5 77.5 M 183.5 81.5 L 183.5 77.5 M 200.5 81.5 L 200.5 77.5 M 216.5 81.5 L 216.5 77.5 M 232.5 81.5 L 232.5 77.5 M 248.5 81.5 L 248.5 77.5 M 265.5 81.5 L 265.5 77.5 M 281.5 81.5 L 281.5 77.5 M 297.5 81.5 L 297.5 77.5 M 313.5 81.5 L 313.5 77.5 M 330.5 81.5 L 330.5 77.5 M 346.5 81.5 L 346.5 77.5 M 362.5 81.5 L 362.5 77.5 M 378.5 81.5 L 378.5 77.5 M 395.5 81.5 L 395.5 77.5 M 411.5 81.5 L 411.5 77.5 M 427.5 81.5 L 427.5 77.5 M 443.5 81.5 L 443.5 77.5 M 460.5 81.5 L 460.5 77.5 M 476.5 81.5 L 476.5 77.5" stroke-opacity="1" stroke-linejoin="bevel" stroke-miterlimit="10" stroke-dasharray=""/><text fill="rgb(68,68,68)" stroke="none" font-family="helvetica" font-size="11px" font-style="normal" font-weight="normal" text-decoration="normal" x="96.06414031982422" y="91.945068359375" text-anchor="start" dominant-baseline="alphabetic" transform="matrix(0.7071067811865476, -0.7071067811865475, 0.7071067811865475, 0.7071067811865476, -31.797035722368292, 98.52805833461014)" fill-opacity="1">0</text><text fill="rgb(68,68,68)" stroke="none" font-family="helvetica" font-size="11px" font-style="normal" font-weight="normal" text-decoration="normal" x="161.9976806640625" y="91.945068359375" text-anchor="start" dominant-baseline="alphabetic" transform="matrix(0.7071067811865476, -0.7071067811865475, 0.7071067811865475, 0.7071067811865476, -8.006771063577673, 155.96283792630777)" fill-opacity="1">0.05</text><text fill="rgb(68,68,68)" stroke="none" font-family="helvetica" font-size="11px" font-style="normal" font-weight="normal" text-decoration="normal" x="249.34042358398438" y="91.945068359375" text-anchor="start" dominant-baseline="alphabetic" transform="matrix(0.7071067811865476, -0.7071067811865475, 0.7071067811865475, 0.7071067811865476, 15.783500299006732, 213.39763370239524)" fill-opacity="1">0.1</text><text fill="rgb(68,68,68)" stroke="none" font-family="helvetica" font-size="11px" font-style="normal" font-weight="normal" text-decoration="normal" x="324.4477844238281" y="91.945068359375" text-anchor="start" dominant-baseline="alphabetic" transform="matrix(0.7071067811865476, -0.7071067811865475, 0.7071067811865475, 0.7071067811865476, 39.57376272319942, 270.8324078992963)" fill-opacity="1">0.15</text><text fill="rgb(68,68,68)" stroke="none" font-family="helvetica" font-size="11px" font-style="normal" font-weight="normal" text-decoration="normal" x="411.7904968261719" y="91.945068359375" text-anchor="start" dominant-baseline="alphabetic" transform="matrix(0.7071067811865476, -0.7071067811865475, 0.7071067811865475, 0.7071067811865476, 63.36402514739211, 328.26718209619736)" fill-opacity="1">0.2</text><text fill="rgb(68,68,68)" stroke="none" font-family="helvetica" font-size="13px" font-style="italic" font-weight="normal" text-decoration="normal" x="251.484130859375" y="128.71774531498966" text-anchor="start" dominant-baseline="alphabetic" transform="matrix(1, 0, 0, 1, 0.5, 0.5)" fill-opacity="1">Importance</text><path fill="none" stroke="rgb(0,0,0)" paint-order="fill" d="M 84.5 77.5 L 84.5 27.5" stroke-opacity="1" stroke-linejoin="bevel" stroke-miterlimit="10" stroke-dasharray=""/><path fill="none" stroke="rgb(0,0,0)" paint-order="fill" d="M 78.5 71.5 L 86.5 71.5 M 78.5 58.5 L 86.5 58.5 M 78.5 46.5 L 86.5 46.5 M 78.5 33.5 L 86.5 33.5" stroke-opacity="1" stroke-linejoin="bevel" stroke-miterlimit="10" stroke-dasharray=""/><path fill="none" stroke="rgb(0,0,0)" paint-order="fill" d="" stroke-opacity="1" stroke-linejoin="bevel" stroke-miterlimit="10" stroke-dasharray=""/><text fill="rgb(68,68,68)" stroke="none" font-family="helvetica" font-size="11px" font-style="normal" font-weight="normal" text-decoration="normal" x="3.2939453125" y="74.25" text-anchor="start" dominant-baseline="alphabetic" transform="matrix(1, 0, 0, 1, 0.5, 0.5)" fill-opacity="1">Actinobacteria</text><text fill="rgb(68,68,68)" stroke="none" font-family="helvetica" font-size="11px" font-style="normal" font-weight="normal" text-decoration="normal" x="3.27783203125" y="61.75" text-anchor="start" dominant-baseline="alphabetic" transform="matrix(1, 0, 0, 1, 0.5, 0.5)" fill-opacity="1">Lentisphaerae</text><text fill="rgb(68,68,68)" stroke="none" font-family="helvetica" font-size="11px" font-style="normal" font-weight="normal" text-decoration="normal" x="32.03466796875" y="49.25" text-anchor="start" dominant-baseline="alphabetic" transform="matrix(1, 0, 0, 1, 0.5, 0.5)" fill-opacity="1">Chlorobi</text><text fill="rgb(68,68,68)" stroke="none" font-family="helvetica" font-size="11px" font-style="normal" font-weight="normal" text-decoration="normal" x="5.73779296875" y="36.75" text-anchor="start" dominant-baseline="alphabetic" transform="matrix(1, 0, 0, 1, 0.5, 0.5)" fill-opacity="1">Bacteroidetes</text><path fill="none" stroke="none"/><text fill="rgb(68,68,68)" stroke="none" font-family="helvetica" font-size="13px" font-style="normal" font-weight="bold" text-decoration="normal" x="0" y="0" text-anchor="start" dominant-baseline="text-after-edge" transform="matrix(1, 0, 0, 1, 84.5, 22.5)" fill-opacity="1">Longitude</text></svg>