<svg version="1.1" xmlns="http://www.w3.org/2000/svg" xmlns:xlink="http://www.w3.org/1999/xlink" width="489" height="135"><defs><clipPath id="BShmBrJNaCMg"><path fill="none" stroke="none" d="M 84.5 27.5 L 484.5 27.5 L 484.5 77.5 L 84.5 77.5 L 84.5 27.5"/></clipPath><clipPath id="tfFXBNwTzcdt"><path fill="none" stroke="none" d="M 84.5 27.5 L 484.5 27.5 L 484.5 77.5 L 84.5 77.5 L 84.5 27.5"/></clipPath><clipPath id="DerSJBuUMbBx"><path fill="none" stroke="none" d="M 84.5 27.5 L 484.5 27.5 L 484.5 77.5 L 84.5 77.5 L 84.5 27.5"/></clipPath><clipPath id="ondkLXTXFrOG"><path fill="none" stroke="none" d="M 84.5 27.5 L 484.5 27.5 L 484.5 77.5 L 84.5 77.5 L 84.5 27.5"/></clipPath></defs><path fill="none" stroke="rgb(229,229,229)" paint-order="fill" d="M 84.5 27.5 L 484.5 27.5 L 484.5 77.5 L 84.5 77.5 L 84.5 27.5" stroke-opacity="1" stroke-linejoin="bevel" stroke-miterlimit="10" stroke-dasharray=""/><path fill="none" stroke="rgb(229,229,229)" paint-order="fill" d="M 102.5 77.5 L 102.5 27.5 M 162.5 77.5 L 162.5 27.5 M 221.5 77.5 L 221.5 27.5 M 280.5 77.5 L 280.5 27.5 M 340.5 77.5 L 340.5 27.5 M 399.5 77.5 L 399.5 27.5 M 459.5 77.5 L 459.5 27.5" stroke-opacity="1" stroke-linejoin="bevel" stroke-miterlimit="10" stroke-dasharray="" clip-path="url(#BShmBrJNaCMg)"/><path fill="none" stroke="rgb(229,229,229)" paint-order="fill" d="M 84.5 71.5 L 484.5 71.5 M 84.5 58.5 L 484.5 58.5 M 84.5 46.5 L 484.5 46.5 M 84.5 33.5 L 484.5 33.5" stroke-opacity="1" stroke-linejoin="bevel" stroke-miterlimit="10" stroke-dasharray="" clip-path="url(#tfFXBNwTzcdt)"/><path fill="none" stroke="none"/><path fill="rgb(91,186,119)" stroke="none" paint-order="stroke" d="M 102.68181610107422 28.75 L 466.31817626953125 28.75 L 466.31817626953125 38.75 L 102.68181610107422 38.75 L 102.68181610107422 28.75" fill-opacity="1" clip-path="url(#DerSJBuUMbBx)"/><path fill="none" stroke="rgb(91,186,119)" paint-order="fill" d="M 102.68181610107422 28.75 L 466.31817626953125 28.75 L 466.31817626953125 38.75 L 102.68181610107422 38.75 L 102.68181610107422 28.75" stroke-opacity="1" stroke-linejoin="bevel" stroke-miterlimit="10" stroke-dasharray="" clip-path="url(#DerSJBuUMbBx)"/><path fill="rgb(99,192,114)" stroke="none" paint-order="stroke" d="M 102.68181610107422 41.25 L 427.37750244140625 41.25 L 427.37750244140625 51.25 L 102.68181610107422 51.25 L 102.68181610107422 41.25" fill-opacity="1" clip-path="url(#DerSJBuUMbBx)"/><path fill="none" stroke="rgb(99,192,114)" paint-order="fill" d="M 102.68181610107422 41.25 L 427.37750244140625 41.25 L 427.37750244140625 51.25 L 102.68181610107422 51.25 L 102.68181610107422 41.25" stroke-opacity="1" stroke-linejoin="bevel" stroke-miterlimit="10" stroke-dasharray="" clip-path="url(#DerSJBuUMbBx)"/><path fill="rgb(104,195,112)" stroke="none" paint-order="stroke" d="M 102.68181610107422 53.75 L 422.67724609375 53.75 L 422.67724609375 63.75 L 102.68181610107422 63.75 L 102.68181610107422 53.75" fill-opacity="1" clip-path="url(#DerSJBuUMbBx)"/><path fill="none" stroke="rgb(104,195,112)" paint-order="fill" d="M 102.68181610107422 53.75 L 422.67724609375 53.75 L 422.67724609375 63.75 L 102.68181610107422 63.75 L 102.68181610107422 53.75" stroke-opacity="1" stroke-linejoin="bevel" stroke-miterlimit="10" stroke-dasharray="" clip-path="url(#DerSJBuUMbBx)"/><path fill="rgb(148,211,93)" stroke="none" paint-order="stroke" d="M 102.68181610107422 66.25 L 356.25274658203125 66.25 L 356.25274658203125 76.25 L 102.68181610107422 76.25 L 102.68181610107422 66.25" fill-opacity="1" clip-path="url(#DerSJBuUMbBx)"/><path fill="none" stroke="rgb(148,211,93)" paint-order="fill" d="M 102.68181610107422 66.25 L 356.25274658203125 66.25 L 356.25274658203125 76.25 L 102.68181610107422 76.25 L 102.68181610107422 66.25" stroke-opacity="1" stroke-linejoin="bevel" stroke-miterlimit="10" stroke-dasharray="" clip-path="url(#DerSJBuUMbBx)"/><path fill="none" stroke="rgb(0,0,0)" paint-order="fill" d="M 84.5 77.5 L 484.5 77.5" stroke-opacity="1" stroke-linejoin="bevel" stroke-miterlimit="10" stroke-dasharray=""/><path fill="none" stroke="rgb(0,0,0)" paint-order="fill" d="M 102.5 83.5 L 102.5 75.5 M 162.5 83.5 L 162.5 75.5 M 221.5 83.5 L 221.5 75.5 M 280.5 83.5 L 280.5 75.5 M 340.5 83.5 L 340.5 75.5 M 399.5 83.5 L 399.5 75.5 M 459.5 83.5 L 459.5 75.5" stroke-opacity="1" stroke-linejoin="bevel" stroke-miterlimit="10" stroke-dasharray=""/><path fill="none" stroke="rgb(0,0,0)" paint-order="fill" d="M 90.5 81.5 L 90.5 77.5 M 102.5 81.5 L 102.5 77.5 M 114.5 81.5 L 114.5 77.5 M 126.5 81.5 L 126.5 77.5 M 138.5 81.5 L 138.5 77.5 M 150.5 81.5 L 150.5 77.5 M 162.5 81.5 L 162.5 77.5 M 173.5 81.5 L 173.5 77.5 M 185.5 81.5 L 185.5 77.5 M 197.5 81.5 L 197.5 77.5 M 209.5 81.5 L 209.5 77.5 M 221.5 81.5 L 221.5 77.5 M 233.5 81.5 L 233.5 77.5 M 245.5 81.5 L 245.5 77.5 M 257.5 81.5 L 257.5 77.5 M 269.5 81.5 L 269.5 77.5 M 280.5 81.5 L 280.5 77.5 M 292.5 81.5 L 292.5 77.5 M 304.5 81.5 L 304.5 77.5 M 316.5 81.5 L 316.5 77.5 M 328.5 81.5 L 328.5 77.5 M 340.5 81.5 L 340.5 77.5 M 352.5 81.5 L 352.5 77.5 M 364.5 81.5 L 364.5 77.5 M 376.5 81.5 L 376.5 77.5 M 387.5 81.5 L 387.5 77.5 M 399.5 81.5 L 399.5 77.5 M 411.5 81.5 L 411.5 77.5 M 423.5 81.5 L 423.5 77.5 M 435.5 81.5 L 435.5 77.5 M 447.5 81.5 L 447.5 77.5 M 459.5 81.5 L 459.5 77.5 M 471.5 81.5 L 471.5 77.5 M 482.5 81.5 L 482.5 77.5" stroke-opacity="1" stroke-linejoin="bevel" stroke-miterlimit="10" stroke-dasharray=""/><text fill="rgb(68,68,68)" stroke="none" font-family="helvetica" font-size="11px" font-style="normal" font-weight="normal" text-decoration="normal" x="96.06414031982422" y="91.945068359375" text-anchor="start" dominant-baseline="alphabetic" transform="matrix(0.7071067811865476, -0.7071067811865475, 0.7071067811865475, 0.7071067811865476, -31.797035722368292, 98.52805833461014)" fill-opacity="1">0</text><text fill="rgb(68,68,68)" stroke="none" font-family="helvetica" font-size="11px" font-style="normal" font-weight="normal" text-decoration="normal" x="140.19534301757812" y="91.945068359375" text-anchor="start" dominant-baseline="alphabetic" transform="matrix(0.7071067811865476, -0.7071067811865475, 0.7071067811865475, 0.7071067811865476, -14.392527914514176, 140.54625713075993)" fill-opacity="1">0.02</text><text fill="rgb(68,68,68)" stroke="none" font-family="helvetica" font-size="11px" font-style="normal" font-weight="normal" text-decoration="normal" x="199.6180419921875" y="91.945068359375" text-anchor="start" dominant-baseline="alphabetic" transform="matrix(0.7071067811865476, -0.7071067811865475, 0.7071067811865475, 0.7071067811865476, 3.0119776587419835, 182.56445053211314)" fill-opacity="1">0.04</text><text fill="rgb(68,68,68)" stroke="none" font-family="helvetica" font-size="11px" font-style="normal" font-weight="normal" text-decoration="normal" x="259.0407409667969" y="91.945068359375" text-anchor="start" dominant-baseline="alphabetic" transform="matrix(0.7071067811865476, -0.7071067811865475, 0.7071067811865475, 0.7071067811865476, 20.4164832319982, 224.58264393346633)" fill-opacity="1">0.06</text><text fill="rgb(68,68,68)" stroke="none" font-family="helvetica" font-size="11px" font-style="normal" font-weight="normal" text-decoration="normal" x="318.46343994140625" y="91.945068359375" text-anchor="start" dominant-baseline="alphabetic" transform="matrix(0.7071067811865476, -0.7071067811865475, 0.7071067811865475, 0.7071067811865476, 37.82098880525439, 266.6008373348195)" fill-opacity="1">0.08</text><text fill="rgb(68,68,68)" stroke="none" font-family="helvetica" font-size="11px" font-style="normal" font-weight="normal" text-decoration="normal" x="384.0038146972656" y="91.945068359375" text-anchor="start" dominant-baseline="alphabetic" transform="matrix(0.7071067811865476, -0.7071067811865475, 0.7071067811865475, 0.7071067811865476, 55.22549437851052, 308.6190307361727)" fill-opacity="1">0.1</text><text fill="rgb(68,68,68)" stroke="none" font-family="helvetica" font-size="11px" font-style="normal" font-weight="normal" text-decoration="normal" x="437.308837890625" y="91.945068359375" text-anchor="start" dominant-baseline="alphabetic" transform="matrix(0.7071067811865476, -0.7071067811865475, 0.7071067811865475, 0.7071067811865476, 72.6299999517667, 350.6372241375259)" fill-opacity="1">0.12</text><text fill="rgb(68,68,68)" stroke="none" font-family="helvetica" font-size="13px" font-style="italic" font-weight="normal" text-decoration="normal" x="251.484130859375" y="128.71774531498966" text-anchor="start" dominant-baseline="alphabetic" transform="matrix(1, 0, 0, 1, 0.5, 0.5)" fill-opacity="1">Importance</text><path fill="none" stroke="rgb(0,0,0)" paint-order="fill" d="M 84.5 77.5 L 84.5 27.5" stroke-opacity="1" stroke-linejoin="bevel" stroke-miterlimit="10" stroke-dasharray=""/><path fill="none" stroke="rgb(0,0,0)" paint-order="fill" d="M 78.5 71.5 L 86.5 71.5 M 78.5 58.5 L 86.5 58.5 M 78.5 46.5 L 86.5 46.5 M 78.5 33.5 L 86.5 33.5" stroke-opacity="1" stroke-linejoin="bevel" stroke-miterlimit="10" stroke-dasharray=""/><path fill="none" stroke="rgb(0,0,0)" paint-order="fill" d="" stroke-opacity="1" stroke-linejoin="bevel" stroke-miterlimit="10" stroke-dasharray=""/><text fill="rgb(68,68,68)" stroke="none" font-family="helvetica" font-size="11px" font-style="normal" font-weight="normal" text-decoration="normal" x="3.27783203125" y="74.25" text-anchor="start" dominant-baseline="alphabetic" transform="matrix(1, 0, 0, 1, 0.5, 0.5)" fill-opacity="1">Lentisphaerae</text><text fill="rgb(68,68,68)" stroke="none" font-family="helvetica" font-size="11px" font-style="normal" font-weight="normal" text-decoration="normal" x="3.2939453125" y="61.75" text-anchor="start" dominant-baseline="alphabetic" transform="matrix(1, 0, 0, 1, 0.5, 0.5)" fill-opacity="1">Actinobacteria</text><text fill="rgb(68,68,68)" stroke="none" font-family="helvetica" font-size="11px" font-style="normal" font-weight="normal" text-decoration="normal" x="9.41162109375" y="49.25" text-anchor="start" dominant-baseline="alphabetic" transform="matrix(1, 0, 0, 1, 0.5, 0.5)" fill-opacity="1">Fusobacteria</text><text fill="rgb(68,68,68)" stroke="none" font-family="helvetica" font-size="11px" font-style="normal" font-weight="normal" text-decoration="normal" x="20.01416015625" y="36.75" text-anchor="start" dominant-baseline="alphabetic" transform="matrix(1, 0, 0, 1, 0.5, 0.5)" fill-opacity="1">NPL-UPA2</text><path fill="none" stroke="none"/><text fill="rgb(68,68,68)" stroke="none" font-family="helvetica" font-size="13px" font-style="normal" font-weight="bold" text-decoration="normal" x="0" y="0" text-anchor="start" dominant-baseline="text-after-edge" transform="matrix(1, 0, 0, 1, 84.5, 22.5)" fill-opacity="1">NO2 (µmol/L)</text></svg>