<svg version="1.1" xmlns="http://www.w3.org/2000/svg" xmlns:xlink="http://www.w3.org/1999/xlink" width="261" height="272"><defs><clipPath id="UybgEIdDwMlT"><path fill="none" stroke="none" d="M 56.5 27.5 L 256.5 27.5 L 256.5 227.5 L 56.5 227.5 L 56.5 27.5"/></clipPath><clipPath id="vetwrCEiuzfJ"><path fill="none" stroke="none" d="M 56.5 27.5 L 256.5 27.5 L 256.5 227.5 L 56.5 227.5 L 56.5 27.5"/></clipPath><clipPath id="pfBvTGOrnZfd"><path fill="none" stroke="none" d="M 56.5 27.5 L 256.5 27.5 L 256.5 227.5 L 56.5 227.5 L 56.5 27.5"/></clipPath><clipPath id="dEkBDElcaqWe"><path fill="none" stroke="none" d="M 56.5 27.5 L 256.5 27.5 L 256.5 227.5 L 56.5 227.5 L 56.5 27.5"/></clipPath><clipPath id="GVJvfbNnOdnD"><path fill="none" stroke="none" d="M 56.5 27.5 L 256.5 27.5 L 256.5 227.5 L 56.5 227.5 L 56.5 27.5"/></clipPath></defs><path fill="none" stroke="rgb(229,229,229)" paint-order="fill" d="M 56.5 27.5 L 256.5 27.5 L 256.5 227.5 L 56.5 227.5 L 56.5 27.5" stroke-opacity="1" stroke-linejoin="bevel" stroke-miterlimit="10" stroke-dasharray=""/><path fill="none" stroke="rgb(229,229,229)" paint-order="fill" d="M 92.5 227.5 L 92.5 27.5 M 141.5 227.5 L 141.5 27.5 M 189.5 227.5 L 189.5 27.5 M 238.5 227.5 L 238.5 27.5" stroke-opacity="1" stroke-linejoin="bevel" stroke-miterlimit="10" stroke-dasharray="" clip-path="url(#UybgEIdDwMlT)"/><path fill="none" stroke="rgb(229,229,229)" paint-order="fill" d="M 56.5 197.5 L 256.5 197.5 M 56.5 149.5 L 256.5 149.5 M 56.5 101.5 L 256.5 101.5 M 56.5 53.5 L 256.5 53.5" stroke-opacity="1" stroke-linejoin="bevel" stroke-miterlimit="10" stroke-dasharray="" clip-path="url(#vetwrCEiuzfJ)"/><path fill="none" stroke="none"/><path fill="rgb(31,119,180)" stroke="rgb(31,119,180)" paint-order="fill" d="M 120.212890625 146.2318115234375 A 2 2 0 1 1 120.21288962500009 146.22981152377082" fill-opacity="1" clip-path="url(#pfBvTGOrnZfd)" stroke-opacity="1" stroke-linejoin="bevel" stroke-miterlimit="10" stroke-dasharray=""/><path fill="rgb(31,119,180)" stroke="rgb(31,119,180)" paint-order="fill" d="M 105.74427795410156 209.2679901123047 A 2 2 0 1 1 105.74427695410165 209.265990112638" fill-opacity="1" clip-path="url(#pfBvTGOrnZfd)" stroke-opacity="1" stroke-linejoin="bevel" stroke-miterlimit="10" stroke-dasharray=""/><path fill="rgb(31,119,180)" stroke="rgb(31,119,180)" paint-order="fill" d="M 225.52980041503906 113.85958862304688 A 2 2 0 1 1 225.52979941503915 113.85758862338021" fill-opacity="1" clip-path="url(#pfBvTGOrnZfd)" stroke-opacity="1" stroke-linejoin="bevel" stroke-miterlimit="10" stroke-dasharray=""/><path fill="rgb(31,119,180)" stroke="rgb(31,119,180)" paint-order="fill" d="M 249.40908813476562 97.48960876464844 A 2 2 0 1 1 249.4090871347657 97.48760876498177" fill-opacity="1" clip-path="url(#pfBvTGOrnZfd)" stroke-opacity="1" stroke-linejoin="bevel" stroke-miterlimit="10" stroke-dasharray=""/><path fill="rgb(31,119,180)" stroke="rgb(31,119,180)" paint-order="fill" d="M 193.67453002929688 132.66571044921875 A 2 2 0 1 1 193.67452902929696 132.66371044955207" fill-opacity="1" clip-path="url(#pfBvTGOrnZfd)" stroke-opacity="1" stroke-linejoin="bevel" stroke-miterlimit="10" stroke-dasharray=""/><path fill="rgb(31,119,180)" stroke="rgb(31,119,180)" paint-order="fill" d="M 225.5541229248047 73.41259002685547 A 2 2 0 1 1 225.55412192480478 73.4105900271888" fill-opacity="1" clip-path="url(#pfBvTGOrnZfd)" stroke-opacity="1" stroke-linejoin="bevel" stroke-miterlimit="10" stroke-dasharray=""/><path fill="rgb(31,119,180)" stroke="rgb(31,119,180)" paint-order="fill" d="M 143.0465545654297 171.35350036621094 A 2 2 0 1 1 143.04655356542978 171.35150036654426" fill-opacity="1" clip-path="url(#pfBvTGOrnZfd)" stroke-opacity="1" stroke-linejoin="bevel" stroke-miterlimit="10" stroke-dasharray=""/><path fill="rgb(31,119,180)" stroke="rgb(31,119,180)" paint-order="fill" d="M 92.1024398803711 176.35362243652344 A 2 2 0 1 1 92.10243888037118 176.35162243685676" fill-opacity="1" clip-path="url(#pfBvTGOrnZfd)" stroke-opacity="1" stroke-linejoin="bevel" stroke-miterlimit="10" stroke-dasharray=""/><path fill="rgb(31,119,180)" stroke="rgb(31,119,180)" paint-order="fill" d="M 219.71803283691406 72.05178833007812 A 2 2 0 1 1 219.71803183691415 72.04978833041146" fill-opacity="1" clip-path="url(#pfBvTGOrnZfd)" stroke-opacity="1" stroke-linejoin="bevel" stroke-miterlimit="10" stroke-dasharray=""/><path fill="rgb(31,119,180)" stroke="rgb(31,119,180)" paint-order="fill" d="M 233.0680694580078 88.32251739501953 A 2 2 0 1 1 233.0680684580079 88.32051739535287" fill-opacity="1" clip-path="url(#pfBvTGOrnZfd)" stroke-opacity="1" stroke-linejoin="bevel" stroke-miterlimit="10" stroke-dasharray=""/><path fill="rgb(31,119,180)" stroke="rgb(31,119,180)" paint-order="fill" d="M 138.15882873535156 122.432861328125 A 2 2 0 1 1 138.15882773535165 122.43086132845833" fill-opacity="1" clip-path="url(#pfBvTGOrnZfd)" stroke-opacity="1" stroke-linejoin="bevel" stroke-miterlimit="10" stroke-dasharray=""/><path fill="rgb(31,119,180)" stroke="rgb(31,119,180)" paint-order="fill" d="M 121.64759063720703 161.7346954345703 A 2 2 0 1 1 121.64758963720712 161.73269543490363" fill-opacity="1" clip-path="url(#pfBvTGOrnZfd)" stroke-opacity="1" stroke-linejoin="bevel" stroke-miterlimit="10" stroke-dasharray=""/><path fill="rgb(31,119,180)" stroke="rgb(31,119,180)" paint-order="fill" d="M 189.32179260253906 141.27532958984375 A 2 2 0 1 1 189.32179160253915 141.27332959017707" fill-opacity="1" clip-path="url(#pfBvTGOrnZfd)" stroke-opacity="1" stroke-linejoin="bevel" stroke-miterlimit="10" stroke-dasharray=""/><path fill="rgb(31,119,180)" stroke="rgb(31,119,180)" paint-order="fill" d="M 121.4044189453125 164.6442413330078 A 2 2 0 1 1 121.40441794531259 164.64224133334113" fill-opacity="1" clip-path="url(#pfBvTGOrnZfd)" stroke-opacity="1" stroke-linejoin="bevel" stroke-miterlimit="10" stroke-dasharray=""/><path fill="rgb(31,119,180)" stroke="rgb(31,119,180)" paint-order="fill" d="M 231.9738006591797 36.59090805053711 A 2 2 0 1 1 231.97379965917978 36.588908050870444" fill-opacity="1" clip-path="url(#pfBvTGOrnZfd)" stroke-opacity="1" stroke-linejoin="bevel" stroke-miterlimit="10" stroke-dasharray=""/><path fill="rgb(31,119,180)" stroke="rgb(31,119,180)" paint-order="fill" d="M 67.59091186523438 190.6544952392578 A 2 2 0 1 1 67.59091086523446 190.65249523959113" fill-opacity="1" clip-path="url(#pfBvTGOrnZfd)" stroke-opacity="1" stroke-linejoin="bevel" stroke-miterlimit="10" stroke-dasharray=""/><path fill="rgb(31,119,180)" stroke="rgb(31,119,180)" paint-order="fill" d="M 230.00413513183594 58.91486358642578 A 2 2 0 1 1 230.00413413183603 58.912863586759116" fill-opacity="1" clip-path="url(#pfBvTGOrnZfd)" stroke-opacity="1" stroke-linejoin="bevel" stroke-miterlimit="10" stroke-dasharray=""/><path fill="rgb(31,119,180)" stroke="rgb(31,119,180)" paint-order="fill" d="M 101.80492401123047 179.98995971679688 A 2 2 0 1 1 101.80492301123056 179.9879597171302" fill-opacity="1" clip-path="url(#pfBvTGOrnZfd)" stroke-opacity="1" stroke-linejoin="bevel" stroke-miterlimit="10" stroke-dasharray=""/><path fill="rgb(31,119,180)" stroke="rgb(31,119,180)" paint-order="fill" d="M 148.10447692871094 138.11590576171875 A 2 2 0 1 1 148.10447592871103 138.11390576205207" fill-opacity="1" clip-path="url(#pfBvTGOrnZfd)" stroke-opacity="1" stroke-linejoin="bevel" stroke-miterlimit="10" stroke-dasharray=""/><path fill="rgb(31,119,180)" stroke="rgb(31,119,180)" paint-order="fill" d="M 80.23574829101562 218.40908813476562 A 2 2 0 1 1 80.23574729101571 218.40708813509895" fill-opacity="1" clip-path="url(#pfBvTGOrnZfd)" stroke-opacity="1" stroke-linejoin="bevel" stroke-miterlimit="10" stroke-dasharray=""/><path fill="rgb(31,119,180)" stroke="rgb(31,119,180)" paint-order="fill" d="M 219.64508056640625 151.01292419433594 A 2 2 0 1 1 219.64507956640634 151.01092419466926" fill-opacity="1" clip-path="url(#pfBvTGOrnZfd)" stroke-opacity="1" stroke-linejoin="bevel" stroke-miterlimit="10" stroke-dasharray=""/><path fill="none" stroke="rgb(0,0,0)" paint-order="fill" d="M 56.5 227.5 L 256.5 227.5" stroke-opacity="1" stroke-linejoin="bevel" stroke-miterlimit="10" stroke-dasharray=""/><path fill="none" stroke="rgb(0,0,0)" paint-order="fill" d="M 92.5 233.5 L 92.5 225.5 M 141.5 233.5 L 141.5 225.5 M 189.5 233.5 L 189.5 225.5 M 238.5 233.5 L 238.5 225.5" stroke-opacity="1" stroke-linejoin="bevel" stroke-miterlimit="10" stroke-dasharray=""/><path fill="none" stroke="rgb(0,0,0)" paint-order="fill" d="M 82.5 231.5 L 82.5 227.5 M 72.5 231.5 L 72.5 227.5 M 63.5 231.5 L 63.5 227.5 M 92.5 231.5 L 92.5 227.5 M 102.5 231.5 L 102.5 227.5 M 111.5 231.5 L 111.5 227.5 M 121.5 231.5 L 121.5 227.5 M 131.5 231.5 L 131.5 227.5 M 141.5 231.5 L 141.5 227.5 M 150.5 231.5 L 150.5 227.5 M 160.5 231.5 L 160.5 227.5 M 170.5 231.5 L 170.5 227.5 M 179.5 231.5 L 179.5 227.5 M 189.5 231.5 L 189.5 227.5 M 199.5 231.5 L 199.5 227.5 M 209.5 231.5 L 209.5 227.5 M 218.5 231.5 L 218.5 227.5 M 228.5 231.5 L 228.5 227.5 M 238.5 231.5 L 238.5 227.5 M 248.5 231.5 L 248.5 227.5" stroke-opacity="1" stroke-linejoin="bevel" stroke-miterlimit="10" stroke-dasharray=""/><text fill="rgb(68,68,68)" stroke="none" font-family="helvetica" font-size="11px" font-style="normal" font-weight="normal" text-decoration="normal" x="82.58296966552734" y="245.89013671875" text-anchor="start" dominant-baseline="alphabetic" transform="matrix(1, 0, 0, 1, 0.5, 0.5)" fill-opacity="1">−20</text><text fill="rgb(68,68,68)" stroke="none" font-family="helvetica" font-size="11px" font-style="normal" font-weight="normal" text-decoration="normal" x="137.4877166748047" y="245.89013671875" text-anchor="start" dominant-baseline="alphabetic" transform="matrix(1, 0, 0, 1, 0.5, 0.5)" fill-opacity="1">0</text><text fill="rgb(68,68,68)" stroke="none" font-family="helvetica" font-size="11px" font-style="normal" font-weight="normal" text-decoration="normal" x="183.0628662109375" y="245.89013671875" text-anchor="start" dominant-baseline="alphabetic" transform="matrix(1, 0, 0, 1, 0.5, 0.5)" fill-opacity="1">20</text><text fill="rgb(68,68,68)" stroke="none" font-family="helvetica" font-size="11px" font-style="normal" font-weight="normal" text-decoration="normal" x="231.6968536376953" y="245.89013671875" text-anchor="start" dominant-baseline="alphabetic" transform="matrix(1, 0, 0, 1, 0.5, 0.5)" fill-opacity="1">40</text><text fill="rgb(68,68,68)" stroke="none" font-family="helvetica" font-size="13px" font-style="italic" font-weight="normal" text-decoration="normal" x="127.819580078125" y="265.89013671875" text-anchor="start" dominant-baseline="alphabetic" transform="matrix(1, 0, 0, 1, 0.5, 0.5)" fill-opacity="1">Observed</text><path fill="none" stroke="rgb(0,0,0)" paint-order="fill" d="M 56.5 227.5 L 56.5 27.5" stroke-opacity="1" stroke-linejoin="bevel" stroke-miterlimit="10" stroke-dasharray=""/><path fill="none" stroke="rgb(0,0,0)" paint-order="fill" d="M 50.5 197.5 L 58.5 197.5 M 50.5 149.5 L 58.5 149.5 M 50.5 101.5 L 58.5 101.5 M 50.5 53.5 L 58.5 53.5" stroke-opacity="1" stroke-linejoin="bevel" stroke-miterlimit="10" stroke-dasharray=""/><path fill="none" stroke="rgb(0,0,0)" paint-order="fill" d="M 52.5 206.5 L 56.5 206.5 M 52.5 216.5 L 56.5 216.5 M 52.5 225.5 L 56.5 225.5 M 52.5 197.5 L 56.5 197.5 M 52.5 187.5 L 56.5 187.5 M 52.5 177.5 L 56.5 177.5 M 52.5 168.5 L 56.5 168.5 M 52.5 158.5 L 56.5 158.5 M 52.5 149.5 L 56.5 149.5 M 52.5 139.5 L 56.5 139.5 M 52.5 130.5 L 56.5 130.5 M 52.5 120.5 L 56.5 120.5 M 52.5 110.5 L 56.5 110.5 M 52.5 101.5 L 56.5 101.5 M 52.5 91.5 L 56.5 91.5 M 52.5 82.5 L 56.5 82.5 M 52.5 72.5 L 56.5 72.5 M 52.5 62.5 L 56.5 62.5 M 52.5 53.5 L 56.5 53.5 M 52.5 43.5 L 56.5 43.5 M 52.5 34.5 L 56.5 34.5" stroke-opacity="1" stroke-linejoin="bevel" stroke-miterlimit="10" stroke-dasharray=""/><text fill="rgb(68,68,68)" stroke="none" font-family="helvetica" font-size="11px" font-style="normal" font-weight="normal" text-decoration="normal" x="26.3408203125" y="200.5928955078125" text-anchor="start" dominant-baseline="alphabetic" transform="matrix(1, 0, 0, 1, 0.5, 0.5)" fill-opacity="1">−10</text><text fill="rgb(68,68,68)" stroke="none" font-family="helvetica" font-size="11px" font-style="normal" font-weight="normal" text-decoration="normal" x="38.88232421875" y="152.65037536621094" text-anchor="start" dominant-baseline="alphabetic" transform="matrix(1, 0, 0, 1, 0.5, 0.5)" fill-opacity="1">0</text><text fill="rgb(68,68,68)" stroke="none" font-family="helvetica" font-size="11px" font-style="normal" font-weight="normal" text-decoration="normal" x="32.7646484375" y="104.70785522460938" text-anchor="start" dominant-baseline="alphabetic" transform="matrix(1, 0, 0, 1, 0.5, 0.5)" fill-opacity="1">10</text><text fill="rgb(68,68,68)" stroke="none" font-family="helvetica" font-size="11px" font-style="normal" font-weight="normal" text-decoration="normal" x="32.7646484375" y="56.76532745361328" text-anchor="start" dominant-baseline="alphabetic" transform="matrix(1, 0, 0, 1, 0.5, 0.5)" fill-opacity="1">20</text><text fill="rgb(68,68,68)" stroke="none" font-family="helvetica" font-size="13px" font-style="italic" font-weight="normal" text-decoration="normal" x="-9.119140625" y="124" text-anchor="start" dominant-baseline="alphabetic" transform="matrix(6.123233995736766e-17, -1, 1, 6.123233995736766e-17, -108.1591796875, 145.8408203125)" fill-opacity="1">Predicted</text><path fill="none" stroke="rgb(255,140,0)" paint-order="fill" d="M 202.7768733206074 27.5 L 101.3345836322298 227.5" stroke-opacity="1" stroke-linejoin="bevel" stroke-miterlimit="10" stroke-width="2" stroke-dasharray="" clip-path="url(#dEkBDElcaqWe)"/><path fill="none" stroke="none"/><text fill="rgb(68,68,68)" stroke="none" font-family="helvetica" font-size="13px" font-style="normal" font-weight="bold" text-decoration="normal" x="0" y="0" text-anchor="start" dominant-baseline="text-after-edge" transform="matrix(1, 0, 0, 1, 56.5, 22.5)" fill-opacity="1">Latitude, &lt;R²&gt; = 0.19</text></svg>