<svg version="1.1" xmlns="http://www.w3.org/2000/svg" xmlns:xlink="http://www.w3.org/1999/xlink" width="260" height="272"><defs><clipPath id="XTCHySnwFkZK"><path fill="none" stroke="none" d="M 55.5 27.5 L 255.5 27.5 L 255.5 227.5 L 55.5 227.5 L 55.5 27.5"/></clipPath><clipPath id="XnwFcQzcVqvR"><path fill="none" stroke="none" d="M 55.5 27.5 L 255.5 27.5 L 255.5 227.5 L 55.5 227.5 L 55.5 27.5"/></clipPath><clipPath id="PvnAveIKzlhk"><path fill="none" stroke="none" d="M 55.5 27.5 L 255.5 27.5 L 255.5 227.5 L 55.5 227.5 L 55.5 27.5"/></clipPath><clipPath id="lEZzPEupuEIx"><path fill="none" stroke="none" d="M 55.5 27.5 L 255.5 27.5 L 255.5 227.5 L 55.5 227.5 L 55.5 27.5"/></clipPath><clipPath id="uCzkMckyXscP"><path fill="none" stroke="none" d="M 55.5 27.5 L 255.5 27.5 L 255.5 227.5 L 55.5 227.5 L 55.5 27.5"/></clipPath></defs><path fill="none" stroke="rgb(229,229,229)" paint-order="fill" d="M 55.5 27.5 L 255.5 27.5 L 255.5 227.5 L 55.5 227.5 L 55.5 27.5" stroke-opacity="1" stroke-linejoin="bevel" stroke-miterlimit="10" stroke-dasharray=""/><path fill="none" stroke="rgb(229,229,229)" paint-order="fill" d="M 63.5 227.5 L 63.5 27.5 M 106.5 227.5 L 106.5 27.5 M 150.5 227.5 L 150.5 27.5 M 193.5 227.5 L 193.5 27.5 M 237.5 227.5 L 237.5 27.5" stroke-opacity="1" stroke-linejoin="bevel" stroke-miterlimit="10" stroke-dasharray="" clip-path="url(#XTCHySnwFkZK)"/><path fill="none" stroke="rgb(229,229,229)" paint-order="fill" d="M 55.5 221.5 L 255.5 221.5 M 55.5 174.5 L 255.5 174.5 M 55.5 126.5 L 255.5 126.5 M 55.5 79.5 L 255.5 79.5 M 55.5 32.5 L 255.5 32.5" stroke-opacity="1" stroke-linejoin="bevel" stroke-miterlimit="10" stroke-dasharray="" clip-path="url(#XnwFcQzcVqvR)"/><path fill="none" stroke="none"/><path fill="rgb(31,119,180)" stroke="rgb(31,119,180)" paint-order="fill" d="M 66.59091186523438 216.7372589111328 A 2 2 0 1 1 66.59091086523446 216.73525891146613" fill-opacity="1" clip-path="url(#PvnAveIKzlhk)" stroke-opacity="1" stroke-linejoin="bevel" stroke-miterlimit="10" stroke-dasharray=""/><path fill="rgb(31,119,180)" stroke="rgb(31,119,180)" paint-order="fill" d="M 98.769775390625 211.57521057128906 A 2 2 0 1 1 98.76977439062509 211.57321057162238" fill-opacity="1" clip-path="url(#PvnAveIKzlhk)" stroke-opacity="1" stroke-linejoin="bevel" stroke-miterlimit="10" stroke-dasharray=""/><path fill="rgb(31,119,180)" stroke="rgb(31,119,180)" paint-order="fill" d="M 78.47601318359375 179.47084045410156 A 2 2 0 1 1 78.47601218359384 179.46884045443488" fill-opacity="1" clip-path="url(#PvnAveIKzlhk)" stroke-opacity="1" stroke-linejoin="bevel" stroke-miterlimit="10" stroke-dasharray=""/><path fill="rgb(31,119,180)" stroke="rgb(31,119,180)" paint-order="fill" d="M 66.61264038085938 217.04502868652344 A 2 2 0 1 1 66.61263938085946 217.04302868685676" fill-opacity="1" clip-path="url(#PvnAveIKzlhk)" stroke-opacity="1" stroke-linejoin="bevel" stroke-miterlimit="10" stroke-dasharray=""/><path fill="rgb(31,119,180)" stroke="rgb(31,119,180)" paint-order="fill" d="M 72.76160430908203 188.3076629638672 A 2 2 0 1 1 72.76160330908212 188.3056629642005" fill-opacity="1" clip-path="url(#PvnAveIKzlhk)" stroke-opacity="1" stroke-linejoin="bevel" stroke-miterlimit="10" stroke-dasharray=""/><path fill="rgb(31,119,180)" stroke="rgb(31,119,180)" paint-order="fill" d="M 66.61264038085938 210.09085083007812 A 2 2 0 1 1 66.61263938085946 210.08885083041145" fill-opacity="1" clip-path="url(#PvnAveIKzlhk)" stroke-opacity="1" stroke-linejoin="bevel" stroke-miterlimit="10" stroke-dasharray=""/><path fill="rgb(31,119,180)" stroke="rgb(31,119,180)" paint-order="fill" d="M 79.23648834228516 215.18345642089844 A 2 2 0 1 1 79.23648734228524 215.18145642123176" fill-opacity="1" clip-path="url(#PvnAveIKzlhk)" stroke-opacity="1" stroke-linejoin="bevel" stroke-miterlimit="10" stroke-dasharray=""/><path fill="rgb(31,119,180)" stroke="rgb(31,119,180)" paint-order="fill" d="M 147.20101928710938 97.7455825805664 A 2 2 0 1 1 147.20101828710946 97.74358258089974" fill-opacity="1" clip-path="url(#PvnAveIKzlhk)" stroke-opacity="1" stroke-linejoin="bevel" stroke-miterlimit="10" stroke-dasharray=""/><path fill="rgb(31,119,180)" stroke="rgb(31,119,180)" paint-order="fill" d="M 237.67556762695312 52.04128646850586 A 2 2 0 1 1 237.6755666269532 52.039286468839194" fill-opacity="1" clip-path="url(#PvnAveIKzlhk)" stroke-opacity="1" stroke-linejoin="bevel" stroke-miterlimit="10" stroke-dasharray=""/><path fill="rgb(31,119,180)" stroke="rgb(31,119,180)" paint-order="fill" d="M 78.06318664550781 210.85702514648438 A 2 2 0 1 1 78.0631856455079 210.8550251468177" fill-opacity="1" clip-path="url(#PvnAveIKzlhk)" stroke-opacity="1" stroke-linejoin="bevel" stroke-miterlimit="10" stroke-dasharray=""/><path fill="rgb(31,119,180)" stroke="rgb(31,119,180)" paint-order="fill" d="M 203.0197296142578 67.61707305908203 A 2 2 0 1 1 203.0197286142579 67.61507305941537" fill-opacity="1" clip-path="url(#PvnAveIKzlhk)" stroke-opacity="1" stroke-linejoin="bevel" stroke-miterlimit="10" stroke-dasharray=""/><path fill="rgb(31,119,180)" stroke="rgb(31,119,180)" paint-order="fill" d="M 215.18728637695312 38.7830696105957 A 2 2 0 1 1 215.1872853769532 38.78106961092904" fill-opacity="1" clip-path="url(#PvnAveIKzlhk)" stroke-opacity="1" stroke-linejoin="bevel" stroke-miterlimit="10" stroke-dasharray=""/><path fill="rgb(31,119,180)" stroke="rgb(31,119,180)" paint-order="fill" d="M 66.59091186523438 215.04815673828125 A 2 2 0 1 1 66.59091086523446 215.04615673861457" fill-opacity="1" clip-path="url(#PvnAveIKzlhk)" stroke-opacity="1" stroke-linejoin="bevel" stroke-miterlimit="10" stroke-dasharray=""/><path fill="rgb(31,119,180)" stroke="rgb(31,119,180)" paint-order="fill" d="M 67.56865692138672 218.40908813476562 A 2 2 0 1 1 67.5686559213868 218.40708813509895" fill-opacity="1" clip-path="url(#PvnAveIKzlhk)" stroke-opacity="1" stroke-linejoin="bevel" stroke-miterlimit="10" stroke-dasharray=""/><path fill="rgb(31,119,180)" stroke="rgb(31,119,180)" paint-order="fill" d="M 66.61264038085938 216.3231658935547 A 2 2 0 1 1 66.61263938085946 216.321165893888" fill-opacity="1" clip-path="url(#PvnAveIKzlhk)" stroke-opacity="1" stroke-linejoin="bevel" stroke-miterlimit="10" stroke-dasharray=""/><path fill="rgb(31,119,180)" stroke="rgb(31,119,180)" paint-order="fill" d="M 70.61054992675781 214.63316345214844 A 2 2 0 1 1 70.6105489267579 214.63116345248176" fill-opacity="1" clip-path="url(#PvnAveIKzlhk)" stroke-opacity="1" stroke-linejoin="bevel" stroke-miterlimit="10" stroke-dasharray=""/><path fill="rgb(31,119,180)" stroke="rgb(31,119,180)" paint-order="fill" d="M 78.04145812988281 208.62420654296875 A 2 2 0 1 1 78.0414571298829 208.62220654330207" fill-opacity="1" clip-path="url(#PvnAveIKzlhk)" stroke-opacity="1" stroke-linejoin="bevel" stroke-miterlimit="10" stroke-dasharray=""/><path fill="rgb(31,119,180)" stroke="rgb(31,119,180)" paint-order="fill" d="M 248.40908813476562 36.59090805053711 A 2 2 0 1 1 248.4090871347657 36.588908050870444" fill-opacity="1" clip-path="url(#PvnAveIKzlhk)" stroke-opacity="1" stroke-linejoin="bevel" stroke-miterlimit="10" stroke-dasharray=""/><path fill="rgb(31,119,180)" stroke="rgb(31,119,180)" paint-order="fill" d="M 66.67781829833984 216.97036743164062 A 2 2 0 1 1 66.67781729833993 216.96836743197395" fill-opacity="1" clip-path="url(#PvnAveIKzlhk)" stroke-opacity="1" stroke-linejoin="bevel" stroke-miterlimit="10" stroke-dasharray=""/><path fill="rgb(31,119,180)" stroke="rgb(31,119,180)" paint-order="fill" d="M 75.02129364013672 148.6171417236328 A 2 2 0 1 1 75.0212926401368 148.61514172396613" fill-opacity="1" clip-path="url(#PvnAveIKzlhk)" stroke-opacity="1" stroke-linejoin="bevel" stroke-miterlimit="10" stroke-dasharray=""/><path fill="rgb(31,119,180)" stroke="rgb(31,119,180)" paint-order="fill" d="M 66.61264038085938 175.83087158203125 A 2 2 0 1 1 66.61263938085946 175.82887158236457" fill-opacity="1" clip-path="url(#PvnAveIKzlhk)" stroke-opacity="1" stroke-linejoin="bevel" stroke-miterlimit="10" stroke-dasharray=""/><path fill="none" stroke="rgb(0,0,0)" paint-order="fill" d="M 55.5 227.5 L 255.5 227.5" stroke-opacity="1" stroke-linejoin="bevel" stroke-miterlimit="10" stroke-dasharray=""/><path fill="none" stroke="rgb(0,0,0)" paint-order="fill" d="M 63.5 233.5 L 63.5 225.5 M 106.5 233.5 L 106.5 225.5 M 150.5 233.5 L 150.5 225.5 M 193.5 233.5 L 193.5 225.5 M 237.5 233.5 L 237.5 225.5" stroke-opacity="1" stroke-linejoin="bevel" stroke-miterlimit="10" stroke-dasharray=""/><path fill="none" stroke="rgb(0,0,0)" paint-order="fill" d="M 63.5 231.5 L 63.5 227.5 M 72.5 231.5 L 72.5 227.5 M 80.5 231.5 L 80.5 227.5 M 89.5 231.5 L 89.5 227.5 M 98.5 231.5 L 98.5 227.5 M 106.5 231.5 L 106.5 227.5 M 115.5 231.5 L 115.5 227.5 M 124.5 231.5 L 124.5 227.5 M 132.5 231.5 L 132.5 227.5 M 141.5 231.5 L 141.5 227.5 M 150.5 231.5 L 150.5 227.5 M 159.5 231.5 L 159.5 227.5 M 167.5 231.5 L 167.5 227.5 M 176.5 231.5 L 176.5 227.5 M 185.5 231.5 L 185.5 227.5 M 193.5 231.5 L 193.5 227.5 M 202.5 231.5 L 202.5 227.5 M 211.5 231.5 L 211.5 227.5 M 219.5 231.5 L 219.5 227.5 M 228.5 231.5 L 228.5 227.5 M 237.5 231.5 L 237.5 227.5 M 245.5 231.5 L 245.5 227.5 M 254.5 231.5 L 254.5 227.5" stroke-opacity="1" stroke-linejoin="bevel" stroke-miterlimit="10" stroke-dasharray=""/><text fill="rgb(68,68,68)" stroke="none" font-family="helvetica" font-size="11px" font-style="normal" font-weight="normal" text-decoration="normal" x="59.858768463134766" y="245.89013671875" text-anchor="start" dominant-baseline="alphabetic" transform="matrix(1, 0, 0, 1, 0.5, 0.5)" fill-opacity="1">0</text><text fill="rgb(68,68,68)" stroke="none" font-family="helvetica" font-size="11px" font-style="normal" font-weight="normal" text-decoration="normal" x="97.19668579101562" y="245.89013671875" text-anchor="start" dominant-baseline="alphabetic" transform="matrix(1, 0, 0, 1, 0.5, 0.5)" fill-opacity="1">200</text><text fill="rgb(68,68,68)" stroke="none" font-family="helvetica" font-size="11px" font-style="normal" font-weight="normal" text-decoration="normal" x="140.6522674560547" y="245.89013671875" text-anchor="start" dominant-baseline="alphabetic" transform="matrix(1, 0, 0, 1, 0.5, 0.5)" fill-opacity="1">400</text><text fill="rgb(68,68,68)" stroke="none" font-family="helvetica" font-size="11px" font-style="normal" font-weight="normal" text-decoration="normal" x="184.1078643798828" y="245.89013671875" text-anchor="start" dominant-baseline="alphabetic" transform="matrix(1, 0, 0, 1, 0.5, 0.5)" fill-opacity="1">600</text><text fill="rgb(68,68,68)" stroke="none" font-family="helvetica" font-size="11px" font-style="normal" font-weight="normal" text-decoration="normal" x="227.56344604492188" y="245.89013671875" text-anchor="start" dominant-baseline="alphabetic" transform="matrix(1, 0, 0, 1, 0.5, 0.5)" fill-opacity="1">800</text><text fill="rgb(68,68,68)" stroke="none" font-family="helvetica" font-size="13px" font-style="italic" font-weight="normal" text-decoration="normal" x="126.819580078125" y="265.89013671875" text-anchor="start" dominant-baseline="alphabetic" transform="matrix(1, 0, 0, 1, 0.5, 0.5)" fill-opacity="1">Observed</text><path fill="none" stroke="rgb(0,0,0)" paint-order="fill" d="M 55.5 227.5 L 55.5 27.5" stroke-opacity="1" stroke-linejoin="bevel" stroke-miterlimit="10" stroke-dasharray=""/><path fill="none" stroke="rgb(0,0,0)" paint-order="fill" d="M 49.5 221.5 L 57.5 221.5 M 49.5 174.5 L 57.5 174.5 M 49.5 126.5 L 57.5 126.5 M 49.5 79.5 L 57.5 79.5 M 49.5 32.5 L 57.5 32.5" stroke-opacity="1" stroke-linejoin="bevel" stroke-miterlimit="10" stroke-dasharray=""/><path fill="none" stroke="rgb(0,0,0)" paint-order="fill" d="M 51.5 221.5 L 55.5 221.5 M 51.5 212.5 L 55.5 212.5 M 51.5 202.5 L 55.5 202.5 M 51.5 193.5 L 55.5 193.5 M 51.5 183.5 L 55.5 183.5 M 51.5 174.5 L 55.5 174.5 M 51.5 164.5 L 55.5 164.5 M 51.5 155.5 L 55.5 155.5 M 51.5 145.5 L 55.5 145.5 M 51.5 136.5 L 55.5 136.5 M 51.5 126.5 L 55.5 126.5 M 51.5 117.5 L 55.5 117.5 M 51.5 108.5 L 55.5 108.5 M 51.5 98.5 L 55.5 98.5 M 51.5 89.5 L 55.5 89.5 M 51.5 79.5 L 55.5 79.5 M 51.5 70.5 L 55.5 70.5 M 51.5 60.5 L 55.5 60.5 M 51.5 51.5 L 55.5 51.5 M 51.5 41.5 L 55.5 41.5 M 51.5 32.5 L 55.5 32.5" stroke-opacity="1" stroke-linejoin="bevel" stroke-miterlimit="10" stroke-dasharray=""/><text fill="rgb(68,68,68)" stroke="none" font-family="helvetica" font-size="11px" font-style="normal" font-weight="normal" text-decoration="normal" x="37.88232421875" y="225.09840393066406" text-anchor="start" dominant-baseline="alphabetic" transform="matrix(1, 0, 0, 1, 0.5, 0.5)" fill-opacity="1">0</text><text fill="rgb(68,68,68)" stroke="none" font-family="helvetica" font-size="11px" font-style="normal" font-weight="normal" text-decoration="normal" x="25.64697265625" y="177.756591796875" text-anchor="start" dominant-baseline="alphabetic" transform="matrix(1, 0, 0, 1, 0.5, 0.5)" fill-opacity="1">200</text><text fill="rgb(68,68,68)" stroke="none" font-family="helvetica" font-size="11px" font-style="normal" font-weight="normal" text-decoration="normal" x="25.64697265625" y="130.414794921875" text-anchor="start" dominant-baseline="alphabetic" transform="matrix(1, 0, 0, 1, 0.5, 0.5)" fill-opacity="1">400</text><text fill="rgb(68,68,68)" stroke="none" font-family="helvetica" font-size="11px" font-style="normal" font-weight="normal" text-decoration="normal" x="25.64697265625" y="83.07299041748047" text-anchor="start" dominant-baseline="alphabetic" transform="matrix(1, 0, 0, 1, 0.5, 0.5)" fill-opacity="1">600</text><text fill="rgb(68,68,68)" stroke="none" font-family="helvetica" font-size="11px" font-style="normal" font-weight="normal" text-decoration="normal" x="25.64697265625" y="35.73118782043457" text-anchor="start" dominant-baseline="alphabetic" transform="matrix(1, 0, 0, 1, 0.5, 0.5)" fill-opacity="1">800</text><text fill="rgb(68,68,68)" stroke="none" font-family="helvetica" font-size="13px" font-style="italic" font-weight="normal" text-decoration="normal" x="-9.81298828125" y="124" text-anchor="start" dominant-baseline="alphabetic" transform="matrix(6.123233995736766e-17, -1, 1, 6.123233995736766e-17, -108.85302734375, 145.14697265625)" fill-opacity="1">Predicted</text><path fill="none" stroke="rgb(255,140,0)" paint-order="fill" d="M 241.63319572396935 27.5 L 58.050882148444316 227.5" stroke-opacity="1" stroke-linejoin="bevel" stroke-miterlimit="10" stroke-width="2" stroke-dasharray="" clip-path="url(#lEZzPEupuEIx)"/><path fill="none" stroke="none"/><text fill="rgb(68,68,68)" stroke="none" font-family="helvetica" font-size="13px" font-style="normal" font-weight="bold" text-decoration="normal" x="0" y="0" text-anchor="start" dominant-baseline="text-after-edge" transform="matrix(1, 0, 0, 1, 55.5, 22.5)" fill-opacity="1">Depth (m), &lt;R²&gt; = 0.71</text></svg>