<svg version="1.1" xmlns="http://www.w3.org/2000/svg" xmlns:xlink="http://www.w3.org/1999/xlink" width="257" height="272"><defs><clipPath id="BNXUwSgWvQbw"><path fill="none" stroke="none" d="M 52.5 27.5 L 252.5 27.5 L 252.5 227.5 L 52.5 227.5 L 52.5 27.5"/></clipPath><clipPath id="czgWXoRJMczx"><path fill="none" stroke="none" d="M 52.5 27.5 L 252.5 27.5 L 252.5 227.5 L 52.5 227.5 L 52.5 27.5"/></clipPath><clipPath id="hsIdMydwlyrK"><path fill="none" stroke="none" d="M 52.5 27.5 L 252.5 27.5 L 252.5 227.5 L 52.5 227.5 L 52.5 27.5"/></clipPath><clipPath id="RAwhIIIAhCXd"><path fill="none" stroke="none" d="M 52.5 27.5 L 252.5 27.5 L 252.5 227.5 L 52.5 227.5 L 52.5 27.5"/></clipPath><clipPath id="rKCfNwbxqClB"><path fill="none" stroke="none" d="M 52.5 27.5 L 252.5 27.5 L 252.5 227.5 L 52.5 227.5 L 52.5 27.5"/></clipPath></defs><path fill="none" stroke="rgb(229,229,229)" paint-order="fill" d="M 52.5 27.5 L 252.5 27.5 L 252.5 227.5 L 52.5 227.5 L 52.5 27.5" stroke-opacity="1" stroke-linejoin="bevel" stroke-miterlimit="10" stroke-dasharray=""/><path fill="none" stroke="rgb(229,229,229)" paint-order="fill" d="M 61.5 227.5 L 61.5 27.5 M 90.5 227.5 L 90.5 27.5 M 119.5 227.5 L 119.5 27.5 M 147.5 227.5 L 147.5 27.5 M 176.5 227.5 L 176.5 27.5 M 205.5 227.5 L 205.5 27.5 M 234.5 227.5 L 234.5 27.5" stroke-opacity="1" stroke-linejoin="bevel" stroke-miterlimit="10" stroke-dasharray="" clip-path="url(#BNXUwSgWvQbw)"/><path fill="none" stroke="rgb(229,229,229)" paint-order="fill" d="M 52.5 224.5 L 252.5 224.5 M 52.5 180.5 L 252.5 180.5 M 52.5 136.5 L 252.5 136.5 M 52.5 93.5 L 252.5 93.5 M 52.5 49.5 L 252.5 49.5" stroke-opacity="1" stroke-linejoin="bevel" stroke-miterlimit="10" stroke-dasharray="" clip-path="url(#czgWXoRJMczx)"/><path fill="none" stroke="none"/><path fill="rgb(31,119,180)" stroke="rgb(31,119,180)" paint-order="fill" d="M 64.1662826538086 211.07456970214844 A 2 2 0 1 1 64.16628165380868 211.07256970248176" fill-opacity="1" clip-path="url(#hsIdMydwlyrK)" stroke-opacity="1" stroke-linejoin="bevel" stroke-miterlimit="10" stroke-dasharray=""/><path fill="rgb(31,119,180)" stroke="rgb(31,119,180)" paint-order="fill" d="M 64.74165725708008 194.3354949951172 A 2 2 0 1 1 64.74165625708017 194.3334949954505" fill-opacity="1" clip-path="url(#hsIdMydwlyrK)" stroke-opacity="1" stroke-linejoin="bevel" stroke-miterlimit="10" stroke-dasharray=""/><path fill="rgb(31,119,180)" stroke="rgb(31,119,180)" paint-order="fill" d="M 215.48963928222656 37.237144470214844 A 2 2 0 1 1 215.48963828222665 37.23514447054818" fill-opacity="1" clip-path="url(#hsIdMydwlyrK)" stroke-opacity="1" stroke-linejoin="bevel" stroke-miterlimit="10" stroke-dasharray=""/><path fill="rgb(31,119,180)" stroke="rgb(31,119,180)" paint-order="fill" d="M 76.82450866699219 193.44583129882812 A 2 2 0 1 1 76.82450766699228 193.44383129916145" fill-opacity="1" clip-path="url(#hsIdMydwlyrK)" stroke-opacity="1" stroke-linejoin="bevel" stroke-miterlimit="10" stroke-dasharray=""/><path fill="rgb(31,119,180)" stroke="rgb(31,119,180)" paint-order="fill" d="M 224.6956329345703 43.71526336669922 A 2 2 0 1 1 224.6956319345704 43.71326336703255" fill-opacity="1" clip-path="url(#hsIdMydwlyrK)" stroke-opacity="1" stroke-linejoin="bevel" stroke-miterlimit="10" stroke-dasharray=""/><path fill="rgb(31,119,180)" stroke="rgb(31,119,180)" paint-order="fill" d="M 220.6680145263672 52.35275650024414 A 2 2 0 1 1 220.66801352636728 52.350756500577475" fill-opacity="1" clip-path="url(#hsIdMydwlyrK)" stroke-opacity="1" stroke-linejoin="bevel" stroke-miterlimit="10" stroke-dasharray=""/><path fill="rgb(31,119,180)" stroke="rgb(31,119,180)" paint-order="fill" d="M 67.04315185546875 180.68048095703125 A 2 2 0 1 1 67.04315085546884 180.67848095736457" fill-opacity="1" clip-path="url(#hsIdMydwlyrK)" stroke-opacity="1" stroke-linejoin="bevel" stroke-miterlimit="10" stroke-dasharray=""/><path fill="rgb(31,119,180)" stroke="rgb(31,119,180)" paint-order="fill" d="M 65.31703186035156 200.5404052734375 A 2 2 0 1 1 65.31703086035165 200.53840527377082" fill-opacity="1" clip-path="url(#hsIdMydwlyrK)" stroke-opacity="1" stroke-linejoin="bevel" stroke-miterlimit="10" stroke-dasharray=""/><path fill="rgb(31,119,180)" stroke="rgb(31,119,180)" paint-order="fill" d="M 64.1662826538086 191.8065948486328 A 2 2 0 1 1 64.16628165380868 191.80459484896613" fill-opacity="1" clip-path="url(#hsIdMydwlyrK)" stroke-opacity="1" stroke-linejoin="bevel" stroke-miterlimit="10" stroke-dasharray=""/><path fill="rgb(31,119,180)" stroke="rgb(31,119,180)" paint-order="fill" d="M 148.17088317871094 86.83267974853516 A 2 2 0 1 1 148.17088217871103 86.83067974886849" fill-opacity="1" clip-path="url(#hsIdMydwlyrK)" stroke-opacity="1" stroke-linejoin="bevel" stroke-miterlimit="10" stroke-dasharray=""/><path fill="rgb(31,119,180)" stroke="rgb(31,119,180)" paint-order="fill" d="M 106.74395751953125 175.8783721923828 A 2 2 0 1 1 106.74395651953134 175.87637219271613" fill-opacity="1" clip-path="url(#hsIdMydwlyrK)" stroke-opacity="1" stroke-linejoin="bevel" stroke-miterlimit="10" stroke-dasharray=""/><path fill="rgb(31,119,180)" stroke="rgb(31,119,180)" paint-order="fill" d="M 245.40908813476562 36.59090805053711 A 2 2 0 1 1 245.4090871347657 36.588908050870444" fill-opacity="1" clip-path="url(#hsIdMydwlyrK)" stroke-opacity="1" stroke-linejoin="bevel" stroke-miterlimit="10" stroke-dasharray=""/><path fill="rgb(31,119,180)" stroke="rgb(31,119,180)" paint-order="fill" d="M 63.59090805053711 218.40908813476562 A 2 2 0 1 1 63.59090705053719 218.40708813509895" fill-opacity="1" clip-path="url(#hsIdMydwlyrK)" stroke-opacity="1" stroke-linejoin="bevel" stroke-miterlimit="10" stroke-dasharray=""/><path fill="rgb(31,119,180)" stroke="rgb(31,119,180)" paint-order="fill" d="M 99.83946990966797 202.5789337158203 A 2 2 0 1 1 99.83946890966806 202.57693371615363" fill-opacity="1" clip-path="url(#hsIdMydwlyrK)" stroke-opacity="1" stroke-linejoin="bevel" stroke-miterlimit="10" stroke-dasharray=""/><path fill="rgb(31,119,180)" stroke="rgb(31,119,180)" paint-order="fill" d="M 92.35961151123047 181.97994995117188 A 2 2 0 1 1 92.35961051123056 181.9779499515052" fill-opacity="1" clip-path="url(#hsIdMydwlyrK)" stroke-opacity="1" stroke-linejoin="bevel" stroke-miterlimit="10" stroke-dasharray=""/><path fill="rgb(31,119,180)" stroke="rgb(31,119,180)" paint-order="fill" d="M 67.6185302734375 180.8783721923828 A 2 2 0 1 1 67.61852927343759 180.87637219271613" fill-opacity="1" clip-path="url(#hsIdMydwlyrK)" stroke-opacity="1" stroke-linejoin="bevel" stroke-miterlimit="10" stroke-dasharray=""/><path fill="rgb(31,119,180)" stroke="rgb(31,119,180)" paint-order="fill" d="M 68.19390106201172 208.7488250732422 A 2 2 0 1 1 68.1939000620118 208.7468250735755" fill-opacity="1" clip-path="url(#hsIdMydwlyrK)" stroke-opacity="1" stroke-linejoin="bevel" stroke-miterlimit="10" stroke-dasharray=""/><path fill="rgb(31,119,180)" stroke="rgb(31,119,180)" paint-order="fill" d="M 138.3895263671875 108.17947387695312 A 2 2 0 1 1 138.3895253671876 108.17747387728646" fill-opacity="1" clip-path="url(#hsIdMydwlyrK)" stroke-opacity="1" stroke-linejoin="bevel" stroke-miterlimit="10" stroke-dasharray=""/><path fill="rgb(31,119,180)" stroke="rgb(31,119,180)" paint-order="fill" d="M 63.59090805053711 216.32852172851562 A 2 2 0 1 1 63.59090705053719 216.32652172884895" fill-opacity="1" clip-path="url(#hsIdMydwlyrK)" stroke-opacity="1" stroke-linejoin="bevel" stroke-miterlimit="10" stroke-dasharray=""/><path fill="rgb(31,119,180)" stroke="rgb(31,119,180)" paint-order="fill" d="M 87.7566146850586 209.46511840820312 A 2 2 0 1 1 87.75661368505868 209.46311840853645" fill-opacity="1" clip-path="url(#hsIdMydwlyrK)" stroke-opacity="1" stroke-linejoin="bevel" stroke-miterlimit="10" stroke-dasharray=""/><path fill="none" stroke="rgb(0,0,0)" paint-order="fill" d="M 52.5 227.5 L 252.5 227.5" stroke-opacity="1" stroke-linejoin="bevel" stroke-miterlimit="10" stroke-dasharray=""/><path fill="none" stroke="rgb(0,0,0)" paint-order="fill" d="M 61.5 233.5 L 61.5 225.5 M 90.5 233.5 L 90.5 225.5 M 119.5 233.5 L 119.5 225.5 M 147.5 233.5 L 147.5 225.5 M 176.5 233.5 L 176.5 225.5 M 205.5 233.5 L 205.5 225.5 M 234.5 233.5 L 234.5 225.5" stroke-opacity="1" stroke-linejoin="bevel" stroke-miterlimit="10" stroke-dasharray=""/><path fill="none" stroke="rgb(0,0,0)" paint-order="fill" d="M 55.5 231.5 L 55.5 227.5 M 61.5 231.5 L 61.5 227.5 M 67.5 231.5 L 67.5 227.5 M 73.5 231.5 L 73.5 227.5 M 78.5 231.5 L 78.5 227.5 M 84.5 231.5 L 84.5 227.5 M 90.5 231.5 L 90.5 227.5 M 96.5 231.5 L 96.5 227.5 M 101.5 231.5 L 101.5 227.5 M 107.5 231.5 L 107.5 227.5 M 113.5 231.5 L 113.5 227.5 M 119.5 231.5 L 119.5 227.5 M 124.5 231.5 L 124.5 227.5 M 130.5 231.5 L 130.5 227.5 M 136.5 231.5 L 136.5 227.5 M 142.5 231.5 L 142.5 227.5 M 147.5 231.5 L 147.5 227.5 M 153.5 231.5 L 153.5 227.5 M 159.5 231.5 L 159.5 227.5 M 165.5 231.5 L 165.5 227.5 M 170.5 231.5 L 170.5 227.5 M 176.5 231.5 L 176.5 227.5 M 182.5 231.5 L 182.5 227.5 M 188.5 231.5 L 188.5 227.5 M 193.5 231.5 L 193.5 227.5 M 199.5 231.5 L 199.5 227.5 M 205.5 231.5 L 205.5 227.5 M 211.5 231.5 L 211.5 227.5 M 216.5 231.5 L 216.5 227.5 M 222.5 231.5 L 222.5 227.5 M 228.5 231.5 L 228.5 227.5 M 234.5 231.5 L 234.5 227.5 M 239.5 231.5 L 239.5 227.5 M 245.5 231.5 L 245.5 227.5 M 251.5 231.5 L 251.5 227.5" stroke-opacity="1" stroke-linejoin="bevel" stroke-miterlimit="10" stroke-dasharray=""/><text fill="rgb(68,68,68)" stroke="none" font-family="helvetica" font-size="11px" font-style="normal" font-weight="normal" text-decoration="normal" x="58.03207015991211" y="245.89013671875" text-anchor="start" dominant-baseline="alphabetic" transform="matrix(1, 0, 0, 1, 0.5, 0.5)" fill-opacity="1">0</text><text fill="rgb(68,68,68)" stroke="none" font-family="helvetica" font-size="11px" font-style="normal" font-weight="normal" text-decoration="normal" x="82.21385955810547" y="245.89013671875" text-anchor="start" dominant-baseline="alphabetic" transform="matrix(1, 0, 0, 1, 0.5, 0.5)" fill-opacity="1">0.5</text><text fill="rgb(68,68,68)" stroke="none" font-family="helvetica" font-size="11px" font-style="normal" font-weight="normal" text-decoration="normal" x="115.56947326660156" y="245.89013671875" text-anchor="start" dominant-baseline="alphabetic" transform="matrix(1, 0, 0, 1, 0.5, 0.5)" fill-opacity="1">1</text><text fill="rgb(68,68,68)" stroke="none" font-family="helvetica" font-size="11px" font-style="normal" font-weight="normal" text-decoration="normal" x="139.75125122070312" y="245.89013671875" text-anchor="start" dominant-baseline="alphabetic" transform="matrix(1, 0, 0, 1, 0.5, 0.5)" fill-opacity="1">1.5</text><text fill="rgb(68,68,68)" stroke="none" font-family="helvetica" font-size="11px" font-style="normal" font-weight="normal" text-decoration="normal" x="173.10687255859375" y="245.89013671875" text-anchor="start" dominant-baseline="alphabetic" transform="matrix(1, 0, 0, 1, 0.5, 0.5)" fill-opacity="1">2</text><text fill="rgb(68,68,68)" stroke="none" font-family="helvetica" font-size="11px" font-style="normal" font-weight="normal" text-decoration="normal" x="197.2886505126953" y="245.89013671875" text-anchor="start" dominant-baseline="alphabetic" transform="matrix(1, 0, 0, 1, 0.5, 0.5)" fill-opacity="1">2.5</text><text fill="rgb(68,68,68)" stroke="none" font-family="helvetica" font-size="11px" font-style="normal" font-weight="normal" text-decoration="normal" x="230.64427185058594" y="245.89013671875" text-anchor="start" dominant-baseline="alphabetic" transform="matrix(1, 0, 0, 1, 0.5, 0.5)" fill-opacity="1">3</text><text fill="rgb(68,68,68)" stroke="none" font-family="helvetica" font-size="13px" font-style="italic" font-weight="normal" text-decoration="normal" x="123.819580078125" y="265.89013671875" text-anchor="start" dominant-baseline="alphabetic" transform="matrix(1, 0, 0, 1, 0.5, 0.5)" fill-opacity="1">Observed</text><path fill="none" stroke="rgb(0,0,0)" paint-order="fill" d="M 52.5 227.5 L 52.5 27.5" stroke-opacity="1" stroke-linejoin="bevel" stroke-miterlimit="10" stroke-dasharray=""/><path fill="none" stroke="rgb(0,0,0)" paint-order="fill" d="M 46.5 224.5 L 54.5 224.5 M 46.5 180.5 L 54.5 180.5 M 46.5 136.5 L 54.5 136.5 M 46.5 93.5 L 54.5 93.5 M 46.5 49.5 L 54.5 49.5" stroke-opacity="1" stroke-linejoin="bevel" stroke-miterlimit="10" stroke-dasharray=""/><path fill="none" stroke="rgb(0,0,0)" paint-order="fill" d="M 48.5 224.5 L 52.5 224.5 M 48.5 215.5 L 52.5 215.5 M 48.5 206.5 L 52.5 206.5 M 48.5 198.5 L 52.5 198.5 M 48.5 189.5 L 52.5 189.5 M 48.5 180.5 L 52.5 180.5 M 48.5 171.5 L 52.5 171.5 M 48.5 163.5 L 52.5 163.5 M 48.5 154.5 L 52.5 154.5 M 48.5 145.5 L 52.5 145.5 M 48.5 136.5 L 52.5 136.5 M 48.5 128.5 L 52.5 128.5 M 48.5 119.5 L 52.5 119.5 M 48.5 110.5 L 52.5 110.5 M 48.5 101.5 L 52.5 101.5 M 48.5 93.5 L 52.5 93.5 M 48.5 84.5 L 52.5 84.5 M 48.5 75.5 L 52.5 75.5 M 48.5 66.5 L 52.5 66.5 M 48.5 58.5 L 52.5 58.5 M 48.5 49.5 L 52.5 49.5 M 48.5 40.5 L 52.5 40.5 M 48.5 31.5 L 52.5 31.5" stroke-opacity="1" stroke-linejoin="bevel" stroke-miterlimit="10" stroke-dasharray=""/><text fill="rgb(68,68,68)" stroke="none" font-family="helvetica" font-size="11px" font-style="normal" font-weight="normal" text-decoration="normal" x="34.88232421875" y="227.857666015625" text-anchor="start" dominant-baseline="alphabetic" transform="matrix(1, 0, 0, 1, 0.5, 0.5)" fill-opacity="1">0</text><text fill="rgb(68,68,68)" stroke="none" font-family="helvetica" font-size="11px" font-style="normal" font-weight="normal" text-decoration="normal" x="25.70849609375" y="184.0747528076172" text-anchor="start" dominant-baseline="alphabetic" transform="matrix(1, 0, 0, 1, 0.5, 0.5)" fill-opacity="1">0.5</text><text fill="rgb(68,68,68)" stroke="none" font-family="helvetica" font-size="11px" font-style="normal" font-weight="normal" text-decoration="normal" x="34.88232421875" y="140.29183959960938" text-anchor="start" dominant-baseline="alphabetic" transform="matrix(1, 0, 0, 1, 0.5, 0.5)" fill-opacity="1">1</text><text fill="rgb(68,68,68)" stroke="none" font-family="helvetica" font-size="11px" font-style="normal" font-weight="normal" text-decoration="normal" x="25.70849609375" y="96.5089340209961" text-anchor="start" dominant-baseline="alphabetic" transform="matrix(1, 0, 0, 1, 0.5, 0.5)" fill-opacity="1">1.5</text><text fill="rgb(68,68,68)" stroke="none" font-family="helvetica" font-size="11px" font-style="normal" font-weight="normal" text-decoration="normal" x="34.88232421875" y="52.726016998291016" text-anchor="start" dominant-baseline="alphabetic" transform="matrix(1, 0, 0, 1, 0.5, 0.5)" fill-opacity="1">2</text><text fill="rgb(68,68,68)" stroke="none" font-family="helvetica" font-size="13px" font-style="italic" font-weight="normal" text-decoration="normal" x="-9.75146484375" y="124" text-anchor="start" dominant-baseline="alphabetic" transform="matrix(6.123233995736766e-17, -1, 1, 6.123233995736766e-17, -108.79150390625, 145.20849609375)" fill-opacity="1">Predicted</text><path fill="none" stroke="rgb(255,140,0)" paint-order="fill" d="M 190.97744533947105 27.5 L 59.5622554660529 227.5" stroke-opacity="1" stroke-linejoin="bevel" stroke-miterlimit="10" stroke-width="2" stroke-dasharray="" clip-path="url(#RAwhIIIAhCXd)"/><path fill="none" stroke="none"/><text fill="rgb(68,68,68)" stroke="none" font-family="helvetica" font-size="13px" font-style="normal" font-weight="bold" text-decoration="normal" x="0" y="0" text-anchor="start" dominant-baseline="text-after-edge" transform="matrix(1, 0, 0, 1, 52.5, 22.5)" fill-opacity="1">PO4 (µmol/L), &lt;R²&gt; = 0.36</text></svg>