<svg version="1.1" xmlns="http://www.w3.org/2000/svg" xmlns:xlink="http://www.w3.org/1999/xlink" width="260" height="272"><defs><clipPath id="slvtkGTqgJtB"><path fill="none" stroke="none" d="M 55.5 27.5 L 255.5 27.5 L 255.5 227.5 L 55.5 227.5 L 55.5 27.5"/></clipPath><clipPath id="MNqVrxEcawTe"><path fill="none" stroke="none" d="M 55.5 27.5 L 255.5 27.5 L 255.5 227.5 L 55.5 227.5 L 55.5 27.5"/></clipPath><clipPath id="qDCXzZLpaZmZ"><path fill="none" stroke="none" d="M 55.5 27.5 L 255.5 27.5 L 255.5 227.5 L 55.5 227.5 L 55.5 27.5"/></clipPath><clipPath id="GRlBXVOPAzSp"><path fill="none" stroke="none" d="M 55.5 27.5 L 255.5 27.5 L 255.5 227.5 L 55.5 227.5 L 55.5 27.5"/></clipPath><clipPath id="FufiFHUZLuVN"><path fill="none" stroke="none" d="M 55.5 27.5 L 255.5 27.5 L 255.5 227.5 L 55.5 227.5 L 55.5 27.5"/></clipPath></defs><path fill="none" stroke="rgb(229,229,229)" paint-order="fill" d="M 55.5 27.5 L 255.5 27.5 L 255.5 227.5 L 55.5 227.5 L 55.5 27.5" stroke-opacity="1" stroke-linejoin="bevel" stroke-miterlimit="10" stroke-dasharray=""/><path fill="none" stroke="rgb(229,229,229)" paint-order="fill" d="M 63.5 227.5 L 63.5 27.5 M 93.5 227.5 L 93.5 27.5 M 123.5 227.5 L 123.5 27.5 M 152.5 227.5 L 152.5 27.5 M 182.5 227.5 L 182.5 27.5 M 212.5 227.5 L 212.5 27.5 M 242.5 227.5 L 242.5 27.5" stroke-opacity="1" stroke-linejoin="bevel" stroke-miterlimit="10" stroke-dasharray="" clip-path="url(#slvtkGTqgJtB)"/><path fill="none" stroke="rgb(229,229,229)" paint-order="fill" d="M 55.5 206.5 L 255.5 206.5 M 55.5 166.5 L 255.5 166.5 M 55.5 125.5 L 255.5 125.5 M 55.5 84.5 L 255.5 84.5 M 55.5 44.5 L 255.5 44.5" stroke-opacity="1" stroke-linejoin="bevel" stroke-miterlimit="10" stroke-dasharray="" clip-path="url(#MNqVrxEcawTe)"/><path fill="none" stroke="none"/><path fill="rgb(31,119,180)" stroke="rgb(31,119,180)" paint-order="fill" d="M 187.124755859375 127.43731689453125 A 2 2 0 1 1 187.1247548593751 127.43531689486458" fill-opacity="1" clip-path="url(#qDCXzZLpaZmZ)" stroke-opacity="1" stroke-linejoin="bevel" stroke-miterlimit="10" stroke-dasharray=""/><path fill="rgb(31,119,180)" stroke="rgb(31,119,180)" paint-order="fill" d="M 182.15736389160156 89.97811889648438 A 2 2 0 1 1 182.15736289160165 89.97611889681771" fill-opacity="1" clip-path="url(#qDCXzZLpaZmZ)" stroke-opacity="1" stroke-linejoin="bevel" stroke-miterlimit="10" stroke-dasharray=""/><path fill="rgb(31,119,180)" stroke="rgb(31,119,180)" paint-order="fill" d="M 153.90911865234375 91.43717956542969 A 2 2 0 1 1 153.90911765234384 91.43517956576302" fill-opacity="1" clip-path="url(#qDCXzZLpaZmZ)" stroke-opacity="1" stroke-linejoin="bevel" stroke-miterlimit="10" stroke-dasharray=""/><path fill="rgb(31,119,180)" stroke="rgb(31,119,180)" paint-order="fill" d="M 177.30967712402344 86.27484130859375 A 2 2 0 1 1 177.30967612402353 86.27284130892708" fill-opacity="1" clip-path="url(#qDCXzZLpaZmZ)" stroke-opacity="1" stroke-linejoin="bevel" stroke-miterlimit="10" stroke-dasharray=""/><path fill="rgb(31,119,180)" stroke="rgb(31,119,180)" paint-order="fill" d="M 66.59091186523438 193.39828491210938 A 2 2 0 1 1 66.59091086523446 193.3962849124427" fill-opacity="1" clip-path="url(#qDCXzZLpaZmZ)" stroke-opacity="1" stroke-linejoin="bevel" stroke-miterlimit="10" stroke-dasharray=""/><path fill="rgb(31,119,180)" stroke="rgb(31,119,180)" paint-order="fill" d="M 248.40908813476562 36.59090805053711 A 2 2 0 1 1 248.4090871347657 36.588908050870444" fill-opacity="1" clip-path="url(#qDCXzZLpaZmZ)" stroke-opacity="1" stroke-linejoin="bevel" stroke-miterlimit="10" stroke-dasharray=""/><path fill="rgb(31,119,180)" stroke="rgb(31,119,180)" paint-order="fill" d="M 171.0854949951172 82.67974090576172 A 2 2 0 1 1 171.08549399511728 82.67774090609505" fill-opacity="1" clip-path="url(#qDCXzZLpaZmZ)" stroke-opacity="1" stroke-linejoin="bevel" stroke-miterlimit="10" stroke-dasharray=""/><path fill="rgb(31,119,180)" stroke="rgb(31,119,180)" paint-order="fill" d="M 129.9100799560547 137.9666748046875 A 2 2 0 1 1 129.91007895605478 137.96467480502082" fill-opacity="1" clip-path="url(#qDCXzZLpaZmZ)" stroke-opacity="1" stroke-linejoin="bevel" stroke-miterlimit="10" stroke-dasharray=""/><path fill="rgb(31,119,180)" stroke="rgb(31,119,180)" paint-order="fill" d="M 180.42178344726562 89.58740234375 A 2 2 0 1 1 180.4217824472657 89.58540234408333" fill-opacity="1" clip-path="url(#qDCXzZLpaZmZ)" stroke-opacity="1" stroke-linejoin="bevel" stroke-miterlimit="10" stroke-dasharray=""/><path fill="rgb(31,119,180)" stroke="rgb(31,119,180)" paint-order="fill" d="M 174.55667114257812 94.48893737792969 A 2 2 0 1 1 174.5566701425782 94.48693737826302" fill-opacity="1" clip-path="url(#qDCXzZLpaZmZ)" stroke-opacity="1" stroke-linejoin="bevel" stroke-miterlimit="10" stroke-dasharray=""/><path fill="rgb(31,119,180)" stroke="rgb(31,119,180)" paint-order="fill" d="M 193.46864318847656 116.328125 A 2 2 0 1 1 193.46864218847665 116.32612500033333" fill-opacity="1" clip-path="url(#qDCXzZLpaZmZ)" stroke-opacity="1" stroke-linejoin="bevel" stroke-miterlimit="10" stroke-dasharray=""/><path fill="rgb(31,119,180)" stroke="rgb(31,119,180)" paint-order="fill" d="M 122.2495346069336 218.40908813476562 A 2 2 0 1 1 122.24953360693368 218.40708813509895" fill-opacity="1" clip-path="url(#qDCXzZLpaZmZ)" stroke-opacity="1" stroke-linejoin="bevel" stroke-miterlimit="10" stroke-dasharray=""/><path fill="rgb(31,119,180)" stroke="rgb(31,119,180)" paint-order="fill" d="M 200.1117706298828 95.44391632080078 A 2 2 0 1 1 200.1117696298829 95.44191632113412" fill-opacity="1" clip-path="url(#qDCXzZLpaZmZ)" stroke-opacity="1" stroke-linejoin="bevel" stroke-miterlimit="10" stroke-dasharray=""/><path fill="rgb(31,119,180)" stroke="rgb(31,119,180)" paint-order="fill" d="M 178.44679260253906 91.06949615478516 A 2 2 0 1 1 178.44679160253915 91.06749615511849" fill-opacity="1" clip-path="url(#qDCXzZLpaZmZ)" stroke-opacity="1" stroke-linejoin="bevel" stroke-miterlimit="10" stroke-dasharray=""/><path fill="rgb(31,119,180)" stroke="rgb(31,119,180)" paint-order="fill" d="M 67.06969451904297 170.85812377929688 A 2 2 0 1 1 67.06969351904306 170.8561237796302" fill-opacity="1" clip-path="url(#qDCXzZLpaZmZ)" stroke-opacity="1" stroke-linejoin="bevel" stroke-miterlimit="10" stroke-dasharray=""/><path fill="rgb(31,119,180)" stroke="rgb(31,119,180)" paint-order="fill" d="M 179.34451293945312 78.63715362548828 A 2 2 0 1 1 179.3445119394532 78.63515362582162" fill-opacity="1" clip-path="url(#qDCXzZLpaZmZ)" stroke-opacity="1" stroke-linejoin="bevel" stroke-miterlimit="10" stroke-dasharray=""/><path fill="rgb(31,119,180)" stroke="rgb(31,119,180)" paint-order="fill" d="M 204.06173706054688 84.85859680175781 A 2 2 0 1 1 204.06173606054696 84.85659680209115" fill-opacity="1" clip-path="url(#qDCXzZLpaZmZ)" stroke-opacity="1" stroke-linejoin="bevel" stroke-miterlimit="10" stroke-dasharray=""/><path fill="rgb(31,119,180)" stroke="rgb(31,119,180)" paint-order="fill" d="M 178.74603271484375 99.47805786132812 A 2 2 0 1 1 178.74603171484384 99.47605786166146" fill-opacity="1" clip-path="url(#qDCXzZLpaZmZ)" stroke-opacity="1" stroke-linejoin="bevel" stroke-miterlimit="10" stroke-dasharray=""/><path fill="rgb(31,119,180)" stroke="rgb(31,119,180)" paint-order="fill" d="M 189.03988647460938 79.57866668701172 A 2 2 0 1 1 189.03988547460946 79.57666668734505" fill-opacity="1" clip-path="url(#qDCXzZLpaZmZ)" stroke-opacity="1" stroke-linejoin="bevel" stroke-miterlimit="10" stroke-dasharray=""/><path fill="rgb(31,119,180)" stroke="rgb(31,119,180)" paint-order="fill" d="M 191.7928924560547 94.92750549316406 A 2 2 0 1 1 191.79289145605478 94.9255054934974" fill-opacity="1" clip-path="url(#qDCXzZLpaZmZ)" stroke-opacity="1" stroke-linejoin="bevel" stroke-miterlimit="10" stroke-dasharray=""/><path fill="none" stroke="rgb(0,0,0)" paint-order="fill" d="M 55.5 227.5 L 255.5 227.5" stroke-opacity="1" stroke-linejoin="bevel" stroke-miterlimit="10" stroke-dasharray=""/><path fill="none" stroke="rgb(0,0,0)" paint-order="fill" d="M 63.5 233.5 L 63.5 225.5 M 93.5 233.5 L 93.5 225.5 M 123.5 233.5 L 123.5 225.5 M 152.5 233.5 L 152.5 225.5 M 182.5 233.5 L 182.5 225.5 M 212.5 233.5 L 212.5 225.5 M 242.5 233.5 L 242.5 225.5" stroke-opacity="1" stroke-linejoin="bevel" stroke-miterlimit="10" stroke-dasharray=""/><path fill="none" stroke="rgb(0,0,0)" paint-order="fill" d="M 57.5 231.5 L 57.5 227.5 M 63.5 231.5 L 63.5 227.5 M 69.5 231.5 L 69.5 227.5 M 75.5 231.5 L 75.5 227.5 M 81.5 231.5 L 81.5 227.5 M 87.5 231.5 L 87.5 227.5 M 93.5 231.5 L 93.5 227.5 M 99.5 231.5 L 99.5 227.5 M 105.5 231.5 L 105.5 227.5 M 111.5 231.5 L 111.5 227.5 M 117.5 231.5 L 117.5 227.5 M 123.5 231.5 L 123.5 227.5 M 128.5 231.5 L 128.5 227.5 M 134.5 231.5 L 134.5 227.5 M 140.5 231.5 L 140.5 227.5 M 146.5 231.5 L 146.5 227.5 M 152.5 231.5 L 152.5 227.5 M 158.5 231.5 L 158.5 227.5 M 164.5 231.5 L 164.5 227.5 M 170.5 231.5 L 170.5 227.5 M 176.5 231.5 L 176.5 227.5 M 182.5 231.5 L 182.5 227.5 M 188.5 231.5 L 188.5 227.5 M 194.5 231.5 L 194.5 227.5 M 200.5 231.5 L 200.5 227.5 M 206.5 231.5 L 206.5 227.5 M 212.5 231.5 L 212.5 227.5 M 218.5 231.5 L 218.5 227.5 M 224.5 231.5 L 224.5 227.5 M 230.5 231.5 L 230.5 227.5 M 236.5 231.5 L 236.5 227.5 M 242.5 231.5 L 242.5 227.5 M 248.5 231.5 L 248.5 227.5 M 254.5 231.5 L 254.5 227.5" stroke-opacity="1" stroke-linejoin="bevel" stroke-miterlimit="10" stroke-dasharray=""/><text fill="rgb(68,68,68)" stroke="none" font-family="helvetica" font-size="11px" font-style="normal" font-weight="normal" text-decoration="normal" x="59.59571838378906" y="245.89013671875" text-anchor="start" dominant-baseline="alphabetic" transform="matrix(1, 0, 0, 1, 0.5, 0.5)" fill-opacity="1">0</text><text fill="rgb(68,68,68)" stroke="none" font-family="helvetica" font-size="11px" font-style="normal" font-weight="normal" text-decoration="normal" x="86.46087646484375" y="245.89013671875" text-anchor="start" dominant-baseline="alphabetic" transform="matrix(1, 0, 0, 1, 0.5, 0.5)" fill-opacity="1">50</text><text fill="rgb(68,68,68)" stroke="none" font-family="helvetica" font-size="11px" font-style="normal" font-weight="normal" text-decoration="normal" x="113.3260269165039" y="245.89013671875" text-anchor="start" dominant-baseline="alphabetic" transform="matrix(1, 0, 0, 1, 0.5, 0.5)" fill-opacity="1">100</text><text fill="rgb(68,68,68)" stroke="none" font-family="helvetica" font-size="11px" font-style="normal" font-weight="normal" text-decoration="normal" x="143.25003051757812" y="245.89013671875" text-anchor="start" dominant-baseline="alphabetic" transform="matrix(1, 0, 0, 1, 0.5, 0.5)" fill-opacity="1">150</text><text fill="rgb(68,68,68)" stroke="none" font-family="helvetica" font-size="11px" font-style="normal" font-weight="normal" text-decoration="normal" x="173.17401123046875" y="245.89013671875" text-anchor="start" dominant-baseline="alphabetic" transform="matrix(1, 0, 0, 1, 0.5, 0.5)" fill-opacity="1">200</text><text fill="rgb(68,68,68)" stroke="none" font-family="helvetica" font-size="11px" font-style="normal" font-weight="normal" text-decoration="normal" x="203.09800720214844" y="245.89013671875" text-anchor="start" dominant-baseline="alphabetic" transform="matrix(1, 0, 0, 1, 0.5, 0.5)" fill-opacity="1">250</text><text fill="rgb(68,68,68)" stroke="none" font-family="helvetica" font-size="11px" font-style="normal" font-weight="normal" text-decoration="normal" x="233.02200317382812" y="245.89013671875" text-anchor="start" dominant-baseline="alphabetic" transform="matrix(1, 0, 0, 1, 0.5, 0.5)" fill-opacity="1">300</text><text fill="rgb(68,68,68)" stroke="none" font-family="helvetica" font-size="13px" font-style="italic" font-weight="normal" text-decoration="normal" x="126.819580078125" y="265.89013671875" text-anchor="start" dominant-baseline="alphabetic" transform="matrix(1, 0, 0, 1, 0.5, 0.5)" fill-opacity="1">Observed</text><path fill="none" stroke="rgb(0,0,0)" paint-order="fill" d="M 55.5 227.5 L 55.5 27.5" stroke-opacity="1" stroke-linejoin="bevel" stroke-miterlimit="10" stroke-dasharray=""/><path fill="none" stroke="rgb(0,0,0)" paint-order="fill" d="M 49.5 206.5 L 57.5 206.5 M 49.5 166.5 L 57.5 166.5 M 49.5 125.5 L 57.5 125.5 M 49.5 84.5 L 57.5 84.5 M 49.5 44.5 L 57.5 44.5" stroke-opacity="1" stroke-linejoin="bevel" stroke-miterlimit="10" stroke-dasharray=""/><path fill="none" stroke="rgb(0,0,0)" paint-order="fill" d="M 51.5 214.5 L 55.5 214.5 M 51.5 222.5 L 55.5 222.5 M 51.5 206.5 L 55.5 206.5 M 51.5 198.5 L 55.5 198.5 M 51.5 190.5 L 55.5 190.5 M 51.5 182.5 L 55.5 182.5 M 51.5 174.5 L 55.5 174.5 M 51.5 166.5 L 55.5 166.5 M 51.5 157.5 L 55.5 157.5 M 51.5 149.5 L 55.5 149.5 M 51.5 141.5 L 55.5 141.5 M 51.5 133.5 L 55.5 133.5 M 51.5 125.5 L 55.5 125.5 M 51.5 117.5 L 55.5 117.5 M 51.5 109.5 L 55.5 109.5 M 51.5 101.5 L 55.5 101.5 M 51.5 93.5 L 55.5 93.5 M 51.5 84.5 L 55.5 84.5 M 51.5 76.5 L 55.5 76.5 M 51.5 68.5 L 55.5 68.5 M 51.5 60.5 L 55.5 60.5 M 51.5 52.5 L 55.5 52.5 M 51.5 44.5 L 55.5 44.5 M 51.5 36.5 L 55.5 36.5 M 51.5 28.5 L 55.5 28.5" stroke-opacity="1" stroke-linejoin="bevel" stroke-miterlimit="10" stroke-dasharray=""/><text fill="rgb(68,68,68)" stroke="none" font-family="helvetica" font-size="11px" font-style="normal" font-weight="normal" text-decoration="normal" x="31.7646484375" y="209.9974365234375" text-anchor="start" dominant-baseline="alphabetic" transform="matrix(1, 0, 0, 1, 0.5, 0.5)" fill-opacity="1">50</text><text fill="rgb(68,68,68)" stroke="none" font-family="helvetica" font-size="11px" font-style="normal" font-weight="normal" text-decoration="normal" x="25.64697265625" y="169.44998168945312" text-anchor="start" dominant-baseline="alphabetic" transform="matrix(1, 0, 0, 1, 0.5, 0.5)" fill-opacity="1">100</text><text fill="rgb(68,68,68)" stroke="none" font-family="helvetica" font-size="11px" font-style="normal" font-weight="normal" text-decoration="normal" x="25.64697265625" y="128.90253448486328" text-anchor="start" dominant-baseline="alphabetic" transform="matrix(1, 0, 0, 1, 0.5, 0.5)" fill-opacity="1">150</text><text fill="rgb(68,68,68)" stroke="none" font-family="helvetica" font-size="11px" font-style="normal" font-weight="normal" text-decoration="normal" x="25.64697265625" y="88.3550796508789" text-anchor="start" dominant-baseline="alphabetic" transform="matrix(1, 0, 0, 1, 0.5, 0.5)" fill-opacity="1">200</text><text fill="rgb(68,68,68)" stroke="none" font-family="helvetica" font-size="11px" font-style="normal" font-weight="normal" text-decoration="normal" x="25.64697265625" y="47.80762481689453" text-anchor="start" dominant-baseline="alphabetic" transform="matrix(1, 0, 0, 1, 0.5, 0.5)" fill-opacity="1">250</text><text fill="rgb(68,68,68)" stroke="none" font-family="helvetica" font-size="13px" font-style="italic" font-weight="normal" text-decoration="normal" x="-9.81298828125" y="124" text-anchor="start" dominant-baseline="alphabetic" transform="matrix(6.123233995736766e-17, -1, 1, 6.123233995736766e-17, -108.85302734375, 145.14697265625)" fill-opacity="1">Predicted</text><path fill="none" stroke="rgb(255,140,0)" paint-order="fill" d="M 225.21907953797344 27.5 L 77.61921120354297 227.5" stroke-opacity="1" stroke-linejoin="bevel" stroke-miterlimit="10" stroke-width="2" stroke-dasharray="" clip-path="url(#GRlBXVOPAzSp)"/><path fill="none" stroke="none"/><text fill="rgb(68,68,68)" stroke="none" font-family="helvetica" font-size="13px" font-style="normal" font-weight="bold" text-decoration="normal" x="0" y="0" text-anchor="start" dominant-baseline="text-after-edge" transform="matrix(1, 0, 0, 1, 55.5, 22.5)" fill-opacity="1">Oxygen (µmol/kg), &lt;R²&gt; = 0.37</text></svg>