<svg version="1.1" xmlns="http://www.w3.org/2000/svg" xmlns:xlink="http://www.w3.org/1999/xlink" width="254" height="272"><defs><clipPath id="hpnKaWAIBhgh"><path fill="none" stroke="none" d="M 49.5 27.5 L 249.5 27.5 L 249.5 227.5 L 49.5 227.5 L 49.5 27.5"/></clipPath><clipPath id="EwzuIOUDMpUJ"><path fill="none" stroke="none" d="M 49.5 27.5 L 249.5 27.5 L 249.5 227.5 L 49.5 227.5 L 49.5 27.5"/></clipPath><clipPath id="yGPqPDWzvLgW"><path fill="none" stroke="none" d="M 49.5 27.5 L 249.5 27.5 L 249.5 227.5 L 49.5 227.5 L 49.5 27.5"/></clipPath><clipPath id="lahWXswdpmdr"><path fill="none" stroke="none" d="M 49.5 27.5 L 249.5 27.5 L 249.5 227.5 L 49.5 227.5 L 49.5 27.5"/></clipPath><clipPath id="nHOpFgJdOKHH"><path fill="none" stroke="none" d="M 49.5 27.5 L 249.5 27.5 L 249.5 227.5 L 49.5 227.5 L 49.5 27.5"/></clipPath></defs><path fill="none" stroke="rgb(229,229,229)" paint-order="fill" d="M 49.5 27.5 L 249.5 27.5 L 249.5 227.5 L 49.5 227.5 L 49.5 27.5" stroke-opacity="1" stroke-linejoin="bevel" stroke-miterlimit="10" stroke-dasharray=""/><path fill="none" stroke="rgb(229,229,229)" paint-order="fill" d="M 51.5 227.5 L 51.5 27.5 M 96.5 227.5 L 96.5 27.5 M 140.5 227.5 L 140.5 27.5 M 185.5 227.5 L 185.5 27.5 M 230.5 227.5 L 230.5 27.5" stroke-opacity="1" stroke-linejoin="bevel" stroke-miterlimit="10" stroke-dasharray="" clip-path="url(#hpnKaWAIBhgh)"/><path fill="none" stroke="rgb(229,229,229)" paint-order="fill" d="M 49.5 223.5 L 249.5 223.5 M 49.5 179.5 L 249.5 179.5 M 49.5 134.5 L 249.5 134.5 M 49.5 90.5 L 249.5 90.5 M 49.5 45.5 L 249.5 45.5" stroke-opacity="1" stroke-linejoin="bevel" stroke-miterlimit="10" stroke-dasharray="" clip-path="url(#EwzuIOUDMpUJ)"/><path fill="none" stroke="none"/><path fill="rgb(31,119,180)" stroke="rgb(31,119,180)" paint-order="fill" d="M 81.19100189208984 177.80294799804688 A 2 2 0 1 1 81.19100089208993 177.8009479983802" fill-opacity="1" clip-path="url(#yGPqPDWzvLgW)" stroke-opacity="1" stroke-linejoin="bevel" stroke-miterlimit="10" stroke-dasharray=""/><path fill="rgb(31,119,180)" stroke="rgb(31,119,180)" paint-order="fill" d="M 123.28683471679688 185.58181762695312 A 2 2 0 1 1 123.28683371679696 185.57981762728645" fill-opacity="1" clip-path="url(#yGPqPDWzvLgW)" stroke-opacity="1" stroke-linejoin="bevel" stroke-miterlimit="10" stroke-dasharray=""/><path fill="rgb(31,119,180)" stroke="rgb(31,119,180)" paint-order="fill" d="M 221.8090057373047 76.5116195678711 A 2 2 0 1 1 221.80900473730478 76.50961956820443" fill-opacity="1" clip-path="url(#yGPqPDWzvLgW)" stroke-opacity="1" stroke-linejoin="bevel" stroke-miterlimit="10" stroke-dasharray=""/><path fill="rgb(31,119,180)" stroke="rgb(31,119,180)" paint-order="fill" d="M 235.24383544921875 57.933719635009766 A 2 2 0 1 1 235.24383444921884 57.9317196353431" fill-opacity="1" clip-path="url(#yGPqPDWzvLgW)" stroke-opacity="1" stroke-linejoin="bevel" stroke-miterlimit="10" stroke-dasharray=""/><path fill="rgb(31,119,180)" stroke="rgb(31,119,180)" paint-order="fill" d="M 233.45252990722656 36.59090805053711 A 2 2 0 1 1 233.45252890722665 36.588908050870444" fill-opacity="1" clip-path="url(#yGPqPDWzvLgW)" stroke-opacity="1" stroke-linejoin="bevel" stroke-miterlimit="10" stroke-dasharray=""/><path fill="rgb(31,119,180)" stroke="rgb(31,119,180)" paint-order="fill" d="M 176.1305389404297 92.62091827392578 A 2 2 0 1 1 176.13053794042978 92.61891827425912" fill-opacity="1" clip-path="url(#yGPqPDWzvLgW)" stroke-opacity="1" stroke-linejoin="bevel" stroke-miterlimit="10" stroke-dasharray=""/><path fill="rgb(31,119,180)" stroke="rgb(31,119,180)" paint-order="fill" d="M 242.40908813476562 50.938446044921875 A 2 2 0 1 1 242.4090871347657 50.93644604525521" fill-opacity="1" clip-path="url(#yGPqPDWzvLgW)" stroke-opacity="1" stroke-linejoin="bevel" stroke-miterlimit="10" stroke-dasharray=""/><path fill="rgb(31,119,180)" stroke="rgb(31,119,180)" paint-order="fill" d="M 60.59090805053711 218.40908813476562 A 2 2 0 1 1 60.59090705053719 218.40708813509895" fill-opacity="1" clip-path="url(#yGPqPDWzvLgW)" stroke-opacity="1" stroke-linejoin="bevel" stroke-miterlimit="10" stroke-dasharray=""/><path fill="rgb(31,119,180)" stroke="rgb(31,119,180)" paint-order="fill" d="M 180.60882568359375 79.34793090820312 A 2 2 0 1 1 180.60882468359384 79.34593090853646" fill-opacity="1" clip-path="url(#yGPqPDWzvLgW)" stroke-opacity="1" stroke-linejoin="bevel" stroke-miterlimit="10" stroke-dasharray=""/><path fill="rgb(31,119,180)" stroke="rgb(31,119,180)" paint-order="fill" d="M 242.40908813476562 68.24545288085938 A 2 2 0 1 1 242.4090871347657 68.24345288119271" fill-opacity="1" clip-path="url(#yGPqPDWzvLgW)" stroke-opacity="1" stroke-linejoin="bevel" stroke-miterlimit="10" stroke-dasharray=""/><path fill="rgb(31,119,180)" stroke="rgb(31,119,180)" paint-order="fill" d="M 237.03515625 38.53295135498047 A 2 2 0 1 1 237.0351552500001 38.5309513553138" fill-opacity="1" clip-path="url(#yGPqPDWzvLgW)" stroke-opacity="1" stroke-linejoin="bevel" stroke-miterlimit="10" stroke-dasharray=""/><path fill="rgb(31,119,180)" stroke="rgb(31,119,180)" paint-order="fill" d="M 236.13949584960938 54.146026611328125 A 2 2 0 1 1 236.13949484960946 54.14402661166146" fill-opacity="1" clip-path="url(#yGPqPDWzvLgW)" stroke-opacity="1" stroke-linejoin="bevel" stroke-miterlimit="10" stroke-dasharray=""/><path fill="rgb(31,119,180)" stroke="rgb(31,119,180)" paint-order="fill" d="M 100.89543151855469 170.7630615234375 A 2 2 0 1 1 100.89543051855478 170.76106152377082" fill-opacity="1" clip-path="url(#yGPqPDWzvLgW)" stroke-opacity="1" stroke-linejoin="bevel" stroke-miterlimit="10" stroke-dasharray=""/><path fill="rgb(31,119,180)" stroke="rgb(31,119,180)" paint-order="fill" d="M 203.8958740234375 70.31600952148438 A 2 2 0 1 1 203.8958730234376 70.31400952181771" fill-opacity="1" clip-path="url(#yGPqPDWzvLgW)" stroke-opacity="1" stroke-linejoin="bevel" stroke-miterlimit="10" stroke-dasharray=""/><path fill="rgb(31,119,180)" stroke="rgb(31,119,180)" paint-order="fill" d="M 96.41715240478516 217.2917022705078 A 2 2 0 1 1 96.41715140478524 217.28970227084113" fill-opacity="1" clip-path="url(#yGPqPDWzvLgW)" stroke-opacity="1" stroke-linejoin="bevel" stroke-miterlimit="10" stroke-dasharray=""/><path fill="rgb(31,119,180)" stroke="rgb(31,119,180)" paint-order="fill" d="M 237.93081665039062 73.92342376708984 A 2 2 0 1 1 237.9308156503907 73.92142376742318" fill-opacity="1" clip-path="url(#yGPqPDWzvLgW)" stroke-opacity="1" stroke-linejoin="bevel" stroke-miterlimit="10" stroke-dasharray=""/><path fill="rgb(31,119,180)" stroke="rgb(31,119,180)" paint-order="fill" d="M 155.53045654296875 107.60747528076172 A 2 2 0 1 1 155.53045554296884 107.60547528109505" fill-opacity="1" clip-path="url(#yGPqPDWzvLgW)" stroke-opacity="1" stroke-linejoin="bevel" stroke-miterlimit="10" stroke-dasharray=""/><path fill="rgb(31,119,180)" stroke="rgb(31,119,180)" paint-order="fill" d="M 222.70465087890625 66.09457397460938 A 2 2 0 1 1 222.70464987890634 66.09257397494271" fill-opacity="1" clip-path="url(#yGPqPDWzvLgW)" stroke-opacity="1" stroke-linejoin="bevel" stroke-miterlimit="10" stroke-dasharray=""/><path fill="rgb(31,119,180)" stroke="rgb(31,119,180)" paint-order="fill" d="M 71.33878326416016 186.13873291015625 A 2 2 0 1 1 71.33878226416024 186.13673291048957" fill-opacity="1" clip-path="url(#yGPqPDWzvLgW)" stroke-opacity="1" stroke-linejoin="bevel" stroke-miterlimit="10" stroke-dasharray=""/><path fill="rgb(31,119,180)" stroke="rgb(31,119,180)" paint-order="fill" d="M 159.1130828857422 84.53681945800781 A 2 2 0 1 1 159.11308188574228 84.53481945834115" fill-opacity="1" clip-path="url(#yGPqPDWzvLgW)" stroke-opacity="1" stroke-linejoin="bevel" stroke-miterlimit="10" stroke-dasharray=""/><path fill="rgb(31,119,180)" stroke="rgb(31,119,180)" paint-order="fill" d="M 144.78257751464844 92.0051040649414 A 2 2 0 1 1 144.78257651464853 92.00310406527474" fill-opacity="1" clip-path="url(#yGPqPDWzvLgW)" stroke-opacity="1" stroke-linejoin="bevel" stroke-miterlimit="10" stroke-dasharray=""/><path fill="none" stroke="rgb(0,0,0)" paint-order="fill" d="M 49.5 227.5 L 249.5 227.5" stroke-opacity="1" stroke-linejoin="bevel" stroke-miterlimit="10" stroke-dasharray=""/><path fill="none" stroke="rgb(0,0,0)" paint-order="fill" d="M 51.5 233.5 L 51.5 225.5 M 96.5 233.5 L 96.5 225.5 M 140.5 233.5 L 140.5 225.5 M 185.5 233.5 L 185.5 225.5 M 230.5 233.5 L 230.5 225.5" stroke-opacity="1" stroke-linejoin="bevel" stroke-miterlimit="10" stroke-dasharray=""/><path fill="none" stroke="rgb(0,0,0)" paint-order="fill" d="M 51.5 231.5 L 51.5 227.5 M 60.5 231.5 L 60.5 227.5 M 69.5 231.5 L 69.5 227.5 M 78.5 231.5 L 78.5 227.5 M 87.5 231.5 L 87.5 227.5 M 96.5 231.5 L 96.5 227.5 M 105.5 231.5 L 105.5 227.5 M 114.5 231.5 L 114.5 227.5 M 123.5 231.5 L 123.5 227.5 M 132.5 231.5 L 132.5 227.5 M 140.5 231.5 L 140.5 227.5 M 149.5 231.5 L 149.5 227.5 M 158.5 231.5 L 158.5 227.5 M 167.5 231.5 L 167.5 227.5 M 176.5 231.5 L 176.5 227.5 M 185.5 231.5 L 185.5 227.5 M 194.5 231.5 L 194.5 227.5 M 203.5 231.5 L 203.5 227.5 M 212.5 231.5 L 212.5 227.5 M 221.5 231.5 L 221.5 227.5 M 230.5 231.5 L 230.5 227.5 M 239.5 231.5 L 239.5 227.5 M 248.5 231.5 L 248.5 227.5" stroke-opacity="1" stroke-linejoin="bevel" stroke-miterlimit="10" stroke-dasharray=""/><text fill="rgb(68,68,68)" stroke="none" font-family="helvetica" font-size="11px" font-style="normal" font-weight="normal" text-decoration="normal" x="47.8668212890625" y="245.89013671875" text-anchor="start" dominant-baseline="alphabetic" transform="matrix(1, 0, 0, 1, 0.5, 0.5)" fill-opacity="1">5</text><text fill="rgb(68,68,68)" stroke="none" font-family="helvetica" font-size="11px" font-style="normal" font-weight="normal" text-decoration="normal" x="89.59078979492188" y="245.89013671875" text-anchor="start" dominant-baseline="alphabetic" transform="matrix(1, 0, 0, 1, 0.5, 0.5)" fill-opacity="1">10</text><text fill="rgb(68,68,68)" stroke="none" font-family="helvetica" font-size="11px" font-style="normal" font-weight="normal" text-decoration="normal" x="134.37359619140625" y="245.89013671875" text-anchor="start" dominant-baseline="alphabetic" transform="matrix(1, 0, 0, 1, 0.5, 0.5)" fill-opacity="1">15</text><text fill="rgb(68,68,68)" stroke="none" font-family="helvetica" font-size="11px" font-style="normal" font-weight="normal" text-decoration="normal" x="179.15640258789062" y="245.89013671875" text-anchor="start" dominant-baseline="alphabetic" transform="matrix(1, 0, 0, 1, 0.5, 0.5)" fill-opacity="1">20</text><text fill="rgb(68,68,68)" stroke="none" font-family="helvetica" font-size="11px" font-style="normal" font-weight="normal" text-decoration="normal" x="223.93919372558594" y="245.89013671875" text-anchor="start" dominant-baseline="alphabetic" transform="matrix(1, 0, 0, 1, 0.5, 0.5)" fill-opacity="1">25</text><text fill="rgb(68,68,68)" stroke="none" font-family="helvetica" font-size="13px" font-style="italic" font-weight="normal" text-decoration="normal" x="120.819580078125" y="265.89013671875" text-anchor="start" dominant-baseline="alphabetic" transform="matrix(1, 0, 0, 1, 0.5, 0.5)" fill-opacity="1">Observed</text><path fill="none" stroke="rgb(0,0,0)" paint-order="fill" d="M 49.5 227.5 L 49.5 27.5" stroke-opacity="1" stroke-linejoin="bevel" stroke-miterlimit="10" stroke-dasharray=""/><path fill="none" stroke="rgb(0,0,0)" paint-order="fill" d="M 43.5 223.5 L 51.5 223.5 M 43.5 179.5 L 51.5 179.5 M 43.5 134.5 L 51.5 134.5 M 43.5 90.5 L 51.5 90.5 M 43.5 45.5 L 51.5 45.5" stroke-opacity="1" stroke-linejoin="bevel" stroke-miterlimit="10" stroke-dasharray=""/><path fill="none" stroke="rgb(0,0,0)" paint-order="fill" d="M 45.5 223.5 L 49.5 223.5 M 45.5 215.5 L 49.5 215.5 M 45.5 206.5 L 49.5 206.5 M 45.5 197.5 L 49.5 197.5 M 45.5 188.5 L 49.5 188.5 M 45.5 179.5 L 49.5 179.5 M 45.5 170.5 L 49.5 170.5 M 45.5 161.5 L 49.5 161.5 M 45.5 152.5 L 49.5 152.5 M 45.5 143.5 L 49.5 143.5 M 45.5 134.5 L 49.5 134.5 M 45.5 125.5 L 49.5 125.5 M 45.5 116.5 L 49.5 116.5 M 45.5 107.5 L 49.5 107.5 M 45.5 99.5 L 49.5 99.5 M 45.5 90.5 L 49.5 90.5 M 45.5 81.5 L 49.5 81.5 M 45.5 72.5 L 49.5 72.5 M 45.5 63.5 L 49.5 63.5 M 45.5 54.5 L 49.5 54.5 M 45.5 45.5 L 49.5 45.5 M 45.5 36.5 L 49.5 36.5 M 45.5 27.5 L 49.5 27.5" stroke-opacity="1" stroke-linejoin="bevel" stroke-miterlimit="10" stroke-dasharray=""/><text fill="rgb(68,68,68)" stroke="none" font-family="helvetica" font-size="11px" font-style="normal" font-weight="normal" text-decoration="normal" x="31.88232421875" y="227.44467163085938" text-anchor="start" dominant-baseline="alphabetic" transform="matrix(1, 0, 0, 1, 0.5, 0.5)" fill-opacity="1">5</text><text fill="rgb(68,68,68)" stroke="none" font-family="helvetica" font-size="11px" font-style="normal" font-weight="normal" text-decoration="normal" x="25.7646484375" y="182.82057189941406" text-anchor="start" dominant-baseline="alphabetic" transform="matrix(1, 0, 0, 1, 0.5, 0.5)" fill-opacity="1">10</text><text fill="rgb(68,68,68)" stroke="none" font-family="helvetica" font-size="11px" font-style="normal" font-weight="normal" text-decoration="normal" x="25.7646484375" y="138.1964874267578" text-anchor="start" dominant-baseline="alphabetic" transform="matrix(1, 0, 0, 1, 0.5, 0.5)" fill-opacity="1">15</text><text fill="rgb(68,68,68)" stroke="none" font-family="helvetica" font-size="11px" font-style="normal" font-weight="normal" text-decoration="normal" x="25.7646484375" y="93.57239532470703" text-anchor="start" dominant-baseline="alphabetic" transform="matrix(1, 0, 0, 1, 0.5, 0.5)" fill-opacity="1">20</text><text fill="rgb(68,68,68)" stroke="none" font-family="helvetica" font-size="11px" font-style="normal" font-weight="normal" text-decoration="normal" x="25.7646484375" y="48.948299407958984" text-anchor="start" dominant-baseline="alphabetic" transform="matrix(1, 0, 0, 1, 0.5, 0.5)" fill-opacity="1">25</text><text fill="rgb(68,68,68)" stroke="none" font-family="helvetica" font-size="13px" font-style="italic" font-weight="normal" text-decoration="normal" x="-9.6953125" y="124" text-anchor="start" dominant-baseline="alphabetic" transform="matrix(6.123233995736766e-17, -1, 1, 6.123233995736766e-17, -108.7353515625, 145.2646484375)" fill-opacity="1">Predicted</text><path fill="none" stroke="rgb(255,140,0)" paint-order="fill" d="M 248.62413793103363 27.5 L 47.912807881773375 227.5" stroke-opacity="1" stroke-linejoin="bevel" stroke-miterlimit="10" stroke-width="2" stroke-dasharray="" clip-path="url(#lahWXswdpmdr)"/><path fill="none" stroke="none"/><text fill="rgb(68,68,68)" stroke="none" font-family="helvetica" font-size="13px" font-style="normal" font-weight="bold" text-decoration="normal" x="0" y="0" text-anchor="start" dominant-baseline="text-after-edge" transform="matrix(1, 0, 0, 1, 49.5, 22.5)" fill-opacity="1">Temperature (°C), &lt;R²&gt; = 0.75</text></svg>