<svg version="1.1" xmlns="http://www.w3.org/2000/svg" xmlns:xlink="http://www.w3.org/1999/xlink" width="257" height="272"><defs><clipPath id="SosNtUnqeNLk"><path fill="none" stroke="none" d="M 52.5 27.5 L 252.5 27.5 L 252.5 227.5 L 52.5 227.5 L 52.5 27.5"/></clipPath><clipPath id="VurtskBkIpaV"><path fill="none" stroke="none" d="M 52.5 27.5 L 252.5 27.5 L 252.5 227.5 L 52.5 227.5 L 52.5 27.5"/></clipPath><clipPath id="EJOslifukgAG"><path fill="none" stroke="none" d="M 52.5 27.5 L 252.5 27.5 L 252.5 227.5 L 52.5 227.5 L 52.5 27.5"/></clipPath><clipPath id="GWwfOvWNEliz"><path fill="none" stroke="none" d="M 52.5 27.5 L 252.5 27.5 L 252.5 227.5 L 52.5 227.5 L 52.5 27.5"/></clipPath><clipPath id="EkTgVHBUVrBM"><path fill="none" stroke="none" d="M 52.5 27.5 L 252.5 27.5 L 252.5 227.5 L 52.5 227.5 L 52.5 27.5"/></clipPath></defs><path fill="none" stroke="rgb(229,229,229)" paint-order="fill" d="M 52.5 27.5 L 252.5 27.5 L 252.5 227.5 L 52.5 227.5 L 52.5 27.5" stroke-opacity="1" stroke-linejoin="bevel" stroke-miterlimit="10" stroke-dasharray=""/><path fill="none" stroke="rgb(229,229,229)" paint-order="fill" d="M 61.5 227.5 L 61.5 27.5 M 105.5 227.5 L 105.5 27.5 M 149.5 227.5 L 149.5 27.5 M 193.5 227.5 L 193.5 27.5 M 236.5 227.5 L 236.5 27.5" stroke-opacity="1" stroke-linejoin="bevel" stroke-miterlimit="10" stroke-dasharray="" clip-path="url(#SosNtUnqeNLk)"/><path fill="none" stroke="rgb(229,229,229)" paint-order="fill" d="M 52.5 220.5 L 252.5 220.5 M 52.5 184.5 L 252.5 184.5 M 52.5 148.5 L 252.5 148.5 M 52.5 112.5 L 252.5 112.5 M 52.5 77.5 L 252.5 77.5 M 52.5 41.5 L 252.5 41.5" stroke-opacity="1" stroke-linejoin="bevel" stroke-miterlimit="10" stroke-dasharray="" clip-path="url(#VurtskBkIpaV)"/><path fill="none" stroke="none"/><path fill="rgb(31,119,180)" stroke="rgb(31,119,180)" paint-order="fill" d="M 67.9720687866211 159.2256317138672 A 2 2 0 1 1 67.97206778662118 159.2236317142005" fill-opacity="1" clip-path="url(#EJOslifukgAG)" stroke-opacity="1" stroke-linejoin="bevel" stroke-miterlimit="10" stroke-dasharray=""/><path fill="rgb(31,119,180)" stroke="rgb(31,119,180)" paint-order="fill" d="M 65.78149032592773 209.68731689453125 A 2 2 0 1 1 65.78148932592782 209.68531689486457" fill-opacity="1" clip-path="url(#EJOslifukgAG)" stroke-opacity="1" stroke-linejoin="bevel" stroke-miterlimit="10" stroke-dasharray=""/><path fill="rgb(31,119,180)" stroke="rgb(31,119,180)" paint-order="fill" d="M 63.59090805053711 212.78076171875 A 2 2 0 1 1 63.59090705053719 212.77876171908332" fill-opacity="1" clip-path="url(#EJOslifukgAG)" stroke-opacity="1" stroke-linejoin="bevel" stroke-miterlimit="10" stroke-dasharray=""/><path fill="rgb(31,119,180)" stroke="rgb(31,119,180)" paint-order="fill" d="M 65.78149032592773 218.40908813476562 A 2 2 0 1 1 65.78148932592782 218.40708813509895" fill-opacity="1" clip-path="url(#EJOslifukgAG)" stroke-opacity="1" stroke-linejoin="bevel" stroke-miterlimit="10" stroke-dasharray=""/><path fill="rgb(31,119,180)" stroke="rgb(31,119,180)" paint-order="fill" d="M 70.16265106201172 207.1094512939453 A 2 2 0 1 1 70.1626500620118 207.10745129427863" fill-opacity="1" clip-path="url(#EJOslifukgAG)" stroke-opacity="1" stroke-linejoin="bevel" stroke-miterlimit="10" stroke-dasharray=""/><path fill="rgb(31,119,180)" stroke="rgb(31,119,180)" paint-order="fill" d="M 65.78149032592773 186.5867919921875 A 2 2 0 1 1 65.78148932592782 186.58479199252082" fill-opacity="1" clip-path="url(#EJOslifukgAG)" stroke-opacity="1" stroke-linejoin="bevel" stroke-miterlimit="10" stroke-dasharray=""/><path fill="rgb(31,119,180)" stroke="rgb(31,119,180)" paint-order="fill" d="M 63.59090805053711 155.78848266601562 A 2 2 0 1 1 63.59090705053719 155.78648266634895" fill-opacity="1" clip-path="url(#EJOslifukgAG)" stroke-opacity="1" stroke-linejoin="bevel" stroke-miterlimit="10" stroke-dasharray=""/><path fill="rgb(31,119,180)" stroke="rgb(31,119,180)" paint-order="fill" d="M 67.9720687866211 138.57408142089844 A 2 2 0 1 1 67.97206778662118 138.57208142123176" fill-opacity="1" clip-path="url(#EJOslifukgAG)" stroke-opacity="1" stroke-linejoin="bevel" stroke-miterlimit="10" stroke-dasharray=""/><path fill="rgb(31,119,180)" stroke="rgb(31,119,180)" paint-order="fill" d="M 245.40908813476562 134.92210388183594 A 2 2 0 1 1 245.4090871347657 134.92010388216926" fill-opacity="1" clip-path="url(#EJOslifukgAG)" stroke-opacity="1" stroke-linejoin="bevel" stroke-miterlimit="10" stroke-dasharray=""/><path fill="rgb(31,119,180)" stroke="rgb(31,119,180)" paint-order="fill" d="M 70.16265106201172 208.43418884277344 A 2 2 0 1 1 70.1626500620118 208.43218884310676" fill-opacity="1" clip-path="url(#EJOslifukgAG)" stroke-opacity="1" stroke-linejoin="bevel" stroke-miterlimit="10" stroke-dasharray=""/><path fill="rgb(31,119,180)" stroke="rgb(31,119,180)" paint-order="fill" d="M 78.92497253417969 185.7203369140625 A 2 2 0 1 1 78.92497153417978 185.71833691439582" fill-opacity="1" clip-path="url(#EJOslifukgAG)" stroke-opacity="1" stroke-linejoin="bevel" stroke-miterlimit="10" stroke-dasharray=""/><path fill="rgb(31,119,180)" stroke="rgb(31,119,180)" paint-order="fill" d="M 133.68948364257812 175.77407836914062 A 2 2 0 1 1 133.6894826425782 175.77207836947395" fill-opacity="1" clip-path="url(#EJOslifukgAG)" stroke-opacity="1" stroke-linejoin="bevel" stroke-miterlimit="10" stroke-dasharray=""/><path fill="rgb(31,119,180)" stroke="rgb(31,119,180)" paint-order="fill" d="M 65.78149032592773 176.76942443847656 A 2 2 0 1 1 65.78148932592782 176.76742443880988" fill-opacity="1" clip-path="url(#EJOslifukgAG)" stroke-opacity="1" stroke-linejoin="bevel" stroke-miterlimit="10" stroke-dasharray=""/><path fill="rgb(31,119,180)" stroke="rgb(31,119,180)" paint-order="fill" d="M 65.78149032592773 202.7127685546875 A 2 2 0 1 1 65.78148932592782 202.71076855502082" fill-opacity="1" clip-path="url(#EJOslifukgAG)" stroke-opacity="1" stroke-linejoin="bevel" stroke-miterlimit="10" stroke-dasharray=""/><path fill="rgb(31,119,180)" stroke="rgb(31,119,180)" paint-order="fill" d="M 83.30613708496094 200.81517028808594 A 2 2 0 1 1 83.30613608496103 200.81317028841926" fill-opacity="1" clip-path="url(#EJOslifukgAG)" stroke-opacity="1" stroke-linejoin="bevel" stroke-miterlimit="10" stroke-dasharray=""/><path fill="rgb(31,119,180)" stroke="rgb(31,119,180)" paint-order="fill" d="M 74.54380798339844 206.2071990966797 A 2 2 0 1 1 74.54380698339853 206.205199097013" fill-opacity="1" clip-path="url(#EJOslifukgAG)" stroke-opacity="1" stroke-linejoin="bevel" stroke-miterlimit="10" stroke-dasharray=""/><path fill="rgb(31,119,180)" stroke="rgb(31,119,180)" paint-order="fill" d="M 65.78149032592773 198.15853881835938 A 2 2 0 1 1 65.78148932592782 198.1565388186927" fill-opacity="1" clip-path="url(#EJOslifukgAG)" stroke-opacity="1" stroke-linejoin="bevel" stroke-miterlimit="10" stroke-dasharray=""/><path fill="rgb(31,119,180)" stroke="rgb(31,119,180)" paint-order="fill" d="M 63.59090805053711 214.2916717529297 A 2 2 0 1 1 63.59090705053719 214.289671753263" fill-opacity="1" clip-path="url(#EJOslifukgAG)" stroke-opacity="1" stroke-linejoin="bevel" stroke-miterlimit="10" stroke-dasharray=""/><path fill="rgb(31,119,180)" stroke="rgb(31,119,180)" paint-order="fill" d="M 214.740966796875 36.59090805053711 A 2 2 0 1 1 214.7409657968751 36.588908050870444" fill-opacity="1" clip-path="url(#EJOslifukgAG)" stroke-opacity="1" stroke-linejoin="bevel" stroke-miterlimit="10" stroke-dasharray=""/><path fill="rgb(31,119,180)" stroke="rgb(31,119,180)" paint-order="fill" d="M 133.68948364257812 179.7411346435547 A 2 2 0 1 1 133.6894826425782 179.739134643888" fill-opacity="1" clip-path="url(#EJOslifukgAG)" stroke-opacity="1" stroke-linejoin="bevel" stroke-miterlimit="10" stroke-dasharray=""/><path fill="none" stroke="rgb(0,0,0)" paint-order="fill" d="M 52.5 227.5 L 252.5 227.5" stroke-opacity="1" stroke-linejoin="bevel" stroke-miterlimit="10" stroke-dasharray=""/><path fill="none" stroke="rgb(0,0,0)" paint-order="fill" d="M 61.5 233.5 L 61.5 225.5 M 105.5 233.5 L 105.5 225.5 M 149.5 233.5 L 149.5 225.5 M 193.5 233.5 L 193.5 225.5 M 236.5 233.5 L 236.5 225.5" stroke-opacity="1" stroke-linejoin="bevel" stroke-miterlimit="10" stroke-dasharray=""/><path fill="none" stroke="rgb(0,0,0)" paint-order="fill" d="M 52.5 231.5 L 52.5 227.5 M 61.5 231.5 L 61.5 227.5 M 70.5 231.5 L 70.5 227.5 M 79.5 231.5 L 79.5 227.5 M 87.5 231.5 L 87.5 227.5 M 96.5 231.5 L 96.5 227.5 M 105.5 231.5 L 105.5 227.5 M 114.5 231.5 L 114.5 227.5 M 122.5 231.5 L 122.5 227.5 M 131.5 231.5 L 131.5 227.5 M 140.5 231.5 L 140.5 227.5 M 149.5 231.5 L 149.5 227.5 M 157.5 231.5 L 157.5 227.5 M 166.5 231.5 L 166.5 227.5 M 175.5 231.5 L 175.5 227.5 M 184.5 231.5 L 184.5 227.5 M 193.5 231.5 L 193.5 227.5 M 201.5 231.5 L 201.5 227.5 M 210.5 231.5 L 210.5 227.5 M 219.5 231.5 L 219.5 227.5 M 228.5 231.5 L 228.5 227.5 M 236.5 231.5 L 236.5 227.5 M 245.5 231.5 L 245.5 227.5" stroke-opacity="1" stroke-linejoin="bevel" stroke-miterlimit="10" stroke-dasharray=""/><text fill="rgb(68,68,68)" stroke="none" font-family="helvetica" font-size="11px" font-style="normal" font-weight="normal" text-decoration="normal" x="58.03207015991211" y="245.89013671875" text-anchor="start" dominant-baseline="alphabetic" transform="matrix(1, 0, 0, 1, 0.5, 0.5)" fill-opacity="1">0</text><text fill="rgb(68,68,68)" stroke="none" font-family="helvetica" font-size="11px" font-style="normal" font-weight="normal" text-decoration="normal" x="97.25676727294922" y="245.89013671875" text-anchor="start" dominant-baseline="alphabetic" transform="matrix(1, 0, 0, 1, 0.5, 0.5)" fill-opacity="1">0.2</text><text fill="rgb(68,68,68)" stroke="none" font-family="helvetica" font-size="11px" font-style="normal" font-weight="normal" text-decoration="normal" x="141.06837463378906" y="245.89013671875" text-anchor="start" dominant-baseline="alphabetic" transform="matrix(1, 0, 0, 1, 0.5, 0.5)" fill-opacity="1">0.4</text><text fill="rgb(68,68,68)" stroke="none" font-family="helvetica" font-size="11px" font-style="normal" font-weight="normal" text-decoration="normal" x="184.87998962402344" y="245.89013671875" text-anchor="start" dominant-baseline="alphabetic" transform="matrix(1, 0, 0, 1, 0.5, 0.5)" fill-opacity="1">0.6</text><text fill="rgb(68,68,68)" stroke="none" font-family="helvetica" font-size="11px" font-style="normal" font-weight="normal" text-decoration="normal" x="228.6916046142578" y="245.89013671875" text-anchor="start" dominant-baseline="alphabetic" transform="matrix(1, 0, 0, 1, 0.5, 0.5)" fill-opacity="1">0.8</text><text fill="rgb(68,68,68)" stroke="none" font-family="helvetica" font-size="13px" font-style="italic" font-weight="normal" text-decoration="normal" x="123.819580078125" y="265.89013671875" text-anchor="start" dominant-baseline="alphabetic" transform="matrix(1, 0, 0, 1, 0.5, 0.5)" fill-opacity="1">Observed</text><path fill="none" stroke="rgb(0,0,0)" paint-order="fill" d="M 52.5 227.5 L 52.5 27.5" stroke-opacity="1" stroke-linejoin="bevel" stroke-miterlimit="10" stroke-dasharray=""/><path fill="none" stroke="rgb(0,0,0)" paint-order="fill" d="M 46.5 220.5 L 54.5 220.5 M 46.5 184.5 L 54.5 184.5 M 46.5 148.5 L 54.5 148.5 M 46.5 112.5 L 54.5 112.5 M 46.5 77.5 L 54.5 77.5 M 46.5 41.5 L 54.5 41.5" stroke-opacity="1" stroke-linejoin="bevel" stroke-miterlimit="10" stroke-dasharray=""/><path fill="none" stroke="rgb(0,0,0)" paint-order="fill" d="M 48.5 220.5 L 52.5 220.5 M 48.5 213.5 L 52.5 213.5 M 48.5 206.5 L 52.5 206.5 M 48.5 198.5 L 52.5 198.5 M 48.5 191.5 L 52.5 191.5 M 48.5 184.5 L 52.5 184.5 M 48.5 177.5 L 52.5 177.5 M 48.5 170.5 L 52.5 170.5 M 48.5 163.5 L 52.5 163.5 M 48.5 155.5 L 52.5 155.5 M 48.5 148.5 L 52.5 148.5 M 48.5 141.5 L 52.5 141.5 M 48.5 134.5 L 52.5 134.5 M 48.5 127.5 L 52.5 127.5 M 48.5 120.5 L 52.5 120.5 M 48.5 112.5 L 52.5 112.5 M 48.5 105.5 L 52.5 105.5 M 48.5 98.5 L 52.5 98.5 M 48.5 91.5 L 52.5 91.5 M 48.5 84.5 L 52.5 84.5 M 48.5 77.5 L 52.5 77.5 M 48.5 70.5 L 52.5 70.5 M 48.5 62.5 L 52.5 62.5 M 48.5 55.5 L 52.5 55.5 M 48.5 48.5 L 52.5 48.5 M 48.5 41.5 L 52.5 41.5 M 48.5 34.5 L 52.5 34.5" stroke-opacity="1" stroke-linejoin="bevel" stroke-miterlimit="10" stroke-dasharray=""/><text fill="rgb(68,68,68)" stroke="none" font-family="helvetica" font-size="11px" font-style="normal" font-weight="normal" text-decoration="normal" x="34.88232421875" y="223.8305206298828" text-anchor="start" dominant-baseline="alphabetic" transform="matrix(1, 0, 0, 1, 0.5, 0.5)" fill-opacity="1">0</text><text fill="rgb(68,68,68)" stroke="none" font-family="helvetica" font-size="11px" font-style="normal" font-weight="normal" text-decoration="normal" x="25.70849609375" y="188.02685546875" text-anchor="start" dominant-baseline="alphabetic" transform="matrix(1, 0, 0, 1, 0.5, 0.5)" fill-opacity="1">0.1</text><text fill="rgb(68,68,68)" stroke="none" font-family="helvetica" font-size="11px" font-style="normal" font-weight="normal" text-decoration="normal" x="25.70849609375" y="152.2231903076172" text-anchor="start" dominant-baseline="alphabetic" transform="matrix(1, 0, 0, 1, 0.5, 0.5)" fill-opacity="1">0.2</text><text fill="rgb(68,68,68)" stroke="none" font-family="helvetica" font-size="11px" font-style="normal" font-weight="normal" text-decoration="normal" x="25.70849609375" y="116.41951751708984" text-anchor="start" dominant-baseline="alphabetic" transform="matrix(1, 0, 0, 1, 0.5, 0.5)" fill-opacity="1">0.3</text><text fill="rgb(68,68,68)" stroke="none" font-family="helvetica" font-size="11px" font-style="normal" font-weight="normal" text-decoration="normal" x="25.70849609375" y="80.61585235595703" text-anchor="start" dominant-baseline="alphabetic" transform="matrix(1, 0, 0, 1, 0.5, 0.5)" fill-opacity="1">0.4</text><text fill="rgb(68,68,68)" stroke="none" font-family="helvetica" font-size="11px" font-style="normal" font-weight="normal" text-decoration="normal" x="25.70849609375" y="44.81218719482422" text-anchor="start" dominant-baseline="alphabetic" transform="matrix(1, 0, 0, 1, 0.5, 0.5)" fill-opacity="1">0.5</text><text fill="rgb(68,68,68)" stroke="none" font-family="helvetica" font-size="13px" font-style="italic" font-weight="normal" text-decoration="normal" x="-9.75146484375" y="124" text-anchor="start" dominant-baseline="alphabetic" transform="matrix(6.123233995736766e-17, -1, 1, 6.123233995736766e-17, -108.79150390625, 145.20849609375)" fill-opacity="1">Predicted</text><path fill="none" stroke="rgb(255,140,0)" paint-order="fill" d="M 179.60427163198185 27.5 L 57.23800657174154 227.5" stroke-opacity="1" stroke-linejoin="bevel" stroke-miterlimit="10" stroke-width="2" stroke-dasharray="" clip-path="url(#GWwfOvWNEliz)"/><path fill="none" stroke="none"/><text fill="rgb(68,68,68)" stroke="none" font-family="helvetica" font-size="13px" font-style="normal" font-weight="bold" text-decoration="normal" x="0" y="0" text-anchor="start" dominant-baseline="text-after-edge" transform="matrix(1, 0, 0, 1, 52.5, 22.5)" fill-opacity="1">NO2 (µmol/L), &lt;R²&gt; = -0.52</text></svg>