<svg version="1.1" xmlns="http://www.w3.org/2000/svg" xmlns:xlink="http://www.w3.org/1999/xlink" width="263" height="272"><defs><clipPath id="SZewWbOCHNeg"><path fill="none" stroke="none" d="M 58.5 27.5 L 258.5 27.5 L 258.5 227.5 L 58.5 227.5 L 58.5 27.5"/></clipPath><clipPath id="wZdUZcVMuAQi"><path fill="none" stroke="none" d="M 58.5 27.5 L 258.5 27.5 L 258.5 227.5 L 58.5 227.5 L 58.5 27.5"/></clipPath><clipPath id="WbmnCaNUIGkA"><path fill="none" stroke="none" d="M 58.5 27.5 L 258.5 27.5 L 258.5 227.5 L 58.5 227.5 L 58.5 27.5"/></clipPath><clipPath id="gOyLzSNTllua"><path fill="none" stroke="none" d="M 58.5 27.5 L 258.5 27.5 L 258.5 227.5 L 58.5 227.5 L 58.5 27.5"/></clipPath><clipPath id="BIzWkEALynFO"><path fill="none" stroke="none" d="M 58.5 27.5 L 258.5 27.5 L 258.5 227.5 L 58.5 227.5 L 58.5 27.5"/></clipPath></defs><path fill="none" stroke="rgb(229,229,229)" paint-order="fill" d="M 58.5 27.5 L 258.5 27.5 L 258.5 227.5 L 58.5 227.5 L 58.5 27.5" stroke-opacity="1" stroke-linejoin="bevel" stroke-miterlimit="10" stroke-dasharray=""/><path fill="none" stroke="rgb(229,229,229)" paint-order="fill" d="M 67.5 227.5 L 67.5 27.5 M 105.5 227.5 L 105.5 27.5 M 143.5 227.5 L 143.5 27.5 M 181.5 227.5 L 181.5 27.5 M 219.5 227.5 L 219.5 27.5 M 256.5 227.5 L 256.5 27.5" stroke-opacity="1" stroke-linejoin="bevel" stroke-miterlimit="10" stroke-dasharray="" clip-path="url(#SZewWbOCHNeg)"/><path fill="none" stroke="rgb(229,229,229)" paint-order="fill" d="M 58.5 183.5 L 258.5 183.5 M 58.5 136.5 L 258.5 136.5 M 58.5 88.5 L 258.5 88.5 M 58.5 41.5 L 258.5 41.5" stroke-opacity="1" stroke-linejoin="bevel" stroke-miterlimit="10" stroke-dasharray="" clip-path="url(#wZdUZcVMuAQi)"/><path fill="none" stroke="none"/><path fill="rgb(31,119,180)" stroke="rgb(31,119,180)" paint-order="fill" d="M 152.9242401123047 122.4824447631836 A 2 2 0 1 1 152.92423911230478 122.48044476351693" fill-opacity="1" clip-path="url(#WbmnCaNUIGkA)" stroke-opacity="1" stroke-linejoin="bevel" stroke-miterlimit="10" stroke-dasharray=""/><path fill="rgb(31,119,180)" stroke="rgb(31,119,180)" paint-order="fill" d="M 205.9545440673828 144.86846923828125 A 2 2 0 1 1 205.9545430673829 144.86646923861457" fill-opacity="1" clip-path="url(#WbmnCaNUIGkA)" stroke-opacity="1" stroke-linejoin="bevel" stroke-miterlimit="10" stroke-dasharray=""/><path fill="rgb(31,119,180)" stroke="rgb(31,119,180)" paint-order="fill" d="M 213.53030395507812 120.33609771728516 A 2 2 0 1 1 213.5303029550782 120.33409771761849" fill-opacity="1" clip-path="url(#WbmnCaNUIGkA)" stroke-opacity="1" stroke-linejoin="bevel" stroke-miterlimit="10" stroke-dasharray=""/><path fill="rgb(31,119,180)" stroke="rgb(31,119,180)" paint-order="fill" d="M 115.04545593261719 95.70958709716797 A 2 2 0 1 1 115.04545493261728 95.7075870975013" fill-opacity="1" clip-path="url(#WbmnCaNUIGkA)" stroke-opacity="1" stroke-linejoin="bevel" stroke-miterlimit="10" stroke-dasharray=""/><path fill="rgb(31,119,180)" stroke="rgb(31,119,180)" paint-order="fill" d="M 251.40908813476562 66.99748992919922 A 2 2 0 1 1 251.4090871347657 66.99548992953255" fill-opacity="1" clip-path="url(#WbmnCaNUIGkA)" stroke-opacity="1" stroke-linejoin="bevel" stroke-miterlimit="10" stroke-dasharray=""/><path fill="rgb(31,119,180)" stroke="rgb(31,119,180)" paint-order="fill" d="M 168.0757598876953 101.79090881347656 A 2 2 0 1 1 168.0757588876954 101.7889088138099" fill-opacity="1" clip-path="url(#WbmnCaNUIGkA)" stroke-opacity="1" stroke-linejoin="bevel" stroke-miterlimit="10" stroke-dasharray=""/><path fill="rgb(31,119,180)" stroke="rgb(31,119,180)" paint-order="fill" d="M 236.257568359375 128.33782958984375 A 2 2 0 1 1 236.2575673593751 128.33582959017707" fill-opacity="1" clip-path="url(#WbmnCaNUIGkA)" stroke-opacity="1" stroke-linejoin="bevel" stroke-miterlimit="10" stroke-dasharray=""/><path fill="rgb(31,119,180)" stroke="rgb(31,119,180)" paint-order="fill" d="M 99.89393615722656 181.84588623046875 A 2 2 0 1 1 99.89393515722665 181.84388623080207" fill-opacity="1" clip-path="url(#WbmnCaNUIGkA)" stroke-opacity="1" stroke-linejoin="bevel" stroke-miterlimit="10" stroke-dasharray=""/><path fill="rgb(31,119,180)" stroke="rgb(31,119,180)" paint-order="fill" d="M 92.31818389892578 201.6148681640625 A 2 2 0 1 1 92.31818289892587 201.61286816439582" fill-opacity="1" clip-path="url(#WbmnCaNUIGkA)" stroke-opacity="1" stroke-linejoin="bevel" stroke-miterlimit="10" stroke-dasharray=""/><path fill="rgb(31,119,180)" stroke="rgb(31,119,180)" paint-order="fill" d="M 92.31818389892578 218.40908813476562 A 2 2 0 1 1 92.31818289892587 218.40708813509895" fill-opacity="1" clip-path="url(#WbmnCaNUIGkA)" stroke-opacity="1" stroke-linejoin="bevel" stroke-miterlimit="10" stroke-dasharray=""/><path fill="rgb(31,119,180)" stroke="rgb(31,119,180)" paint-order="fill" d="M 236.257568359375 57.3765869140625 A 2 2 0 1 1 236.2575673593751 57.374586914395834" fill-opacity="1" clip-path="url(#WbmnCaNUIGkA)" stroke-opacity="1" stroke-linejoin="bevel" stroke-miterlimit="10" stroke-dasharray=""/><path fill="rgb(31,119,180)" stroke="rgb(31,119,180)" paint-order="fill" d="M 251.40908813476562 137.29977416992188 A 2 2 0 1 1 251.4090871347657 137.2977741702552" fill-opacity="1" clip-path="url(#WbmnCaNUIGkA)" stroke-opacity="1" stroke-linejoin="bevel" stroke-miterlimit="10" stroke-dasharray=""/><path fill="rgb(31,119,180)" stroke="rgb(31,119,180)" paint-order="fill" d="M 243.8333282470703 91.05917358398438 A 2 2 0 1 1 243.8333272470704 91.05717358431771" fill-opacity="1" clip-path="url(#WbmnCaNUIGkA)" stroke-opacity="1" stroke-linejoin="bevel" stroke-miterlimit="10" stroke-dasharray=""/><path fill="rgb(31,119,180)" stroke="rgb(31,119,180)" paint-order="fill" d="M 69.59091186523438 156.74868774414062 A 2 2 0 1 1 69.59091086523446 156.74668774447395" fill-opacity="1" clip-path="url(#WbmnCaNUIGkA)" stroke-opacity="1" stroke-linejoin="bevel" stroke-miterlimit="10" stroke-dasharray=""/><path fill="rgb(31,119,180)" stroke="rgb(31,119,180)" paint-order="fill" d="M 130.19696807861328 167.7063446044922 A 2 2 0 1 1 130.19696707861337 167.7043446048255" fill-opacity="1" clip-path="url(#WbmnCaNUIGkA)" stroke-opacity="1" stroke-linejoin="bevel" stroke-miterlimit="10" stroke-dasharray=""/><path fill="rgb(31,119,180)" stroke="rgb(31,119,180)" paint-order="fill" d="M 251.40908813476562 110.56456756591797 A 2 2 0 1 1 251.4090871347657 110.5625675662513" fill-opacity="1" clip-path="url(#WbmnCaNUIGkA)" stroke-opacity="1" stroke-linejoin="bevel" stroke-miterlimit="10" stroke-dasharray=""/><path fill="rgb(31,119,180)" stroke="rgb(31,119,180)" paint-order="fill" d="M 115.04545593261719 180.43380737304688 A 2 2 0 1 1 115.04545493261728 180.4318073733802" fill-opacity="1" clip-path="url(#WbmnCaNUIGkA)" stroke-opacity="1" stroke-linejoin="bevel" stroke-miterlimit="10" stroke-dasharray=""/><path fill="rgb(31,119,180)" stroke="rgb(31,119,180)" paint-order="fill" d="M 243.8333282470703 36.59090805053711 A 2 2 0 1 1 243.8333272470704 36.588908050870444" fill-opacity="1" clip-path="url(#WbmnCaNUIGkA)" stroke-opacity="1" stroke-linejoin="bevel" stroke-miterlimit="10" stroke-dasharray=""/><path fill="rgb(31,119,180)" stroke="rgb(31,119,180)" paint-order="fill" d="M 115.04545593261719 156.5415802001953 A 2 2 0 1 1 115.04545493261728 156.53958020052863" fill-opacity="1" clip-path="url(#WbmnCaNUIGkA)" stroke-opacity="1" stroke-linejoin="bevel" stroke-miterlimit="10" stroke-dasharray=""/><path fill="rgb(31,119,180)" stroke="rgb(31,119,180)" paint-order="fill" d="M 115.04545593261719 160.966064453125 A 2 2 0 1 1 115.04545493261728 160.96406445345832" fill-opacity="1" clip-path="url(#WbmnCaNUIGkA)" stroke-opacity="1" stroke-linejoin="bevel" stroke-miterlimit="10" stroke-dasharray=""/><path fill="rgb(31,119,180)" stroke="rgb(31,119,180)" paint-order="fill" d="M 92.31818389892578 198.1317596435547 A 2 2 0 1 1 92.31818289892587 198.129759643888" fill-opacity="1" clip-path="url(#WbmnCaNUIGkA)" stroke-opacity="1" stroke-linejoin="bevel" stroke-miterlimit="10" stroke-dasharray=""/><path fill="none" stroke="rgb(0,0,0)" paint-order="fill" d="M 58.5 227.5 L 258.5 227.5" stroke-opacity="1" stroke-linejoin="bevel" stroke-miterlimit="10" stroke-dasharray=""/><path fill="none" stroke="rgb(0,0,0)" paint-order="fill" d="M 67.5 233.5 L 67.5 225.5 M 105.5 233.5 L 105.5 225.5 M 143.5 233.5 L 143.5 225.5 M 181.5 233.5 L 181.5 225.5 M 219.5 233.5 L 219.5 225.5 M 256.5 233.5 L 256.5 225.5" stroke-opacity="1" stroke-linejoin="bevel" stroke-miterlimit="10" stroke-dasharray=""/><path fill="none" stroke="rgb(0,0,0)" paint-order="fill" d="M 60.5 231.5 L 60.5 227.5 M 67.5 231.5 L 67.5 227.5 M 75.5 231.5 L 75.5 227.5 M 82.5 231.5 L 82.5 227.5 M 90.5 231.5 L 90.5 227.5 M 97.5 231.5 L 97.5 227.5 M 105.5 231.5 L 105.5 227.5 M 113.5 231.5 L 113.5 227.5 M 120.5 231.5 L 120.5 227.5 M 128.5 231.5 L 128.5 227.5 M 135.5 231.5 L 135.5 227.5 M 143.5 231.5 L 143.5 227.5 M 150.5 231.5 L 150.5 227.5 M 158.5 231.5 L 158.5 227.5 M 166.5 231.5 L 166.5 227.5 M 173.5 231.5 L 173.5 227.5 M 181.5 231.5 L 181.5 227.5 M 188.5 231.5 L 188.5 227.5 M 196.5 231.5 L 196.5 227.5 M 203.5 231.5 L 203.5 227.5 M 211.5 231.5 L 211.5 227.5 M 219.5 231.5 L 219.5 227.5 M 226.5 231.5 L 226.5 227.5 M 234.5 231.5 L 234.5 227.5 M 241.5 231.5 L 241.5 227.5 M 249.5 231.5 L 249.5 227.5 M 256.5 231.5 L 256.5 227.5" stroke-opacity="1" stroke-linejoin="bevel" stroke-miterlimit="10" stroke-dasharray=""/><text fill="rgb(68,68,68)" stroke="none" font-family="helvetica" font-size="11px" font-style="normal" font-weight="normal" text-decoration="normal" x="60.973236083984375" y="245.89013671875" text-anchor="start" dominant-baseline="alphabetic" transform="matrix(1, 0, 0, 1, 0.5, 0.5)" fill-opacity="1">34</text><text fill="rgb(68,68,68)" stroke="none" font-family="helvetica" font-size="11px" font-style="normal" font-weight="normal" text-decoration="normal" x="94.26510620117188" y="245.89013671875" text-anchor="start" dominant-baseline="alphabetic" transform="matrix(1, 0, 0, 1, 0.5, 0.5)" fill-opacity="1">34.5</text><text fill="rgb(68,68,68)" stroke="none" font-family="helvetica" font-size="11px" font-style="normal" font-weight="normal" text-decoration="normal" x="136.73080444335938" y="245.89013671875" text-anchor="start" dominant-baseline="alphabetic" transform="matrix(1, 0, 0, 1, 0.5, 0.5)" fill-opacity="1">35</text><text fill="rgb(68,68,68)" stroke="none" font-family="helvetica" font-size="11px" font-style="normal" font-weight="normal" text-decoration="normal" x="170.02268981933594" y="245.89013671875" text-anchor="start" dominant-baseline="alphabetic" transform="matrix(1, 0, 0, 1, 0.5, 0.5)" fill-opacity="1">35.5</text><text fill="rgb(68,68,68)" stroke="none" font-family="helvetica" font-size="11px" font-style="normal" font-weight="normal" text-decoration="normal" x="212.48838806152344" y="245.89013671875" text-anchor="start" dominant-baseline="alphabetic" transform="matrix(1, 0, 0, 1, 0.5, 0.5)" fill-opacity="1">36</text><text fill="rgb(68,68,68)" stroke="none" font-family="helvetica" font-size="11px" font-style="normal" font-weight="normal" text-decoration="normal" x="241.5908203125" y="245.89013671875" text-anchor="start" dominant-baseline="alphabetic" transform="matrix(1, 0, 0, 1, 0.5, 0.5)" fill-opacity="1">36.5</text><text fill="rgb(68,68,68)" stroke="none" font-family="helvetica" font-size="13px" font-style="italic" font-weight="normal" text-decoration="normal" x="129.819580078125" y="265.89013671875" text-anchor="start" dominant-baseline="alphabetic" transform="matrix(1, 0, 0, 1, 0.5, 0.5)" fill-opacity="1">Observed</text><path fill="none" stroke="rgb(0,0,0)" paint-order="fill" d="M 58.5 227.5 L 58.5 27.5" stroke-opacity="1" stroke-linejoin="bevel" stroke-miterlimit="10" stroke-dasharray=""/><path fill="none" stroke="rgb(0,0,0)" paint-order="fill" d="M 52.5 183.5 L 60.5 183.5 M 52.5 136.5 L 60.5 136.5 M 52.5 88.5 L 60.5 88.5 M 52.5 41.5 L 60.5 41.5" stroke-opacity="1" stroke-linejoin="bevel" stroke-miterlimit="10" stroke-dasharray=""/><path fill="none" stroke="rgb(0,0,0)" paint-order="fill" d="M 54.5 192.5 L 58.5 192.5 M 54.5 201.5 L 58.5 201.5 M 54.5 211.5 L 58.5 211.5 M 54.5 220.5 L 58.5 220.5 M 54.5 183.5 L 58.5 183.5 M 54.5 173.5 L 58.5 173.5 M 54.5 164.5 L 58.5 164.5 M 54.5 154.5 L 58.5 154.5 M 54.5 145.5 L 58.5 145.5 M 54.5 136.5 L 58.5 136.5 M 54.5 126.5 L 58.5 126.5 M 54.5 117.5 L 58.5 117.5 M 54.5 107.5 L 58.5 107.5 M 54.5 98.5 L 58.5 98.5 M 54.5 88.5 L 58.5 88.5 M 54.5 79.5 L 58.5 79.5 M 54.5 70.5 L 58.5 70.5 M 54.5 60.5 L 58.5 60.5 M 54.5 51.5 L 58.5 51.5 M 54.5 41.5 L 58.5 41.5 M 54.5 32.5 L 58.5 32.5" stroke-opacity="1" stroke-linejoin="bevel" stroke-miterlimit="10" stroke-dasharray=""/><text fill="rgb(68,68,68)" stroke="none" font-family="helvetica" font-size="11px" font-style="normal" font-weight="normal" text-decoration="normal" x="34.7646484375" y="186.55239868164062" text-anchor="start" dominant-baseline="alphabetic" transform="matrix(1, 0, 0, 1, 0.5, 0.5)" fill-opacity="1">35</text><text fill="rgb(68,68,68)" stroke="none" font-family="helvetica" font-size="11px" font-style="normal" font-weight="normal" text-decoration="normal" x="25.5908203125" y="139.48338317871094" text-anchor="start" dominant-baseline="alphabetic" transform="matrix(1, 0, 0, 1, 0.5, 0.5)" fill-opacity="1">35.5</text><text fill="rgb(68,68,68)" stroke="none" font-family="helvetica" font-size="11px" font-style="normal" font-weight="normal" text-decoration="normal" x="34.7646484375" y="92.41437530517578" text-anchor="start" dominant-baseline="alphabetic" transform="matrix(1, 0, 0, 1, 0.5, 0.5)" fill-opacity="1">36</text><text fill="rgb(68,68,68)" stroke="none" font-family="helvetica" font-size="11px" font-style="normal" font-weight="normal" text-decoration="normal" x="25.5908203125" y="45.34536361694336" text-anchor="start" dominant-baseline="alphabetic" transform="matrix(1, 0, 0, 1, 0.5, 0.5)" fill-opacity="1">36.5</text><text fill="rgb(68,68,68)" stroke="none" font-family="helvetica" font-size="13px" font-style="italic" font-weight="normal" text-decoration="normal" x="-9.869140625" y="124" text-anchor="start" dominant-baseline="alphabetic" transform="matrix(6.123233995736766e-17, -1, 1, 6.123233995736766e-17, -108.9091796875, 145.0908203125)" fill-opacity="1">Predicted</text><path fill="none" stroke="rgb(255,140,0)" paint-order="fill" d="M 268.5734848484817 27.5 L 107.62348484848326 227.5" stroke-opacity="1" stroke-linejoin="bevel" stroke-miterlimit="10" stroke-width="2" stroke-dasharray="" clip-path="url(#gOyLzSNTllua)"/><path fill="none" stroke="none"/><text fill="rgb(68,68,68)" stroke="none" font-family="helvetica" font-size="13px" font-style="normal" font-weight="bold" text-decoration="normal" x="0" y="0" text-anchor="start" dominant-baseline="text-after-edge" transform="matrix(1, 0, 0, 1, 58.5, 22.5)" fill-opacity="1">Salinity (PSU), &lt;R²&gt; = 0.14</text></svg>