<svg version="1.1" xmlns="http://www.w3.org/2000/svg" xmlns:xlink="http://www.w3.org/1999/xlink" width="254" height="272"><defs><clipPath id="ACykFkUmoZgK"><path fill="none" stroke="none" d="M 49.5 27.5 L 249.5 27.5 L 249.5 227.5 L 49.5 227.5 L 49.5 27.5"/></clipPath><clipPath id="gEWPAXLIqxLW"><path fill="none" stroke="none" d="M 49.5 27.5 L 249.5 27.5 L 249.5 227.5 L 49.5 227.5 L 49.5 27.5"/></clipPath><clipPath id="OUOuvTsvuEuW"><path fill="none" stroke="none" d="M 49.5 27.5 L 249.5 27.5 L 249.5 227.5 L 49.5 227.5 L 49.5 27.5"/></clipPath><clipPath id="ltkFiUkLHDTB"><path fill="none" stroke="none" d="M 49.5 27.5 L 249.5 27.5 L 249.5 227.5 L 49.5 227.5 L 49.5 27.5"/></clipPath><clipPath id="cIPBDymTOnwS"><path fill="none" stroke="none" d="M 49.5 27.5 L 249.5 27.5 L 249.5 227.5 L 49.5 227.5 L 49.5 27.5"/></clipPath></defs><path fill="none" stroke="rgb(229,229,229)" paint-order="fill" d="M 49.5 27.5 L 249.5 27.5 L 249.5 227.5 L 49.5 227.5 L 49.5 27.5" stroke-opacity="1" stroke-linejoin="bevel" stroke-miterlimit="10" stroke-dasharray=""/><path fill="none" stroke="rgb(229,229,229)" paint-order="fill" d="M 51.5 227.5 L 51.5 27.5 M 89.5 227.5 L 89.5 27.5 M 127.5 227.5 L 127.5 27.5 M 165.5 227.5 L 165.5 27.5 M 203.5 227.5 L 203.5 27.5 M 241.5 227.5 L 241.5 27.5" stroke-opacity="1" stroke-linejoin="bevel" stroke-miterlimit="10" stroke-dasharray="" clip-path="url(#ACykFkUmoZgK)"/><path fill="none" stroke="rgb(229,229,229)" paint-order="fill" d="M 49.5 193.5 L 249.5 193.5 M 49.5 147.5 L 249.5 147.5 M 49.5 101.5 L 249.5 101.5 M 49.5 54.5 L 249.5 54.5" stroke-opacity="1" stroke-linejoin="bevel" stroke-miterlimit="10" stroke-dasharray="" clip-path="url(#gEWPAXLIqxLW)"/><path fill="none" stroke="none"/><path fill="rgb(31,119,180)" stroke="rgb(31,119,180)" paint-order="fill" d="M 83.41327667236328 188.47189331054688 A 2 2 0 1 1 83.41327567236337 188.4698933108802" fill-opacity="1" clip-path="url(#OUOuvTsvuEuW)" stroke-opacity="1" stroke-linejoin="bevel" stroke-miterlimit="10" stroke-dasharray=""/><path fill="rgb(31,119,180)" stroke="rgb(31,119,180)" paint-order="fill" d="M 199.80734252929688 71.41249084472656 A 2 2 0 1 1 199.80734152929696 71.4104908450599" fill-opacity="1" clip-path="url(#OUOuvTsvuEuW)" stroke-opacity="1" stroke-linejoin="bevel" stroke-miterlimit="10" stroke-dasharray=""/><path fill="rgb(31,119,180)" stroke="rgb(31,119,180)" paint-order="fill" d="M 242.40908813476562 36.59090805053711 A 2 2 0 1 1 242.4090871347657 36.588908050870444" fill-opacity="1" clip-path="url(#OUOuvTsvuEuW)" stroke-opacity="1" stroke-linejoin="bevel" stroke-miterlimit="10" stroke-dasharray=""/><path fill="rgb(31,119,180)" stroke="rgb(31,119,180)" paint-order="fill" d="M 148.07664489746094 137.91253662109375 A 2 2 0 1 1 148.07664389746103 137.91053662142707" fill-opacity="1" clip-path="url(#OUOuvTsvuEuW)" stroke-opacity="1" stroke-linejoin="bevel" stroke-miterlimit="10" stroke-dasharray=""/><path fill="rgb(31,119,180)" stroke="rgb(31,119,180)" paint-order="fill" d="M 223.3904571533203 52.336063385009766 A 2 2 0 1 1 223.3904561533204 52.3340633853431" fill-opacity="1" clip-path="url(#OUOuvTsvuEuW)" stroke-opacity="1" stroke-linejoin="bevel" stroke-miterlimit="10" stroke-dasharray=""/><path fill="rgb(31,119,180)" stroke="rgb(31,119,180)" paint-order="fill" d="M 215.02224731445312 47.83349609375 A 2 2 0 1 1 215.0222463144532 47.831496094083334" fill-opacity="1" clip-path="url(#OUOuvTsvuEuW)" stroke-opacity="1" stroke-linejoin="bevel" stroke-miterlimit="10" stroke-dasharray=""/><path fill="rgb(31,119,180)" stroke="rgb(31,119,180)" paint-order="fill" d="M 189.1569061279297 58.30321502685547 A 2 2 0 1 1 189.15690512792978 58.3012150271888" fill-opacity="1" clip-path="url(#OUOuvTsvuEuW)" stroke-opacity="1" stroke-linejoin="bevel" stroke-miterlimit="10" stroke-dasharray=""/><path fill="rgb(31,119,180)" stroke="rgb(31,119,180)" paint-order="fill" d="M 218.0652313232422 39.15853500366211 A 2 2 0 1 1 218.06523032324228 39.156535003995444" fill-opacity="1" clip-path="url(#OUOuvTsvuEuW)" stroke-opacity="1" stroke-linejoin="bevel" stroke-miterlimit="10" stroke-dasharray=""/><path fill="rgb(31,119,180)" stroke="rgb(31,119,180)" paint-order="fill" d="M 211.97926330566406 50.7331428527832 A 2 2 0 1 1 211.97926230566415 50.73114285311654" fill-opacity="1" clip-path="url(#OUOuvTsvuEuW)" stroke-opacity="1" stroke-linejoin="bevel" stroke-miterlimit="10" stroke-dasharray=""/><path fill="rgb(31,119,180)" stroke="rgb(31,119,180)" paint-order="fill" d="M 223.3904571533203 41.73353958129883 A 2 2 0 1 1 223.3904561533204 41.73153958163216" fill-opacity="1" clip-path="url(#OUOuvTsvuEuW)" stroke-opacity="1" stroke-linejoin="bevel" stroke-miterlimit="10" stroke-dasharray=""/><path fill="rgb(31,119,180)" stroke="rgb(31,119,180)" paint-order="fill" d="M 219.58673095703125 46.58657455444336 A 2 2 0 1 1 219.58672995703134 46.584574554776694" fill-opacity="1" clip-path="url(#OUOuvTsvuEuW)" stroke-opacity="1" stroke-linejoin="bevel" stroke-miterlimit="10" stroke-dasharray=""/><path fill="rgb(31,119,180)" stroke="rgb(31,119,180)" paint-order="fill" d="M 60.59090805053711 218.40908813476562 A 2 2 0 1 1 60.59090705053719 218.40708813509895" fill-opacity="1" clip-path="url(#OUOuvTsvuEuW)" stroke-opacity="1" stroke-linejoin="bevel" stroke-miterlimit="10" stroke-dasharray=""/><path fill="rgb(31,119,180)" stroke="rgb(31,119,180)" paint-order="fill" d="M 172.42050170898438 91.2986831665039 A 2 2 0 1 1 172.42050070898446 91.29668316683724" fill-opacity="1" clip-path="url(#OUOuvTsvuEuW)" stroke-opacity="1" stroke-linejoin="bevel" stroke-miterlimit="10" stroke-dasharray=""/><path fill="rgb(31,119,180)" stroke="rgb(31,119,180)" paint-order="fill" d="M 218.0652313232422 48.72072982788086 A 2 2 0 1 1 218.06523032324228 48.718729828214194" fill-opacity="1" clip-path="url(#OUOuvTsvuEuW)" stroke-opacity="1" stroke-linejoin="bevel" stroke-miterlimit="10" stroke-dasharray=""/><path fill="rgb(31,119,180)" stroke="rgb(31,119,180)" paint-order="fill" d="M 138.94769287109375 147.48948669433594 A 2 2 0 1 1 138.94769187109384 147.48748669466926" fill-opacity="1" clip-path="url(#OUOuvTsvuEuW)" stroke-opacity="1" stroke-linejoin="bevel" stroke-miterlimit="10" stroke-dasharray=""/><path fill="rgb(31,119,180)" stroke="rgb(31,119,180)" paint-order="fill" d="M 171.65975952148438 86.53787994384766 A 2 2 0 1 1 171.65975852148446 86.53587994418099" fill-opacity="1" clip-path="url(#OUOuvTsvuEuW)" stroke-opacity="1" stroke-linejoin="bevel" stroke-miterlimit="10" stroke-dasharray=""/><path fill="rgb(31,119,180)" stroke="rgb(31,119,180)" paint-order="fill" d="M 205.13255310058594 70.2264404296875 A 2 2 0 1 1 205.13255210058603 70.22444043002083" fill-opacity="1" clip-path="url(#OUOuvTsvuEuW)" stroke-opacity="1" stroke-linejoin="bevel" stroke-miterlimit="10" stroke-dasharray=""/><path fill="rgb(31,119,180)" stroke="rgb(31,119,180)" paint-order="fill" d="M 77.32730865478516 206.6887664794922 A 2 2 0 1 1 77.32730765478524 206.6867664798255" fill-opacity="1" clip-path="url(#OUOuvTsvuEuW)" stroke-opacity="1" stroke-linejoin="bevel" stroke-miterlimit="10" stroke-dasharray=""/><path fill="rgb(31,119,180)" stroke="rgb(31,119,180)" paint-order="fill" d="M 160.2485809326172 127.90764617919922 A 2 2 0 1 1 160.24857993261728 127.90564617953255" fill-opacity="1" clip-path="url(#OUOuvTsvuEuW)" stroke-opacity="1" stroke-linejoin="bevel" stroke-miterlimit="10" stroke-dasharray=""/><path fill="rgb(31,119,180)" stroke="rgb(31,119,180)" paint-order="fill" d="M 217.3044891357422 52.27150344848633 A 2 2 0 1 1 217.30448813574228 52.26950344881966" fill-opacity="1" clip-path="url(#OUOuvTsvuEuW)" stroke-opacity="1" stroke-linejoin="bevel" stroke-miterlimit="10" stroke-dasharray=""/><path fill="rgb(31,119,180)" stroke="rgb(31,119,180)" paint-order="fill" d="M 96.345947265625 207.72171020507812 A 2 2 0 1 1 96.34594626562509 207.71971020541145" fill-opacity="1" clip-path="url(#OUOuvTsvuEuW)" stroke-opacity="1" stroke-linejoin="bevel" stroke-miterlimit="10" stroke-dasharray=""/><path fill="none" stroke="rgb(0,0,0)" paint-order="fill" d="M 49.5 227.5 L 249.5 227.5" stroke-opacity="1" stroke-linejoin="bevel" stroke-miterlimit="10" stroke-dasharray=""/><path fill="none" stroke="rgb(0,0,0)" paint-order="fill" d="M 51.5 233.5 L 51.5 225.5 M 89.5 233.5 L 89.5 225.5 M 127.5 233.5 L 127.5 225.5 M 165.5 233.5 L 165.5 225.5 M 203.5 233.5 L 203.5 225.5 M 241.5 233.5 L 241.5 225.5" stroke-opacity="1" stroke-linejoin="bevel" stroke-miterlimit="10" stroke-dasharray=""/><path fill="none" stroke="rgb(0,0,0)" paint-order="fill" d="M 51.5 231.5 L 51.5 227.5 M 59.5 231.5 L 59.5 227.5 M 66.5 231.5 L 66.5 227.5 M 74.5 231.5 L 74.5 227.5 M 82.5 231.5 L 82.5 227.5 M 89.5 231.5 L 89.5 227.5 M 97.5 231.5 L 97.5 227.5 M 104.5 231.5 L 104.5 227.5 M 112.5 231.5 L 112.5 227.5 M 120.5 231.5 L 120.5 227.5 M 127.5 231.5 L 127.5 227.5 M 135.5 231.5 L 135.5 227.5 M 143.5 231.5 L 143.5 227.5 M 150.5 231.5 L 150.5 227.5 M 158.5 231.5 L 158.5 227.5 M 165.5 231.5 L 165.5 227.5 M 173.5 231.5 L 173.5 227.5 M 181.5 231.5 L 181.5 227.5 M 188.5 231.5 L 188.5 227.5 M 196.5 231.5 L 196.5 227.5 M 203.5 231.5 L 203.5 227.5 M 211.5 231.5 L 211.5 227.5 M 219.5 231.5 L 219.5 227.5 M 226.5 231.5 L 226.5 227.5 M 234.5 231.5 L 234.5 227.5 M 241.5 231.5 L 241.5 227.5" stroke-opacity="1" stroke-linejoin="bevel" stroke-miterlimit="10" stroke-dasharray=""/><text fill="rgb(68,68,68)" stroke="none" font-family="helvetica" font-size="11px" font-style="normal" font-weight="normal" text-decoration="normal" x="48.185359954833984" y="245.89013671875" text-anchor="start" dominant-baseline="alphabetic" transform="matrix(1, 0, 0, 1, 0.5, 0.5)" fill-opacity="1">5</text><text fill="rgb(68,68,68)" stroke="none" font-family="helvetica" font-size="11px" font-style="normal" font-weight="normal" text-decoration="normal" x="83.16380310058594" y="245.89013671875" text-anchor="start" dominant-baseline="alphabetic" transform="matrix(1, 0, 0, 1, 0.5, 0.5)" fill-opacity="1">10</text><text fill="rgb(68,68,68)" stroke="none" font-family="helvetica" font-size="11px" font-style="normal" font-weight="normal" text-decoration="normal" x="121.20108032226562" y="245.89013671875" text-anchor="start" dominant-baseline="alphabetic" transform="matrix(1, 0, 0, 1, 0.5, 0.5)" fill-opacity="1">15</text><text fill="rgb(68,68,68)" stroke="none" font-family="helvetica" font-size="11px" font-style="normal" font-weight="normal" text-decoration="normal" x="159.2383575439453" y="245.89013671875" text-anchor="start" dominant-baseline="alphabetic" transform="matrix(1, 0, 0, 1, 0.5, 0.5)" fill-opacity="1">20</text><text fill="rgb(68,68,68)" stroke="none" font-family="helvetica" font-size="11px" font-style="normal" font-weight="normal" text-decoration="normal" x="197.275634765625" y="245.89013671875" text-anchor="start" dominant-baseline="alphabetic" transform="matrix(1, 0, 0, 1, 0.5, 0.5)" fill-opacity="1">25</text><text fill="rgb(68,68,68)" stroke="none" font-family="helvetica" font-size="11px" font-style="normal" font-weight="normal" text-decoration="normal" x="235.3129119873047" y="245.89013671875" text-anchor="start" dominant-baseline="alphabetic" transform="matrix(1, 0, 0, 1, 0.5, 0.5)" fill-opacity="1">30</text><text fill="rgb(68,68,68)" stroke="none" font-family="helvetica" font-size="13px" font-style="italic" font-weight="normal" text-decoration="normal" x="120.819580078125" y="265.89013671875" text-anchor="start" dominant-baseline="alphabetic" transform="matrix(1, 0, 0, 1, 0.5, 0.5)" fill-opacity="1">Observed</text><path fill="none" stroke="rgb(0,0,0)" paint-order="fill" d="M 49.5 227.5 L 49.5 27.5" stroke-opacity="1" stroke-linejoin="bevel" stroke-miterlimit="10" stroke-dasharray=""/><path fill="none" stroke="rgb(0,0,0)" paint-order="fill" d="M 43.5 193.5 L 51.5 193.5 M 43.5 147.5 L 51.5 147.5 M 43.5 101.5 L 51.5 101.5 M 43.5 54.5 L 51.5 54.5" stroke-opacity="1" stroke-linejoin="bevel" stroke-miterlimit="10" stroke-dasharray=""/><path fill="none" stroke="rgb(0,0,0)" paint-order="fill" d="M 45.5 202.5 L 49.5 202.5 M 45.5 211.5 L 49.5 211.5 M 45.5 220.5 L 49.5 220.5 M 45.5 193.5 L 49.5 193.5 M 45.5 184.5 L 49.5 184.5 M 45.5 174.5 L 49.5 174.5 M 45.5 165.5 L 49.5 165.5 M 45.5 156.5 L 49.5 156.5 M 45.5 147.5 L 49.5 147.5 M 45.5 137.5 L 49.5 137.5 M 45.5 128.5 L 49.5 128.5 M 45.5 119.5 L 49.5 119.5 M 45.5 110.5 L 49.5 110.5 M 45.5 101.5 L 49.5 101.5 M 45.5 91.5 L 49.5 91.5 M 45.5 82.5 L 49.5 82.5 M 45.5 73.5 L 49.5 73.5 M 45.5 64.5 L 49.5 64.5 M 45.5 54.5 L 49.5 54.5 M 45.5 45.5 L 49.5 45.5 M 45.5 36.5 L 49.5 36.5" stroke-opacity="1" stroke-linejoin="bevel" stroke-miterlimit="10" stroke-dasharray=""/><text fill="rgb(68,68,68)" stroke="none" font-family="helvetica" font-size="11px" font-style="normal" font-weight="normal" text-decoration="normal" x="25.7646484375" y="196.69253540039062" text-anchor="start" dominant-baseline="alphabetic" transform="matrix(1, 0, 0, 1, 0.5, 0.5)" fill-opacity="1">10</text><text fill="rgb(68,68,68)" stroke="none" font-family="helvetica" font-size="11px" font-style="normal" font-weight="normal" text-decoration="normal" x="25.7646484375" y="150.57855224609375" text-anchor="start" dominant-baseline="alphabetic" transform="matrix(1, 0, 0, 1, 0.5, 0.5)" fill-opacity="1">15</text><text fill="rgb(68,68,68)" stroke="none" font-family="helvetica" font-size="11px" font-style="normal" font-weight="normal" text-decoration="normal" x="25.7646484375" y="104.4645767211914" text-anchor="start" dominant-baseline="alphabetic" transform="matrix(1, 0, 0, 1, 0.5, 0.5)" fill-opacity="1">20</text><text fill="rgb(68,68,68)" stroke="none" font-family="helvetica" font-size="11px" font-style="normal" font-weight="normal" text-decoration="normal" x="25.7646484375" y="58.35060501098633" text-anchor="start" dominant-baseline="alphabetic" transform="matrix(1, 0, 0, 1, 0.5, 0.5)" fill-opacity="1">25</text><text fill="rgb(68,68,68)" stroke="none" font-family="helvetica" font-size="13px" font-style="italic" font-weight="normal" text-decoration="normal" x="-9.6953125" y="124" text-anchor="start" dominant-baseline="alphabetic" transform="matrix(6.123233995736766e-17, -1, 1, 6.123233995736766e-17, -108.7353515625, 145.2646484375)" fill-opacity="1">Predicted</text><path fill="none" stroke="rgb(255,140,0)" paint-order="fill" d="M 226.49885888170462 27.5 L 61.52814758463275 227.5" stroke-opacity="1" stroke-linejoin="bevel" stroke-miterlimit="10" stroke-width="2" stroke-dasharray="" clip-path="url(#ltkFiUkLHDTB)"/><path fill="none" stroke="none"/><text fill="rgb(68,68,68)" stroke="none" font-family="helvetica" font-size="13px" font-style="normal" font-weight="bold" text-decoration="normal" x="0" y="0" text-anchor="start" dominant-baseline="text-after-edge" transform="matrix(1, 0, 0, 1, 49.5, 22.5)" fill-opacity="1">Temperature (°C), &lt;R²&gt; = 0.89</text></svg>