<svg version="1.1" xmlns="http://www.w3.org/2000/svg" xmlns:xlink="http://www.w3.org/1999/xlink" width="254" height="272"><defs><clipPath id="pgOfaonDNXTt"><path fill="none" stroke="none" d="M 49.5 27.5 L 249.5 27.5 L 249.5 227.5 L 49.5 227.5 L 49.5 27.5"/></clipPath><clipPath id="dqhQFMtdIzGX"><path fill="none" stroke="none" d="M 49.5 27.5 L 249.5 27.5 L 249.5 227.5 L 49.5 227.5 L 49.5 27.5"/></clipPath><clipPath id="GtLoObbvnOoU"><path fill="none" stroke="none" d="M 49.5 27.5 L 249.5 27.5 L 249.5 227.5 L 49.5 227.5 L 49.5 27.5"/></clipPath><clipPath id="zlquZPezplvo"><path fill="none" stroke="none" d="M 49.5 27.5 L 249.5 27.5 L 249.5 227.5 L 49.5 227.5 L 49.5 27.5"/></clipPath><clipPath id="SvKAVLeohZyJ"><path fill="none" stroke="none" d="M 49.5 27.5 L 249.5 27.5 L 249.5 227.5 L 49.5 227.5 L 49.5 27.5"/></clipPath></defs><path fill="none" stroke="rgb(229,229,229)" paint-order="fill" d="M 49.5 27.5 L 249.5 27.5 L 249.5 227.5 L 49.5 227.5 L 49.5 27.5" stroke-opacity="1" stroke-linejoin="bevel" stroke-miterlimit="10" stroke-dasharray=""/><path fill="none" stroke="rgb(229,229,229)" paint-order="fill" d="M 70.5 227.5 L 70.5 27.5 M 98.5 227.5 L 98.5 27.5 M 126.5 227.5 L 126.5 27.5 M 154.5 227.5 L 154.5 27.5 M 182.5 227.5 L 182.5 27.5 M 210.5 227.5 L 210.5 27.5 M 238.5 227.5 L 238.5 27.5" stroke-opacity="1" stroke-linejoin="bevel" stroke-miterlimit="10" stroke-dasharray="" clip-path="url(#pgOfaonDNXTt)"/><path fill="none" stroke="rgb(229,229,229)" paint-order="fill" d="M 49.5 218.5 L 249.5 218.5 M 49.5 188.5 L 249.5 188.5 M 49.5 159.5 L 249.5 159.5 M 49.5 130.5 L 249.5 130.5 M 49.5 100.5 L 249.5 100.5 M 49.5 71.5 L 249.5 71.5 M 49.5 42.5 L 249.5 42.5" stroke-opacity="1" stroke-linejoin="bevel" stroke-miterlimit="10" stroke-dasharray="" clip-path="url(#dqhQFMtdIzGX)"/><path fill="none" stroke="none"/><path fill="rgb(31,119,180)" stroke="rgb(31,119,180)" paint-order="fill" d="M 138.11460876464844 199.9572296142578 A 2 2 0 1 1 138.11460776464853 199.95522961459113" fill-opacity="1" clip-path="url(#GtLoObbvnOoU)" stroke-opacity="1" stroke-linejoin="bevel" stroke-miterlimit="10" stroke-dasharray=""/><path fill="rgb(31,119,180)" stroke="rgb(31,119,180)" paint-order="fill" d="M 194.4447784423828 71.12600708007812 A 2 2 0 1 1 194.4447774423829 71.12400708041146" fill-opacity="1" clip-path="url(#GtLoObbvnOoU)" stroke-opacity="1" stroke-linejoin="bevel" stroke-miterlimit="10" stroke-dasharray=""/><path fill="rgb(31,119,180)" stroke="rgb(31,119,180)" paint-order="fill" d="M 63.937255859375 218.40908813476562 A 2 2 0 1 1 63.93725485937508 218.40708813509895" fill-opacity="1" clip-path="url(#GtLoObbvnOoU)" stroke-opacity="1" stroke-linejoin="bevel" stroke-miterlimit="10" stroke-dasharray=""/><path fill="rgb(31,119,180)" stroke="rgb(31,119,180)" paint-order="fill" d="M 72.86084747314453 216.5458526611328 A 2 2 0 1 1 72.86084647314462 216.54385266146613" fill-opacity="1" clip-path="url(#GtLoObbvnOoU)" stroke-opacity="1" stroke-linejoin="bevel" stroke-miterlimit="10" stroke-dasharray=""/><path fill="rgb(31,119,180)" stroke="rgb(31,119,180)" paint-order="fill" d="M 76.20719146728516 208.1360321044922 A 2 2 0 1 1 76.20719046728524 208.1340321048255" fill-opacity="1" clip-path="url(#GtLoObbvnOoU)" stroke-opacity="1" stroke-linejoin="bevel" stroke-miterlimit="10" stroke-dasharray=""/><path fill="rgb(31,119,180)" stroke="rgb(31,119,180)" paint-order="fill" d="M 74.53401947021484 216.97032165527344 A 2 2 0 1 1 74.53401847021493 216.96832165560676" fill-opacity="1" clip-path="url(#GtLoObbvnOoU)" stroke-opacity="1" stroke-linejoin="bevel" stroke-miterlimit="10" stroke-dasharray=""/><path fill="rgb(31,119,180)" stroke="rgb(31,119,180)" paint-order="fill" d="M 216.75376892089844 36.59090805053711 A 2 2 0 1 1 216.75376792089853 36.588908050870444" fill-opacity="1" clip-path="url(#GtLoObbvnOoU)" stroke-opacity="1" stroke-linejoin="bevel" stroke-miterlimit="10" stroke-dasharray=""/><path fill="rgb(31,119,180)" stroke="rgb(31,119,180)" paint-order="fill" d="M 81.22671508789062 201.5120849609375 A 2 2 0 1 1 81.22671408789071 201.51008496127082" fill-opacity="1" clip-path="url(#GtLoObbvnOoU)" stroke-opacity="1" stroke-linejoin="bevel" stroke-miterlimit="10" stroke-dasharray=""/><path fill="rgb(31,119,180)" stroke="rgb(31,119,180)" paint-order="fill" d="M 77.32264709472656 215.55618286132812 A 2 2 0 1 1 77.32264609472665 215.55418286166145" fill-opacity="1" clip-path="url(#GtLoObbvnOoU)" stroke-opacity="1" stroke-linejoin="bevel" stroke-miterlimit="10" stroke-dasharray=""/><path fill="rgb(31,119,180)" stroke="rgb(31,119,180)" paint-order="fill" d="M 79.55354309082031 202.853515625 A 2 2 0 1 1 79.5535420908204 202.85151562533332" fill-opacity="1" clip-path="url(#GtLoObbvnOoU)" stroke-opacity="1" stroke-linejoin="bevel" stroke-miterlimit="10" stroke-dasharray=""/><path fill="rgb(31,119,180)" stroke="rgb(31,119,180)" paint-order="fill" d="M 242.40908813476562 39.81670379638672 A 2 2 0 1 1 242.4090871347657 39.81470379672005" fill-opacity="1" clip-path="url(#GtLoObbvnOoU)" stroke-opacity="1" stroke-linejoin="bevel" stroke-miterlimit="10" stroke-dasharray=""/><path fill="rgb(31,119,180)" stroke="rgb(31,119,180)" paint-order="fill" d="M 92.3812026977539 170.76913452148438 A 2 2 0 1 1 92.381201697754 170.7671345218177" fill-opacity="1" clip-path="url(#GtLoObbvnOoU)" stroke-opacity="1" stroke-linejoin="bevel" stroke-miterlimit="10" stroke-dasharray=""/><path fill="rgb(31,119,180)" stroke="rgb(31,119,180)" paint-order="fill" d="M 68.95677947998047 204.8023681640625 A 2 2 0 1 1 68.95677847998056 204.80036816439582" fill-opacity="1" clip-path="url(#GtLoObbvnOoU)" stroke-opacity="1" stroke-linejoin="bevel" stroke-miterlimit="10" stroke-dasharray=""/><path fill="rgb(31,119,180)" stroke="rgb(31,119,180)" paint-order="fill" d="M 239.062744140625 56.04182052612305 A 2 2 0 1 1 239.0627431406251 56.03982052645638" fill-opacity="1" clip-path="url(#GtLoObbvnOoU)" stroke-opacity="1" stroke-linejoin="bevel" stroke-miterlimit="10" stroke-dasharray=""/><path fill="rgb(31,119,180)" stroke="rgb(31,119,180)" paint-order="fill" d="M 60.59090805053711 209.19606018066406 A 2 2 0 1 1 60.59090705053719 209.19406018099738" fill-opacity="1" clip-path="url(#GtLoObbvnOoU)" stroke-opacity="1" stroke-linejoin="bevel" stroke-miterlimit="10" stroke-dasharray=""/><path fill="rgb(31,119,180)" stroke="rgb(31,119,180)" paint-order="fill" d="M 85.68850708007812 195.65968322753906 A 2 2 0 1 1 85.68850608007821 195.65768322787238" fill-opacity="1" clip-path="url(#GtLoObbvnOoU)" stroke-opacity="1" stroke-linejoin="bevel" stroke-miterlimit="10" stroke-dasharray=""/><path fill="rgb(31,119,180)" stroke="rgb(31,119,180)" paint-order="fill" d="M 93.49665069580078 168.74993896484375 A 2 2 0 1 1 93.49664969580087 168.74793896517707" fill-opacity="1" clip-path="url(#GtLoObbvnOoU)" stroke-opacity="1" stroke-linejoin="bevel" stroke-miterlimit="10" stroke-dasharray=""/><path fill="none" stroke="rgb(0,0,0)" paint-order="fill" d="M 49.5 227.5 L 249.5 227.5" stroke-opacity="1" stroke-linejoin="bevel" stroke-miterlimit="10" stroke-dasharray=""/><path fill="none" stroke="rgb(0,0,0)" paint-order="fill" d="M 70.5 233.5 L 70.5 225.5 M 98.5 233.5 L 98.5 225.5 M 126.5 233.5 L 126.5 225.5 M 154.5 233.5 L 154.5 225.5 M 182.5 233.5 L 182.5 225.5 M 210.5 233.5 L 210.5 225.5 M 238.5 233.5 L 238.5 225.5" stroke-opacity="1" stroke-linejoin="bevel" stroke-miterlimit="10" stroke-dasharray=""/><path fill="none" stroke="rgb(0,0,0)" paint-order="fill" d="M 65.5 231.5 L 65.5 227.5 M 59.5 231.5 L 59.5 227.5 M 54.5 231.5 L 54.5 227.5 M 70.5 231.5 L 70.5 227.5 M 76.5 231.5 L 76.5 227.5 M 82.5 231.5 L 82.5 227.5 M 87.5 231.5 L 87.5 227.5 M 93.5 231.5 L 93.5 227.5 M 98.5 231.5 L 98.5 227.5 M 104.5 231.5 L 104.5 227.5 M 109.5 231.5 L 109.5 227.5 M 115.5 231.5 L 115.5 227.5 M 121.5 231.5 L 121.5 227.5 M 126.5 231.5 L 126.5 227.5 M 132.5 231.5 L 132.5 227.5 M 137.5 231.5 L 137.5 227.5 M 143.5 231.5 L 143.5 227.5 M 148.5 231.5 L 148.5 227.5 M 154.5 231.5 L 154.5 227.5 M 160.5 231.5 L 160.5 227.5 M 165.5 231.5 L 165.5 227.5 M 171.5 231.5 L 171.5 227.5 M 176.5 231.5 L 176.5 227.5 M 182.5 231.5 L 182.5 227.5 M 187.5 231.5 L 187.5 227.5 M 193.5 231.5 L 193.5 227.5 M 199.5 231.5 L 199.5 227.5 M 204.5 231.5 L 204.5 227.5 M 210.5 231.5 L 210.5 227.5 M 215.5 231.5 L 215.5 227.5 M 221.5 231.5 L 221.5 227.5 M 227.5 231.5 L 227.5 227.5 M 232.5 231.5 L 232.5 227.5 M 238.5 231.5 L 238.5 227.5 M 243.5 231.5 L 243.5 227.5 M 249.5 231.5 L 249.5 227.5" stroke-opacity="1" stroke-linejoin="bevel" stroke-miterlimit="10" stroke-dasharray=""/><text fill="rgb(68,68,68)" stroke="none" font-family="helvetica" font-size="11px" font-style="normal" font-weight="normal" text-decoration="normal" x="67.30200958251953" y="245.89013671875" text-anchor="start" dominant-baseline="alphabetic" transform="matrix(1, 0, 0, 1, 0.5, 0.5)" fill-opacity="1">0</text><text fill="rgb(68,68,68)" stroke="none" font-family="helvetica" font-size="11px" font-style="normal" font-weight="normal" text-decoration="normal" x="95.188232421875" y="245.89013671875" text-anchor="start" dominant-baseline="alphabetic" transform="matrix(1, 0, 0, 1, 0.5, 0.5)" fill-opacity="1">5</text><text fill="rgb(68,68,68)" stroke="none" font-family="helvetica" font-size="11px" font-style="normal" font-weight="normal" text-decoration="normal" x="120.01561737060547" y="245.89013671875" text-anchor="start" dominant-baseline="alphabetic" transform="matrix(1, 0, 0, 1, 0.5, 0.5)" fill-opacity="1">10</text><text fill="rgb(68,68,68)" stroke="none" font-family="helvetica" font-size="11px" font-style="normal" font-weight="normal" text-decoration="normal" x="147.90184020996094" y="245.89013671875" text-anchor="start" dominant-baseline="alphabetic" transform="matrix(1, 0, 0, 1, 0.5, 0.5)" fill-opacity="1">15</text><text fill="rgb(68,68,68)" stroke="none" font-family="helvetica" font-size="11px" font-style="normal" font-weight="normal" text-decoration="normal" x="175.78807067871094" y="245.89013671875" text-anchor="start" dominant-baseline="alphabetic" transform="matrix(1, 0, 0, 1, 0.5, 0.5)" fill-opacity="1">20</text><text fill="rgb(68,68,68)" stroke="none" font-family="helvetica" font-size="11px" font-style="normal" font-weight="normal" text-decoration="normal" x="203.67428588867188" y="245.89013671875" text-anchor="start" dominant-baseline="alphabetic" transform="matrix(1, 0, 0, 1, 0.5, 0.5)" fill-opacity="1">25</text><text fill="rgb(68,68,68)" stroke="none" font-family="helvetica" font-size="11px" font-style="normal" font-weight="normal" text-decoration="normal" x="231.56051635742188" y="245.89013671875" text-anchor="start" dominant-baseline="alphabetic" transform="matrix(1, 0, 0, 1, 0.5, 0.5)" fill-opacity="1">30</text><text fill="rgb(68,68,68)" stroke="none" font-family="helvetica" font-size="13px" font-style="italic" font-weight="normal" text-decoration="normal" x="120.819580078125" y="265.89013671875" text-anchor="start" dominant-baseline="alphabetic" transform="matrix(1, 0, 0, 1, 0.5, 0.5)" fill-opacity="1">Observed</text><path fill="none" stroke="rgb(0,0,0)" paint-order="fill" d="M 49.5 227.5 L 49.5 27.5" stroke-opacity="1" stroke-linejoin="bevel" stroke-miterlimit="10" stroke-dasharray=""/><path fill="none" stroke="rgb(0,0,0)" paint-order="fill" d="M 43.5 218.5 L 51.5 218.5 M 43.5 188.5 L 51.5 188.5 M 43.5 159.5 L 51.5 159.5 M 43.5 130.5 L 51.5 130.5 M 43.5 100.5 L 51.5 100.5 M 43.5 71.5 L 51.5 71.5 M 43.5 42.5 L 51.5 42.5" stroke-opacity="1" stroke-linejoin="bevel" stroke-miterlimit="10" stroke-dasharray=""/><path fill="none" stroke="rgb(0,0,0)" paint-order="fill" d="M 45.5 224.5 L 49.5 224.5 M 45.5 218.5 L 49.5 218.5 M 45.5 212.5 L 49.5 212.5 M 45.5 206.5 L 49.5 206.5 M 45.5 200.5 L 49.5 200.5 M 45.5 194.5 L 49.5 194.5 M 45.5 188.5 L 49.5 188.5 M 45.5 182.5 L 49.5 182.5 M 45.5 177.5 L 49.5 177.5 M 45.5 171.5 L 49.5 171.5 M 45.5 165.5 L 49.5 165.5 M 45.5 159.5 L 49.5 159.5 M 45.5 153.5 L 49.5 153.5 M 45.5 147.5 L 49.5 147.5 M 45.5 141.5 L 49.5 141.5 M 45.5 136.5 L 49.5 136.5 M 45.5 130.5 L 49.5 130.5 M 45.5 124.5 L 49.5 124.5 M 45.5 118.5 L 49.5 118.5 M 45.5 112.5 L 49.5 112.5 M 45.5 106.5 L 49.5 106.5 M 45.5 100.5 L 49.5 100.5 M 45.5 95.5 L 49.5 95.5 M 45.5 89.5 L 49.5 89.5 M 45.5 83.5 L 49.5 83.5 M 45.5 77.5 L 49.5 77.5 M 45.5 71.5 L 49.5 71.5 M 45.5 65.5 L 49.5 65.5 M 45.5 59.5 L 49.5 59.5 M 45.5 53.5 L 49.5 53.5 M 45.5 48.5 L 49.5 48.5 M 45.5 42.5 L 49.5 42.5 M 45.5 36.5 L 49.5 36.5 M 45.5 30.5 L 49.5 30.5" stroke-opacity="1" stroke-linejoin="bevel" stroke-miterlimit="10" stroke-dasharray=""/><text fill="rgb(68,68,68)" stroke="none" font-family="helvetica" font-size="11px" font-style="normal" font-weight="normal" text-decoration="normal" x="31.88232421875" y="221.6032257080078" text-anchor="start" dominant-baseline="alphabetic" transform="matrix(1, 0, 0, 1, 0.5, 0.5)" fill-opacity="1">0</text><text fill="rgb(68,68,68)" stroke="none" font-family="helvetica" font-size="11px" font-style="normal" font-weight="normal" text-decoration="normal" x="31.88232421875" y="192.2884979248047" text-anchor="start" dominant-baseline="alphabetic" transform="matrix(1, 0, 0, 1, 0.5, 0.5)" fill-opacity="1">5</text><text fill="rgb(68,68,68)" stroke="none" font-family="helvetica" font-size="11px" font-style="normal" font-weight="normal" text-decoration="normal" x="25.7646484375" y="162.9737548828125" text-anchor="start" dominant-baseline="alphabetic" transform="matrix(1, 0, 0, 1, 0.5, 0.5)" fill-opacity="1">10</text><text fill="rgb(68,68,68)" stroke="none" font-family="helvetica" font-size="11px" font-style="normal" font-weight="normal" text-decoration="normal" x="25.7646484375" y="133.65902709960938" text-anchor="start" dominant-baseline="alphabetic" transform="matrix(1, 0, 0, 1, 0.5, 0.5)" fill-opacity="1">15</text><text fill="rgb(68,68,68)" stroke="none" font-family="helvetica" font-size="11px" font-style="normal" font-weight="normal" text-decoration="normal" x="25.7646484375" y="104.34429168701172" text-anchor="start" dominant-baseline="alphabetic" transform="matrix(1, 0, 0, 1, 0.5, 0.5)" fill-opacity="1">20</text><text fill="rgb(68,68,68)" stroke="none" font-family="helvetica" font-size="11px" font-style="normal" font-weight="normal" text-decoration="normal" x="25.7646484375" y="75.0295639038086" text-anchor="start" dominant-baseline="alphabetic" transform="matrix(1, 0, 0, 1, 0.5, 0.5)" fill-opacity="1">25</text><text fill="rgb(68,68,68)" stroke="none" font-family="helvetica" font-size="11px" font-style="normal" font-weight="normal" text-decoration="normal" x="25.7646484375" y="45.71482849121094" text-anchor="start" dominant-baseline="alphabetic" transform="matrix(1, 0, 0, 1, 0.5, 0.5)" fill-opacity="1">30</text><text fill="rgb(68,68,68)" stroke="none" font-family="helvetica" font-size="13px" font-style="italic" font-weight="normal" text-decoration="normal" x="-9.6953125" y="124" text-anchor="start" dominant-baseline="alphabetic" transform="matrix(6.123233995736766e-17, -1, 1, 6.123233995736766e-17, -108.7353515625, 145.2646484375)" fill-opacity="1">Predicted</text><path fill="none" stroke="rgb(255,140,0)" paint-order="fill" d="M 252.2282208588957 27.5 L 61.97423312883438 227.5" stroke-opacity="1" stroke-linejoin="bevel" stroke-miterlimit="10" stroke-width="2" stroke-dasharray="" clip-path="url(#zlquZPezplvo)"/><path fill="none" stroke="none"/><text fill="rgb(68,68,68)" stroke="none" font-family="helvetica" font-size="13px" font-style="normal" font-weight="bold" text-decoration="normal" x="0" y="0" text-anchor="start" dominant-baseline="text-after-edge" transform="matrix(1, 0, 0, 1, 49.5, 22.5)" fill-opacity="1">Nitrates (µmol/L), &lt;R²&gt; = 0.77</text></svg>