<svg version="1.1" xmlns="http://www.w3.org/2000/svg" xmlns:xlink="http://www.w3.org/1999/xlink" width="263" height="272"><defs><clipPath id="BKWoItNKxlxs"><path fill="none" stroke="none" d="M 58.5 27.5 L 258.5 27.5 L 258.5 227.5 L 58.5 227.5 L 58.5 27.5"/></clipPath><clipPath id="oyzAEDJLqBRD"><path fill="none" stroke="none" d="M 58.5 27.5 L 258.5 27.5 L 258.5 227.5 L 58.5 227.5 L 58.5 27.5"/></clipPath><clipPath id="TZrmUuzzpNCS"><path fill="none" stroke="none" d="M 58.5 27.5 L 258.5 27.5 L 258.5 227.5 L 58.5 227.5 L 58.5 27.5"/></clipPath><clipPath id="BnEKEeSlOTEN"><path fill="none" stroke="none" d="M 58.5 27.5 L 258.5 27.5 L 258.5 227.5 L 58.5 227.5 L 58.5 27.5"/></clipPath><clipPath id="DTrAIwJKZpXl"><path fill="none" stroke="none" d="M 58.5 27.5 L 258.5 27.5 L 258.5 227.5 L 58.5 227.5 L 58.5 27.5"/></clipPath></defs><path fill="none" stroke="rgb(229,229,229)" paint-order="fill" d="M 58.5 27.5 L 258.5 27.5 L 258.5 227.5 L 58.5 227.5 L 58.5 27.5" stroke-opacity="1" stroke-linejoin="bevel" stroke-miterlimit="10" stroke-dasharray=""/><path fill="none" stroke="rgb(229,229,229)" paint-order="fill" d="M 64.5 227.5 L 64.5 27.5 M 96.5 227.5 L 96.5 27.5 M 129.5 227.5 L 129.5 27.5 M 161.5 227.5 L 161.5 27.5 M 194.5 227.5 L 194.5 27.5 M 226.5 227.5 L 226.5 27.5" stroke-opacity="1" stroke-linejoin="bevel" stroke-miterlimit="10" stroke-dasharray="" clip-path="url(#BKWoItNKxlxs)"/><path fill="none" stroke="rgb(229,229,229)" paint-order="fill" d="M 58.5 223.5 L 258.5 223.5 M 58.5 194.5 L 258.5 194.5 M 58.5 165.5 L 258.5 165.5 M 58.5 136.5 L 258.5 136.5 M 58.5 107.5 L 258.5 107.5 M 58.5 77.5 L 258.5 77.5 M 58.5 48.5 L 258.5 48.5" stroke-opacity="1" stroke-linejoin="bevel" stroke-miterlimit="10" stroke-dasharray="" clip-path="url(#oyzAEDJLqBRD)"/><path fill="none" stroke="none"/><path fill="rgb(31,119,180)" stroke="rgb(31,119,180)" paint-order="fill" d="M 192.967529296875 36.59090805053711 A 2 2 0 1 1 192.9675282968751 36.588908050870444" fill-opacity="1" clip-path="url(#TZrmUuzzpNCS)" stroke-opacity="1" stroke-linejoin="bevel" stroke-miterlimit="10" stroke-dasharray=""/><path fill="rgb(31,119,180)" stroke="rgb(31,119,180)" paint-order="fill" d="M 89.07142639160156 183.6603240966797 A 2 2 0 1 1 89.07142539160165 183.658324097013" fill-opacity="1" clip-path="url(#TZrmUuzzpNCS)" stroke-opacity="1" stroke-linejoin="bevel" stroke-miterlimit="10" stroke-dasharray=""/><path fill="rgb(31,119,180)" stroke="rgb(31,119,180)" paint-order="fill" d="M 111.79869842529297 169.49826049804688 A 2 2 0 1 1 111.79869742529306 169.4962604983802" fill-opacity="1" clip-path="url(#TZrmUuzzpNCS)" stroke-opacity="1" stroke-linejoin="bevel" stroke-miterlimit="10" stroke-dasharray=""/><path fill="rgb(31,119,180)" stroke="rgb(31,119,180)" paint-order="fill" d="M 225.43505859375 70.30569458007812 A 2 2 0 1 1 225.4350575937501 70.30369458041146" fill-opacity="1" clip-path="url(#TZrmUuzzpNCS)" stroke-opacity="1" stroke-linejoin="bevel" stroke-miterlimit="10" stroke-dasharray=""/><path fill="rgb(31,119,180)" stroke="rgb(31,119,180)" paint-order="fill" d="M 76.08441925048828 191.22349548339844 A 2 2 0 1 1 76.08441825048837 191.22149548373176" fill-opacity="1" clip-path="url(#TZrmUuzzpNCS)" stroke-opacity="1" stroke-linejoin="bevel" stroke-miterlimit="10" stroke-dasharray=""/><path fill="rgb(31,119,180)" stroke="rgb(31,119,180)" paint-order="fill" d="M 147.5129852294922 105.32167053222656 A 2 2 0 1 1 147.51298422949228 105.3196705325599" fill-opacity="1" clip-path="url(#TZrmUuzzpNCS)" stroke-opacity="1" stroke-linejoin="bevel" stroke-miterlimit="10" stroke-dasharray=""/><path fill="rgb(31,119,180)" stroke="rgb(31,119,180)" paint-order="fill" d="M 102.05844116210938 157.27635192871094 A 2 2 0 1 1 102.05844016210946 157.27435192904426" fill-opacity="1" clip-path="url(#TZrmUuzzpNCS)" stroke-opacity="1" stroke-linejoin="bevel" stroke-miterlimit="10" stroke-dasharray=""/><path fill="rgb(31,119,180)" stroke="rgb(31,119,180)" paint-order="fill" d="M 76.08441925048828 197.078857421875 A 2 2 0 1 1 76.08441825048837 197.07685742220832" fill-opacity="1" clip-path="url(#TZrmUuzzpNCS)" stroke-opacity="1" stroke-linejoin="bevel" stroke-miterlimit="10" stroke-dasharray=""/><path fill="rgb(31,119,180)" stroke="rgb(31,119,180)" paint-order="fill" d="M 131.2792205810547 117.97342681884766 A 2 2 0 1 1 131.27921958105478 117.97142681918099" fill-opacity="1" clip-path="url(#TZrmUuzzpNCS)" stroke-opacity="1" stroke-linejoin="bevel" stroke-miterlimit="10" stroke-dasharray=""/><path fill="rgb(31,119,180)" stroke="rgb(31,119,180)" paint-order="fill" d="M 124.78571319580078 111.30482482910156 A 2 2 0 1 1 124.78571219580087 111.3028248294349" fill-opacity="1" clip-path="url(#TZrmUuzzpNCS)" stroke-opacity="1" stroke-linejoin="bevel" stroke-miterlimit="10" stroke-dasharray=""/><path fill="rgb(31,119,180)" stroke="rgb(31,119,180)" paint-order="fill" d="M 105.30519104003906 185.55401611328125 A 2 2 0 1 1 105.30519004003915 185.55201611361457" fill-opacity="1" clip-path="url(#TZrmUuzzpNCS)" stroke-opacity="1" stroke-linejoin="bevel" stroke-miterlimit="10" stroke-dasharray=""/><path fill="rgb(31,119,180)" stroke="rgb(31,119,180)" paint-order="fill" d="M 89.07142639160156 158.3568115234375 A 2 2 0 1 1 89.07142539160165 158.35481152377082" fill-opacity="1" clip-path="url(#TZrmUuzzpNCS)" stroke-opacity="1" stroke-linejoin="bevel" stroke-miterlimit="10" stroke-dasharray=""/><path fill="rgb(31,119,180)" stroke="rgb(31,119,180)" paint-order="fill" d="M 141.0194854736328 111.39776611328125 A 2 2 0 1 1 141.0194844736329 111.39576611361458" fill-opacity="1" clip-path="url(#TZrmUuzzpNCS)" stroke-opacity="1" stroke-linejoin="bevel" stroke-miterlimit="10" stroke-dasharray=""/><path fill="rgb(31,119,180)" stroke="rgb(31,119,180)" paint-order="fill" d="M 95.56493377685547 162.92259216308594 A 2 2 0 1 1 95.56493277685556 162.92059216341926" fill-opacity="1" clip-path="url(#TZrmUuzzpNCS)" stroke-opacity="1" stroke-linejoin="bevel" stroke-miterlimit="10" stroke-dasharray=""/><path fill="rgb(31,119,180)" stroke="rgb(31,119,180)" paint-order="fill" d="M 69.59091186523438 218.40908813476562 A 2 2 0 1 1 69.59091086523446 218.40708813509895" fill-opacity="1" clip-path="url(#TZrmUuzzpNCS)" stroke-opacity="1" stroke-linejoin="bevel" stroke-miterlimit="10" stroke-dasharray=""/><path fill="rgb(31,119,180)" stroke="rgb(31,119,180)" paint-order="fill" d="M 141.0194854736328 71.18864440917969 A 2 2 0 1 1 141.0194844736329 71.18664440951302" fill-opacity="1" clip-path="url(#TZrmUuzzpNCS)" stroke-opacity="1" stroke-linejoin="bevel" stroke-miterlimit="10" stroke-dasharray=""/><path fill="rgb(31,119,180)" stroke="rgb(31,119,180)" paint-order="fill" d="M 85.82467651367188 164.28187561035156 A 2 2 0 1 1 85.82467551367196 164.27987561068488" fill-opacity="1" clip-path="url(#TZrmUuzzpNCS)" stroke-opacity="1" stroke-linejoin="bevel" stroke-miterlimit="10" stroke-dasharray=""/><path fill="rgb(31,119,180)" stroke="rgb(31,119,180)" paint-order="fill" d="M 131.2792205810547 117.078857421875 A 2 2 0 1 1 131.27921958105478 117.07685742220833" fill-opacity="1" clip-path="url(#TZrmUuzzpNCS)" stroke-opacity="1" stroke-linejoin="bevel" stroke-miterlimit="10" stroke-dasharray=""/><path fill="rgb(31,119,180)" stroke="rgb(31,119,180)" paint-order="fill" d="M 98.81169128417969 131.4268035888672 A 2 2 0 1 1 98.81169028417978 131.4248035892005" fill-opacity="1" clip-path="url(#TZrmUuzzpNCS)" stroke-opacity="1" stroke-linejoin="bevel" stroke-miterlimit="10" stroke-dasharray=""/><path fill="rgb(31,119,180)" stroke="rgb(31,119,180)" paint-order="fill" d="M 108.55194854736328 104.53166198730469 A 2 2 0 1 1 108.55194754736337 104.52966198763802" fill-opacity="1" clip-path="url(#TZrmUuzzpNCS)" stroke-opacity="1" stroke-linejoin="bevel" stroke-miterlimit="10" stroke-dasharray=""/><path fill="rgb(31,119,180)" stroke="rgb(31,119,180)" paint-order="fill" d="M 251.40908813476562 78.7053451538086 A 2 2 0 1 1 251.4090871347657 78.70334515414193" fill-opacity="1" clip-path="url(#TZrmUuzzpNCS)" stroke-opacity="1" stroke-linejoin="bevel" stroke-miterlimit="10" stroke-dasharray=""/><path fill="none" stroke="rgb(0,0,0)" paint-order="fill" d="M 58.5 227.5 L 258.5 227.5" stroke-opacity="1" stroke-linejoin="bevel" stroke-miterlimit="10" stroke-dasharray=""/><path fill="none" stroke="rgb(0,0,0)" paint-order="fill" d="M 64.5 233.5 L 64.5 225.5 M 96.5 233.5 L 96.5 225.5 M 129.5 233.5 L 129.5 225.5 M 161.5 233.5 L 161.5 225.5 M 194.5 233.5 L 194.5 225.5 M 226.5 233.5 L 226.5 225.5" stroke-opacity="1" stroke-linejoin="bevel" stroke-miterlimit="10" stroke-dasharray=""/><path fill="none" stroke="rgb(0,0,0)" paint-order="fill" d="M 64.5 231.5 L 64.5 227.5 M 70.5 231.5 L 70.5 227.5 M 77.5 231.5 L 77.5 227.5 M 83.5 231.5 L 83.5 227.5 M 90.5 231.5 L 90.5 227.5 M 96.5 231.5 L 96.5 227.5 M 103.5 231.5 L 103.5 227.5 M 109.5 231.5 L 109.5 227.5 M 116.5 231.5 L 116.5 227.5 M 122.5 231.5 L 122.5 227.5 M 129.5 231.5 L 129.5 227.5 M 135.5 231.5 L 135.5 227.5 M 142.5 231.5 L 142.5 227.5 M 148.5 231.5 L 148.5 227.5 M 155.5 231.5 L 155.5 227.5 M 161.5 231.5 L 161.5 227.5 M 168.5 231.5 L 168.5 227.5 M 174.5 231.5 L 174.5 227.5 M 181.5 231.5 L 181.5 227.5 M 187.5 231.5 L 187.5 227.5 M 194.5 231.5 L 194.5 227.5 M 200.5 231.5 L 200.5 227.5 M 207.5 231.5 L 207.5 227.5 M 213.5 231.5 L 213.5 227.5 M 220.5 231.5 L 220.5 227.5 M 226.5 231.5 L 226.5 227.5 M 233.5 231.5 L 233.5 227.5 M 239.5 231.5 L 239.5 227.5 M 246.5 231.5 L 246.5 227.5 M 252.5 231.5 L 252.5 227.5" stroke-opacity="1" stroke-linejoin="bevel" stroke-miterlimit="10" stroke-dasharray=""/><text fill="rgb(68,68,68)" stroke="none" font-family="helvetica" font-size="11px" font-style="normal" font-weight="normal" text-decoration="normal" x="57.726478576660156" y="245.89013671875" text-anchor="start" dominant-baseline="alphabetic" transform="matrix(1, 0, 0, 1, 0.5, 0.5)" fill-opacity="1">34</text><text fill="rgb(68,68,68)" stroke="none" font-family="helvetica" font-size="11px" font-style="normal" font-weight="normal" text-decoration="normal" x="90.19401550292969" y="245.89013671875" text-anchor="start" dominant-baseline="alphabetic" transform="matrix(1, 0, 0, 1, 0.5, 0.5)" fill-opacity="1">35</text><text fill="rgb(68,68,68)" stroke="none" font-family="helvetica" font-size="11px" font-style="normal" font-weight="normal" text-decoration="normal" x="122.66154479980469" y="245.89013671875" text-anchor="start" dominant-baseline="alphabetic" transform="matrix(1, 0, 0, 1, 0.5, 0.5)" fill-opacity="1">36</text><text fill="rgb(68,68,68)" stroke="none" font-family="helvetica" font-size="11px" font-style="normal" font-weight="normal" text-decoration="normal" x="155.1290740966797" y="245.89013671875" text-anchor="start" dominant-baseline="alphabetic" transform="matrix(1, 0, 0, 1, 0.5, 0.5)" fill-opacity="1">37</text><text fill="rgb(68,68,68)" stroke="none" font-family="helvetica" font-size="11px" font-style="normal" font-weight="normal" text-decoration="normal" x="187.5966033935547" y="245.89013671875" text-anchor="start" dominant-baseline="alphabetic" transform="matrix(1, 0, 0, 1, 0.5, 0.5)" fill-opacity="1">38</text><text fill="rgb(68,68,68)" stroke="none" font-family="helvetica" font-size="11px" font-style="normal" font-weight="normal" text-decoration="normal" x="220.06414794921875" y="245.89013671875" text-anchor="start" dominant-baseline="alphabetic" transform="matrix(1, 0, 0, 1, 0.5, 0.5)" fill-opacity="1">39</text><text fill="rgb(68,68,68)" stroke="none" font-family="helvetica" font-size="13px" font-style="italic" font-weight="normal" text-decoration="normal" x="129.819580078125" y="265.89013671875" text-anchor="start" dominant-baseline="alphabetic" transform="matrix(1, 0, 0, 1, 0.5, 0.5)" fill-opacity="1">Observed</text><path fill="none" stroke="rgb(0,0,0)" paint-order="fill" d="M 58.5 227.5 L 58.5 27.5" stroke-opacity="1" stroke-linejoin="bevel" stroke-miterlimit="10" stroke-dasharray=""/><path fill="none" stroke="rgb(0,0,0)" paint-order="fill" d="M 52.5 223.5 L 60.5 223.5 M 52.5 194.5 L 60.5 194.5 M 52.5 165.5 L 60.5 165.5 M 52.5 136.5 L 60.5 136.5 M 52.5 107.5 L 60.5 107.5 M 52.5 77.5 L 60.5 77.5 M 52.5 48.5 L 60.5 48.5" stroke-opacity="1" stroke-linejoin="bevel" stroke-miterlimit="10" stroke-dasharray=""/><path fill="none" stroke="rgb(0,0,0)" paint-order="fill" d="M 54.5 223.5 L 58.5 223.5 M 54.5 217.5 L 58.5 217.5 M 54.5 211.5 L 58.5 211.5 M 54.5 205.5 L 58.5 205.5 M 54.5 199.5 L 58.5 199.5 M 54.5 194.5 L 58.5 194.5 M 54.5 188.5 L 58.5 188.5 M 54.5 182.5 L 58.5 182.5 M 54.5 176.5 L 58.5 176.5 M 54.5 170.5 L 58.5 170.5 M 54.5 165.5 L 58.5 165.5 M 54.5 159.5 L 58.5 159.5 M 54.5 153.5 L 58.5 153.5 M 54.5 147.5 L 58.5 147.5 M 54.5 141.5 L 58.5 141.5 M 54.5 136.5 L 58.5 136.5 M 54.5 130.5 L 58.5 130.5 M 54.5 124.5 L 58.5 124.5 M 54.5 118.5 L 58.5 118.5 M 54.5 112.5 L 58.5 112.5 M 54.5 107.5 L 58.5 107.5 M 54.5 101.5 L 58.5 101.5 M 54.5 95.5 L 58.5 95.5 M 54.5 89.5 L 58.5 89.5 M 54.5 83.5 L 58.5 83.5 M 54.5 77.5 L 58.5 77.5 M 54.5 72.5 L 58.5 72.5 M 54.5 66.5 L 58.5 66.5 M 54.5 60.5 L 58.5 60.5 M 54.5 54.5 L 58.5 54.5 M 54.5 48.5 L 58.5 48.5 M 54.5 43.5 L 58.5 43.5 M 54.5 37.5 L 58.5 37.5 M 54.5 31.5 L 58.5 31.5" stroke-opacity="1" stroke-linejoin="bevel" stroke-miterlimit="10" stroke-dasharray=""/><text fill="rgb(68,68,68)" stroke="none" font-family="helvetica" font-size="11px" font-style="normal" font-weight="normal" text-decoration="normal" x="34.7646484375" y="226.6522979736328" text-anchor="start" dominant-baseline="alphabetic" transform="matrix(1, 0, 0, 1, 0.5, 0.5)" fill-opacity="1">34</text><text fill="rgb(68,68,68)" stroke="none" font-family="helvetica" font-size="11px" font-style="normal" font-weight="normal" text-decoration="normal" x="25.5908203125" y="197.6078643798828" text-anchor="start" dominant-baseline="alphabetic" transform="matrix(1, 0, 0, 1, 0.5, 0.5)" fill-opacity="1">34.5</text><text fill="rgb(68,68,68)" stroke="none" font-family="helvetica" font-size="11px" font-style="normal" font-weight="normal" text-decoration="normal" x="34.7646484375" y="168.5634307861328" text-anchor="start" dominant-baseline="alphabetic" transform="matrix(1, 0, 0, 1, 0.5, 0.5)" fill-opacity="1">35</text><text fill="rgb(68,68,68)" stroke="none" font-family="helvetica" font-size="11px" font-style="normal" font-weight="normal" text-decoration="normal" x="25.5908203125" y="139.51898193359375" text-anchor="start" dominant-baseline="alphabetic" transform="matrix(1, 0, 0, 1, 0.5, 0.5)" fill-opacity="1">35.5</text><text fill="rgb(68,68,68)" stroke="none" font-family="helvetica" font-size="11px" font-style="normal" font-weight="normal" text-decoration="normal" x="34.7646484375" y="110.47454833984375" text-anchor="start" dominant-baseline="alphabetic" transform="matrix(1, 0, 0, 1, 0.5, 0.5)" fill-opacity="1">36</text><text fill="rgb(68,68,68)" stroke="none" font-family="helvetica" font-size="11px" font-style="normal" font-weight="normal" text-decoration="normal" x="25.5908203125" y="81.43010711669922" text-anchor="start" dominant-baseline="alphabetic" transform="matrix(1, 0, 0, 1, 0.5, 0.5)" fill-opacity="1">36.5</text><text fill="rgb(68,68,68)" stroke="none" font-family="helvetica" font-size="11px" font-style="normal" font-weight="normal" text-decoration="normal" x="34.7646484375" y="52.38567352294922" text-anchor="start" dominant-baseline="alphabetic" transform="matrix(1, 0, 0, 1, 0.5, 0.5)" fill-opacity="1">37</text><text fill="rgb(68,68,68)" stroke="none" font-family="helvetica" font-size="13px" font-style="italic" font-weight="normal" text-decoration="normal" x="-9.869140625" y="124" text-anchor="start" dominant-baseline="alphabetic" transform="matrix(6.123233995736766e-17, -1, 1, 6.123233995736766e-17, -108.9091796875, 145.0908203125)" fill-opacity="1">Predicted</text><path fill="none" stroke="rgb(255,140,0)" paint-order="fill" d="M 173.7305194805199 27.5 L 61.9448051948043 227.5" stroke-opacity="1" stroke-linejoin="bevel" stroke-miterlimit="10" stroke-width="2" stroke-dasharray="" clip-path="url(#BnEKEeSlOTEN)"/><path fill="none" stroke="none"/><text fill="rgb(68,68,68)" stroke="none" font-family="helvetica" font-size="13px" font-style="normal" font-weight="bold" text-decoration="normal" x="0" y="0" text-anchor="start" dominant-baseline="text-after-edge" transform="matrix(1, 0, 0, 1, 58.5, 22.5)" fill-opacity="1">Salinity (PSU), &lt;R²&gt; = 0.42</text></svg>