<svg version="1.1" xmlns="http://www.w3.org/2000/svg" xmlns:xlink="http://www.w3.org/1999/xlink" width="498" height="135"><defs><clipPath id="gQXccekrpFTl"><path fill="none" stroke="none" d="M 93.5 27.5 L 493.5 27.5 L 493.5 77.5 L 93.5 77.5 L 93.5 27.5"/></clipPath><clipPath id="dkMatcdrLoNV"><path fill="none" stroke="none" d="M 93.5 27.5 L 493.5 27.5 L 493.5 77.5 L 93.5 77.5 L 93.5 27.5"/></clipPath><clipPath id="yrCKccEkdsMh"><path fill="none" stroke="none" d="M 93.5 27.5 L 493.5 27.5 L 493.5 77.5 L 93.5 77.5 L 93.5 27.5"/></clipPath><clipPath id="ZMsqWGnoFkUD"><path fill="none" stroke="none" d="M 93.5 27.5 L 493.5 27.5 L 493.5 77.5 L 93.5 77.5 L 93.5 27.5"/></clipPath></defs><path fill="none" stroke="rgb(229,229,229)" paint-order="fill" d="M 93.5 27.5 L 493.5 27.5 L 493.5 77.5 L 93.5 77.5 L 93.5 27.5" stroke-opacity="1" stroke-linejoin="bevel" stroke-miterlimit="10" stroke-dasharray=""/><path fill="none" stroke="rgb(229,229,229)" paint-order="fill" d="M 111.5 77.5 L 111.5 27.5 M 183.5 77.5 L 183.5 27.5 M 254.5 77.5 L 254.5 27.5 M 326.5 77.5 L 326.5 27.5 M 397.5 77.5 L 397.5 27.5 M 469.5 77.5 L 469.5 27.5" stroke-opacity="1" stroke-linejoin="bevel" stroke-miterlimit="10" stroke-dasharray="" clip-path="url(#gQXccekrpFTl)"/><path fill="none" stroke="rgb(229,229,229)" paint-order="fill" d="M 93.5 71.5 L 493.5 71.5 M 93.5 58.5 L 493.5 58.5 M 93.5 46.5 L 493.5 46.5 M 93.5 33.5 L 493.5 33.5" stroke-opacity="1" stroke-linejoin="bevel" stroke-miterlimit="10" stroke-dasharray="" clip-path="url(#dkMatcdrLoNV)"/><path fill="none" stroke="none"/><path fill="rgb(113,200,107)" stroke="none" paint-order="stroke" d="M 111.68181610107422 28.75 L 475.31817626953125 28.75 L 475.31817626953125 38.75 L 111.68181610107422 38.75 L 111.68181610107422 28.75" fill-opacity="1" clip-path="url(#yrCKccEkdsMh)"/><path fill="none" stroke="rgb(113,200,107)" paint-order="fill" d="M 111.68181610107422 28.75 L 475.31817626953125 28.75 L 475.31817626953125 38.75 L 111.68181610107422 38.75 L 111.68181610107422 28.75" stroke-opacity="1" stroke-linejoin="bevel" stroke-miterlimit="10" stroke-dasharray="" clip-path="url(#yrCKccEkdsMh)"/><path fill="rgb(113,200,107)" stroke="none" paint-order="stroke" d="M 111.68181610107422 41.25 L 459.4505615234375 41.25 L 459.4505615234375 51.25 L 111.68181610107422 51.25 L 111.68181610107422 41.25" fill-opacity="1" clip-path="url(#yrCKccEkdsMh)"/><path fill="none" stroke="rgb(113,200,107)" paint-order="fill" d="M 111.68181610107422 41.25 L 459.4505615234375 41.25 L 459.4505615234375 51.25 L 111.68181610107422 51.25 L 111.68181610107422 41.25" stroke-opacity="1" stroke-linejoin="bevel" stroke-miterlimit="10" stroke-dasharray="" clip-path="url(#yrCKccEkdsMh)"/><path fill="rgb(110,198,109)" stroke="none" paint-order="stroke" d="M 111.68181610107422 53.75 L 444.31280517578125 53.75 L 444.31280517578125 63.75 L 111.68181610107422 63.75 L 111.68181610107422 53.75" fill-opacity="1" clip-path="url(#yrCKccEkdsMh)"/><path fill="none" stroke="rgb(110,198,109)" paint-order="fill" d="M 111.68181610107422 53.75 L 444.31280517578125 53.75 L 444.31280517578125 63.75 L 111.68181610107422 63.75 L 111.68181610107422 53.75" stroke-opacity="1" stroke-linejoin="bevel" stroke-miterlimit="10" stroke-dasharray="" clip-path="url(#yrCKccEkdsMh)"/><path fill="rgb(99,192,114)" stroke="none" paint-order="stroke" d="M 111.68181610107422 66.25 L 411.8699645996094 66.25 L 411.8699645996094 76.25 L 111.68181610107422 76.25 L 111.68181610107422 66.25" fill-opacity="1" clip-path="url(#yrCKccEkdsMh)"/><path fill="none" stroke="rgb(99,192,114)" paint-order="fill" d="M 111.68181610107422 66.25 L 411.8699645996094 66.25 L 411.8699645996094 76.25 L 111.68181610107422 76.25 L 111.68181610107422 66.25" stroke-opacity="1" stroke-linejoin="bevel" stroke-miterlimit="10" stroke-dasharray="" clip-path="url(#yrCKccEkdsMh)"/><path fill="none" stroke="rgb(0,0,0)" paint-order="fill" d="M 93.5 77.5 L 493.5 77.5" stroke-opacity="1" stroke-linejoin="bevel" stroke-miterlimit="10" stroke-dasharray=""/><path fill="none" stroke="rgb(0,0,0)" paint-order="fill" d="M 111.5 83.5 L 111.5 75.5 M 183.5 83.5 L 183.5 75.5 M 254.5 83.5 L 254.5 75.5 M 326.5 83.5 L 326.5 75.5 M 397.5 83.5 L 397.5 75.5 M 469.5 83.5 L 469.5 75.5" stroke-opacity="1" stroke-linejoin="bevel" stroke-miterlimit="10" stroke-dasharray=""/><path fill="none" stroke="rgb(0,0,0)" paint-order="fill" d="M 97.5 81.5 L 97.5 77.5 M 111.5 81.5 L 111.5 77.5 M 125.5 81.5 L 125.5 77.5 M 140.5 81.5 L 140.5 77.5 M 154.5 81.5 L 154.5 77.5 M 168.5 81.5 L 168.5 77.5 M 183.5 81.5 L 183.5 77.5 M 197.5 81.5 L 197.5 77.5 M 211.5 81.5 L 211.5 77.5 M 226.5 81.5 L 226.5 77.5 M 240.5 81.5 L 240.5 77.5 M 254.5 81.5 L 254.5 77.5 M 268.5 81.5 L 268.5 77.5 M 283.5 81.5 L 283.5 77.5 M 297.5 81.5 L 297.5 77.5 M 311.5 81.5 L 311.5 77.5 M 326.5 81.5 L 326.5 77.5 M 340.5 81.5 L 340.5 77.5 M 354.5 81.5 L 354.5 77.5 M 369.5 81.5 L 369.5 77.5 M 383.5 81.5 L 383.5 77.5 M 397.5 81.5 L 397.5 77.5 M 411.5 81.5 L 411.5 77.5 M 426.5 81.5 L 426.5 77.5 M 440.5 81.5 L 440.5 77.5 M 454.5 81.5 L 454.5 77.5 M 469.5 81.5 L 469.5 77.5 M 483.5 81.5 L 483.5 77.5" stroke-opacity="1" stroke-linejoin="bevel" stroke-miterlimit="10" stroke-dasharray=""/><text fill="rgb(68,68,68)" stroke="none" font-family="helvetica" font-size="11px" font-style="normal" font-weight="normal" text-decoration="normal" x="105.06414031982422" y="91.945068359375" text-anchor="start" dominant-baseline="alphabetic" transform="matrix(0.7071067811865476, -0.7071067811865475, 0.7071067811865475, 0.7071067811865476, -29.160996753047215, 104.89201936528906)" fill-opacity="1">0</text><text fill="rgb(68,68,68)" stroke="none" font-family="helvetica" font-size="11px" font-style="normal" font-weight="normal" text-decoration="normal" x="161.2613067626953" y="91.945068359375" text-anchor="start" dominant-baseline="alphabetic" transform="matrix(0.7071067811865476, -0.7071067811865475, 0.7071067811865475, 0.7071067811865476, -8.22244998579933, 155.44214294716227)" fill-opacity="1">0.01</text><text fill="rgb(68,68,68)" stroke="none" font-family="helvetica" font-size="11px" font-style="normal" font-weight="normal" text-decoration="normal" x="232.74998474121094" y="91.945068359375" text-anchor="start" dominant-baseline="alphabetic" transform="matrix(0.7071067811865476, -0.7071067811865475, 0.7071067811865475, 0.7071067811865476, 12.716099016046485, 205.99227192383205)" fill-opacity="1">0.02</text><text fill="rgb(68,68,68)" stroke="none" font-family="helvetica" font-size="11px" font-style="normal" font-weight="normal" text-decoration="normal" x="304.2386474609375" y="91.945068359375" text-anchor="start" dominant-baseline="alphabetic" transform="matrix(0.7071067811865476, -0.7071067811865475, 0.7071067811865475, 0.7071067811865476, 33.65464354869647, 256.5423901109086)" fill-opacity="1">0.03</text><text fill="rgb(68,68,68)" stroke="none" font-family="helvetica" font-size="11px" font-style="normal" font-weight="normal" text-decoration="normal" x="375.7273254394531" y="91.945068359375" text-anchor="start" dominant-baseline="alphabetic" transform="matrix(0.7071067811865476, -0.7071067811865475, 0.7071067811865475, 0.7071067811865476, 54.593192550542256, 307.09251908757847)" fill-opacity="1">0.04</text><text fill="rgb(68,68,68)" stroke="none" font-family="helvetica" font-size="11px" font-style="normal" font-weight="normal" text-decoration="normal" x="447.21600341796875" y="91.945068359375" text-anchor="start" dominant-baseline="alphabetic" transform="matrix(0.7071067811865476, -0.7071067811865475, 0.7071067811865475, 0.7071067811865476, 75.5317415523881, 357.64264806424825)" fill-opacity="1">0.05</text><text fill="rgb(68,68,68)" stroke="none" font-family="helvetica" font-size="13px" font-style="italic" font-weight="normal" text-decoration="normal" x="260.484130859375" y="128.71774531498966" text-anchor="start" dominant-baseline="alphabetic" transform="matrix(1, 0, 0, 1, 0.5, 0.5)" fill-opacity="1">Importance</text><path fill="none" stroke="rgb(0,0,0)" paint-order="fill" d="M 93.5 77.5 L 93.5 27.5" stroke-opacity="1" stroke-linejoin="bevel" stroke-miterlimit="10" stroke-dasharray=""/><path fill="none" stroke="rgb(0,0,0)" paint-order="fill" d="M 87.5 71.5 L 95.5 71.5 M 87.5 58.5 L 95.5 58.5 M 87.5 46.5 L 95.5 46.5 M 87.5 33.5 L 95.5 33.5" stroke-opacity="1" stroke-linejoin="bevel" stroke-miterlimit="10" stroke-dasharray=""/><path fill="none" stroke="rgb(0,0,0)" paint-order="fill" d="" stroke-opacity="1" stroke-linejoin="bevel" stroke-miterlimit="10" stroke-dasharray=""/><text fill="rgb(68,68,68)" stroke="none" font-family="helvetica" font-size="11px" font-style="normal" font-weight="normal" text-decoration="normal" x="14.73779296875" y="74.25" text-anchor="start" dominant-baseline="alphabetic" transform="matrix(1, 0, 0, 1, 0.5, 0.5)" fill-opacity="1">Bacteroidetes</text><text fill="rgb(68,68,68)" stroke="none" font-family="helvetica" font-size="11px" font-style="normal" font-weight="normal" text-decoration="normal" x="12.27783203125" y="61.75" text-anchor="start" dominant-baseline="alphabetic" transform="matrix(1, 0, 0, 1, 0.5, 0.5)" fill-opacity="1">Lentisphaerae</text><text fill="rgb(68,68,68)" stroke="none" font-family="helvetica" font-size="11px" font-style="normal" font-weight="normal" text-decoration="normal" x="2.5185546875" y="49.25" text-anchor="start" dominant-baseline="alphabetic" transform="matrix(1, 0, 0, 1, 0.5, 0.5)" fill-opacity="1">Verrucomicrobia</text><text fill="rgb(68,68,68)" stroke="none" font-family="helvetica" font-size="11px" font-style="normal" font-weight="normal" text-decoration="normal" x="31.275390625" y="36.75" text-anchor="start" dominant-baseline="alphabetic" transform="matrix(1, 0, 0, 1, 0.5, 0.5)" fill-opacity="1">Firmicutes</text><path fill="none" stroke="none"/><text fill="rgb(68,68,68)" stroke="none" font-family="helvetica" font-size="13px" font-style="normal" font-weight="bold" text-decoration="normal" x="0" y="0" text-anchor="start" dominant-baseline="text-after-edge" transform="matrix(1, 0, 0, 1, 93.5, 22.5)" fill-opacity="1">Biome</text></svg>