<svg version="1.1" xmlns="http://www.w3.org/2000/svg" xmlns:xlink="http://www.w3.org/1999/xlink" width="502" height="135"><defs><clipPath id="xETOuMhwhrZw"><path fill="none" stroke="none" d="M 97.5 27.5 L 497.5 27.5 L 497.5 77.5 L 97.5 77.5 L 97.5 27.5"/></clipPath><clipPath id="TCFkwdEBJEtn"><path fill="none" stroke="none" d="M 97.5 27.5 L 497.5 27.5 L 497.5 77.5 L 97.5 77.5 L 97.5 27.5"/></clipPath><clipPath id="NeULvcbRXgrB"><path fill="none" stroke="none" d="M 97.5 27.5 L 497.5 27.5 L 497.5 77.5 L 97.5 77.5 L 97.5 27.5"/></clipPath><clipPath id="MFByHlfqERIR"><path fill="none" stroke="none" d="M 97.5 27.5 L 497.5 27.5 L 497.5 77.5 L 97.5 77.5 L 97.5 27.5"/></clipPath></defs><path fill="none" stroke="rgb(229,229,229)" paint-order="fill" d="M 97.5 27.5 L 497.5 27.5 L 497.5 77.5 L 97.5 77.5 L 97.5 27.5" stroke-opacity="1" stroke-linejoin="bevel" stroke-miterlimit="10" stroke-dasharray=""/><path fill="none" stroke="rgb(229,229,229)" paint-order="fill" d="M 115.5 77.5 L 115.5 27.5 M 212.5 77.5 L 212.5 27.5 M 309.5 77.5 L 309.5 27.5 M 406.5 77.5 L 406.5 27.5" stroke-opacity="1" stroke-linejoin="bevel" stroke-miterlimit="10" stroke-dasharray="" clip-path="url(#xETOuMhwhrZw)"/><path fill="none" stroke="rgb(229,229,229)" paint-order="fill" d="M 97.5 71.5 L 497.5 71.5 M 97.5 58.5 L 497.5 58.5 M 97.5 46.5 L 497.5 46.5 M 97.5 33.5 L 497.5 33.5" stroke-opacity="1" stroke-linejoin="bevel" stroke-miterlimit="10" stroke-dasharray="" clip-path="url(#TCFkwdEBJEtn)"/><path fill="none" stroke="none"/><path fill="rgb(99,192,114)" stroke="none" paint-order="stroke" d="M 115.68181610107422 28.75 L 479.31817626953125 28.75 L 479.31817626953125 38.75 L 115.68181610107422 38.75 L 115.68181610107422 28.75" fill-opacity="1" clip-path="url(#NeULvcbRXgrB)"/><path fill="none" stroke="rgb(99,192,114)" paint-order="fill" d="M 115.68181610107422 28.75 L 479.31817626953125 28.75 L 479.31817626953125 38.75 L 115.68181610107422 38.75 L 115.68181610107422 28.75" stroke-opacity="1" stroke-linejoin="bevel" stroke-miterlimit="10" stroke-dasharray="" clip-path="url(#NeULvcbRXgrB)"/><path fill="rgb(101,193,114)" stroke="none" paint-order="stroke" d="M 115.68181610107422 41.25 L 411.9488220214844 41.25 L 411.9488220214844 51.25 L 115.68181610107422 51.25 L 115.68181610107422 41.25" fill-opacity="1" clip-path="url(#NeULvcbRXgrB)"/><path fill="none" stroke="rgb(101,193,114)" paint-order="fill" d="M 115.68181610107422 41.25 L 411.9488220214844 41.25 L 411.9488220214844 51.25 L 115.68181610107422 51.25 L 115.68181610107422 41.25" stroke-opacity="1" stroke-linejoin="bevel" stroke-miterlimit="10" stroke-dasharray="" clip-path="url(#NeULvcbRXgrB)"/><path fill="rgb(94,189,117)" stroke="none" paint-order="stroke" d="M 115.68181610107422 53.75 L 410.6685485839844 53.75 L 410.6685485839844 63.75 L 115.68181610107422 63.75 L 115.68181610107422 53.75" fill-opacity="1" clip-path="url(#NeULvcbRXgrB)"/><path fill="none" stroke="rgb(94,189,117)" paint-order="fill" d="M 115.68181610107422 53.75 L 410.6685485839844 53.75 L 410.6685485839844 63.75 L 115.68181610107422 63.75 L 115.68181610107422 53.75" stroke-opacity="1" stroke-linejoin="bevel" stroke-miterlimit="10" stroke-dasharray="" clip-path="url(#NeULvcbRXgrB)"/><path fill="rgb(93,188,118)" stroke="none" paint-order="stroke" d="M 115.68181610107422 66.25 L 406.9339904785156 66.25 L 406.9339904785156 76.25 L 115.68181610107422 76.25 L 115.68181610107422 66.25" fill-opacity="1" clip-path="url(#NeULvcbRXgrB)"/><path fill="none" stroke="rgb(93,188,118)" paint-order="fill" d="M 115.68181610107422 66.25 L 406.9339904785156 66.25 L 406.9339904785156 76.25 L 115.68181610107422 76.25 L 115.68181610107422 66.25" stroke-opacity="1" stroke-linejoin="bevel" stroke-miterlimit="10" stroke-dasharray="" clip-path="url(#NeULvcbRXgrB)"/><path fill="none" stroke="rgb(0,0,0)" paint-order="fill" d="M 97.5 77.5 L 497.5 77.5" stroke-opacity="1" stroke-linejoin="bevel" stroke-miterlimit="10" stroke-dasharray=""/><path fill="none" stroke="rgb(0,0,0)" paint-order="fill" d="M 115.5 83.5 L 115.5 75.5 M 212.5 83.5 L 212.5 75.5 M 309.5 83.5 L 309.5 75.5 M 406.5 83.5 L 406.5 75.5" stroke-opacity="1" stroke-linejoin="bevel" stroke-miterlimit="10" stroke-dasharray=""/><path fill="none" stroke="rgb(0,0,0)" paint-order="fill" d="M 115.5 81.5 L 115.5 77.5 M 135.5 81.5 L 135.5 77.5 M 154.5 81.5 L 154.5 77.5 M 173.5 81.5 L 173.5 77.5 M 193.5 81.5 L 193.5 77.5 M 212.5 81.5 L 212.5 77.5 M 232.5 81.5 L 232.5 77.5 M 251.5 81.5 L 251.5 77.5 M 270.5 81.5 L 270.5 77.5 M 290.5 81.5 L 290.5 77.5 M 309.5 81.5 L 309.5 77.5 M 329.5 81.5 L 329.5 77.5 M 348.5 81.5 L 348.5 77.5 M 368.5 81.5 L 368.5 77.5 M 387.5 81.5 L 387.5 77.5 M 406.5 81.5 L 406.5 77.5 M 426.5 81.5 L 426.5 77.5 M 445.5 81.5 L 445.5 77.5 M 465.5 81.5 L 465.5 77.5 M 484.5 81.5 L 484.5 77.5" stroke-opacity="1" stroke-linejoin="bevel" stroke-miterlimit="10" stroke-dasharray=""/><text fill="rgb(68,68,68)" stroke="none" font-family="helvetica" font-size="11px" font-style="normal" font-weight="normal" text-decoration="normal" x="109.06414031982422" y="91.945068359375" text-anchor="start" dominant-baseline="alphabetic" transform="matrix(0.7071067811865476, -0.7071067811865475, 0.7071067811865475, 0.7071067811865476, -27.9894238777934, 107.72044649003524)" fill-opacity="1">0</text><text fill="rgb(68,68,68)" stroke="none" font-family="helvetica" font-size="11px" font-style="normal" font-weight="normal" text-decoration="normal" x="190.83692932128906" y="91.945068359375" text-anchor="start" dominant-baseline="alphabetic" transform="matrix(0.7071067811865476, -0.7071067811865475, 0.7071067811865475, 0.7071067811865476, 0.4400493037989577, 176.3552662161577)" fill-opacity="1">0.02</text><text fill="rgb(68,68,68)" stroke="none" font-family="helvetica" font-size="11px" font-style="normal" font-weight="normal" text-decoration="normal" x="287.9012145996094" y="91.945068359375" text-anchor="start" dominant-baseline="alphabetic" transform="matrix(0.7071067811865476, -0.7071067811865475, 0.7071067811865475, 0.7071067811865476, 28.869520250793357, 244.99008054748356)" fill-opacity="1">0.04</text><text fill="rgb(68,68,68)" stroke="none" font-family="helvetica" font-size="11px" font-style="normal" font-weight="normal" text-decoration="normal" x="384.9654846191406" y="91.945068359375" text-anchor="start" dominant-baseline="alphabetic" transform="matrix(0.7071067811865476, -0.7071067811865475, 0.7071067811865475, 0.7071067811865476, 57.29898672859201, 313.62488408921627)" fill-opacity="1">0.06</text><text fill="rgb(68,68,68)" stroke="none" font-family="helvetica" font-size="13px" font-style="italic" font-weight="normal" text-decoration="normal" x="264.484130859375" y="128.71774531498966" text-anchor="start" dominant-baseline="alphabetic" transform="matrix(1, 0, 0, 1, 0.5, 0.5)" fill-opacity="1">Importance</text><path fill="none" stroke="rgb(0,0,0)" paint-order="fill" d="M 97.5 77.5 L 97.5 27.5" stroke-opacity="1" stroke-linejoin="bevel" stroke-miterlimit="10" stroke-dasharray=""/><path fill="none" stroke="rgb(0,0,0)" paint-order="fill" d="M 91.5 71.5 L 99.5 71.5 M 91.5 58.5 L 99.5 58.5 M 91.5 46.5 L 99.5 46.5 M 91.5 33.5 L 99.5 33.5" stroke-opacity="1" stroke-linejoin="bevel" stroke-miterlimit="10" stroke-dasharray=""/><path fill="none" stroke="rgb(0,0,0)" paint-order="fill" d="" stroke-opacity="1" stroke-linejoin="bevel" stroke-miterlimit="10" stroke-dasharray=""/><text fill="rgb(68,68,68)" stroke="none" font-family="helvetica" font-size="11px" font-style="normal" font-weight="normal" text-decoration="normal" x="15.0693359375" y="74.25" text-anchor="start" dominant-baseline="alphabetic" transform="matrix(1, 0, 0, 1, 0.5, 0.5)" fill-opacity="1">Cyanobacteria</text><text fill="rgb(68,68,68)" stroke="none" font-family="helvetica" font-size="11px" font-style="normal" font-weight="normal" text-decoration="normal" x="2.83935546875" y="61.75" text-anchor="start" dominant-baseline="alphabetic" transform="matrix(1, 0, 0, 1, 0.5, 0.5)" fill-opacity="1">Thaumarchaeota</text><text fill="rgb(68,68,68)" stroke="none" font-family="helvetica" font-size="11px" font-style="normal" font-weight="normal" text-decoration="normal" x="10.8046875" y="49.25" text-anchor="start" dominant-baseline="alphabetic" transform="matrix(1, 0, 0, 1, 0.5, 0.5)" fill-opacity="1">Deferribacteres</text><text fill="rgb(68,68,68)" stroke="none" font-family="helvetica" font-size="11px" font-style="normal" font-weight="normal" text-decoration="normal" x="19.35009765625" y="36.75" text-anchor="start" dominant-baseline="alphabetic" transform="matrix(1, 0, 0, 1, 0.5, 0.5)" fill-opacity="1">Acidobacteria</text><path fill="none" stroke="none"/><text fill="rgb(68,68,68)" stroke="none" font-family="helvetica" font-size="13px" font-style="normal" font-weight="bold" text-decoration="normal" x="0" y="0" text-anchor="start" dominant-baseline="text-after-edge" transform="matrix(1, 0, 0, 1, 97.5, 22.5)" fill-opacity="1">Environmental Feature</text></svg>