<svg version="1.1" xmlns="http://www.w3.org/2000/svg" xmlns:xlink="http://www.w3.org/1999/xlink" width="263" height="272"><defs><clipPath id="EBlGVJwTZJUI"><path fill="none" stroke="none" d="M 58.5 27.5 L 258.5 27.5 L 258.5 227.5 L 58.5 227.5 L 58.5 27.5"/></clipPath><clipPath id="wGLUTbfxrLxA"><path fill="none" stroke="none" d="M 58.5 27.5 L 258.5 27.5 L 258.5 227.5 L 58.5 227.5 L 58.5 27.5"/></clipPath><clipPath id="CFrkEcOnMFla"><path fill="none" stroke="none" d="M 58.5 27.5 L 258.5 27.5 L 258.5 227.5 L 58.5 227.5 L 58.5 27.5"/></clipPath><clipPath id="RhwxQTGccaRL"><path fill="none" stroke="none" d="M 58.5 27.5 L 258.5 27.5 L 258.5 227.5 L 58.5 227.5 L 58.5 27.5"/></clipPath><clipPath id="kXdKUbgULokF"><path fill="none" stroke="none" d="M 58.5 27.5 L 258.5 27.5 L 258.5 227.5 L 58.5 227.5 L 58.5 27.5"/></clipPath></defs><path fill="none" stroke="rgb(229,229,229)" paint-order="fill" d="M 58.5 27.5 L 258.5 27.5 L 258.5 227.5 L 58.5 227.5 L 58.5 27.5" stroke-opacity="1" stroke-linejoin="bevel" stroke-miterlimit="10" stroke-dasharray=""/><path fill="none" stroke="rgb(229,229,229)" paint-order="fill" d="M 64.5 227.5 L 64.5 27.5 M 99.5 227.5 L 99.5 27.5 M 135.5 227.5 L 135.5 27.5 M 170.5 227.5 L 170.5 27.5 M 206.5 227.5 L 206.5 27.5 M 242.5 227.5 L 242.5 27.5" stroke-opacity="1" stroke-linejoin="bevel" stroke-miterlimit="10" stroke-dasharray="" clip-path="url(#EBlGVJwTZJUI)"/><path fill="none" stroke="rgb(229,229,229)" paint-order="fill" d="M 58.5 198.5 L 258.5 198.5 M 58.5 160.5 L 258.5 160.5 M 58.5 123.5 L 258.5 123.5 M 58.5 86.5 L 258.5 86.5 M 58.5 49.5 L 258.5 49.5" stroke-opacity="1" stroke-linejoin="bevel" stroke-miterlimit="10" stroke-dasharray="" clip-path="url(#wGLUTbfxrLxA)"/><path fill="none" stroke="none"/><path fill="rgb(31,119,180)" stroke="rgb(31,119,180)" paint-order="fill" d="M 98.11140441894531 180.2986602783203 A 2 2 0 1 1 98.1114034189454 180.29666027865363" fill-opacity="1" clip-path="url(#CFrkEcOnMFla)" stroke-opacity="1" stroke-linejoin="bevel" stroke-miterlimit="10" stroke-dasharray=""/><path fill="rgb(31,119,180)" stroke="rgb(31,119,180)" paint-order="fill" d="M 126.63190460205078 195.2477264404297 A 2 2 0 1 1 126.63190360205087 195.245726440763" fill-opacity="1" clip-path="url(#CFrkEcOnMFla)" stroke-opacity="1" stroke-linejoin="bevel" stroke-miterlimit="10" stroke-dasharray=""/><path fill="rgb(31,119,180)" stroke="rgb(31,119,180)" paint-order="fill" d="M 197.9331512451172 109.78617858886719 A 2 2 0 1 1 197.93315024511728 109.78417858920052" fill-opacity="1" clip-path="url(#CFrkEcOnMFla)" stroke-opacity="1" stroke-linejoin="bevel" stroke-miterlimit="10" stroke-dasharray=""/><path fill="rgb(31,119,180)" stroke="rgb(31,119,180)" paint-order="fill" d="M 169.41265869140625 157.82290649414062 A 2 2 0 1 1 169.41265769140634 157.82090649447395" fill-opacity="1" clip-path="url(#CFrkEcOnMFla)" stroke-opacity="1" stroke-linejoin="bevel" stroke-miterlimit="10" stroke-dasharray=""/><path fill="rgb(31,119,180)" stroke="rgb(31,119,180)" paint-order="fill" d="M 162.28253173828125 159.37295532226562 A 2 2 0 1 1 162.28253073828134 159.37095532259895" fill-opacity="1" clip-path="url(#CFrkEcOnMFla)" stroke-opacity="1" stroke-linejoin="bevel" stroke-miterlimit="10" stroke-dasharray=""/><path fill="rgb(31,119,180)" stroke="rgb(31,119,180)" paint-order="fill" d="M 240.71389770507812 110.54630279541016 A 2 2 0 1 1 240.7138967050782 110.54430279574349" fill-opacity="1" clip-path="url(#CFrkEcOnMFla)" stroke-opacity="1" stroke-linejoin="bevel" stroke-miterlimit="10" stroke-dasharray=""/><path fill="rgb(31,119,180)" stroke="rgb(31,119,180)" paint-order="fill" d="M 137.32708740234375 107.90823364257812 A 2 2 0 1 1 137.32708640234384 107.90623364291146" fill-opacity="1" clip-path="url(#CFrkEcOnMFla)" stroke-opacity="1" stroke-linejoin="bevel" stroke-miterlimit="10" stroke-dasharray=""/><path fill="rgb(31,119,180)" stroke="rgb(31,119,180)" paint-order="fill" d="M 115.93672180175781 166.6462860107422 A 2 2 0 1 1 115.9367208017579 166.6442860110755" fill-opacity="1" clip-path="url(#CFrkEcOnMFla)" stroke-opacity="1" stroke-linejoin="bevel" stroke-miterlimit="10" stroke-dasharray=""/><path fill="rgb(31,119,180)" stroke="rgb(31,119,180)" paint-order="fill" d="M 187.2379608154297 121.88851165771484 A 2 2 0 1 1 187.23795981542978 121.88651165804818" fill-opacity="1" clip-path="url(#CFrkEcOnMFla)" stroke-opacity="1" stroke-linejoin="bevel" stroke-miterlimit="10" stroke-dasharray=""/><path fill="rgb(31,119,180)" stroke="rgb(31,119,180)" paint-order="fill" d="M 123.06684112548828 178.56976318359375 A 2 2 0 1 1 123.06684012548837 178.56776318392707" fill-opacity="1" clip-path="url(#CFrkEcOnMFla)" stroke-opacity="1" stroke-linejoin="bevel" stroke-miterlimit="10" stroke-dasharray=""/><path fill="rgb(31,119,180)" stroke="rgb(31,119,180)" paint-order="fill" d="M 194.3680877685547 109.80108642578125 A 2 2 0 1 1 194.36808676855478 109.79908642611458" fill-opacity="1" clip-path="url(#CFrkEcOnMFla)" stroke-opacity="1" stroke-linejoin="bevel" stroke-miterlimit="10" stroke-dasharray=""/><path fill="rgb(31,119,180)" stroke="rgb(31,119,180)" paint-order="fill" d="M 240.71389770507812 125.28670501708984 A 2 2 0 1 1 240.7138967050782 125.28470501742318" fill-opacity="1" clip-path="url(#CFrkEcOnMFla)" stroke-opacity="1" stroke-linejoin="bevel" stroke-miterlimit="10" stroke-dasharray=""/><path fill="rgb(31,119,180)" stroke="rgb(31,119,180)" paint-order="fill" d="M 115.93672180175781 140.60838317871094 A 2 2 0 1 1 115.9367208017579 140.60638317904426" fill-opacity="1" clip-path="url(#CFrkEcOnMFla)" stroke-opacity="1" stroke-linejoin="bevel" stroke-miterlimit="10" stroke-dasharray=""/><path fill="rgb(31,119,180)" stroke="rgb(31,119,180)" paint-order="fill" d="M 130.19696807861328 208.67654418945312 A 2 2 0 1 1 130.19696707861337 208.67454418978645" fill-opacity="1" clip-path="url(#CFrkEcOnMFla)" stroke-opacity="1" stroke-linejoin="bevel" stroke-miterlimit="10" stroke-dasharray=""/><path fill="rgb(31,119,180)" stroke="rgb(31,119,180)" paint-order="fill" d="M 180.10784912109375 173.87489318847656 A 2 2 0 1 1 180.10784812109384 173.87289318880988" fill-opacity="1" clip-path="url(#CFrkEcOnMFla)" stroke-opacity="1" stroke-linejoin="bevel" stroke-miterlimit="10" stroke-dasharray=""/><path fill="rgb(31,119,180)" stroke="rgb(31,119,180)" paint-order="fill" d="M 194.3680877685547 80.05199432373047 A 2 2 0 1 1 194.36808676855478 80.0499943240638" fill-opacity="1" clip-path="url(#CFrkEcOnMFla)" stroke-opacity="1" stroke-linejoin="bevel" stroke-miterlimit="10" stroke-dasharray=""/><path fill="rgb(31,119,180)" stroke="rgb(31,119,180)" paint-order="fill" d="M 140.89215087890625 151.5481719970703 A 2 2 0 1 1 140.89214987890634 151.54617199740363" fill-opacity="1" clip-path="url(#CFrkEcOnMFla)" stroke-opacity="1" stroke-linejoin="bevel" stroke-miterlimit="10" stroke-dasharray=""/><path fill="rgb(31,119,180)" stroke="rgb(31,119,180)" paint-order="fill" d="M 123.06684112548828 212.92428588867188 A 2 2 0 1 1 123.06684012548837 212.9222858890052" fill-opacity="1" clip-path="url(#CFrkEcOnMFla)" stroke-opacity="1" stroke-linejoin="bevel" stroke-miterlimit="10" stroke-dasharray=""/><path fill="rgb(31,119,180)" stroke="rgb(31,119,180)" paint-order="fill" d="M 162.28253173828125 140.81703186035156 A 2 2 0 1 1 162.28253073828134 140.81503186068488" fill-opacity="1" clip-path="url(#CFrkEcOnMFla)" stroke-opacity="1" stroke-linejoin="bevel" stroke-miterlimit="10" stroke-dasharray=""/><path fill="rgb(31,119,180)" stroke="rgb(31,119,180)" paint-order="fill" d="M 69.59091186523438 218.40908813476562 A 2 2 0 1 1 69.59091086523446 218.40708813509895" fill-opacity="1" clip-path="url(#CFrkEcOnMFla)" stroke-opacity="1" stroke-linejoin="bevel" stroke-miterlimit="10" stroke-dasharray=""/><path fill="rgb(31,119,180)" stroke="rgb(31,119,180)" paint-order="fill" d="M 251.40908813476562 36.59090805053711 A 2 2 0 1 1 251.4090871347657 36.588908050870444" fill-opacity="1" clip-path="url(#CFrkEcOnMFla)" stroke-opacity="1" stroke-linejoin="bevel" stroke-miterlimit="10" stroke-dasharray=""/><path fill="none" stroke="rgb(0,0,0)" paint-order="fill" d="M 58.5 227.5 L 258.5 227.5" stroke-opacity="1" stroke-linejoin="bevel" stroke-miterlimit="10" stroke-dasharray=""/><path fill="none" stroke="rgb(0,0,0)" paint-order="fill" d="M 64.5 233.5 L 64.5 225.5 M 99.5 233.5 L 99.5 225.5 M 135.5 233.5 L 135.5 225.5 M 170.5 233.5 L 170.5 225.5 M 206.5 233.5 L 206.5 225.5 M 242.5 233.5 L 242.5 225.5" stroke-opacity="1" stroke-linejoin="bevel" stroke-miterlimit="10" stroke-dasharray=""/><path fill="none" stroke="rgb(0,0,0)" paint-order="fill" d="M 64.5 231.5 L 64.5 227.5 M 71.5 231.5 L 71.5 227.5 M 78.5 231.5 L 78.5 227.5 M 85.5 231.5 L 85.5 227.5 M 92.5 231.5 L 92.5 227.5 M 99.5 231.5 L 99.5 227.5 M 106.5 231.5 L 106.5 227.5 M 113.5 231.5 L 113.5 227.5 M 121.5 231.5 L 121.5 227.5 M 128.5 231.5 L 128.5 227.5 M 135.5 231.5 L 135.5 227.5 M 142.5 231.5 L 142.5 227.5 M 149.5 231.5 L 149.5 227.5 M 156.5 231.5 L 156.5 227.5 M 163.5 231.5 L 163.5 227.5 M 170.5 231.5 L 170.5 227.5 M 178.5 231.5 L 178.5 227.5 M 185.5 231.5 L 185.5 227.5 M 192.5 231.5 L 192.5 227.5 M 199.5 231.5 L 199.5 227.5 M 206.5 231.5 L 206.5 227.5 M 213.5 231.5 L 213.5 227.5 M 220.5 231.5 L 220.5 227.5 M 228.5 231.5 L 228.5 227.5 M 235.5 231.5 L 235.5 227.5 M 242.5 231.5 L 242.5 227.5 M 249.5 231.5 L 249.5 227.5 M 256.5 231.5 L 256.5 227.5" stroke-opacity="1" stroke-linejoin="bevel" stroke-miterlimit="10" stroke-dasharray=""/><text fill="rgb(68,68,68)" stroke="none" font-family="helvetica" font-size="11px" font-style="normal" font-weight="normal" text-decoration="normal" x="57.408172607421875" y="245.89013671875" text-anchor="start" dominant-baseline="alphabetic" transform="matrix(1, 0, 0, 1, 0.5, 0.5)" fill-opacity="1">33</text><text fill="rgb(68,68,68)" stroke="none" font-family="helvetica" font-size="11px" font-style="normal" font-weight="normal" text-decoration="normal" x="93.05879211425781" y="245.89013671875" text-anchor="start" dominant-baseline="alphabetic" transform="matrix(1, 0, 0, 1, 0.5, 0.5)" fill-opacity="1">34</text><text fill="rgb(68,68,68)" stroke="none" font-family="helvetica" font-size="11px" font-style="normal" font-weight="normal" text-decoration="normal" x="128.70941162109375" y="245.89013671875" text-anchor="start" dominant-baseline="alphabetic" transform="matrix(1, 0, 0, 1, 0.5, 0.5)" fill-opacity="1">35</text><text fill="rgb(68,68,68)" stroke="none" font-family="helvetica" font-size="11px" font-style="normal" font-weight="normal" text-decoration="normal" x="164.36004638671875" y="245.89013671875" text-anchor="start" dominant-baseline="alphabetic" transform="matrix(1, 0, 0, 1, 0.5, 0.5)" fill-opacity="1">36</text><text fill="rgb(68,68,68)" stroke="none" font-family="helvetica" font-size="11px" font-style="normal" font-weight="normal" text-decoration="normal" x="200.0106658935547" y="245.89013671875" text-anchor="start" dominant-baseline="alphabetic" transform="matrix(1, 0, 0, 1, 0.5, 0.5)" fill-opacity="1">37</text><text fill="rgb(68,68,68)" stroke="none" font-family="helvetica" font-size="11px" font-style="normal" font-weight="normal" text-decoration="normal" x="235.66128540039062" y="245.89013671875" text-anchor="start" dominant-baseline="alphabetic" transform="matrix(1, 0, 0, 1, 0.5, 0.5)" fill-opacity="1">38</text><text fill="rgb(68,68,68)" stroke="none" font-family="helvetica" font-size="13px" font-style="italic" font-weight="normal" text-decoration="normal" x="129.819580078125" y="265.89013671875" text-anchor="start" dominant-baseline="alphabetic" transform="matrix(1, 0, 0, 1, 0.5, 0.5)" fill-opacity="1">Observed</text><path fill="none" stroke="rgb(0,0,0)" paint-order="fill" d="M 58.5 227.5 L 58.5 27.5" stroke-opacity="1" stroke-linejoin="bevel" stroke-miterlimit="10" stroke-dasharray=""/><path fill="none" stroke="rgb(0,0,0)" paint-order="fill" d="M 52.5 198.5 L 60.5 198.5 M 52.5 160.5 L 60.5 160.5 M 52.5 123.5 L 60.5 123.5 M 52.5 86.5 L 60.5 86.5 M 52.5 49.5 L 60.5 49.5" stroke-opacity="1" stroke-linejoin="bevel" stroke-miterlimit="10" stroke-dasharray=""/><path fill="none" stroke="rgb(0,0,0)" paint-order="fill" d="M 54.5 205.5 L 58.5 205.5 M 54.5 213.5 L 58.5 213.5 M 54.5 220.5 L 58.5 220.5 M 54.5 198.5 L 58.5 198.5 M 54.5 190.5 L 58.5 190.5 M 54.5 183.5 L 58.5 183.5 M 54.5 175.5 L 58.5 175.5 M 54.5 168.5 L 58.5 168.5 M 54.5 160.5 L 58.5 160.5 M 54.5 153.5 L 58.5 153.5 M 54.5 145.5 L 58.5 145.5 M 54.5 138.5 L 58.5 138.5 M 54.5 131.5 L 58.5 131.5 M 54.5 123.5 L 58.5 123.5 M 54.5 116.5 L 58.5 116.5 M 54.5 108.5 L 58.5 108.5 M 54.5 101.5 L 58.5 101.5 M 54.5 93.5 L 58.5 93.5 M 54.5 86.5 L 58.5 86.5 M 54.5 78.5 L 58.5 78.5 M 54.5 71.5 L 58.5 71.5 M 54.5 64.5 L 58.5 64.5 M 54.5 56.5 L 58.5 56.5 M 54.5 49.5 L 58.5 49.5 M 54.5 41.5 L 58.5 41.5 M 54.5 34.5 L 58.5 34.5" stroke-opacity="1" stroke-linejoin="bevel" stroke-miterlimit="10" stroke-dasharray=""/><text fill="rgb(68,68,68)" stroke="none" font-family="helvetica" font-size="11px" font-style="normal" font-weight="normal" text-decoration="normal" x="34.7646484375" y="201.59915161132812" text-anchor="start" dominant-baseline="alphabetic" transform="matrix(1, 0, 0, 1, 0.5, 0.5)" fill-opacity="1">35</text><text fill="rgb(68,68,68)" stroke="none" font-family="helvetica" font-size="11px" font-style="normal" font-weight="normal" text-decoration="normal" x="25.5908203125" y="164.33827209472656" text-anchor="start" dominant-baseline="alphabetic" transform="matrix(1, 0, 0, 1, 0.5, 0.5)" fill-opacity="1">35.5</text><text fill="rgb(68,68,68)" stroke="none" font-family="helvetica" font-size="11px" font-style="normal" font-weight="normal" text-decoration="normal" x="34.7646484375" y="127.077392578125" text-anchor="start" dominant-baseline="alphabetic" transform="matrix(1, 0, 0, 1, 0.5, 0.5)" fill-opacity="1">36</text><text fill="rgb(68,68,68)" stroke="none" font-family="helvetica" font-size="11px" font-style="normal" font-weight="normal" text-decoration="normal" x="25.5908203125" y="89.81651306152344" text-anchor="start" dominant-baseline="alphabetic" transform="matrix(1, 0, 0, 1, 0.5, 0.5)" fill-opacity="1">36.5</text><text fill="rgb(68,68,68)" stroke="none" font-family="helvetica" font-size="11px" font-style="normal" font-weight="normal" text-decoration="normal" x="34.7646484375" y="52.555633544921875" text-anchor="start" dominant-baseline="alphabetic" transform="matrix(1, 0, 0, 1, 0.5, 0.5)" fill-opacity="1">37</text><text fill="rgb(68,68,68)" stroke="none" font-family="helvetica" font-size="13px" font-style="italic" font-weight="normal" text-decoration="normal" x="-9.869140625" y="124" text-anchor="start" dominant-baseline="alphabetic" transform="matrix(6.123233995736766e-17, -1, 1, 6.123233995736766e-17, -108.9091796875, 145.0908203125)" fill-opacity="1">Predicted</text><path fill="none" stroke="rgb(255,140,0)" paint-order="fill" d="M 216.96666666666488 27.5 L 121.28823529411602 227.5" stroke-opacity="1" stroke-linejoin="bevel" stroke-miterlimit="10" stroke-width="2" stroke-dasharray="" clip-path="url(#RhwxQTGccaRL)"/><path fill="none" stroke="none"/><text fill="rgb(68,68,68)" stroke="none" font-family="helvetica" font-size="13px" font-style="normal" font-weight="bold" text-decoration="normal" x="0" y="0" text-anchor="start" dominant-baseline="text-after-edge" transform="matrix(1, 0, 0, 1, 58.5, 22.5)" fill-opacity="1">Salinity (PSU), &lt;R²&gt; = 0.19</text></svg>