<svg version="1.1" xmlns="http://www.w3.org/2000/svg" xmlns:xlink="http://www.w3.org/1999/xlink" width="263" height="272"><defs><clipPath id="SdNUKyENpeqQ"><path fill="none" stroke="none" d="M 58.5 27.5 L 258.5 27.5 L 258.5 227.5 L 58.5 227.5 L 58.5 27.5"/></clipPath><clipPath id="tBeWTAMdhdXC"><path fill="none" stroke="none" d="M 58.5 27.5 L 258.5 27.5 L 258.5 227.5 L 58.5 227.5 L 58.5 27.5"/></clipPath><clipPath id="pBcWInfyIxVQ"><path fill="none" stroke="none" d="M 58.5 27.5 L 258.5 27.5 L 258.5 227.5 L 58.5 227.5 L 58.5 27.5"/></clipPath><clipPath id="GqZNqOxCKmtT"><path fill="none" stroke="none" d="M 58.5 27.5 L 258.5 27.5 L 258.5 227.5 L 58.5 227.5 L 58.5 27.5"/></clipPath><clipPath id="rbAiMdxxIyML"><path fill="none" stroke="none" d="M 58.5 27.5 L 258.5 27.5 L 258.5 227.5 L 58.5 227.5 L 58.5 27.5"/></clipPath></defs><path fill="none" stroke="rgb(229,229,229)" paint-order="fill" d="M 58.5 27.5 L 258.5 27.5 L 258.5 227.5 L 58.5 227.5 L 58.5 27.5" stroke-opacity="1" stroke-linejoin="bevel" stroke-miterlimit="10" stroke-dasharray=""/><path fill="none" stroke="rgb(229,229,229)" paint-order="fill" d="M 67.5 227.5 L 67.5 27.5 M 97.5 227.5 L 97.5 27.5 M 128.5 227.5 L 128.5 27.5 M 158.5 227.5 L 158.5 27.5 M 188.5 227.5 L 188.5 27.5 M 219.5 227.5 L 219.5 27.5 M 249.5 227.5 L 249.5 27.5" stroke-opacity="1" stroke-linejoin="bevel" stroke-miterlimit="10" stroke-dasharray="" clip-path="url(#SdNUKyENpeqQ)"/><path fill="none" stroke="rgb(229,229,229)" paint-order="fill" d="M 58.5 188.5 L 258.5 188.5 M 58.5 142.5 L 258.5 142.5 M 58.5 97.5 L 258.5 97.5 M 58.5 51.5 L 258.5 51.5" stroke-opacity="1" stroke-linejoin="bevel" stroke-miterlimit="10" stroke-dasharray="" clip-path="url(#tBeWTAMdhdXC)"/><path fill="none" stroke="none"/><path fill="rgb(31,119,180)" stroke="rgb(31,119,180)" paint-order="fill" d="M 136.257568359375 195.695556640625 A 2 2 0 1 1 136.2575673593751 195.69355664095832" fill-opacity="1" clip-path="url(#pBcWInfyIxVQ)" stroke-opacity="1" stroke-linejoin="bevel" stroke-miterlimit="10" stroke-dasharray=""/><path fill="rgb(31,119,180)" stroke="rgb(31,119,180)" paint-order="fill" d="M 160.5 36.59090805053711 A 2 2 0 1 1 160.4999990000001 36.588908050870444" fill-opacity="1" clip-path="url(#pBcWInfyIxVQ)" stroke-opacity="1" stroke-linejoin="bevel" stroke-miterlimit="10" stroke-dasharray=""/><path fill="rgb(31,119,180)" stroke="rgb(31,119,180)" paint-order="fill" d="M 69.59091186523438 139.71768188476562 A 2 2 0 1 1 69.59091086523446 139.71568188509895" fill-opacity="1" clip-path="url(#pBcWInfyIxVQ)" stroke-opacity="1" stroke-linejoin="bevel" stroke-miterlimit="10" stroke-dasharray=""/><path fill="rgb(31,119,180)" stroke="rgb(31,119,180)" paint-order="fill" d="M 251.40908813476562 56.410301208496094 A 2 2 0 1 1 251.4090871347657 56.40830120882943" fill-opacity="1" clip-path="url(#pBcWInfyIxVQ)" stroke-opacity="1" stroke-linejoin="bevel" stroke-miterlimit="10" stroke-dasharray=""/><path fill="rgb(31,119,180)" stroke="rgb(31,119,180)" paint-order="fill" d="M 87.7727279663086 97.58773803710938 A 2 2 0 1 1 87.77272696630868 97.58573803744271" fill-opacity="1" clip-path="url(#pBcWInfyIxVQ)" stroke-opacity="1" stroke-linejoin="bevel" stroke-miterlimit="10" stroke-dasharray=""/><path fill="rgb(31,119,180)" stroke="rgb(31,119,180)" paint-order="fill" d="M 81.71212005615234 189.10130310058594 A 2 2 0 1 1 81.71211905615243 189.09930310091926" fill-opacity="1" clip-path="url(#pBcWInfyIxVQ)" stroke-opacity="1" stroke-linejoin="bevel" stroke-miterlimit="10" stroke-dasharray=""/><path fill="rgb(31,119,180)" stroke="rgb(31,119,180)" paint-order="fill" d="M 233.22727966308594 164.50108337402344 A 2 2 0 1 1 233.22727866308603 164.49908337435676" fill-opacity="1" clip-path="url(#pBcWInfyIxVQ)" stroke-opacity="1" stroke-linejoin="bevel" stroke-miterlimit="10" stroke-dasharray=""/><path fill="rgb(31,119,180)" stroke="rgb(31,119,180)" paint-order="fill" d="M 69.59091186523438 215.40504455566406 A 2 2 0 1 1 69.59091086523446 215.40304455599738" fill-opacity="1" clip-path="url(#pBcWInfyIxVQ)" stroke-opacity="1" stroke-linejoin="bevel" stroke-miterlimit="10" stroke-dasharray=""/><path fill="rgb(31,119,180)" stroke="rgb(31,119,180)" paint-order="fill" d="M 87.7727279663086 218.15264892578125 A 2 2 0 1 1 87.77272696630868 218.15064892611457" fill-opacity="1" clip-path="url(#pBcWInfyIxVQ)" stroke-opacity="1" stroke-linejoin="bevel" stroke-miterlimit="10" stroke-dasharray=""/><path fill="rgb(31,119,180)" stroke="rgb(31,119,180)" paint-order="fill" d="M 87.7727279663086 130.3391876220703 A 2 2 0 1 1 87.77272696630868 130.33718762240363" fill-opacity="1" clip-path="url(#pBcWInfyIxVQ)" stroke-opacity="1" stroke-linejoin="bevel" stroke-miterlimit="10" stroke-dasharray=""/><path fill="rgb(31,119,180)" stroke="rgb(31,119,180)" paint-order="fill" d="M 75.6515121459961 170.783935546875 A 2 2 0 1 1 75.65151114599618 170.78193554720832" fill-opacity="1" clip-path="url(#pBcWInfyIxVQ)" stroke-opacity="1" stroke-linejoin="bevel" stroke-miterlimit="10" stroke-dasharray=""/><path fill="rgb(31,119,180)" stroke="rgb(31,119,180)" paint-order="fill" d="M 154.43939208984375 56.86823272705078 A 2 2 0 1 1 154.43939108984384 56.866232727384116" fill-opacity="1" clip-path="url(#pBcWInfyIxVQ)" stroke-opacity="1" stroke-linejoin="bevel" stroke-miterlimit="10" stroke-dasharray=""/><path fill="rgb(31,119,180)" stroke="rgb(31,119,180)" paint-order="fill" d="M 69.59091186523438 218.40908813476562 A 2 2 0 1 1 69.59091086523446 218.40708813509895" fill-opacity="1" clip-path="url(#pBcWInfyIxVQ)" stroke-opacity="1" stroke-linejoin="bevel" stroke-miterlimit="10" stroke-dasharray=""/><path fill="rgb(31,119,180)" stroke="rgb(31,119,180)" paint-order="fill" d="M 75.6515121459961 217.18182373046875 A 2 2 0 1 1 75.65151114599618 217.17982373080207" fill-opacity="1" clip-path="url(#pBcWInfyIxVQ)" stroke-opacity="1" stroke-linejoin="bevel" stroke-miterlimit="10" stroke-dasharray=""/><path fill="rgb(31,119,180)" stroke="rgb(31,119,180)" paint-order="fill" d="M 154.43939208984375 83.00711822509766 A 2 2 0 1 1 154.43939108984384 83.00511822543099" fill-opacity="1" clip-path="url(#pBcWInfyIxVQ)" stroke-opacity="1" stroke-linejoin="bevel" stroke-miterlimit="10" stroke-dasharray=""/><path fill="rgb(31,119,180)" stroke="rgb(31,119,180)" paint-order="fill" d="M 69.59091186523438 216.02783203125 A 2 2 0 1 1 69.59091086523446 216.02583203158332" fill-opacity="1" clip-path="url(#pBcWInfyIxVQ)" stroke-opacity="1" stroke-linejoin="bevel" stroke-miterlimit="10" stroke-dasharray=""/><path fill="rgb(31,119,180)" stroke="rgb(31,119,180)" paint-order="fill" d="M 69.59091186523438 183.84422302246094 A 2 2 0 1 1 69.59091086523446 183.84222302279426" fill-opacity="1" clip-path="url(#pBcWInfyIxVQ)" stroke-opacity="1" stroke-linejoin="bevel" stroke-miterlimit="10" stroke-dasharray=""/><path fill="rgb(31,119,180)" stroke="rgb(31,119,180)" paint-order="fill" d="M 81.71212005615234 186.77499389648438 A 2 2 0 1 1 81.71211905615243 186.7729938968177" fill-opacity="1" clip-path="url(#pBcWInfyIxVQ)" stroke-opacity="1" stroke-linejoin="bevel" stroke-miterlimit="10" stroke-dasharray=""/><path fill="rgb(31,119,180)" stroke="rgb(31,119,180)" paint-order="fill" d="M 130.19696807861328 103.92555236816406 A 2 2 0 1 1 130.19696707861337 103.9235523684974" fill-opacity="1" clip-path="url(#pBcWInfyIxVQ)" stroke-opacity="1" stroke-linejoin="bevel" stroke-miterlimit="10" stroke-dasharray=""/><path fill="rgb(31,119,180)" stroke="rgb(31,119,180)" paint-order="fill" d="M 81.71212005615234 165.94815063476562 A 2 2 0 1 1 81.71211905615243 165.94615063509895" fill-opacity="1" clip-path="url(#pBcWInfyIxVQ)" stroke-opacity="1" stroke-linejoin="bevel" stroke-miterlimit="10" stroke-dasharray=""/><path fill="none" stroke="rgb(0,0,0)" paint-order="fill" d="M 58.5 227.5 L 258.5 227.5" stroke-opacity="1" stroke-linejoin="bevel" stroke-miterlimit="10" stroke-dasharray=""/><path fill="none" stroke="rgb(0,0,0)" paint-order="fill" d="M 67.5 233.5 L 67.5 225.5 M 97.5 233.5 L 97.5 225.5 M 128.5 233.5 L 128.5 225.5 M 158.5 233.5 L 158.5 225.5 M 188.5 233.5 L 188.5 225.5 M 219.5 233.5 L 219.5 225.5 M 249.5 233.5 L 249.5 225.5" stroke-opacity="1" stroke-linejoin="bevel" stroke-miterlimit="10" stroke-dasharray=""/><path fill="none" stroke="rgb(0,0,0)" paint-order="fill" d="M 61.5 231.5 L 61.5 227.5 M 67.5 231.5 L 67.5 227.5 M 73.5 231.5 L 73.5 227.5 M 79.5 231.5 L 79.5 227.5 M 85.5 231.5 L 85.5 227.5 M 91.5 231.5 L 91.5 227.5 M 97.5 231.5 L 97.5 227.5 M 103.5 231.5 L 103.5 227.5 M 110.5 231.5 L 110.5 227.5 M 116.5 231.5 L 116.5 227.5 M 122.5 231.5 L 122.5 227.5 M 128.5 231.5 L 128.5 227.5 M 134.5 231.5 L 134.5 227.5 M 140.5 231.5 L 140.5 227.5 M 146.5 231.5 L 146.5 227.5 M 152.5 231.5 L 152.5 227.5 M 158.5 231.5 L 158.5 227.5 M 164.5 231.5 L 164.5 227.5 M 170.5 231.5 L 170.5 227.5 M 176.5 231.5 L 176.5 227.5 M 182.5 231.5 L 182.5 227.5 M 188.5 231.5 L 188.5 227.5 M 194.5 231.5 L 194.5 227.5 M 200.5 231.5 L 200.5 227.5 M 206.5 231.5 L 206.5 227.5 M 213.5 231.5 L 213.5 227.5 M 219.5 231.5 L 219.5 227.5 M 225.5 231.5 L 225.5 227.5 M 231.5 231.5 L 231.5 227.5 M 237.5 231.5 L 237.5 227.5 M 243.5 231.5 L 243.5 227.5 M 249.5 231.5 L 249.5 227.5 M 255.5 231.5 L 255.5 227.5" stroke-opacity="1" stroke-linejoin="bevel" stroke-miterlimit="10" stroke-dasharray=""/><text fill="rgb(68,68,68)" stroke="none" font-family="helvetica" font-size="11px" font-style="normal" font-weight="normal" text-decoration="normal" x="64.03207397460938" y="245.89013671875" text-anchor="start" dominant-baseline="alphabetic" transform="matrix(1, 0, 0, 1, 0.5, 0.5)" fill-opacity="1">0</text><text fill="rgb(68,68,68)" stroke="none" font-family="helvetica" font-size="11px" font-style="normal" font-weight="normal" text-decoration="normal" x="86.68934631347656" y="245.89013671875" text-anchor="start" dominant-baseline="alphabetic" transform="matrix(1, 0, 0, 1, 0.5, 0.5)" fill-opacity="1">0.05</text><text fill="rgb(68,68,68)" stroke="none" font-family="helvetica" font-size="11px" font-style="normal" font-weight="normal" text-decoration="normal" x="120.05121612548828" y="245.89013671875" text-anchor="start" dominant-baseline="alphabetic" transform="matrix(1, 0, 0, 1, 0.5, 0.5)" fill-opacity="1">0.1</text><text fill="rgb(68,68,68)" stroke="none" font-family="helvetica" font-size="11px" font-style="normal" font-weight="normal" text-decoration="normal" x="147.29541015625" y="245.89013671875" text-anchor="start" dominant-baseline="alphabetic" transform="matrix(1, 0, 0, 1, 0.5, 0.5)" fill-opacity="1">0.15</text><text fill="rgb(68,68,68)" stroke="none" font-family="helvetica" font-size="11px" font-style="normal" font-weight="normal" text-decoration="normal" x="180.6572723388672" y="245.89013671875" text-anchor="start" dominant-baseline="alphabetic" transform="matrix(1, 0, 0, 1, 0.5, 0.5)" fill-opacity="1">0.2</text><text fill="rgb(68,68,68)" stroke="none" font-family="helvetica" font-size="11px" font-style="normal" font-weight="normal" text-decoration="normal" x="207.90147399902344" y="245.89013671875" text-anchor="start" dominant-baseline="alphabetic" transform="matrix(1, 0, 0, 1, 0.5, 0.5)" fill-opacity="1">0.25</text><text fill="rgb(68,68,68)" stroke="none" font-family="helvetica" font-size="11px" font-style="normal" font-weight="normal" text-decoration="normal" x="241.26333618164062" y="245.89013671875" text-anchor="start" dominant-baseline="alphabetic" transform="matrix(1, 0, 0, 1, 0.5, 0.5)" fill-opacity="1">0.3</text><text fill="rgb(68,68,68)" stroke="none" font-family="helvetica" font-size="13px" font-style="italic" font-weight="normal" text-decoration="normal" x="129.819580078125" y="265.89013671875" text-anchor="start" dominant-baseline="alphabetic" transform="matrix(1, 0, 0, 1, 0.5, 0.5)" fill-opacity="1">Observed</text><path fill="none" stroke="rgb(0,0,0)" paint-order="fill" d="M 58.5 227.5 L 58.5 27.5" stroke-opacity="1" stroke-linejoin="bevel" stroke-miterlimit="10" stroke-dasharray=""/><path fill="none" stroke="rgb(0,0,0)" paint-order="fill" d="M 52.5 188.5 L 60.5 188.5 M 52.5 142.5 L 60.5 142.5 M 52.5 97.5 L 60.5 97.5 M 52.5 51.5 L 60.5 51.5" stroke-opacity="1" stroke-linejoin="bevel" stroke-miterlimit="10" stroke-dasharray=""/><path fill="none" stroke="rgb(0,0,0)" paint-order="fill" d="M 54.5 197.5 L 58.5 197.5 M 54.5 206.5 L 58.5 206.5 M 54.5 216.5 L 58.5 216.5 M 54.5 225.5 L 58.5 225.5 M 54.5 188.5 L 58.5 188.5 M 54.5 179.5 L 58.5 179.5 M 54.5 170.5 L 58.5 170.5 M 54.5 161.5 L 58.5 161.5 M 54.5 151.5 L 58.5 151.5 M 54.5 142.5 L 58.5 142.5 M 54.5 133.5 L 58.5 133.5 M 54.5 124.5 L 58.5 124.5 M 54.5 115.5 L 58.5 115.5 M 54.5 106.5 L 58.5 106.5 M 54.5 97.5 L 58.5 97.5 M 54.5 87.5 L 58.5 87.5 M 54.5 78.5 L 58.5 78.5 M 54.5 69.5 L 58.5 69.5 M 54.5 60.5 L 58.5 60.5 M 54.5 51.5 L 58.5 51.5 M 54.5 42.5 L 58.5 42.5 M 54.5 32.5 L 58.5 32.5" stroke-opacity="1" stroke-linejoin="bevel" stroke-miterlimit="10" stroke-dasharray=""/><text fill="rgb(68,68,68)" stroke="none" font-family="helvetica" font-size="11px" font-style="normal" font-weight="normal" text-decoration="normal" x="25.5908203125" y="192.0701141357422" text-anchor="start" dominant-baseline="alphabetic" transform="matrix(1, 0, 0, 1, 0.5, 0.5)" fill-opacity="1">0.05</text><text fill="rgb(68,68,68)" stroke="none" font-family="helvetica" font-size="11px" font-style="normal" font-weight="normal" text-decoration="normal" x="31.70849609375" y="146.27670288085938" text-anchor="start" dominant-baseline="alphabetic" transform="matrix(1, 0, 0, 1, 0.5, 0.5)" fill-opacity="1">0.1</text><text fill="rgb(68,68,68)" stroke="none" font-family="helvetica" font-size="11px" font-style="normal" font-weight="normal" text-decoration="normal" x="25.5908203125" y="100.48328399658203" text-anchor="start" dominant-baseline="alphabetic" transform="matrix(1, 0, 0, 1, 0.5, 0.5)" fill-opacity="1">0.15</text><text fill="rgb(68,68,68)" stroke="none" font-family="helvetica" font-size="11px" font-style="normal" font-weight="normal" text-decoration="normal" x="31.70849609375" y="54.68986892700195" text-anchor="start" dominant-baseline="alphabetic" transform="matrix(1, 0, 0, 1, 0.5, 0.5)" fill-opacity="1">0.2</text><text fill="rgb(68,68,68)" stroke="none" font-family="helvetica" font-size="13px" font-style="italic" font-weight="normal" text-decoration="normal" x="-9.869140625" y="124" text-anchor="start" dominant-baseline="alphabetic" transform="matrix(6.123233995736766e-17, -1, 1, 6.123233995736766e-17, -108.9091796875, 145.0908203125)" fill-opacity="1">Predicted</text><path fill="none" stroke="rgb(255,140,0)" paint-order="fill" d="M 204.51575757575762 27.5 L 72.16909090909084 227.5" stroke-opacity="1" stroke-linejoin="bevel" stroke-miterlimit="10" stroke-width="2" stroke-dasharray="" clip-path="url(#GqZNqOxCKmtT)"/><path fill="none" stroke="none"/><text fill="rgb(68,68,68)" stroke="none" font-family="helvetica" font-size="13px" font-style="normal" font-weight="bold" text-decoration="normal" x="0" y="0" text-anchor="start" dominant-baseline="text-after-edge" transform="matrix(1, 0, 0, 1, 58.5, 22.5)" fill-opacity="1">NO2 (µmol/L), &lt;R²&gt; = -0.81</text></svg>