<svg version="1.1" xmlns="http://www.w3.org/2000/svg" xmlns:xlink="http://www.w3.org/1999/xlink" width="254" height="272"><defs><clipPath id="XRBarhBwcGHB"><path fill="none" stroke="none" d="M 49.5 27.5 L 249.5 27.5 L 249.5 227.5 L 49.5 227.5 L 49.5 27.5"/></clipPath><clipPath id="WHZihcgCpZgQ"><path fill="none" stroke="none" d="M 49.5 27.5 L 249.5 27.5 L 249.5 227.5 L 49.5 227.5 L 49.5 27.5"/></clipPath><clipPath id="iiaoWnIarhOR"><path fill="none" stroke="none" d="M 49.5 27.5 L 249.5 27.5 L 249.5 227.5 L 49.5 227.5 L 49.5 27.5"/></clipPath><clipPath id="FtEbuDdqaBgn"><path fill="none" stroke="none" d="M 49.5 27.5 L 249.5 27.5 L 249.5 227.5 L 49.5 227.5 L 49.5 27.5"/></clipPath><clipPath id="fUuXFcOXBXSU"><path fill="none" stroke="none" d="M 49.5 27.5 L 249.5 27.5 L 249.5 227.5 L 49.5 227.5 L 49.5 27.5"/></clipPath></defs><path fill="none" stroke="rgb(229,229,229)" paint-order="fill" d="M 49.5 27.5 L 249.5 27.5 L 249.5 227.5 L 49.5 227.5 L 49.5 27.5" stroke-opacity="1" stroke-linejoin="bevel" stroke-miterlimit="10" stroke-dasharray=""/><path fill="none" stroke="rgb(229,229,229)" paint-order="fill" d="M 53.5 227.5 L 53.5 27.5 M 88.5 227.5 L 88.5 27.5 M 123.5 227.5 L 123.5 27.5 M 158.5 227.5 L 158.5 27.5 M 194.5 227.5 L 194.5 27.5 M 229.5 227.5 L 229.5 27.5" stroke-opacity="1" stroke-linejoin="bevel" stroke-miterlimit="10" stroke-dasharray="" clip-path="url(#XRBarhBwcGHB)"/><path fill="none" stroke="rgb(229,229,229)" paint-order="fill" d="M 49.5 181.5 L 249.5 181.5 M 49.5 131.5 L 249.5 131.5 M 49.5 80.5 L 249.5 80.5 M 49.5 30.5 L 249.5 30.5" stroke-opacity="1" stroke-linejoin="bevel" stroke-miterlimit="10" stroke-dasharray="" clip-path="url(#WHZihcgCpZgQ)"/><path fill="none" stroke="none"/><path fill="rgb(31,119,180)" stroke="rgb(31,119,180)" paint-order="fill" d="M 233.2830810546875 49.13459777832031 A 2 2 0 1 1 233.2830800546876 49.13259777865365" fill-opacity="1" clip-path="url(#iiaoWnIarhOR)" stroke-opacity="1" stroke-linejoin="bevel" stroke-miterlimit="10" stroke-dasharray=""/><path fill="rgb(31,119,180)" stroke="rgb(31,119,180)" paint-order="fill" d="M 169.40101623535156 111.9655990600586 A 2 2 0 1 1 169.40101523535165 111.96359906039193" fill-opacity="1" clip-path="url(#iiaoWnIarhOR)" stroke-opacity="1" stroke-linejoin="bevel" stroke-miterlimit="10" stroke-dasharray=""/><path fill="rgb(31,119,180)" stroke="rgb(31,119,180)" paint-order="fill" d="M 231.1770782470703 37.68227767944336 A 2 2 0 1 1 231.1770772470704 37.680277679776694" fill-opacity="1" clip-path="url(#iiaoWnIarhOR)" stroke-opacity="1" stroke-linejoin="bevel" stroke-miterlimit="10" stroke-dasharray=""/><path fill="rgb(31,119,180)" stroke="rgb(31,119,180)" paint-order="fill" d="M 112.5389633178711 184.1023712158203 A 2 2 0 1 1 112.53896231787118 184.10037121615363" fill-opacity="1" clip-path="url(#iiaoWnIarhOR)" stroke-opacity="1" stroke-linejoin="bevel" stroke-miterlimit="10" stroke-dasharray=""/><path fill="rgb(31,119,180)" stroke="rgb(31,119,180)" paint-order="fill" d="M 184.84503173828125 67.24968719482422 A 2 2 0 1 1 184.84503073828134 67.24768719515755" fill-opacity="1" clip-path="url(#iiaoWnIarhOR)" stroke-opacity="1" stroke-linejoin="bevel" stroke-miterlimit="10" stroke-dasharray=""/><path fill="rgb(31,119,180)" stroke="rgb(31,119,180)" paint-order="fill" d="M 212.2230682373047 50.10135269165039 A 2 2 0 1 1 212.22306723730478 50.099352691983725" fill-opacity="1" clip-path="url(#iiaoWnIarhOR)" stroke-opacity="1" stroke-linejoin="bevel" stroke-miterlimit="10" stroke-dasharray=""/><path fill="rgb(31,119,180)" stroke="rgb(31,119,180)" paint-order="fill" d="M 135.00299072265625 188.83163452148438 A 2 2 0 1 1 135.00298972265634 188.8296345218177" fill-opacity="1" clip-path="url(#iiaoWnIarhOR)" stroke-opacity="1" stroke-linejoin="bevel" stroke-miterlimit="10" stroke-dasharray=""/><path fill="rgb(31,119,180)" stroke="rgb(31,119,180)" paint-order="fill" d="M 60.59090805053711 218.40908813476562 A 2 2 0 1 1 60.59090705053719 218.40708813509895" fill-opacity="1" clip-path="url(#iiaoWnIarhOR)" stroke-opacity="1" stroke-linejoin="bevel" stroke-miterlimit="10" stroke-dasharray=""/><path fill="rgb(31,119,180)" stroke="rgb(31,119,180)" paint-order="fill" d="M 170.80502319335938 122.95364379882812 A 2 2 0 1 1 170.80502219335946 122.95164379916146" fill-opacity="1" clip-path="url(#iiaoWnIarhOR)" stroke-opacity="1" stroke-linejoin="bevel" stroke-miterlimit="10" stroke-dasharray=""/><path fill="rgb(31,119,180)" stroke="rgb(31,119,180)" paint-order="fill" d="M 190.46104431152344 69.68164825439453 A 2 2 0 1 1 190.46104331152353 69.67964825472787" fill-opacity="1" clip-path="url(#iiaoWnIarhOR)" stroke-opacity="1" stroke-linejoin="bevel" stroke-miterlimit="10" stroke-dasharray=""/><path fill="rgb(31,119,180)" stroke="rgb(31,119,180)" paint-order="fill" d="M 222.75306701660156 36.59090805053711 A 2 2 0 1 1 222.75306601660165 36.588908050870444" fill-opacity="1" clip-path="url(#iiaoWnIarhOR)" stroke-opacity="1" stroke-linejoin="bevel" stroke-miterlimit="10" stroke-dasharray=""/><path fill="rgb(31,119,180)" stroke="rgb(31,119,180)" paint-order="fill" d="M 102.71095275878906 197.28318786621094 A 2 2 0 1 1 102.71095175878915 197.28118786654426" fill-opacity="1" clip-path="url(#iiaoWnIarhOR)" stroke-opacity="1" stroke-linejoin="bevel" stroke-miterlimit="10" stroke-dasharray=""/><path fill="rgb(31,119,180)" stroke="rgb(31,119,180)" paint-order="fill" d="M 208.7130584716797 46.15393829345703 A 2 2 0 1 1 208.71305747167978 46.151938293790366" fill-opacity="1" clip-path="url(#iiaoWnIarhOR)" stroke-opacity="1" stroke-linejoin="bevel" stroke-miterlimit="10" stroke-dasharray=""/><path fill="rgb(31,119,180)" stroke="rgb(31,119,180)" paint-order="fill" d="M 242.40908813476562 39.589656829833984 A 2 2 0 1 1 242.4090871347657 39.58765683016732" fill-opacity="1" clip-path="url(#iiaoWnIarhOR)" stroke-opacity="1" stroke-linejoin="bevel" stroke-miterlimit="10" stroke-dasharray=""/><path fill="rgb(31,119,180)" stroke="rgb(31,119,180)" paint-order="fill" d="M 241.70709228515625 56.30988693237305 A 2 2 0 1 1 241.70709128515634 56.30788693270638" fill-opacity="1" clip-path="url(#iiaoWnIarhOR)" stroke-opacity="1" stroke-linejoin="bevel" stroke-miterlimit="10" stroke-dasharray=""/><path fill="rgb(31,119,180)" stroke="rgb(31,119,180)" paint-order="fill" d="M 223.455078125 59.64629364013672 A 2 2 0 1 1 223.4550771250001 59.64429364047005" fill-opacity="1" clip-path="url(#iiaoWnIarhOR)" stroke-opacity="1" stroke-linejoin="bevel" stroke-miterlimit="10" stroke-dasharray=""/><path fill="rgb(31,119,180)" stroke="rgb(31,119,180)" paint-order="fill" d="M 177.8250274658203 94.66250610351562 A 2 2 0 1 1 177.8250264658204 94.66050610384896" fill-opacity="1" clip-path="url(#iiaoWnIarhOR)" stroke-opacity="1" stroke-linejoin="bevel" stroke-miterlimit="10" stroke-dasharray=""/><path fill="rgb(31,119,180)" stroke="rgb(31,119,180)" paint-order="fill" d="M 211.52105712890625 66.68089294433594 A 2 2 0 1 1 211.52105612890634 66.67889294466927" fill-opacity="1" clip-path="url(#iiaoWnIarhOR)" stroke-opacity="1" stroke-linejoin="bevel" stroke-miterlimit="10" stroke-dasharray=""/><path fill="rgb(31,119,180)" stroke="rgb(31,119,180)" paint-order="fill" d="M 156.06300354003906 101.00569915771484 A 2 2 0 1 1 156.06300254003915 101.00369915804818" fill-opacity="1" clip-path="url(#iiaoWnIarhOR)" stroke-opacity="1" stroke-linejoin="bevel" stroke-miterlimit="10" stroke-dasharray=""/><path fill="rgb(31,119,180)" stroke="rgb(31,119,180)" paint-order="fill" d="M 229.07107543945312 56.72593307495117 A 2 2 0 1 1 229.0710744394532 56.723933075284506" fill-opacity="1" clip-path="url(#iiaoWnIarhOR)" stroke-opacity="1" stroke-linejoin="bevel" stroke-miterlimit="10" stroke-dasharray=""/><path fill="rgb(31,119,180)" stroke="rgb(31,119,180)" paint-order="fill" d="M 173.61302185058594 86.55061340332031 A 2 2 0 1 1 173.61302085058603 86.54861340365365" fill-opacity="1" clip-path="url(#iiaoWnIarhOR)" stroke-opacity="1" stroke-linejoin="bevel" stroke-miterlimit="10" stroke-dasharray=""/><path fill="none" stroke="rgb(0,0,0)" paint-order="fill" d="M 49.5 227.5 L 249.5 227.5" stroke-opacity="1" stroke-linejoin="bevel" stroke-miterlimit="10" stroke-dasharray=""/><path fill="none" stroke="rgb(0,0,0)" paint-order="fill" d="M 53.5 233.5 L 53.5 225.5 M 88.5 233.5 L 88.5 225.5 M 123.5 233.5 L 123.5 225.5 M 158.5 233.5 L 158.5 225.5 M 194.5 233.5 L 194.5 225.5 M 229.5 233.5 L 229.5 225.5" stroke-opacity="1" stroke-linejoin="bevel" stroke-miterlimit="10" stroke-dasharray=""/><path fill="none" stroke="rgb(0,0,0)" paint-order="fill" d="M 53.5 231.5 L 53.5 227.5 M 60.5 231.5 L 60.5 227.5 M 67.5 231.5 L 67.5 227.5 M 74.5 231.5 L 74.5 227.5 M 81.5 231.5 L 81.5 227.5 M 88.5 231.5 L 88.5 227.5 M 95.5 231.5 L 95.5 227.5 M 102.5 231.5 L 102.5 227.5 M 109.5 231.5 L 109.5 227.5 M 116.5 231.5 L 116.5 227.5 M 123.5 231.5 L 123.5 227.5 M 130.5 231.5 L 130.5 227.5 M 137.5 231.5 L 137.5 227.5 M 144.5 231.5 L 144.5 227.5 M 151.5 231.5 L 151.5 227.5 M 158.5 231.5 L 158.5 227.5 M 165.5 231.5 L 165.5 227.5 M 173.5 231.5 L 173.5 227.5 M 180.5 231.5 L 180.5 227.5 M 187.5 231.5 L 187.5 227.5 M 194.5 231.5 L 194.5 227.5 M 201.5 231.5 L 201.5 227.5 M 208.5 231.5 L 208.5 227.5 M 215.5 231.5 L 215.5 227.5 M 222.5 231.5 L 222.5 227.5 M 229.5 231.5 L 229.5 227.5 M 236.5 231.5 L 236.5 227.5 M 243.5 231.5 L 243.5 227.5" stroke-opacity="1" stroke-linejoin="bevel" stroke-miterlimit="10" stroke-dasharray=""/><text fill="rgb(68,68,68)" stroke="none" font-family="helvetica" font-size="11px" font-style="normal" font-weight="normal" text-decoration="normal" x="50.118064880371094" y="245.89013671875" text-anchor="start" dominant-baseline="alphabetic" transform="matrix(1, 0, 0, 1, 0.5, 0.5)" fill-opacity="1">0</text><text fill="rgb(68,68,68)" stroke="none" font-family="helvetica" font-size="11px" font-style="normal" font-weight="normal" text-decoration="normal" x="85.21810150146484" y="245.89013671875" text-anchor="start" dominant-baseline="alphabetic" transform="matrix(1, 0, 0, 1, 0.5, 0.5)" fill-opacity="1">5</text><text fill="rgb(68,68,68)" stroke="none" font-family="helvetica" font-size="11px" font-style="normal" font-weight="normal" text-decoration="normal" x="117.2593002319336" y="245.89013671875" text-anchor="start" dominant-baseline="alphabetic" transform="matrix(1, 0, 0, 1, 0.5, 0.5)" fill-opacity="1">10</text><text fill="rgb(68,68,68)" stroke="none" font-family="helvetica" font-size="11px" font-style="normal" font-weight="normal" text-decoration="normal" x="152.3593292236328" y="245.89013671875" text-anchor="start" dominant-baseline="alphabetic" transform="matrix(1, 0, 0, 1, 0.5, 0.5)" fill-opacity="1">15</text><text fill="rgb(68,68,68)" stroke="none" font-family="helvetica" font-size="11px" font-style="normal" font-weight="normal" text-decoration="normal" x="187.45936584472656" y="245.89013671875" text-anchor="start" dominant-baseline="alphabetic" transform="matrix(1, 0, 0, 1, 0.5, 0.5)" fill-opacity="1">20</text><text fill="rgb(68,68,68)" stroke="none" font-family="helvetica" font-size="11px" font-style="normal" font-weight="normal" text-decoration="normal" x="222.5594024658203" y="245.89013671875" text-anchor="start" dominant-baseline="alphabetic" transform="matrix(1, 0, 0, 1, 0.5, 0.5)" fill-opacity="1">25</text><text fill="rgb(68,68,68)" stroke="none" font-family="helvetica" font-size="13px" font-style="italic" font-weight="normal" text-decoration="normal" x="120.819580078125" y="265.89013671875" text-anchor="start" dominant-baseline="alphabetic" transform="matrix(1, 0, 0, 1, 0.5, 0.5)" fill-opacity="1">Observed</text><path fill="none" stroke="rgb(0,0,0)" paint-order="fill" d="M 49.5 227.5 L 49.5 27.5" stroke-opacity="1" stroke-linejoin="bevel" stroke-miterlimit="10" stroke-dasharray=""/><path fill="none" stroke="rgb(0,0,0)" paint-order="fill" d="M 43.5 181.5 L 51.5 181.5 M 43.5 131.5 L 51.5 131.5 M 43.5 80.5 L 51.5 80.5 M 43.5 30.5 L 51.5 30.5" stroke-opacity="1" stroke-linejoin="bevel" stroke-miterlimit="10" stroke-dasharray=""/><path fill="none" stroke="rgb(0,0,0)" paint-order="fill" d="M 45.5 191.5 L 49.5 191.5 M 45.5 201.5 L 49.5 201.5 M 45.5 211.5 L 49.5 211.5 M 45.5 221.5 L 49.5 221.5 M 45.5 181.5 L 49.5 181.5 M 45.5 171.5 L 49.5 171.5 M 45.5 161.5 L 49.5 161.5 M 45.5 151.5 L 49.5 151.5 M 45.5 141.5 L 49.5 141.5 M 45.5 131.5 L 49.5 131.5 M 45.5 121.5 L 49.5 121.5 M 45.5 111.5 L 49.5 111.5 M 45.5 100.5 L 49.5 100.5 M 45.5 90.5 L 49.5 90.5 M 45.5 80.5 L 49.5 80.5 M 45.5 70.5 L 49.5 70.5 M 45.5 60.5 L 49.5 60.5 M 45.5 50.5 L 49.5 50.5 M 45.5 40.5 L 49.5 40.5 M 45.5 30.5 L 49.5 30.5" stroke-opacity="1" stroke-linejoin="bevel" stroke-miterlimit="10" stroke-dasharray=""/><text fill="rgb(68,68,68)" stroke="none" font-family="helvetica" font-size="11px" font-style="normal" font-weight="normal" text-decoration="normal" x="25.7646484375" y="184.7938995361328" text-anchor="start" dominant-baseline="alphabetic" transform="matrix(1, 0, 0, 1, 0.5, 0.5)" fill-opacity="1">10</text><text fill="rgb(68,68,68)" stroke="none" font-family="helvetica" font-size="11px" font-style="normal" font-weight="normal" text-decoration="normal" x="25.7646484375" y="134.54678344726562" text-anchor="start" dominant-baseline="alphabetic" transform="matrix(1, 0, 0, 1, 0.5, 0.5)" fill-opacity="1">15</text><text fill="rgb(68,68,68)" stroke="none" font-family="helvetica" font-size="11px" font-style="normal" font-weight="normal" text-decoration="normal" x="25.7646484375" y="84.29966735839844" text-anchor="start" dominant-baseline="alphabetic" transform="matrix(1, 0, 0, 1, 0.5, 0.5)" fill-opacity="1">20</text><text fill="rgb(68,68,68)" stroke="none" font-family="helvetica" font-size="11px" font-style="normal" font-weight="normal" text-decoration="normal" x="25.7646484375" y="34.05255126953125" text-anchor="start" dominant-baseline="alphabetic" transform="matrix(1, 0, 0, 1, 0.5, 0.5)" fill-opacity="1">25</text><text fill="rgb(68,68,68)" stroke="none" font-family="helvetica" font-size="13px" font-style="italic" font-weight="normal" text-decoration="normal" x="-9.6953125" y="124" text-anchor="start" dominant-baseline="alphabetic" transform="matrix(6.123233995736766e-17, -1, 1, 6.123233995736766e-17, -108.7353515625, 145.2646484375)" fill-opacity="1">Predicted</text><path fill="none" stroke="rgb(255,140,0)" paint-order="fill" d="M 231.34780624780598 27.5 L 91.63815373815376 227.5" stroke-opacity="1" stroke-linejoin="bevel" stroke-miterlimit="10" stroke-width="2" stroke-dasharray="" clip-path="url(#FtEbuDdqaBgn)"/><path fill="none" stroke="none"/><text fill="rgb(68,68,68)" stroke="none" font-family="helvetica" font-size="13px" font-style="normal" font-weight="bold" text-decoration="normal" x="0" y="0" text-anchor="start" dominant-baseline="text-after-edge" transform="matrix(1, 0, 0, 1, 49.5, 22.5)" fill-opacity="1">Temperature (°C), &lt;R²&gt; = 0.73</text></svg>