<svg version="1.1" xmlns="http://www.w3.org/2000/svg" xmlns:xlink="http://www.w3.org/1999/xlink" width="260" height="272"><defs><clipPath id="IMDgLImapkZO"><path fill="none" stroke="none" d="M 55.5 27.5 L 255.5 27.5 L 255.5 227.5 L 55.5 227.5 L 55.5 27.5"/></clipPath><clipPath id="DRBqzRsTdffh"><path fill="none" stroke="none" d="M 55.5 27.5 L 255.5 27.5 L 255.5 227.5 L 55.5 227.5 L 55.5 27.5"/></clipPath><clipPath id="IfuqildUeXeo"><path fill="none" stroke="none" d="M 55.5 27.5 L 255.5 27.5 L 255.5 227.5 L 55.5 227.5 L 55.5 27.5"/></clipPath><clipPath id="qQRoCnnqvpMi"><path fill="none" stroke="none" d="M 55.5 27.5 L 255.5 27.5 L 255.5 227.5 L 55.5 227.5 L 55.5 27.5"/></clipPath><clipPath id="vTlWWWLlAJyW"><path fill="none" stroke="none" d="M 55.5 27.5 L 255.5 27.5 L 255.5 227.5 L 55.5 227.5 L 55.5 27.5"/></clipPath></defs><path fill="none" stroke="rgb(229,229,229)" paint-order="fill" d="M 55.5 27.5 L 255.5 27.5 L 255.5 227.5 L 55.5 227.5 L 55.5 27.5" stroke-opacity="1" stroke-linejoin="bevel" stroke-miterlimit="10" stroke-dasharray=""/><path fill="none" stroke="rgb(229,229,229)" paint-order="fill" d="M 64.5 227.5 L 64.5 27.5 M 92.5 227.5 L 92.5 27.5 M 120.5 227.5 L 120.5 27.5 M 148.5 227.5 L 148.5 27.5 M 176.5 227.5 L 176.5 27.5 M 204.5 227.5 L 204.5 27.5 M 232.5 227.5 L 232.5 27.5" stroke-opacity="1" stroke-linejoin="bevel" stroke-miterlimit="10" stroke-dasharray="" clip-path="url(#IMDgLImapkZO)"/><path fill="none" stroke="rgb(229,229,229)" paint-order="fill" d="M 55.5 201.5 L 255.5 201.5 M 55.5 171.5 L 255.5 171.5 M 55.5 140.5 L 255.5 140.5 M 55.5 110.5 L 255.5 110.5 M 55.5 79.5 L 255.5 79.5 M 55.5 49.5 L 255.5 49.5" stroke-opacity="1" stroke-linejoin="bevel" stroke-miterlimit="10" stroke-dasharray="" clip-path="url(#DRBqzRsTdffh)"/><path fill="none" stroke="none"/><path fill="rgb(31,119,180)" stroke="rgb(31,119,180)" paint-order="fill" d="M 194.692626953125 102.49483489990234 A 2 2 0 1 1 194.6926259531251 102.49283490023568" fill-opacity="1" clip-path="url(#IfuqildUeXeo)" stroke-opacity="1" stroke-linejoin="bevel" stroke-miterlimit="10" stroke-dasharray=""/><path fill="rgb(31,119,180)" stroke="rgb(31,119,180)" paint-order="fill" d="M 199.00563049316406 89.4366683959961 A 2 2 0 1 1 199.00562949316415 89.43466839632943" fill-opacity="1" clip-path="url(#IfuqildUeXeo)" stroke-opacity="1" stroke-linejoin="bevel" stroke-miterlimit="10" stroke-dasharray=""/><path fill="rgb(31,119,180)" stroke="rgb(31,119,180)" paint-order="fill" d="M 166.96620178222656 115.41902923583984 A 2 2 0 1 1 166.96620078222665 115.41702923617318" fill-opacity="1" clip-path="url(#IfuqildUeXeo)" stroke-opacity="1" stroke-linejoin="bevel" stroke-miterlimit="10" stroke-dasharray=""/><path fill="rgb(31,119,180)" stroke="rgb(31,119,180)" paint-order="fill" d="M 248.40908813476562 36.59090805053711 A 2 2 0 1 1 248.4090871347657 36.588908050870444" fill-opacity="1" clip-path="url(#IfuqildUeXeo)" stroke-opacity="1" stroke-linejoin="bevel" stroke-miterlimit="10" stroke-dasharray=""/><path fill="rgb(31,119,180)" stroke="rgb(31,119,180)" paint-order="fill" d="M 181.52957153320312 107.14786529541016 A 2 2 0 1 1 181.5295705332032 107.14586529574349" fill-opacity="1" clip-path="url(#IfuqildUeXeo)" stroke-opacity="1" stroke-linejoin="bevel" stroke-miterlimit="10" stroke-dasharray=""/><path fill="rgb(31,119,180)" stroke="rgb(31,119,180)" paint-order="fill" d="M 202.31039428710938 102.33097076416016 A 2 2 0 1 1 202.31039328710946 102.32897076449349" fill-opacity="1" clip-path="url(#IfuqildUeXeo)" stroke-opacity="1" stroke-linejoin="bevel" stroke-miterlimit="10" stroke-dasharray=""/><path fill="rgb(31,119,180)" stroke="rgb(31,119,180)" paint-order="fill" d="M 166.91018676757812 107.90018463134766 A 2 2 0 1 1 166.9101857675782 107.89818463168099" fill-opacity="1" clip-path="url(#IfuqildUeXeo)" stroke-opacity="1" stroke-linejoin="bevel" stroke-miterlimit="10" stroke-dasharray=""/><path fill="rgb(31,119,180)" stroke="rgb(31,119,180)" paint-order="fill" d="M 164.3896026611328 129.7884521484375 A 2 2 0 1 1 164.3896016611329 129.78645214877082" fill-opacity="1" clip-path="url(#IfuqildUeXeo)" stroke-opacity="1" stroke-linejoin="bevel" stroke-miterlimit="10" stroke-dasharray=""/><path fill="rgb(31,119,180)" stroke="rgb(31,119,180)" paint-order="fill" d="M 183.15394592285156 113.53419494628906 A 2 2 0 1 1 183.15394492285165 113.5321949466224" fill-opacity="1" clip-path="url(#IfuqildUeXeo)" stroke-opacity="1" stroke-linejoin="bevel" stroke-miterlimit="10" stroke-dasharray=""/><path fill="rgb(31,119,180)" stroke="rgb(31,119,180)" paint-order="fill" d="M 119.5792007446289 218.40908813476562 A 2 2 0 1 1 119.579199744629 218.40708813509895" fill-opacity="1" clip-path="url(#IfuqildUeXeo)" stroke-opacity="1" stroke-linejoin="bevel" stroke-miterlimit="10" stroke-dasharray=""/><path fill="rgb(31,119,180)" stroke="rgb(31,119,180)" paint-order="fill" d="M 171.05514526367188 118.41453552246094 A 2 2 0 1 1 171.05514426367196 118.41253552279427" fill-opacity="1" clip-path="url(#IfuqildUeXeo)" stroke-opacity="1" stroke-linejoin="bevel" stroke-miterlimit="10" stroke-dasharray=""/><path fill="rgb(31,119,180)" stroke="rgb(31,119,180)" paint-order="fill" d="M 188.9232940673828 101.67369842529297 A 2 2 0 1 1 188.9232930673829 101.6716984256263" fill-opacity="1" clip-path="url(#IfuqildUeXeo)" stroke-opacity="1" stroke-linejoin="bevel" stroke-miterlimit="10" stroke-dasharray=""/><path fill="rgb(31,119,180)" stroke="rgb(31,119,180)" paint-order="fill" d="M 68.60737609863281 191.0279998779297 A 2 2 0 1 1 68.6073750986329 191.025999878263" fill-opacity="1" clip-path="url(#IfuqildUeXeo)" stroke-opacity="1" stroke-linejoin="bevel" stroke-miterlimit="10" stroke-dasharray=""/><path fill="rgb(31,119,180)" stroke="rgb(31,119,180)" paint-order="fill" d="M 169.26272583007812 114.22245788574219 A 2 2 0 1 1 169.2627248300782 114.22045788607552" fill-opacity="1" clip-path="url(#IfuqildUeXeo)" stroke-opacity="1" stroke-linejoin="bevel" stroke-miterlimit="10" stroke-dasharray=""/><path fill="rgb(31,119,180)" stroke="rgb(31,119,180)" paint-order="fill" d="M 196.0369415283203 103.7308120727539 A 2 2 0 1 1 196.0369405283204 103.72881207308724" fill-opacity="1" clip-path="url(#IfuqildUeXeo)" stroke-opacity="1" stroke-linejoin="bevel" stroke-miterlimit="10" stroke-dasharray=""/><path fill="rgb(31,119,180)" stroke="rgb(31,119,180)" paint-order="fill" d="M 191.7799530029297 100.11255645751953 A 2 2 0 1 1 191.77995200292978 100.11055645785287" fill-opacity="1" clip-path="url(#IfuqildUeXeo)" stroke-opacity="1" stroke-linejoin="bevel" stroke-miterlimit="10" stroke-dasharray=""/><path fill="rgb(31,119,180)" stroke="rgb(31,119,180)" paint-order="fill" d="M 153.2990264892578 129.05821228027344 A 2 2 0 1 1 153.2990254892579 129.05621228060676" fill-opacity="1" clip-path="url(#IfuqildUeXeo)" stroke-opacity="1" stroke-linejoin="bevel" stroke-miterlimit="10" stroke-dasharray=""/><path fill="rgb(31,119,180)" stroke="rgb(31,119,180)" paint-order="fill" d="M 190.2115936279297 112.9997787475586 A 2 2 0 1 1 190.21159262792978 112.99777874789193" fill-opacity="1" clip-path="url(#IfuqildUeXeo)" stroke-opacity="1" stroke-linejoin="bevel" stroke-miterlimit="10" stroke-dasharray=""/><path fill="rgb(31,119,180)" stroke="rgb(31,119,180)" paint-order="fill" d="M 143.83282470703125 138.92259216308594 A 2 2 0 1 1 143.83282370703134 138.92059216341926" fill-opacity="1" clip-path="url(#IfuqildUeXeo)" stroke-opacity="1" stroke-linejoin="bevel" stroke-miterlimit="10" stroke-dasharray=""/><path fill="rgb(31,119,180)" stroke="rgb(31,119,180)" paint-order="fill" d="M 66.59091186523438 180.3042755126953 A 2 2 0 1 1 66.59091086523446 180.30227551302863" fill-opacity="1" clip-path="url(#IfuqildUeXeo)" stroke-opacity="1" stroke-linejoin="bevel" stroke-miterlimit="10" stroke-dasharray=""/><path fill="none" stroke="rgb(0,0,0)" paint-order="fill" d="M 55.5 227.5 L 255.5 227.5" stroke-opacity="1" stroke-linejoin="bevel" stroke-miterlimit="10" stroke-dasharray=""/><path fill="none" stroke="rgb(0,0,0)" paint-order="fill" d="M 64.5 233.5 L 64.5 225.5 M 92.5 233.5 L 92.5 225.5 M 120.5 233.5 L 120.5 225.5 M 148.5 233.5 L 148.5 225.5 M 176.5 233.5 L 176.5 225.5 M 204.5 233.5 L 204.5 225.5 M 232.5 233.5 L 232.5 225.5" stroke-opacity="1" stroke-linejoin="bevel" stroke-miterlimit="10" stroke-dasharray=""/><path fill="none" stroke="rgb(0,0,0)" paint-order="fill" d="M 58.5 231.5 L 58.5 227.5 M 64.5 231.5 L 64.5 227.5 M 69.5 231.5 L 69.5 227.5 M 75.5 231.5 L 75.5 227.5 M 80.5 231.5 L 80.5 227.5 M 86.5 231.5 L 86.5 227.5 M 92.5 231.5 L 92.5 227.5 M 97.5 231.5 L 97.5 227.5 M 103.5 231.5 L 103.5 227.5 M 108.5 231.5 L 108.5 227.5 M 114.5 231.5 L 114.5 227.5 M 120.5 231.5 L 120.5 227.5 M 125.5 231.5 L 125.5 227.5 M 131.5 231.5 L 131.5 227.5 M 136.5 231.5 L 136.5 227.5 M 142.5 231.5 L 142.5 227.5 M 148.5 231.5 L 148.5 227.5 M 153.5 231.5 L 153.5 227.5 M 159.5 231.5 L 159.5 227.5 M 164.5 231.5 L 164.5 227.5 M 170.5 231.5 L 170.5 227.5 M 176.5 231.5 L 176.5 227.5 M 181.5 231.5 L 181.5 227.5 M 187.5 231.5 L 187.5 227.5 M 192.5 231.5 L 192.5 227.5 M 198.5 231.5 L 198.5 227.5 M 204.5 231.5 L 204.5 227.5 M 209.5 231.5 L 209.5 227.5 M 215.5 231.5 L 215.5 227.5 M 220.5 231.5 L 220.5 227.5 M 226.5 231.5 L 226.5 227.5 M 232.5 231.5 L 232.5 227.5 M 237.5 231.5 L 237.5 227.5 M 243.5 231.5 L 243.5 227.5 M 248.5 231.5 L 248.5 227.5 M 254.5 231.5 L 254.5 227.5" stroke-opacity="1" stroke-linejoin="bevel" stroke-miterlimit="10" stroke-dasharray=""/><text fill="rgb(68,68,68)" stroke="none" font-family="helvetica" font-size="11px" font-style="normal" font-weight="normal" text-decoration="normal" x="60.58396911621094" y="245.89013671875" text-anchor="start" dominant-baseline="alphabetic" transform="matrix(1, 0, 0, 1, 0.5, 0.5)" fill-opacity="1">0</text><text fill="rgb(68,68,68)" stroke="none" font-family="helvetica" font-size="11px" font-style="normal" font-weight="normal" text-decoration="normal" x="85.53162384033203" y="245.89013671875" text-anchor="start" dominant-baseline="alphabetic" transform="matrix(1, 0, 0, 1, 0.5, 0.5)" fill-opacity="1">50</text><text fill="rgb(68,68,68)" stroke="none" font-family="helvetica" font-size="11px" font-style="normal" font-weight="normal" text-decoration="normal" x="110.47928619384766" y="245.89013671875" text-anchor="start" dominant-baseline="alphabetic" transform="matrix(1, 0, 0, 1, 0.5, 0.5)" fill-opacity="1">100</text><text fill="rgb(68,68,68)" stroke="none" font-family="helvetica" font-size="11px" font-style="normal" font-weight="normal" text-decoration="normal" x="138.48577880859375" y="245.89013671875" text-anchor="start" dominant-baseline="alphabetic" transform="matrix(1, 0, 0, 1, 0.5, 0.5)" fill-opacity="1">150</text><text fill="rgb(68,68,68)" stroke="none" font-family="helvetica" font-size="11px" font-style="normal" font-weight="normal" text-decoration="normal" x="166.49227905273438" y="245.89013671875" text-anchor="start" dominant-baseline="alphabetic" transform="matrix(1, 0, 0, 1, 0.5, 0.5)" fill-opacity="1">200</text><text fill="rgb(68,68,68)" stroke="none" font-family="helvetica" font-size="11px" font-style="normal" font-weight="normal" text-decoration="normal" x="194.498779296875" y="245.89013671875" text-anchor="start" dominant-baseline="alphabetic" transform="matrix(1, 0, 0, 1, 0.5, 0.5)" fill-opacity="1">250</text><text fill="rgb(68,68,68)" stroke="none" font-family="helvetica" font-size="11px" font-style="normal" font-weight="normal" text-decoration="normal" x="222.50527954101562" y="245.89013671875" text-anchor="start" dominant-baseline="alphabetic" transform="matrix(1, 0, 0, 1, 0.5, 0.5)" fill-opacity="1">300</text><text fill="rgb(68,68,68)" stroke="none" font-family="helvetica" font-size="13px" font-style="italic" font-weight="normal" text-decoration="normal" x="126.819580078125" y="265.89013671875" text-anchor="start" dominant-baseline="alphabetic" transform="matrix(1, 0, 0, 1, 0.5, 0.5)" fill-opacity="1">Observed</text><path fill="none" stroke="rgb(0,0,0)" paint-order="fill" d="M 55.5 227.5 L 55.5 27.5" stroke-opacity="1" stroke-linejoin="bevel" stroke-miterlimit="10" stroke-dasharray=""/><path fill="none" stroke="rgb(0,0,0)" paint-order="fill" d="M 49.5 201.5 L 57.5 201.5 M 49.5 171.5 L 57.5 171.5 M 49.5 140.5 L 57.5 140.5 M 49.5 110.5 L 57.5 110.5 M 49.5 79.5 L 57.5 79.5 M 49.5 49.5 L 57.5 49.5" stroke-opacity="1" stroke-linejoin="bevel" stroke-miterlimit="10" stroke-dasharray=""/><path fill="none" stroke="rgb(0,0,0)" paint-order="fill" d="M 51.5 207.5 L 55.5 207.5 M 51.5 213.5 L 55.5 213.5 M 51.5 219.5 L 55.5 219.5 M 51.5 225.5 L 55.5 225.5 M 51.5 201.5 L 55.5 201.5 M 51.5 195.5 L 55.5 195.5 M 51.5 189.5 L 55.5 189.5 M 51.5 183.5 L 55.5 183.5 M 51.5 177.5 L 55.5 177.5 M 51.5 171.5 L 55.5 171.5 M 51.5 164.5 L 55.5 164.5 M 51.5 158.5 L 55.5 158.5 M 51.5 152.5 L 55.5 152.5 M 51.5 146.5 L 55.5 146.5 M 51.5 140.5 L 55.5 140.5 M 51.5 134.5 L 55.5 134.5 M 51.5 128.5 L 55.5 128.5 M 51.5 122.5 L 55.5 122.5 M 51.5 116.5 L 55.5 116.5 M 51.5 110.5 L 55.5 110.5 M 51.5 103.5 L 55.5 103.5 M 51.5 97.5 L 55.5 97.5 M 51.5 91.5 L 55.5 91.5 M 51.5 85.5 L 55.5 85.5 M 51.5 79.5 L 55.5 79.5 M 51.5 73.5 L 55.5 73.5 M 51.5 67.5 L 55.5 67.5 M 51.5 61.5 L 55.5 61.5 M 51.5 55.5 L 55.5 55.5 M 51.5 49.5 L 55.5 49.5 M 51.5 42.5 L 55.5 42.5 M 51.5 36.5 L 55.5 36.5 M 51.5 30.5 L 55.5 30.5" stroke-opacity="1" stroke-linejoin="bevel" stroke-miterlimit="10" stroke-dasharray=""/><text fill="rgb(68,68,68)" stroke="none" font-family="helvetica" font-size="11px" font-style="normal" font-weight="normal" text-decoration="normal" x="31.7646484375" y="204.96910095214844" text-anchor="start" dominant-baseline="alphabetic" transform="matrix(1, 0, 0, 1, 0.5, 0.5)" fill-opacity="1">50</text><text fill="rgb(68,68,68)" stroke="none" font-family="helvetica" font-size="11px" font-style="normal" font-weight="normal" text-decoration="normal" x="25.64697265625" y="174.46621704101562" text-anchor="start" dominant-baseline="alphabetic" transform="matrix(1, 0, 0, 1, 0.5, 0.5)" fill-opacity="1">100</text><text fill="rgb(68,68,68)" stroke="none" font-family="helvetica" font-size="11px" font-style="normal" font-weight="normal" text-decoration="normal" x="25.64697265625" y="143.9633331298828" text-anchor="start" dominant-baseline="alphabetic" transform="matrix(1, 0, 0, 1, 0.5, 0.5)" fill-opacity="1">150</text><text fill="rgb(68,68,68)" stroke="none" font-family="helvetica" font-size="11px" font-style="normal" font-weight="normal" text-decoration="normal" x="25.64697265625" y="113.46044921875" text-anchor="start" dominant-baseline="alphabetic" transform="matrix(1, 0, 0, 1, 0.5, 0.5)" fill-opacity="1">200</text><text fill="rgb(68,68,68)" stroke="none" font-family="helvetica" font-size="11px" font-style="normal" font-weight="normal" text-decoration="normal" x="25.64697265625" y="82.95756530761719" text-anchor="start" dominant-baseline="alphabetic" transform="matrix(1, 0, 0, 1, 0.5, 0.5)" fill-opacity="1">250</text><text fill="rgb(68,68,68)" stroke="none" font-family="helvetica" font-size="11px" font-style="normal" font-weight="normal" text-decoration="normal" x="25.64697265625" y="52.45467758178711" text-anchor="start" dominant-baseline="alphabetic" transform="matrix(1, 0, 0, 1, 0.5, 0.5)" fill-opacity="1">300</text><text fill="rgb(68,68,68)" stroke="none" font-family="helvetica" font-size="13px" font-style="italic" font-weight="normal" text-decoration="normal" x="-9.81298828125" y="124" text-anchor="start" dominant-baseline="alphabetic" transform="matrix(6.123233995736766e-17, -1, 1, 6.123233995736766e-17, -108.85302734375, 145.14697265625)" fill-opacity="1">Predicted</text><path fill="none" stroke="rgb(255,140,0)" paint-order="fill" d="M 251.93103119923762 27.5 L 68.29923822326785 227.5" stroke-opacity="1" stroke-linejoin="bevel" stroke-miterlimit="10" stroke-width="2" stroke-dasharray="" clip-path="url(#qQRoCnnqvpMi)"/><path fill="none" stroke="none"/><text fill="rgb(68,68,68)" stroke="none" font-family="helvetica" font-size="13px" font-style="normal" font-weight="bold" text-decoration="normal" x="0" y="0" text-anchor="start" dominant-baseline="text-after-edge" transform="matrix(1, 0, 0, 1, 55.5, 22.5)" fill-opacity="1">Oxygen (µmol/kg), &lt;R²&gt; = 0.61</text></svg>