<svg version="1.1" xmlns="http://www.w3.org/2000/svg" xmlns:xlink="http://www.w3.org/1999/xlink" width="257" height="272"><defs><clipPath id="XMhyHDKADIcZ"><path fill="none" stroke="none" d="M 52.5 27.5 L 252.5 27.5 L 252.5 227.5 L 52.5 227.5 L 52.5 27.5"/></clipPath><clipPath id="CddsNscDFvUN"><path fill="none" stroke="none" d="M 52.5 27.5 L 252.5 27.5 L 252.5 227.5 L 52.5 227.5 L 52.5 27.5"/></clipPath><clipPath id="gsexTZQSEMtv"><path fill="none" stroke="none" d="M 52.5 27.5 L 252.5 27.5 L 252.5 227.5 L 52.5 227.5 L 52.5 27.5"/></clipPath><clipPath id="CxxqtNHMuyUk"><path fill="none" stroke="none" d="M 52.5 27.5 L 252.5 27.5 L 252.5 227.5 L 52.5 227.5 L 52.5 27.5"/></clipPath><clipPath id="VFghayimcxyC"><path fill="none" stroke="none" d="M 52.5 27.5 L 252.5 27.5 L 252.5 227.5 L 52.5 227.5 L 52.5 27.5"/></clipPath></defs><path fill="none" stroke="rgb(229,229,229)" paint-order="fill" d="M 52.5 27.5 L 252.5 27.5 L 252.5 227.5 L 52.5 227.5 L 52.5 27.5" stroke-opacity="1" stroke-linejoin="bevel" stroke-miterlimit="10" stroke-dasharray=""/><path fill="none" stroke="rgb(229,229,229)" paint-order="fill" d="M 60.5 227.5 L 60.5 27.5 M 91.5 227.5 L 91.5 27.5 M 122.5 227.5 L 122.5 27.5 M 153.5 227.5 L 153.5 27.5 M 184.5 227.5 L 184.5 27.5 M 215.5 227.5 L 215.5 27.5 M 246.5 227.5 L 246.5 27.5" stroke-opacity="1" stroke-linejoin="bevel" stroke-miterlimit="10" stroke-dasharray="" clip-path="url(#XMhyHDKADIcZ)"/><path fill="none" stroke="rgb(229,229,229)" paint-order="fill" d="M 52.5 223.5 L 252.5 223.5 M 52.5 178.5 L 252.5 178.5 M 52.5 133.5 L 252.5 133.5 M 52.5 88.5 L 252.5 88.5 M 52.5 43.5 L 252.5 43.5" stroke-opacity="1" stroke-linejoin="bevel" stroke-miterlimit="10" stroke-dasharray="" clip-path="url(#CddsNscDFvUN)"/><path fill="none" stroke="none"/><path fill="rgb(31,119,180)" stroke="rgb(31,119,180)" paint-order="fill" d="M 143.36827087402344 79.91268920898438 A 2 2 0 1 1 143.36826987402353 79.91068920931771" fill-opacity="1" clip-path="url(#gsexTZQSEMtv)" stroke-opacity="1" stroke-linejoin="bevel" stroke-miterlimit="10" stroke-dasharray=""/><path fill="rgb(31,119,180)" stroke="rgb(31,119,180)" paint-order="fill" d="M 138.42083740234375 50.08561706542969 A 2 2 0 1 1 138.42083640234384 50.08361706576302" fill-opacity="1" clip-path="url(#gsexTZQSEMtv)" stroke-opacity="1" stroke-linejoin="bevel" stroke-miterlimit="10" stroke-dasharray=""/><path fill="rgb(31,119,180)" stroke="rgb(31,119,180)" paint-order="fill" d="M 143.98670959472656 75.24165344238281 A 2 2 0 1 1 143.98670859472665 75.23965344271615" fill-opacity="1" clip-path="url(#gsexTZQSEMtv)" stroke-opacity="1" stroke-linejoin="bevel" stroke-miterlimit="10" stroke-dasharray=""/><path fill="rgb(31,119,180)" stroke="rgb(31,119,180)" paint-order="fill" d="M 64.2093391418457 188.22076416015625 A 2 2 0 1 1 64.20933814184579 188.21876416048957" fill-opacity="1" clip-path="url(#gsexTZQSEMtv)" stroke-opacity="1" stroke-linejoin="bevel" stroke-miterlimit="10" stroke-dasharray=""/><path fill="rgb(31,119,180)" stroke="rgb(31,119,180)" paint-order="fill" d="M 84.61750030517578 201.24221801757812 A 2 2 0 1 1 84.61749930517587 201.24021801791145" fill-opacity="1" clip-path="url(#gsexTZQSEMtv)" stroke-opacity="1" stroke-linejoin="bevel" stroke-miterlimit="10" stroke-dasharray=""/><path fill="rgb(31,119,180)" stroke="rgb(31,119,180)" paint-order="fill" d="M 63.59090805053711 208.3697967529297 A 2 2 0 1 1 63.59090705053719 208.367796753263" fill-opacity="1" clip-path="url(#gsexTZQSEMtv)" stroke-opacity="1" stroke-linejoin="bevel" stroke-miterlimit="10" stroke-dasharray=""/><path fill="rgb(31,119,180)" stroke="rgb(31,119,180)" paint-order="fill" d="M 85.85436248779297 172.32008361816406 A 2 2 0 1 1 85.85436148779306 172.31808361849738" fill-opacity="1" clip-path="url(#gsexTZQSEMtv)" stroke-opacity="1" stroke-linejoin="bevel" stroke-miterlimit="10" stroke-dasharray=""/><path fill="rgb(31,119,180)" stroke="rgb(31,119,180)" paint-order="fill" d="M 85.23593139648438 207.8297119140625 A 2 2 0 1 1 85.23593039648446 207.82771191439582" fill-opacity="1" clip-path="url(#gsexTZQSEMtv)" stroke-opacity="1" stroke-linejoin="bevel" stroke-miterlimit="10" stroke-dasharray=""/><path fill="rgb(31,119,180)" stroke="rgb(31,119,180)" paint-order="fill" d="M 63.59090805053711 181.6874542236328 A 2 2 0 1 1 63.59090705053719 181.68545422396613" fill-opacity="1" clip-path="url(#gsexTZQSEMtv)" stroke-opacity="1" stroke-linejoin="bevel" stroke-miterlimit="10" stroke-dasharray=""/><path fill="rgb(31,119,180)" stroke="rgb(31,119,180)" paint-order="fill" d="M 98.22294616699219 182.921142578125 A 2 2 0 1 1 98.22294516699228 182.91914257845832" fill-opacity="1" clip-path="url(#gsexTZQSEMtv)" stroke-opacity="1" stroke-linejoin="bevel" stroke-miterlimit="10" stroke-dasharray=""/><path fill="rgb(31,119,180)" stroke="rgb(31,119,180)" paint-order="fill" d="M 245.40908813476562 36.59090805053711 A 2 2 0 1 1 245.4090871347657 36.588908050870444" fill-opacity="1" clip-path="url(#gsexTZQSEMtv)" stroke-opacity="1" stroke-linejoin="bevel" stroke-miterlimit="10" stroke-dasharray=""/><path fill="rgb(31,119,180)" stroke="rgb(31,119,180)" paint-order="fill" d="M 69.15676879882812 214.771240234375 A 2 2 0 1 1 69.15676779882821 214.76924023470832" fill-opacity="1" clip-path="url(#gsexTZQSEMtv)" stroke-opacity="1" stroke-linejoin="bevel" stroke-miterlimit="10" stroke-dasharray=""/><path fill="rgb(31,119,180)" stroke="rgb(31,119,180)" paint-order="fill" d="M 64.2093391418457 204.536865234375 A 2 2 0 1 1 64.20933814184579 204.53486523470832" fill-opacity="1" clip-path="url(#gsexTZQSEMtv)" stroke-opacity="1" stroke-linejoin="bevel" stroke-miterlimit="10" stroke-dasharray=""/><path fill="rgb(31,119,180)" stroke="rgb(31,119,180)" paint-order="fill" d="M 63.59090805053711 218.40908813476562 A 2 2 0 1 1 63.59090705053719 218.40708813509895" fill-opacity="1" clip-path="url(#gsexTZQSEMtv)" stroke-opacity="1" stroke-linejoin="bevel" stroke-miterlimit="10" stroke-dasharray=""/><path fill="rgb(31,119,180)" stroke="rgb(31,119,180)" paint-order="fill" d="M 83.99906921386719 191.9922637939453 A 2 2 0 1 1 83.99906821386728 191.99026379427863" fill-opacity="1" clip-path="url(#gsexTZQSEMtv)" stroke-opacity="1" stroke-linejoin="bevel" stroke-miterlimit="10" stroke-dasharray=""/><path fill="rgb(31,119,180)" stroke="rgb(31,119,180)" paint-order="fill" d="M 97.6045150756836 169.03988647460938 A 2 2 0 1 1 97.60451407568368 169.0378864749427" fill-opacity="1" clip-path="url(#gsexTZQSEMtv)" stroke-opacity="1" stroke-linejoin="bevel" stroke-miterlimit="10" stroke-dasharray=""/><path fill="rgb(31,119,180)" stroke="rgb(31,119,180)" paint-order="fill" d="M 64.82776641845703 210.90219116210938 A 2 2 0 1 1 64.82776541845712 210.9001911624427" fill-opacity="1" clip-path="url(#gsexTZQSEMtv)" stroke-opacity="1" stroke-linejoin="bevel" stroke-miterlimit="10" stroke-dasharray=""/><path fill="rgb(31,119,180)" stroke="rgb(31,119,180)" paint-order="fill" d="M 153.88157653808594 77.94926452636719 A 2 2 0 1 1 153.88157553808603 77.94726452670052" fill-opacity="1" clip-path="url(#gsexTZQSEMtv)" stroke-opacity="1" stroke-linejoin="bevel" stroke-miterlimit="10" stroke-dasharray=""/><path fill="rgb(31,119,180)" stroke="rgb(31,119,180)" paint-order="fill" d="M 63.59090805053711 209.86178588867188 A 2 2 0 1 1 63.59090705053719 209.8597858890052" fill-opacity="1" clip-path="url(#gsexTZQSEMtv)" stroke-opacity="1" stroke-linejoin="bevel" stroke-miterlimit="10" stroke-dasharray=""/><path fill="rgb(31,119,180)" stroke="rgb(31,119,180)" paint-order="fill" d="M 80.90692901611328 201.9864044189453 A 2 2 0 1 1 80.90692801611337 201.98440441927863" fill-opacity="1" clip-path="url(#gsexTZQSEMtv)" stroke-opacity="1" stroke-linejoin="bevel" stroke-miterlimit="10" stroke-dasharray=""/><path fill="none" stroke="rgb(0,0,0)" paint-order="fill" d="M 52.5 227.5 L 252.5 227.5" stroke-opacity="1" stroke-linejoin="bevel" stroke-miterlimit="10" stroke-dasharray=""/><path fill="none" stroke="rgb(0,0,0)" paint-order="fill" d="M 60.5 233.5 L 60.5 225.5 M 91.5 233.5 L 91.5 225.5 M 122.5 233.5 L 122.5 225.5 M 153.5 233.5 L 153.5 225.5 M 184.5 233.5 L 184.5 225.5 M 215.5 233.5 L 215.5 225.5 M 246.5 233.5 L 246.5 225.5" stroke-opacity="1" stroke-linejoin="bevel" stroke-miterlimit="10" stroke-dasharray=""/><path fill="none" stroke="rgb(0,0,0)" paint-order="fill" d="M 54.5 231.5 L 54.5 227.5 M 60.5 231.5 L 60.5 227.5 M 67.5 231.5 L 67.5 227.5 M 73.5 231.5 L 73.5 227.5 M 79.5 231.5 L 79.5 227.5 M 85.5 231.5 L 85.5 227.5 M 91.5 231.5 L 91.5 227.5 M 98.5 231.5 L 98.5 227.5 M 104.5 231.5 L 104.5 227.5 M 110.5 231.5 L 110.5 227.5 M 116.5 231.5 L 116.5 227.5 M 122.5 231.5 L 122.5 227.5 M 128.5 231.5 L 128.5 227.5 M 135.5 231.5 L 135.5 227.5 M 141.5 231.5 L 141.5 227.5 M 147.5 231.5 L 147.5 227.5 M 153.5 231.5 L 153.5 227.5 M 159.5 231.5 L 159.5 227.5 M 166.5 231.5 L 166.5 227.5 M 172.5 231.5 L 172.5 227.5 M 178.5 231.5 L 178.5 227.5 M 184.5 231.5 L 184.5 227.5 M 190.5 231.5 L 190.5 227.5 M 197.5 231.5 L 197.5 227.5 M 203.5 231.5 L 203.5 227.5 M 209.5 231.5 L 209.5 227.5 M 215.5 231.5 L 215.5 227.5 M 221.5 231.5 L 221.5 227.5 M 227.5 231.5 L 227.5 227.5 M 234.5 231.5 L 234.5 227.5 M 240.5 231.5 L 240.5 227.5 M 246.5 231.5 L 246.5 227.5" stroke-opacity="1" stroke-linejoin="bevel" stroke-miterlimit="10" stroke-dasharray=""/><text fill="rgb(68,68,68)" stroke="none" font-family="helvetica" font-size="11px" font-style="normal" font-weight="normal" text-decoration="normal" x="57.41364288330078" y="245.89013671875" text-anchor="start" dominant-baseline="alphabetic" transform="matrix(1, 0, 0, 1, 0.5, 0.5)" fill-opacity="1">0</text><text fill="rgb(68,68,68)" stroke="none" font-family="helvetica" font-size="11px" font-style="normal" font-weight="normal" text-decoration="normal" x="83.74818420410156" y="245.89013671875" text-anchor="start" dominant-baseline="alphabetic" transform="matrix(1, 0, 0, 1, 0.5, 0.5)" fill-opacity="1">0.5</text><text fill="rgb(68,68,68)" stroke="none" font-family="helvetica" font-size="11px" font-style="normal" font-weight="normal" text-decoration="normal" x="119.25656127929688" y="245.89013671875" text-anchor="start" dominant-baseline="alphabetic" transform="matrix(1, 0, 0, 1, 0.5, 0.5)" fill-opacity="1">1</text><text fill="rgb(68,68,68)" stroke="none" font-family="helvetica" font-size="11px" font-style="normal" font-weight="normal" text-decoration="normal" x="145.5911102294922" y="245.89013671875" text-anchor="start" dominant-baseline="alphabetic" transform="matrix(1, 0, 0, 1, 0.5, 0.5)" fill-opacity="1">1.5</text><text fill="rgb(68,68,68)" stroke="none" font-family="helvetica" font-size="11px" font-style="normal" font-weight="normal" text-decoration="normal" x="181.0994873046875" y="245.89013671875" text-anchor="start" dominant-baseline="alphabetic" transform="matrix(1, 0, 0, 1, 0.5, 0.5)" fill-opacity="1">2</text><text fill="rgb(68,68,68)" stroke="none" font-family="helvetica" font-size="11px" font-style="normal" font-weight="normal" text-decoration="normal" x="207.43402099609375" y="245.89013671875" text-anchor="start" dominant-baseline="alphabetic" transform="matrix(1, 0, 0, 1, 0.5, 0.5)" fill-opacity="1">2.5</text><text fill="rgb(68,68,68)" stroke="none" font-family="helvetica" font-size="11px" font-style="normal" font-weight="normal" text-decoration="normal" x="242.94239807128906" y="245.89013671875" text-anchor="start" dominant-baseline="alphabetic" transform="matrix(1, 0, 0, 1, 0.5, 0.5)" fill-opacity="1">3</text><text fill="rgb(68,68,68)" stroke="none" font-family="helvetica" font-size="13px" font-style="italic" font-weight="normal" text-decoration="normal" x="123.819580078125" y="265.89013671875" text-anchor="start" dominant-baseline="alphabetic" transform="matrix(1, 0, 0, 1, 0.5, 0.5)" fill-opacity="1">Observed</text><path fill="none" stroke="rgb(0,0,0)" paint-order="fill" d="M 52.5 227.5 L 52.5 27.5" stroke-opacity="1" stroke-linejoin="bevel" stroke-miterlimit="10" stroke-dasharray=""/><path fill="none" stroke="rgb(0,0,0)" paint-order="fill" d="M 46.5 223.5 L 54.5 223.5 M 46.5 178.5 L 54.5 178.5 M 46.5 133.5 L 54.5 133.5 M 46.5 88.5 L 54.5 88.5 M 46.5 43.5 L 54.5 43.5" stroke-opacity="1" stroke-linejoin="bevel" stroke-miterlimit="10" stroke-dasharray=""/><path fill="none" stroke="rgb(0,0,0)" paint-order="fill" d="M 48.5 223.5 L 52.5 223.5 M 48.5 214.5 L 52.5 214.5 M 48.5 205.5 L 52.5 205.5 M 48.5 196.5 L 52.5 196.5 M 48.5 187.5 L 52.5 187.5 M 48.5 178.5 L 52.5 178.5 M 48.5 169.5 L 52.5 169.5 M 48.5 160.5 L 52.5 160.5 M 48.5 151.5 L 52.5 151.5 M 48.5 142.5 L 52.5 142.5 M 48.5 133.5 L 52.5 133.5 M 48.5 124.5 L 52.5 124.5 M 48.5 115.5 L 52.5 115.5 M 48.5 106.5 L 52.5 106.5 M 48.5 97.5 L 52.5 97.5 M 48.5 88.5 L 52.5 88.5 M 48.5 79.5 L 52.5 79.5 M 48.5 70.5 L 52.5 70.5 M 48.5 61.5 L 52.5 61.5 M 48.5 52.5 L 52.5 52.5 M 48.5 43.5 L 52.5 43.5 M 48.5 34.5 L 52.5 34.5" stroke-opacity="1" stroke-linejoin="bevel" stroke-miterlimit="10" stroke-dasharray=""/><text fill="rgb(68,68,68)" stroke="none" font-family="helvetica" font-size="11px" font-style="normal" font-weight="normal" text-decoration="normal" x="34.88232421875" y="227.36692810058594" text-anchor="start" dominant-baseline="alphabetic" transform="matrix(1, 0, 0, 1, 0.5, 0.5)" fill-opacity="1">0</text><text fill="rgb(68,68,68)" stroke="none" font-family="helvetica" font-size="11px" font-style="normal" font-weight="normal" text-decoration="normal" x="25.70849609375" y="182.2099609375" text-anchor="start" dominant-baseline="alphabetic" transform="matrix(1, 0, 0, 1, 0.5, 0.5)" fill-opacity="1">0.5</text><text fill="rgb(68,68,68)" stroke="none" font-family="helvetica" font-size="11px" font-style="normal" font-weight="normal" text-decoration="normal" x="34.88232421875" y="137.05299377441406" text-anchor="start" dominant-baseline="alphabetic" transform="matrix(1, 0, 0, 1, 0.5, 0.5)" fill-opacity="1">1</text><text fill="rgb(68,68,68)" stroke="none" font-family="helvetica" font-size="11px" font-style="normal" font-weight="normal" text-decoration="normal" x="25.70849609375" y="91.89603424072266" text-anchor="start" dominant-baseline="alphabetic" transform="matrix(1, 0, 0, 1, 0.5, 0.5)" fill-opacity="1">1.5</text><text fill="rgb(68,68,68)" stroke="none" font-family="helvetica" font-size="11px" font-style="normal" font-weight="normal" text-decoration="normal" x="34.88232421875" y="46.739078521728516" text-anchor="start" dominant-baseline="alphabetic" transform="matrix(1, 0, 0, 1, 0.5, 0.5)" fill-opacity="1">2</text><text fill="rgb(68,68,68)" stroke="none" font-family="helvetica" font-size="13px" font-style="italic" font-weight="normal" text-decoration="normal" x="-9.75146484375" y="124" text-anchor="start" dominant-baseline="alphabetic" transform="matrix(6.123233995736766e-17, -1, 1, 6.123233995736766e-17, -108.79150390625, 145.20849609375)" fill-opacity="1">Predicted</text><path fill="none" stroke="rgb(255,140,0)" paint-order="fill" d="M 195.47334570191686 27.5 L 58.522325293753916 227.5" stroke-opacity="1" stroke-linejoin="bevel" stroke-miterlimit="10" stroke-width="2" stroke-dasharray="" clip-path="url(#CxxqtNHMuyUk)"/><path fill="none" stroke="none"/><text fill="rgb(68,68,68)" stroke="none" font-family="helvetica" font-size="13px" font-style="normal" font-weight="bold" text-decoration="normal" x="0" y="0" text-anchor="start" dominant-baseline="text-after-edge" transform="matrix(1, 0, 0, 1, 52.5, 22.5)" fill-opacity="1">PO4 (µmol/L), &lt;R²&gt; = 0.58</text></svg>