<svg version="1.1" xmlns="http://www.w3.org/2000/svg" xmlns:xlink="http://www.w3.org/1999/xlink" width="260" height="272"><defs><clipPath id="mbMwGoLoOPRc"><path fill="none" stroke="none" d="M 55.5 27.5 L 255.5 27.5 L 255.5 227.5 L 55.5 227.5 L 55.5 27.5"/></clipPath><clipPath id="tXsxLTraSJaM"><path fill="none" stroke="none" d="M 55.5 27.5 L 255.5 27.5 L 255.5 227.5 L 55.5 227.5 L 55.5 27.5"/></clipPath><clipPath id="kEAkgcIAESMT"><path fill="none" stroke="none" d="M 55.5 27.5 L 255.5 27.5 L 255.5 227.5 L 55.5 227.5 L 55.5 27.5"/></clipPath><clipPath id="faTACxbTIKTu"><path fill="none" stroke="none" d="M 55.5 27.5 L 255.5 27.5 L 255.5 227.5 L 55.5 227.5 L 55.5 27.5"/></clipPath><clipPath id="LCNLWmXACWMy"><path fill="none" stroke="none" d="M 55.5 27.5 L 255.5 27.5 L 255.5 227.5 L 55.5 227.5 L 55.5 27.5"/></clipPath></defs><path fill="none" stroke="rgb(229,229,229)" paint-order="fill" d="M 55.5 27.5 L 255.5 27.5 L 255.5 227.5 L 55.5 227.5 L 55.5 27.5" stroke-opacity="1" stroke-linejoin="bevel" stroke-miterlimit="10" stroke-dasharray=""/><path fill="none" stroke="rgb(229,229,229)" paint-order="fill" d="M 63.5 227.5 L 63.5 27.5 M 91.5 227.5 L 91.5 27.5 M 119.5 227.5 L 119.5 27.5 M 148.5 227.5 L 148.5 27.5 M 176.5 227.5 L 176.5 27.5 M 204.5 227.5 L 204.5 27.5 M 232.5 227.5 L 232.5 27.5" stroke-opacity="1" stroke-linejoin="bevel" stroke-miterlimit="10" stroke-dasharray="" clip-path="url(#mbMwGoLoOPRc)"/><path fill="none" stroke="rgb(229,229,229)" paint-order="fill" d="M 55.5 204.5 L 255.5 204.5 M 55.5 171.5 L 255.5 171.5 M 55.5 137.5 L 255.5 137.5 M 55.5 104.5 L 255.5 104.5 M 55.5 70.5 L 255.5 70.5 M 55.5 37.5 L 255.5 37.5" stroke-opacity="1" stroke-linejoin="bevel" stroke-miterlimit="10" stroke-dasharray="" clip-path="url(#tXsxLTraSJaM)"/><path fill="none" stroke="none"/><path fill="rgb(31,119,180)" stroke="rgb(31,119,180)" paint-order="fill" d="M 175.3115692138672 105.26171112060547 A 2 2 0 1 1 175.31156821386728 105.2597111209388" fill-opacity="1" clip-path="url(#kEAkgcIAESMT)" stroke-opacity="1" stroke-linejoin="bevel" stroke-miterlimit="10" stroke-dasharray=""/><path fill="rgb(31,119,180)" stroke="rgb(31,119,180)" paint-order="fill" d="M 173.90907287597656 105.88277435302734 A 2 2 0 1 1 173.90907187597665 105.88077435336068" fill-opacity="1" clip-path="url(#kEAkgcIAESMT)" stroke-opacity="1" stroke-linejoin="bevel" stroke-miterlimit="10" stroke-dasharray=""/><path fill="rgb(31,119,180)" stroke="rgb(31,119,180)" paint-order="fill" d="M 202.23927307128906 81.71678924560547 A 2 2 0 1 1 202.23927207128915 81.7147892459388" fill-opacity="1" clip-path="url(#kEAkgcIAESMT)" stroke-opacity="1" stroke-linejoin="bevel" stroke-miterlimit="10" stroke-dasharray=""/><path fill="rgb(31,119,180)" stroke="rgb(31,119,180)" paint-order="fill" d="M 199.8831024169922 86.20260620117188 A 2 2 0 1 1 199.88310141699228 86.20060620150521" fill-opacity="1" clip-path="url(#kEAkgcIAESMT)" stroke-opacity="1" stroke-linejoin="bevel" stroke-miterlimit="10" stroke-dasharray=""/><path fill="rgb(31,119,180)" stroke="rgb(31,119,180)" paint-order="fill" d="M 178.00433349609375 109.41973114013672 A 2 2 0 1 1 178.00433249609384 109.41773114047005" fill-opacity="1" clip-path="url(#kEAkgcIAESMT)" stroke-opacity="1" stroke-linejoin="bevel" stroke-miterlimit="10" stroke-dasharray=""/><path fill="rgb(31,119,180)" stroke="rgb(31,119,180)" paint-order="fill" d="M 164.20387268066406 126.70379638671875 A 2 2 0 1 1 164.20387168066415 126.70179638705208" fill-opacity="1" clip-path="url(#kEAkgcIAESMT)" stroke-opacity="1" stroke-linejoin="bevel" stroke-miterlimit="10" stroke-dasharray=""/><path fill="rgb(31,119,180)" stroke="rgb(31,119,180)" paint-order="fill" d="M 143.33489990234375 148.76467895507812 A 2 2 0 1 1 143.33489890234384 148.76267895541145" fill-opacity="1" clip-path="url(#kEAkgcIAESMT)" stroke-opacity="1" stroke-linejoin="bevel" stroke-miterlimit="10" stroke-dasharray=""/><path fill="rgb(31,119,180)" stroke="rgb(31,119,180)" paint-order="fill" d="M 193.5999755859375 79.62226104736328 A 2 2 0 1 1 193.5999745859376 79.62026104769662" fill-opacity="1" clip-path="url(#kEAkgcIAESMT)" stroke-opacity="1" stroke-linejoin="bevel" stroke-miterlimit="10" stroke-dasharray=""/><path fill="rgb(31,119,180)" stroke="rgb(31,119,180)" paint-order="fill" d="M 237.63800048828125 41.01665115356445 A 2 2 0 1 1 237.63799948828134 41.01465115389779" fill-opacity="1" clip-path="url(#kEAkgcIAESMT)" stroke-opacity="1" stroke-linejoin="bevel" stroke-miterlimit="10" stroke-dasharray=""/><path fill="rgb(31,119,180)" stroke="rgb(31,119,180)" paint-order="fill" d="M 248.40908813476562 36.59090805053711 A 2 2 0 1 1 248.4090871347657 36.588908050870444" fill-opacity="1" clip-path="url(#kEAkgcIAESMT)" stroke-opacity="1" stroke-linejoin="bevel" stroke-miterlimit="10" stroke-dasharray=""/><path fill="rgb(31,119,180)" stroke="rgb(31,119,180)" paint-order="fill" d="M 180.30441284179688 105.24190521240234 A 2 2 0 1 1 180.30441184179696 105.23990521273568" fill-opacity="1" clip-path="url(#kEAkgcIAESMT)" stroke-opacity="1" stroke-linejoin="bevel" stroke-miterlimit="10" stroke-dasharray=""/><path fill="rgb(31,119,180)" stroke="rgb(31,119,180)" paint-order="fill" d="M 184.00697326660156 105.95381927490234 A 2 2 0 1 1 184.00697226660165 105.95181927523568" fill-opacity="1" clip-path="url(#kEAkgcIAESMT)" stroke-opacity="1" stroke-linejoin="bevel" stroke-miterlimit="10" stroke-dasharray=""/><path fill="rgb(31,119,180)" stroke="rgb(31,119,180)" paint-order="fill" d="M 66.59091186523438 201.4276580810547 A 2 2 0 1 1 66.59091086523446 201.425658081388" fill-opacity="1" clip-path="url(#kEAkgcIAESMT)" stroke-opacity="1" stroke-linejoin="bevel" stroke-miterlimit="10" stroke-dasharray=""/><path fill="rgb(31,119,180)" stroke="rgb(31,119,180)" paint-order="fill" d="M 165.15756225585938 116.7846450805664 A 2 2 0 1 1 165.15756125585946 116.78264508089974" fill-opacity="1" clip-path="url(#kEAkgcIAESMT)" stroke-opacity="1" stroke-linejoin="bevel" stroke-miterlimit="10" stroke-dasharray=""/><path fill="rgb(31,119,180)" stroke="rgb(31,119,180)" paint-order="fill" d="M 68.32999420166016 203.4379119873047 A 2 2 0 1 1 68.32999320166024 203.435911987638" fill-opacity="1" clip-path="url(#kEAkgcIAESMT)" stroke-opacity="1" stroke-linejoin="bevel" stroke-miterlimit="10" stroke-dasharray=""/><path fill="rgb(31,119,180)" stroke="rgb(31,119,180)" paint-order="fill" d="M 164.5404815673828 111.62249755859375 A 2 2 0 1 1 164.5404805673829 111.62049755892708" fill-opacity="1" clip-path="url(#kEAkgcIAESMT)" stroke-opacity="1" stroke-linejoin="bevel" stroke-miterlimit="10" stroke-dasharray=""/><path fill="rgb(31,119,180)" stroke="rgb(31,119,180)" paint-order="fill" d="M 185.1289520263672 100.35939025878906 A 2 2 0 1 1 185.12895102636728 100.3573902591224" fill-opacity="1" clip-path="url(#kEAkgcIAESMT)" stroke-opacity="1" stroke-linejoin="bevel" stroke-miterlimit="10" stroke-dasharray=""/><path fill="rgb(31,119,180)" stroke="rgb(31,119,180)" paint-order="fill" d="M 66.75920867919922 218.40908813476562 A 2 2 0 1 1 66.7592076791993 218.40708813509895" fill-opacity="1" clip-path="url(#kEAkgcIAESMT)" stroke-opacity="1" stroke-linejoin="bevel" stroke-miterlimit="10" stroke-dasharray=""/><path fill="rgb(31,119,180)" stroke="rgb(31,119,180)" paint-order="fill" d="M 180.1922149658203 130.97982788085938 A 2 2 0 1 1 180.1922139658204 130.9778278811927" fill-opacity="1" clip-path="url(#kEAkgcIAESMT)" stroke-opacity="1" stroke-linejoin="bevel" stroke-miterlimit="10" stroke-dasharray=""/><path fill="rgb(31,119,180)" stroke="rgb(31,119,180)" paint-order="fill" d="M 196.06834411621094 88.66265869140625 A 2 2 0 1 1 196.06834311621103 88.66065869173958" fill-opacity="1" clip-path="url(#kEAkgcIAESMT)" stroke-opacity="1" stroke-linejoin="bevel" stroke-miterlimit="10" stroke-dasharray=""/><path fill="none" stroke="rgb(0,0,0)" paint-order="fill" d="M 55.5 227.5 L 255.5 227.5" stroke-opacity="1" stroke-linejoin="bevel" stroke-miterlimit="10" stroke-dasharray=""/><path fill="none" stroke="rgb(0,0,0)" paint-order="fill" d="M 63.5 233.5 L 63.5 225.5 M 91.5 233.5 L 91.5 225.5 M 119.5 233.5 L 119.5 225.5 M 148.5 233.5 L 148.5 225.5 M 176.5 233.5 L 176.5 225.5 M 204.5 233.5 L 204.5 225.5 M 232.5 233.5 L 232.5 225.5" stroke-opacity="1" stroke-linejoin="bevel" stroke-miterlimit="10" stroke-dasharray=""/><path fill="none" stroke="rgb(0,0,0)" paint-order="fill" d="M 58.5 231.5 L 58.5 227.5 M 63.5 231.5 L 63.5 227.5 M 69.5 231.5 L 69.5 227.5 M 75.5 231.5 L 75.5 227.5 M 80.5 231.5 L 80.5 227.5 M 86.5 231.5 L 86.5 227.5 M 91.5 231.5 L 91.5 227.5 M 97.5 231.5 L 97.5 227.5 M 103.5 231.5 L 103.5 227.5 M 108.5 231.5 L 108.5 227.5 M 114.5 231.5 L 114.5 227.5 M 119.5 231.5 L 119.5 227.5 M 125.5 231.5 L 125.5 227.5 M 131.5 231.5 L 131.5 227.5 M 136.5 231.5 L 136.5 227.5 M 142.5 231.5 L 142.5 227.5 M 148.5 231.5 L 148.5 227.5 M 153.5 231.5 L 153.5 227.5 M 159.5 231.5 L 159.5 227.5 M 164.5 231.5 L 164.5 227.5 M 170.5 231.5 L 170.5 227.5 M 176.5 231.5 L 176.5 227.5 M 181.5 231.5 L 181.5 227.5 M 187.5 231.5 L 187.5 227.5 M 192.5 231.5 L 192.5 227.5 M 198.5 231.5 L 198.5 227.5 M 204.5 231.5 L 204.5 227.5 M 209.5 231.5 L 209.5 227.5 M 215.5 231.5 L 215.5 227.5 M 220.5 231.5 L 220.5 227.5 M 226.5 231.5 L 226.5 227.5 M 232.5 231.5 L 232.5 227.5 M 237.5 231.5 L 237.5 227.5 M 243.5 231.5 L 243.5 227.5 M 248.5 231.5 L 248.5 227.5 M 254.5 231.5 L 254.5 227.5" stroke-opacity="1" stroke-linejoin="bevel" stroke-miterlimit="10" stroke-dasharray=""/><text fill="rgb(68,68,68)" stroke="none" font-family="helvetica" font-size="11px" font-style="normal" font-weight="normal" text-decoration="normal" x="60.30278015136719" y="245.89013671875" text-anchor="start" dominant-baseline="alphabetic" transform="matrix(1, 0, 0, 1, 0.5, 0.5)" fill-opacity="1">0</text><text fill="rgb(68,68,68)" stroke="none" font-family="helvetica" font-size="11px" font-style="normal" font-weight="normal" text-decoration="normal" x="85.29364776611328" y="245.89013671875" text-anchor="start" dominant-baseline="alphabetic" transform="matrix(1, 0, 0, 1, 0.5, 0.5)" fill-opacity="1">50</text><text fill="rgb(68,68,68)" stroke="none" font-family="helvetica" font-size="11px" font-style="normal" font-weight="normal" text-decoration="normal" x="110.28450775146484" y="245.89013671875" text-anchor="start" dominant-baseline="alphabetic" transform="matrix(1, 0, 0, 1, 0.5, 0.5)" fill-opacity="1">100</text><text fill="rgb(68,68,68)" stroke="none" font-family="helvetica" font-size="11px" font-style="normal" font-weight="normal" text-decoration="normal" x="138.33421325683594" y="245.89013671875" text-anchor="start" dominant-baseline="alphabetic" transform="matrix(1, 0, 0, 1, 0.5, 0.5)" fill-opacity="1">150</text><text fill="rgb(68,68,68)" stroke="none" font-family="helvetica" font-size="11px" font-style="normal" font-weight="normal" text-decoration="normal" x="166.38392639160156" y="245.89013671875" text-anchor="start" dominant-baseline="alphabetic" transform="matrix(1, 0, 0, 1, 0.5, 0.5)" fill-opacity="1">200</text><text fill="rgb(68,68,68)" stroke="none" font-family="helvetica" font-size="11px" font-style="normal" font-weight="normal" text-decoration="normal" x="194.43362426757812" y="245.89013671875" text-anchor="start" dominant-baseline="alphabetic" transform="matrix(1, 0, 0, 1, 0.5, 0.5)" fill-opacity="1">250</text><text fill="rgb(68,68,68)" stroke="none" font-family="helvetica" font-size="11px" font-style="normal" font-weight="normal" text-decoration="normal" x="222.4833221435547" y="245.89013671875" text-anchor="start" dominant-baseline="alphabetic" transform="matrix(1, 0, 0, 1, 0.5, 0.5)" fill-opacity="1">300</text><text fill="rgb(68,68,68)" stroke="none" font-family="helvetica" font-size="13px" font-style="italic" font-weight="normal" text-decoration="normal" x="126.819580078125" y="265.89013671875" text-anchor="start" dominant-baseline="alphabetic" transform="matrix(1, 0, 0, 1, 0.5, 0.5)" fill-opacity="1">Observed</text><path fill="none" stroke="rgb(0,0,0)" paint-order="fill" d="M 55.5 227.5 L 55.5 27.5" stroke-opacity="1" stroke-linejoin="bevel" stroke-miterlimit="10" stroke-dasharray=""/><path fill="none" stroke="rgb(0,0,0)" paint-order="fill" d="M 49.5 204.5 L 57.5 204.5 M 49.5 171.5 L 57.5 171.5 M 49.5 137.5 L 57.5 137.5 M 49.5 104.5 L 57.5 104.5 M 49.5 70.5 L 57.5 70.5 M 49.5 37.5 L 57.5 37.5" stroke-opacity="1" stroke-linejoin="bevel" stroke-miterlimit="10" stroke-dasharray=""/><path fill="none" stroke="rgb(0,0,0)" paint-order="fill" d="M 51.5 211.5 L 55.5 211.5 M 51.5 217.5 L 55.5 217.5 M 51.5 224.5 L 55.5 224.5 M 51.5 204.5 L 55.5 204.5 M 51.5 197.5 L 55.5 197.5 M 51.5 191.5 L 55.5 191.5 M 51.5 184.5 L 55.5 184.5 M 51.5 177.5 L 55.5 177.5 M 51.5 171.5 L 55.5 171.5 M 51.5 164.5 L 55.5 164.5 M 51.5 157.5 L 55.5 157.5 M 51.5 151.5 L 55.5 151.5 M 51.5 144.5 L 55.5 144.5 M 51.5 137.5 L 55.5 137.5 M 51.5 130.5 L 55.5 130.5 M 51.5 124.5 L 55.5 124.5 M 51.5 117.5 L 55.5 117.5 M 51.5 110.5 L 55.5 110.5 M 51.5 104.5 L 55.5 104.5 M 51.5 97.5 L 55.5 97.5 M 51.5 90.5 L 55.5 90.5 M 51.5 84.5 L 55.5 84.5 M 51.5 77.5 L 55.5 77.5 M 51.5 70.5 L 55.5 70.5 M 51.5 64.5 L 55.5 64.5 M 51.5 57.5 L 55.5 57.5 M 51.5 50.5 L 55.5 50.5 M 51.5 44.5 L 55.5 44.5 M 51.5 37.5 L 55.5 37.5 M 51.5 30.5 L 55.5 30.5" stroke-opacity="1" stroke-linejoin="bevel" stroke-miterlimit="10" stroke-dasharray=""/><text fill="rgb(68,68,68)" stroke="none" font-family="helvetica" font-size="11px" font-style="normal" font-weight="normal" text-decoration="normal" x="31.7646484375" y="208.02088928222656" text-anchor="start" dominant-baseline="alphabetic" transform="matrix(1, 0, 0, 1, 0.5, 0.5)" fill-opacity="1">50</text><text fill="rgb(68,68,68)" stroke="none" font-family="helvetica" font-size="11px" font-style="normal" font-weight="normal" text-decoration="normal" x="25.64697265625" y="174.57260131835938" text-anchor="start" dominant-baseline="alphabetic" transform="matrix(1, 0, 0, 1, 0.5, 0.5)" fill-opacity="1">100</text><text fill="rgb(68,68,68)" stroke="none" font-family="helvetica" font-size="11px" font-style="normal" font-weight="normal" text-decoration="normal" x="25.64697265625" y="141.1243133544922" text-anchor="start" dominant-baseline="alphabetic" transform="matrix(1, 0, 0, 1, 0.5, 0.5)" fill-opacity="1">150</text><text fill="rgb(68,68,68)" stroke="none" font-family="helvetica" font-size="11px" font-style="normal" font-weight="normal" text-decoration="normal" x="25.64697265625" y="107.67603302001953" text-anchor="start" dominant-baseline="alphabetic" transform="matrix(1, 0, 0, 1, 0.5, 0.5)" fill-opacity="1">200</text><text fill="rgb(68,68,68)" stroke="none" font-family="helvetica" font-size="11px" font-style="normal" font-weight="normal" text-decoration="normal" x="25.64697265625" y="74.22775268554688" text-anchor="start" dominant-baseline="alphabetic" transform="matrix(1, 0, 0, 1, 0.5, 0.5)" fill-opacity="1">250</text><text fill="rgb(68,68,68)" stroke="none" font-family="helvetica" font-size="11px" font-style="normal" font-weight="normal" text-decoration="normal" x="25.64697265625" y="40.77946472167969" text-anchor="start" dominant-baseline="alphabetic" transform="matrix(1, 0, 0, 1, 0.5, 0.5)" fill-opacity="1">300</text><text fill="rgb(68,68,68)" stroke="none" font-family="helvetica" font-size="13px" font-style="italic" font-weight="normal" text-decoration="normal" x="-9.81298828125" y="124" text-anchor="start" dominant-baseline="alphabetic" transform="matrix(6.123233995736766e-17, -1, 1, 6.123233995736766e-17, -108.85302734375, 145.14697265625)" fill-opacity="1">Predicted</text><path fill="none" stroke="rgb(255,140,0)" paint-order="fill" d="M 240.40695913158058 27.5 L 72.68711957588849 227.5" stroke-opacity="1" stroke-linejoin="bevel" stroke-miterlimit="10" stroke-width="2" stroke-dasharray="" clip-path="url(#faTACxbTIKTu)"/><path fill="none" stroke="none"/><text fill="rgb(68,68,68)" stroke="none" font-family="helvetica" font-size="13px" font-style="normal" font-weight="bold" text-decoration="normal" x="0" y="0" text-anchor="start" dominant-baseline="text-after-edge" transform="matrix(1, 0, 0, 1, 55.5, 22.5)" fill-opacity="1">Oxygen (µmol/kg), &lt;R²&gt; = 0.72</text></svg>