<svg version="1.1" xmlns="http://www.w3.org/2000/svg" xmlns:xlink="http://www.w3.org/1999/xlink" width="261" height="272"><defs><clipPath id="WqaHVtuJadnS"><path fill="none" stroke="none" d="M 56.5 27.5 L 256.5 27.5 L 256.5 227.5 L 56.5 227.5 L 56.5 27.5"/></clipPath><clipPath id="vNBgDXSVgUTQ"><path fill="none" stroke="none" d="M 56.5 27.5 L 256.5 27.5 L 256.5 227.5 L 56.5 227.5 L 56.5 27.5"/></clipPath><clipPath id="lmKlIJzOCuMD"><path fill="none" stroke="none" d="M 56.5 27.5 L 256.5 27.5 L 256.5 227.5 L 56.5 227.5 L 56.5 27.5"/></clipPath><clipPath id="iBylilOPnhkV"><path fill="none" stroke="none" d="M 56.5 27.5 L 256.5 27.5 L 256.5 227.5 L 56.5 227.5 L 56.5 27.5"/></clipPath><clipPath id="KZBaOkWbnSoI"><path fill="none" stroke="none" d="M 56.5 27.5 L 256.5 27.5 L 256.5 227.5 L 56.5 227.5 L 56.5 27.5"/></clipPath></defs><path fill="none" stroke="rgb(229,229,229)" paint-order="fill" d="M 56.5 27.5 L 256.5 27.5 L 256.5 227.5 L 56.5 227.5 L 56.5 27.5" stroke-opacity="1" stroke-linejoin="bevel" stroke-miterlimit="10" stroke-dasharray=""/><path fill="none" stroke="rgb(229,229,229)" paint-order="fill" d="M 65.5 227.5 L 65.5 27.5 M 100.5 227.5 L 100.5 27.5 M 135.5 227.5 L 135.5 27.5 M 170.5 227.5 L 170.5 27.5 M 205.5 227.5 L 205.5 27.5 M 240.5 227.5 L 240.5 27.5" stroke-opacity="1" stroke-linejoin="bevel" stroke-miterlimit="10" stroke-dasharray="" clip-path="url(#WqaHVtuJadnS)"/><path fill="none" stroke="rgb(229,229,229)" paint-order="fill" d="M 56.5 209.5 L 256.5 209.5 M 56.5 180.5 L 256.5 180.5 M 56.5 152.5 L 256.5 152.5 M 56.5 123.5 L 256.5 123.5 M 56.5 94.5 L 256.5 94.5 M 56.5 65.5 L 256.5 65.5 M 56.5 36.5 L 256.5 36.5" stroke-opacity="1" stroke-linejoin="bevel" stroke-miterlimit="10" stroke-dasharray="" clip-path="url(#vNBgDXSVgUTQ)"/><path fill="none" stroke="none"/><path fill="rgb(31,119,180)" stroke="rgb(31,119,180)" paint-order="fill" d="M 157.4862060546875 115.5262680053711 A 2 2 0 1 1 157.4862050546876 115.52426800570443" fill-opacity="1" clip-path="url(#lmKlIJzOCuMD)" stroke-opacity="1" stroke-linejoin="bevel" stroke-miterlimit="10" stroke-dasharray=""/><path fill="rgb(31,119,180)" stroke="rgb(31,119,180)" paint-order="fill" d="M 90.34877014160156 205.98756408691406 A 2 2 0 1 1 90.34876914160165 205.98556408724738" fill-opacity="1" clip-path="url(#lmKlIJzOCuMD)" stroke-opacity="1" stroke-linejoin="bevel" stroke-miterlimit="10" stroke-dasharray=""/><path fill="rgb(31,119,180)" stroke="rgb(31,119,180)" paint-order="fill" d="M 241.158935546875 48.247806549072266 A 2 2 0 1 1 241.1589345468751 48.2458065494056" fill-opacity="1" clip-path="url(#lmKlIJzOCuMD)" stroke-opacity="1" stroke-linejoin="bevel" stroke-miterlimit="10" stroke-dasharray=""/><path fill="rgb(31,119,180)" stroke="rgb(31,119,180)" paint-order="fill" d="M 205.32666015625 79.06710815429688 A 2 2 0 1 1 205.3266591562501 79.06510815463021" fill-opacity="1" clip-path="url(#lmKlIJzOCuMD)" stroke-opacity="1" stroke-linejoin="bevel" stroke-miterlimit="10" stroke-dasharray=""/><path fill="rgb(31,119,180)" stroke="rgb(31,119,180)" paint-order="fill" d="M 111.25383758544922 95.24505615234375 A 2 2 0 1 1 111.2538365854493 95.24305615267708" fill-opacity="1" clip-path="url(#lmKlIJzOCuMD)" stroke-opacity="1" stroke-linejoin="bevel" stroke-miterlimit="10" stroke-dasharray=""/><path fill="rgb(31,119,180)" stroke="rgb(31,119,180)" paint-order="fill" d="M 236.12493896484375 36.59090805053711 A 2 2 0 1 1 236.12493796484384 36.588908050870444" fill-opacity="1" clip-path="url(#lmKlIJzOCuMD)" stroke-opacity="1" stroke-linejoin="bevel" stroke-miterlimit="10" stroke-dasharray=""/><path fill="rgb(31,119,180)" stroke="rgb(31,119,180)" paint-order="fill" d="M 249.40908813476562 40.73057174682617 A 2 2 0 1 1 249.4090871347657 40.728571747159506" fill-opacity="1" clip-path="url(#lmKlIJzOCuMD)" stroke-opacity="1" stroke-linejoin="bevel" stroke-miterlimit="10" stroke-dasharray=""/><path fill="rgb(31,119,180)" stroke="rgb(31,119,180)" paint-order="fill" d="M 111.79569244384766 65.85958099365234 A 2 2 0 1 1 111.79569144384774 65.85758099398568" fill-opacity="1" clip-path="url(#lmKlIJzOCuMD)" stroke-opacity="1" stroke-linejoin="bevel" stroke-miterlimit="10" stroke-dasharray=""/><path fill="rgb(31,119,180)" stroke="rgb(31,119,180)" paint-order="fill" d="M 136.07424926757812 108.24542236328125 A 2 2 0 1 1 136.0742482675782 108.24342236361458" fill-opacity="1" clip-path="url(#lmKlIJzOCuMD)" stroke-opacity="1" stroke-linejoin="bevel" stroke-miterlimit="10" stroke-dasharray=""/><path fill="rgb(31,119,180)" stroke="rgb(31,119,180)" paint-order="fill" d="M 217.71937561035156 72.24546813964844 A 2 2 0 1 1 217.71937461035165 72.24346813998177" fill-opacity="1" clip-path="url(#lmKlIJzOCuMD)" stroke-opacity="1" stroke-linejoin="bevel" stroke-miterlimit="10" stroke-dasharray=""/><path fill="rgb(31,119,180)" stroke="rgb(31,119,180)" paint-order="fill" d="M 209.2594757080078 72.32044982910156 A 2 2 0 1 1 209.2594747080079 72.3184498294349" fill-opacity="1" clip-path="url(#lmKlIJzOCuMD)" stroke-opacity="1" stroke-linejoin="bevel" stroke-miterlimit="10" stroke-dasharray=""/><path fill="rgb(31,119,180)" stroke="rgb(31,119,180)" paint-order="fill" d="M 169.35455322265625 88.41133880615234 A 2 2 0 1 1 169.35455222265634 88.40933880648568" fill-opacity="1" clip-path="url(#lmKlIJzOCuMD)" stroke-opacity="1" stroke-linejoin="bevel" stroke-miterlimit="10" stroke-dasharray=""/><path fill="rgb(31,119,180)" stroke="rgb(31,119,180)" paint-order="fill" d="M 217.6669464111328 80.6512451171875 A 2 2 0 1 1 217.6669454111329 80.64924511752083" fill-opacity="1" clip-path="url(#lmKlIJzOCuMD)" stroke-opacity="1" stroke-linejoin="bevel" stroke-miterlimit="10" stroke-dasharray=""/><path fill="rgb(31,119,180)" stroke="rgb(31,119,180)" paint-order="fill" d="M 67.59091186523438 218.40908813476562 A 2 2 0 1 1 67.59091086523446 218.40708813509895" fill-opacity="1" clip-path="url(#lmKlIJzOCuMD)" stroke-opacity="1" stroke-linejoin="bevel" stroke-miterlimit="10" stroke-dasharray=""/><path fill="rgb(31,119,180)" stroke="rgb(31,119,180)" paint-order="fill" d="M 163.69131469726562 95.32466125488281 A 2 2 0 1 1 163.6913136972657 95.32266125521615" fill-opacity="1" clip-path="url(#lmKlIJzOCuMD)" stroke-opacity="1" stroke-linejoin="bevel" stroke-miterlimit="10" stroke-dasharray=""/><path fill="rgb(31,119,180)" stroke="rgb(31,119,180)" paint-order="fill" d="M 249.2342987060547 42.247467041015625 A 2 2 0 1 1 249.23429770605478 42.24546704134896" fill-opacity="1" clip-path="url(#lmKlIJzOCuMD)" stroke-opacity="1" stroke-linejoin="bevel" stroke-miterlimit="10" stroke-dasharray=""/><path fill="rgb(31,119,180)" stroke="rgb(31,119,180)" paint-order="fill" d="M 205.58885192871094 63.192039489746094 A 2 2 0 1 1 205.58885092871103 63.19003949007943" fill-opacity="1" clip-path="url(#lmKlIJzOCuMD)" stroke-opacity="1" stroke-linejoin="bevel" stroke-miterlimit="10" stroke-dasharray=""/><path fill="rgb(31,119,180)" stroke="rgb(31,119,180)" paint-order="fill" d="M 236.07249450683594 50.019287109375 A 2 2 0 1 1 236.07249350683603 50.017287109708334" fill-opacity="1" clip-path="url(#lmKlIJzOCuMD)" stroke-opacity="1" stroke-linejoin="bevel" stroke-miterlimit="10" stroke-dasharray=""/><path fill="rgb(31,119,180)" stroke="rgb(31,119,180)" paint-order="fill" d="M 157.2939453125 102.0357894897461 A 2 2 0 1 1 157.2939443125001 102.03378949007943" fill-opacity="1" clip-path="url(#lmKlIJzOCuMD)" stroke-opacity="1" stroke-linejoin="bevel" stroke-miterlimit="10" stroke-dasharray=""/><path fill="rgb(31,119,180)" stroke="rgb(31,119,180)" paint-order="fill" d="M 143.2232208251953 72.72783660888672 A 2 2 0 1 1 143.2232198251954 72.72583660922005" fill-opacity="1" clip-path="url(#lmKlIJzOCuMD)" stroke-opacity="1" stroke-linejoin="bevel" stroke-miterlimit="10" stroke-dasharray=""/><path fill="rgb(31,119,180)" stroke="rgb(31,119,180)" paint-order="fill" d="M 157.5211639404297 115.47040557861328 A 2 2 0 1 1 157.52116294042978 115.46840557894662" fill-opacity="1" clip-path="url(#lmKlIJzOCuMD)" stroke-opacity="1" stroke-linejoin="bevel" stroke-miterlimit="10" stroke-dasharray=""/><path fill="none" stroke="rgb(0,0,0)" paint-order="fill" d="M 56.5 227.5 L 256.5 227.5" stroke-opacity="1" stroke-linejoin="bevel" stroke-miterlimit="10" stroke-dasharray=""/><path fill="none" stroke="rgb(0,0,0)" paint-order="fill" d="M 65.5 233.5 L 65.5 225.5 M 100.5 233.5 L 100.5 225.5 M 135.5 233.5 L 135.5 225.5 M 170.5 233.5 L 170.5 225.5 M 205.5 233.5 L 205.5 225.5 M 240.5 233.5 L 240.5 225.5" stroke-opacity="1" stroke-linejoin="bevel" stroke-miterlimit="10" stroke-dasharray=""/><path fill="none" stroke="rgb(0,0,0)" paint-order="fill" d="M 59.5 231.5 L 59.5 227.5 M 65.5 231.5 L 65.5 227.5 M 72.5 231.5 L 72.5 227.5 M 79.5 231.5 L 79.5 227.5 M 86.5 231.5 L 86.5 227.5 M 93.5 231.5 L 93.5 227.5 M 100.5 231.5 L 100.5 227.5 M 107.5 231.5 L 107.5 227.5 M 114.5 231.5 L 114.5 227.5 M 121.5 231.5 L 121.5 227.5 M 128.5 231.5 L 128.5 227.5 M 135.5 231.5 L 135.5 227.5 M 142.5 231.5 L 142.5 227.5 M 149.5 231.5 L 149.5 227.5 M 156.5 231.5 L 156.5 227.5 M 163.5 231.5 L 163.5 227.5 M 170.5 231.5 L 170.5 227.5 M 177.5 231.5 L 177.5 227.5 M 184.5 231.5 L 184.5 227.5 M 191.5 231.5 L 191.5 227.5 M 198.5 231.5 L 198.5 227.5 M 205.5 231.5 L 205.5 227.5 M 212.5 231.5 L 212.5 227.5 M 219.5 231.5 L 219.5 227.5 M 226.5 231.5 L 226.5 227.5 M 233.5 231.5 L 233.5 227.5 M 240.5 231.5 L 240.5 227.5 M 247.5 231.5 L 247.5 227.5 M 254.5 231.5 L 254.5 227.5" stroke-opacity="1" stroke-linejoin="bevel" stroke-miterlimit="10" stroke-dasharray=""/><text fill="rgb(68,68,68)" stroke="none" font-family="helvetica" font-size="11px" font-style="normal" font-weight="normal" text-decoration="normal" x="56.16333770751953" y="245.89013671875" text-anchor="start" dominant-baseline="alphabetic" transform="matrix(1, 0, 0, 1, 0.5, 0.5)" fill-opacity="1">−60</text><text fill="rgb(68,68,68)" stroke="none" font-family="helvetica" font-size="11px" font-style="normal" font-weight="normal" text-decoration="normal" x="91.12165069580078" y="245.89013671875" text-anchor="start" dominant-baseline="alphabetic" transform="matrix(1, 0, 0, 1, 0.5, 0.5)" fill-opacity="1">−40</text><text fill="rgb(68,68,68)" stroke="none" font-family="helvetica" font-size="11px" font-style="normal" font-weight="normal" text-decoration="normal" x="126.07997131347656" y="245.89013671875" text-anchor="start" dominant-baseline="alphabetic" transform="matrix(1, 0, 0, 1, 0.5, 0.5)" fill-opacity="1">−20</text><text fill="rgb(68,68,68)" stroke="none" font-family="helvetica" font-size="11px" font-style="normal" font-weight="normal" text-decoration="normal" x="167.30902099609375" y="245.89013671875" text-anchor="start" dominant-baseline="alphabetic" transform="matrix(1, 0, 0, 1, 0.5, 0.5)" fill-opacity="1">0</text><text fill="rgb(68,68,68)" stroke="none" font-family="helvetica" font-size="11px" font-style="normal" font-weight="normal" text-decoration="normal" x="199.20849609375" y="245.89013671875" text-anchor="start" dominant-baseline="alphabetic" transform="matrix(1, 0, 0, 1, 0.5, 0.5)" fill-opacity="1">20</text><text fill="rgb(68,68,68)" stroke="none" font-family="helvetica" font-size="11px" font-style="normal" font-weight="normal" text-decoration="normal" x="234.16680908203125" y="245.89013671875" text-anchor="start" dominant-baseline="alphabetic" transform="matrix(1, 0, 0, 1, 0.5, 0.5)" fill-opacity="1">40</text><text fill="rgb(68,68,68)" stroke="none" font-family="helvetica" font-size="13px" font-style="italic" font-weight="normal" text-decoration="normal" x="127.819580078125" y="265.89013671875" text-anchor="start" dominant-baseline="alphabetic" transform="matrix(1, 0, 0, 1, 0.5, 0.5)" fill-opacity="1">Observed</text><path fill="none" stroke="rgb(0,0,0)" paint-order="fill" d="M 56.5 227.5 L 56.5 27.5" stroke-opacity="1" stroke-linejoin="bevel" stroke-miterlimit="10" stroke-dasharray=""/><path fill="none" stroke="rgb(0,0,0)" paint-order="fill" d="M 50.5 209.5 L 58.5 209.5 M 50.5 180.5 L 58.5 180.5 M 50.5 152.5 L 58.5 152.5 M 50.5 123.5 L 58.5 123.5 M 50.5 94.5 L 58.5 94.5 M 50.5 65.5 L 58.5 65.5 M 50.5 36.5 L 58.5 36.5" stroke-opacity="1" stroke-linejoin="bevel" stroke-miterlimit="10" stroke-dasharray=""/><path fill="none" stroke="rgb(0,0,0)" paint-order="fill" d="M 52.5 215.5 L 56.5 215.5 M 52.5 221.5 L 56.5 221.5 M 52.5 227.5 L 56.5 227.5 M 52.5 209.5 L 56.5 209.5 M 52.5 204.5 L 56.5 204.5 M 52.5 198.5 L 56.5 198.5 M 52.5 192.5 L 56.5 192.5 M 52.5 186.5 L 56.5 186.5 M 52.5 180.5 L 56.5 180.5 M 52.5 175.5 L 56.5 175.5 M 52.5 169.5 L 56.5 169.5 M 52.5 163.5 L 56.5 163.5 M 52.5 157.5 L 56.5 157.5 M 52.5 152.5 L 56.5 152.5 M 52.5 146.5 L 56.5 146.5 M 52.5 140.5 L 56.5 140.5 M 52.5 134.5 L 56.5 134.5 M 52.5 128.5 L 56.5 128.5 M 52.5 123.5 L 56.5 123.5 M 52.5 117.5 L 56.5 117.5 M 52.5 111.5 L 56.5 111.5 M 52.5 105.5 L 56.5 105.5 M 52.5 100.5 L 56.5 100.5 M 52.5 94.5 L 56.5 94.5 M 52.5 88.5 L 56.5 88.5 M 52.5 82.5 L 56.5 82.5 M 52.5 76.5 L 56.5 76.5 M 52.5 71.5 L 56.5 71.5 M 52.5 65.5 L 56.5 65.5 M 52.5 59.5 L 56.5 59.5 M 52.5 53.5 L 56.5 53.5 M 52.5 48.5 L 56.5 48.5 M 52.5 42.5 L 56.5 42.5 M 52.5 36.5 L 56.5 36.5 M 52.5 30.5 L 56.5 30.5" stroke-opacity="1" stroke-linejoin="bevel" stroke-miterlimit="10" stroke-dasharray=""/><text fill="rgb(68,68,68)" stroke="none" font-family="helvetica" font-size="11px" font-style="normal" font-weight="normal" text-decoration="normal" x="26.3408203125" y="213.2798614501953" text-anchor="start" dominant-baseline="alphabetic" transform="matrix(1, 0, 0, 1, 0.5, 0.5)" fill-opacity="1">−40</text><text fill="rgb(68,68,68)" stroke="none" font-family="helvetica" font-size="11px" font-style="normal" font-weight="normal" text-decoration="normal" x="26.3408203125" y="184.39541625976562" text-anchor="start" dominant-baseline="alphabetic" transform="matrix(1, 0, 0, 1, 0.5, 0.5)" fill-opacity="1">−30</text><text fill="rgb(68,68,68)" stroke="none" font-family="helvetica" font-size="11px" font-style="normal" font-weight="normal" text-decoration="normal" x="26.3408203125" y="155.51097106933594" text-anchor="start" dominant-baseline="alphabetic" transform="matrix(1, 0, 0, 1, 0.5, 0.5)" fill-opacity="1">−20</text><text fill="rgb(68,68,68)" stroke="none" font-family="helvetica" font-size="11px" font-style="normal" font-weight="normal" text-decoration="normal" x="26.3408203125" y="126.62652587890625" text-anchor="start" dominant-baseline="alphabetic" transform="matrix(1, 0, 0, 1, 0.5, 0.5)" fill-opacity="1">−10</text><text fill="rgb(68,68,68)" stroke="none" font-family="helvetica" font-size="11px" font-style="normal" font-weight="normal" text-decoration="normal" x="38.88232421875" y="97.74208068847656" text-anchor="start" dominant-baseline="alphabetic" transform="matrix(1, 0, 0, 1, 0.5, 0.5)" fill-opacity="1">0</text><text fill="rgb(68,68,68)" stroke="none" font-family="helvetica" font-size="11px" font-style="normal" font-weight="normal" text-decoration="normal" x="32.7646484375" y="68.85762786865234" text-anchor="start" dominant-baseline="alphabetic" transform="matrix(1, 0, 0, 1, 0.5, 0.5)" fill-opacity="1">10</text><text fill="rgb(68,68,68)" stroke="none" font-family="helvetica" font-size="11px" font-style="normal" font-weight="normal" text-decoration="normal" x="32.7646484375" y="39.973182678222656" text-anchor="start" dominant-baseline="alphabetic" transform="matrix(1, 0, 0, 1, 0.5, 0.5)" fill-opacity="1">20</text><text fill="rgb(68,68,68)" stroke="none" font-family="helvetica" font-size="13px" font-style="italic" font-weight="normal" text-decoration="normal" x="-9.119140625" y="124" text-anchor="start" dominant-baseline="alphabetic" transform="matrix(6.123233995736766e-17, -1, 1, 6.123233995736766e-17, -108.1591796875, 145.8408203125)" fill-opacity="1">Predicted</text><path fill="none" stroke="rgb(255,140,0)" paint-order="fill" d="M 211.2894583209523 27.5 L 90.26130988795853 227.5" stroke-opacity="1" stroke-linejoin="bevel" stroke-miterlimit="10" stroke-width="2" stroke-dasharray="" clip-path="url(#iBylilOPnhkV)"/><path fill="none" stroke="none"/><text fill="rgb(68,68,68)" stroke="none" font-family="helvetica" font-size="13px" font-style="normal" font-weight="bold" text-decoration="normal" x="0" y="0" text-anchor="start" dominant-baseline="text-after-edge" transform="matrix(1, 0, 0, 1, 56.5, 22.5)" fill-opacity="1">Latitude, &lt;R²&gt; = 0.43</text></svg>