<svg version="1.1" xmlns="http://www.w3.org/2000/svg" xmlns:xlink="http://www.w3.org/1999/xlink" width="257" height="272"><defs><clipPath id="dRFfEeLTxCnE"><path fill="none" stroke="none" d="M 52.5 27.5 L 252.5 27.5 L 252.5 227.5 L 52.5 227.5 L 52.5 27.5"/></clipPath><clipPath id="oTzpDByzcPqX"><path fill="none" stroke="none" d="M 52.5 27.5 L 252.5 27.5 L 252.5 227.5 L 52.5 227.5 L 52.5 27.5"/></clipPath><clipPath id="ZmCZOxCTLXbD"><path fill="none" stroke="none" d="M 52.5 27.5 L 252.5 27.5 L 252.5 227.5 L 52.5 227.5 L 52.5 27.5"/></clipPath><clipPath id="FpNgxoOyRoUZ"><path fill="none" stroke="none" d="M 52.5 27.5 L 252.5 27.5 L 252.5 227.5 L 52.5 227.5 L 52.5 27.5"/></clipPath><clipPath id="gpEdkLfWxAcP"><path fill="none" stroke="none" d="M 52.5 27.5 L 252.5 27.5 L 252.5 227.5 L 52.5 227.5 L 52.5 27.5"/></clipPath></defs><path fill="none" stroke="rgb(229,229,229)" paint-order="fill" d="M 52.5 27.5 L 252.5 27.5 L 252.5 227.5 L 52.5 227.5 L 52.5 27.5" stroke-opacity="1" stroke-linejoin="bevel" stroke-miterlimit="10" stroke-dasharray=""/><path fill="none" stroke="rgb(229,229,229)" paint-order="fill" d="M 61.5 227.5 L 61.5 27.5 M 87.5 227.5 L 87.5 27.5 M 114.5 227.5 L 114.5 27.5 M 140.5 227.5 L 140.5 27.5 M 166.5 227.5 L 166.5 27.5 M 193.5 227.5 L 193.5 27.5 M 219.5 227.5 L 219.5 27.5 M 246.5 227.5 L 246.5 27.5" stroke-opacity="1" stroke-linejoin="bevel" stroke-miterlimit="10" stroke-dasharray="" clip-path="url(#dRFfEeLTxCnE)"/><path fill="none" stroke="rgb(229,229,229)" paint-order="fill" d="M 52.5 221.5 L 252.5 221.5 M 52.5 196.5 L 252.5 196.5 M 52.5 171.5 L 252.5 171.5 M 52.5 145.5 L 252.5 145.5 M 52.5 120.5 L 252.5 120.5 M 52.5 95.5 L 252.5 95.5 M 52.5 69.5 L 252.5 69.5 M 52.5 44.5 L 252.5 44.5" stroke-opacity="1" stroke-linejoin="bevel" stroke-miterlimit="10" stroke-dasharray="" clip-path="url(#oTzpDByzcPqX)"/><path fill="none" stroke="none"/><path fill="rgb(31,119,180)" stroke="rgb(31,119,180)" paint-order="fill" d="M 66.22595596313477 212.25460815429688 A 2 2 0 1 1 66.22595496313485 212.2526081546302" fill-opacity="1" clip-path="url(#ZmCZOxCTLXbD)" stroke-opacity="1" stroke-linejoin="bevel" stroke-miterlimit="10" stroke-dasharray=""/><path fill="rgb(31,119,180)" stroke="rgb(31,119,180)" paint-order="fill" d="M 82.0362319946289 101.23579406738281 A 2 2 0 1 1 82.036230994629 101.23379406771615" fill-opacity="1" clip-path="url(#ZmCZOxCTLXbD)" stroke-opacity="1" stroke-linejoin="bevel" stroke-miterlimit="10" stroke-dasharray=""/><path fill="rgb(31,119,180)" stroke="rgb(31,119,180)" paint-order="fill" d="M 63.59090805053711 198.0967559814453 A 2 2 0 1 1 63.59090705053719 198.09475598177863" fill-opacity="1" clip-path="url(#ZmCZOxCTLXbD)" stroke-opacity="1" stroke-linejoin="bevel" stroke-miterlimit="10" stroke-dasharray=""/><path fill="rgb(31,119,180)" stroke="rgb(31,119,180)" paint-order="fill" d="M 92.576416015625 184.6278076171875 A 2 2 0 1 1 92.57641501562509 184.62580761752082" fill-opacity="1" clip-path="url(#ZmCZOxCTLXbD)" stroke-opacity="1" stroke-linejoin="bevel" stroke-miterlimit="10" stroke-dasharray=""/><path fill="rgb(31,119,180)" stroke="rgb(31,119,180)" paint-order="fill" d="M 63.59090805053711 217.24404907226562 A 2 2 0 1 1 63.59090705053719 217.24204907259895" fill-opacity="1" clip-path="url(#ZmCZOxCTLXbD)" stroke-opacity="1" stroke-linejoin="bevel" stroke-miterlimit="10" stroke-dasharray=""/><path fill="rgb(31,119,180)" stroke="rgb(31,119,180)" paint-order="fill" d="M 171.62779235839844 178.6151580810547 A 2 2 0 1 1 171.62779135839853 178.613158081388" fill-opacity="1" clip-path="url(#ZmCZOxCTLXbD)" stroke-opacity="1" stroke-linejoin="bevel" stroke-miterlimit="10" stroke-dasharray=""/><path fill="rgb(31,119,180)" stroke="rgb(31,119,180)" paint-order="fill" d="M 66.22595596313477 216.56527709960938 A 2 2 0 1 1 66.22595496313485 216.5632770999427" fill-opacity="1" clip-path="url(#ZmCZOxCTLXbD)" stroke-opacity="1" stroke-linejoin="bevel" stroke-miterlimit="10" stroke-dasharray=""/><path fill="rgb(31,119,180)" stroke="rgb(31,119,180)" paint-order="fill" d="M 129.4670639038086 170.3382568359375 A 2 2 0 1 1 129.46706290380868 170.33625683627082" fill-opacity="1" clip-path="url(#ZmCZOxCTLXbD)" stroke-opacity="1" stroke-linejoin="bevel" stroke-miterlimit="10" stroke-dasharray=""/><path fill="rgb(31,119,180)" stroke="rgb(31,119,180)" paint-order="fill" d="M 82.0362319946289 188.396484375 A 2 2 0 1 1 82.036230994629 188.39448437533332" fill-opacity="1" clip-path="url(#ZmCZOxCTLXbD)" stroke-opacity="1" stroke-linejoin="bevel" stroke-miterlimit="10" stroke-dasharray=""/><path fill="rgb(31,119,180)" stroke="rgb(31,119,180)" paint-order="fill" d="M 245.40908813476562 36.59090805053711 A 2 2 0 1 1 245.4090871347657 36.588908050870444" fill-opacity="1" clip-path="url(#ZmCZOxCTLXbD)" stroke-opacity="1" stroke-linejoin="bevel" stroke-miterlimit="10" stroke-dasharray=""/><path fill="rgb(31,119,180)" stroke="rgb(31,119,180)" paint-order="fill" d="M 113.65678405761719 185.87896728515625 A 2 2 0 1 1 113.65678305761728 185.87696728548957" fill-opacity="1" clip-path="url(#ZmCZOxCTLXbD)" stroke-opacity="1" stroke-linejoin="bevel" stroke-miterlimit="10" stroke-dasharray=""/><path fill="rgb(31,119,180)" stroke="rgb(31,119,180)" paint-order="fill" d="M 100.48155212402344 197.681396484375 A 2 2 0 1 1 100.48155112402353 197.67939648470832" fill-opacity="1" clip-path="url(#ZmCZOxCTLXbD)" stroke-opacity="1" stroke-linejoin="bevel" stroke-miterlimit="10" stroke-dasharray=""/><path fill="rgb(31,119,180)" stroke="rgb(31,119,180)" paint-order="fill" d="M 63.59090805053711 193.3757781982422 A 2 2 0 1 1 63.59090705053719 193.3737781985755" fill-opacity="1" clip-path="url(#ZmCZOxCTLXbD)" stroke-opacity="1" stroke-linejoin="bevel" stroke-miterlimit="10" stroke-dasharray=""/><path fill="rgb(31,119,180)" stroke="rgb(31,119,180)" paint-order="fill" d="M 74.13109588623047 187.5150909423828 A 2 2 0 1 1 74.13109488623056 187.51309094271613" fill-opacity="1" clip-path="url(#ZmCZOxCTLXbD)" stroke-opacity="1" stroke-linejoin="bevel" stroke-miterlimit="10" stroke-dasharray=""/><path fill="rgb(31,119,180)" stroke="rgb(31,119,180)" paint-order="fill" d="M 68.86100006103516 163.16561889648438 A 2 2 0 1 1 68.86099906103524 163.1636188968177" fill-opacity="1" clip-path="url(#ZmCZOxCTLXbD)" stroke-opacity="1" stroke-linejoin="bevel" stroke-miterlimit="10" stroke-dasharray=""/><path fill="rgb(31,119,180)" stroke="rgb(31,119,180)" paint-order="fill" d="M 66.22595596313477 193.7860870361328 A 2 2 0 1 1 66.22595496313485 193.78408703646613" fill-opacity="1" clip-path="url(#ZmCZOxCTLXbD)" stroke-opacity="1" stroke-linejoin="bevel" stroke-miterlimit="10" stroke-dasharray=""/><path fill="rgb(31,119,180)" stroke="rgb(31,119,180)" paint-order="fill" d="M 63.59090805053711 199.20101928710938 A 2 2 0 1 1 63.59090705053719 199.1990192874427" fill-opacity="1" clip-path="url(#ZmCZOxCTLXbD)" stroke-opacity="1" stroke-linejoin="bevel" stroke-miterlimit="10" stroke-dasharray=""/><path fill="rgb(31,119,180)" stroke="rgb(31,119,180)" paint-order="fill" d="M 161.08761596679688 190.0478057861328 A 2 2 0 1 1 161.08761496679696 190.04580578646613" fill-opacity="1" clip-path="url(#ZmCZOxCTLXbD)" stroke-opacity="1" stroke-linejoin="bevel" stroke-miterlimit="10" stroke-dasharray=""/><path fill="rgb(31,119,180)" stroke="rgb(31,119,180)" paint-order="fill" d="M 66.22595596313477 218.40908813476562 A 2 2 0 1 1 66.22595496313485 218.40708813509895" fill-opacity="1" clip-path="url(#ZmCZOxCTLXbD)" stroke-opacity="1" stroke-linejoin="bevel" stroke-miterlimit="10" stroke-dasharray=""/><path fill="rgb(31,119,180)" stroke="rgb(31,119,180)" paint-order="fill" d="M 137.37220764160156 143.87649536132812 A 2 2 0 1 1 137.37220664160165 143.87449536166145" fill-opacity="1" clip-path="url(#ZmCZOxCTLXbD)" stroke-opacity="1" stroke-linejoin="bevel" stroke-miterlimit="10" stroke-dasharray=""/><path fill="none" stroke="rgb(0,0,0)" paint-order="fill" d="M 52.5 227.5 L 252.5 227.5" stroke-opacity="1" stroke-linejoin="bevel" stroke-miterlimit="10" stroke-dasharray=""/><path fill="none" stroke="rgb(0,0,0)" paint-order="fill" d="M 61.5 233.5 L 61.5 225.5 M 87.5 233.5 L 87.5 225.5 M 114.5 233.5 L 114.5 225.5 M 140.5 233.5 L 140.5 225.5 M 166.5 233.5 L 166.5 225.5 M 193.5 233.5 L 193.5 225.5 M 219.5 233.5 L 219.5 225.5 M 246.5 233.5 L 246.5 225.5" stroke-opacity="1" stroke-linejoin="bevel" stroke-miterlimit="10" stroke-dasharray=""/><path fill="none" stroke="rgb(0,0,0)" paint-order="fill" d="M 56.5 231.5 L 56.5 227.5 M 61.5 231.5 L 61.5 227.5 M 66.5 231.5 L 66.5 227.5 M 72.5 231.5 L 72.5 227.5 M 77.5 231.5 L 77.5 227.5 M 82.5 231.5 L 82.5 227.5 M 87.5 231.5 L 87.5 227.5 M 93.5 231.5 L 93.5 227.5 M 98.5 231.5 L 98.5 227.5 M 103.5 231.5 L 103.5 227.5 M 109.5 231.5 L 109.5 227.5 M 114.5 231.5 L 114.5 227.5 M 119.5 231.5 L 119.5 227.5 M 124.5 231.5 L 124.5 227.5 M 130.5 231.5 L 130.5 227.5 M 135.5 231.5 L 135.5 227.5 M 140.5 231.5 L 140.5 227.5 M 145.5 231.5 L 145.5 227.5 M 151.5 231.5 L 151.5 227.5 M 156.5 231.5 L 156.5 227.5 M 161.5 231.5 L 161.5 227.5 M 166.5 231.5 L 166.5 227.5 M 172.5 231.5 L 172.5 227.5 M 177.5 231.5 L 177.5 227.5 M 182.5 231.5 L 182.5 227.5 M 188.5 231.5 L 188.5 227.5 M 193.5 231.5 L 193.5 227.5 M 198.5 231.5 L 198.5 227.5 M 203.5 231.5 L 203.5 227.5 M 209.5 231.5 L 209.5 227.5 M 214.5 231.5 L 214.5 227.5 M 219.5 231.5 L 219.5 227.5 M 224.5 231.5 L 224.5 227.5 M 230.5 231.5 L 230.5 227.5 M 235.5 231.5 L 235.5 227.5 M 240.5 231.5 L 240.5 227.5 M 246.5 231.5 L 246.5 227.5 M 251.5 231.5 L 251.5 227.5" stroke-opacity="1" stroke-linejoin="bevel" stroke-miterlimit="10" stroke-dasharray=""/><text fill="rgb(68,68,68)" stroke="none" font-family="helvetica" font-size="11px" font-style="normal" font-weight="normal" text-decoration="normal" x="58.03207015991211" y="245.89013671875" text-anchor="start" dominant-baseline="alphabetic" transform="matrix(1, 0, 0, 1, 0.5, 0.5)" fill-opacity="1">0</text><text fill="rgb(68,68,68)" stroke="none" font-family="helvetica" font-size="11px" font-style="normal" font-weight="normal" text-decoration="normal" x="79.79561614990234" y="245.89013671875" text-anchor="start" dominant-baseline="alphabetic" transform="matrix(1, 0, 0, 1, 0.5, 0.5)" fill-opacity="1">0.1</text><text fill="rgb(68,68,68)" stroke="none" font-family="helvetica" font-size="11px" font-style="normal" font-weight="normal" text-decoration="normal" x="106.14608001708984" y="245.89013671875" text-anchor="start" dominant-baseline="alphabetic" transform="matrix(1, 0, 0, 1, 0.5, 0.5)" fill-opacity="1">0.2</text><text fill="rgb(68,68,68)" stroke="none" font-family="helvetica" font-size="11px" font-style="normal" font-weight="normal" text-decoration="normal" x="132.4965362548828" y="245.89013671875" text-anchor="start" dominant-baseline="alphabetic" transform="matrix(1, 0, 0, 1, 0.5, 0.5)" fill-opacity="1">0.3</text><text fill="rgb(68,68,68)" stroke="none" font-family="helvetica" font-size="11px" font-style="normal" font-weight="normal" text-decoration="normal" x="158.8470001220703" y="245.89013671875" text-anchor="start" dominant-baseline="alphabetic" transform="matrix(1, 0, 0, 1, 0.5, 0.5)" fill-opacity="1">0.4</text><text fill="rgb(68,68,68)" stroke="none" font-family="helvetica" font-size="11px" font-style="normal" font-weight="normal" text-decoration="normal" x="185.1974639892578" y="245.89013671875" text-anchor="start" dominant-baseline="alphabetic" transform="matrix(1, 0, 0, 1, 0.5, 0.5)" fill-opacity="1">0.5</text><text fill="rgb(68,68,68)" stroke="none" font-family="helvetica" font-size="11px" font-style="normal" font-weight="normal" text-decoration="normal" x="211.5479278564453" y="245.89013671875" text-anchor="start" dominant-baseline="alphabetic" transform="matrix(1, 0, 0, 1, 0.5, 0.5)" fill-opacity="1">0.6</text><text fill="rgb(68,68,68)" stroke="none" font-family="helvetica" font-size="11px" font-style="normal" font-weight="normal" text-decoration="normal" x="237.8983917236328" y="245.89013671875" text-anchor="start" dominant-baseline="alphabetic" transform="matrix(1, 0, 0, 1, 0.5, 0.5)" fill-opacity="1">0.7</text><text fill="rgb(68,68,68)" stroke="none" font-family="helvetica" font-size="13px" font-style="italic" font-weight="normal" text-decoration="normal" x="123.819580078125" y="265.89013671875" text-anchor="start" dominant-baseline="alphabetic" transform="matrix(1, 0, 0, 1, 0.5, 0.5)" fill-opacity="1">Observed</text><path fill="none" stroke="rgb(0,0,0)" paint-order="fill" d="M 52.5 227.5 L 52.5 27.5" stroke-opacity="1" stroke-linejoin="bevel" stroke-miterlimit="10" stroke-dasharray=""/><path fill="none" stroke="rgb(0,0,0)" paint-order="fill" d="M 46.5 221.5 L 54.5 221.5 M 46.5 196.5 L 54.5 196.5 M 46.5 171.5 L 54.5 171.5 M 46.5 145.5 L 54.5 145.5 M 46.5 120.5 L 54.5 120.5 M 46.5 95.5 L 54.5 95.5 M 46.5 69.5 L 54.5 69.5 M 46.5 44.5 L 54.5 44.5" stroke-opacity="1" stroke-linejoin="bevel" stroke-miterlimit="10" stroke-dasharray=""/><path fill="none" stroke="rgb(0,0,0)" paint-order="fill" d="M 48.5 226.5 L 52.5 226.5 M 48.5 221.5 L 52.5 221.5 M 48.5 216.5 L 52.5 216.5 M 48.5 211.5 L 52.5 211.5 M 48.5 206.5 L 52.5 206.5 M 48.5 201.5 L 52.5 201.5 M 48.5 196.5 L 52.5 196.5 M 48.5 191.5 L 52.5 191.5 M 48.5 186.5 L 52.5 186.5 M 48.5 181.5 L 52.5 181.5 M 48.5 176.5 L 52.5 176.5 M 48.5 171.5 L 52.5 171.5 M 48.5 166.5 L 52.5 166.5 M 48.5 160.5 L 52.5 160.5 M 48.5 155.5 L 52.5 155.5 M 48.5 150.5 L 52.5 150.5 M 48.5 145.5 L 52.5 145.5 M 48.5 140.5 L 52.5 140.5 M 48.5 135.5 L 52.5 135.5 M 48.5 130.5 L 52.5 130.5 M 48.5 125.5 L 52.5 125.5 M 48.5 120.5 L 52.5 120.5 M 48.5 115.5 L 52.5 115.5 M 48.5 110.5 L 52.5 110.5 M 48.5 105.5 L 52.5 105.5 M 48.5 100.5 L 52.5 100.5 M 48.5 95.5 L 52.5 95.5 M 48.5 90.5 L 52.5 90.5 M 48.5 85.5 L 52.5 85.5 M 48.5 79.5 L 52.5 79.5 M 48.5 74.5 L 52.5 74.5 M 48.5 69.5 L 52.5 69.5 M 48.5 64.5 L 52.5 64.5 M 48.5 59.5 L 52.5 59.5 M 48.5 54.5 L 52.5 54.5 M 48.5 49.5 L 52.5 49.5 M 48.5 44.5 L 52.5 44.5 M 48.5 39.5 L 52.5 39.5 M 48.5 34.5 L 52.5 34.5 M 48.5 29.5 L 52.5 29.5" stroke-opacity="1" stroke-linejoin="bevel" stroke-miterlimit="10" stroke-dasharray=""/><text fill="rgb(68,68,68)" stroke="none" font-family="helvetica" font-size="11px" font-style="normal" font-weight="normal" text-decoration="normal" x="34.88232421875" y="225.22772216796875" text-anchor="start" dominant-baseline="alphabetic" transform="matrix(1, 0, 0, 1, 0.5, 0.5)" fill-opacity="1">0</text><text fill="rgb(68,68,68)" stroke="none" font-family="helvetica" font-size="11px" font-style="normal" font-weight="normal" text-decoration="normal" x="25.70849609375" y="199.900634765625" text-anchor="start" dominant-baseline="alphabetic" transform="matrix(1, 0, 0, 1, 0.5, 0.5)" fill-opacity="1">0.1</text><text fill="rgb(68,68,68)" stroke="none" font-family="helvetica" font-size="11px" font-style="normal" font-weight="normal" text-decoration="normal" x="25.70849609375" y="174.5735321044922" text-anchor="start" dominant-baseline="alphabetic" transform="matrix(1, 0, 0, 1, 0.5, 0.5)" fill-opacity="1">0.2</text><text fill="rgb(68,68,68)" stroke="none" font-family="helvetica" font-size="11px" font-style="normal" font-weight="normal" text-decoration="normal" x="25.70849609375" y="149.24642944335938" text-anchor="start" dominant-baseline="alphabetic" transform="matrix(1, 0, 0, 1, 0.5, 0.5)" fill-opacity="1">0.3</text><text fill="rgb(68,68,68)" stroke="none" font-family="helvetica" font-size="11px" font-style="normal" font-weight="normal" text-decoration="normal" x="25.70849609375" y="123.9193344116211" text-anchor="start" dominant-baseline="alphabetic" transform="matrix(1, 0, 0, 1, 0.5, 0.5)" fill-opacity="1">0.4</text><text fill="rgb(68,68,68)" stroke="none" font-family="helvetica" font-size="11px" font-style="normal" font-weight="normal" text-decoration="normal" x="25.70849609375" y="98.59223175048828" text-anchor="start" dominant-baseline="alphabetic" transform="matrix(1, 0, 0, 1, 0.5, 0.5)" fill-opacity="1">0.5</text><text fill="rgb(68,68,68)" stroke="none" font-family="helvetica" font-size="11px" font-style="normal" font-weight="normal" text-decoration="normal" x="25.70849609375" y="73.26512908935547" text-anchor="start" dominant-baseline="alphabetic" transform="matrix(1, 0, 0, 1, 0.5, 0.5)" fill-opacity="1">0.6</text><text fill="rgb(68,68,68)" stroke="none" font-family="helvetica" font-size="11px" font-style="normal" font-weight="normal" text-decoration="normal" x="25.70849609375" y="47.93803405761719" text-anchor="start" dominant-baseline="alphabetic" transform="matrix(1, 0, 0, 1, 0.5, 0.5)" fill-opacity="1">0.7</text><text fill="rgb(68,68,68)" stroke="none" font-family="helvetica" font-size="13px" font-style="italic" font-weight="normal" text-decoration="normal" x="-9.75146484375" y="124" text-anchor="start" dominant-baseline="alphabetic" transform="matrix(6.123233995736766e-17, -1, 1, 6.123233995736766e-17, -108.79150390625, 145.20849609375)" fill-opacity="1">Predicted</text><path fill="none" stroke="rgb(255,140,0)" paint-order="fill" d="M 263.7237154150192 27.5 L 55.64255599472994 227.5" stroke-opacity="1" stroke-linejoin="bevel" stroke-miterlimit="10" stroke-width="2" stroke-dasharray="" clip-path="url(#FpNgxoOyRoUZ)"/><path fill="none" stroke="none"/><text fill="rgb(68,68,68)" stroke="none" font-family="helvetica" font-size="13px" font-style="normal" font-weight="bold" text-decoration="normal" x="0" y="0" text-anchor="start" dominant-baseline="text-after-edge" transform="matrix(1, 0, 0, 1, 52.5, 22.5)" fill-opacity="1">NO2 (µmol/L), &lt;R²&gt; = -0.25</text></svg>