<svg version="1.1" xmlns="http://www.w3.org/2000/svg" xmlns:xlink="http://www.w3.org/1999/xlink" width="257" height="272"><defs><clipPath id="snoydbsSOZuo"><path fill="none" stroke="none" d="M 52.5 27.5 L 252.5 27.5 L 252.5 227.5 L 52.5 227.5 L 52.5 27.5"/></clipPath><clipPath id="lfICoysQupLx"><path fill="none" stroke="none" d="M 52.5 27.5 L 252.5 27.5 L 252.5 227.5 L 52.5 227.5 L 52.5 27.5"/></clipPath><clipPath id="ewVLDpXEmEci"><path fill="none" stroke="none" d="M 52.5 27.5 L 252.5 27.5 L 252.5 227.5 L 52.5 227.5 L 52.5 27.5"/></clipPath><clipPath id="PBwAmSIdMeew"><path fill="none" stroke="none" d="M 52.5 27.5 L 252.5 27.5 L 252.5 227.5 L 52.5 227.5 L 52.5 27.5"/></clipPath><clipPath id="aVRXsrXVuzZT"><path fill="none" stroke="none" d="M 52.5 27.5 L 252.5 27.5 L 252.5 227.5 L 52.5 227.5 L 52.5 27.5"/></clipPath></defs><path fill="none" stroke="rgb(229,229,229)" paint-order="fill" d="M 52.5 27.5 L 252.5 27.5 L 252.5 227.5 L 52.5 227.5 L 52.5 27.5" stroke-opacity="1" stroke-linejoin="bevel" stroke-miterlimit="10" stroke-dasharray=""/><path fill="none" stroke="rgb(229,229,229)" paint-order="fill" d="M 61.5 227.5 L 61.5 27.5 M 100.5 227.5 L 100.5 27.5 M 140.5 227.5 L 140.5 27.5 M 179.5 227.5 L 179.5 27.5 M 219.5 227.5 L 219.5 27.5" stroke-opacity="1" stroke-linejoin="bevel" stroke-miterlimit="10" stroke-dasharray="" clip-path="url(#snoydbsSOZuo)"/><path fill="none" stroke="rgb(229,229,229)" paint-order="fill" d="M 52.5 223.5 L 252.5 223.5 M 52.5 169.5 L 252.5 169.5 M 52.5 115.5 L 252.5 115.5 M 52.5 61.5 L 252.5 61.5" stroke-opacity="1" stroke-linejoin="bevel" stroke-miterlimit="10" stroke-dasharray="" clip-path="url(#lfICoysQupLx)"/><path fill="none" stroke="none"/><path fill="rgb(31,119,180)" stroke="rgb(31,119,180)" paint-order="fill" d="M 76.97146606445312 183.873046875 A 2 2 0 1 1 76.97146506445321 183.87104687533332" fill-opacity="1" clip-path="url(#ewVLDpXEmEci)" stroke-opacity="1" stroke-linejoin="bevel" stroke-miterlimit="10" stroke-dasharray=""/><path fill="rgb(31,119,180)" stroke="rgb(31,119,180)" paint-order="fill" d="M 63.59090805053711 212.69192504882812 A 2 2 0 1 1 63.59090705053719 212.68992504916145" fill-opacity="1" clip-path="url(#ewVLDpXEmEci)" stroke-opacity="1" stroke-linejoin="bevel" stroke-miterlimit="10" stroke-dasharray=""/><path fill="rgb(31,119,180)" stroke="rgb(31,119,180)" paint-order="fill" d="M 124.98406219482422 171.93154907226562 A 2 2 0 1 1 124.9840611948243 171.92954907259895" fill-opacity="1" clip-path="url(#ewVLDpXEmEci)" stroke-opacity="1" stroke-linejoin="bevel" stroke-miterlimit="10" stroke-dasharray=""/><path fill="rgb(31,119,180)" stroke="rgb(31,119,180)" paint-order="fill" d="M 245.40908813476562 36.59090805053711 A 2 2 0 1 1 245.4090871347657 36.588908050870444" fill-opacity="1" clip-path="url(#ewVLDpXEmEci)" stroke-opacity="1" stroke-linejoin="bevel" stroke-miterlimit="10" stroke-dasharray=""/><path fill="rgb(31,119,180)" stroke="rgb(31,119,180)" paint-order="fill" d="M 105.30677032470703 128.86184692382812 A 2 2 0 1 1 105.30676932470712 128.85984692416145" fill-opacity="1" clip-path="url(#ewVLDpXEmEci)" stroke-opacity="1" stroke-linejoin="bevel" stroke-miterlimit="10" stroke-dasharray=""/><path fill="rgb(31,119,180)" stroke="rgb(31,119,180)" paint-order="fill" d="M 92.71330261230469 159.37493896484375 A 2 2 0 1 1 92.71330161230478 159.37293896517707" fill-opacity="1" clip-path="url(#ewVLDpXEmEci)" stroke-opacity="1" stroke-linejoin="bevel" stroke-miterlimit="10" stroke-dasharray=""/><path fill="rgb(31,119,180)" stroke="rgb(31,119,180)" paint-order="fill" d="M 69.88764190673828 197.83680725097656 A 2 2 0 1 1 69.88764090673837 197.83480725130988" fill-opacity="1" clip-path="url(#ewVLDpXEmEci)" stroke-opacity="1" stroke-linejoin="bevel" stroke-miterlimit="10" stroke-dasharray=""/><path fill="rgb(31,119,180)" stroke="rgb(31,119,180)" paint-order="fill" d="M 147.80972290039062 128.7755126953125 A 2 2 0 1 1 147.8097219003907 128.77351269564582" fill-opacity="1" clip-path="url(#ewVLDpXEmEci)" stroke-opacity="1" stroke-linejoin="bevel" stroke-miterlimit="10" stroke-dasharray=""/><path fill="rgb(31,119,180)" stroke="rgb(31,119,180)" paint-order="fill" d="M 107.66804504394531 165.49569702148438 A 2 2 0 1 1 107.6680440439454 165.4936970218177" fill-opacity="1" clip-path="url(#ewVLDpXEmEci)" stroke-opacity="1" stroke-linejoin="bevel" stroke-miterlimit="10" stroke-dasharray=""/><path fill="rgb(31,119,180)" stroke="rgb(31,119,180)" paint-order="fill" d="M 79.3327407836914 200.05763244628906 A 2 2 0 1 1 79.3327397836915 200.05563244662238" fill-opacity="1" clip-path="url(#ewVLDpXEmEci)" stroke-opacity="1" stroke-linejoin="bevel" stroke-miterlimit="10" stroke-dasharray=""/><path fill="rgb(31,119,180)" stroke="rgb(31,119,180)" paint-order="fill" d="M 77.75856018066406 201.58351135253906 A 2 2 0 1 1 77.75855918066415 201.58151135287238" fill-opacity="1" clip-path="url(#ewVLDpXEmEci)" stroke-opacity="1" stroke-linejoin="bevel" stroke-miterlimit="10" stroke-dasharray=""/><path fill="rgb(31,119,180)" stroke="rgb(31,119,180)" paint-order="fill" d="M 68.31346130371094 202.44679260253906 A 2 2 0 1 1 68.31346030371103 202.44479260287238" fill-opacity="1" clip-path="url(#ewVLDpXEmEci)" stroke-opacity="1" stroke-linejoin="bevel" stroke-miterlimit="10" stroke-dasharray=""/><path fill="rgb(31,119,180)" stroke="rgb(31,119,180)" paint-order="fill" d="M 106.88095092773438 148.94204711914062 A 2 2 0 1 1 106.88094992773446 148.94004711947395" fill-opacity="1" clip-path="url(#ewVLDpXEmEci)" stroke-opacity="1" stroke-linejoin="bevel" stroke-miterlimit="10" stroke-dasharray=""/><path fill="rgb(31,119,180)" stroke="rgb(31,119,180)" paint-order="fill" d="M 71.46182250976562 199.9950408935547 A 2 2 0 1 1 71.46182150976571 199.993040893888" fill-opacity="1" clip-path="url(#ewVLDpXEmEci)" stroke-opacity="1" stroke-linejoin="bevel" stroke-miterlimit="10" stroke-dasharray=""/><path fill="rgb(31,119,180)" stroke="rgb(31,119,180)" paint-order="fill" d="M 63.59090805053711 211.28260803222656 A 2 2 0 1 1 63.59090705053719 211.28060803255988" fill-opacity="1" clip-path="url(#ewVLDpXEmEci)" stroke-opacity="1" stroke-linejoin="bevel" stroke-miterlimit="10" stroke-dasharray=""/><path fill="rgb(31,119,180)" stroke="rgb(31,119,180)" paint-order="fill" d="M 232.8156280517578 50.546043395996094 A 2 2 0 1 1 232.8156270517579 50.54404339632943" fill-opacity="1" clip-path="url(#ewVLDpXEmEci)" stroke-opacity="1" stroke-linejoin="bevel" stroke-miterlimit="10" stroke-dasharray=""/><path fill="rgb(31,119,180)" stroke="rgb(31,119,180)" paint-order="fill" d="M 103.73258209228516 184.59390258789062 A 2 2 0 1 1 103.73258109228524 184.59190258822395" fill-opacity="1" clip-path="url(#ewVLDpXEmEci)" stroke-opacity="1" stroke-linejoin="bevel" stroke-miterlimit="10" stroke-dasharray=""/><path fill="rgb(31,119,180)" stroke="rgb(31,119,180)" paint-order="fill" d="M 63.59090805053711 211.640869140625 A 2 2 0 1 1 63.59090705053719 211.63886914095832" fill-opacity="1" clip-path="url(#ewVLDpXEmEci)" stroke-opacity="1" stroke-linejoin="bevel" stroke-miterlimit="10" stroke-dasharray=""/><path fill="rgb(31,119,180)" stroke="rgb(31,119,180)" paint-order="fill" d="M 63.59090805053711 218.40908813476562 A 2 2 0 1 1 63.59090705053719 218.40708813509895" fill-opacity="1" clip-path="url(#ewVLDpXEmEci)" stroke-opacity="1" stroke-linejoin="bevel" stroke-miterlimit="10" stroke-dasharray=""/><path fill="rgb(31,119,180)" stroke="rgb(31,119,180)" paint-order="fill" d="M 115.5389633178711 172.3826141357422 A 2 2 0 1 1 115.53896231787118 172.3806141360755" fill-opacity="1" clip-path="url(#ewVLDpXEmEci)" stroke-opacity="1" stroke-linejoin="bevel" stroke-miterlimit="10" stroke-dasharray=""/><path fill="none" stroke="rgb(0,0,0)" paint-order="fill" d="M 52.5 227.5 L 252.5 227.5" stroke-opacity="1" stroke-linejoin="bevel" stroke-miterlimit="10" stroke-dasharray=""/><path fill="none" stroke="rgb(0,0,0)" paint-order="fill" d="M 61.5 233.5 L 61.5 225.5 M 100.5 233.5 L 100.5 225.5 M 140.5 233.5 L 140.5 225.5 M 179.5 233.5 L 179.5 225.5 M 219.5 233.5 L 219.5 225.5" stroke-opacity="1" stroke-linejoin="bevel" stroke-miterlimit="10" stroke-dasharray=""/><path fill="none" stroke="rgb(0,0,0)" paint-order="fill" d="M 53.5 231.5 L 53.5 227.5 M 61.5 231.5 L 61.5 227.5 M 69.5 231.5 L 69.5 227.5 M 77.5 231.5 L 77.5 227.5 M 85.5 231.5 L 85.5 227.5 M 93.5 231.5 L 93.5 227.5 M 100.5 231.5 L 100.5 227.5 M 108.5 231.5 L 108.5 227.5 M 116.5 231.5 L 116.5 227.5 M 124.5 231.5 L 124.5 227.5 M 132.5 231.5 L 132.5 227.5 M 140.5 231.5 L 140.5 227.5 M 148.5 231.5 L 148.5 227.5 M 156.5 231.5 L 156.5 227.5 M 163.5 231.5 L 163.5 227.5 M 171.5 231.5 L 171.5 227.5 M 179.5 231.5 L 179.5 227.5 M 187.5 231.5 L 187.5 227.5 M 195.5 231.5 L 195.5 227.5 M 203.5 231.5 L 203.5 227.5 M 211.5 231.5 L 211.5 227.5 M 219.5 231.5 L 219.5 227.5 M 226.5 231.5 L 226.5 227.5 M 234.5 231.5 L 234.5 227.5 M 242.5 231.5 L 242.5 227.5 M 250.5 231.5 L 250.5 227.5" stroke-opacity="1" stroke-linejoin="bevel" stroke-miterlimit="10" stroke-dasharray=""/><text fill="rgb(68,68,68)" stroke="none" font-family="helvetica" font-size="11px" font-style="normal" font-weight="normal" text-decoration="normal" x="58.03207015991211" y="245.89013671875" text-anchor="start" dominant-baseline="alphabetic" transform="matrix(1, 0, 0, 1, 0.5, 0.5)" fill-opacity="1">0</text><text fill="rgb(68,68,68)" stroke="none" font-family="helvetica" font-size="11px" font-style="normal" font-weight="normal" text-decoration="normal" x="92.79974365234375" y="245.89013671875" text-anchor="start" dominant-baseline="alphabetic" transform="matrix(1, 0, 0, 1, 0.5, 0.5)" fill-opacity="1">0.5</text><text fill="rgb(68,68,68)" stroke="none" font-family="helvetica" font-size="11px" font-style="normal" font-weight="normal" text-decoration="normal" x="136.74124145507812" y="245.89013671875" text-anchor="start" dominant-baseline="alphabetic" transform="matrix(1, 0, 0, 1, 0.5, 0.5)" fill-opacity="1">1</text><text fill="rgb(68,68,68)" stroke="none" font-family="helvetica" font-size="11px" font-style="normal" font-weight="normal" text-decoration="normal" x="171.5089111328125" y="245.89013671875" text-anchor="start" dominant-baseline="alphabetic" transform="matrix(1, 0, 0, 1, 0.5, 0.5)" fill-opacity="1">1.5</text><text fill="rgb(68,68,68)" stroke="none" font-family="helvetica" font-size="11px" font-style="normal" font-weight="normal" text-decoration="normal" x="215.45040893554688" y="245.89013671875" text-anchor="start" dominant-baseline="alphabetic" transform="matrix(1, 0, 0, 1, 0.5, 0.5)" fill-opacity="1">2</text><text fill="rgb(68,68,68)" stroke="none" font-family="helvetica" font-size="13px" font-style="italic" font-weight="normal" text-decoration="normal" x="123.819580078125" y="265.89013671875" text-anchor="start" dominant-baseline="alphabetic" transform="matrix(1, 0, 0, 1, 0.5, 0.5)" fill-opacity="1">Observed</text><path fill="none" stroke="rgb(0,0,0)" paint-order="fill" d="M 52.5 227.5 L 52.5 27.5" stroke-opacity="1" stroke-linejoin="bevel" stroke-miterlimit="10" stroke-dasharray=""/><path fill="none" stroke="rgb(0,0,0)" paint-order="fill" d="M 46.5 223.5 L 54.5 223.5 M 46.5 169.5 L 54.5 169.5 M 46.5 115.5 L 54.5 115.5 M 46.5 61.5 L 54.5 61.5" stroke-opacity="1" stroke-linejoin="bevel" stroke-miterlimit="10" stroke-dasharray=""/><path fill="none" stroke="rgb(0,0,0)" paint-order="fill" d="M 48.5 223.5 L 52.5 223.5 M 48.5 212.5 L 52.5 212.5 M 48.5 202.5 L 52.5 202.5 M 48.5 191.5 L 52.5 191.5 M 48.5 180.5 L 52.5 180.5 M 48.5 169.5 L 52.5 169.5 M 48.5 158.5 L 52.5 158.5 M 48.5 148.5 L 52.5 148.5 M 48.5 137.5 L 52.5 137.5 M 48.5 126.5 L 52.5 126.5 M 48.5 115.5 L 52.5 115.5 M 48.5 105.5 L 52.5 105.5 M 48.5 94.5 L 52.5 94.5 M 48.5 83.5 L 52.5 83.5 M 48.5 72.5 L 52.5 72.5 M 48.5 61.5 L 52.5 61.5 M 48.5 51.5 L 52.5 51.5 M 48.5 40.5 L 52.5 40.5 M 48.5 29.5 L 52.5 29.5" stroke-opacity="1" stroke-linejoin="bevel" stroke-miterlimit="10" stroke-dasharray=""/><text fill="rgb(68,68,68)" stroke="none" font-family="helvetica" font-size="11px" font-style="normal" font-weight="normal" text-decoration="normal" x="34.88232421875" y="227.18931579589844" text-anchor="start" dominant-baseline="alphabetic" transform="matrix(1, 0, 0, 1, 0.5, 0.5)" fill-opacity="1">0</text><text fill="rgb(68,68,68)" stroke="none" font-family="helvetica" font-size="11px" font-style="normal" font-weight="normal" text-decoration="normal" x="25.70849609375" y="173.23348999023438" text-anchor="start" dominant-baseline="alphabetic" transform="matrix(1, 0, 0, 1, 0.5, 0.5)" fill-opacity="1">0.5</text><text fill="rgb(68,68,68)" stroke="none" font-family="helvetica" font-size="11px" font-style="normal" font-weight="normal" text-decoration="normal" x="34.88232421875" y="119.27766418457031" text-anchor="start" dominant-baseline="alphabetic" transform="matrix(1, 0, 0, 1, 0.5, 0.5)" fill-opacity="1">1</text><text fill="rgb(68,68,68)" stroke="none" font-family="helvetica" font-size="11px" font-style="normal" font-weight="normal" text-decoration="normal" x="25.70849609375" y="65.32183456420898" text-anchor="start" dominant-baseline="alphabetic" transform="matrix(1, 0, 0, 1, 0.5, 0.5)" fill-opacity="1">1.5</text><text fill="rgb(68,68,68)" stroke="none" font-family="helvetica" font-size="13px" font-style="italic" font-weight="normal" text-decoration="normal" x="-9.75146484375" y="124" text-anchor="start" dominant-baseline="alphabetic" transform="matrix(6.123233995736766e-17, -1, 1, 6.123233995736766e-17, -108.79150390625, 145.20849609375)" fill-opacity="1">Predicted</text><path fill="none" stroke="rgb(255,140,0)" paint-order="fill" d="M 204.72857142857183 27.5 L 58.851515151515144 227.5" stroke-opacity="1" stroke-linejoin="bevel" stroke-miterlimit="10" stroke-width="2" stroke-dasharray="" clip-path="url(#PBwAmSIdMeew)"/><path fill="none" stroke="none"/><text fill="rgb(68,68,68)" stroke="none" font-family="helvetica" font-size="13px" font-style="normal" font-weight="bold" text-decoration="normal" x="0" y="0" text-anchor="start" dominant-baseline="text-after-edge" transform="matrix(1, 0, 0, 1, 52.5, 22.5)" fill-opacity="1">PO4 (µmol/L), &lt;R²&gt; = 0.68</text></svg>