<svg version="1.1" xmlns="http://www.w3.org/2000/svg" xmlns:xlink="http://www.w3.org/1999/xlink" width="267" height="272"><defs><clipPath id="RGDPvbKUOxAU"><path fill="none" stroke="none" d="M 62.5 27.5 L 262.5 27.5 L 262.5 227.5 L 62.5 227.5 L 62.5 27.5"/></clipPath><clipPath id="QMnBzlKifnCN"><path fill="none" stroke="none" d="M 62.5 27.5 L 262.5 27.5 L 262.5 227.5 L 62.5 227.5 L 62.5 27.5"/></clipPath><clipPath id="KQoahEznKtkG"><path fill="none" stroke="none" d="M 62.5 27.5 L 262.5 27.5 L 262.5 227.5 L 62.5 227.5 L 62.5 27.5"/></clipPath><clipPath id="OGvIMAWtfRmX"><path fill="none" stroke="none" d="M 62.5 27.5 L 262.5 27.5 L 262.5 227.5 L 62.5 227.5 L 62.5 27.5"/></clipPath><clipPath id="xyzTQAsQUAJU"><path fill="none" stroke="none" d="M 62.5 27.5 L 262.5 27.5 L 262.5 227.5 L 62.5 227.5 L 62.5 27.5"/></clipPath></defs><path fill="none" stroke="rgb(229,229,229)" paint-order="fill" d="M 62.5 27.5 L 262.5 27.5 L 262.5 227.5 L 62.5 227.5 L 62.5 27.5" stroke-opacity="1" stroke-linejoin="bevel" stroke-miterlimit="10" stroke-dasharray=""/><path fill="none" stroke="rgb(229,229,229)" paint-order="fill" d="M 63.5 227.5 L 63.5 27.5 M 105.5 227.5 L 105.5 27.5 M 148.5 227.5 L 148.5 27.5 M 190.5 227.5 L 190.5 27.5 M 233.5 227.5 L 233.5 27.5" stroke-opacity="1" stroke-linejoin="bevel" stroke-miterlimit="10" stroke-dasharray="" clip-path="url(#RGDPvbKUOxAU)"/><path fill="none" stroke="rgb(229,229,229)" paint-order="fill" d="M 62.5 197.5 L 262.5 197.5 M 62.5 138.5 L 262.5 138.5 M 62.5 80.5 L 262.5 80.5" stroke-opacity="1" stroke-linejoin="bevel" stroke-miterlimit="10" stroke-dasharray="" clip-path="url(#QMnBzlKifnCN)"/><path fill="none" stroke="none"/><path fill="rgb(31,119,180)" stroke="rgb(31,119,180)" paint-order="fill" d="M 74.73538208007812 143.25482177734375 A 2 2 0 1 1 74.73538108007821 143.25282177767707" fill-opacity="1" clip-path="url(#KQoahEznKtkG)" stroke-opacity="1" stroke-linejoin="bevel" stroke-miterlimit="10" stroke-dasharray=""/><path fill="rgb(31,119,180)" stroke="rgb(31,119,180)" paint-order="fill" d="M 229.46775817871094 39.84382247924805 A 2 2 0 1 1 229.46775717871103 39.84182247958138" fill-opacity="1" clip-path="url(#KQoahEznKtkG)" stroke-opacity="1" stroke-linejoin="bevel" stroke-miterlimit="10" stroke-dasharray=""/><path fill="rgb(31,119,180)" stroke="rgb(31,119,180)" paint-order="fill" d="M 124.91404724121094 181.4979705810547 A 2 2 0 1 1 124.91404624121103 181.495970581388" fill-opacity="1" clip-path="url(#KQoahEznKtkG)" stroke-opacity="1" stroke-linejoin="bevel" stroke-miterlimit="10" stroke-dasharray=""/><path fill="rgb(31,119,180)" stroke="rgb(31,119,180)" paint-order="fill" d="M 105.4665298461914 167.87704467773438 A 2 2 0 1 1 105.4665288461915 167.8750446780677" fill-opacity="1" clip-path="url(#KQoahEznKtkG)" stroke-opacity="1" stroke-linejoin="bevel" stroke-miterlimit="10" stroke-dasharray=""/><path fill="rgb(31,119,180)" stroke="rgb(31,119,180)" paint-order="fill" d="M 178.44981384277344 126.74750518798828 A 2 2 0 1 1 178.44981284277353 126.74550518832162" fill-opacity="1" clip-path="url(#KQoahEznKtkG)" stroke-opacity="1" stroke-linejoin="bevel" stroke-miterlimit="10" stroke-dasharray=""/><path fill="rgb(31,119,180)" stroke="rgb(31,119,180)" paint-order="fill" d="M 107.39940643310547 174.82569885253906 A 2 2 0 1 1 107.39940543310556 174.82369885287238" fill-opacity="1" clip-path="url(#KQoahEznKtkG)" stroke-opacity="1" stroke-linejoin="bevel" stroke-miterlimit="10" stroke-dasharray=""/><path fill="rgb(31,119,180)" stroke="rgb(31,119,180)" paint-order="fill" d="M 196.744384765625 84.29417419433594 A 2 2 0 1 1 196.7443837656251 84.29217419466927" fill-opacity="1" clip-path="url(#KQoahEznKtkG)" stroke-opacity="1" stroke-linejoin="bevel" stroke-miterlimit="10" stroke-dasharray=""/><path fill="rgb(31,119,180)" stroke="rgb(31,119,180)" paint-order="fill" d="M 98.01475524902344 162.4654083251953 A 2 2 0 1 1 98.01475424902353 162.46340832552863" fill-opacity="1" clip-path="url(#KQoahEznKtkG)" stroke-opacity="1" stroke-linejoin="bevel" stroke-miterlimit="10" stroke-dasharray=""/><path fill="rgb(31,119,180)" stroke="rgb(31,119,180)" paint-order="fill" d="M 73.59091186523438 218.40908813476562 A 2 2 0 1 1 73.59091086523446 218.40708813509895" fill-opacity="1" clip-path="url(#KQoahEznKtkG)" stroke-opacity="1" stroke-linejoin="bevel" stroke-miterlimit="10" stroke-dasharray=""/><path fill="rgb(31,119,180)" stroke="rgb(31,119,180)" paint-order="fill" d="M 196.744384765625 87.83235168457031 A 2 2 0 1 1 196.7443837656251 87.83035168490365" fill-opacity="1" clip-path="url(#KQoahEznKtkG)" stroke-opacity="1" stroke-linejoin="bevel" stroke-miterlimit="10" stroke-dasharray=""/><path fill="rgb(31,119,180)" stroke="rgb(31,119,180)" paint-order="fill" d="M 197.73626708984375 108.914794921875 A 2 2 0 1 1 197.73626608984384 108.91279492220833" fill-opacity="1" clip-path="url(#KQoahEznKtkG)" stroke-opacity="1" stroke-linejoin="bevel" stroke-miterlimit="10" stroke-dasharray=""/><path fill="rgb(31,119,180)" stroke="rgb(31,119,180)" paint-order="fill" d="M 177.55967712402344 129.8588409423828 A 2 2 0 1 1 177.55967612402353 129.85684094271613" fill-opacity="1" clip-path="url(#KQoahEznKtkG)" stroke-opacity="1" stroke-linejoin="bevel" stroke-miterlimit="10" stroke-dasharray=""/><path fill="rgb(31,119,180)" stroke="rgb(31,119,180)" paint-order="fill" d="M 222.29574584960938 36.59090805053711 A 2 2 0 1 1 222.29574484960946 36.588908050870444" fill-opacity="1" clip-path="url(#KQoahEznKtkG)" stroke-opacity="1" stroke-linejoin="bevel" stroke-miterlimit="10" stroke-dasharray=""/><path fill="rgb(31,119,180)" stroke="rgb(31,119,180)" paint-order="fill" d="M 226.30563354492188 45.61894226074219 A 2 2 0 1 1 226.30563254492196 45.61694226107552" fill-opacity="1" clip-path="url(#KQoahEznKtkG)" stroke-opacity="1" stroke-linejoin="bevel" stroke-miterlimit="10" stroke-dasharray=""/><path fill="rgb(31,119,180)" stroke="rgb(31,119,180)" paint-order="fill" d="M 204.84893798828125 69.83248138427734 A 2 2 0 1 1 204.84893698828134 69.83048138461068" fill-opacity="1" clip-path="url(#KQoahEznKtkG)" stroke-opacity="1" stroke-linejoin="bevel" stroke-miterlimit="10" stroke-dasharray=""/><path fill="rgb(31,119,180)" stroke="rgb(31,119,180)" paint-order="fill" d="M 84.47608947753906 192.31295776367188 A 2 2 0 1 1 84.47608847753915 192.3109577640052" fill-opacity="1" clip-path="url(#KQoahEznKtkG)" stroke-opacity="1" stroke-linejoin="bevel" stroke-miterlimit="10" stroke-dasharray=""/><path fill="rgb(31,119,180)" stroke="rgb(31,119,180)" paint-order="fill" d="M 255.40908813476562 38.11989212036133 A 2 2 0 1 1 255.4090871347657 38.11789212069466" fill-opacity="1" clip-path="url(#KQoahEznKtkG)" stroke-opacity="1" stroke-linejoin="bevel" stroke-miterlimit="10" stroke-dasharray=""/><path fill="rgb(31,119,180)" stroke="rgb(31,119,180)" paint-order="fill" d="M 238.5557098388672 42.54084396362305 A 2 2 0 1 1 238.55570883886728 42.53884396395638" fill-opacity="1" clip-path="url(#KQoahEznKtkG)" stroke-opacity="1" stroke-linejoin="bevel" stroke-miterlimit="10" stroke-dasharray=""/><path fill="rgb(31,119,180)" stroke="rgb(31,119,180)" paint-order="fill" d="M 121.05675506591797 191.75564575195312 A 2 2 0 1 1 121.05675406591806 191.75364575228645" fill-opacity="1" clip-path="url(#KQoahEznKtkG)" stroke-opacity="1" stroke-linejoin="bevel" stroke-miterlimit="10" stroke-dasharray=""/><path fill="rgb(31,119,180)" stroke="rgb(31,119,180)" paint-order="fill" d="M 117.76746368408203 156.65184020996094 A 2 2 0 1 1 117.76746268408212 156.64984021029426" fill-opacity="1" clip-path="url(#KQoahEznKtkG)" stroke-opacity="1" stroke-linejoin="bevel" stroke-miterlimit="10" stroke-dasharray=""/><path fill="rgb(31,119,180)" stroke="rgb(31,119,180)" paint-order="fill" d="M 130.81442260742188 182.58688354492188 A 2 2 0 1 1 130.81442160742196 182.5848835452552" fill-opacity="1" clip-path="url(#KQoahEznKtkG)" stroke-opacity="1" stroke-linejoin="bevel" stroke-miterlimit="10" stroke-dasharray=""/><path fill="none" stroke="rgb(0,0,0)" paint-order="fill" d="M 62.5 227.5 L 262.5 227.5" stroke-opacity="1" stroke-linejoin="bevel" stroke-miterlimit="10" stroke-dasharray=""/><path fill="none" stroke="rgb(0,0,0)" paint-order="fill" d="M 63.5 233.5 L 63.5 225.5 M 105.5 233.5 L 105.5 225.5 M 148.5 233.5 L 148.5 225.5 M 190.5 233.5 L 190.5 225.5 M 233.5 233.5 L 233.5 225.5" stroke-opacity="1" stroke-linejoin="bevel" stroke-miterlimit="10" stroke-dasharray=""/><path fill="none" stroke="rgb(0,0,0)" paint-order="fill" d="M 63.5 231.5 L 63.5 227.5 M 72.5 231.5 L 72.5 227.5 M 80.5 231.5 L 80.5 227.5 M 89.5 231.5 L 89.5 227.5 M 97.5 231.5 L 97.5 227.5 M 105.5 231.5 L 105.5 227.5 M 114.5 231.5 L 114.5 227.5 M 122.5 231.5 L 122.5 227.5 M 131.5 231.5 L 131.5 227.5 M 139.5 231.5 L 139.5 227.5 M 148.5 231.5 L 148.5 227.5 M 156.5 231.5 L 156.5 227.5 M 165.5 231.5 L 165.5 227.5 M 173.5 231.5 L 173.5 227.5 M 182.5 231.5 L 182.5 227.5 M 190.5 231.5 L 190.5 227.5 M 199.5 231.5 L 199.5 227.5 M 207.5 231.5 L 207.5 227.5 M 216.5 231.5 L 216.5 227.5 M 224.5 231.5 L 224.5 227.5 M 233.5 231.5 L 233.5 227.5 M 241.5 231.5 L 241.5 227.5 M 250.5 231.5 L 250.5 227.5 M 258.5 231.5 L 258.5 227.5" stroke-opacity="1" stroke-linejoin="bevel" stroke-miterlimit="10" stroke-dasharray=""/><text fill="rgb(68,68,68)" stroke="none" font-family="helvetica" font-size="11px" font-style="normal" font-weight="normal" text-decoration="normal" x="50.71662139892578" y="245.89013671875" text-anchor="start" dominant-baseline="alphabetic" transform="matrix(1, 0, 0, 1, 0.5, 0.5)" fill-opacity="1">−150</text><text fill="rgb(68,68,68)" stroke="none" font-family="helvetica" font-size="11px" font-style="normal" font-weight="normal" text-decoration="normal" x="93.10440826416016" y="245.89013671875" text-anchor="start" dominant-baseline="alphabetic" transform="matrix(1, 0, 0, 1, 0.5, 0.5)" fill-opacity="1">−100</text><text fill="rgb(68,68,68)" stroke="none" font-family="helvetica" font-size="11px" font-style="normal" font-weight="normal" text-decoration="normal" x="138.55104064941406" y="245.89013671875" text-anchor="start" dominant-baseline="alphabetic" transform="matrix(1, 0, 0, 1, 0.5, 0.5)" fill-opacity="1">−50</text><text fill="rgb(68,68,68)" stroke="none" font-family="helvetica" font-size="11px" font-style="normal" font-weight="normal" text-decoration="normal" x="187.20957946777344" y="245.89013671875" text-anchor="start" dominant-baseline="alphabetic" transform="matrix(1, 0, 0, 1, 0.5, 0.5)" fill-opacity="1">0</text><text fill="rgb(68,68,68)" stroke="none" font-family="helvetica" font-size="11px" font-style="normal" font-weight="normal" text-decoration="normal" x="226.5385284423828" y="245.89013671875" text-anchor="start" dominant-baseline="alphabetic" transform="matrix(1, 0, 0, 1, 0.5, 0.5)" fill-opacity="1">50</text><text fill="rgb(68,68,68)" stroke="none" font-family="helvetica" font-size="13px" font-style="italic" font-weight="normal" text-decoration="normal" x="133.819580078125" y="265.89013671875" text-anchor="start" dominant-baseline="alphabetic" transform="matrix(1, 0, 0, 1, 0.5, 0.5)" fill-opacity="1">Observed</text><path fill="none" stroke="rgb(0,0,0)" paint-order="fill" d="M 62.5 227.5 L 62.5 27.5" stroke-opacity="1" stroke-linejoin="bevel" stroke-miterlimit="10" stroke-dasharray=""/><path fill="none" stroke="rgb(0,0,0)" paint-order="fill" d="M 56.5 197.5 L 64.5 197.5 M 56.5 138.5 L 64.5 138.5 M 56.5 80.5 L 64.5 80.5" stroke-opacity="1" stroke-linejoin="bevel" stroke-miterlimit="10" stroke-dasharray=""/><path fill="none" stroke="rgb(0,0,0)" paint-order="fill" d="M 58.5 208.5 L 62.5 208.5 M 58.5 220.5 L 62.5 220.5 M 58.5 197.5 L 62.5 197.5 M 58.5 185.5 L 62.5 185.5 M 58.5 173.5 L 62.5 173.5 M 58.5 162.5 L 62.5 162.5 M 58.5 150.5 L 62.5 150.5 M 58.5 138.5 L 62.5 138.5 M 58.5 127.5 L 62.5 127.5 M 58.5 115.5 L 62.5 115.5 M 58.5 103.5 L 62.5 103.5 M 58.5 92.5 L 62.5 92.5 M 58.5 80.5 L 62.5 80.5 M 58.5 69.5 L 62.5 69.5 M 58.5 57.5 L 62.5 57.5 M 58.5 45.5 L 62.5 45.5 M 58.5 34.5 L 62.5 34.5" stroke-opacity="1" stroke-linejoin="bevel" stroke-miterlimit="10" stroke-dasharray=""/><text fill="rgb(68,68,68)" stroke="none" font-family="helvetica" font-size="11px" font-style="normal" font-weight="normal" text-decoration="normal" x="26.22314453125" y="200.5308837890625" text-anchor="start" dominant-baseline="alphabetic" transform="matrix(1, 0, 0, 1, 0.5, 0.5)" fill-opacity="1">−100</text><text fill="rgb(68,68,68)" stroke="none" font-family="helvetica" font-size="11px" font-style="normal" font-weight="normal" text-decoration="normal" x="32.3408203125" y="142.33718872070312" text-anchor="start" dominant-baseline="alphabetic" transform="matrix(1, 0, 0, 1, 0.5, 0.5)" fill-opacity="1">−50</text><text fill="rgb(68,68,68)" stroke="none" font-family="helvetica" font-size="11px" font-style="normal" font-weight="normal" text-decoration="normal" x="44.88232421875" y="84.14347839355469" text-anchor="start" dominant-baseline="alphabetic" transform="matrix(1, 0, 0, 1, 0.5, 0.5)" fill-opacity="1">0</text><text fill="rgb(68,68,68)" stroke="none" font-family="helvetica" font-size="13px" font-style="italic" font-weight="normal" text-decoration="normal" x="-9.23681640625" y="124" text-anchor="start" dominant-baseline="alphabetic" transform="matrix(6.123233995736766e-17, -1, 1, 6.123233995736766e-17, -108.27685546875, 145.72314453125)" fill-opacity="1">Predicted</text><path fill="none" stroke="rgb(255,140,0)" paint-order="fill" d="M 229.51767486022626 27.5 L 83.83941682880004 227.5" stroke-opacity="1" stroke-linejoin="bevel" stroke-miterlimit="10" stroke-width="2" stroke-dasharray="" clip-path="url(#OGvIMAWtfRmX)"/><path fill="none" stroke="none"/><text fill="rgb(68,68,68)" stroke="none" font-family="helvetica" font-size="13px" font-style="normal" font-weight="bold" text-decoration="normal" x="0" y="0" text-anchor="start" dominant-baseline="text-after-edge" transform="matrix(1, 0, 0, 1, 62.5, 22.5)" fill-opacity="1">Longitude, &lt;R²&gt; = 0.68</text></svg>