<svg version="1.1" xmlns="http://www.w3.org/2000/svg" xmlns:xlink="http://www.w3.org/1999/xlink" width="260" height="272"><defs><clipPath id="frWOmsDqfViQ"><path fill="none" stroke="none" d="M 55.5 27.5 L 255.5 27.5 L 255.5 227.5 L 55.5 227.5 L 55.5 27.5"/></clipPath><clipPath id="cfdyJvBCLaOs"><path fill="none" stroke="none" d="M 55.5 27.5 L 255.5 27.5 L 255.5 227.5 L 55.5 227.5 L 55.5 27.5"/></clipPath><clipPath id="lntODtVafihb"><path fill="none" stroke="none" d="M 55.5 27.5 L 255.5 27.5 L 255.5 227.5 L 55.5 227.5 L 55.5 27.5"/></clipPath><clipPath id="bnmXGCUkWPRD"><path fill="none" stroke="none" d="M 55.5 27.5 L 255.5 27.5 L 255.5 227.5 L 55.5 227.5 L 55.5 27.5"/></clipPath><clipPath id="pqBqHpShGKaU"><path fill="none" stroke="none" d="M 55.5 27.5 L 255.5 27.5 L 255.5 227.5 L 55.5 227.5 L 55.5 27.5"/></clipPath></defs><path fill="none" stroke="rgb(229,229,229)" paint-order="fill" d="M 55.5 27.5 L 255.5 27.5 L 255.5 227.5 L 55.5 227.5 L 55.5 27.5" stroke-opacity="1" stroke-linejoin="bevel" stroke-miterlimit="10" stroke-dasharray=""/><path fill="none" stroke="rgb(229,229,229)" paint-order="fill" d="M 63.5 227.5 L 63.5 27.5 M 106.5 227.5 L 106.5 27.5 M 150.5 227.5 L 150.5 27.5 M 193.5 227.5 L 193.5 27.5 M 237.5 227.5 L 237.5 27.5" stroke-opacity="1" stroke-linejoin="bevel" stroke-miterlimit="10" stroke-dasharray="" clip-path="url(#frWOmsDqfViQ)"/><path fill="none" stroke="rgb(229,229,229)" paint-order="fill" d="M 55.5 220.5 L 255.5 220.5 M 55.5 194.5 L 255.5 194.5 M 55.5 169.5 L 255.5 169.5 M 55.5 144.5 L 255.5 144.5 M 55.5 119.5 L 255.5 119.5 M 55.5 94.5 L 255.5 94.5 M 55.5 68.5 L 255.5 68.5 M 55.5 43.5 L 255.5 43.5" stroke-opacity="1" stroke-linejoin="bevel" stroke-miterlimit="10" stroke-dasharray="" clip-path="url(#cfdyJvBCLaOs)"/><path fill="none" stroke="none"/><path fill="rgb(31,119,180)" stroke="rgb(31,119,180)" paint-order="fill" d="M 66.59091186523438 216.3050537109375 A 2 2 0 1 1 66.59091086523446 216.30305371127082" fill-opacity="1" clip-path="url(#lntODtVafihb)" stroke-opacity="1" stroke-linejoin="bevel" stroke-miterlimit="10" stroke-dasharray=""/><path fill="rgb(31,119,180)" stroke="rgb(31,119,180)" paint-order="fill" d="M 66.59091186523438 218.24273681640625 A 2 2 0 1 1 66.59091086523446 218.24073681673957" fill-opacity="1" clip-path="url(#lntODtVafihb)" stroke-opacity="1" stroke-linejoin="bevel" stroke-miterlimit="10" stroke-dasharray=""/><path fill="rgb(31,119,180)" stroke="rgb(31,119,180)" paint-order="fill" d="M 66.61264038085938 215.2870330810547 A 2 2 0 1 1 66.61263938085946 215.285033081388" fill-opacity="1" clip-path="url(#lntODtVafihb)" stroke-opacity="1" stroke-linejoin="bevel" stroke-miterlimit="10" stroke-dasharray=""/><path fill="rgb(31,119,180)" stroke="rgb(31,119,180)" paint-order="fill" d="M 92.29489135742188 205.68389892578125 A 2 2 0 1 1 92.29489035742196 205.68189892611457" fill-opacity="1" clip-path="url(#lntODtVafihb)" stroke-opacity="1" stroke-linejoin="bevel" stroke-miterlimit="10" stroke-dasharray=""/><path fill="rgb(31,119,180)" stroke="rgb(31,119,180)" paint-order="fill" d="M 66.63436126708984 217.0355224609375 A 2 2 0 1 1 66.63436026708993 217.03352246127082" fill-opacity="1" clip-path="url(#lntODtVafihb)" stroke-opacity="1" stroke-linejoin="bevel" stroke-miterlimit="10" stroke-dasharray=""/><path fill="rgb(31,119,180)" stroke="rgb(31,119,180)" paint-order="fill" d="M 66.61264038085938 215.9833984375 A 2 2 0 1 1 66.61263938085946 215.98139843783332" fill-opacity="1" clip-path="url(#lntODtVafihb)" stroke-opacity="1" stroke-linejoin="bevel" stroke-miterlimit="10" stroke-dasharray=""/><path fill="rgb(31,119,180)" stroke="rgb(31,119,180)" paint-order="fill" d="M 84.7553482055664 204.2431182861328 A 2 2 0 1 1 84.7553472055665 204.24111828646613" fill-opacity="1" clip-path="url(#lntODtVafihb)" stroke-opacity="1" stroke-linejoin="bevel" stroke-miterlimit="10" stroke-dasharray=""/><path fill="rgb(31,119,180)" stroke="rgb(31,119,180)" paint-order="fill" d="M 66.61264038085938 214.2288055419922 A 2 2 0 1 1 66.61263938085946 214.2268055423255" fill-opacity="1" clip-path="url(#lntODtVafihb)" stroke-opacity="1" stroke-linejoin="bevel" stroke-miterlimit="10" stroke-dasharray=""/><path fill="rgb(31,119,180)" stroke="rgb(31,119,180)" paint-order="fill" d="M 74.47809600830078 213.33627319335938 A 2 2 0 1 1 74.47809500830087 213.3342731936927" fill-opacity="1" clip-path="url(#lntODtVafihb)" stroke-opacity="1" stroke-linejoin="bevel" stroke-miterlimit="10" stroke-dasharray=""/><path fill="rgb(31,119,180)" stroke="rgb(31,119,180)" paint-order="fill" d="M 215.18728637695312 42.644046783447266 A 2 2 0 1 1 215.1872853769532 42.6420467837806" fill-opacity="1" clip-path="url(#lntODtVafihb)" stroke-opacity="1" stroke-linejoin="bevel" stroke-miterlimit="10" stroke-dasharray=""/><path fill="rgb(31,119,180)" stroke="rgb(31,119,180)" paint-order="fill" d="M 66.61264038085938 206.79327392578125 A 2 2 0 1 1 66.61263938085946 206.79127392611457" fill-opacity="1" clip-path="url(#lntODtVafihb)" stroke-opacity="1" stroke-linejoin="bevel" stroke-miterlimit="10" stroke-dasharray=""/><path fill="rgb(31,119,180)" stroke="rgb(31,119,180)" paint-order="fill" d="M 82.27837371826172 199.99771118164062 A 2 2 0 1 1 82.2783727182618 199.99571118197395" fill-opacity="1" clip-path="url(#lntODtVafihb)" stroke-opacity="1" stroke-linejoin="bevel" stroke-miterlimit="10" stroke-dasharray=""/><path fill="rgb(31,119,180)" stroke="rgb(31,119,180)" paint-order="fill" d="M 248.40908813476562 36.59090805053711 A 2 2 0 1 1 248.4090871347657 36.588908050870444" fill-opacity="1" clip-path="url(#lntODtVafihb)" stroke-opacity="1" stroke-linejoin="bevel" stroke-miterlimit="10" stroke-dasharray=""/><path fill="rgb(31,119,180)" stroke="rgb(31,119,180)" paint-order="fill" d="M 66.59091186523438 216.62054443359375 A 2 2 0 1 1 66.59091086523446 216.61854443392707" fill-opacity="1" clip-path="url(#lntODtVafihb)" stroke-opacity="1" stroke-linejoin="bevel" stroke-miterlimit="10" stroke-dasharray=""/><path fill="rgb(31,119,180)" stroke="rgb(31,119,180)" paint-order="fill" d="M 66.61264038085938 214.096923828125 A 2 2 0 1 1 66.61263938085946 214.09492382845832" fill-opacity="1" clip-path="url(#lntODtVafihb)" stroke-opacity="1" stroke-linejoin="bevel" stroke-miterlimit="10" stroke-dasharray=""/><path fill="rgb(31,119,180)" stroke="rgb(31,119,180)" paint-order="fill" d="M 66.61264038085938 215.5056610107422 A 2 2 0 1 1 66.61263938085946 215.5036610110755" fill-opacity="1" clip-path="url(#lntODtVafihb)" stroke-opacity="1" stroke-linejoin="bevel" stroke-miterlimit="10" stroke-dasharray=""/><path fill="rgb(31,119,180)" stroke="rgb(31,119,180)" paint-order="fill" d="M 66.59091186523438 218.40908813476562 A 2 2 0 1 1 66.59091086523446 218.40708813509895" fill-opacity="1" clip-path="url(#lntODtVafihb)" stroke-opacity="1" stroke-linejoin="bevel" stroke-miterlimit="10" stroke-dasharray=""/><path fill="rgb(31,119,180)" stroke="rgb(31,119,180)" paint-order="fill" d="M 66.59091186523438 215.1625213623047 A 2 2 0 1 1 66.59091086523446 215.160521362638" fill-opacity="1" clip-path="url(#lntODtVafihb)" stroke-opacity="1" stroke-linejoin="bevel" stroke-miterlimit="10" stroke-dasharray=""/><path fill="rgb(31,119,180)" stroke="rgb(31,119,180)" paint-order="fill" d="M 66.61264038085938 209.75634765625 A 2 2 0 1 1 66.61263938085946 209.75434765658332" fill-opacity="1" clip-path="url(#lntODtVafihb)" stroke-opacity="1" stroke-linejoin="bevel" stroke-miterlimit="10" stroke-dasharray=""/><path fill="rgb(31,119,180)" stroke="rgb(31,119,180)" paint-order="fill" d="M 67.56865692138672 217.97129821777344 A 2 2 0 1 1 67.5686559213868 217.96929821810676" fill-opacity="1" clip-path="url(#lntODtVafihb)" stroke-opacity="1" stroke-linejoin="bevel" stroke-miterlimit="10" stroke-dasharray=""/><path fill="rgb(31,119,180)" stroke="rgb(31,119,180)" paint-order="fill" d="M 82.58256530761719 209.02340698242188 A 2 2 0 1 1 82.58256430761728 209.0214069827552" fill-opacity="1" clip-path="url(#lntODtVafihb)" stroke-opacity="1" stroke-linejoin="bevel" stroke-miterlimit="10" stroke-dasharray=""/><path fill="none" stroke="rgb(0,0,0)" paint-order="fill" d="M 55.5 227.5 L 255.5 227.5" stroke-opacity="1" stroke-linejoin="bevel" stroke-miterlimit="10" stroke-dasharray=""/><path fill="none" stroke="rgb(0,0,0)" paint-order="fill" d="M 63.5 233.5 L 63.5 225.5 M 106.5 233.5 L 106.5 225.5 M 150.5 233.5 L 150.5 225.5 M 193.5 233.5 L 193.5 225.5 M 237.5 233.5 L 237.5 225.5" stroke-opacity="1" stroke-linejoin="bevel" stroke-miterlimit="10" stroke-dasharray=""/><path fill="none" stroke="rgb(0,0,0)" paint-order="fill" d="M 63.5 231.5 L 63.5 227.5 M 72.5 231.5 L 72.5 227.5 M 80.5 231.5 L 80.5 227.5 M 89.5 231.5 L 89.5 227.5 M 98.5 231.5 L 98.5 227.5 M 106.5 231.5 L 106.5 227.5 M 115.5 231.5 L 115.5 227.5 M 124.5 231.5 L 124.5 227.5 M 132.5 231.5 L 132.5 227.5 M 141.5 231.5 L 141.5 227.5 M 150.5 231.5 L 150.5 227.5 M 159.5 231.5 L 159.5 227.5 M 167.5 231.5 L 167.5 227.5 M 176.5 231.5 L 176.5 227.5 M 185.5 231.5 L 185.5 227.5 M 193.5 231.5 L 193.5 227.5 M 202.5 231.5 L 202.5 227.5 M 211.5 231.5 L 211.5 227.5 M 219.5 231.5 L 219.5 227.5 M 228.5 231.5 L 228.5 227.5 M 237.5 231.5 L 237.5 227.5 M 245.5 231.5 L 245.5 227.5 M 254.5 231.5 L 254.5 227.5" stroke-opacity="1" stroke-linejoin="bevel" stroke-miterlimit="10" stroke-dasharray=""/><text fill="rgb(68,68,68)" stroke="none" font-family="helvetica" font-size="11px" font-style="normal" font-weight="normal" text-decoration="normal" x="59.858768463134766" y="245.89013671875" text-anchor="start" dominant-baseline="alphabetic" transform="matrix(1, 0, 0, 1, 0.5, 0.5)" fill-opacity="1">0</text><text fill="rgb(68,68,68)" stroke="none" font-family="helvetica" font-size="11px" font-style="normal" font-weight="normal" text-decoration="normal" x="97.19668579101562" y="245.89013671875" text-anchor="start" dominant-baseline="alphabetic" transform="matrix(1, 0, 0, 1, 0.5, 0.5)" fill-opacity="1">200</text><text fill="rgb(68,68,68)" stroke="none" font-family="helvetica" font-size="11px" font-style="normal" font-weight="normal" text-decoration="normal" x="140.6522674560547" y="245.89013671875" text-anchor="start" dominant-baseline="alphabetic" transform="matrix(1, 0, 0, 1, 0.5, 0.5)" fill-opacity="1">400</text><text fill="rgb(68,68,68)" stroke="none" font-family="helvetica" font-size="11px" font-style="normal" font-weight="normal" text-decoration="normal" x="184.1078643798828" y="245.89013671875" text-anchor="start" dominant-baseline="alphabetic" transform="matrix(1, 0, 0, 1, 0.5, 0.5)" fill-opacity="1">600</text><text fill="rgb(68,68,68)" stroke="none" font-family="helvetica" font-size="11px" font-style="normal" font-weight="normal" text-decoration="normal" x="227.56344604492188" y="245.89013671875" text-anchor="start" dominant-baseline="alphabetic" transform="matrix(1, 0, 0, 1, 0.5, 0.5)" fill-opacity="1">800</text><text fill="rgb(68,68,68)" stroke="none" font-family="helvetica" font-size="13px" font-style="italic" font-weight="normal" text-decoration="normal" x="126.819580078125" y="265.89013671875" text-anchor="start" dominant-baseline="alphabetic" transform="matrix(1, 0, 0, 1, 0.5, 0.5)" fill-opacity="1">Observed</text><path fill="none" stroke="rgb(0,0,0)" paint-order="fill" d="M 55.5 227.5 L 55.5 27.5" stroke-opacity="1" stroke-linejoin="bevel" stroke-miterlimit="10" stroke-dasharray=""/><path fill="none" stroke="rgb(0,0,0)" paint-order="fill" d="M 49.5 220.5 L 57.5 220.5 M 49.5 194.5 L 57.5 194.5 M 49.5 169.5 L 57.5 169.5 M 49.5 144.5 L 57.5 144.5 M 49.5 119.5 L 57.5 119.5 M 49.5 94.5 L 57.5 94.5 M 49.5 68.5 L 57.5 68.5 M 49.5 43.5 L 57.5 43.5" stroke-opacity="1" stroke-linejoin="bevel" stroke-miterlimit="10" stroke-dasharray=""/><path fill="none" stroke="rgb(0,0,0)" paint-order="fill" d="M 51.5 225.5 L 55.5 225.5 M 51.5 220.5 L 55.5 220.5 M 51.5 215.5 L 55.5 215.5 M 51.5 210.5 L 55.5 210.5 M 51.5 205.5 L 55.5 205.5 M 51.5 200.5 L 55.5 200.5 M 51.5 194.5 L 55.5 194.5 M 51.5 189.5 L 55.5 189.5 M 51.5 184.5 L 55.5 184.5 M 51.5 179.5 L 55.5 179.5 M 51.5 174.5 L 55.5 174.5 M 51.5 169.5 L 55.5 169.5 M 51.5 164.5 L 55.5 164.5 M 51.5 159.5 L 55.5 159.5 M 51.5 154.5 L 55.5 154.5 M 51.5 149.5 L 55.5 149.5 M 51.5 144.5 L 55.5 144.5 M 51.5 139.5 L 55.5 139.5 M 51.5 134.5 L 55.5 134.5 M 51.5 129.5 L 55.5 129.5 M 51.5 124.5 L 55.5 124.5 M 51.5 119.5 L 55.5 119.5 M 51.5 114.5 L 55.5 114.5 M 51.5 109.5 L 55.5 109.5 M 51.5 104.5 L 55.5 104.5 M 51.5 99.5 L 55.5 99.5 M 51.5 94.5 L 55.5 94.5 M 51.5 89.5 L 55.5 89.5 M 51.5 83.5 L 55.5 83.5 M 51.5 78.5 L 55.5 78.5 M 51.5 73.5 L 55.5 73.5 M 51.5 68.5 L 55.5 68.5 M 51.5 63.5 L 55.5 63.5 M 51.5 58.5 L 55.5 58.5 M 51.5 53.5 L 55.5 53.5 M 51.5 48.5 L 55.5 48.5 M 51.5 43.5 L 55.5 43.5 M 51.5 38.5 L 55.5 38.5 M 51.5 33.5 L 55.5 33.5 M 51.5 28.5 L 55.5 28.5" stroke-opacity="1" stroke-linejoin="bevel" stroke-miterlimit="10" stroke-dasharray=""/><text fill="rgb(68,68,68)" stroke="none" font-family="helvetica" font-size="11px" font-style="normal" font-weight="normal" text-decoration="normal" x="37.88232421875" y="223.62933349609375" text-anchor="start" dominant-baseline="alphabetic" transform="matrix(1, 0, 0, 1, 0.5, 0.5)" fill-opacity="1">0</text><text fill="rgb(68,68,68)" stroke="none" font-family="helvetica" font-size="11px" font-style="normal" font-weight="normal" text-decoration="normal" x="25.64697265625" y="198.40225219726562" text-anchor="start" dominant-baseline="alphabetic" transform="matrix(1, 0, 0, 1, 0.5, 0.5)" fill-opacity="1">100</text><text fill="rgb(68,68,68)" stroke="none" font-family="helvetica" font-size="11px" font-style="normal" font-weight="normal" text-decoration="normal" x="25.64697265625" y="173.17515563964844" text-anchor="start" dominant-baseline="alphabetic" transform="matrix(1, 0, 0, 1, 0.5, 0.5)" fill-opacity="1">200</text><text fill="rgb(68,68,68)" stroke="none" font-family="helvetica" font-size="11px" font-style="normal" font-weight="normal" text-decoration="normal" x="25.64697265625" y="147.9480743408203" text-anchor="start" dominant-baseline="alphabetic" transform="matrix(1, 0, 0, 1, 0.5, 0.5)" fill-opacity="1">300</text><text fill="rgb(68,68,68)" stroke="none" font-family="helvetica" font-size="11px" font-style="normal" font-weight="normal" text-decoration="normal" x="25.64697265625" y="122.72098541259766" text-anchor="start" dominant-baseline="alphabetic" transform="matrix(1, 0, 0, 1, 0.5, 0.5)" fill-opacity="1">400</text><text fill="rgb(68,68,68)" stroke="none" font-family="helvetica" font-size="11px" font-style="normal" font-weight="normal" text-decoration="normal" x="25.64697265625" y="97.493896484375" text-anchor="start" dominant-baseline="alphabetic" transform="matrix(1, 0, 0, 1, 0.5, 0.5)" fill-opacity="1">500</text><text fill="rgb(68,68,68)" stroke="none" font-family="helvetica" font-size="11px" font-style="normal" font-weight="normal" text-decoration="normal" x="25.64697265625" y="72.26680755615234" text-anchor="start" dominant-baseline="alphabetic" transform="matrix(1, 0, 0, 1, 0.5, 0.5)" fill-opacity="1">600</text><text fill="rgb(68,68,68)" stroke="none" font-family="helvetica" font-size="11px" font-style="normal" font-weight="normal" text-decoration="normal" x="25.64697265625" y="47.03972244262695" text-anchor="start" dominant-baseline="alphabetic" transform="matrix(1, 0, 0, 1, 0.5, 0.5)" fill-opacity="1">700</text><text fill="rgb(68,68,68)" stroke="none" font-family="helvetica" font-size="13px" font-style="italic" font-weight="normal" text-decoration="normal" x="-9.81298828125" y="124" text-anchor="start" dominant-baseline="alphabetic" transform="matrix(6.123233995736766e-17, -1, 1, 6.123233995736766e-17, -108.85302734375, 145.14697265625)" fill-opacity="1">Predicted</text><path fill="none" stroke="rgb(255,140,0)" paint-order="fill" d="M 229.37430471058533 27.5 L 57.116656527029406 227.5" stroke-opacity="1" stroke-linejoin="bevel" stroke-miterlimit="10" stroke-width="2" stroke-dasharray="" clip-path="url(#bnmXGCUkWPRD)"/><path fill="none" stroke="none"/><text fill="rgb(68,68,68)" stroke="none" font-family="helvetica" font-size="13px" font-style="normal" font-weight="bold" text-decoration="normal" x="0" y="0" text-anchor="start" dominant-baseline="text-after-edge" transform="matrix(1, 0, 0, 1, 55.5, 22.5)" fill-opacity="1">Depth (m), &lt;R²&gt; = 0.91</text></svg>