<svg version="1.1" xmlns="http://www.w3.org/2000/svg" xmlns:xlink="http://www.w3.org/1999/xlink" width="619" height="139"><defs><clipPath id="xXWTawSUKcDL"><path fill="none" stroke="none" d="M 214.5 27.5 L 614.5 27.5 L 614.5 77.5 L 214.5 77.5 L 214.5 27.5"/></clipPath><clipPath id="vpdpSFFptxaU"><path fill="none" stroke="none" d="M 214.5 27.5 L 614.5 27.5 L 614.5 77.5 L 214.5 77.5 L 214.5 27.5"/></clipPath><clipPath id="JJGxovTzUGTy"><path fill="none" stroke="none" d="M 214.5 27.5 L 614.5 27.5 L 614.5 77.5 L 214.5 77.5 L 214.5 27.5"/></clipPath><clipPath id="tKARrFQtGwbg"><path fill="none" stroke="none" d="M 214.5 27.5 L 614.5 27.5 L 614.5 77.5 L 214.5 77.5 L 214.5 27.5"/></clipPath></defs><path fill="none" stroke="rgb(229,229,229)" paint-order="fill" d="M 214.5 27.5 L 614.5 27.5 L 614.5 77.5 L 214.5 77.5 L 214.5 27.5" stroke-opacity="1" stroke-linejoin="bevel" stroke-miterlimit="10" stroke-dasharray=""/><path fill="none" stroke="rgb(229,229,229)" paint-order="fill" d="M 232.5 77.5 L 232.5 27.5 M 292.5 77.5 L 292.5 27.5 M 352.5 77.5 L 352.5 27.5 M 412.5 77.5 L 412.5 27.5 M 472.5 77.5 L 472.5 27.5 M 531.5 77.5 L 531.5 27.5 M 591.5 77.5 L 591.5 27.5" stroke-opacity="1" stroke-linejoin="bevel" stroke-miterlimit="10" stroke-dasharray="" clip-path="url(#xXWTawSUKcDL)"/><path fill="none" stroke="rgb(229,229,229)" paint-order="fill" d="M 214.5 71.5 L 614.5 71.5 M 214.5 58.5 L 614.5 58.5 M 214.5 46.5 L 614.5 46.5 M 214.5 33.5 L 614.5 33.5" stroke-opacity="1" stroke-linejoin="bevel" stroke-miterlimit="10" stroke-dasharray="" clip-path="url(#vpdpSFFptxaU)"/><path fill="none" stroke="none"/><path fill="rgb(76,172,128)" stroke="none" paint-order="stroke" d="M 232.68182373046875 28.75 L 596.3181762695312 28.75 L 596.3181762695312 38.75 L 232.68182373046875 38.75 L 232.68182373046875 28.75" fill-opacity="1" clip-path="url(#JJGxovTzUGTy)"/><path fill="none" stroke="rgb(76,172,128)" paint-order="fill" d="M 232.68182373046875 28.75 L 596.3181762695312 28.75 L 596.3181762695312 38.75 L 232.68182373046875 38.75 L 232.68182373046875 28.75" stroke-opacity="1" stroke-linejoin="bevel" stroke-miterlimit="10" stroke-dasharray="" clip-path="url(#JJGxovTzUGTy)"/><path fill="rgb(72,167,130)" stroke="none" paint-order="stroke" d="M 232.68182373046875 41.25 L 492.01898193359375 41.25 L 492.01898193359375 51.25 L 232.68182373046875 51.25 L 232.68182373046875 41.25" fill-opacity="1" clip-path="url(#JJGxovTzUGTy)"/><path fill="none" stroke="rgb(72,167,130)" paint-order="fill" d="M 232.68182373046875 41.25 L 492.01898193359375 41.25 L 492.01898193359375 51.25 L 232.68182373046875 51.25 L 232.68182373046875 41.25" stroke-opacity="1" stroke-linejoin="bevel" stroke-miterlimit="10" stroke-dasharray="" clip-path="url(#JJGxovTzUGTy)"/><path fill="rgb(72,167,130)" stroke="none" paint-order="stroke" d="M 232.68182373046875 53.75 L 478.72998046875 53.75 L 478.72998046875 63.75 L 232.68182373046875 63.75 L 232.68182373046875 53.75" fill-opacity="1" clip-path="url(#JJGxovTzUGTy)"/><path fill="none" stroke="rgb(72,167,130)" paint-order="fill" d="M 232.68182373046875 53.75 L 478.72998046875 53.75 L 478.72998046875 63.75 L 232.68182373046875 63.75 L 232.68182373046875 53.75" stroke-opacity="1" stroke-linejoin="bevel" stroke-miterlimit="10" stroke-dasharray="" clip-path="url(#JJGxovTzUGTy)"/><path fill="rgb(73,168,130)" stroke="none" paint-order="stroke" d="M 232.68182373046875 66.25 L 428.6069641113281 66.25 L 428.6069641113281 76.25 L 232.68182373046875 76.25 L 232.68182373046875 66.25" fill-opacity="1" clip-path="url(#JJGxovTzUGTy)"/><path fill="none" stroke="rgb(73,168,130)" paint-order="fill" d="M 232.68182373046875 66.25 L 428.6069641113281 66.25 L 428.6069641113281 76.25 L 232.68182373046875 76.25 L 232.68182373046875 66.25" stroke-opacity="1" stroke-linejoin="bevel" stroke-miterlimit="10" stroke-dasharray="" clip-path="url(#JJGxovTzUGTy)"/><path fill="none" stroke="rgb(0,0,0)" paint-order="fill" d="M 214.5 77.5 L 614.5 77.5" stroke-opacity="1" stroke-linejoin="bevel" stroke-miterlimit="10" stroke-dasharray=""/><path fill="none" stroke="rgb(0,0,0)" paint-order="fill" d="M 232.5 83.5 L 232.5 75.5 M 292.5 83.5 L 292.5 75.5 M 352.5 83.5 L 352.5 75.5 M 412.5 83.5 L 412.5 75.5 M 472.5 83.5 L 472.5 75.5 M 531.5 83.5 L 531.5 75.5 M 591.5 83.5 L 591.5 75.5" stroke-opacity="1" stroke-linejoin="bevel" stroke-miterlimit="10" stroke-dasharray=""/><path fill="none" stroke="rgb(0,0,0)" paint-order="fill" d="M 220.5 81.5 L 220.5 77.5 M 232.5 81.5 L 232.5 77.5 M 244.5 81.5 L 244.5 77.5 M 256.5 81.5 L 256.5 77.5 M 268.5 81.5 L 268.5 77.5 M 280.5 81.5 L 280.5 77.5 M 292.5 81.5 L 292.5 77.5 M 304.5 81.5 L 304.5 77.5 M 316.5 81.5 L 316.5 77.5 M 328.5 81.5 L 328.5 77.5 M 340.5 81.5 L 340.5 77.5 M 352.5 81.5 L 352.5 77.5 M 364.5 81.5 L 364.5 77.5 M 376.5 81.5 L 376.5 77.5 M 388.5 81.5 L 388.5 77.5 M 400.5 81.5 L 400.5 77.5 M 412.5 81.5 L 412.5 77.5 M 424.5 81.5 L 424.5 77.5 M 436.5 81.5 L 436.5 77.5 M 448.5 81.5 L 448.5 77.5 M 460.5 81.5 L 460.5 77.5 M 472.5 81.5 L 472.5 77.5 M 484.5 81.5 L 484.5 77.5 M 495.5 81.5 L 495.5 77.5 M 507.5 81.5 L 507.5 77.5 M 519.5 81.5 L 519.5 77.5 M 531.5 81.5 L 531.5 77.5 M 543.5 81.5 L 543.5 77.5 M 555.5 81.5 L 555.5 77.5 M 567.5 81.5 L 567.5 77.5 M 579.5 81.5 L 579.5 77.5 M 591.5 81.5 L 591.5 77.5 M 603.5 81.5 L 603.5 77.5" stroke-opacity="1" stroke-linejoin="bevel" stroke-miterlimit="10" stroke-dasharray=""/><text fill="rgb(68,68,68)" stroke="none" font-family="helvetica" font-size="11px" font-style="normal" font-weight="normal" text-decoration="normal" x="226.06414794921875" y="91.945068359375" text-anchor="start" dominant-baseline="alphabetic" transform="matrix(0.7071067811865476, -0.7071067811865475, 0.7071067811865475, 0.7071067811865476, 6.279084957978455, 190.4519452836579)" fill-opacity="1">0</text><text fill="rgb(68,68,68)" stroke="none" font-family="helvetica" font-size="11px" font-style="normal" font-weight="normal" text-decoration="normal" x="264.495361328125" y="91.945068359375" text-anchor="start" dominant-baseline="alphabetic" transform="matrix(0.7071067811865476, -0.7071067811865475, 0.7071067811865475, 0.7071067811865476, 23.805930298260364, 232.76549300978223)" fill-opacity="1">0.002</text><text fill="rgb(68,68,68)" stroke="none" font-family="helvetica" font-size="11px" font-style="normal" font-weight="normal" text-decoration="normal" x="324.3357849121094" y="91.945068359375" text-anchor="start" dominant-baseline="alphabetic" transform="matrix(0.7071067811865476, -0.7071067811865475, 0.7071067811865475, 0.7071067811865476, 41.33278457693399, 275.079062315093)" fill-opacity="1">0.004</text><text fill="rgb(68,68,68)" stroke="none" font-family="helvetica" font-size="11px" font-style="normal" font-weight="normal" text-decoration="normal" x="384.17620849609375" y="91.945068359375" text-anchor="start" dominant-baseline="alphabetic" transform="matrix(0.7071067811865476, -0.7071067811865475, 0.7071067811865475, 0.7071067811865476, 58.85963885560761, 317.39263162040373)" fill-opacity="1">0.006</text><text fill="rgb(68,68,68)" stroke="none" font-family="helvetica" font-size="11px" font-style="normal" font-weight="normal" text-decoration="normal" x="444.0166015625" y="91.945068359375" text-anchor="start" dominant-baseline="alphabetic" transform="matrix(0.7071067811865476, -0.7071067811865475, 0.7071067811865475, 0.7071067811865476, 76.38648419588952, 359.7061793465281)" fill-opacity="1">0.008</text><text fill="rgb(68,68,68)" stroke="none" font-family="helvetica" font-size="11px" font-style="normal" font-weight="normal" text-decoration="normal" x="509.97467041015625" y="91.945068359375" text-anchor="start" dominant-baseline="alphabetic" transform="matrix(0.7071067811865476, -0.7071067811865475, 0.7071067811865475, 0.7071067811865476, 93.91332953617149, 402.01972707265236)" fill-opacity="1">0.01</text><text fill="rgb(68,68,68)" stroke="none" font-family="helvetica" font-size="11px" font-style="normal" font-weight="normal" text-decoration="normal" x="563.6974487304688" y="91.945068359375" text-anchor="start" dominant-baseline="alphabetic" transform="matrix(0.7071067811865476, -0.7071067811865475, 0.7071067811865475, 0.7071067811865476, 111.44019275323677, 444.3333179571496)" fill-opacity="1">0.012</text><text fill="rgb(68,68,68)" stroke="none" font-family="helvetica" font-size="13px" font-style="italic" font-weight="normal" text-decoration="normal" x="381.484130859375" y="133.04359534501222" text-anchor="start" dominant-baseline="alphabetic" transform="matrix(1, 0, 0, 1, 0.5, 0.5)" fill-opacity="1">Importance</text><path fill="none" stroke="rgb(0,0,0)" paint-order="fill" d="M 214.5 77.5 L 214.5 27.5" stroke-opacity="1" stroke-linejoin="bevel" stroke-miterlimit="10" stroke-dasharray=""/><path fill="none" stroke="rgb(0,0,0)" paint-order="fill" d="M 208.5 71.5 L 216.5 71.5 M 208.5 58.5 L 216.5 58.5 M 208.5 46.5 L 216.5 46.5 M 208.5 33.5 L 216.5 33.5" stroke-opacity="1" stroke-linejoin="bevel" stroke-miterlimit="10" stroke-dasharray=""/><path fill="none" stroke="rgb(0,0,0)" paint-order="fill" d="" stroke-opacity="1" stroke-linejoin="bevel" stroke-miterlimit="10" stroke-dasharray=""/><text fill="rgb(68,68,68)" stroke="none" font-family="helvetica" font-size="11px" font-style="normal" font-weight="normal" text-decoration="normal" x="139.8251953125" y="74.25" text-anchor="start" dominant-baseline="alphabetic" transform="matrix(1, 0, 0, 1, 0.5, 0.5)" fill-opacity="1">Transcription</text><text fill="rgb(68,68,68)" stroke="none" font-family="helvetica" font-size="11px" font-style="normal" font-weight="normal" text-decoration="normal" x="95.99169921875" y="61.75" text-anchor="start" dominant-baseline="alphabetic" transform="matrix(1, 0, 0, 1, 0.5, 0.5)" fill-opacity="1">Replication and repair</text><text fill="rgb(68,68,68)" stroke="none" font-family="helvetica" font-size="11px" font-style="normal" font-weight="normal" text-decoration="normal" x="97.232421875" y="49.25" text-anchor="start" dominant-baseline="alphabetic" transform="matrix(1, 0, 0, 1, 0.5, 0.5)" fill-opacity="1">Defense mechanisms</text><text fill="rgb(68,68,68)" stroke="none" font-family="helvetica" font-size="11px" font-style="normal" font-weight="normal" text-decoration="normal" x="3.0556640625" y="36.75" text-anchor="start" dominant-baseline="alphabetic" transform="matrix(1, 0, 0, 1, 0.5, 0.5)" fill-opacity="1">Cell wall/membrane/envelope biogenesis</text><path fill="none" stroke="none"/><text fill="rgb(68,68,68)" stroke="none" font-family="helvetica" font-size="13px" font-style="normal" font-weight="bold" text-decoration="normal" x="0" y="0" text-anchor="start" dominant-baseline="text-after-edge" transform="matrix(1, 0, 0, 1, 214.5, 22.5)" fill-opacity="1">Biome</text></svg>