<svg version="1.1" xmlns="http://www.w3.org/2000/svg" xmlns:xlink="http://www.w3.org/1999/xlink" width="753" height="139"><defs><clipPath id="UNfQoMVQmizc"><path fill="none" stroke="none" d="M 348.5 27.5 L 748.5 27.5 L 748.5 77.5 L 348.5 77.5 L 348.5 27.5"/></clipPath><clipPath id="eAWiVgfIUvhB"><path fill="none" stroke="none" d="M 348.5 27.5 L 748.5 27.5 L 748.5 77.5 L 348.5 77.5 L 348.5 27.5"/></clipPath><clipPath id="AxWVbKRfhfir"><path fill="none" stroke="none" d="M 348.5 27.5 L 748.5 27.5 L 748.5 77.5 L 348.5 77.5 L 348.5 27.5"/></clipPath><clipPath id="ypruFcuktCZS"><path fill="none" stroke="none" d="M 348.5 27.5 L 748.5 27.5 L 748.5 77.5 L 348.5 77.5 L 348.5 27.5"/></clipPath></defs><path fill="none" stroke="rgb(229,229,229)" paint-order="fill" d="M 348.5 27.5 L 748.5 27.5 L 748.5 77.5 L 348.5 77.5 L 348.5 27.5" stroke-opacity="1" stroke-linejoin="bevel" stroke-miterlimit="10" stroke-dasharray=""/><path fill="none" stroke="rgb(229,229,229)" paint-order="fill" d="M 366.5 77.5 L 366.5 27.5 M 441.5 77.5 L 441.5 27.5 M 515.5 77.5 L 515.5 27.5 M 589.5 77.5 L 589.5 27.5 M 664.5 77.5 L 664.5 27.5 M 738.5 77.5 L 738.5 27.5" stroke-opacity="1" stroke-linejoin="bevel" stroke-miterlimit="10" stroke-dasharray="" clip-path="url(#UNfQoMVQmizc)"/><path fill="none" stroke="rgb(229,229,229)" paint-order="fill" d="M 348.5 71.5 L 748.5 71.5 M 348.5 58.5 L 748.5 58.5 M 348.5 46.5 L 748.5 46.5 M 348.5 33.5 L 748.5 33.5" stroke-opacity="1" stroke-linejoin="bevel" stroke-miterlimit="10" stroke-dasharray="" clip-path="url(#eAWiVgfIUvhB)"/><path fill="none" stroke="none"/><path fill="rgb(72,166,130)" stroke="none" paint-order="stroke" d="M 366.68182373046875 28.75 L 730.3181762695312 28.75 L 730.3181762695312 38.75 L 366.68182373046875 38.75 L 366.68182373046875 28.75" fill-opacity="1" clip-path="url(#AxWVbKRfhfir)"/><path fill="none" stroke="rgb(72,166,130)" paint-order="fill" d="M 366.68182373046875 28.75 L 730.3181762695312 28.75 L 730.3181762695312 38.75 L 366.68182373046875 38.75 L 366.68182373046875 28.75" stroke-opacity="1" stroke-linejoin="bevel" stroke-miterlimit="10" stroke-dasharray="" clip-path="url(#AxWVbKRfhfir)"/><path fill="rgb(74,170,129)" stroke="none" paint-order="stroke" d="M 366.68182373046875 41.25 L 663.2818603515625 41.25 L 663.2818603515625 51.25 L 366.68182373046875 51.25 L 366.68182373046875 41.25" fill-opacity="1" clip-path="url(#AxWVbKRfhfir)"/><path fill="none" stroke="rgb(74,170,129)" paint-order="fill" d="M 366.68182373046875 41.25 L 663.2818603515625 41.25 L 663.2818603515625 51.25 L 366.68182373046875 51.25 L 366.68182373046875 41.25" stroke-opacity="1" stroke-linejoin="bevel" stroke-miterlimit="10" stroke-dasharray="" clip-path="url(#AxWVbKRfhfir)"/><path fill="rgb(69,163,132)" stroke="none" paint-order="stroke" d="M 366.68182373046875 53.75 L 608.061767578125 53.75 L 608.061767578125 63.75 L 366.68182373046875 63.75 L 366.68182373046875 53.75" fill-opacity="1" clip-path="url(#AxWVbKRfhfir)"/><path fill="none" stroke="rgb(69,163,132)" paint-order="fill" d="M 366.68182373046875 53.75 L 608.061767578125 53.75 L 608.061767578125 63.75 L 366.68182373046875 63.75 L 366.68182373046875 53.75" stroke-opacity="1" stroke-linejoin="bevel" stroke-miterlimit="10" stroke-dasharray="" clip-path="url(#AxWVbKRfhfir)"/><path fill="rgb(69,163,132)" stroke="none" paint-order="stroke" d="M 366.68182373046875 66.25 L 607.1068115234375 66.25 L 607.1068115234375 76.25 L 366.68182373046875 76.25 L 366.68182373046875 66.25" fill-opacity="1" clip-path="url(#AxWVbKRfhfir)"/><path fill="none" stroke="rgb(69,163,132)" paint-order="fill" d="M 366.68182373046875 66.25 L 607.1068115234375 66.25 L 607.1068115234375 76.25 L 366.68182373046875 76.25 L 366.68182373046875 66.25" stroke-opacity="1" stroke-linejoin="bevel" stroke-miterlimit="10" stroke-dasharray="" clip-path="url(#AxWVbKRfhfir)"/><path fill="none" stroke="rgb(0,0,0)" paint-order="fill" d="M 348.5 77.5 L 748.5 77.5" stroke-opacity="1" stroke-linejoin="bevel" stroke-miterlimit="10" stroke-dasharray=""/><path fill="none" stroke="rgb(0,0,0)" paint-order="fill" d="M 366.5 83.5 L 366.5 75.5 M 441.5 83.5 L 441.5 75.5 M 515.5 83.5 L 515.5 75.5 M 589.5 83.5 L 589.5 75.5 M 664.5 83.5 L 664.5 75.5 M 738.5 83.5 L 738.5 75.5" stroke-opacity="1" stroke-linejoin="bevel" stroke-miterlimit="10" stroke-dasharray=""/><path fill="none" stroke="rgb(0,0,0)" paint-order="fill" d="M 351.5 81.5 L 351.5 77.5 M 366.5 81.5 L 366.5 77.5 M 381.5 81.5 L 381.5 77.5 M 396.5 81.5 L 396.5 77.5 M 411.5 81.5 L 411.5 77.5 M 426.5 81.5 L 426.5 77.5 M 441.5 81.5 L 441.5 77.5 M 455.5 81.5 L 455.5 77.5 M 470.5 81.5 L 470.5 77.5 M 485.5 81.5 L 485.5 77.5 M 500.5 81.5 L 500.5 77.5 M 515.5 81.5 L 515.5 77.5 M 530.5 81.5 L 530.5 77.5 M 545.5 81.5 L 545.5 77.5 M 560.5 81.5 L 560.5 77.5 M 574.5 81.5 L 574.5 77.5 M 589.5 81.5 L 589.5 77.5 M 604.5 81.5 L 604.5 77.5 M 619.5 81.5 L 619.5 77.5 M 634.5 81.5 L 634.5 77.5 M 649.5 81.5 L 649.5 77.5 M 664.5 81.5 L 664.5 77.5 M 679.5 81.5 L 679.5 77.5 M 694.5 81.5 L 694.5 77.5 M 708.5 81.5 L 708.5 77.5 M 723.5 81.5 L 723.5 77.5 M 738.5 81.5 L 738.5 77.5" stroke-opacity="1" stroke-linejoin="bevel" stroke-miterlimit="10" stroke-dasharray=""/><text fill="rgb(68,68,68)" stroke="none" font-family="helvetica" font-size="11px" font-style="normal" font-weight="normal" text-decoration="normal" x="360.06414794921875" y="91.945068359375" text-anchor="start" dominant-baseline="alphabetic" transform="matrix(0.7071067811865476, -0.7071067811865475, 0.7071067811865475, 0.7071067811865476, 45.52677627898106, 285.2042539626553)" fill-opacity="1">0</text><text fill="rgb(68,68,68)" stroke="none" font-family="helvetica" font-size="11px" font-style="normal" font-weight="normal" text-decoration="normal" x="413.0489501953125" y="91.945068359375" text-anchor="start" dominant-baseline="alphabetic" transform="matrix(0.7071067811865476, -0.7071067811865475, 0.7071067811865475, 0.7071067811865476, 67.31626910786116, 337.80874306736894)" fill-opacity="1">0.002</text><text fill="rgb(68,68,68)" stroke="none" font-family="helvetica" font-size="11px" font-style="normal" font-weight="normal" text-decoration="normal" x="487.4429931640625" y="91.945068359375" text-anchor="start" dominant-baseline="alphabetic" transform="matrix(0.7071067811865476, -0.7071067811865475, 0.7071067811865475, 0.7071067811865476, 89.10577981352463, 390.41327533045546)" fill-opacity="1">0.004</text><text fill="rgb(68,68,68)" stroke="none" font-family="helvetica" font-size="11px" font-style="normal" font-weight="normal" text-decoration="normal" x="561.8369750976562" y="91.945068359375" text-anchor="start" dominant-baseline="alphabetic" transform="matrix(0.7071067811865476, -0.7071067811865475, 0.7071067811865475, 0.7071067811865476, 110.89527264240473, 443.01776443516906)" fill-opacity="1">0.006</text><text fill="rgb(68,68,68)" stroke="none" font-family="helvetica" font-size="11px" font-style="normal" font-weight="normal" text-decoration="normal" x="636.23095703125" y="91.945068359375" text-anchor="start" dominant-baseline="alphabetic" transform="matrix(0.7071067811865476, -0.7071067811865475, 0.7071067811865475, 0.7071067811865476, 132.6847654712849, 495.6222535398827)" fill-opacity="1">0.008</text><text fill="rgb(68,68,68)" stroke="none" font-family="helvetica" font-size="11px" font-style="normal" font-weight="normal" text-decoration="normal" x="716.7426147460938" y="91.945068359375" text-anchor="start" dominant-baseline="alphabetic" transform="matrix(0.7071067811865476, -0.7071067811865475, 0.7071067811865475, 0.7071067811865476, 154.47425830016505, 548.2267426445965)" fill-opacity="1">0.01</text><text fill="rgb(68,68,68)" stroke="none" font-family="helvetica" font-size="13px" font-style="italic" font-weight="normal" text-decoration="normal" x="515.484130859375" y="133.04359534501222" text-anchor="start" dominant-baseline="alphabetic" transform="matrix(1, 0, 0, 1, 0.5, 0.5)" fill-opacity="1">Importance</text><path fill="none" stroke="rgb(0,0,0)" paint-order="fill" d="M 348.5 77.5 L 348.5 27.5" stroke-opacity="1" stroke-linejoin="bevel" stroke-miterlimit="10" stroke-dasharray=""/><path fill="none" stroke="rgb(0,0,0)" paint-order="fill" d="M 342.5 71.5 L 350.5 71.5 M 342.5 58.5 L 350.5 58.5 M 342.5 46.5 L 350.5 46.5 M 342.5 33.5 L 350.5 33.5" stroke-opacity="1" stroke-linejoin="bevel" stroke-miterlimit="10" stroke-dasharray=""/><path fill="none" stroke="rgb(0,0,0)" paint-order="fill" d="" stroke-opacity="1" stroke-linejoin="bevel" stroke-miterlimit="10" stroke-dasharray=""/><text fill="rgb(68,68,68)" stroke="none" font-family="helvetica" font-size="11px" font-style="normal" font-weight="normal" text-decoration="normal" x="2.52587890625" y="74.25" text-anchor="start" dominant-baseline="alphabetic" transform="matrix(1, 0, 0, 1, 0.5, 0.5)" fill-opacity="1">Post-translational modification, protein turnover, chaperone functions</text><text fill="rgb(68,68,68)" stroke="none" font-family="helvetica" font-size="11px" font-style="normal" font-weight="normal" text-decoration="normal" x="273.8251953125" y="61.75" text-anchor="start" dominant-baseline="alphabetic" transform="matrix(1, 0, 0, 1, 0.5, 0.5)" fill-opacity="1">Transcription</text><text fill="rgb(68,68,68)" stroke="none" font-family="helvetica" font-size="11px" font-style="normal" font-weight="normal" text-decoration="normal" x="137.0556640625" y="49.25" text-anchor="start" dominant-baseline="alphabetic" transform="matrix(1, 0, 0, 1, 0.5, 0.5)" fill-opacity="1">Cell wall/membrane/envelope biogenesis</text><text fill="rgb(68,68,68)" stroke="none" font-family="helvetica" font-size="11px" font-style="normal" font-weight="normal" text-decoration="normal" x="273.8251953125" y="36.75" text-anchor="start" dominant-baseline="alphabetic" transform="matrix(1, 0, 0, 1, 0.5, 0.5)" fill-opacity="1">Transcription</text><path fill="none" stroke="none"/><text fill="rgb(68,68,68)" stroke="none" font-family="helvetica" font-size="13px" font-style="normal" font-weight="bold" text-decoration="normal" x="0" y="0" text-anchor="start" dominant-baseline="text-after-edge" transform="matrix(1, 0, 0, 1, 348.5, 22.5)" fill-opacity="1">Environmental Feature</text></svg>